<svg width="149" height="174" viewBox="0 0 149 174" fill="none" xmlns="http://www.w3.org/2000/svg">
<path opacity="0.6" d="M126.679 54.3927C126.679 54.3927 135.522 55.1661 135.945 57.5865C136.367 60.0069 134.284 63.9598 140.063 64.7905C145.841 65.6211 146.343 65.6068 147.868 60.988C148.885 57.9088 148.111 54.3999 148.111 54.3999C148.111 54.3999 138.158 52.1657 137.914 52.359C137.671 52.5524 126.679 54.3927 126.679 54.3927Z" fill="#B1A095"/>
<path d="M145.29 62.5133C147.216 60.0357 149.486 52.5739 147.123 50.9126C144.56 49.1009 133.804 46.2795 132.637 47.1101C130.911 48.3418 125.741 53.2829 123.75 54.3857H133.553C135.938 54.9013 135.136 59.6346 135.652 60.4796C136.353 61.6254 144.374 63.6949 145.29 62.5133Z" fill="#F4D7C6"/>
<mask id="mask0" mask-type="alpha" maskUnits="userSpaceOnUse" x="0" y="0" width="87" height="174">
<rect width="87" height="174" fill="white"/>
</mask>
<g mask="url(#mask0)">
<path d="M52.8494 94.6556C60.1392 93.8321 64.0992 89.9079 66.1902 86.5065C63.5335 85.2032 61.3065 84.1791 59.774 83.5203C51.9901 80.1905 56.4299 74.0965 56.523 54.5471C56.616 34.9977 48.3165 28.2234 48.3165 28.2234C48.3165 28.2234 52.5701 28.3738 57.5541 28.6459C49.6413 18.7853 35.5843 21.6425 31.2305 24.5356C26.6331 27.6004 17.2165 36.7593 20.4676 49.9784C21.0476 50.4081 21.6491 50.8377 22.2864 51.2531C21.6491 50.8377 21.0476 50.4081 20.4676 49.9784C21.1837 52.9001 22.5228 56.0151 24.6639 59.3092C25.6306 59.3163 26.2536 59.1803 26.2536 59.1803C26.2536 59.1803 25.6306 59.3163 24.6639 59.3092C25.2081 60.1398 25.7953 60.9848 26.447 61.8441C41.2558 81.3864 54.747 79.0662 43.6261 88.1821C42.7882 88.8696 41.8502 89.5857 40.8405 90.3447C43.6404 93.1232 47.5503 95.25 52.8494 94.6556Z" fill="#F4D7C6"/>
<path d="M94.4973 105.197C94.6835 104.509 94.8052 103.829 94.8912 103.149C85.897 96.7395 74.1101 90.3877 66.1829 86.5065C64.0919 89.9079 60.1319 93.8321 52.842 94.6556C47.5429 95.25 43.6331 93.1304 40.8403 90.3447C34.152 95.3431 24.2126 101.888 18.2546 110.138C18.3048 112.93 19.0853 116.962 22.5584 120.156C26.0959 123.414 28.8528 124.187 30.4999 124.281C30.8866 122.175 31.839 120.113 33.5719 118.523C35.0471 117.177 37.0808 116.174 39.8234 115.773C37.0808 116.174 35.0399 117.177 33.5719 118.523C35.8205 121.23 42.8095 129.716 50.2784 139.727C56.0645 139.533 57.511 137.722 58.757 134.213C60.0889 130.453 56.5371 125.806 58.8572 126.973C61.1774 128.14 61.1774 131.893 61.4996 132.587C61.8147 133.282 64.9226 133.053 68.0805 132.286C71.2385 131.52 72.5203 131.964 71.8973 138.166C71.2743 144.367 66.0898 144.209 60.7048 143.801C59.5017 143.708 57.2174 144.36 54.2742 145.176C55.1837 146.437 56.086 147.704 56.9739 148.979C68.1307 164.948 88.2458 170.999 88.2458 170.999L98.2568 140.98C98.2568 140.98 88.6325 126.551 84.3789 108.827C84.1497 107.882 83.9421 106.93 83.7487 105.97C83.9421 106.93 84.1569 107.882 84.3789 108.827C86.162 109.493 88.2816 110.36 90.4728 111.441C91.9122 110.374 93.6237 108.469 94.4973 105.197Z" fill="#269DBD"/>
<path d="M56.5236 54.5472C56.4305 74.0966 51.9907 80.1906 59.7747 83.5204C61.3071 84.1793 63.5342 85.2033 66.1909 86.5066C67.3438 84.6376 67.931 82.9261 68.1959 81.9808C68.067 81.945 67.9382 81.9021 67.8093 81.8734C50.6659 77.1758 64.1787 71.9913 63.0973 46.9709C62.8109 47.1786 62.5316 47.3433 62.2667 47.4579C62.5316 47.3433 62.8109 47.1786 63.0973 46.9709C63.0615 46.0687 63.0043 45.1521 62.9255 44.1996C62.7178 41.6432 62.3168 39.3588 61.7654 37.318C61.1925 37.8694 60.7844 38.1057 60.7844 38.1057C60.7844 38.1057 61.1925 37.8694 61.7654 37.318C60.7915 33.6945 59.3235 30.8588 57.5548 28.6532C52.5707 28.3811 48.3171 28.2307 48.3171 28.2307C48.3171 28.2307 56.6095 34.9978 56.5236 54.5472Z" fill="#F1BA9A"/>
<path d="M94.898 103.148C95.2488 100.549 94.9839 98.0714 94.5972 96.1809C86.4409 90.4306 76.5373 84.3653 68.1948 81.9807C67.9298 82.926 67.3354 84.6374 66.1897 86.5064C74.1169 90.3877 85.9038 96.7394 94.898 103.148Z" fill="#047492"/>
<path d="M84.3869 108.827L79.3813 107.18L88.0031 120.507C88.0031 120.514 85.017 111.684 84.3869 108.827Z" fill="#047492"/>
<path d="M17.2587 47.2288C16.2346 48.4962 14.2296 51.7975 17.1512 55.557C19.6218 58.7364 22.7941 59.295 24.6631 59.3093C22.522 56.0153 21.1829 52.9002 20.4668 49.9786C19.278 49.0906 18.2111 48.1668 17.2587 47.2288Z" fill="#F1BA9A"/>
<path d="M61.772 37.3108C62.3234 39.3516 62.7172 41.636 62.932 44.1924C63.0108 45.1448 63.0681 46.0686 63.1039 46.9637C65.1877 45.4599 67.7084 41.7004 67.1069 37.8192C66.7059 35.1983 65.331 33.9666 64.2855 33.4009C63.5121 35.3558 62.5024 36.6018 61.772 37.3108Z" fill="#F1BA9A"/>
<path d="M20.4675 49.9785C17.2164 36.7594 26.633 27.6005 31.2304 24.5357C36.5581 20.991 56.4226 17.4893 61.7647 37.3108C62.5022 36.6019 63.5119 35.3559 64.2782 33.4009C63.5621 33.0142 62.9963 32.9355 62.9963 32.9355C62.9963 32.9355 63.5621 33.0142 64.2782 33.4009C65.3738 30.6081 65.9753 26.3545 64.5646 20.103C61.4066 6.09619 48.7317 -0.0335844 37.1382 2.59449C25.5446 5.22256 17.8967 11.7605 18.0685 14.1594C18.2404 16.5583 23.8259 25.796 23.8259 25.796C23.8259 25.796 14.4881 20.1388 12.6692 20.8907C11.0436 21.5639 5.65861 35.7855 17.2594 47.2287C17.5458 46.8707 17.7606 46.6773 17.7606 46.6773C17.7606 46.6773 17.5529 46.8707 17.2594 47.2287C18.2118 48.1668 19.2787 49.0906 20.4675 49.9785Z" fill="#330000"/>
<path d="M37.4139 50.1831C38.1027 49.9742 38.3681 48.8384 38.0065 47.6462C37.645 46.4539 36.7935 45.6568 36.1047 45.8657C35.4158 46.0746 35.1505 47.2104 35.512 48.4026C35.8736 49.5948 36.725 50.392 37.4139 50.1831Z" fill="#330000"/>
<path d="M46.9532 47.2912C47.642 47.0824 47.9074 45.9465 47.5458 44.7543C47.1843 43.5621 46.3328 42.765 45.644 42.9738C44.9551 43.1827 44.6898 44.3185 45.0513 45.5108C45.4129 46.703 46.2644 47.5001 46.9532 47.2912Z" fill="#330000"/>
<path d="M37.3179 61.6078C37.3179 61.6078 46.0614 65.6108 52.6566 58.1133" stroke="#330000" stroke-miterlimit="10" stroke-linecap="round" stroke-linejoin="round"/>
<path d="M20.4672 49.9785C20.4672 49.9785 29.0676 38.564 28.731 32.6633C28.731 32.6633 36.028 33.2004 43.991 29.7703C51.954 26.3402 61.7716 37.3108 61.7716 37.3108L62.0795 28.0016L51.6532 17.1885L40.5824 16.6873L33.6434 20.0457L22.5439 30.1427L17.6172 40.2611L20.4672 49.9785Z" fill="#330000"/>
<path d="M33.5793 118.523C33.5793 118.523 34.5031 117.213 36.7946 116.561L46.7054 134.986L33.5793 118.523Z" fill="#047492"/>
<path d="M47.8109 122.971C46.1804 128.004 51.0613 134.367 59.4502 139.216L66.7628 116.633C57.1245 115.648 49.4414 117.938 47.8109 122.971Z" fill="#FFA340"/>
<path d="M73.9303 117.921L66.0107 142.378C67.0872 142.812 68.1883 143.222 69.3282 143.599L77.336 118.874C76.1925 118.514 75.0561 118.2 73.9303 117.921Z" fill="#FFA340"/>
<path d="M101.139 134.665L49.4478 117.926L47.484 123.99L99.1756 140.729L101.139 134.665Z" fill="#FFA340"/>
<path d="M99.4997 139.71C100.823 135.62 97.8481 130.654 92.1908 126.331L85.7358 146.264C92.8542 146.08 98.1763 143.801 99.4997 139.71Z" fill="#FFA340"/>
<path d="M66.7627 116.633L59.4502 139.216C61.4477 140.37 63.657 141.429 66.011 142.375L73.9305 117.917C71.4707 117.307 69.0602 116.869 66.7627 116.633Z" fill="#FFB96E"/>
<path d="M77.6608 118.973C77.5514 118.937 77.4455 118.909 77.3361 118.874L69.3284 143.599C69.4378 143.635 69.5401 143.677 69.6495 143.712C75.3774 145.569 80.9606 146.387 85.7356 146.264L92.1906 126.331C88.3931 123.434 83.3923 120.825 77.6608 118.973Z" fill="#FFB96E"/>
<path d="M100.694 136.029C102.906 129.197 93.129 119.912 78.8557 115.29C64.5824 110.667 51.2181 112.458 49.0058 119.29C46.7935 126.122 56.5708 135.407 70.8441 140.029C85.1174 144.651 98.4817 142.86 100.694 136.029Z" fill="#E0821B"/>
<path d="M100.994 135.108C103.207 128.277 93.4293 118.992 79.156 114.369C64.8827 109.747 51.5184 111.538 49.3061 118.37C47.0937 125.201 56.8711 134.487 71.1444 139.109C85.4177 143.731 98.782 141.94 100.994 135.108Z" fill="#FCCA4C"/>
<path d="M95.7024 133.395C97.4067 128.132 89.5867 120.886 78.2359 117.21C66.8851 113.534 56.3019 114.821 54.5976 120.084C52.8933 125.346 60.7133 132.593 72.0641 136.268C83.4149 139.944 93.9981 138.658 95.7024 133.395Z" fill="#FFE066"/>
</g>
<path d="M47.8109 122.971C46.1804 128.004 51.0613 134.367 59.4502 139.216L66.7628 116.633C57.1245 115.648 49.4414 117.938 47.8109 122.971Z" fill="#FFA340"/>
<path d="M73.9303 117.921L66.0107 142.378C67.0872 142.812 68.1883 143.222 69.3282 143.599L77.336 118.874C76.1925 118.514 75.0561 118.2 73.9303 117.921Z" fill="#FFA340"/>
<path d="M99.4997 139.71C100.823 135.62 97.8481 130.654 92.1908 126.331L85.7358 146.264C92.8542 146.08 98.1763 143.8 99.4997 139.71Z" fill="#FFA340"/>
<path d="M66.7627 116.633L59.4502 139.216C61.4477 140.37 63.657 141.429 66.011 142.375L73.9305 117.917C71.4707 117.307 69.0602 116.869 66.7627 116.633Z" fill="#FFB96E"/>
<path d="M77.6608 118.972C77.5514 118.937 77.4455 118.909 77.3361 118.874L69.3284 143.599C69.4378 143.635 69.5401 143.677 69.6495 143.712C75.3774 145.569 80.9606 146.387 85.7356 146.264L92.1906 126.331C88.3931 123.433 83.3923 120.825 77.6608 118.972Z" fill="#FFB96E"/>
<path d="M100.694 136.028C102.906 129.197 93.129 119.912 78.8557 115.289C64.5824 110.667 51.2181 112.458 49.0058 119.29C46.7935 126.121 56.5708 135.407 70.8441 140.029C85.1174 144.651 98.4817 142.86 100.694 136.028Z" fill="#E0821B"/>
<path d="M100.994 135.108C103.207 128.277 93.4293 118.992 79.156 114.369C64.8827 109.747 51.5184 111.538 49.3061 118.37C47.0937 125.201 56.8711 134.486 71.1444 139.109C85.4177 143.731 98.782 141.94 100.994 135.108Z" fill="#FCCA4C"/>
<path d="M95.7024 133.395C97.4067 128.132 89.5867 120.886 78.2359 117.21C66.8851 113.534 56.3019 114.821 54.5976 120.083C52.8933 125.346 60.7133 132.592 72.0641 136.268C83.4149 139.944 93.9981 138.658 95.7024 133.395Z" fill="#FFE066"/>
<path opacity="0.57" d="M70.3791 136.239C67.1424 137.149 63.9343 137.5 63.5762 136.798C63.2182 136.096 63.075 132.215 60.6331 131.091C58.1912 129.966 62.0438 134.65 60.7978 138.588C59.6377 142.262 58.2055 144.188 52.2333 144.611C51.8108 144.639 51.3597 144.661 50.8942 144.675C43.7762 144.89 35.8705 142.14 32.9202 138.008C31.5811 136.132 30.7003 132.716 31.1944 129.351C29.4901 129.315 26.6114 128.62 22.8232 125.376C19.1139 122.197 18.1543 118.058 17.9968 115.165C12.9769 122.662 11.022 131.349 16.8367 141.152C27.4134 158.99 46.1107 153.39 56.5657 150.096C59.5804 149.144 61.9149 148.384 63.1681 148.435C68.7608 148.664 74.1315 148.635 74.5468 142.19C74.9622 135.738 73.6159 135.33 70.3791 136.239Z" fill="#B28520"/>
<path d="M68.0877 132.186C64.9297 132.953 61.8218 133.175 61.5067 132.487C61.1917 131.8 61.1845 128.047 58.8643 126.873C56.5442 125.706 60.096 130.353 58.7641 134.113C57.5181 137.622 56.0716 139.433 50.2855 139.627C49.8774 139.641 49.4405 139.648 48.9894 139.641C42.1149 139.605 34.5815 136.669 31.8747 132.58C30.643 130.726 29.9198 127.396 30.5141 124.166C28.8671 124.073 26.1101 123.3 22.5726 120.041C19.0996 116.848 18.319 112.816 18.2689 110.023C13.1631 117.084 10.979 125.398 16.2495 135.065C25.838 152.645 44.077 147.89 54.2813 145.069C57.2245 144.253 59.5017 143.601 60.7119 143.694C66.0969 144.109 71.2886 144.267 71.9044 138.058C72.5275 131.864 71.2456 131.42 68.0877 132.186Z" fill="#F4D7C6"/>
</svg>
