<svg width="30" height="31" viewBox="0 0 30 31" fill="none" xmlns="http://www.w3.org/2000/svg">
<path d="M18.814 5.16806H10.4219C9.92863 5.16806 9.52832 4.76775 9.52832 4.27452C9.52832 3.78129 9.92863 3.38098 10.4219 3.38098H18.814C19.3072 3.38098 19.7075 3.78129 19.7075 4.27452C19.7075 4.76775 19.3072 5.16806 18.814 5.16806Z" fill="#003D59"/>
<path d="M28.343 30.0799H0.893539C0.400305 30.0799 0 29.6796 0 29.1864V4.27452C0 3.78129 0.400305 3.38098 0.893539 3.38098H6.06177C6.555 3.38098 6.9553 3.78129 6.9553 4.27452C6.9553 4.76775 6.555 5.16806 6.06177 5.16806H1.78708V28.2857H27.4495V5.16806H23.1748C22.6816 5.16806 22.2813 4.76775 22.2813 4.27452C22.2813 3.78129 22.6816 3.38098 23.1748 3.38098H28.343C28.8363 3.38098 29.2366 3.78129 29.2366 4.27452V29.1792C29.2366 29.6796 28.8363 30.0799 28.343 30.0799Z" fill="#003D59"/>
<path d="M10.422 7.87731H6.06151C5.56827 7.87731 5.16797 7.47701 5.16797 6.98378V0.893416C5.16797 0.400183 5.56827 -0.00012207 6.06151 -0.00012207H10.422C10.9152 -0.00012207 11.3155 0.400183 11.3155 0.893416V6.98378C11.3155 7.47701 10.9152 7.87731 10.422 7.87731ZM6.95505 6.09024H9.52844V1.78695H6.95505V6.09024Z" fill="#003D59"/>
<path d="M8.73462 18.8716H5.68944C5.1962 18.8716 4.7959 18.4713 4.7959 17.978V14.9328C4.7959 14.4396 5.1962 14.0393 5.68944 14.0393H8.73462C9.22785 14.0393 9.62816 14.4396 9.62816 14.9328V17.978C9.62816 18.4784 9.22785 18.8716 8.73462 18.8716ZM6.58298 17.0845H7.84108V15.8264H6.58298V17.0845Z" fill="#003D59"/>
<path d="M16.1409 18.8716H13.0957C12.6025 18.8716 12.2021 18.4713 12.2021 17.978V14.9328C12.2021 14.4396 12.6025 14.0393 13.0957 14.0393H16.1409C16.6341 14.0393 17.0344 14.4396 17.0344 14.9328V17.978C17.0344 18.4784 16.6341 18.8716 16.1409 18.8716ZM13.9892 17.0845H15.2473V15.8264H13.9892V17.0845Z" fill="#003D59"/>
<path d="M23.554 18.8716H20.5088C20.0155 18.8716 19.6152 18.4713 19.6152 17.978V14.9328C19.6152 14.4396 20.0155 14.0393 20.5088 14.0393H23.554C24.0472 14.0393 24.4475 14.4396 24.4475 14.9328V17.978C24.4475 18.4784 24.0472 18.8716 23.554 18.8716ZM21.3952 17.0845H22.6533V15.8264H21.3952V17.0845Z" fill="#003D59"/>
<path d="M8.73462 25.6767H5.68944C5.1962 25.6767 4.7959 25.2764 4.7959 24.7832V21.738C4.7959 21.2448 5.1962 20.8445 5.68944 20.8445H8.73462C9.22785 20.8445 9.62816 21.2448 9.62816 21.738V24.7832C9.62816 25.2764 9.22785 25.6767 8.73462 25.6767ZM6.58298 23.8897H7.84108V22.6316H6.58298V23.8897Z" fill="#003D59"/>
<path d="M16.1409 25.6767H13.0957C12.6025 25.6767 12.2021 25.2764 12.2021 24.7832V21.738C12.2021 21.2448 12.6025 20.8445 13.0957 20.8445H16.1409C16.6341 20.8445 17.0344 21.2448 17.0344 21.738V24.7832C17.0344 25.2764 16.6341 25.6767 16.1409 25.6767ZM13.9892 23.8897H15.2473V22.6316H13.9892V23.8897Z" fill="#003D59"/>
<path d="M23.554 25.6767H20.5088C20.0155 25.6767 19.6152 25.2764 19.6152 24.7832V21.738C19.6152 21.2448 20.0155 20.8445 20.5088 20.8445H23.554C24.0472 20.8445 24.4475 21.2448 24.4475 21.738V24.7832C24.4475 25.2764 24.0472 25.6767 23.554 25.6767ZM21.3952 23.8897H22.6533V22.6316H21.3952V23.8897Z" fill="#003D59"/>
<path d="M23.1749 7.87731H18.8144C18.3212 7.87731 17.9209 7.47701 17.9209 6.98378V0.893416C17.9209 0.400183 18.3212 -0.00012207 18.8144 -0.00012207H23.1749C23.6681 -0.00012207 24.0684 0.400183 24.0684 0.893416V6.98378C24.0684 7.47701 23.6681 7.87731 23.1749 7.87731ZM19.708 6.09024H22.2814V1.78695H19.708V6.09024Z" fill="#003D59"/>
<path d="M28.343 12.0735H0.893539C0.400305 12.0735 0 11.6731 0 11.1799C0 10.6867 0.400305 10.2864 0.893539 10.2864H28.343C28.8363 10.2864 29.2366 10.6867 29.2366 11.1799C29.2366 11.6731 28.8363 12.0735 28.343 12.0735Z" fill="#003D59"/>
</svg>
