<svg width="376" height="472" viewBox="0 0 376 472" fill="none" xmlns="http://www.w3.org/2000/svg">
<rect width="376" height="472" fill="#202020"/>
<path d="M122.716 323C122.533 323 122.375 322.933 122.241 322.8C122.108 322.667 122.041 322.508 122.041 322.325V306.175C122.041 305.992 122.108 305.833 122.241 305.7C122.375 305.567 122.533 305.5 122.716 305.5H126.666C127.133 305.5 127.491 305.725 127.741 306.175L131.366 312.175L134.991 306.175C135.241 305.725 135.6 305.5 136.066 305.5H140.016C140.2 305.5 140.358 305.567 140.491 305.7C140.625 305.833 140.691 305.992 140.691 306.175V322.325C140.691 322.508 140.625 322.667 140.491 322.8C140.358 322.933 140.2 323 140.016 323H135.491C135.308 323 135.15 322.933 135.016 322.8C134.883 322.667 134.816 322.508 134.816 322.325V315.475L133.166 318.175C133.05 318.358 132.916 318.508 132.766 318.625C132.633 318.742 132.458 318.8 132.241 318.8H130.491C130.275 318.8 130.091 318.742 129.941 318.625C129.808 318.508 129.683 318.358 129.566 318.175L127.916 315.475V322.325C127.916 322.508 127.85 322.667 127.716 322.8C127.583 322.933 127.425 323 127.241 323H122.716ZM148.503 323C148.319 323 148.161 322.933 148.028 322.8C147.894 322.667 147.828 322.508 147.828 322.325V317.4L142.203 306.275C142.169 306.208 142.153 306.133 142.153 306.05C142.153 305.9 142.203 305.775 142.303 305.675C142.419 305.558 142.553 305.5 142.703 305.5H147.403C147.686 305.5 147.911 305.575 148.078 305.725C148.261 305.858 148.386 305.992 148.453 306.125L150.953 311.15L153.453 306.125C153.519 305.992 153.636 305.858 153.803 305.725C153.986 305.575 154.219 305.5 154.503 305.5H159.203C159.353 305.5 159.478 305.558 159.578 305.675C159.694 305.775 159.753 305.9 159.753 306.05C159.753 306.133 159.736 306.208 159.703 306.275L154.078 317.4V322.325C154.078 322.508 154.011 322.667 153.878 322.8C153.744 322.933 153.586 323 153.403 323H148.503ZM165.832 323C165.648 323 165.49 322.933 165.357 322.8C165.223 322.667 165.157 322.508 165.157 322.325V306.175C165.157 305.992 165.223 305.833 165.357 305.7C165.49 305.567 165.648 305.5 165.832 305.5H173.407C175.74 305.5 177.573 306.017 178.907 307.05C180.257 308.083 180.932 309.608 180.932 311.625C180.932 313.625 180.265 315.117 178.932 316.1C177.598 317.067 175.757 317.55 173.407 317.55H171.657V322.325C171.657 322.508 171.59 322.667 171.457 322.8C171.323 322.933 171.165 323 170.982 323H165.832ZM173.282 312.925C173.582 312.925 173.848 312.817 174.082 312.6C174.315 312.367 174.432 312.025 174.432 311.575C174.432 311.192 174.34 310.858 174.157 310.575C173.973 310.292 173.682 310.15 173.282 310.15H171.532V312.925H173.282ZM183.459 323C183.275 323 183.117 322.942 182.984 322.825C182.85 322.692 182.784 322.525 182.784 322.325V306.175C182.784 305.992 182.85 305.833 182.984 305.7C183.117 305.567 183.275 305.5 183.459 305.5H188.359C188.542 305.5 188.7 305.567 188.834 305.7C188.967 305.833 189.034 305.992 189.034 306.175V311.425H193.084V306.175C193.084 305.992 193.15 305.833 193.284 305.7C193.417 305.567 193.575 305.5 193.759 305.5H198.659C198.842 305.5 199 305.567 199.134 305.7C199.267 305.833 199.334 305.992 199.334 306.175V322.325C199.334 322.508 199.267 322.667 199.134 322.8C199 322.933 198.842 323 198.659 323H193.759C193.575 323 193.417 322.933 193.284 322.8C193.15 322.667 193.084 322.508 193.084 322.325V316.925H189.034V322.325C189.034 322.508 188.967 322.667 188.834 322.8C188.7 322.933 188.542 323 188.359 323H183.459ZM209.995 323.25C207.495 323.25 205.503 322.675 204.02 321.525C202.537 320.375 201.745 318.7 201.645 316.5C201.628 316.05 201.62 315.325 201.62 314.325C201.62 313.308 201.628 312.567 201.645 312.1C201.695 310.667 202.07 309.433 202.77 308.4C203.487 307.367 204.462 306.583 205.695 306.05C206.928 305.517 208.362 305.25 209.995 305.25C211.628 305.25 213.062 305.517 214.295 306.05C215.528 306.583 216.495 307.367 217.195 308.4C217.912 309.433 218.295 310.667 218.345 312.1C218.378 313.033 218.395 313.775 218.395 314.325C218.395 314.875 218.378 315.6 218.345 316.5C218.245 318.7 217.453 320.375 215.97 321.525C214.487 322.675 212.495 323.25 209.995 323.25ZM209.995 318.375C210.562 318.375 211.003 318.208 211.32 317.875C211.653 317.542 211.828 317.033 211.845 316.35C211.878 315.383 211.895 314.675 211.895 314.225C211.895 313.742 211.878 313.05 211.845 312.15C211.828 311.467 211.653 310.958 211.32 310.625C210.987 310.292 210.545 310.125 209.995 310.125C209.445 310.125 209.003 310.292 208.67 310.625C208.337 310.958 208.162 311.467 208.145 312.15C208.128 312.6 208.12 313.292 208.12 314.225C208.12 315.158 208.128 315.867 208.145 316.35C208.162 317.033 208.328 317.542 208.645 317.875C208.978 318.208 209.428 318.375 209.995 318.375ZM225.029 323C224.846 323 224.687 322.933 224.554 322.8C224.421 322.667 224.354 322.508 224.354 322.325V310.875H220.204C220.021 310.875 219.862 310.808 219.729 310.675C219.596 310.542 219.529 310.383 219.529 310.2V306.175C219.529 305.992 219.596 305.833 219.729 305.7C219.862 305.567 220.021 305.5 220.204 305.5H234.854C235.037 305.5 235.196 305.567 235.329 305.7C235.462 305.833 235.529 305.992 235.529 306.175V310.2C235.529 310.383 235.462 310.542 235.329 310.675C235.196 310.808 235.037 310.875 234.854 310.875H230.704V322.325C230.704 322.508 230.637 322.667 230.504 322.8C230.371 322.933 230.212 323 230.029 323H225.029ZM245.054 323.25C242.554 323.25 240.562 322.675 239.079 321.525C237.595 320.375 236.804 318.7 236.704 316.5C236.687 316.05 236.679 315.325 236.679 314.325C236.679 313.308 236.687 312.567 236.704 312.1C236.754 310.667 237.129 309.433 237.829 308.4C238.545 307.367 239.52 306.583 240.754 306.05C241.987 305.517 243.42 305.25 245.054 305.25C246.687 305.25 248.12 305.517 249.354 306.05C250.587 306.583 251.554 307.367 252.254 308.4C252.97 309.433 253.354 310.667 253.404 312.1C253.437 313.033 253.454 313.775 253.454 314.325C253.454 314.875 253.437 315.6 253.404 316.5C253.304 318.7 252.512 320.375 251.029 321.525C249.545 322.675 247.554 323.25 245.054 323.25ZM245.054 318.375C245.62 318.375 246.062 318.208 246.379 317.875C246.712 317.542 246.887 317.033 246.904 316.35C246.937 315.383 246.954 314.675 246.954 314.225C246.954 313.742 246.937 313.05 246.904 312.15C246.887 311.467 246.712 310.958 246.379 310.625C246.045 310.292 245.604 310.125 245.054 310.125C244.504 310.125 244.062 310.292 243.729 310.625C243.395 310.958 243.22 311.467 243.204 312.15C243.187 312.6 243.179 313.292 243.179 314.225C243.179 315.158 243.187 315.867 243.204 316.35C243.22 317.033 243.387 317.542 243.704 317.875C244.037 318.208 244.487 318.375 245.054 318.375Z" fill="#FAFAFA"/>
<rect x="121" y="150" width="133" height="133" rx="8.86667" fill="#E5F5F9"/>
<rect x="123.217" y="152.217" width="128.567" height="128.567" rx="6.65" stroke="black" stroke-width="4.43333"/>
<rect x="136.517" y="165.517" width="101.967" height="101.967" rx="6.65" stroke="black" stroke-width="4.43333"/>
<path d="M147.969 228.034H138.733V261.558C138.733 264.006 140.718 265.991 143.166 265.991H231.833C234.282 265.991 236.266 264.006 236.266 261.558V237.307H227.4L205.233 215.052L190.455 229.888L168.289 207.633L147.969 228.034Z" fill="#91FF31"/>
<path d="M138.733 227.214H147.969L168.289 206.894L190.455 229.061L205.233 214.283L227.4 236.45H238.483" stroke="black" stroke-width="3.69444" stroke-linejoin="round"/>
<path d="M214.1 214.283C214.1 230.201 201.201 243.1 185.283 243.1C183.271 243.1 181.259 242.884 179.354 242.489C166.276 239.758 156.466 228.153 156.466 214.283C156.466 200.414 166.276 188.808 179.354 186.077C181.259 185.682 183.271 185.467 185.283 185.467C201.201 185.467 214.1 198.366 214.1 214.283Z" fill="#91FF31"/>
<path d="M214.1 214.283C214.1 230.201 201.201 243.1 185.283 243.1C183.271 243.1 181.259 242.884 179.354 242.489C192.433 239.758 202.243 228.153 202.243 214.283C202.243 200.414 192.433 188.808 179.354 186.077C181.259 185.682 183.271 185.467 185.283 185.467C201.201 185.467 214.1 198.366 214.1 214.283Z" fill="#00EA80"/>
<path d="M185.283 231.027C186.756 231.027 187.978 229.805 187.978 228.332V206.738L195.631 214.391C196.673 215.433 198.398 215.433 199.44 214.391C200.482 213.349 200.482 211.624 199.44 210.582L187.187 198.33C186.684 197.827 186.002 197.539 185.283 197.539C184.564 197.539 183.882 197.827 183.379 198.33L171.126 210.582C170.084 211.624 170.084 213.349 171.126 214.391C171.665 214.93 172.348 215.181 173.031 215.181C173.713 215.181 174.396 214.93 174.935 214.391L182.588 206.738V228.332C182.588 229.805 183.81 231.027 185.283 231.027Z" fill="black"/>
<circle cx="185.283" cy="214.283" r="26.6" stroke="black" stroke-width="4.43333"/>
<circle cx="207.45" cy="196.55" r="7.67308" fill="#FFEB31"/>
<path fill-rule="evenodd" clip-rule="evenodd" d="M204.039 203.425C206.566 202.17 208.302 199.563 208.302 196.55C208.302 193.537 206.566 190.93 204.039 189.674C205.067 189.164 206.224 188.877 207.449 188.877C211.687 188.877 215.122 192.312 215.122 196.55C215.122 200.788 211.687 204.223 207.449 204.223C206.224 204.223 205.067 203.936 204.039 203.425Z" fill="#FFCE00"/>
<circle cx="207.45" cy="196.55" r="9.37821" stroke="black" stroke-width="3.41026"/>
<path d="M253.523 99.4556C250.523 102.756 252.023 105.956 253.023 107.256C251.523 106.456 248.223 105.056 245.223 108.356C241.223 112.656 247.623 120.056 255.923 118.256C260.623 117.256 263.123 117.556 264.323 117.956C264.423 117.956 264.523 118.056 264.723 118.056C264.623 117.956 264.623 117.856 264.523 117.756C264.023 116.556 263.623 114.156 264.223 109.356C265.323 100.956 257.523 95.1556 253.523 99.4556Z" fill="#EF1818"/>
<path d="M253.701 99.6113C250.701 102.911 252.201 106.111 253.201 107.411C251.701 106.611 248.401 105.211 245.401 108.511C241.401 112.811 247.801 120.211 256.101 118.411C260.801 117.411 263.301 117.711 264.501 118.111C264.601 118.111 264.701 118.211 264.901 118.211C264.801 118.111 264.801 118.011 264.701 117.911C264.201 116.711 263.801 114.311 264.401 109.511C265.501 101.111 257.701 95.3113 253.701 99.6113Z" stroke="black" stroke-miterlimit="10"/>
<path d="M110.363 122.563C108.363 128.863 101.663 132.363 95.3627 130.363C89.0627 128.363 85.5628 121.663 87.5628 115.363C89.5628 109.063 96.2628 105.563 102.563 107.563C108.763 109.563 112.263 116.263 110.363 122.563Z" fill="#E0821B"/>
<path d="M109.763 122.363C107.863 128.363 101.463 131.663 95.5628 129.863C89.5628 127.963 86.2628 121.563 88.0628 115.663C89.9628 109.663 96.3628 106.363 102.263 108.163C108.163 109.963 111.663 116.463 109.763 122.363Z" fill="#FCCA4C"/>
<path d="M107.563 121.663C106.063 126.463 100.963 129.063 96.2628 127.563C91.4628 126.063 88.8627 120.963 90.3627 116.263C91.8627 111.463 96.9628 108.863 101.663 110.363C106.363 111.863 109.063 116.963 107.563 121.663Z" fill="#FFE066"/>
<g opacity="0.23">
<g opacity="0.23">
<path opacity="0.23" d="M90.5627 110.463L97.9628 130.863C100.063 131.063 102.063 130.663 103.963 129.763L95.8627 107.363C93.8627 108.063 91.9627 109.063 90.5627 110.463Z" fill="#FFE066"/>
</g>
</g>
<path d="M105.763 109.263C105.763 109.163 105.763 109.163 105.763 109.263C105.363 108.963 104.863 108.663 104.363 108.463C104.263 108.363 104.163 108.363 104.063 108.263C103.563 108.063 103.063 107.863 102.563 107.663C102.463 107.663 102.363 107.563 102.263 107.563C100.063 106.963 97.9627 106.963 95.8627 107.563C94.9627 107.863 94.0627 108.163 93.1627 108.663C93.0627 108.663 92.9627 108.763 92.9627 108.763C92.6627 108.963 92.2627 109.163 91.9627 109.463C91.8627 109.563 91.8627 109.563 91.7627 109.663C91.3627 109.963 91.0627 110.263 90.6627 110.563C89.2627 111.863 88.2627 113.563 87.6627 115.463C85.6627 121.763 89.1627 128.463 95.4627 130.463C96.3627 130.763 97.1627 130.863 98.0627 130.963C98.1627 130.963 98.1627 130.963 98.2627 130.963C98.6627 130.963 99.0627 130.963 99.4627 130.963C99.5627 130.963 99.6627 130.963 99.7627 130.963C100.163 130.963 100.563 130.863 100.963 130.863C101.063 130.863 101.063 130.863 101.163 130.863C101.663 130.763 102.063 130.663 102.563 130.563H102.663C103.063 130.463 103.463 130.263 103.863 130.063C103.863 130.063 103.963 130.063 103.963 129.963C106.363 128.863 108.363 126.963 109.663 124.463C109.763 124.363 109.763 124.263 109.863 124.163C110.063 123.663 110.263 123.163 110.463 122.663C110.463 122.463 110.563 122.363 110.563 122.163C111.763 117.163 109.763 112.063 105.763 109.263Z" stroke="black" stroke-miterlimit="10"/>
<path d="M276.733 224.145C275.133 226.145 276.233 229.945 279.233 233.545L286.433 224.545C282.233 222.445 278.333 222.145 276.733 224.145Z" fill="#FFA340"/>
<path d="M289.533 226.345L281.733 236.145C282.133 236.545 282.533 236.945 283.033 237.245L290.933 227.345C290.433 227.045 289.933 226.645 289.533 226.345Z" fill="#FFA340"/>
<path d="M278.268 222.11L276.33 224.53L297.014 241.095L298.951 238.676L278.268 222.11Z" fill="#FFA340"/>
<path d="M297.433 240.645C298.733 239.045 298.233 236.245 296.433 233.245L290.033 241.245C293.233 242.445 296.133 242.345 297.433 240.645Z" fill="#FFA340"/>
<path d="M286.433 224.545L279.233 233.545C279.933 234.445 280.733 235.245 281.633 236.145L289.433 226.345C288.533 225.645 287.433 225.045 286.433 224.545Z" fill="#FFB96E"/>
<path d="M291.033 227.445L290.933 227.345L283.033 237.245L283.133 237.345C285.433 239.145 287.833 240.545 290.033 241.245L296.433 233.245C295.133 231.345 293.333 229.345 291.033 227.445Z" fill="#FFB96E"/>
<path d="M298.533 239.245C296.333 241.945 289.933 240.445 284.233 235.945C278.533 231.345 275.633 225.445 277.833 222.745C280.033 220.045 286.433 221.545 292.133 226.045C297.933 230.545 300.733 236.445 298.533 239.245Z" fill="#E0821B"/>
<path d="M298.833 238.845C296.633 241.545 290.233 240.045 284.533 235.545C278.833 230.945 275.933 225.045 278.133 222.345C280.333 219.645 286.733 221.145 292.433 225.645C298.233 230.245 301.033 236.145 298.833 238.845Z" fill="#FCCA4C"/>
<path d="M296.733 237.145C295.033 239.245 290.033 238.045 285.433 234.345C280.933 230.745 278.533 226.045 280.233 223.945C281.933 221.845 286.933 223.045 291.533 226.745C296.133 230.445 298.433 235.045 296.733 237.145Z" fill="#FFE066"/>
<path d="M297.033 241.145L298.833 238.945L298.933 238.745C300.833 235.945 298.033 230.145 292.433 225.745C286.833 221.245 280.633 219.745 278.333 222.245L276.433 224.645L276.533 224.745C275.333 226.845 276.533 230.345 279.333 233.745C280.033 234.645 280.833 235.445 281.733 236.345C282.133 236.745 282.533 237.145 283.033 237.445L283.133 237.545C285.433 239.345 287.833 240.745 290.033 241.445C293.033 242.345 295.633 242.345 297.033 241.145Z" stroke="black" stroke-miterlimit="10"/>
<path d="M93.8033 316.418C89.7033 314.618 87.2032 317.118 86.2032 318.418C86.5032 316.718 86.7032 313.218 82.6032 311.418C77.2032 309.018 72.3032 317.418 76.7032 324.718C79.2032 328.818 79.7032 331.218 79.7032 332.518C79.7032 332.618 79.7032 332.818 79.7032 332.918C79.8032 332.818 79.9033 332.718 80.0033 332.618C81.0033 331.718 83.1033 330.618 87.8033 329.618C96.2033 328.118 99.2033 318.818 93.8033 316.418Z" fill="#EF1818"/>
<path d="M93.8033 316.418C89.7033 314.618 87.2032 317.118 86.2032 318.418C86.5032 316.718 86.7032 313.218 82.6032 311.418C77.2032 309.018 72.3032 317.418 76.7032 324.718C79.2032 328.818 79.7032 331.218 79.7032 332.518C79.7032 332.618 79.7032 332.818 79.7032 332.918C79.8032 332.818 79.9033 332.718 80.0033 332.618C81.0033 331.718 83.1033 330.618 87.8033 329.618C96.2033 328.118 99.2033 318.818 93.8033 316.418Z" stroke="black" stroke-miterlimit="10"/>
<path d="M273.228 327.245C270.028 330.345 271.428 333.645 272.228 335.045C270.828 334.145 267.628 332.645 264.428 335.745C260.128 339.845 266.128 347.545 274.528 346.245C279.328 345.545 281.728 345.945 282.928 346.345C283.028 346.445 283.128 346.445 283.228 346.545C283.228 346.445 283.128 346.345 283.128 346.245C282.728 345.045 282.428 342.545 283.328 337.845C284.928 329.445 277.428 323.245 273.228 327.245Z" fill="#EF1818"/>
<path d="M273.228 327.245C270.028 330.345 271.428 333.645 272.228 335.045C270.828 334.145 267.628 332.645 264.428 335.745C260.128 339.845 266.128 347.545 274.528 346.245C279.328 345.545 281.728 345.945 282.928 346.345C283.028 346.445 283.128 346.445 283.228 346.545C283.228 346.445 283.128 346.345 283.128 346.245C282.728 345.045 282.428 342.545 283.328 337.845C284.928 329.445 277.428 323.245 273.228 327.245Z" stroke="black" stroke-miterlimit="10"/>
<path d="M298.849 154.941C300.449 152.941 299.349 149.141 296.349 145.541L289.149 154.541C293.349 156.641 297.249 156.941 298.849 154.941Z" fill="#FFA340"/>
<path d="M286.049 152.742L293.849 142.942C293.449 142.542 293.049 142.142 292.549 141.842L284.649 151.742C285.149 152.042 285.649 152.442 286.049 152.742Z" fill="#FFA340"/>
<path d="M297.314 156.976L299.252 154.556L278.568 137.991L276.631 140.411L297.314 156.976Z" fill="#FFA340"/>
<path d="M278.149 138.442C276.849 140.042 277.349 142.842 279.149 145.842L285.549 137.842C282.349 136.642 279.449 136.742 278.149 138.442Z" fill="#FFA340"/>
<path d="M289.149 154.542L296.349 145.542C295.649 144.642 294.849 143.842 293.949 142.942L286.149 152.742C287.049 153.442 288.149 154.042 289.149 154.542Z" fill="#FFB96E"/>
<path d="M284.549 151.642L284.649 151.742L292.549 141.842L292.449 141.742C290.149 139.942 287.749 138.542 285.549 137.842L279.149 145.842C280.449 147.742 282.249 149.742 284.549 151.642Z" fill="#FFB96E"/>
<path d="M277.049 139.841C279.249 137.141 285.649 138.641 291.349 143.141C297.049 147.741 299.949 153.641 297.749 156.341C295.549 159.041 289.149 157.541 283.449 153.041C277.649 148.541 274.849 142.641 277.049 139.841Z" fill="#E0821B"/>
<path d="M276.749 140.242C278.949 137.542 285.349 139.042 291.049 143.542C296.749 148.142 299.649 154.042 297.449 156.742C295.249 159.442 288.849 157.942 283.149 153.442C277.349 148.842 274.549 142.942 276.749 140.242Z" fill="#FCCA4C"/>
<path d="M278.849 141.942C280.549 139.842 285.549 141.042 290.149 144.742C294.649 148.342 297.049 153.042 295.349 155.142C293.649 157.242 288.649 156.042 284.049 152.342C279.449 148.642 277.149 144.042 278.849 141.942Z" fill="#FFE066"/>
<path d="M278.549 137.942L276.749 140.142L276.649 140.342C274.749 143.142 277.549 148.942 283.149 153.342C288.749 157.842 294.949 159.342 297.249 156.842L299.149 154.442L299.049 154.342C300.249 152.242 299.049 148.742 296.249 145.342C295.549 144.442 294.749 143.642 293.849 142.742C293.449 142.342 293.049 141.942 292.549 141.642L292.449 141.542C290.149 139.742 287.749 138.342 285.549 137.642C282.549 136.742 279.949 136.742 278.549 137.942Z" stroke="black" stroke-miterlimit="10"/>
<path d="M214.546 354.4C216.546 348.1 223.246 344.6 229.546 346.6C235.846 348.6 239.346 355.3 237.346 361.6C235.346 367.9 228.646 371.4 222.346 369.4C216.146 367.4 212.646 360.7 214.546 354.4Z" fill="#E0821B"/>
<path d="M215.146 354.6C217.046 348.6 223.446 345.3 229.346 347.1C235.346 349 238.646 355.4 236.846 361.3C234.946 367.3 228.546 370.6 222.646 368.8C216.746 367 213.246 360.5 215.146 354.6Z" fill="#FCCA4C"/>
<path d="M217.346 355.3C218.846 350.5 223.946 347.9 228.646 349.4C233.446 350.9 236.046 356 234.546 360.7C233.046 365.5 227.946 368.1 223.246 366.6C218.546 365.1 215.846 360 217.346 355.3Z" fill="#FFE066"/>
<g opacity="0.23">
<g opacity="0.23">
<path opacity="0.23" d="M214.446 354.8L219.146 367.7C220.146 368.4 221.246 368.9 222.446 369.3C222.546 369.3 222.646 369.4 222.746 369.4L216.146 351.2C215.446 352.2 214.946 353.2 214.646 354.4C214.546 354.5 214.446 354.7 214.446 354.8Z" fill="#FFE066"/>
</g>
</g>
<g opacity="0.23">
<g opacity="0.23">
<path opacity="0.23" d="M234.346 366.5L226.946 346.1C224.846 345.9 222.846 346.3 220.946 347.2L229.046 369.6C231.046 368.9 232.946 367.9 234.346 366.5Z" fill="#FFE066"/>
</g>
</g>
<path d="M219.146 367.7C219.146 367.8 219.146 367.8 219.146 367.7C219.546 368 220.046 368.3 220.546 368.5C220.646 368.6 220.746 368.6 220.846 368.7C221.346 368.9 221.846 369.1 222.346 369.3C222.446 369.3 222.546 369.4 222.646 369.4C224.846 370 226.946 370 229.046 369.4C229.946 369.1 230.846 368.8 231.746 368.3C231.846 368.3 231.946 368.2 231.946 368.2C232.246 368 232.646 367.8 232.946 367.5C233.046 367.4 233.046 367.4 233.146 367.3C233.546 367 233.846 366.7 234.246 366.4C235.646 365.1 236.646 363.4 237.246 361.5C239.246 355.2 235.746 348.5 229.446 346.5C228.546 346.2 227.746 346.1 226.846 346C226.746 346 226.746 346 226.646 346C226.246 346 225.846 346 225.446 346C225.346 346 225.246 346 225.146 346C224.746 346 224.346 346.1 223.946 346.1C223.846 346.1 223.846 346.1 223.746 346.1C223.246 346.2 222.846 346.3 222.346 346.4L222.246 346.4C221.846 346.5 221.446 346.7 221.046 346.9C221.046 346.9 220.946 346.9 220.946 347C218.546 348.1 216.546 350 215.246 352.5C215.146 352.6 215.146 352.7 215.046 352.8C214.846 353.3 214.646 353.8 214.446 354.3C214.446 354.5 214.346 354.6 214.346 354.8C213.146 359.8 215.146 364.9 219.146 367.7Z" stroke="black" stroke-miterlimit="10"/>
<path d="M159.63 176.042C155.175 175.971 153.831 179.294 153.478 180.921C153.124 179.294 151.922 175.971 147.467 175.9C141.598 175.829 140.396 185.517 147.326 190.467C151.286 193.295 152.7 195.275 153.195 196.477C153.266 196.548 153.266 196.689 153.336 196.76C153.407 196.689 153.407 196.548 153.478 196.477C154.044 195.346 155.599 193.366 159.488 190.608C166.489 185.87 165.569 176.183 159.63 176.042Z" fill="#EF1818"/>
<path d="M159.63 176.042C155.175 175.971 153.831 179.294 153.478 180.921C153.124 179.294 151.922 175.971 147.467 175.9C141.598 175.829 140.396 185.517 147.326 190.467C151.286 193.295 152.7 195.275 153.195 196.477C153.266 196.548 153.266 196.689 153.336 196.76C153.407 196.689 153.407 196.548 153.478 196.477C154.044 195.346 155.599 193.366 159.488 190.608C166.489 185.87 165.569 176.183 159.63 176.042Z" stroke="black" stroke-miterlimit="10"/>
<path d="M26.995 445.902C28.495 448.002 32.395 448.002 36.695 446.102L29.995 436.602C26.895 440.102 25.495 443.802 26.995 445.902Z" fill="#FFA340"/>
<path d="M32.6951 434.202L39.8951 444.402C40.3951 444.102 40.8951 443.802 41.2951 443.502L33.9951 433.102C33.5951 433.502 33.0951 433.902 32.6951 434.202Z" fill="#FFA340"/>
<path d="M47.1304 428.441L25.4852 443.729L27.2736 446.261L48.9188 430.974L47.1304 428.441Z" fill="#FFA340"/>
<path d="M48.6951 430.602C47.4951 428.902 44.6952 428.602 41.2952 429.502L47.1951 437.802C49.1951 435.102 49.8951 432.302 48.6951 430.602Z" fill="#FFA340"/>
<path d="M30.0951 436.602L36.7951 446.102C37.7951 445.702 38.8951 445.102 39.9951 444.502L32.7951 434.302C31.6951 435.002 30.8951 435.802 30.0951 436.602Z" fill="#FFB96E"/>
<path d="M34.1951 433.102L34.0951 433.202L41.3951 443.602L41.4951 443.502C43.8951 441.802 45.7951 439.902 47.1951 438.002L41.2951 429.702C39.0951 430.202 36.5951 431.402 34.1951 433.102Z" fill="#FFB96E"/>
<path d="M47.5951 429.102C49.5951 432.002 46.395 437.702 40.395 441.902C34.395 446.102 27.895 447.202 25.895 444.402C23.895 441.502 27.0951 435.802 33.0951 431.602C39.0951 427.302 45.5951 426.202 47.5951 429.102Z" fill="#E0821B"/>
<path d="M47.2951 428.702C49.2951 431.602 46.0951 437.302 40.0951 441.502C34.0951 445.702 27.5951 446.802 25.5951 444.002C23.5951 441.102 26.7951 435.402 32.7951 431.202C38.7951 426.902 45.2951 425.802 47.2951 428.702Z" fill="#FCCA4C"/>
<path d="M45.0951 430.202C46.6951 432.402 44.0951 436.902 39.2951 440.302C34.4951 443.702 29.3951 444.602 27.8951 442.402C26.2951 440.202 28.8951 435.702 33.6951 432.302C38.3951 429.002 43.4951 428.002 45.0951 430.202Z" fill="#FFE066"/>
<path d="M48.995 431.002L47.595 429.002L47.2951 428.602L47.195 428.402C44.995 425.802 38.695 426.902 32.895 431.002C27.095 435.102 23.895 440.702 25.595 443.602L27.395 446.102H27.495C29.195 447.802 32.795 447.702 36.895 445.902C37.895 445.502 38.995 444.902 40.095 444.302C40.595 444.002 41.095 443.702 41.495 443.402L41.595 443.302C43.995 441.602 45.8951 439.702 47.2951 437.802C49.0951 435.302 49.695 432.802 48.995 431.002Z" stroke="black" stroke-miterlimit="10"/>
<path d="M336.457 448.7C340.557 447 340.457 443.4 340.157 441.8C341.157 443.2 343.557 445.7 347.657 444C353.157 441.7 350.357 432.4 342.057 430.5C337.357 429.4 335.257 428.2 334.257 427.3C334.157 427.2 334.057 427.1 333.957 427C333.957 427.1 333.957 427.2 333.957 427.4C333.857 428.7 333.257 431.1 330.757 435.2C326.357 442.4 330.957 450.9 336.457 448.7Z" fill="#EF1818"/>
<path d="M336.457 448.7C340.557 447 340.457 443.4 340.157 441.8C341.157 443.2 343.557 445.7 347.657 444C353.157 441.7 350.357 432.4 342.057 430.5C337.357 429.4 335.257 428.2 334.257 427.3C334.157 427.2 334.057 427.1 333.957 427C333.957 427.1 333.957 427.2 333.957 427.4C333.857 428.7 333.257 431.1 330.757 435.2C326.357 442.4 330.957 450.9 336.457 448.7Z" stroke="black" stroke-miterlimit="10"/>
<path d="M325.27 26.0928C324.37 28.4928 326.57 31.6928 330.57 34.2928L334.67 23.4928C329.97 22.6928 326.17 23.5928 325.27 26.0928Z" fill="#FFA340"/>
<path d="M338.07 24.1929L333.67 35.8928C334.17 36.0928 334.67 36.3928 335.27 36.5928L339.77 24.6929C339.17 24.4929 338.67 24.3929 338.07 24.1929Z" fill="#FFA340"/>
<path d="M326.091 23.6543L325 26.5555L349.801 35.8862L350.893 32.9849L326.091 23.6543Z" fill="#FFA340"/>
<path d="M350.07 35.3928C350.77 33.3928 349.47 30.9929 346.77 28.6929L343.17 38.2928C346.67 38.2928 349.37 37.3928 350.07 35.3928Z" fill="#FFA340"/>
<path d="M334.67 23.3928L330.57 34.1929C331.47 34.7929 332.57 35.3928 333.67 35.8928L338.07 24.1929C336.97 23.7929 335.77 23.5928 334.67 23.3928Z" fill="#FFB96E"/>
<path d="M339.87 24.7928C339.77 24.7928 339.77 24.7929 339.67 24.6929L335.17 36.5928C335.27 36.5928 335.27 36.5929 335.37 36.6929C338.07 37.6929 340.77 38.2928 343.17 38.2928L346.77 28.6929C345.07 27.1929 342.67 25.7928 339.87 24.7928Z" fill="#FFB96E"/>
<path d="M350.77 33.5928C349.57 36.8928 342.97 37.3928 336.17 34.8928C329.37 32.2928 324.77 27.5928 325.97 24.2928C327.17 20.9928 333.77 20.4928 340.57 22.9928C347.37 25.5928 351.97 30.2928 350.77 33.5928Z" fill="#E0821B"/>
<path d="M350.87 33.1928C349.67 36.4928 343.07 36.9928 336.27 34.4928C329.47 31.8928 324.87 27.1928 326.07 23.8928C327.27 20.5928 333.87 20.0928 340.67 22.5928C347.57 25.1928 352.17 29.8928 350.87 33.1928Z" fill="#FCCA4C"/>
<path d="M348.37 32.1928C347.37 34.6928 342.27 35.0927 336.77 33.0927C331.37 31.0927 327.67 27.2927 328.67 24.7927C329.67 22.2927 334.77 21.8927 340.27 23.8927C345.67 25.9927 349.27 29.6928 348.37 32.1928Z" fill="#FFE066"/>
<path d="M349.87 35.8927L350.97 32.9927C351.97 29.6927 347.47 25.0927 340.77 22.5927C334.07 20.0927 327.67 20.5927 326.27 23.6927L325.17 26.5927H325.27C324.77 28.8927 326.97 31.8927 330.67 34.2927C331.57 34.8927 332.67 35.4927 333.77 35.9927C334.27 36.1927 334.77 36.4927 335.37 36.6927C335.47 36.6927 335.47 36.6927 335.57 36.7927C338.27 37.7927 340.97 38.3927 343.37 38.3927C346.37 38.2927 348.87 37.4927 349.87 35.8927Z" stroke="black" stroke-miterlimit="10"/>
<path d="M35.0165 23.9636C31.2165 21.6636 28.4165 23.8636 27.2165 25.0636C27.7165 23.4636 28.3165 19.9636 24.5165 17.6636C19.4165 14.6636 13.6165 22.3636 17.0165 30.1636C18.9165 34.5636 19.2165 37.0636 19.1165 38.2636C19.1165 38.3636 19.1165 38.5636 19.0165 38.6636C19.1165 38.5636 19.2165 38.5636 19.3165 38.4636C20.4165 37.7636 22.6165 36.8636 27.5165 36.4636C35.9165 35.7636 40.1165 26.9636 35.0165 23.9636Z" fill="#EF1818"/>
<path d="M27.5165 36.4636C36.0165 35.8636 40.1165 26.9636 35.0165 23.9636C31.2165 21.6636 28.4165 23.8636 27.2165 25.0636C27.7165 23.4636 28.3165 19.9636 24.5165 17.6636C19.4165 14.6636 13.6165 22.3636 17.0165 30.1636C18.9165 34.5636 19.2165 37.0636 19.1165 38.2636C19.1165 38.3636 19.1165 38.5636 19.0165 38.6636C19.1165 38.5636 19.2165 38.5636 19.3165 38.4636C20.4165 37.6636 22.7165 36.7636 27.5165 36.4636Z" stroke="black" stroke-miterlimit="10"/>
<path d="M153.089 53.415C153.889 50.915 151.488 47.815 147.388 45.515L143.789 56.515C148.589 57.015 152.289 55.915 153.089 53.415Z" fill="#FFA340"/>
<path d="M140.388 55.915L144.288 44.015C143.788 43.815 143.188 43.615 142.688 43.415L138.788 55.515C139.288 55.615 139.788 55.715 140.388 55.915Z" fill="#FFA340"/>
<path d="M152.338 55.8795L153.293 52.9301L128.081 44.7654L127.126 47.7148L152.338 55.8795Z" fill="#FFA340"/>
<path d="M127.888 45.315C127.288 47.315 128.689 49.715 131.489 51.815L134.589 42.115C131.189 42.115 128.588 43.315 127.888 45.315Z" fill="#FFA340"/>
<path d="M143.888 56.5149L147.489 45.5149C146.489 44.9149 145.389 44.4149 144.289 44.0149L140.388 55.9149C141.588 56.2149 142.788 56.4149 143.888 56.5149Z" fill="#FFB96E"/>
<path d="M138.589 55.415C138.689 55.415 138.689 55.415 138.789 55.415L142.688 43.315C142.588 43.315 142.589 43.315 142.489 43.215C139.689 42.315 136.988 41.915 134.688 42.015L131.589 51.7149C133.289 53.2149 135.789 54.515 138.589 55.415Z" fill="#FFB96E"/>
<path d="M127.288 47.015C128.388 43.715 134.888 42.815 141.888 45.015C148.888 47.315 153.588 51.815 152.488 55.115C151.388 58.415 144.888 59.315 137.888 57.115C130.988 54.915 126.288 50.415 127.288 47.015Z" fill="#E0821B"/>
<path d="M127.188 47.515C128.288 44.215 134.789 43.315 141.789 45.515C148.789 47.815 153.489 52.315 152.389 55.615C151.289 58.915 144.789 59.815 137.789 57.615C130.889 55.415 126.088 50.815 127.188 47.515Z" fill="#FCCA4C"/>
<path d="M129.788 48.3149C130.588 45.7149 135.788 45.1149 141.288 46.9149C146.788 48.7149 150.588 52.2149 149.788 54.8149C148.988 57.4149 143.788 58.0149 138.288 56.2149C132.788 54.4149 128.888 50.9149 129.788 48.3149Z" fill="#FFE066"/>
<path d="M137.789 57.6149C144.589 59.8149 150.989 59.0149 152.289 55.9149L153.089 53.4149L153.289 52.9149C153.589 50.5149 151.289 47.715 147.489 45.515C146.489 44.915 145.389 44.415 144.289 44.015C143.789 43.815 143.188 43.6149 142.688 43.4149C142.588 43.4149 142.589 43.4149 142.489 43.3149C139.689 42.4149 136.988 42.0149 134.688 42.1149C131.488 42.2149 129.088 43.1149 128.188 44.8149L128.089 44.8149L127.888 45.3149L127.289 47.1149L127.188 47.6149L127.089 47.8149C126.289 51.0149 130.989 55.4149 137.789 57.6149Z" stroke="black" stroke-miterlimit="10"/>
<path d="M173.546 425.4C175.546 419.1 182.246 415.6 188.546 417.6C194.846 419.6 198.346 426.3 196.346 432.6C194.346 438.9 187.646 442.4 181.346 440.4C175.146 438.4 171.646 431.7 173.546 425.4Z" fill="#E0821B"/>
<path d="M174.146 425.5C176.046 419.5 182.446 416.2 188.346 418C194.346 419.9 197.646 426.3 195.846 432.2C193.946 438.2 187.546 441.5 181.646 439.7C175.746 437.9 172.246 431.5 174.146 425.5Z" fill="#FCCA4C"/>
<path d="M176.346 426.2C177.846 421.4 182.946 418.8 187.646 420.3C192.446 421.8 195.046 426.9 193.546 431.6C192.046 436.4 186.946 439 182.246 437.5C177.546 436 174.946 431 176.346 426.2Z" fill="#FFE066"/>
<g opacity="0.23">
<g opacity="0.23">
<path opacity="0.23" d="M193.346 437.5L185.946 417.1C183.846 416.9 181.846 417.3 179.946 418.2L188.046 440.6C190.146 439.9 191.946 438.9 193.346 437.5Z" fill="#FFE066"/>
</g>
</g>
<path d="M178.146 438.7C178.146 438.8 178.146 438.8 178.146 438.7C178.546 439 179.046 439.3 179.546 439.5C179.646 439.6 179.746 439.6 179.846 439.7C180.346 439.9 180.846 440.1 181.346 440.3C181.446 440.3 181.546 440.4 181.646 440.4C183.846 441 185.946 441 188.046 440.4C188.946 440.1 189.846 439.8 190.746 439.3C190.846 439.3 190.946 439.2 190.946 439.2C191.246 439 191.646 438.8 191.946 438.5C192.046 438.4 192.046 438.4 192.146 438.3C192.546 438 192.846 437.7 193.246 437.4C194.646 436.1 195.646 434.4 196.246 432.5C198.246 426.2 194.746 419.5 188.446 417.5C187.546 417.2 186.746 417.1 185.846 417C185.746 417 185.746 417 185.646 417C185.246 417 184.846 417 184.446 417C184.346 417 184.246 417 184.146 417C183.746 417 183.346 417.1 182.946 417.1C182.846 417.1 182.846 417.1 182.746 417.1C182.246 417.2 181.846 417.3 181.346 417.4L181.246 417.4C180.846 417.5 180.446 417.7 180.046 417.9C180.046 417.9 179.946 417.9 179.946 418C177.546 419.1 175.546 421 174.246 423.5C174.146 423.6 174.146 423.7 174.046 423.8C173.846 424.3 173.646 424.8 173.446 425.3C173.446 425.5 173.346 425.6 173.346 425.8C172.146 430.8 174.146 435.9 178.146 438.7Z" stroke="black" stroke-miterlimit="10"/>
<path d="M267.09 416.613C267.89 414.213 265.59 411.013 261.49 408.613L257.79 419.613C262.49 420.113 266.19 419.013 267.09 416.613Z" fill="#FFA340"/>
<path d="M254.29 418.913L258.29 407.013C257.79 406.813 257.19 406.613 256.69 406.413L252.69 418.413C253.19 418.613 253.69 418.813 254.29 418.913Z" fill="#FFA340"/>
<path d="M266.197 419.006L267.18 416.066L242.047 407.665L241.064 410.606L266.197 419.006Z" fill="#FFA340"/>
<path d="M241.89 408.213C241.19 410.213 242.69 412.613 245.39 414.813L248.59 405.113C245.19 405.113 242.59 406.213 241.89 408.213Z" fill="#FFA340"/>
<path d="M257.79 419.613L261.49 408.613C260.49 408.013 259.49 407.513 258.29 407.013L254.29 418.913C255.49 419.213 256.69 419.513 257.79 419.613Z" fill="#FFB96E"/>
<path d="M252.49 418.413C252.59 418.413 252.59 418.413 252.69 418.413L256.69 406.413C256.59 406.413 256.59 406.413 256.49 406.313C253.69 405.413 250.99 404.913 248.69 405.013L245.49 414.713C247.29 416.213 249.69 417.513 252.49 418.413Z" fill="#FFB96E"/>
<path d="M241.29 410.013C242.39 406.713 248.89 405.913 255.89 408.213C262.79 410.513 267.59 415.113 266.49 418.413C265.39 421.713 258.89 422.513 251.89 420.213C244.89 417.913 240.19 413.313 241.29 410.013Z" fill="#E0821B"/>
<path d="M241.19 410.413C242.29 407.113 248.79 406.313 255.79 408.613C262.69 410.913 267.49 415.513 266.39 418.813C265.29 422.113 258.79 422.913 251.79 420.613C244.79 418.313 240.09 413.813 241.19 410.413Z" fill="#FCCA4C"/>
<path d="M243.69 411.313C244.59 408.713 249.69 408.213 255.19 410.013C260.69 411.813 264.49 415.413 263.59 418.013C262.69 420.613 257.59 421.113 252.09 419.313C246.69 417.413 242.89 413.813 243.69 411.313Z" fill="#FFE066"/>
<path d="M251.69 420.613C258.49 422.913 264.89 422.113 266.19 419.013L266.29 418.813L267.19 416.113C267.59 413.713 265.29 410.913 261.49 408.613C260.49 408.013 259.49 407.513 258.29 407.013C257.79 406.813 257.19 406.613 256.69 406.413C256.59 406.413 256.59 406.413 256.49 406.313C253.69 405.413 250.99 404.913 248.69 405.013C245.49 405.113 243.09 406.013 242.19 407.713L242.09 407.713L241.19 410.413L241.09 410.613C240.29 414.013 244.89 418.413 251.69 420.613Z" stroke="black" stroke-miterlimit="10"/>
<path d="M46.8747 207.508C48.2747 209.608 52.2747 209.708 56.5747 207.908L50.0747 198.308C46.8747 201.708 45.4747 205.308 46.8747 207.508Z" fill="#FFA340"/>
<path d="M52.7747 195.908L59.7747 206.308C60.2747 206.008 60.7747 205.708 61.2747 205.408L54.1746 194.908C53.6746 195.208 53.2747 195.608 52.7747 195.908Z" fill="#FFA340"/>
<path d="M67.4867 190.553L45.5341 205.398L47.2707 207.966L69.2233 193.121L67.4867 190.553Z" fill="#FFA340"/>
<path d="M68.8746 192.608C67.6746 190.908 64.8746 190.508 61.5746 191.408L67.2746 199.908C69.2746 197.108 69.9746 194.408 68.8746 192.608Z" fill="#FFA340"/>
<path d="M50.1747 198.308L56.6747 207.908C57.6747 207.508 58.7747 206.908 59.8747 206.308L52.8747 195.908C51.7747 196.708 50.9747 197.508 50.1747 198.308Z" fill="#FFB96E"/>
<path d="M54.2747 194.808L54.1747 194.908L61.2747 205.408L61.3747 205.308C63.7747 203.708 65.7747 201.808 67.1747 199.908L61.4747 191.408C59.2747 192.008 56.7747 193.208 54.2747 194.808Z" fill="#FFB96E"/>
<path d="M67.7747 191.108C69.7747 194.008 66.3747 199.708 60.3747 203.808C54.2747 207.908 47.7747 208.908 45.8747 206.008C43.8747 203.108 47.2747 197.408 53.2747 193.308C59.2747 189.208 65.7747 188.208 67.7747 191.108Z" fill="#E0821B"/>
<path d="M67.4747 190.708C69.4747 193.608 66.0746 199.308 60.0746 203.408C53.9746 207.508 47.4746 208.508 45.5746 205.608C43.5746 202.708 46.9747 197.008 52.9747 192.908C59.0747 188.808 65.5747 187.808 67.4747 190.708Z" fill="#FCCA4C"/>
<path d="M65.2746 192.208C66.7746 194.408 64.0746 198.908 59.2746 202.108C54.4746 205.408 49.2746 206.208 47.7746 204.008C46.2746 201.808 48.9746 197.308 53.7746 194.108C58.6746 190.808 63.7746 190.008 65.2746 192.208Z" fill="#FFE066"/>
<path d="M52.9746 192.908C47.0746 196.908 43.7746 202.408 45.4746 205.408L46.8746 207.508L47.1746 207.908H47.2746C48.9746 209.608 52.5746 209.608 56.6746 207.908C57.6746 207.508 58.7746 206.908 59.8746 206.308C60.3746 206.008 60.8746 205.708 61.3746 205.408L61.4746 205.308C63.8746 203.708 65.8746 201.808 67.2746 199.908C69.1746 197.308 69.8746 194.808 69.1746 193.108H69.2746L68.9746 192.708L67.8746 191.108L67.5746 190.708L67.4746 190.508C65.2746 187.808 58.8746 188.808 52.9746 192.908Z" stroke="black" stroke-miterlimit="10"/>
<path d="M313.709 266.283C311.309 265.283 308.009 267.483 305.409 271.383L316.109 275.683C317.009 270.983 316.109 267.183 313.709 266.283Z" fill="#FFA340"/>
<path d="M315.309 279.083L303.709 274.383C303.509 274.883 303.209 275.383 303.009 275.983L314.809 280.683C314.909 280.183 315.109 279.683 315.309 279.083Z" fill="#FFA340"/>
<path d="M313.312 266L303.396 290.576L306.271 291.736L316.187 267.16L313.312 266Z" fill="#FFA340"/>
<path d="M303.809 290.783C305.709 291.583 308.309 290.283 310.609 287.683L301.109 283.883C300.909 287.383 301.909 289.983 303.809 290.783Z" fill="#FFA340"/>
<path d="M316.209 275.683L305.509 271.383C304.909 272.283 304.309 273.383 303.709 274.483L315.309 279.183C315.709 277.983 316.009 276.783 316.209 275.683Z" fill="#FFB96E"/>
<path d="M314.709 280.883C314.709 280.783 314.709 280.783 314.809 280.683L303.009 275.983C303.009 276.083 303.009 276.083 302.909 276.183C301.809 278.883 301.209 281.583 301.109 283.883L310.609 287.683C312.109 285.983 313.609 283.583 314.709 280.883Z" fill="#FFB96E"/>
<path d="M305.609 291.483C302.409 290.183 301.909 283.583 304.709 276.783C307.409 269.983 312.309 265.583 315.509 266.883C318.709 268.183 319.209 274.783 316.409 281.583C313.609 288.383 308.809 292.783 305.609 291.483Z" fill="#E0821B"/>
<path d="M306.009 291.683C302.809 290.383 302.309 283.783 305.109 276.983C307.809 270.183 312.709 265.783 315.909 267.083C319.109 268.383 319.609 274.983 316.809 281.783C314.109 288.583 309.209 292.983 306.009 291.683Z" fill="#FCCA4C"/>
<path d="M307.009 289.183C304.509 288.183 304.209 282.983 306.409 277.583C308.609 272.183 312.409 268.683 314.909 269.683C317.409 270.683 317.709 275.883 315.509 281.283C313.309 286.683 309.509 290.183 307.009 289.183Z" fill="#FFE066"/>
<path d="M305.409 271.383C304.809 272.283 304.209 273.383 303.609 274.483C303.409 274.983 303.109 275.483 302.909 276.083C302.909 276.183 302.909 276.183 302.809 276.283C301.709 278.983 301.109 281.683 301.009 283.983C300.909 287.183 301.609 289.683 303.309 290.683V290.783L303.809 290.983L306.009 291.883L306.209 291.983C309.409 292.983 314.109 288.683 316.809 281.983C319.509 275.383 319.109 268.983 316.109 267.483L313.709 266.483L313.209 266.283V266.383C310.909 265.583 307.909 267.683 305.409 271.383Z" stroke="black" stroke-miterlimit="10"/>
<path d="M157.651 355.243C156.346 352.995 152.387 352.749 147.957 354.28L153.873 364.179C157.434 360.982 159.017 357.412 157.651 355.243Z" fill="#FFA340"/>
<path d="M151.178 366.401L144.788 355.639C144.326 355.916 143.785 356.133 143.263 356.489L149.812 367.372C150.194 367.035 150.656 366.758 151.178 366.401Z" fill="#FFA340"/>
<path d="M157.506 354.778L134.738 368.34L136.325 371.004L159.093 357.441L157.506 354.778Z" fill="#FFA340"/>
<path d="M134.942 368.755C135.971 370.542 138.827 371.08 142.232 370.403L136.969 361.628C134.691 364.293 133.914 366.968 134.942 368.755Z" fill="#FFA340"/>
<path d="M153.952 364.239L148.037 354.34C147.015 354.694 145.871 355.206 144.728 355.719L151.117 366.481C152.162 365.768 153.127 364.994 153.952 364.239Z" fill="#FFB96E"/>
<path d="M149.611 367.471C149.671 367.391 149.671 367.391 149.811 367.372L143.263 356.489C143.202 356.569 143.202 356.569 143.062 356.588C140.552 358.071 138.44 359.858 136.969 361.628L142.231 370.403C144.454 369.957 147.101 368.955 149.611 367.471Z" fill="#FFB96E"/>
<path d="M135.951 370.402C134.191 367.43 137.787 361.873 144.132 358.155C150.397 354.376 156.96 353.839 158.721 356.81C160.482 359.782 156.885 365.339 150.541 369.057C144.196 372.776 137.712 373.373 135.951 370.402Z" fill="#E0821B"/>
<path d="M136.149 370.803C134.388 367.831 137.985 362.275 144.329 358.556C150.594 354.777 157.158 354.24 158.918 357.212C160.679 360.183 157.082 365.74 150.738 369.458C144.473 373.238 137.909 373.775 136.149 370.803Z" fill="#FCCA4C"/>
<path d="M138.458 369.418C137.073 367.109 139.981 362.788 145.001 359.821C150.02 356.853 155.164 356.367 156.549 358.676C157.934 360.985 155.025 365.306 150.006 368.274C144.986 371.241 139.843 371.727 138.458 369.418Z" fill="#FFE066"/>
<path d="M147.957 354.28C146.935 354.633 145.792 355.146 144.648 355.658C144.186 355.935 143.645 356.152 143.123 356.508C143.062 356.588 143.062 356.588 142.922 356.607C140.412 358.091 138.3 359.877 136.829 361.647C134.812 364.134 133.857 366.548 134.605 368.373L134.544 368.452L134.821 368.914L136.028 370.962L136.126 371.163C138.069 373.896 144.413 373.317 150.617 369.618C156.761 365.998 160.316 360.661 158.835 357.651L157.53 355.403L157.253 354.941L157.193 355.02C155.846 352.992 152.187 352.848 147.957 354.28Z" stroke="black" stroke-miterlimit="10"/>
<path d="M177.39 119.1C181.29 116.9 180.79 113.4 180.29 111.8C181.39 113 184.19 115.3 187.99 113.1C193.09 110.2 189.29 101.3 180.79 100.4C175.99 99.9001 173.79 98.9001 172.69 98.2001C172.59 98.1001 172.49 98.0001 172.39 98.0001C172.39 98.1001 172.39 98.2001 172.39 98.4001C172.49 99.7001 172.19 102.1 170.09 106.5C166.59 114.1 172.19 122 177.39 119.1Z" fill="#EF1818"/>
<path d="M170.19 106.4C166.59 114.1 172.19 122 177.39 119.1C181.29 116.9 180.79 113.4 180.29 111.8C181.39 113 184.19 115.3 187.99 113.1C193.09 110.2 189.29 101.3 180.79 100.4C175.99 99.9 173.79 98.9 172.69 98.2C172.59 98.1 172.49 98 172.39 98C172.39 98.1 172.39 98.2 172.39 98.4C172.59 99.6 172.29 102.1 170.19 106.4Z" stroke="black" stroke-miterlimit="10"/>
<path d="M118.075 414.298C114.875 417.398 116.275 420.698 117.175 422.098C115.775 421.198 112.575 419.698 109.375 422.798C105.175 426.898 111.175 434.598 119.575 433.198C124.375 432.398 126.775 432.798 127.975 433.298C128.075 433.298 128.175 433.398 128.275 433.398C128.275 433.298 128.175 433.198 128.175 433.098C127.775 431.898 127.475 429.398 128.275 424.698C129.875 416.398 122.375 410.198 118.075 414.298Z" fill="#EF1818"/>
<path d="M118.075 414.298C114.875 417.398 116.275 420.698 117.175 422.098C115.775 421.198 112.575 419.698 109.375 422.798C105.175 426.898 111.175 434.598 119.575 433.198C124.375 432.398 126.775 432.798 127.975 433.298C128.075 433.298 128.175 433.398 128.275 433.398C128.275 433.298 128.175 433.198 128.175 433.098C127.775 431.898 127.475 429.398 128.275 424.698C129.875 416.398 122.375 410.198 118.075 414.298Z" stroke="black" stroke-miterlimit="10"/>
<path d="M293.363 59.5629C291.363 65.8629 284.663 69.3629 278.363 67.3629C272.063 65.3629 268.563 58.6629 270.563 52.3629C272.563 46.0629 279.263 42.5629 285.563 44.5629C291.763 46.5629 295.263 53.2629 293.363 59.5629Z" fill="#E0821B"/>
<path d="M292.763 59.4629C290.863 65.4629 284.463 68.7629 278.563 66.9629C272.563 65.0629 269.263 58.6629 271.063 52.7629C272.963 46.7629 279.363 43.4629 285.263 45.2629C291.163 47.0629 294.663 53.4629 292.763 59.4629Z" fill="#FCCA4C"/>
<path d="M290.563 58.7628C289.063 63.5628 283.963 66.1629 279.263 64.6629C274.463 63.1629 271.863 58.0629 273.363 53.3629C274.863 48.5629 279.963 45.9628 284.663 47.4628C289.363 48.9628 291.963 53.9628 290.563 58.7628Z" fill="#FFE066"/>
<g opacity="0.23">
<g opacity="0.23">
<path opacity="0.23" d="M293.463 59.163L288.763 46.2629C287.763 45.5629 286.663 45.063 285.463 44.663C285.363 44.663 285.263 44.563 285.163 44.563L291.763 62.863C292.463 61.863 292.963 60.863 293.263 59.663C293.363 59.463 293.363 59.263 293.463 59.163Z" fill="#FFE066"/>
</g>
</g>
<g opacity="0.23">
<g opacity="0.23">
<path opacity="0.23" d="M273.563 47.4629L280.963 67.8629C283.063 68.0629 285.063 67.6629 286.963 66.7629L278.863 44.3629C276.763 45.0629 274.963 46.0629 273.563 47.4629Z" fill="#FFE066"/>
</g>
</g>
<path d="M288.763 46.2629C288.763 46.1629 288.763 46.1629 288.763 46.2629C288.363 45.9629 287.863 45.6629 287.363 45.4629C287.263 45.3629 287.163 45.3629 287.063 45.2629C286.563 45.0629 286.063 44.8629 285.563 44.6629C285.463 44.6629 285.363 44.5629 285.263 44.5629C283.063 43.9629 280.963 43.9629 278.863 44.5629C277.963 44.8629 277.063 45.1629 276.163 45.6629C276.063 45.6629 275.963 45.7629 275.963 45.7629C275.663 45.9629 275.263 46.1629 274.963 46.4629C274.863 46.5629 274.863 46.5629 274.763 46.6629C274.363 46.9629 274.063 47.2629 273.663 47.5629C272.263 48.8629 271.263 50.5629 270.663 52.4629C268.663 58.7629 272.163 65.4629 278.463 67.4629C279.363 67.7629 280.163 67.8629 281.063 67.9629C281.163 67.9629 281.163 67.9629 281.263 67.9629C281.663 67.9629 282.063 67.9629 282.463 67.9629C282.563 67.9629 282.663 67.9629 282.763 67.9629C283.163 67.9629 283.563 67.8629 283.963 67.8629C284.063 67.8629 284.063 67.8629 284.163 67.8629C284.663 67.7629 285.063 67.6629 285.563 67.5629H285.663C286.063 67.4629 286.463 67.2629 286.863 67.0629C286.863 67.0629 286.963 67.0629 286.963 66.9629C289.363 65.8629 291.363 63.9629 292.663 61.4629C292.763 61.3629 292.763 61.2629 292.863 61.1629C293.063 60.6629 293.263 60.1629 293.463 59.6629C293.463 59.4629 293.563 59.3629 293.563 59.1629C294.763 54.1629 292.763 49.0629 288.763 46.2629Z" stroke="black" stroke-miterlimit="10"/>
<path d="M58.3202 264.3C61.5202 261.2 60.1202 257.9 59.3202 256.5C60.7202 257.4 63.9202 258.9 67.1202 255.8C71.4202 251.7 65.4202 244 57.0202 245.3C52.2202 246 49.8202 245.6 48.6202 245.2C48.5202 245.1 48.4202 245.1 48.3202 245C48.3202 245.1 48.4201 245.2 48.4201 245.3C48.8201 246.5 49.1201 249 48.2201 253.7C46.6201 262.1 54.1202 268.3 58.3202 264.3Z" fill="#EF1818"/>
<path d="M58.3202 264.3C61.5202 261.2 60.1202 257.9 59.3202 256.5C60.7202 257.4 63.9202 258.9 67.1202 255.8C71.4202 251.7 65.4202 244 57.0202 245.3C52.2202 246 49.8202 245.6 48.6202 245.2C48.5202 245.1 48.4202 245.1 48.3202 245C48.3202 245.1 48.4201 245.2 48.4201 245.3C48.8201 246.5 49.1201 249 48.2201 253.7C46.6201 262.1 54.1202 268.3 58.3202 264.3Z" stroke="black" stroke-miterlimit="10"/>
<path d="M40.9304 384.844C43.3304 385.844 46.6303 383.644 49.2303 379.744L38.5303 375.444C37.6303 380.144 38.5304 383.944 40.9304 384.844Z" fill="#FFA340"/>
<path d="M39.3303 372.044L50.9303 376.744C51.1303 376.244 51.4302 375.744 51.6302 375.144L39.8303 370.444C39.7303 370.944 39.5303 371.444 39.3303 372.044Z" fill="#FFA340"/>
<path d="M41.3272 385.127L51.2435 360.551L48.3686 359.391L38.4523 383.967L41.3272 385.127Z" fill="#FFA340"/>
<path d="M50.8304 360.344C48.9304 359.544 46.3304 360.844 44.0304 363.444L53.5304 367.244C53.7304 363.744 52.7304 361.144 50.8304 360.344Z" fill="#FFA340"/>
<path d="M38.4303 375.444L49.1302 379.744C49.7302 378.844 50.3303 377.744 50.9303 376.644L39.3303 371.944C38.9303 373.144 38.6303 374.344 38.4303 375.444Z" fill="#FFB96E"/>
<path d="M39.9304 370.244C39.9304 370.344 39.9304 370.344 39.8304 370.444L51.6304 375.144C51.6304 375.044 51.6304 375.044 51.7304 374.944C52.8304 372.244 53.4304 369.544 53.5304 367.244L44.0304 363.444C42.5304 365.144 41.0304 367.544 39.9304 370.244Z" fill="#FFB96E"/>
<path d="M49.0303 359.644C52.2303 360.944 52.7304 367.544 49.9304 374.344C47.2304 381.144 42.3303 385.544 39.1303 384.244C35.9303 382.944 35.4304 376.344 38.2304 369.544C41.0304 362.744 45.8303 358.344 49.0303 359.644Z" fill="#E0821B"/>
<path d="M48.6303 359.444C51.8303 360.744 52.3303 367.344 49.5303 374.144C46.8303 380.944 41.9304 385.344 38.7304 384.044C35.5304 382.744 35.0303 376.144 37.8303 369.344C40.5303 362.544 45.4303 358.144 48.6303 359.444Z" fill="#FCCA4C"/>
<path d="M47.6303 361.944C50.1303 362.944 50.4304 368.144 48.2304 373.544C46.0304 378.944 42.2304 382.444 39.7304 381.444C37.2304 380.444 36.9303 375.244 39.1303 369.844C41.3303 364.444 45.1303 360.944 47.6303 361.944Z" fill="#FFE066"/>
<path d="M49.2304 379.744C49.8304 378.844 50.4303 377.744 51.0303 376.644C51.2303 376.144 51.5304 375.644 51.7304 375.044C51.7304 374.944 51.7303 374.944 51.8303 374.844C52.9303 372.144 53.5303 369.444 53.6303 367.144C53.7303 363.944 53.0303 361.444 51.3303 360.444L51.3303 360.344L50.8303 360.144L48.6303 359.244L48.4304 359.144C45.2304 358.144 40.5303 362.444 37.8303 369.144C35.1303 375.744 35.5303 382.144 38.5303 383.644L40.9304 384.644L41.4304 384.844L41.4304 384.744C43.7304 385.544 46.7304 383.444 49.2304 379.744Z" stroke="black" stroke-miterlimit="10"/>
<path d="M231.566 35.675C230.166 33.575 226.166 33.475 221.866 35.275L228.366 44.875C231.566 41.475 232.966 37.875 231.566 35.675Z" fill="#FFA340"/>
<path d="M225.666 47.2749L218.666 36.875C218.166 37.175 217.666 37.4749 217.166 37.7749L224.266 48.2749C224.766 47.9749 225.166 47.5749 225.666 47.2749Z" fill="#FFA340"/>
<path d="M210.954 52.6302L232.906 37.7849L231.17 35.2169L209.217 50.0622L210.954 52.6302Z" fill="#FFA340"/>
<path d="M209.566 50.5751C210.766 52.2751 213.566 52.675 216.866 51.775L211.166 43.275C209.166 46.075 208.466 48.7751 209.566 50.5751Z" fill="#FFA340"/>
<path d="M228.266 44.875L221.766 35.2749C220.766 35.6749 219.665 36.275 218.565 36.875L225.565 47.2749C226.665 46.4749 227.466 45.675 228.266 44.875Z" fill="#FFB96E"/>
<path d="M224.165 48.375L224.266 48.2749L217.165 37.7749L217.065 37.875C214.665 39.475 212.666 41.3749 211.266 43.2749L216.965 51.7749C219.165 51.1749 221.665 49.975 224.165 48.375Z" fill="#FFB96E"/>
<path d="M210.665 52.075C208.665 49.175 212.066 43.475 218.066 39.375C224.166 35.275 230.666 34.275 232.566 37.175C234.566 40.075 231.165 45.775 225.165 49.875C219.165 53.975 212.665 54.975 210.665 52.075Z" fill="#E0821B"/>
<path d="M210.966 52.475C208.966 49.575 212.366 43.875 218.366 39.775C224.466 35.675 230.966 34.6751 232.866 37.5751C234.866 40.4751 231.466 46.175 225.466 50.275C219.366 54.375 212.866 55.375 210.966 52.475Z" fill="#FCCA4C"/>
<path d="M213.166 50.975C211.666 48.775 214.366 44.275 219.166 41.075C223.966 37.775 229.166 36.975 230.666 39.175C232.166 41.375 229.466 45.875 224.666 49.075C219.766 52.375 214.666 53.175 213.166 50.975Z" fill="#FFE066"/>
<path d="M225.466 50.275C231.366 46.275 234.666 40.775 232.966 37.775L231.566 35.675L231.266 35.275L231.166 35.275C229.466 33.575 225.866 33.575 221.766 35.275C220.766 35.675 219.666 36.275 218.566 36.875C218.066 37.175 217.566 37.475 217.066 37.775L216.966 37.875C214.566 39.475 212.566 41.375 211.166 43.275C209.266 45.875 208.566 48.3751 209.266 50.0751L209.166 50.0751L209.466 50.475L210.566 52.0751L210.866 52.475L210.966 52.675C213.166 55.375 219.566 54.375 225.466 50.275Z" stroke="black" stroke-miterlimit="10"/>
<path d="M334.378 199.233C337.378 195.933 335.878 192.733 334.878 191.433C336.378 192.233 339.678 193.633 342.678 190.333C346.678 186.033 340.278 178.633 331.978 180.433C327.278 181.433 324.778 181.133 323.578 180.733C323.478 180.733 323.378 180.633 323.178 180.633C323.278 180.733 323.278 180.833 323.378 180.933C323.878 182.133 324.278 184.533 323.678 189.333C322.578 197.733 330.378 203.533 334.378 199.233Z" fill="#EF1818"/>
<path d="M334.2 199.077C337.2 195.777 335.7 192.577 334.7 191.277C336.2 192.077 339.5 193.477 342.5 190.177C346.5 185.877 340.1 178.477 331.8 180.277C327.1 181.277 324.6 180.977 323.4 180.577C323.3 180.577 323.2 180.477 323 180.477C323.1 180.577 323.1 180.677 323.2 180.777C323.7 181.977 324.1 184.377 323.5 189.177C322.4 197.577 330.2 203.377 334.2 199.077Z" stroke="black" stroke-miterlimit="10"/>
<path d="M333.279 320.447C332.479 322.947 334.879 326.047 338.979 328.347L342.579 317.347C337.779 316.847 334.079 317.947 333.279 320.447Z" fill="#FFA340"/>
<path d="M345.979 317.947L342.079 329.847C342.579 330.047 343.179 330.247 343.679 330.447L347.579 318.347C347.079 318.247 346.579 318.147 345.979 317.947Z" fill="#FFA340"/>
<path d="M334.029 317.982L333.074 320.932L358.286 329.096L359.241 326.147L334.029 317.982Z" fill="#FFA340"/>
<path d="M358.479 328.547C359.079 326.547 357.679 324.147 354.879 322.047L351.779 331.747C355.179 331.747 357.779 330.547 358.479 328.547Z" fill="#FFA340"/>
<path d="M342.479 317.347L338.879 328.347C339.879 328.947 340.979 329.447 342.079 329.847L345.979 317.947C344.779 317.647 343.579 317.447 342.479 317.347Z" fill="#FFB96E"/>
<path d="M347.779 318.447C347.679 318.447 347.679 318.447 347.579 318.447L343.679 330.547C343.779 330.547 343.779 330.547 343.879 330.647C346.679 331.547 349.379 331.947 351.679 331.847L354.779 322.147C353.079 320.647 350.579 319.347 347.779 318.447Z" fill="#FFB96E"/>
<path d="M359.079 326.847C357.979 330.147 351.479 331.047 344.479 328.847C337.479 326.547 332.779 322.047 333.879 318.747C334.979 315.447 341.479 314.547 348.479 316.747C355.379 318.947 360.079 323.447 359.079 326.847Z" fill="#E0821B"/>
<path d="M359.179 326.347C358.079 329.647 351.579 330.547 344.579 328.347C337.579 326.047 332.879 321.547 333.979 318.247C335.079 314.947 341.579 314.047 348.579 316.247C355.479 318.447 360.279 323.047 359.179 326.347Z" fill="#FCCA4C"/>
<path d="M356.579 325.547C355.779 328.147 350.579 328.747 345.079 326.947C339.579 325.147 335.779 321.647 336.579 319.047C337.379 316.447 342.579 315.847 348.079 317.647C353.579 319.447 357.479 322.947 356.579 325.547Z" fill="#FFE066"/>
<path d="M348.579 316.247C341.779 314.047 335.379 314.847 334.079 317.947L333.279 320.447L333.079 320.947C332.779 323.347 335.079 326.147 338.879 328.347C339.879 328.947 340.979 329.447 342.079 329.847C342.579 330.047 343.179 330.247 343.679 330.447C343.779 330.447 343.779 330.447 343.879 330.547C346.679 331.447 349.379 331.847 351.679 331.747C354.879 331.647 357.279 330.747 358.179 329.047H358.279L358.479 328.547L359.079 326.747L359.179 326.247L359.279 326.047C360.079 322.847 355.379 318.447 348.579 316.247Z" stroke="black" stroke-miterlimit="10"/>
<path d="M340.889 379.191C341.789 376.791 339.589 373.591 335.589 370.991L331.489 381.791C336.189 382.591 339.989 381.691 340.889 379.191Z" fill="#FFA340"/>
<path d="M328.089 381.091L332.489 369.391C331.989 369.191 331.489 368.891 330.889 368.691L326.389 380.591C326.989 380.791 327.489 380.891 328.089 381.091Z" fill="#FFA340"/>
<path d="M340.067 381.63L341.159 378.728L316.358 369.398L315.266 372.299L340.067 381.63Z" fill="#FFA340"/>
<path d="M316.089 369.891C315.389 371.891 316.689 374.291 319.389 376.591L322.989 366.991C319.489 366.991 316.789 367.891 316.089 369.891Z" fill="#FFA340"/>
<path d="M331.489 381.891L335.589 371.091C334.689 370.491 333.589 369.891 332.489 369.391L328.089 381.091C329.189 381.491 330.389 381.691 331.489 381.891Z" fill="#FFB96E"/>
<path d="M326.289 380.491C326.389 380.491 326.389 380.491 326.489 380.591L330.989 368.691C330.889 368.691 330.889 368.691 330.789 368.591C328.089 367.591 325.389 366.991 322.989 366.991L319.389 376.591C321.089 378.091 323.489 379.491 326.289 380.491Z" fill="#FFB96E"/>
<path d="M315.389 371.691C316.589 368.391 323.189 367.891 329.989 370.391C336.789 372.991 341.389 377.691 340.189 380.991C338.989 384.291 332.389 384.791 325.589 382.291C318.789 379.691 314.189 374.991 315.389 371.691Z" fill="#E0821B"/>
<path d="M315.289 372.091C316.489 368.791 323.089 368.291 329.889 370.791C336.689 373.391 341.289 378.091 340.089 381.391C338.889 384.691 332.289 385.191 325.489 382.691C318.589 380.091 313.989 375.391 315.289 372.091Z" fill="#FCCA4C"/>
<path d="M317.789 373.091C318.789 370.591 323.889 370.191 329.389 372.191C334.789 374.191 338.489 377.991 337.489 380.491C336.489 382.991 331.389 383.391 325.889 381.391C320.489 379.291 316.889 375.591 317.789 373.091Z" fill="#FFE066"/>
<path d="M308.289 435.291C306.789 433.191 302.889 433.191 298.589 435.091L305.289 444.591C308.389 441.091 309.789 437.391 308.289 435.291Z" fill="#FFA340"/>
<path d="M302.589 446.991L295.389 436.791C294.889 437.091 294.389 437.391 293.989 437.691L301.289 448.091C301.689 447.691 302.189 447.291 302.589 446.991Z" fill="#FFA340"/>
<path d="M288.153 452.752L309.799 437.464L308.01 434.932L286.365 450.22L288.153 452.752Z" fill="#FFA340"/>
<path d="M286.589 450.591C287.789 452.291 290.589 452.591 293.989 451.691L288.089 443.391C286.089 446.091 285.389 448.891 286.589 450.591Z" fill="#FFA340"/>
<path d="M305.189 444.591L298.489 435.091C297.489 435.491 296.389 436.091 295.289 436.691L302.489 446.891C303.589 446.191 304.389 445.391 305.189 444.591Z" fill="#FFB96E"/>
<path d="M301.089 448.091L301.189 447.991L293.889 437.591L293.789 437.691C291.389 439.391 289.489 441.291 288.089 443.191L293.989 451.491C296.189 450.991 298.689 449.791 301.089 448.091Z" fill="#FFB96E"/>
<path d="M287.689 452.091C285.689 449.191 288.889 443.491 294.889 439.291C300.889 435.091 307.389 433.991 309.389 436.791C311.389 439.691 308.189 445.391 302.189 449.591C296.189 453.891 289.689 454.991 287.689 452.091Z" fill="#E0821B"/>
<path d="M287.989 452.491C285.989 449.591 289.189 443.891 295.189 439.691C301.189 435.491 307.689 434.391 309.689 437.191C311.689 440.091 308.489 445.791 302.489 449.991C296.489 454.291 289.989 455.391 287.989 452.491Z" fill="#FCCA4C"/>
<path d="M290.189 450.991C288.589 448.791 291.189 444.291 295.989 440.891C300.789 437.491 305.889 436.591 307.389 438.791C308.989 440.991 306.389 445.491 301.589 448.891C296.889 452.191 291.789 453.191 290.189 450.991Z" fill="#FFE066"/>
<path d="M316.289 369.391L315.189 372.291C314.189 375.591 318.689 380.191 325.389 382.691C332.089 385.191 338.489 384.691 339.889 381.591L340.989 378.691L340.889 378.691C341.389 376.391 339.189 373.391 335.489 370.991C334.589 370.391 333.489 369.791 332.389 369.291C331.889 369.091 331.389 368.791 330.789 368.591C330.689 368.591 330.689 368.591 330.589 368.491C327.889 367.491 325.189 366.891 322.789 366.891C319.789 366.991 317.289 367.791 316.289 369.391Z" stroke="black" stroke-miterlimit="10"/>
<path d="M286.289 450.191L287.689 452.191L287.989 452.591L288.089 452.791C290.289 455.391 296.589 454.291 302.389 450.191C308.189 446.091 311.389 440.491 309.689 437.591L307.889 435.091L307.789 435.091C306.089 433.391 302.489 433.491 298.389 435.291C297.389 435.691 296.289 436.291 295.189 436.891C294.689 437.191 294.189 437.491 293.789 437.791L293.689 437.891C291.289 439.591 289.389 441.491 287.989 443.391C286.189 445.891 285.589 448.391 286.289 450.191Z" stroke="black" stroke-miterlimit="10"/>
<path d="M74.8129 73.7C78.6129 76 81.4129 73.8 82.6129 72.6C82.1129 74.2 81.5129 77.7 85.3129 80C90.4129 83 96.2129 75.3 92.8129 67.5C90.9129 63.1 90.6128 60.5999 90.7128 59.3999C90.7128 59.2999 90.7129 59.1 90.8129 59C90.7129 59.1 90.6128 59.1 90.5128 59.2C89.4128 59.9 87.2129 60.8 82.3129 61.2C73.9129 61.9 69.7129 70.7 74.8129 73.7Z" fill="#EF1818"/>
<path d="M28.7129 143C32.8129 144.8 35.3129 142.3 36.3129 141C36.0129 142.7 35.8129 146.2 39.9129 148C45.3129 150.4 50.2129 142 45.8129 134.7C43.3129 130.6 42.8129 128.2 42.8129 126.9C42.8129 126.8 42.8129 126.6 42.8129 126.5C42.7129 126.6 42.6129 126.7 42.5129 126.8C41.5129 127.7 39.4129 128.8 34.7129 129.8C26.3129 131.3 23.3129 140.6 28.7129 143Z" fill="#EF1818"/>
<path d="M82.3129 61.2C73.8129 61.8 69.7129 70.7 74.8129 73.7C78.6129 76 81.4129 73.8 82.6129 72.6C82.1129 74.2 81.5129 77.7 85.3129 80C90.4129 83 96.2129 75.3 92.8129 67.5C90.9129 63.1 90.6128 60.5999 90.7128 59.3999C90.7128 59.2999 90.7129 59.1 90.8129 59C90.7129 59.1 90.6128 59.1 90.5128 59.2C89.4128 60 87.1129 60.9 82.3129 61.2Z" stroke="black" stroke-miterlimit="10"/>
<path d="M28.7129 143C32.8129 144.8 35.3129 142.3 36.3129 141C36.0129 142.7 35.8129 146.2 39.9129 148C45.3129 150.4 50.2129 142 45.8129 134.7C43.3129 130.6 42.8129 128.2 42.8129 126.9C42.8129 126.8 42.8129 126.6 42.8129 126.5C42.7129 126.6 42.6129 126.7 42.5129 126.8C41.5129 127.7 39.4129 128.8 34.7129 129.8C26.3129 131.3 23.3129 140.6 28.7129 143Z" stroke="black" stroke-miterlimit="10"/>
<path d="M331.045 96.3536C326.945 98.0536 327.045 101.654 327.345 103.254C326.345 101.854 323.945 99.3536 319.845 101.054C314.345 103.354 317.145 112.654 325.445 114.554C330.145 115.654 332.245 116.854 333.245 117.754C333.345 117.854 333.445 117.954 333.545 118.054C333.545 117.954 333.545 117.854 333.545 117.654C333.645 116.354 334.245 113.954 336.745 109.854C341.145 102.654 336.545 94.1536 331.045 96.3536Z" fill="#EF1818"/>
<path d="M331.045 96.3536C326.945 98.0536 327.045 101.654 327.345 103.254C326.345 101.854 323.945 99.3536 319.845 101.054C314.345 103.354 317.145 112.654 325.445 114.554C330.145 115.654 332.245 116.854 333.245 117.754C333.345 117.854 333.445 117.954 333.545 118.054C333.545 117.954 333.545 117.854 333.545 117.654C333.645 116.354 334.245 113.954 336.745 109.854C341.145 102.654 336.545 94.1536 331.045 96.3536Z" stroke="black" stroke-miterlimit="10"/>
</svg>
