<svg width="593" height="356" viewBox="0 0 593 356" fill="none" xmlns="http://www.w3.org/2000/svg">
<rect width="593" height="356" fill="#202020"/>
<path d="M494.486 180.535L502.984 169.857C502.548 169.422 502.112 168.986 501.568 168.659L492.96 179.445C493.505 179.772 494.05 180.208 494.486 180.535Z" fill="#FFA340"/>
<path d="M506.759 185.148L508.87 182.512L486.336 164.464L484.224 167.1L506.759 185.148Z" fill="#FFA340"/>
<path d="M485.878 164.955C484.462 166.698 485.007 169.749 486.968 173.017L493.941 164.301C490.454 162.994 487.295 163.102 485.878 164.955Z" fill="#FFA340"/>
<path d="M497.863 182.496L505.708 172.69C504.945 171.71 504.073 170.838 503.093 169.858L494.594 180.535C495.575 181.298 496.773 181.951 497.863 182.496Z" fill="#FFB96E"/>
<path d="M492.851 179.336L492.96 179.445L501.567 168.659L501.458 168.55C498.953 166.589 496.338 165.064 493.941 164.301L486.968 173.017C488.384 175.087 490.345 177.266 492.851 179.336Z" fill="#FFB96E"/>
<path d="M484.68 166.48C487.077 163.538 494.05 165.173 500.26 170.075C506.47 175.087 509.63 181.515 507.233 184.457C504.836 187.399 497.863 185.764 491.653 180.862C485.334 175.959 482.283 169.531 484.68 166.48Z" fill="#E0821B"/>
<path d="M484.353 166.916C486.75 163.974 493.723 165.608 499.933 170.511C506.143 175.523 509.303 181.951 506.906 184.893C504.509 187.835 497.536 186.2 491.326 181.298C485.007 176.286 481.956 169.858 484.353 166.916Z" fill="#FCCA4C"/>
<path d="M486.641 168.768C488.493 166.48 493.941 167.787 498.953 171.819C503.856 175.741 506.47 180.862 504.618 183.15C502.766 185.438 497.319 184.13 492.307 180.099C487.295 176.068 484.789 171.056 486.641 168.768Z" fill="#FFE066"/>
<path d="M486.314 164.41L484.353 166.807L484.244 167.025C482.174 170.075 485.225 176.395 491.326 181.189C497.427 186.091 504.182 187.726 506.688 185.002L508.758 182.387L508.649 182.278C509.957 179.99 508.649 176.177 505.599 172.472C504.836 171.492 503.964 170.62 502.984 169.64C502.548 169.204 502.112 168.768 501.567 168.441L501.458 168.332C498.952 166.371 496.338 164.846 493.941 164.083C490.672 163.103 487.839 163.103 486.314 164.41Z" stroke="black" stroke-miterlimit="10"/>
<path d="M537.218 42.5486C536.237 45.1635 538.634 48.65 542.992 51.4827L547.46 39.7159C542.339 38.8443 538.199 39.8249 537.218 42.5486Z" fill="#FFA340"/>
<path d="M551.164 40.4787L546.37 53.226C546.915 53.4439 547.46 53.7708 548.113 53.9887L553.016 41.0235C552.362 40.8056 551.818 40.6966 551.164 40.4787Z" fill="#FFA340"/>
<path d="M538.113 39.8919L536.924 43.0529L563.945 53.2188L565.134 50.0578L538.113 39.8919Z" fill="#FFA340"/>
<path d="M564.238 52.6812C565.001 50.5022 563.584 47.8874 560.643 45.3815L556.72 55.8409C560.534 55.8409 563.475 54.8603 564.238 52.6812Z" fill="#FFA340"/>
<path d="M547.459 39.607L542.992 51.3739C543.973 52.0276 545.172 52.6812 546.37 53.226L551.164 40.4787C549.965 40.0429 548.658 39.8249 547.459 39.607Z" fill="#FFB96E"/>
<path d="M553.125 41.1324C553.016 41.1324 553.016 41.1324 552.907 41.0234L548.004 53.9887C548.113 53.9887 548.113 53.9887 548.222 54.0977C551.164 55.1872 554.106 55.8409 556.721 55.8409L560.643 45.3815C558.791 43.7472 556.176 42.2219 553.125 41.1324Z" fill="#FFB96E"/>
<path d="M565.001 50.7201C563.693 54.3155 556.502 54.8602 549.094 52.1364C541.685 49.3037 536.673 44.183 537.981 40.5876C539.288 36.9922 546.479 36.4474 553.888 39.1712C561.296 42.004 566.308 47.1247 565.001 50.7201Z" fill="#E0821B"/>
<path d="M565.11 50.2843C563.802 53.8797 556.612 54.4244 549.203 51.7006C541.794 48.8679 536.782 43.7471 538.09 40.1517C539.397 36.5563 546.588 36.0116 553.997 38.7354C561.514 41.5681 566.526 46.6889 565.11 50.2843Z" fill="#FCCA4C"/>
<path d="M562.386 49.1947C561.296 51.9185 555.74 52.3543 549.747 50.1752C543.864 47.9962 539.833 43.856 540.922 41.1322C542.012 38.4084 547.568 37.9726 553.561 40.1516C559.444 42.4396 563.366 46.4709 562.386 49.1947Z" fill="#FFE066"/>
<path d="M564.02 53.2259L565.219 50.0663C566.308 46.4709 561.405 41.4591 554.106 38.7353C546.806 36.0115 539.833 36.5563 538.308 39.9338L537.109 43.0933H537.218C536.673 45.5992 539.07 48.8678 543.101 51.4826C544.082 52.1364 545.28 52.7901 546.479 53.3348C547.024 53.5527 547.568 53.8796 548.222 54.0975C548.331 54.0975 548.331 54.0975 548.44 54.2064C551.382 55.296 554.323 55.9496 556.938 55.9496C560.207 55.8407 562.931 54.9691 564.02 53.2259Z" stroke="black" stroke-miterlimit="10"/>
<path d="M502.454 79.015C500.275 85.879 492.975 89.6923 486.111 87.5132C479.248 85.3342 475.434 78.0344 477.613 71.1705C479.792 64.3065 487.092 60.4932 493.956 62.6722C500.711 64.8513 504.524 72.151 502.454 79.015Z" fill="#E0821B"/>
<path d="M501.801 78.9061C499.73 85.4432 492.758 89.0386 486.329 87.0775C479.792 85.0074 476.197 78.0345 478.158 71.6063C480.228 65.0692 487.201 61.4738 493.629 63.4349C500.057 65.3961 503.871 72.369 501.801 78.9061Z" fill="#FCCA4C"/>
<path d="M499.404 78.1433C497.77 83.373 492.213 86.2058 487.092 84.5715C481.863 82.9372 479.03 77.3807 480.664 72.26C482.298 67.0303 487.855 64.1975 492.976 65.8318C498.096 67.4661 500.929 72.9136 499.404 78.1433Z" fill="#FFE066"/>
<g opacity="0.23">
<g opacity="0.23">
<path opacity="0.23" d="M502.563 78.5793L497.443 64.5245C496.353 63.7618 495.155 63.2171 493.847 62.7813C493.738 62.7813 493.629 62.6723 493.52 62.6723L500.711 82.6105C501.474 81.521 502.019 80.4315 502.345 79.124C502.454 78.9061 502.454 78.6882 502.563 78.5793Z" fill="#FFE066"/>
</g>
</g>
<g opacity="0.23">
<g opacity="0.23">
<path opacity="0.23" d="M480.882 65.8319L488.944 88.0581C491.232 88.276 493.411 87.8401 495.481 86.8595L486.656 62.4544C484.368 63.217 482.407 64.3065 480.882 65.8319Z" fill="#FFE066"/>
</g>
</g>
<path d="M497.443 64.5244C497.443 64.4154 497.443 64.4154 497.443 64.5244C497.007 64.1975 496.462 63.8707 495.917 63.6528C495.808 63.5438 495.699 63.5438 495.591 63.4349C495.046 63.217 494.501 62.9991 493.956 62.7812C493.847 62.7812 493.738 62.6723 493.629 62.6723C491.232 62.0185 488.944 62.0185 486.656 62.6723C485.676 62.9991 484.695 63.3259 483.715 63.8707C483.606 63.8707 483.497 63.9796 483.497 63.9796C483.17 64.1975 482.734 64.4154 482.407 64.7423C482.298 64.8513 482.298 64.8513 482.189 64.9602C481.754 65.2871 481.427 65.614 480.991 65.9408C479.466 67.3572 478.376 69.2093 477.722 71.2794C475.543 78.1434 479.357 85.4432 486.221 87.6222C487.201 87.949 488.073 88.058 489.053 88.1669C489.162 88.1669 489.162 88.1669 489.271 88.1669C489.707 88.1669 490.143 88.1669 490.579 88.1669C490.688 88.1669 490.797 88.1669 490.906 88.1669C491.341 88.1669 491.777 88.058 492.213 88.058C492.322 88.058 492.322 88.058 492.431 88.058C492.976 87.9491 493.411 87.8401 493.956 87.7312H494.065C494.501 87.6222 494.937 87.4043 495.373 87.1864C495.373 87.1864 495.482 87.1864 495.482 87.0774C498.096 85.879 500.275 83.8089 501.692 81.0851C501.801 80.9761 501.801 80.8672 501.91 80.7582C502.128 80.2135 502.345 79.6687 502.563 79.124C502.563 78.9061 502.672 78.7971 502.672 78.5792C503.98 73.1316 501.801 67.575 497.443 64.5244Z" stroke="black" stroke-miterlimit="10"/>
<path d="M543.677 119.385C539.1 121.235 539.212 125.153 539.547 126.894C538.431 125.37 535.752 122.65 531.175 124.5C525.036 127.003 528.162 137.123 537.426 139.191C542.672 140.388 545.016 141.694 546.132 142.674C546.244 142.782 546.355 142.891 546.467 143C546.467 142.891 546.467 142.782 546.467 142.565C546.579 141.15 547.248 138.538 550.039 134.076C554.95 126.241 549.816 116.991 543.677 119.385Z" fill="#EF1818"/>
<path d="M543.677 119.385C539.1 121.235 539.212 125.153 539.547 126.894C538.431 125.37 535.752 122.65 531.175 124.5C525.036 127.003 528.162 137.123 537.426 139.191C542.672 140.388 545.016 141.694 546.132 142.674C546.244 142.782 546.355 142.891 546.467 143C546.467 142.891 546.467 142.782 546.467 142.565C546.579 141.15 547.248 138.538 550.039 134.076C554.95 126.241 549.816 116.991 543.677 119.385Z" stroke="black" stroke-miterlimit="10"/>
<path d="M328.834 118.74C325.06 122.892 326.947 126.918 328.205 128.553C326.318 127.547 322.166 125.785 318.391 129.937C313.359 135.347 321.411 144.657 331.853 142.393C337.767 141.134 340.912 141.512 342.422 142.015C342.548 142.015 342.673 142.141 342.925 142.141C342.799 142.015 342.799 141.889 342.673 141.763C342.044 140.254 341.541 137.234 342.296 131.195C343.68 120.627 333.867 113.33 328.834 118.74Z" fill="#EF1818"/>
<path d="M329.058 118.936C325.283 123.087 327.171 127.113 328.429 128.749C326.542 127.742 322.39 125.981 318.615 130.133C313.583 135.543 321.635 144.853 332.077 142.588C337.991 141.33 341.136 141.708 342.646 142.211C342.771 142.211 342.897 142.337 343.149 142.337C343.023 142.211 343.023 142.085 342.897 141.959C342.268 140.45 341.765 137.43 342.52 131.391C343.904 120.823 334.09 113.526 329.058 118.936Z" stroke="black" stroke-miterlimit="10"/>
<path d="M148.721 147.812C146.204 155.738 137.775 160.141 129.849 157.625C121.922 155.109 117.519 146.679 120.035 138.753C122.552 130.827 130.981 126.423 138.907 128.94C146.708 131.456 151.111 139.885 148.721 147.812Z" fill="#E0821B"/>
<path d="M147.966 147.56C145.575 155.109 137.523 159.261 130.1 156.996C122.552 154.605 118.4 146.553 120.664 139.13C123.055 131.582 131.107 127.43 138.53 129.695C145.953 131.959 150.356 140.137 147.966 147.56Z" fill="#FCCA4C"/>
<path d="M145.198 146.679C143.311 152.718 136.894 155.989 130.981 154.102C124.942 152.215 121.671 145.799 123.558 139.885C125.445 133.846 131.862 130.575 137.775 132.462C143.688 134.35 147.085 140.766 145.198 146.679Z" fill="#FFE066"/>
<g opacity="0.23">
<g opacity="0.23">
<path opacity="0.23" d="M123.81 132.588L133.12 158.254C135.762 158.506 138.278 158.003 140.669 156.87L130.478 128.688C127.962 129.569 125.571 130.827 123.81 132.588Z" fill="#FFE066"/>
</g>
</g>
<path d="M142.933 131.079C142.933 130.953 142.933 130.953 142.933 131.079C142.43 130.701 141.801 130.324 141.172 130.072C141.046 129.946 140.92 129.946 140.794 129.82C140.165 129.569 139.536 129.317 138.907 129.066C138.781 129.066 138.656 128.94 138.53 128.94C135.762 128.185 133.12 128.185 130.478 128.94C129.345 129.317 128.213 129.695 127.081 130.324C126.955 130.324 126.829 130.45 126.829 130.45C126.452 130.701 125.948 130.953 125.571 131.33C125.445 131.456 125.445 131.456 125.319 131.582C124.816 131.959 124.439 132.337 123.935 132.714C122.174 134.35 120.916 136.489 120.161 138.879C117.645 146.805 122.048 155.235 129.974 157.751C131.107 158.128 132.113 158.254 133.246 158.38C133.371 158.38 133.371 158.38 133.497 158.38C134 158.38 134.504 158.38 135.007 158.38C135.133 158.38 135.259 158.38 135.384 158.38C135.888 158.38 136.391 158.254 136.894 158.254C137.02 158.254 137.02 158.254 137.146 158.254C137.775 158.128 138.278 158.003 138.907 157.877H139.033C139.536 157.751 140.039 157.499 140.543 157.248C140.543 157.248 140.669 157.248 140.669 157.122C143.688 155.738 146.204 153.348 147.84 150.202C147.966 150.076 147.966 149.951 148.091 149.825C148.343 149.196 148.595 148.567 148.846 147.938C148.846 147.686 148.972 147.56 148.972 147.309C150.482 141.018 147.966 134.601 142.933 131.079Z" stroke="black" stroke-miterlimit="10"/>
<path d="M383.929 191.108L386.367 188.064L360.345 167.222L357.907 170.267L383.929 191.108Z" fill="#FFA340"/>
<path d="M359.817 167.789C358.181 169.802 358.81 173.325 361.075 177.099L369.127 167.034C365.101 165.524 361.452 165.65 359.817 167.789Z" fill="#FFA340"/>
<path d="M367.869 184.396L367.995 184.522L377.934 172.067L377.808 171.941C374.914 169.676 371.895 167.915 369.127 167.034L361.075 177.099C362.71 179.49 364.975 182.006 367.869 184.396Z" fill="#FFB96E"/>
<path d="M358.433 169.55C361.201 166.153 369.253 168.041 376.424 173.702C383.596 179.49 387.244 186.912 384.476 190.309C381.708 193.706 373.656 191.819 366.485 186.158C359.188 180.496 355.665 173.073 358.433 169.55Z" fill="#E0821B"/>
<path d="M358.055 170.054C360.823 166.657 368.875 168.544 376.047 174.206C383.218 179.993 386.867 187.416 384.099 190.813C381.331 194.21 373.279 192.323 366.108 186.661C358.81 180.874 355.288 173.451 358.055 170.054Z" fill="#FCCA4C"/>
<path d="M360.32 167.16L358.055 169.928L357.93 170.179C355.539 173.702 359.062 180.999 366.107 186.535C373.153 192.197 380.953 194.084 383.847 190.939L386.237 187.919L386.112 187.793C387.621 185.151 386.112 180.748 382.589 176.47C381.708 175.338 380.702 174.331 379.569 173.199C379.066 172.696 378.563 172.193 377.934 171.815L377.808 171.689C374.914 169.425 371.895 167.663 369.127 166.783C365.353 165.65 362.081 165.65 360.32 167.16Z" stroke="black" stroke-miterlimit="10"/>
<path d="M419.101 26.4398C417.969 29.4593 420.737 33.4853 425.769 36.7565L430.928 23.1687C425.015 22.1622 420.234 23.2945 419.101 26.4398Z" fill="#FFA340"/>
<path d="M435.205 24.0495L429.67 38.7695C430.299 39.0212 430.928 39.3986 431.683 39.6502L437.344 24.6786C436.589 24.4269 435.96 24.3011 435.205 24.0495Z" fill="#FFA340"/>
<path d="M420.135 23.3719L418.761 27.0221L449.965 38.7612L451.338 35.1111L420.135 23.3719Z" fill="#FFA340"/>
<path d="M450.303 38.1405C451.184 35.6242 449.548 32.6048 446.151 29.7111L441.622 41.7891C446.025 41.7891 449.422 40.6567 450.303 38.1405Z" fill="#FFA340"/>
<path d="M430.928 23.0429L425.769 36.6308C426.902 37.3857 428.286 38.1405 429.67 38.7695L435.205 24.0495C433.821 23.5463 432.312 23.2946 430.928 23.0429Z" fill="#FFB96E"/>
<path d="M437.47 24.8044C437.344 24.8044 437.344 24.8044 437.218 24.6786L431.557 39.6503C431.683 39.6503 431.683 39.6503 431.808 39.7761C435.205 41.0343 438.602 41.7891 441.622 41.7891L446.151 29.7111C444.012 27.8239 440.993 26.0625 437.47 24.8044Z" fill="#FFB96E"/>
<path d="M451.184 35.8758C449.674 40.0276 441.371 40.6567 432.815 37.5114C424.26 34.2402 418.473 28.3271 419.982 24.1752C421.492 20.0234 429.796 19.3944 438.351 22.5397C446.906 25.8108 452.694 31.724 451.184 35.8758Z" fill="#E0821B"/>
<path d="M451.309 35.3726C449.8 39.5244 441.496 40.1535 432.941 37.0082C424.385 33.737 418.598 27.8238 420.108 23.6719C421.617 19.5201 429.921 18.8911 438.476 22.0364C447.158 25.3075 452.945 31.2208 451.309 35.3726Z" fill="#FCCA4C"/>
<path d="M448.164 34.1144C446.906 37.2597 440.49 37.7629 433.57 35.2467C426.776 32.7304 422.121 27.9495 423.379 24.8042C424.637 21.6589 431.054 21.1556 437.973 23.6719C444.767 26.3139 449.297 30.9691 448.164 34.1144Z" fill="#FFE066"/>
<path d="M450.051 38.7694L451.435 35.1209C452.693 30.969 447.032 25.1816 438.602 22.0363C430.173 18.891 422.121 19.5201 420.359 23.4203L418.976 27.0688H419.101C418.472 29.9625 421.24 33.7369 425.895 36.7564C427.028 37.5113 428.412 38.2662 429.795 38.8952C430.425 39.1469 431.054 39.5243 431.808 39.7759C431.934 39.7759 431.934 39.7759 432.06 39.9017C435.457 41.1599 438.854 41.9147 441.873 41.9147C445.648 41.7889 448.793 40.7824 450.051 38.7694Z" stroke="black" stroke-miterlimit="10"/>
<path d="M53.9253 23.7611C49.1444 20.8674 45.6217 23.6353 44.1119 25.1451C44.741 23.1321 45.4959 18.7286 40.715 15.8349C34.2985 12.0605 27.0014 21.7481 31.279 31.5615C33.6695 37.0973 34.0469 40.2426 33.9211 41.7524C33.9211 41.8782 33.9211 42.1298 33.7953 42.2556C33.9211 42.1298 34.047 42.1297 34.1728 42.0039C35.5567 41.1232 38.3245 39.9909 44.4894 39.4877C55.0576 38.607 60.3418 27.5355 53.9253 23.7611Z" fill="#EF1818"/>
<path d="M44.4894 39.4877C55.1835 38.7328 60.3418 27.5355 53.9253 23.7611C49.1444 20.8674 45.6217 23.6353 44.1119 25.1451C44.741 23.1321 45.4959 18.7286 40.715 15.8349C34.2985 12.0605 27.0014 21.7481 31.279 31.5615C33.6695 37.0973 34.0469 40.2426 33.9211 41.7524C33.9211 41.8782 33.9211 42.1298 33.7953 42.2556C33.9211 42.1298 34.047 42.1297 34.1728 42.0039C35.5567 40.9974 38.4503 39.8651 44.4894 39.4877Z" stroke="black" stroke-miterlimit="10"/>
<path d="M202.475 60.8148C203.482 57.6694 200.462 53.7693 195.304 50.8756L190.774 64.715C196.813 65.3441 201.469 63.9601 202.475 60.8148Z" fill="#FFA340"/>
<path d="M186.497 63.9601L191.403 48.9884C190.774 48.7367 190.019 48.4851 189.39 48.2334L184.484 63.4568C185.113 63.5827 185.742 63.7084 186.497 63.9601Z" fill="#FFA340"/>
<path d="M201.531 63.9154L202.732 60.2047L171.012 49.9325L169.811 53.6432L201.531 63.9154Z" fill="#FFA340"/>
<path d="M170.77 50.6239C170.015 53.1402 171.777 56.1597 175.3 58.8018L179.2 46.5979C174.922 46.5979 171.651 48.1077 170.77 50.6239Z" fill="#FFA340"/>
<path d="M190.9 64.7149L195.43 50.8755C194.172 50.1206 192.788 49.4916 191.404 48.9883L186.497 63.96C188.007 64.3374 189.516 64.5891 190.9 64.7149Z" fill="#FFB96E"/>
<path d="M184.232 63.331C184.358 63.331 184.358 63.331 184.484 63.331L189.391 48.1077C189.265 48.1077 189.265 48.1076 189.139 47.9818C185.616 46.8495 182.219 46.3463 179.326 46.4721L175.425 58.6759C177.564 60.5631 180.71 62.1987 184.232 63.331Z" fill="#FFB96E"/>
<path d="M170.015 52.7628C171.399 48.6109 179.577 47.4786 188.384 50.2465C197.191 53.1402 203.104 58.8018 201.72 62.9536C200.336 67.1054 192.158 68.2377 183.351 65.4698C174.67 62.702 168.757 57.0404 170.015 52.7628Z" fill="#E0821B"/>
<path d="M169.89 53.3918C171.274 49.24 179.451 48.1077 188.258 50.8756C197.065 53.7693 202.978 59.4308 201.595 63.5826C200.211 67.7345 192.033 68.8668 183.226 66.0989C174.545 63.331 168.506 57.5437 169.89 53.3918Z" fill="#FCCA4C"/>
<path d="M173.161 54.3983C174.167 51.1271 180.709 50.3722 187.629 52.6368C194.549 54.9015 199.33 59.305 198.323 62.5761C197.317 65.8472 190.774 66.6021 183.855 64.3374C176.935 62.0728 172.028 57.6694 173.161 54.3983Z" fill="#FFE066"/>
<path d="M183.226 66.0988C191.781 68.8667 199.833 67.8602 201.469 63.96L202.475 60.8147L202.727 60.1856C203.104 57.1661 200.211 53.6434 195.43 50.8755C194.172 50.1206 192.788 49.4916 191.404 48.9883C190.775 48.7367 190.02 48.485 189.391 48.2334C189.265 48.2334 189.265 48.2334 189.139 48.1076C185.616 46.9753 182.219 46.472 179.326 46.5978C175.3 46.7237 172.28 47.856 171.148 49.9948L171.022 49.9948L170.77 50.6239L170.015 52.8885L169.89 53.5176L169.764 53.7692C168.757 57.7952 174.671 63.331 183.226 66.0988Z" stroke="black" stroke-miterlimit="10"/>
<path d="M233.049 143.455C237.956 140.687 237.327 136.284 236.698 134.271C238.082 135.78 241.604 138.674 246.385 135.906C252.802 132.258 248.021 121.06 237.327 119.928C231.288 119.299 228.52 118.041 227.136 117.16C227.01 117.034 226.884 116.908 226.758 116.908C226.758 117.034 226.758 117.16 226.758 117.412C226.884 119.047 226.507 122.067 223.865 127.603C219.461 137.164 226.507 147.104 233.049 143.455Z" fill="#EF1818"/>
<path d="M223.991 127.477C219.461 137.164 226.507 147.103 233.049 143.455C237.956 140.687 237.327 136.284 236.698 134.271C238.082 135.78 241.604 138.674 246.385 135.906C252.802 132.258 248.021 121.06 237.327 119.928C231.288 119.299 228.52 118.041 227.136 117.16C227.01 117.034 226.884 116.908 226.758 116.908C226.758 117.034 226.758 117.16 226.758 117.412C227.01 118.921 226.633 122.067 223.991 127.477Z" stroke="black" stroke-miterlimit="10"/>
<path d="M299.393 317.58C296.877 325.506 288.448 329.91 280.522 327.393C272.595 324.877 268.192 316.448 270.708 308.522C273.224 300.595 281.654 296.192 289.58 298.708C297.38 301.224 301.784 309.654 299.393 317.58Z" fill="#E0821B"/>
<path d="M298.639 317.454C296.248 325.003 288.196 329.155 280.773 326.89C273.224 324.5 269.073 316.448 271.337 309.025C273.728 301.476 281.78 297.324 289.203 299.589C296.626 301.853 301.029 309.906 298.639 317.454Z" fill="#FCCA4C"/>
<path d="M295.871 316.574C293.983 322.613 287.567 325.884 281.654 323.997C275.615 322.109 272.344 315.693 274.231 309.78C276.118 303.741 282.534 300.47 288.448 302.357C294.361 304.244 297.632 310.535 295.871 316.574Z" fill="#FFE066"/>
<g opacity="0.23">
<g opacity="0.23">
<path opacity="0.23" d="M299.519 317.077L293.606 300.847C292.348 299.966 290.964 299.337 289.454 298.834C289.329 298.834 289.203 298.708 289.077 298.708L297.381 321.732C298.261 320.474 298.89 319.216 299.268 317.706C299.394 317.454 299.394 317.203 299.519 317.077Z" fill="#FFE066"/>
</g>
</g>
<g opacity="0.23">
<g opacity="0.23">
<path opacity="0.23" d="M274.482 302.357L283.793 328.023C286.435 328.274 288.951 327.771 291.341 326.639L281.15 298.457C278.508 299.337 276.244 300.595 274.482 302.357Z" fill="#FFE066"/>
</g>
</g>
<path d="M293.606 300.847C293.606 300.721 293.606 300.721 293.606 300.847C293.103 300.47 292.474 300.092 291.845 299.84C291.719 299.715 291.593 299.715 291.467 299.589C290.838 299.337 290.209 299.086 289.58 298.834C289.454 298.834 289.328 298.708 289.203 298.708C286.435 297.953 283.793 297.953 281.151 298.708C280.018 299.086 278.886 299.463 277.754 300.092C277.628 300.092 277.502 300.218 277.502 300.218C277.125 300.47 276.621 300.721 276.244 301.099C276.118 301.224 276.118 301.224 275.992 301.35C275.489 301.728 275.112 302.105 274.608 302.483C272.847 304.118 271.589 306.257 270.834 308.647C268.318 316.574 272.721 325.003 280.647 327.519C281.78 327.897 282.786 328.023 283.918 328.148C284.044 328.148 284.044 328.148 284.17 328.148C284.673 328.148 285.177 328.148 285.68 328.148C285.806 328.148 285.931 328.148 286.057 328.148C286.561 328.148 287.064 328.023 287.567 328.023C287.693 328.023 287.693 328.023 287.819 328.023C288.448 327.897 288.951 327.771 289.58 327.645H289.706C290.209 327.519 290.712 327.268 291.216 327.016C291.216 327.016 291.341 327.016 291.341 326.89C294.361 325.506 296.877 323.116 298.513 319.971C298.639 319.845 298.639 319.719 298.764 319.593C299.016 318.964 299.268 318.335 299.519 317.706C299.519 317.454 299.645 317.328 299.645 317.077C301.155 310.786 298.639 304.37 293.606 300.847Z" stroke="black" stroke-miterlimit="10"/>
<path d="M301.209 38.4955C299.448 35.8535 294.415 35.7276 289.005 37.9923L297.183 50.0703C301.209 45.7927 302.971 41.2634 301.209 38.4955Z" fill="#FFA340"/>
<path d="M293.786 53.0897L284.979 40.0053C284.35 40.3827 283.721 40.7601 283.092 41.1375L292.025 54.3479C292.654 53.9704 293.157 53.4672 293.786 53.0897Z" fill="#FFA340"/>
<path d="M275.277 59.8274L302.896 41.1501L300.711 37.9192L273.092 56.5965L275.277 59.8274Z" fill="#FFA340"/>
<path d="M273.531 57.2417C275.04 59.3805 278.563 59.8837 282.715 58.7514L275.543 48.0573C273.027 51.5801 272.147 54.9771 273.531 57.2417Z" fill="#FFA340"/>
<path d="M297.057 50.0703L288.88 37.9922C287.621 38.4954 286.237 39.2504 284.854 40.0052L293.66 53.0897C295.044 52.0832 296.051 51.0768 297.057 50.0703Z" fill="#FFB96E"/>
<path d="M291.899 54.4737L292.025 54.3479L283.092 41.1375L282.966 41.2634C279.947 43.2764 277.431 45.6668 275.669 48.0572L282.841 58.7513C285.608 57.9964 288.754 56.4867 291.899 54.4737Z" fill="#FFB96E"/>
<path d="M274.914 59.1289C272.398 55.4803 276.676 48.3089 284.224 43.1506C291.899 37.9923 300.077 36.7341 302.467 40.3827C304.984 44.0313 300.706 51.2026 293.157 56.361C285.608 61.5193 277.431 62.7774 274.914 59.1289Z" fill="#E0821B"/>
<path d="M275.292 59.6322C272.775 55.9836 277.053 48.8122 284.602 43.6539C292.276 38.4956 300.454 37.2375 302.845 40.8861C305.361 44.5347 301.083 51.7059 293.535 56.8643C285.86 62.0226 277.682 63.2807 275.292 59.6322Z" fill="#FCCA4C"/>
<path d="M278.06 57.7449C276.173 54.977 279.569 49.3155 285.609 45.2894C291.648 41.1376 298.19 40.1311 300.077 42.899C301.964 45.6669 298.567 51.3285 292.528 55.3545C286.363 59.5063 279.947 60.5127 278.06 57.7449Z" fill="#FFE066"/>
<path d="M293.535 56.8642C300.958 51.8317 305.11 44.912 302.971 41.1376L301.209 38.4956L300.832 37.9923L300.706 37.9923C298.567 35.8535 294.038 35.8535 288.88 37.9923C287.622 38.4955 286.238 39.2505 284.854 40.0053C284.225 40.3828 283.596 40.7602 282.967 41.1376L282.841 41.2635C279.821 43.2765 277.305 45.6669 275.544 48.0573C273.153 51.3284 272.272 54.4738 273.153 56.6126L273.027 56.6126L273.405 57.1159L274.789 59.1289L275.166 59.6321L275.292 59.8838C278.06 63.2807 286.112 62.0225 293.535 56.8642Z" stroke="black" stroke-miterlimit="10"/>
<path d="M103.994 86.3358C108.775 89.2295 112.298 86.4616 113.808 84.9519C113.179 86.9649 112.424 91.3683 117.205 94.262C123.621 98.0364 130.918 88.3488 126.641 78.5354C124.25 72.9997 123.873 69.8543 123.999 68.3446C123.999 68.2187 123.999 67.9672 124.124 67.8413C123.999 67.9672 123.873 67.9672 123.747 68.093C122.363 68.9737 119.595 70.106 113.43 70.6092C102.862 71.4899 97.5779 82.5615 103.994 86.3358Z" fill="#EF1818"/>
<path d="M36.4133 133.759C41.5716 136.024 44.7169 132.878 45.9751 131.243C45.5976 133.382 45.346 137.785 50.5043 140.05C57.2982 143.069 63.4631 132.501 57.9273 123.317C54.782 118.158 54.1529 115.139 54.1529 113.503C54.1529 113.377 54.1529 113.126 54.1529 113C54.0271 113.126 53.9012 113.252 53.7754 113.377C52.5173 114.51 49.8752 115.894 43.962 117.152C33.3937 119.039 29.6194 130.74 36.4133 133.759Z" fill="#EF1818"/>
<path d="M113.43 70.6092C102.736 71.3641 97.5779 82.5615 103.994 86.3358C108.775 89.2295 112.298 86.4616 113.808 84.9519C113.179 86.9649 112.424 91.3683 117.205 94.262C123.621 98.0364 130.918 88.3488 126.641 78.5354C124.25 72.9997 123.873 69.8543 123.999 68.3446C123.999 68.2187 123.999 67.9672 124.124 67.8413C123.999 67.9672 123.873 67.9672 123.747 68.093C122.363 69.0995 119.469 70.2318 113.43 70.6092Z" stroke="black" stroke-miterlimit="10"/>
<path d="M37.4133 133.759C42.5716 136.024 45.7169 132.878 46.9751 131.243C46.5976 133.382 46.346 137.785 51.5043 140.05C58.2982 143.069 64.4631 132.501 58.9273 123.317C55.782 118.158 55.1529 115.139 55.1529 113.503C55.1529 113.377 55.1529 113.126 55.1529 113C55.0271 113.126 54.9012 113.252 54.7754 113.377C53.5173 114.51 50.8752 115.894 44.962 117.152C34.3937 119.039 30.6194 130.74 37.4133 133.759Z" stroke="black" stroke-miterlimit="10"/>
<path d="M426.367 114.837C421.208 116.976 421.334 121.505 421.712 123.518C420.454 121.757 417.434 118.611 412.276 120.75C405.356 123.644 408.879 135.344 419.321 137.735C425.234 139.119 427.877 140.629 429.135 141.761C429.26 141.887 429.386 142.013 429.512 142.138C429.512 142.013 429.512 141.887 429.512 141.635C429.638 140 430.393 136.98 433.538 131.822C439.074 122.763 433.286 112.069 426.367 114.837Z" fill="#EF1818"/>
<path d="M426.367 114.837C421.208 116.976 421.334 121.505 421.712 123.518C420.454 121.757 417.434 118.611 412.276 120.75C405.356 123.644 408.879 135.344 419.321 137.735C425.234 139.119 427.877 140.629 429.135 141.761C429.26 141.887 429.386 142.013 429.512 142.138C429.512 142.013 429.512 141.887 429.512 141.635C429.638 140 430.393 136.98 433.538 131.822C439.074 122.763 433.286 112.069 426.367 114.837Z" stroke="black" stroke-miterlimit="10"/>
<path d="M417.486 192.97L425.984 203.647C425.548 204.083 425.112 204.519 424.568 204.846L415.96 194.059C416.505 193.733 417.05 193.297 417.486 192.97Z" fill="#FFA340"/>
<path d="M429.759 188.356L431.87 190.993L409.336 209.041L407.224 206.404L429.759 188.356Z" fill="#FFA340"/>
<path d="M408.878 208.55C407.462 206.807 408.007 203.756 409.968 200.488L416.941 209.204C413.454 210.511 410.295 210.402 408.878 208.55Z" fill="#FFA340"/>
<path d="M420.863 191.009L428.708 200.814C427.945 201.795 427.073 202.667 426.093 203.647L417.594 192.97C418.575 192.207 419.773 191.553 420.863 191.009Z" fill="#FFB96E"/>
<path d="M415.851 194.168L415.96 194.059L424.567 204.846L424.458 204.955C421.953 206.916 419.338 208.441 416.941 209.204L409.968 200.488C411.384 198.417 413.345 196.238 415.851 194.168Z" fill="#FFB96E"/>
<path d="M407.68 207.025C410.077 209.966 417.05 208.332 423.26 203.429C429.47 198.418 432.63 191.989 430.233 189.048C427.836 186.106 420.863 187.74 414.653 192.643C408.334 197.546 405.283 203.974 407.68 207.025Z" fill="#E0821B"/>
<path d="M407.353 206.589C409.75 209.53 416.723 207.896 422.933 202.993C429.143 197.982 432.303 191.553 429.906 188.612C427.509 185.67 420.536 187.304 414.326 192.207C408.007 197.219 404.956 203.647 407.353 206.589Z" fill="#FCCA4C"/>
<path d="M409.641 204.737C411.493 207.025 416.941 205.717 421.953 201.686C426.856 197.764 429.47 192.643 427.618 190.355C425.766 188.067 420.319 189.374 415.307 193.406C410.295 197.437 407.789 202.449 409.641 204.737Z" fill="#FFE066"/>
<path d="M409.314 209.095L407.353 206.698L407.244 206.48C405.174 203.429 408.225 197.11 414.326 192.316C420.427 187.413 427.182 185.779 429.688 188.503L431.758 191.118L431.649 191.227C432.957 193.515 431.649 197.328 428.599 201.032C427.836 202.013 426.964 202.884 425.984 203.865C425.548 204.301 425.112 204.737 424.567 205.063L424.458 205.172C421.952 207.134 419.338 208.659 416.941 209.422C413.672 210.402 410.839 210.402 409.314 209.095Z" stroke="black" stroke-miterlimit="10"/>
<path d="M460.218 330.956C459.237 328.341 461.634 324.855 465.992 322.022L470.46 333.789C465.339 334.66 461.199 333.68 460.218 330.956Z" fill="#FFA340"/>
<path d="M474.164 333.026L469.37 320.279C469.915 320.061 470.46 319.734 471.113 319.516L476.016 332.481C475.362 332.699 474.818 332.808 474.164 333.026Z" fill="#FFA340"/>
<path d="M461.113 333.613L459.924 330.452L486.945 320.286L488.134 323.447L461.113 333.613Z" fill="#FFA340"/>
<path d="M487.238 320.823C488.001 323.002 486.584 325.617 483.643 328.123L479.72 317.664C483.534 317.664 486.475 318.644 487.238 320.823Z" fill="#FFA340"/>
<path d="M470.459 333.898L465.992 322.131C466.973 321.477 468.172 320.823 469.37 320.279L474.164 333.026C472.965 333.462 471.658 333.68 470.459 333.898Z" fill="#FFB96E"/>
<path d="M476.125 332.372C476.016 332.372 476.016 332.372 475.907 332.481L471.004 319.516C471.113 319.516 471.113 319.516 471.222 319.407C474.164 318.317 477.106 317.664 479.721 317.664L483.643 328.123C481.791 329.757 479.176 331.283 476.125 332.372Z" fill="#FFB96E"/>
<path d="M488.001 322.785C486.693 319.189 479.502 318.644 472.094 321.368C464.685 324.201 459.673 329.322 460.981 332.917C462.288 336.513 469.479 337.057 476.888 334.333C484.296 331.501 489.308 326.38 488.001 322.785Z" fill="#E0821B"/>
<path d="M488.11 323.22C486.802 319.625 479.612 319.08 472.203 321.804C464.794 324.637 459.782 329.757 461.09 333.353C462.397 336.948 469.588 337.493 476.997 334.769C484.514 331.937 489.526 326.816 488.11 323.22Z" fill="#FCCA4C"/>
<path d="M485.386 324.31C484.296 321.586 478.74 321.15 472.747 323.329C466.864 325.508 462.833 329.649 463.922 332.372C465.012 335.096 470.568 335.532 476.561 333.353C482.444 331.065 486.366 327.034 485.386 324.31Z" fill="#FFE066"/>
<path d="M487.02 320.279L488.219 323.438C489.308 327.034 484.405 332.046 477.106 334.769C469.806 337.493 462.833 336.948 461.308 333.571L460.109 330.411H460.218C459.673 327.905 462.07 324.637 466.101 322.022C467.082 321.368 468.28 320.715 469.479 320.17C470.024 319.952 470.568 319.625 471.222 319.407C471.331 319.407 471.331 319.407 471.44 319.298C474.382 318.209 477.323 317.555 479.938 317.555C483.207 317.664 485.931 318.536 487.02 320.279Z" stroke="black" stroke-miterlimit="10"/>
<path d="M425.454 294.49C423.275 287.626 415.975 283.812 409.111 285.991C402.248 288.17 398.434 295.47 400.613 302.334C402.792 309.198 410.092 313.011 416.956 310.832C423.711 308.653 427.524 301.354 425.454 294.49Z" fill="#E0821B"/>
<path d="M424.801 294.599C422.73 288.061 415.758 284.466 409.329 286.427C402.792 288.497 399.197 295.47 401.158 301.898C403.228 308.435 410.201 312.031 416.629 310.07C423.057 308.109 426.871 301.136 424.801 294.599Z" fill="#FCCA4C"/>
<path d="M422.404 295.361C420.77 290.132 415.213 287.299 410.092 288.933C404.863 290.567 402.03 296.124 403.664 301.245C405.298 306.474 410.855 309.307 415.976 307.673C421.096 306.039 423.929 300.591 422.404 295.361Z" fill="#FFE066"/>
<g opacity="0.23">
<g opacity="0.23">
<path opacity="0.23" d="M425.563 294.925L420.443 308.98C419.353 309.743 418.155 310.288 416.847 310.723C416.738 310.723 416.629 310.832 416.52 310.832L423.711 290.894C424.474 291.984 425.019 293.073 425.345 294.381C425.454 294.598 425.454 294.816 425.563 294.925Z" fill="#FFE066"/>
</g>
</g>
<g opacity="0.23">
<g opacity="0.23">
<path opacity="0.23" d="M403.882 307.673L411.944 285.447C414.232 285.229 416.411 285.665 418.481 286.645L409.656 311.05C407.368 310.288 405.407 309.198 403.882 307.673Z" fill="#FFE066"/>
</g>
</g>
<path d="M420.443 308.98C420.443 309.089 420.443 309.089 420.443 308.98C420.007 309.307 419.462 309.634 418.917 309.852C418.808 309.961 418.699 309.961 418.591 310.07C418.046 310.288 417.501 310.506 416.956 310.723C416.847 310.723 416.738 310.832 416.629 310.832C414.232 311.486 411.944 311.486 409.656 310.832C408.676 310.505 407.695 310.179 406.715 309.634C406.606 309.634 406.497 309.525 406.497 309.525C406.17 309.307 405.734 309.089 405.407 308.762C405.298 308.653 405.298 308.653 405.189 308.544C404.754 308.218 404.427 307.891 403.991 307.564C402.466 306.147 401.376 304.295 400.722 302.225C398.543 295.361 402.357 288.061 409.221 285.882C410.201 285.556 411.073 285.447 412.053 285.338C412.162 285.338 412.162 285.338 412.271 285.338C412.707 285.338 413.143 285.338 413.579 285.338C413.688 285.338 413.797 285.338 413.906 285.338C414.341 285.338 414.777 285.447 415.213 285.447C415.322 285.447 415.322 285.447 415.431 285.447C415.976 285.556 416.411 285.664 416.956 285.773H417.065C417.501 285.882 417.937 286.1 418.373 286.318C418.373 286.318 418.482 286.318 418.482 286.427C421.096 287.626 423.275 289.696 424.692 292.42C424.801 292.528 424.801 292.637 424.91 292.746C425.128 293.291 425.345 293.836 425.563 294.381C425.563 294.599 425.672 294.708 425.672 294.925C426.98 300.373 424.801 305.93 420.443 308.98Z" stroke="black" stroke-miterlimit="10"/>
<path d="M466.677 254.12C462.1 252.27 462.212 248.352 462.547 246.611C461.431 248.134 458.752 250.855 454.175 249.005C448.036 246.502 451.162 236.381 460.426 234.314C465.672 233.116 468.016 231.811 469.132 230.831C469.244 230.722 469.355 230.613 469.467 230.505C469.467 230.613 469.467 230.722 469.467 230.94C469.579 232.355 470.248 234.967 473.039 239.428C477.95 247.264 472.816 256.514 466.677 254.12Z" fill="#EF1818"/>
<path d="M466.677 254.12C462.1 252.27 462.212 248.352 462.547 246.611C461.431 248.134 458.752 250.855 454.175 249.005C448.036 246.502 451.162 236.381 460.426 234.314C465.672 233.116 468.016 231.811 469.132 230.831C469.244 230.722 469.355 230.613 469.467 230.505C469.467 230.613 469.467 230.722 469.467 230.94C469.579 232.355 470.248 234.967 473.039 239.428C477.95 247.264 472.816 256.514 466.677 254.12Z" stroke="black" stroke-miterlimit="10"/>
<path d="M362.981 68.1971C359.207 64.0452 361.094 60.0192 362.352 58.3837C360.465 59.3902 356.313 61.1516 352.538 56.9997C347.506 51.5898 355.558 42.2796 366 44.5443C371.914 45.8024 375.059 45.4249 376.569 44.9217C376.695 44.9217 376.82 44.7959 377.072 44.7959C376.946 44.9217 376.946 45.0475 376.82 45.1733C376.191 46.6831 375.688 49.7026 376.443 55.7416C377.827 66.3099 368.013 73.607 362.981 68.1971Z" fill="#EF1818"/>
<path d="M363.205 68.0013C359.43 63.8494 361.318 59.8234 362.576 58.1879C360.689 59.1944 356.537 60.9558 352.762 56.8039C347.73 51.394 355.782 42.0838 366.224 44.3485C372.138 45.6066 375.283 45.2291 376.793 44.7259C376.918 44.7259 377.044 44.6001 377.296 44.6001C377.17 44.7259 377.17 44.8517 377.044 44.9775C376.415 46.4873 375.912 49.5068 376.667 55.5458C378.051 66.1141 368.237 73.4112 363.205 68.0013Z" stroke="black" stroke-miterlimit="10"/>
<path d="M71.7206 225.693C69.2044 217.767 60.7749 213.363 52.8487 215.88C44.9225 218.396 40.5191 226.825 43.0353 234.751C45.5516 242.678 53.981 247.081 61.9072 244.565C69.7076 242.049 74.1111 233.619 71.7206 225.693Z" fill="#E0821B"/>
<path d="M70.9658 225.945C68.5754 218.396 60.5233 214.244 53.1004 216.509C45.5516 218.899 41.3998 226.951 43.6644 234.374C46.0549 241.923 54.1069 246.075 61.5299 243.81C68.9528 241.545 73.3563 233.368 70.9658 225.945Z" fill="#FCCA4C"/>
<path d="M68.1978 226.825C66.3106 220.786 59.8942 217.515 53.981 219.402C47.942 221.29 44.6708 227.706 46.558 233.619C48.4452 239.658 54.8617 242.929 60.7749 241.042C66.6881 239.155 70.085 232.738 68.1978 226.825Z" fill="#FFE066"/>
<g opacity="0.23">
<g opacity="0.23">
<path opacity="0.23" d="M46.8097 240.916L56.1199 215.25C58.7619 214.999 61.2782 215.502 63.6686 216.634L53.4778 244.816C50.9615 243.936 48.5711 242.678 46.8097 240.916Z" fill="#FFE066"/>
</g>
</g>
<path d="M65.9331 242.426C65.9331 242.552 65.9331 242.552 65.9331 242.426C65.4299 242.803 64.8008 243.181 64.1717 243.432C64.0459 243.558 63.9201 243.558 63.7943 243.684C63.1652 243.936 62.5362 244.187 61.9071 244.439C61.7813 244.439 61.6555 244.565 61.5297 244.565C58.7618 245.32 56.1197 245.32 53.4776 244.565C52.3453 244.187 51.2131 243.81 50.0808 243.181C49.9549 243.181 49.8291 243.055 49.8291 243.055C49.4517 242.803 48.9484 242.552 48.571 242.174C48.4452 242.049 48.4452 242.049 48.3194 241.923C47.8161 241.545 47.4387 241.168 46.9354 240.79C45.1741 239.155 43.9159 237.016 43.1611 234.626C40.6448 226.699 45.0482 218.27 52.9744 215.754C54.1068 215.376 55.1132 215.25 56.2455 215.125C56.3714 215.125 56.3714 215.125 56.4972 215.125C57.0004 215.125 57.5037 215.125 58.007 215.125C58.1328 215.125 58.2586 215.125 58.3844 215.125C58.8876 215.125 59.3909 215.25 59.8941 215.25C60.02 215.25 60.02 215.25 60.1458 215.25C60.7749 215.376 61.2781 215.502 61.9071 215.628H62.033C62.5362 215.754 63.0394 216.005 63.5427 216.257C63.5427 216.257 63.6685 216.257 63.6685 216.383C66.688 217.767 69.2043 220.157 70.8399 223.302C70.9657 223.428 70.9656 223.554 71.0914 223.68C71.3431 224.309 71.5947 224.938 71.8464 225.567C71.8464 225.819 71.9721 225.944 71.9721 226.196C73.4819 232.487 70.9657 238.903 65.9331 242.426Z" stroke="black" stroke-miterlimit="10"/>
<path d="M306.929 182.397L309.367 185.441L283.345 206.282L280.907 203.238L306.929 182.397Z" fill="#FFA340"/>
<path d="M282.817 205.716C281.181 203.703 281.81 200.18 284.075 196.406L292.127 206.471C288.101 207.98 284.452 207.854 282.817 205.716Z" fill="#FFA340"/>
<path d="M290.869 189.108L290.995 188.982L300.934 201.438L300.808 201.564C297.914 203.828 294.895 205.59 292.127 206.47L284.075 196.405C285.71 194.015 287.975 191.499 290.869 189.108Z" fill="#FFB96E"/>
<path d="M281.433 203.954C284.201 207.351 292.253 205.464 299.424 199.803C306.596 194.015 310.244 186.592 307.476 183.195C304.708 179.798 296.656 181.685 289.485 187.347C282.188 193.009 278.665 200.432 281.433 203.954Z" fill="#E0821B"/>
<path d="M281.055 203.451C283.823 206.848 291.875 204.961 299.047 199.299C306.218 193.512 309.867 186.089 307.099 182.692C304.331 179.295 296.279 181.182 289.108 186.844C281.81 192.631 278.288 200.054 281.055 203.451Z" fill="#FCCA4C"/>
<path d="M283.32 206.345L281.055 203.577L280.93 203.325C278.539 199.802 282.062 192.505 289.107 186.97C296.153 181.308 303.953 179.421 306.847 182.566L309.237 185.586L309.112 185.711C310.621 188.353 309.112 192.757 305.589 197.035C304.708 198.167 303.702 199.173 302.569 200.306C302.066 200.809 301.563 201.312 300.934 201.69L300.808 201.815C297.914 204.08 294.895 205.841 292.127 206.722C288.353 207.854 285.081 207.854 283.32 206.345Z" stroke="black" stroke-miterlimit="10"/>
<path d="M168.34 196.475C167.208 193.455 169.975 189.429 175.008 186.158L180.166 199.746C174.253 200.752 169.472 199.62 168.34 196.475Z" fill="#FFA340"/>
<path d="M184.444 198.865L178.908 184.145C179.537 183.894 180.166 183.516 180.921 183.264L186.583 198.236C185.828 198.488 185.199 198.614 184.444 198.865Z" fill="#FFA340"/>
<path d="M169.373 199.543L168 195.893L199.203 184.153L200.577 187.804L169.373 199.543Z" fill="#FFA340"/>
<path d="M199.541 184.774C200.422 187.29 198.787 190.31 195.39 193.204L190.86 181.126C195.264 181.126 198.661 182.258 199.541 184.774Z" fill="#FFA340"/>
<path d="M180.166 199.872L175.008 186.284C176.14 185.529 177.524 184.774 178.908 184.145L184.444 198.865C183.06 199.368 181.55 199.62 180.166 199.872Z" fill="#FFB96E"/>
<path d="M186.709 198.11C186.583 198.11 186.583 198.11 186.457 198.236L180.795 183.264C180.921 183.264 180.921 183.264 181.047 183.139C184.444 181.88 187.841 181.126 190.86 181.126L195.39 193.204C193.251 195.091 190.231 196.852 186.709 198.11Z" fill="#FFB96E"/>
<path d="M200.422 187.039C198.913 182.887 190.609 182.258 182.054 185.403C173.499 188.674 167.711 194.588 169.221 198.739C170.731 202.891 179.034 203.52 187.59 200.375C196.145 197.104 201.932 191.191 200.422 187.039Z" fill="#E0821B"/>
<path d="M200.548 187.542C199.038 183.39 190.734 182.761 182.179 185.906C173.624 189.178 167.836 195.091 169.346 199.243C170.856 203.395 179.16 204.024 187.715 200.878C196.396 197.607 202.183 191.694 200.548 187.542Z" fill="#FCCA4C"/>
<path d="M197.403 188.8C196.145 185.655 189.728 185.152 182.808 187.668C176.015 190.184 171.36 194.965 172.618 198.11C173.876 201.256 180.292 201.759 187.212 199.243C194.006 196.601 198.535 191.946 197.403 188.8Z" fill="#FFE066"/>
<path d="M199.29 184.145L200.674 187.794C201.932 191.946 196.27 197.733 187.841 200.878C179.411 204.024 171.359 203.395 169.598 199.494L168.214 195.846H168.34C167.711 192.952 170.479 189.178 175.134 186.158C176.266 185.403 177.65 184.648 179.034 184.019C179.663 183.768 180.292 183.39 181.047 183.139C181.173 183.139 181.173 183.139 181.299 183.013C184.696 181.755 188.092 181 191.112 181C194.886 181.126 198.032 182.132 199.29 184.145Z" stroke="black" stroke-miterlimit="10"/>
<path d="M550.925 304.494C546.144 307.388 542.622 304.62 541.112 303.11C541.741 305.123 542.496 309.527 537.715 312.421C531.299 316.195 524.001 306.507 528.279 296.694C530.669 291.158 531.047 288.013 530.921 286.503C530.921 286.377 530.921 286.126 530.795 286C530.921 286.126 531.047 286.126 531.173 286.252C532.557 287.132 535.325 288.265 541.489 288.768C552.058 289.649 557.342 300.72 550.925 304.494Z" fill="#EF1818"/>
<path d="M541.489 288.768C552.183 289.523 557.342 300.72 550.925 304.494C546.144 307.388 542.622 304.62 541.112 303.11C541.741 305.123 542.496 309.527 537.715 312.421C531.299 316.195 524.001 306.507 528.279 296.694C530.669 291.158 531.047 288.013 530.921 286.503C530.921 286.377 530.921 286.126 530.795 286C530.921 286.126 531.047 286.126 531.173 286.252C532.557 287.258 535.45 288.39 541.489 288.768Z" stroke="black" stroke-miterlimit="10"/>
<path d="M125.475 312.69C126.482 315.835 123.462 319.735 118.304 322.629L113.774 308.79C119.813 308.161 124.469 309.545 125.475 312.69Z" fill="#FFA340"/>
<path d="M109.497 309.545L114.403 324.516C113.774 324.768 113.019 325.02 112.39 325.271L107.484 310.048C108.113 309.922 108.742 309.796 109.497 309.545Z" fill="#FFA340"/>
<path d="M124.531 309.589L125.732 313.3L94.0124 323.572L92.8107 319.861L124.531 309.589Z" fill="#FFA340"/>
<path d="M93.7702 322.881C93.0154 320.364 94.7768 317.345 98.2995 314.703L102.2 326.907C97.9221 326.907 94.6509 325.397 93.7702 322.881Z" fill="#FFA340"/>
<path d="M113.9 308.79L118.43 322.629C117.172 323.384 115.788 324.013 114.404 324.516L109.497 309.545C111.007 309.167 112.516 308.916 113.9 308.79Z" fill="#FFB96E"/>
<path d="M107.232 310.174C107.358 310.174 107.358 310.174 107.484 310.174L112.391 325.397C112.265 325.397 112.265 325.397 112.139 325.523C108.616 326.655 105.219 327.158 102.326 327.033L98.4254 314.829C100.564 312.942 103.71 311.306 107.232 310.174Z" fill="#FFB96E"/>
<path d="M93.0153 320.742C94.3992 324.894 102.577 326.026 111.384 323.258C120.191 320.364 126.104 314.703 124.72 310.551C123.336 306.399 115.158 305.267 106.351 308.035C97.6703 310.803 91.7571 316.464 93.0153 320.742Z" fill="#E0821B"/>
<path d="M92.8897 320.113C94.2736 324.265 102.451 325.397 111.258 322.629C120.065 319.735 125.978 314.074 124.595 309.922C123.211 305.77 115.033 304.638 106.226 307.406C97.5448 310.174 91.5057 315.961 92.8897 320.113Z" fill="#FCCA4C"/>
<path d="M96.1607 319.106C97.1672 322.378 103.709 323.132 110.629 320.868C117.549 318.603 122.33 314.2 121.323 310.929C120.317 307.657 113.774 306.903 106.855 309.167C99.9351 311.432 95.0284 315.835 96.1607 319.106Z" fill="#FFE066"/>
<path d="M106.226 307.406C114.781 304.638 122.833 305.644 124.469 309.545L125.475 312.69L125.727 313.319C126.104 316.338 123.211 319.861 118.43 322.629C117.172 323.384 115.788 324.013 114.404 324.516C113.775 324.768 113.02 325.02 112.391 325.271C112.265 325.271 112.265 325.271 112.139 325.397C108.616 326.529 105.219 327.033 102.326 326.907C98.2996 326.781 95.2801 325.649 94.1478 323.51L94.022 323.51L93.7703 322.881L93.0155 320.616L92.8896 319.987L92.7639 319.735C91.7574 315.709 97.6706 310.174 106.226 307.406Z" stroke="black" stroke-miterlimit="10"/>
<path d="M156.049 230.05C160.956 232.818 160.327 237.221 159.698 239.234C161.082 237.724 164.604 234.831 169.385 237.598C175.802 241.247 171.021 252.444 160.327 253.577C154.288 254.206 151.52 255.464 150.136 256.345C150.01 256.47 149.884 256.596 149.759 256.596C149.759 256.47 149.759 256.345 149.759 256.093C149.884 254.457 149.507 251.438 146.865 245.902C142.461 236.34 149.507 226.401 156.049 230.05Z" fill="#EF1818"/>
<path d="M146.991 246.028C142.461 236.34 149.507 226.401 156.049 230.05C160.956 232.818 160.327 237.221 159.698 239.234C161.082 237.724 164.604 234.831 169.385 237.599C175.802 241.247 171.021 252.444 160.327 253.577C154.288 254.206 151.52 255.464 150.136 256.345C150.01 256.47 149.884 256.596 149.759 256.596C149.759 256.47 149.759 256.345 149.759 256.093C150.01 254.583 149.633 251.438 146.991 246.028Z" stroke="black" stroke-miterlimit="10"/>
<path d="M265.393 217.568C262.877 209.642 254.448 205.239 246.522 207.755C238.595 210.271 234.192 218.701 236.708 226.627C239.224 234.553 247.654 238.956 255.58 236.44C263.38 233.924 267.784 225.494 265.393 217.568Z" fill="#E0821B"/>
<path d="M264.639 217.694C262.248 210.145 254.196 205.993 246.773 208.258C239.224 210.649 235.073 218.701 237.337 226.124C239.728 233.672 247.78 237.824 255.203 235.56C262.626 233.295 267.029 225.243 264.639 217.694Z" fill="#FCCA4C"/>
<path d="M261.871 218.575C259.983 212.536 253.567 209.265 247.654 211.152C241.615 213.039 238.344 219.455 240.231 225.369C242.118 231.408 248.534 234.679 254.448 232.792C260.361 230.904 263.632 224.614 261.871 218.575Z" fill="#FFE066"/>
<g opacity="0.23">
<g opacity="0.23">
<path opacity="0.23" d="M265.519 218.071L259.606 234.301C258.348 235.182 256.964 235.811 255.454 236.314C255.329 236.314 255.203 236.44 255.077 236.44L263.381 213.416C264.261 214.674 264.89 215.933 265.268 217.442C265.394 217.694 265.394 217.946 265.519 218.071Z" fill="#FFE066"/>
</g>
</g>
<g opacity="0.23">
<g opacity="0.23">
<path opacity="0.23" d="M240.483 232.792L249.793 207.126C252.435 206.874 254.951 207.377 257.341 208.51L247.151 236.692C244.509 235.811 242.244 234.553 240.483 232.792Z" fill="#FFE066"/>
</g>
</g>
<path d="M259.606 234.301C259.606 234.427 259.606 234.427 259.606 234.301C259.103 234.679 258.474 235.056 257.845 235.308C257.719 235.434 257.593 235.434 257.467 235.56C256.838 235.811 256.209 236.063 255.58 236.314C255.454 236.314 255.328 236.44 255.203 236.44C252.435 237.195 249.793 237.195 247.151 236.44C246.018 236.063 244.886 235.685 243.754 235.056C243.628 235.056 243.502 234.93 243.502 234.93C243.125 234.679 242.621 234.427 242.244 234.05C242.118 233.924 242.118 233.924 241.992 233.798C241.489 233.421 241.112 233.043 240.608 232.666C238.847 231.03 237.589 228.891 236.834 226.501C234.318 218.575 238.721 210.145 246.647 207.629C247.78 207.252 248.786 207.126 249.918 207C250.044 207 250.044 207 250.17 207C250.673 207 251.177 207 251.68 207C251.806 207 251.931 207 252.057 207C252.561 207 253.064 207.126 253.567 207.126C253.693 207.126 253.693 207.126 253.819 207.126C254.448 207.252 254.951 207.377 255.58 207.503H255.706C256.209 207.629 256.712 207.881 257.216 208.132C257.216 208.132 257.341 208.132 257.341 208.258C260.361 209.642 262.877 212.033 264.513 215.178C264.639 215.304 264.639 215.429 264.764 215.555C265.016 216.184 265.268 216.813 265.519 217.442C265.519 217.694 265.645 217.82 265.645 218.072C267.155 224.362 264.639 230.779 259.606 234.301Z" stroke="black" stroke-miterlimit="10"/>
<path d="M215.39 307.286C213.629 309.928 208.596 310.054 203.186 307.789L211.364 295.711C215.39 299.989 217.152 304.518 215.39 307.286Z" fill="#FFA340"/>
<path d="M207.968 292.692L199.161 305.776C198.532 305.399 197.903 305.021 197.273 304.644L206.206 291.433C206.835 291.811 207.338 292.314 207.968 292.692Z" fill="#FFA340"/>
<path d="M189.458 285.954L217.077 304.631L214.892 307.862L187.273 289.185L189.458 285.954Z" fill="#FFA340"/>
<path d="M187.712 288.54C189.221 286.401 192.744 285.898 196.896 287.03L189.725 297.724C187.208 294.201 186.328 290.804 187.712 288.54Z" fill="#FFA340"/>
<path d="M211.239 295.711L203.061 307.789C201.803 307.286 200.419 306.531 199.035 305.776L207.842 292.692C209.226 293.698 210.232 294.705 211.239 295.711Z" fill="#FFB96E"/>
<path d="M206.08 291.308L206.206 291.433L197.273 304.644L197.147 304.518C194.128 302.505 191.612 300.115 189.85 297.724L197.022 287.03C199.789 287.785 202.935 289.295 206.08 291.308Z" fill="#FFB96E"/>
<path d="M189.095 286.652C186.579 290.301 190.857 297.472 198.406 302.631C206.08 307.789 214.258 309.047 216.648 305.399C219.165 301.75 214.887 294.579 207.338 289.42C199.79 284.262 191.612 283.004 189.095 286.652Z" fill="#E0821B"/>
<path d="M189.473 286.149C186.957 289.798 191.234 296.969 198.783 302.127C206.458 307.286 214.635 308.544 217.026 304.895C219.542 301.247 215.264 294.075 207.716 288.917C200.041 283.759 191.863 282.501 189.473 286.149Z" fill="#FCCA4C"/>
<path d="M192.241 288.036C190.354 290.804 193.751 296.466 199.79 300.492C205.829 304.644 212.371 305.65 214.258 302.882C216.145 300.114 212.748 294.453 206.709 290.427C200.545 286.275 194.128 285.269 192.241 288.036Z" fill="#FFE066"/>
<path d="M207.716 288.917C215.139 293.95 219.291 300.869 217.152 304.644L215.391 307.286L215.013 307.789L214.887 307.789C212.748 309.928 208.219 309.928 203.061 307.789C201.803 307.286 200.419 306.531 199.035 305.776C198.406 305.399 197.777 305.021 197.148 304.644L197.022 304.518C194.002 302.505 191.486 300.114 189.725 297.724C187.334 294.453 186.454 291.307 187.334 289.169L187.208 289.169L187.586 288.665L188.97 286.652L189.347 286.149L189.473 285.898C192.241 282.501 200.293 283.759 207.716 288.917Z" stroke="black" stroke-miterlimit="10"/>
<path d="M26.9944 287.169C31.7752 284.275 35.298 287.043 36.8077 288.553C36.1787 286.54 35.4238 282.136 40.2047 279.243C46.6212 275.468 53.9183 285.156 49.6407 294.969C47.2502 300.505 46.8727 303.65 46.9985 305.16C46.9985 305.286 46.9986 305.537 47.1244 305.663C46.9986 305.537 46.8727 305.537 46.7469 305.412C45.363 304.531 42.5951 303.399 36.4303 302.895C25.862 302.015 20.5779 290.943 26.9944 287.169Z" fill="#EF1818"/>
<path d="M536.413 216.817C541.572 214.552 544.717 217.697 545.975 219.333C545.598 217.194 545.346 212.791 550.504 210.526C557.298 207.506 563.463 218.075 557.927 227.259C554.782 232.417 554.153 235.437 554.153 237.072C554.153 237.198 554.153 237.45 554.153 237.576C554.027 237.45 553.901 237.324 553.775 237.198C552.517 236.066 549.875 234.682 543.962 233.424C533.394 231.537 529.619 219.836 536.413 216.817Z" fill="#EF1818"/>
<path d="M36.4303 302.895C25.7362 302.141 20.5779 290.943 26.9944 287.169C31.7752 284.275 35.298 287.043 36.8077 288.553C36.1787 286.54 35.4238 282.136 40.2047 279.243C46.6212 275.468 53.9183 285.156 49.6407 294.969C47.2502 300.505 46.8727 303.65 46.9985 305.16C46.9985 305.286 46.9986 305.537 47.1244 305.663C46.9986 305.537 46.8727 305.537 46.7469 305.412C45.363 304.405 42.4693 303.273 36.4303 302.895Z" stroke="black" stroke-miterlimit="10"/>
<path d="M535.413 216.817C540.572 214.552 543.717 217.697 544.975 219.333C544.598 217.194 544.346 212.791 549.504 210.526C556.298 207.506 562.463 218.075 556.927 227.259C553.782 232.417 553.153 235.437 553.153 237.072C553.153 237.198 553.153 237.45 553.153 237.576C553.027 237.45 552.901 237.324 552.775 237.198C551.517 236.066 548.875 234.682 542.962 233.424C532.394 231.537 528.619 219.836 535.413 216.817Z" stroke="black" stroke-miterlimit="10"/>
<path d="M350.67 321.301C345.512 319.163 345.638 314.633 346.015 312.62C344.757 314.382 341.738 317.527 336.579 315.388C329.66 312.494 333.182 300.794 343.625 298.403C349.538 297.019 352.18 295.51 353.438 294.377C353.564 294.252 353.69 294.126 353.816 294C353.816 294.126 353.816 294.252 353.816 294.503C353.941 296.139 354.696 299.158 357.842 304.317C363.377 313.375 357.59 324.069 350.67 321.301Z" fill="#EF1818"/>
<path d="M231.929 265.326C231.745 265.326 231.587 265.26 231.454 265.126C231.32 264.993 231.254 264.835 231.254 264.651V248.501C231.254 248.318 231.32 248.16 231.454 248.026C231.587 247.893 231.745 247.826 231.929 247.826H235.879C236.345 247.826 236.704 248.051 236.954 248.501L240.579 254.501L244.204 248.501C244.454 248.051 244.812 247.826 245.279 247.826H249.229C249.412 247.826 249.57 247.893 249.704 248.026C249.837 248.16 249.904 248.318 249.904 248.501V264.651C249.904 264.835 249.837 264.993 249.704 265.126C249.57 265.26 249.412 265.326 249.229 265.326H244.704C244.52 265.326 244.362 265.26 244.229 265.126C244.095 264.993 244.029 264.835 244.029 264.651V257.801L242.379 260.501C242.262 260.685 242.129 260.835 241.979 260.951C241.845 261.068 241.67 261.126 241.454 261.126H239.704C239.487 261.126 239.304 261.068 239.154 260.951C239.02 260.835 238.895 260.685 238.779 260.501L237.129 257.801V264.651C237.129 264.835 237.062 264.993 236.929 265.126C236.795 265.26 236.637 265.326 236.454 265.326H231.929ZM257.715 265.326C257.532 265.326 257.373 265.26 257.24 265.126C257.107 264.993 257.04 264.835 257.04 264.651V259.726L251.415 248.601C251.382 248.535 251.365 248.46 251.365 248.376C251.365 248.226 251.415 248.101 251.515 248.001C251.632 247.885 251.765 247.826 251.915 247.826H256.615C256.898 247.826 257.123 247.901 257.29 248.051C257.473 248.185 257.598 248.318 257.665 248.451L260.165 253.476L262.665 248.451C262.732 248.318 262.848 248.185 263.015 248.051C263.198 247.901 263.432 247.826 263.715 247.826H268.415C268.565 247.826 268.69 247.885 268.79 248.001C268.907 248.101 268.965 248.226 268.965 248.376C268.965 248.46 268.948 248.535 268.915 248.601L263.29 259.726V264.651C263.29 264.835 263.223 264.993 263.09 265.126C262.957 265.26 262.798 265.326 262.615 265.326H257.715ZM275.044 265.326C274.861 265.326 274.702 265.26 274.569 265.126C274.436 264.993 274.369 264.835 274.369 264.651V248.501C274.369 248.318 274.436 248.16 274.569 248.026C274.702 247.893 274.861 247.826 275.044 247.826H282.619C284.952 247.826 286.786 248.343 288.119 249.376C289.469 250.41 290.144 251.935 290.144 253.951C290.144 255.951 289.477 257.443 288.144 258.426C286.811 259.393 284.969 259.876 282.619 259.876H280.869V264.651C280.869 264.835 280.802 264.993 280.669 265.126C280.536 265.26 280.377 265.326 280.194 265.326H275.044ZM282.494 255.251C282.794 255.251 283.061 255.143 283.294 254.926C283.527 254.693 283.644 254.351 283.644 253.901C283.644 253.518 283.552 253.185 283.369 252.901C283.186 252.618 282.894 252.476 282.494 252.476H280.744V255.251H282.494ZM292.671 265.326C292.488 265.326 292.329 265.268 292.196 265.151C292.063 265.018 291.996 264.851 291.996 264.651V248.501C291.996 248.318 292.063 248.16 292.196 248.026C292.329 247.893 292.488 247.826 292.671 247.826H297.571C297.754 247.826 297.913 247.893 298.046 248.026C298.179 248.16 298.246 248.318 298.246 248.501V253.751H302.296V248.501C302.296 248.318 302.363 248.16 302.496 248.026C302.629 247.893 302.788 247.826 302.971 247.826H307.871C308.054 247.826 308.213 247.893 308.346 248.026C308.479 248.16 308.546 248.318 308.546 248.501V264.651C308.546 264.835 308.479 264.993 308.346 265.126C308.213 265.26 308.054 265.326 307.871 265.326H302.971C302.788 265.326 302.629 265.26 302.496 265.126C302.363 264.993 302.296 264.835 302.296 264.651V259.251H298.246V264.651C298.246 264.835 298.179 264.993 298.046 265.126C297.913 265.26 297.754 265.326 297.571 265.326H292.671ZM319.207 265.576C316.707 265.576 314.716 265.001 313.232 263.851C311.749 262.701 310.957 261.026 310.857 258.826C310.841 258.376 310.832 257.651 310.832 256.651C310.832 255.635 310.841 254.893 310.857 254.426C310.907 252.993 311.282 251.76 311.982 250.726C312.699 249.693 313.674 248.91 314.907 248.376C316.141 247.843 317.574 247.576 319.207 247.576C320.841 247.576 322.274 247.843 323.507 248.376C324.741 248.91 325.707 249.693 326.407 250.726C327.124 251.76 327.507 252.993 327.557 254.426C327.591 255.36 327.607 256.101 327.607 256.651C327.607 257.201 327.591 257.926 327.557 258.826C327.457 261.026 326.666 262.701 325.182 263.851C323.699 265.001 321.707 265.576 319.207 265.576ZM319.207 260.701C319.774 260.701 320.216 260.535 320.532 260.201C320.866 259.868 321.041 259.36 321.057 258.676C321.091 257.71 321.107 257.001 321.107 256.551C321.107 256.068 321.091 255.376 321.057 254.476C321.041 253.793 320.866 253.285 320.532 252.951C320.199 252.618 319.757 252.451 319.207 252.451C318.657 252.451 318.216 252.618 317.882 252.951C317.549 253.285 317.374 253.793 317.357 254.476C317.341 254.926 317.332 255.618 317.332 256.551C317.332 257.485 317.341 258.193 317.357 258.676C317.374 259.36 317.541 259.868 317.857 260.201C318.191 260.535 318.641 260.701 319.207 260.701ZM334.241 265.326C334.058 265.326 333.9 265.26 333.766 265.126C333.633 264.993 333.566 264.835 333.566 264.651V253.201H329.416C329.233 253.201 329.075 253.135 328.941 253.001C328.808 252.868 328.741 252.71 328.741 252.526V248.501C328.741 248.318 328.808 248.16 328.941 248.026C329.075 247.893 329.233 247.826 329.416 247.826H344.066C344.25 247.826 344.408 247.893 344.541 248.026C344.675 248.16 344.741 248.318 344.741 248.501V252.526C344.741 252.71 344.675 252.868 344.541 253.001C344.408 253.135 344.25 253.201 344.066 253.201H339.916V264.651C339.916 264.835 339.85 264.993 339.716 265.126C339.583 265.26 339.425 265.326 339.241 265.326H334.241ZM354.266 265.576C351.766 265.576 349.774 265.001 348.291 263.851C346.808 262.701 346.016 261.026 345.916 258.826C345.899 258.376 345.891 257.651 345.891 256.651C345.891 255.635 345.899 254.893 345.916 254.426C345.966 252.993 346.341 251.76 347.041 250.726C347.758 249.693 348.733 248.91 349.966 248.376C351.199 247.843 352.633 247.576 354.266 247.576C355.899 247.576 357.333 247.843 358.566 248.376C359.799 248.91 360.766 249.693 361.466 250.726C362.183 251.76 362.566 252.993 362.616 254.426C362.649 255.36 362.666 256.101 362.666 256.651C362.666 257.201 362.649 257.926 362.616 258.826C362.516 261.026 361.724 262.701 360.241 263.851C358.758 265.001 356.766 265.576 354.266 265.576ZM354.266 260.701C354.833 260.701 355.274 260.535 355.591 260.201C355.924 259.868 356.099 259.36 356.116 258.676C356.149 257.71 356.166 257.001 356.166 256.551C356.166 256.068 356.149 255.376 356.116 254.476C356.099 253.793 355.924 253.285 355.591 252.951C355.258 252.618 354.816 252.451 354.266 252.451C353.716 252.451 353.274 252.618 352.941 252.951C352.608 253.285 352.433 253.793 352.416 254.476C352.399 254.926 352.391 255.618 352.391 256.551C352.391 257.485 352.399 258.193 352.416 258.676C352.433 259.36 352.599 259.868 352.916 260.201C353.249 260.535 353.699 260.701 354.266 260.701Z" fill="#FAFAFA"/>
<rect x="229.62" y="91" width="134.184" height="134.184" rx="8.86667" fill="#E5F5F9"/>
<rect x="231.837" y="93.2167" width="129.75" height="129.75" rx="6.65" stroke="black" stroke-width="4.43333"/>
<rect x="245.255" y="106.635" width="102.914" height="102.914" rx="6.65" stroke="black" stroke-width="4.43333"/>
<path d="M256.83 169.728H247.511V203.59C247.511 206.038 249.496 208.023 251.945 208.023H341.479C343.928 208.023 345.913 206.038 345.913 203.59V179.084H336.967L314.603 156.631L299.694 171.599L277.33 149.146L256.83 169.728Z" fill="#91FF31"/>
<path d="M247.511 168.901H256.83L277.33 148.401L299.694 170.765L314.603 155.855L336.967 178.219H348.149" stroke="black" stroke-width="3.69444" stroke-linejoin="round"/>
<path d="M323.549 155.855C323.549 171.914 310.535 184.929 294.476 184.929C292.446 184.929 290.416 184.711 288.494 184.312C275.299 181.557 265.403 169.848 265.403 155.855C265.403 141.863 275.299 130.154 288.494 127.398C290.416 127 292.446 126.782 294.476 126.782C310.535 126.782 323.549 139.796 323.549 155.855Z" fill="#91FF31"/>
<path d="M323.549 155.855C323.549 171.914 310.535 184.929 294.476 184.929C292.446 184.929 290.416 184.711 288.494 184.312C301.69 181.557 311.586 169.848 311.586 155.855C311.586 141.863 301.69 130.154 288.494 127.398C290.416 127 292.446 126.782 294.476 126.782C310.535 126.782 323.549 139.796 323.549 155.855Z" fill="#00EA80"/>
<path d="M294.476 172.748C295.962 172.748 297.194 171.516 297.194 170.029V148.243L304.916 155.964C305.967 157.015 307.707 157.015 308.758 155.964C309.81 154.913 309.81 153.173 308.758 152.121L296.397 139.76C295.889 139.252 295.201 138.962 294.476 138.962C293.751 138.962 293.062 139.252 292.554 139.76L280.193 152.121C279.141 153.173 279.141 154.913 280.193 155.964C280.737 156.508 281.425 156.762 282.114 156.762C282.803 156.762 283.492 156.508 284.035 155.964L291.757 148.243V170.029C291.757 171.516 292.989 172.748 294.476 172.748Z" fill="black"/>
<circle cx="294.476" cy="155.855" r="26.8565" stroke="black" stroke-width="4.43333"/>
<circle cx="316.84" cy="137.964" r="7.74137" fill="#FFEB31"/>
<path fill-rule="evenodd" clip-rule="evenodd" d="M313.399 144.901C315.948 143.634 317.7 141.004 317.7 137.964C317.7 134.925 315.948 132.294 313.399 131.028C314.436 130.512 315.604 130.223 316.84 130.223C321.115 130.223 324.581 133.689 324.581 137.964C324.581 142.24 321.115 145.706 316.84 145.706C315.604 145.706 314.436 145.416 313.399 144.901Z" fill="#FFCE00"/>
<circle cx="316.84" cy="137.964" r="9.47685" stroke="black" stroke-width="3.41026"/>
</svg>
