<svg width="381" height="501" viewBox="0 0 381 501" fill="none" xmlns="http://www.w3.org/2000/svg">
<rect width="381" height="501" fill="#202020"/>
<path d="M125.717 264C125.533 264 125.375 263.933 125.242 263.8C125.108 263.667 125.042 263.508 125.042 263.325V247.175C125.042 246.992 125.108 246.833 125.242 246.7C125.375 246.567 125.533 246.5 125.717 246.5H129.667C130.133 246.5 130.492 246.725 130.742 247.175L134.367 253.175L137.992 247.175C138.242 246.725 138.6 246.5 139.067 246.5H143.017C143.2 246.5 143.358 246.567 143.492 246.7C143.625 246.833 143.692 246.992 143.692 247.175V263.325C143.692 263.508 143.625 263.667 143.492 263.8C143.358 263.933 143.2 264 143.017 264H138.492C138.308 264 138.15 263.933 138.017 263.8C137.883 263.667 137.817 263.508 137.817 263.325V256.475L136.167 259.175C136.05 259.358 135.917 259.508 135.767 259.625C135.633 259.742 135.458 259.8 135.242 259.8H133.492C133.275 259.8 133.092 259.742 132.942 259.625C132.808 259.508 132.683 259.358 132.567 259.175L130.917 256.475V263.325C130.917 263.508 130.85 263.667 130.717 263.8C130.583 263.933 130.425 264 130.242 264H125.717ZM151.503 264C151.319 264 151.161 263.933 151.028 263.8C150.894 263.667 150.828 263.508 150.828 263.325V258.4L145.203 247.275C145.169 247.208 145.153 247.133 145.153 247.05C145.153 246.9 145.203 246.775 145.303 246.675C145.419 246.558 145.553 246.5 145.703 246.5H150.403C150.686 246.5 150.911 246.575 151.078 246.725C151.261 246.858 151.386 246.992 151.453 247.125L153.953 252.15L156.453 247.125C156.519 246.992 156.636 246.858 156.803 246.725C156.986 246.575 157.219 246.5 157.503 246.5H162.203C162.353 246.5 162.478 246.558 162.578 246.675C162.694 246.775 162.753 246.9 162.753 247.05C162.753 247.133 162.736 247.208 162.703 247.275L157.078 258.4V263.325C157.078 263.508 157.011 263.667 156.878 263.8C156.744 263.933 156.586 264 156.403 264H151.503ZM168.832 264C168.648 264 168.49 263.933 168.357 263.8C168.223 263.667 168.157 263.508 168.157 263.325V247.175C168.157 246.992 168.223 246.833 168.357 246.7C168.49 246.567 168.648 246.5 168.832 246.5H176.407C178.74 246.5 180.573 247.017 181.907 248.05C183.257 249.083 183.932 250.608 183.932 252.625C183.932 254.625 183.265 256.117 181.932 257.1C180.598 258.067 178.757 258.55 176.407 258.55H174.657V263.325C174.657 263.508 174.59 263.667 174.457 263.8C174.323 263.933 174.165 264 173.982 264H168.832ZM176.282 253.925C176.582 253.925 176.848 253.817 177.082 253.6C177.315 253.367 177.432 253.025 177.432 252.575C177.432 252.192 177.34 251.858 177.157 251.575C176.973 251.292 176.682 251.15 176.282 251.15H174.532V253.925H176.282ZM186.459 264C186.275 264 186.117 263.942 185.984 263.825C185.85 263.692 185.784 263.525 185.784 263.325V247.175C185.784 246.992 185.85 246.833 185.984 246.7C186.117 246.567 186.275 246.5 186.459 246.5H191.359C191.542 246.5 191.7 246.567 191.834 246.7C191.967 246.833 192.034 246.992 192.034 247.175V252.425H196.084V247.175C196.084 246.992 196.15 246.833 196.284 246.7C196.417 246.567 196.575 246.5 196.759 246.5H201.659C201.842 246.5 202 246.567 202.134 246.7C202.267 246.833 202.334 246.992 202.334 247.175V263.325C202.334 263.508 202.267 263.667 202.134 263.8C202 263.933 201.842 264 201.659 264H196.759C196.575 264 196.417 263.933 196.284 263.8C196.15 263.667 196.084 263.508 196.084 263.325V257.925H192.034V263.325C192.034 263.508 191.967 263.667 191.834 263.8C191.7 263.933 191.542 264 191.359 264H186.459ZM212.995 264.25C210.495 264.25 208.504 263.675 207.02 262.525C205.537 261.375 204.745 259.7 204.645 257.5C204.629 257.05 204.62 256.325 204.62 255.325C204.62 254.308 204.629 253.567 204.645 253.1C204.695 251.667 205.07 250.433 205.77 249.4C206.487 248.367 207.462 247.583 208.695 247.05C209.929 246.517 211.362 246.25 212.995 246.25C214.629 246.25 216.062 246.517 217.295 247.05C218.529 247.583 219.495 248.367 220.195 249.4C220.912 250.433 221.295 251.667 221.345 253.1C221.379 254.033 221.395 254.775 221.395 255.325C221.395 255.875 221.379 256.6 221.345 257.5C221.245 259.7 220.454 261.375 218.97 262.525C217.487 263.675 215.495 264.25 212.995 264.25ZM212.995 259.375C213.562 259.375 214.004 259.208 214.32 258.875C214.654 258.542 214.829 258.033 214.845 257.35C214.879 256.383 214.895 255.675 214.895 255.225C214.895 254.742 214.879 254.05 214.845 253.15C214.829 252.467 214.654 251.958 214.32 251.625C213.987 251.292 213.545 251.125 212.995 251.125C212.445 251.125 212.004 251.292 211.67 251.625C211.337 251.958 211.162 252.467 211.145 253.15C211.129 253.6 211.12 254.292 211.12 255.225C211.12 256.158 211.129 256.867 211.145 257.35C211.162 258.033 211.329 258.542 211.645 258.875C211.979 259.208 212.429 259.375 212.995 259.375ZM228.029 264C227.846 264 227.687 263.933 227.554 263.8C227.421 263.667 227.354 263.508 227.354 263.325V251.875H223.204C223.021 251.875 222.862 251.808 222.729 251.675C222.596 251.542 222.529 251.383 222.529 251.2V247.175C222.529 246.992 222.596 246.833 222.729 246.7C222.862 246.567 223.021 246.5 223.204 246.5H237.854C238.037 246.5 238.196 246.567 238.329 246.7C238.462 246.833 238.529 246.992 238.529 247.175V251.2C238.529 251.383 238.462 251.542 238.329 251.675C238.196 251.808 238.037 251.875 237.854 251.875H233.704V263.325C233.704 263.508 233.637 263.667 233.504 263.8C233.371 263.933 233.212 264 233.029 264H228.029ZM248.054 264.25C245.554 264.25 243.562 263.675 242.079 262.525C240.595 261.375 239.804 259.7 239.704 257.5C239.687 257.05 239.679 256.325 239.679 255.325C239.679 254.308 239.687 253.567 239.704 253.1C239.754 251.667 240.129 250.433 240.829 249.4C241.545 248.367 242.52 247.583 243.754 247.05C244.987 246.517 246.42 246.25 248.054 246.25C249.687 246.25 251.12 246.517 252.354 247.05C253.587 247.583 254.554 248.367 255.254 249.4C255.97 250.433 256.354 251.667 256.404 253.1C256.437 254.033 256.454 254.775 256.454 255.325C256.454 255.875 256.437 256.6 256.404 257.5C256.304 259.7 255.512 261.375 254.029 262.525C252.545 263.675 250.554 264.25 248.054 264.25ZM248.054 259.375C248.62 259.375 249.062 259.208 249.379 258.875C249.712 258.542 249.887 258.033 249.904 257.35C249.937 256.383 249.954 255.675 249.954 255.225C249.954 254.742 249.937 254.05 249.904 253.15C249.887 252.467 249.712 251.958 249.379 251.625C249.045 251.292 248.604 251.125 248.054 251.125C247.504 251.125 247.062 251.292 246.729 251.625C246.395 251.958 246.22 252.467 246.204 253.15C246.187 253.6 246.179 254.292 246.179 255.225C246.179 256.158 246.187 256.867 246.204 257.35C246.22 258.033 246.387 258.542 246.704 258.875C247.037 259.208 247.487 259.375 248.054 259.375Z" fill="#FAFAFA"/>
<rect x="133" y="111" width="115.318" height="115.318" rx="8.86667" fill="#E5F5F9"/>
<rect x="135.217" y="113.217" width="110.885" height="110.885" rx="6.65" stroke="black" stroke-width="4.43333"/>
<rect x="146.748" y="124.749" width="87.821" height="87.821" rx="6.65" stroke="black" stroke-width="4.43333"/>
<path d="M156.384 178.659H148.376V207.137C148.376 209.585 150.36 211.57 152.809 211.57H228.509C230.957 211.57 232.942 209.585 232.942 207.137V186.699H225.254L206.035 167.403L193.221 180.267L174.002 160.971L156.384 178.659Z" fill="#91FF31"/>
<path d="M148.376 177.948H156.384L174.002 160.33L193.221 179.55L206.035 166.737L225.254 185.956H234.864" stroke="black" stroke-width="3.69444" stroke-linejoin="round"/>
<path d="M213.722 166.737C213.722 180.538 202.538 191.722 188.737 191.722C186.992 191.722 185.248 191.536 183.596 191.193C172.256 188.825 163.751 178.762 163.751 166.737C163.751 154.711 172.256 144.649 183.596 142.281C185.248 141.938 186.992 141.751 188.737 141.751C202.538 141.751 213.722 152.936 213.722 166.737Z" fill="#91FF31"/>
<path d="M213.722 166.737C213.722 180.538 202.538 191.722 188.737 191.722C186.992 191.722 185.247 191.536 183.596 191.193C194.936 188.825 203.441 178.762 203.441 166.737C203.441 154.711 194.936 144.649 183.596 142.281C185.247 141.938 186.992 141.751 188.737 141.751C202.538 141.751 213.722 152.936 213.722 166.737Z" fill="#00EA80"/>
<path d="M188.737 181.255C190.014 181.255 191.073 180.195 191.073 178.918V160.194L197.709 166.83C198.613 167.734 200.108 167.734 201.011 166.83C201.915 165.927 201.915 164.431 201.011 163.528L190.388 152.904C189.952 152.468 189.36 152.219 188.737 152.219C188.114 152.219 187.522 152.468 187.086 152.904L176.462 163.528C175.559 164.431 175.559 165.927 176.462 166.83C176.929 167.298 177.521 167.516 178.113 167.516C178.705 167.516 179.297 167.298 179.764 166.83L186.4 160.194V178.918C186.4 180.195 187.459 181.255 188.737 181.255Z" fill="black"/>
<circle cx="188.737" cy="166.737" r="22.7689" stroke="black" stroke-width="4.43333"/>
<circle cx="207.957" cy="151.361" r="6.65296" fill="#FFEB31"/>
<path fill-rule="evenodd" clip-rule="evenodd" d="M205 157.323C207.19 156.234 208.696 153.973 208.696 151.361C208.696 148.749 207.19 146.488 205 145.4C205.89 144.957 206.894 144.708 207.956 144.708C211.631 144.708 214.609 147.687 214.609 151.361C214.609 155.036 211.631 158.014 207.956 158.014C206.894 158.014 205.89 157.765 205 157.323Z" fill="#FFCE00"/>
<circle cx="207.957" cy="151.361" r="7.9047" stroke="black" stroke-width="3.41026"/>
<path d="M322.834 126.74C319.06 130.892 320.947 134.918 322.205 136.553C320.318 135.547 316.166 133.785 312.391 137.937C307.359 143.347 315.411 152.657 325.853 150.393C331.767 149.134 334.912 149.512 336.422 150.015C336.548 150.015 336.673 150.141 336.925 150.141C336.799 150.015 336.799 149.889 336.673 149.763C336.044 148.254 335.541 145.234 336.296 139.195C337.68 128.627 327.867 121.33 322.834 126.74Z" fill="#EF1818"/>
<path d="M323.058 126.936C319.283 131.087 321.171 135.113 322.429 136.749C320.542 135.742 316.39 133.981 312.615 138.133C307.583 143.543 315.635 152.853 326.077 150.588C331.991 149.33 335.136 149.708 336.646 150.211C336.771 150.211 336.897 150.337 337.149 150.337C337.023 150.211 337.023 150.085 336.897 149.959C336.268 148.45 335.765 145.43 336.52 139.391C337.904 128.823 328.09 121.526 323.058 126.936Z" stroke="black" stroke-miterlimit="10"/>
<path d="M164.393 324.58C161.877 332.506 153.448 336.91 145.522 334.393C137.595 331.877 133.192 323.448 135.708 315.522C138.224 307.595 146.654 303.192 154.58 305.708C162.38 308.224 166.784 316.654 164.393 324.58Z" fill="#E0821B"/>
<path d="M163.639 324.328C161.248 331.877 153.196 336.029 145.773 333.764C138.224 331.374 134.073 323.322 136.337 315.899C138.728 308.35 146.78 304.198 154.203 306.463C161.626 308.728 166.029 316.905 163.639 324.328Z" fill="#FCCA4C"/>
<path d="M160.871 323.448C158.983 329.487 152.567 332.758 146.654 330.871C140.615 328.984 137.344 322.567 139.231 316.654C141.118 310.615 147.535 307.344 153.448 309.231C159.361 311.118 162.758 317.535 160.871 323.448Z" fill="#FFE066"/>
<g opacity="0.23">
<g opacity="0.23">
<path opacity="0.23" d="M139.483 309.357L148.793 335.023C151.435 335.274 153.951 334.771 156.341 333.639L146.151 305.457C143.634 306.337 141.244 307.595 139.483 309.357Z" fill="#FFE066"/>
</g>
</g>
<path d="M158.606 307.847C158.606 307.721 158.606 307.721 158.606 307.847C158.103 307.47 157.474 307.092 156.845 306.841C156.719 306.715 156.593 306.715 156.467 306.589C155.838 306.337 155.209 306.086 154.58 305.834C154.454 305.834 154.328 305.708 154.203 305.708C151.435 304.953 148.793 304.953 146.15 305.708C145.018 306.086 143.886 306.463 142.754 307.092C142.628 307.092 142.502 307.218 142.502 307.218C142.125 307.47 141.621 307.721 141.244 308.099C141.118 308.225 141.118 308.224 140.992 308.35C140.489 308.728 140.112 309.105 139.608 309.483C137.847 311.118 136.589 313.257 135.834 315.647C133.318 323.574 137.721 332.003 145.647 334.519C146.78 334.897 147.786 335.023 148.918 335.148C149.044 335.148 149.044 335.148 149.17 335.148C149.673 335.148 150.177 335.148 150.68 335.148C150.806 335.148 150.931 335.148 151.057 335.148C151.56 335.148 152.064 335.023 152.567 335.023C152.693 335.023 152.693 335.023 152.819 335.023C153.448 334.897 153.951 334.771 154.58 334.645H154.706C155.209 334.519 155.712 334.268 156.216 334.016C156.216 334.016 156.341 334.016 156.341 333.89C159.361 332.506 161.877 330.116 163.513 326.971C163.639 326.845 163.638 326.719 163.764 326.593C164.016 325.964 164.268 325.335 164.519 324.706C164.519 324.454 164.645 324.329 164.645 324.077C166.155 317.786 163.639 311.37 158.606 307.847Z" stroke="black" stroke-miterlimit="10"/>
<path d="M339.923 256.957C337.91 259.473 339.294 264.254 343.068 268.783L352.127 257.46C346.842 254.818 341.936 254.44 339.923 256.957Z" fill="#FFA340"/>
<path d="M356.027 259.724L346.213 272.054C346.717 272.557 347.22 273.061 347.849 273.438L357.788 260.982C357.159 260.605 356.53 260.102 356.027 259.724Z" fill="#FFA340"/>
<path d="M341.854 254.397L339.416 257.441L365.438 278.282L367.876 275.238L341.854 254.397Z" fill="#FFA340"/>
<path d="M365.966 277.716C367.602 275.703 366.973 272.18 364.708 268.405L356.656 278.47C360.682 279.98 364.331 279.854 365.966 277.716Z" fill="#FFA340"/>
<path d="M352.127 257.46L343.068 268.783C343.949 269.915 344.955 270.922 346.088 272.054L355.901 259.724C354.769 258.844 353.385 258.089 352.127 257.46Z" fill="#FFB96E"/>
<path d="M357.914 261.108L357.788 260.982L347.849 273.438L347.975 273.564C350.869 275.828 353.888 277.59 356.656 278.47L364.708 268.405C363.073 266.015 360.808 263.499 357.914 261.108Z" fill="#FFB96E"/>
<path d="M367.35 275.954C364.582 279.351 356.53 277.464 349.359 271.802C342.187 266.015 338.539 258.592 341.307 255.195C344.075 251.798 352.127 253.685 359.298 259.347C366.595 265.009 370.118 272.432 367.35 275.954Z" fill="#E0821B"/>
<path d="M367.727 275.451C364.96 278.848 356.908 276.961 349.736 271.299C342.565 265.512 338.916 258.089 341.684 254.692C344.452 251.295 352.504 253.182 359.675 258.844C366.973 264.631 370.495 272.054 367.727 275.451Z" fill="#FCCA4C"/>
<path d="M365.085 273.312C362.946 275.954 356.656 274.444 350.868 269.789C345.207 265.26 342.187 259.347 344.326 256.705C346.465 254.063 352.756 255.573 358.543 260.228C364.33 264.883 367.224 270.67 365.085 273.312Z" fill="#FFE066"/>
<path d="M365.463 278.345L367.727 275.577L367.853 275.325C370.244 271.802 366.721 264.505 359.675 258.969C352.63 253.308 344.829 251.421 341.936 254.566L339.545 257.586L339.671 257.711C338.161 260.353 339.671 264.757 343.194 269.035C344.075 270.167 345.081 271.173 346.213 272.306C346.717 272.809 347.22 273.312 347.849 273.69L347.975 273.815C350.868 276.08 353.888 277.841 356.656 278.722C360.43 279.854 363.701 279.854 365.463 278.345Z" stroke="black" stroke-miterlimit="10"/>
<path d="M121.887 399.706C116.728 397.442 113.583 400.587 112.325 402.223C112.702 400.084 112.954 395.68 107.795 393.416C101.002 390.396 94.8367 400.964 100.373 410.149C103.518 415.307 104.147 418.327 104.147 419.962C104.147 420.088 104.147 420.34 104.147 420.465C104.273 420.34 104.399 420.214 104.524 420.088C105.783 418.956 108.425 417.572 114.338 416.314C124.906 414.426 128.68 402.726 121.887 399.706Z" fill="#EF1818"/>
<path d="M121.887 399.706C116.728 397.442 113.583 400.587 112.325 402.223C112.702 400.084 112.954 395.68 107.795 393.416C101.002 390.396 94.8367 400.964 100.373 410.149C103.518 415.307 104.147 418.327 104.147 419.962C104.147 420.088 104.147 420.34 104.147 420.465C104.273 420.34 104.399 420.214 104.524 420.088C105.783 418.956 108.425 417.572 114.338 416.314C124.906 414.426 128.68 402.726 121.887 399.706Z" stroke="black" stroke-miterlimit="10"/>
<path d="M347.626 413.328C343.6 417.228 345.362 421.38 346.368 423.141C344.607 422.009 340.581 420.122 336.555 424.022C331.145 429.18 338.694 438.868 349.262 437.232C355.301 436.352 358.32 436.855 359.83 437.358C359.956 437.484 360.082 437.484 360.208 437.61C360.208 437.484 360.082 437.358 360.082 437.232C359.579 435.723 359.201 432.577 360.334 426.664C362.347 416.096 352.911 408.296 347.626 413.328Z" fill="#EF1818"/>
<path d="M347.626 413.328C343.6 417.228 345.362 421.38 346.368 423.141C344.607 422.009 340.581 420.122 336.555 424.022C331.145 429.18 338.694 438.868 349.262 437.232C355.301 436.352 358.32 436.855 359.83 437.358C359.956 437.484 360.082 437.484 360.208 437.61C360.208 437.484 360.082 437.358 360.082 437.232C359.579 435.723 359.201 432.577 360.334 426.664C362.347 416.096 352.911 408.296 347.626 413.328Z" stroke="black" stroke-miterlimit="10"/>
<path d="M362.986 204.481C366.164 203.95 368.324 199.465 368.535 193.573L354.232 195.962C356.405 201.456 359.808 205.011 362.986 204.481Z" fill="#FFA340"/>
<path d="M352.838 191.673L368.374 189.038C368.335 188.327 368.296 187.617 368.08 186.916L352.366 189.561C352.582 190.262 352.715 191.056 352.838 191.673Z" fill="#FFA340"/>
<path d="M359.839 205.098L363.687 204.458L358.211 171.571L354.364 172.212L359.839 205.098Z" fill="#FFA340"/>
<path d="M357.44 171.641C354.879 172.049 352.997 175.092 352.165 179.415L364.878 177.291C362.887 173.48 360.085 171.139 357.44 171.641Z" fill="#FFA340"/>
<path d="M354.232 195.963L368.534 193.573C368.634 192.142 368.556 190.721 368.468 189.122L352.932 191.757C353.187 193.169 353.714 194.655 354.232 195.963Z" fill="#FFB96E"/>
<path d="M352.356 189.383L352.366 189.561L368.08 186.916L368.07 186.738C367.426 183.121 366.352 179.794 364.878 177.291L352.165 179.415C351.788 182.287 351.796 185.672 352.356 189.383Z" fill="#FFB96E"/>
<path d="M355.234 172.029C359.562 171.346 364.3 178.125 365.864 187.127C367.344 196.222 365.108 204.186 360.78 204.869C356.452 205.552 351.714 198.774 350.15 189.772C348.493 180.686 350.822 172.806 355.234 172.029Z" fill="#E0821B"/>
<path d="M354.617 172.152C358.945 171.469 363.683 178.248 365.247 187.25C366.726 196.346 364.491 204.309 360.163 204.992C355.834 205.675 351.096 198.897 349.533 189.895C347.96 180.715 350.289 172.836 354.617 172.152Z" fill="#FCCA4C"/>
<path d="M355.158 175.508C358.514 174.968 362.192 180.29 363.396 187.619C364.591 194.77 362.894 201.189 359.538 201.73C356.182 202.27 352.504 196.948 351.3 189.62C350.095 182.291 351.802 176.049 355.158 175.508Z" fill="#FFE066"/>
<path d="M358.235 171.508L354.701 172.059L354.439 172.162C350.308 173.191 348.063 180.976 349.617 189.801C351.087 198.719 355.637 205.329 359.891 204.918L363.687 204.264L363.677 204.086C366.564 203.126 368.378 198.838 368.609 193.302C368.708 191.871 368.63 190.45 368.542 188.851C368.503 188.14 368.464 187.429 368.248 186.728L368.238 186.551C367.594 182.933 366.52 179.606 365.046 177.104C362.99 173.742 360.554 171.559 358.235 171.508Z" stroke="black" stroke-miterlimit="10"/>
<path d="M302.338 220.726C305.487 221.409 309.152 218.041 311.528 212.646L297.357 209.574C297.343 215.481 299.189 220.043 302.338 220.726Z" fill="#FFA340"/>
<path d="M297.649 205.073L313.057 208.373C313.284 207.699 313.511 207.024 313.569 206.293L297.991 202.936C297.933 203.667 297.763 204.455 297.649 205.073Z" fill="#FFA340"/>
<path d="M299.186 220.136L302.997 220.964L310.078 188.386L306.267 187.557L299.186 220.136Z" fill="#FFA340"/>
<path d="M309.336 188.165C306.805 187.596 303.931 189.728 301.559 193.435L314.156 196.166C313.716 191.889 311.979 188.678 309.336 188.165Z" fill="#FFA340"/>
<path d="M297.357 209.574L311.528 212.646C312.15 211.353 312.604 210.004 313.114 208.486L297.705 205.186C297.42 206.592 297.36 208.167 297.357 209.574Z" fill="#FFB96E"/>
<path d="M298.048 202.767L297.991 202.936L313.569 206.293L313.625 206.124C314.365 202.525 314.599 199.037 314.156 196.166L301.559 193.435C300.146 195.964 298.901 199.112 298.048 202.767Z" fill="#FFB96E"/>
<path d="M307.143 187.71C311.417 188.676 313.311 196.727 311.432 205.669C309.442 214.666 304.419 221.237 300.145 220.271C295.871 219.304 293.977 211.254 295.855 202.312C297.677 193.257 302.756 186.799 307.143 187.71Z" fill="#E0821B"/>
<path d="M306.524 187.596C310.798 188.562 312.692 196.613 310.814 205.555C308.823 214.552 303.8 221.123 299.526 220.157C295.252 219.19 293.358 211.14 295.236 202.198C297.171 193.087 302.25 186.629 306.524 187.596Z" fill="#FCCA4C"/>
<path d="M305.785 190.914C309.103 191.653 310.55 197.958 308.958 205.213C307.422 212.299 303.47 217.634 300.153 216.895C296.835 216.156 295.387 209.85 296.979 202.596C298.572 195.342 302.467 190.174 305.785 190.914Z" fill="#FFE066"/>
<path d="M310.123 188.336L306.636 187.54L306.355 187.539C302.137 186.966 297.17 193.369 295.349 202.142C293.415 210.971 295.197 218.796 299.301 219.987L303.069 220.784L303.126 220.615C306.164 220.791 309.435 217.48 311.697 212.421C312.319 211.128 312.773 209.779 313.283 208.261C313.509 207.587 313.736 206.912 313.794 206.181L313.851 206.012C314.591 202.413 314.824 198.925 314.381 196.054C313.715 192.17 312.259 189.241 310.123 188.336Z" stroke="black" stroke-miterlimit="10"/>
<path d="M273.796 447.493C276.312 439.566 284.742 435.163 292.668 437.679C300.594 440.195 304.998 448.625 302.481 456.551C299.965 464.477 291.536 468.881 283.609 466.364C275.809 463.848 271.406 455.419 273.796 447.493Z" fill="#E0821B"/>
<path d="M274.551 447.744C276.941 440.196 284.993 436.044 292.416 438.308C299.965 440.699 304.117 448.751 301.852 456.174C299.462 463.722 291.41 467.874 283.987 465.61C276.564 463.345 272.16 455.167 274.551 447.744Z" fill="#FCCA4C"/>
<path d="M277.319 448.625C279.206 442.586 285.622 439.315 291.535 441.202C297.574 443.089 300.846 449.506 298.958 455.419C297.071 461.458 290.655 464.729 284.742 462.842C278.828 460.955 275.431 454.538 277.319 448.625Z" fill="#FFE066"/>
<g opacity="0.23">
<g opacity="0.23">
<path opacity="0.23" d="M273.67 447.996L279.583 464.226C280.841 465.106 282.225 465.735 283.735 466.239C283.861 466.239 283.986 466.365 284.112 466.365L275.809 443.467C274.928 444.725 274.299 445.983 273.921 447.493C273.796 447.618 273.67 447.87 273.67 447.996Z" fill="#FFE066"/>
</g>
</g>
<g opacity="0.23">
<g opacity="0.23">
<path opacity="0.23" d="M298.707 462.716L289.397 437.05C286.755 436.798 284.238 437.302 281.848 438.434L292.039 466.616C294.555 465.735 296.945 464.477 298.707 462.716Z" fill="#FFE066"/>
</g>
</g>
<path d="M279.583 464.226C279.583 464.351 279.583 464.351 279.583 464.226C280.086 464.603 280.716 464.98 281.345 465.232C281.47 465.358 281.596 465.358 281.722 465.484C282.351 465.735 282.98 465.987 283.609 466.239C283.735 466.239 283.861 466.364 283.987 466.364C286.755 467.119 289.397 467.119 292.039 466.364C293.171 465.987 294.303 465.61 295.436 464.98C295.561 464.98 295.687 464.855 295.687 464.855C296.065 464.603 296.568 464.351 296.945 463.974C297.071 463.848 297.071 463.848 297.197 463.722C297.7 463.345 298.078 462.967 298.581 462.59C300.342 460.954 301.6 458.816 302.355 456.425C304.872 448.499 300.468 440.07 292.542 437.553C291.41 437.176 290.403 437.05 289.271 436.924C289.145 436.924 289.145 436.924 289.019 436.924C288.516 436.924 288.013 436.924 287.509 436.924C287.384 436.924 287.258 436.924 287.132 436.924C286.629 436.924 286.125 437.05 285.622 437.05C285.496 437.05 285.496 437.05 285.371 437.05C284.742 437.176 284.238 437.302 283.609 437.427L283.483 437.427C282.98 437.553 282.477 437.805 281.974 438.057C281.974 438.057 281.848 438.057 281.848 438.182C278.828 439.566 276.312 441.957 274.676 445.102C274.551 445.228 274.551 445.354 274.425 445.479C274.173 446.109 273.922 446.738 273.67 447.367C273.67 447.618 273.544 447.744 273.544 447.996C272.034 454.286 274.551 460.703 279.583 464.226Z" stroke="black" stroke-miterlimit="10"/>
<path d="M230.517 408.566C226.491 412.467 228.253 416.618 229.259 418.38C227.498 417.247 223.472 415.36 219.446 419.261C214.036 424.419 221.585 434.106 232.153 432.471C238.192 431.59 241.211 432.093 242.721 432.597C242.847 432.722 242.973 432.722 243.099 432.848C243.099 432.722 242.973 432.597 242.973 432.471C242.469 430.961 242.092 427.816 243.224 421.903C245.237 411.334 235.801 403.534 230.517 408.566Z" fill="#EF1818"/>
<path d="M230.517 408.566C226.491 412.467 228.253 416.618 229.259 418.38C227.498 417.247 223.472 415.36 219.446 419.261C214.036 424.419 221.585 434.106 232.153 432.471C238.192 431.59 241.211 432.093 242.721 432.597C242.847 432.722 242.973 432.722 243.099 432.848C243.099 432.722 242.973 432.597 242.973 432.471C242.469 430.961 242.092 427.816 243.224 421.903C245.237 411.334 235.801 403.534 230.517 408.566Z" stroke="black" stroke-miterlimit="10"/>
<path d="M156.687 442.731C159.203 434.805 167.633 430.401 175.559 432.918C183.485 435.434 187.888 443.863 185.372 451.789C182.856 459.716 174.426 464.119 166.5 461.603C158.7 459.087 154.296 450.657 156.687 442.731Z" fill="#E0821B"/>
<path d="M157.442 442.983C159.832 435.434 167.884 431.282 175.307 433.547C182.856 435.937 187.008 443.989 184.743 451.412C182.352 458.961 174.3 463.113 166.877 460.848C159.455 458.583 155.051 450.406 157.442 442.983Z" fill="#FCCA4C"/>
<path d="M160.209 443.863C162.097 437.824 168.513 434.553 174.426 436.44C180.465 438.328 183.736 444.744 181.849 450.657C179.962 456.696 173.546 459.967 167.632 458.08C161.719 456.193 158.322 449.776 160.209 443.863Z" fill="#FFE066"/>
<g opacity="0.23">
<g opacity="0.23">
<path opacity="0.23" d="M156.561 443.234L162.474 459.464C163.732 460.345 165.116 460.974 166.626 461.477C166.752 461.477 166.877 461.603 167.003 461.603L158.7 438.705C157.819 439.963 157.19 441.221 156.812 442.731C156.687 442.857 156.561 443.108 156.561 443.234Z" fill="#FFE066"/>
</g>
</g>
<g opacity="0.23">
<g opacity="0.23">
<path opacity="0.23" d="M181.598 457.954L172.287 432.288C169.645 432.037 167.129 432.54 164.739 433.672L174.93 461.854C177.446 460.974 179.836 459.716 181.598 457.954Z" fill="#FFE066"/>
</g>
</g>
<path d="M162.474 459.464C162.474 459.59 162.474 459.59 162.474 459.464C162.977 459.841 163.606 460.219 164.235 460.47C164.361 460.596 164.487 460.596 164.613 460.722C165.242 460.974 165.871 461.225 166.5 461.477C166.626 461.477 166.752 461.603 166.878 461.603C169.645 462.358 172.288 462.358 174.93 461.603C176.062 461.225 177.194 460.848 178.326 460.219C178.452 460.219 178.578 460.093 178.578 460.093C178.956 459.841 179.459 459.59 179.836 459.212C179.962 459.086 179.962 459.087 180.088 458.961C180.591 458.583 180.969 458.206 181.472 457.828C183.233 456.193 184.491 454.054 185.246 451.664C187.762 443.737 183.359 435.308 175.433 432.792C174.3 432.414 173.294 432.288 172.162 432.163C172.036 432.163 172.036 432.163 171.91 432.163C171.407 432.163 170.904 432.163 170.4 432.163C170.274 432.163 170.149 432.163 170.023 432.163C169.52 432.163 169.016 432.288 168.513 432.288C168.387 432.288 168.387 432.288 168.261 432.288C167.632 432.414 167.129 432.54 166.5 432.666L166.374 432.666C165.871 432.792 165.368 433.043 164.865 433.295C164.865 433.295 164.739 433.295 164.739 433.421C161.719 434.805 159.203 437.195 157.567 440.34C157.442 440.466 157.442 440.592 157.316 440.718C157.064 441.347 156.812 441.976 156.561 442.605C156.561 442.857 156.435 442.982 156.435 443.234C154.925 449.525 157.442 455.941 162.474 459.464Z" stroke="black" stroke-miterlimit="10"/>
<path d="M47.9253 31.7611C43.1444 28.8674 39.6217 31.6353 38.1119 33.1451C38.741 31.1321 39.4959 26.7286 34.715 23.8349C28.2985 20.0605 21.0014 29.7481 25.279 39.5615C27.6695 45.0973 28.0469 48.2426 27.9211 49.7524C27.9211 49.8782 27.9211 50.1298 27.7953 50.2556C27.9211 50.1298 28.047 50.1297 28.1728 50.0039C29.5567 49.1232 32.3245 47.9909 38.4894 47.4877C49.0576 46.607 54.3418 35.5355 47.9253 31.7611Z" fill="#EF1818"/>
<path d="M38.4894 47.4877C49.1835 46.7328 54.3418 35.5355 47.9253 31.7611C43.1444 28.8674 39.6217 31.6353 38.1119 33.1451C38.741 31.1321 39.4959 26.7286 34.715 23.8349C28.2985 20.0605 21.0014 29.7481 25.279 39.5615C27.6695 45.0973 28.0469 48.2426 27.9211 49.7524C27.9211 49.8782 27.9211 50.1298 27.7953 50.2556C27.9211 50.1298 28.047 50.1297 28.1728 50.0039C29.5567 48.9974 32.4503 47.8651 38.4894 47.4877Z" stroke="black" stroke-miterlimit="10"/>
<path d="M162.823 46.3615C163.829 43.2162 160.81 39.316 155.651 36.4224L151.122 50.2618C157.161 50.8908 161.816 49.5068 162.823 46.3615Z" fill="#FFA340"/>
<path d="M146.844 49.5068L151.751 34.5351C151.122 34.2835 150.367 34.0318 149.738 33.7802L144.831 49.0036C145.46 49.1294 146.089 49.2552 146.844 49.5068Z" fill="#FFA340"/>
<path d="M161.878 49.4622L163.08 45.7515L131.36 35.4793L130.158 39.19L161.878 49.4622Z" fill="#FFA340"/>
<path d="M131.118 36.1707C130.363 38.6869 132.124 41.7064 135.647 44.3485L139.547 32.1447C135.27 32.1447 131.999 33.6544 131.118 36.1707Z" fill="#FFA340"/>
<path d="M151.248 50.2617L155.777 36.4222C154.519 35.6674 153.135 35.0383 151.751 34.5351L146.845 49.5067C148.354 49.8842 149.864 50.1358 151.248 50.2617Z" fill="#FFB96E"/>
<path d="M144.58 48.8777C144.706 48.8777 144.706 48.8777 144.832 48.8777L149.738 33.6544C149.612 33.6544 149.613 33.6544 149.487 33.5286C145.964 32.3963 142.567 31.8931 139.673 32.0189L135.773 44.2227C137.912 46.1098 141.057 47.7454 144.58 48.8777Z" fill="#FFB96E"/>
<path d="M130.363 38.3095C131.747 34.1577 139.925 33.0254 148.732 35.7933C157.538 38.6869 163.452 44.3485 162.068 48.5003C160.684 52.6521 152.506 53.7845 143.699 51.0166C135.018 48.2487 129.105 42.5871 130.363 38.3095Z" fill="#E0821B"/>
<path d="M130.237 38.9386C131.621 34.7868 139.799 33.6544 148.606 36.4223C157.413 39.316 163.326 44.9776 161.942 49.1294C160.558 53.2812 152.38 54.4135 143.574 51.6456C134.892 48.8778 128.853 43.0904 130.237 38.9386Z" fill="#FCCA4C"/>
<path d="M133.508 39.945C134.515 36.6739 141.057 35.919 147.977 38.1836C154.897 40.4482 159.677 44.8517 158.671 48.1228C157.664 51.394 151.122 52.1488 144.202 49.8842C137.283 47.6195 132.376 43.2161 133.508 39.945Z" fill="#FFE066"/>
<path d="M143.574 51.6456C152.129 54.4135 160.181 53.407 161.816 49.5068L162.823 46.3614L163.074 45.7324C163.452 42.7129 160.558 39.1902 155.777 36.4223C154.519 35.6674 153.135 35.0383 151.751 34.5351C151.122 34.2834 150.367 34.0318 149.738 33.7802C149.612 33.7802 149.613 33.7802 149.487 33.6544C145.964 32.5221 142.567 32.0188 139.673 32.1446C135.647 32.2704 132.628 33.4027 131.495 35.5416L131.37 35.5416L131.118 36.1706L130.363 38.4352L130.237 39.0643L130.112 39.3159C129.105 43.342 135.018 48.8777 143.574 51.6456Z" stroke="black" stroke-miterlimit="10"/>
<path d="M36.3587 119.286C38.1201 121.928 43.1527 122.054 48.5626 119.789L40.3848 107.711C36.3588 111.989 34.5974 116.518 36.3587 119.286Z" fill="#FFA340"/>
<path d="M43.7816 104.692L52.5885 117.776C53.2176 117.399 53.8466 117.021 54.4757 116.644L45.5429 103.433C44.9139 103.811 44.4107 104.314 43.7816 104.692Z" fill="#FFA340"/>
<path d="M62.2913 97.9539L34.6721 116.631L36.857 119.862L64.4762 101.185L62.2913 97.9539Z" fill="#FFA340"/>
<path d="M64.0375 100.54C62.5277 98.4007 59.005 97.8975 54.8531 99.0299L62.0245 109.724C64.5408 106.201 65.4214 102.804 64.0375 100.54Z" fill="#FFA340"/>
<path d="M40.5106 107.711L48.6885 119.789C49.9466 119.286 51.3305 118.531 52.7145 117.776L43.9076 104.692C42.5236 105.698 41.5171 106.705 40.5106 107.711Z" fill="#FFB96E"/>
<path d="M45.6689 103.308L45.5431 103.433L54.4758 116.644L54.6016 116.518C57.6211 114.505 60.1374 112.115 61.8988 109.724L54.7275 99.03C51.9596 99.7848 48.8143 101.295 45.6689 103.308Z" fill="#FFB96E"/>
<path d="M62.6536 98.6524C65.1699 102.301 60.8922 109.472 53.3434 114.631C45.6688 119.789 37.491 121.047 35.1006 117.399C32.5843 113.75 36.862 106.579 44.4107 101.42C51.9595 96.262 60.1373 95.0039 62.6536 98.6524Z" fill="#E0821B"/>
<path d="M62.2762 98.1491C64.7924 101.798 60.5147 108.969 52.966 114.127C45.2914 119.286 37.1136 120.544 34.7231 116.895C32.2069 113.247 36.4845 106.075 44.0333 100.917C51.7079 95.7587 59.8857 94.5006 62.2762 98.1491Z" fill="#FCCA4C"/>
<path d="M59.5083 100.036C61.3954 102.804 57.9985 108.466 51.9595 112.492C45.9205 116.644 39.3782 117.65 37.491 114.882C35.6038 112.114 39.0008 106.453 45.0398 102.427C51.2046 98.275 57.6211 97.2685 59.5083 100.036Z" fill="#FFE066"/>
<path d="M44.0342 100.917C36.6112 105.95 32.4594 112.869 34.5982 116.644L36.3595 119.286L36.737 119.789H36.8628C39.0016 121.928 43.5309 121.928 48.6892 119.789C49.9473 119.286 51.3313 118.531 52.7152 117.776C53.3443 117.399 53.9733 117.021 54.6024 116.644L54.7283 116.518C57.7478 114.505 60.264 112.114 62.0254 109.724C64.4158 106.453 65.2965 103.307 64.4158 101.169H64.5416L64.1642 100.665L62.7802 98.6524L62.4028 98.1492L62.277 97.8975C59.5091 94.5006 51.4571 95.7587 44.0342 100.917Z" stroke="black" stroke-miterlimit="10"/>
<path d="M317.564 371.421C320.497 369.972 321.139 365.024 319.591 359.334L306.666 365.925C310.379 370.664 314.726 372.953 317.564 371.421Z" fill="#FFA340"/>
<path d="M304.103 362.355L318.152 355.241C317.843 354.638 317.617 353.94 317.214 353.254L303 360.558C303.391 361.066 303.7 361.669 304.103 362.355Z" fill="#FFA340"/>
<path d="M318.161 371.279L303.056 341.555L299.579 343.322L314.683 373.046L318.161 371.279Z" fill="#FFA340"/>
<path d="M302.518 341.775C300.188 342.916 299.271 346.456 299.835 350.787L311.293 344.92C308.14 341.837 304.848 340.635 302.518 341.775Z" fill="#FFA340"/>
<path d="M306.584 366.019L319.508 359.428C319.151 358.115 318.604 356.637 318.057 355.158L304.009 362.272C304.816 363.643 305.706 364.92 306.584 366.019Z" fill="#FFB96E"/>
<path d="M302.893 360.297C302.988 360.38 302.988 360.38 303 360.557L317.214 353.254C317.119 353.171 317.119 353.171 317.107 352.994C315.456 349.718 313.392 346.917 311.294 344.92L299.835 350.787C300.207 353.615 301.242 357.021 302.893 360.297Z" fill="#FFB96E"/>
<path d="M300.366 342.903C304.245 340.944 310.917 345.927 315.05 354.205C319.265 362.388 319.386 370.672 315.507 372.632C311.628 374.591 304.956 369.608 300.824 361.33C296.691 353.052 296.487 344.863 300.366 342.903Z" fill="#E0821B"/>
<path d="M299.845 343.117C303.724 341.158 310.396 346.141 314.529 354.419C318.745 362.602 318.865 370.886 314.987 372.846C311.108 374.805 304.436 369.822 300.303 361.544C296.087 353.361 295.967 345.077 299.845 343.117Z" fill="#FCCA4C"/>
<path d="M301.389 346.133C304.405 344.589 309.584 348.604 312.885 355.155C316.187 361.707 316.363 368.204 313.348 369.748C310.333 371.291 305.154 367.276 301.852 360.725C298.551 354.174 298.374 347.676 301.389 346.133Z" fill="#FFE066"/>
<path d="M319.591 359.334C319.234 358.02 318.687 356.542 318.14 355.064C317.831 354.46 317.605 353.762 317.202 353.077C317.107 352.994 317.107 352.994 317.095 352.817C315.444 349.541 313.38 346.739 311.281 344.743C308.33 342.002 305.38 340.599 303.026 341.384L302.932 341.301L302.328 341.61L299.656 342.952L299.396 343.059C295.802 345.266 295.993 353.279 300.113 361.379C304.139 369.397 310.539 374.309 314.442 372.705L317.375 371.256L317.978 370.947L317.883 370.864C320.543 369.345 321.033 364.764 319.591 359.334Z" stroke="black" stroke-miterlimit="10"/>
<path d="M54.5835 382.421C57.5162 380.972 58.1587 376.024 56.6104 370.334L43.6854 376.925C47.398 381.664 51.7456 383.953 54.5835 382.421Z" fill="#FFA340"/>
<path d="M41.1227 373.355L55.1711 366.241C54.8624 365.638 54.6363 364.94 54.2327 364.254L40.0189 371.558C40.4104 372.066 40.7191 372.669 41.1227 373.355Z" fill="#FFA340"/>
<path d="M55.1797 382.279L40.0748 352.555L36.5977 354.322L51.7026 384.046L55.1797 382.279Z" fill="#FFA340"/>
<path d="M39.5372 352.775C37.2076 353.916 36.2905 357.456 36.8541 361.787L48.3127 355.92C45.1592 352.837 41.8669 351.635 39.5372 352.775Z" fill="#FFA340"/>
<path d="M43.6028 377.019L56.5277 370.428C56.1704 369.115 55.6235 367.637 55.0766 366.158L41.0281 373.272C41.8353 374.643 42.7251 375.92 43.6028 377.019Z" fill="#FFB96E"/>
<path d="M39.9123 371.297C40.0071 371.38 40.0071 371.38 40.0192 371.557L54.233 364.254C54.1382 364.171 54.1382 364.171 54.1261 363.994C52.4753 360.718 50.4112 357.917 48.3129 355.92L36.8543 361.786C37.226 364.615 38.2616 368.021 39.9123 371.297Z" fill="#FFB96E"/>
<path d="M37.3853 353.903C41.264 351.944 47.9359 356.927 52.0688 365.205C56.2844 373.388 56.405 381.672 52.5263 383.632C48.6476 385.591 41.9757 380.608 37.8428 372.33C33.7099 364.052 33.5066 355.863 37.3853 353.903Z" fill="#E0821B"/>
<path d="M36.8646 354.117C40.7433 352.158 47.4153 357.141 51.5481 365.419C55.7637 373.602 55.8844 381.886 52.0057 383.846C48.127 385.805 41.4551 380.822 37.3222 372.544C33.1066 364.361 32.9859 356.077 36.8646 354.117Z" fill="#FCCA4C"/>
<path d="M38.4085 357.133C41.4239 355.589 46.6029 359.604 49.9044 366.155C53.2058 372.707 53.3826 379.204 50.3672 380.748C47.3518 382.291 42.1728 378.276 38.8714 371.725C35.5699 365.174 35.3931 358.676 38.4085 357.133Z" fill="#FFE066"/>
<path d="M56.6103 370.334C56.253 369.02 55.7061 367.542 55.1591 366.063C54.8504 365.46 54.6243 364.762 54.2207 364.077C54.1259 363.994 54.1259 363.994 54.1138 363.817C52.463 360.541 50.3989 357.739 48.3006 355.743C45.3488 353.002 42.3994 351.599 40.0455 352.384L39.9507 352.301L39.3476 352.61L36.675 353.952L36.4149 354.059C32.8207 356.266 33.0119 364.279 37.1326 372.379C41.1586 380.397 47.5581 385.309 51.4611 383.705L54.3938 382.256L54.9969 381.947L54.9021 381.864C57.5625 380.345 58.0517 375.764 56.6103 370.334Z" stroke="black" stroke-miterlimit="10"/>
<path d="M95.5558 161.546C100.462 158.779 99.8334 154.375 99.2043 152.362C100.588 153.872 104.111 156.766 108.892 153.998C115.308 150.349 110.527 139.152 99.8334 138.02C93.7943 137.39 91.0265 136.132 89.6426 135.252C89.5167 135.126 89.3909 135 89.2651 135C89.2651 135.126 89.2651 135.252 89.2651 135.503C89.3909 137.139 89.0135 140.158 86.3715 145.694C81.968 155.256 89.0135 165.195 95.5558 161.546Z" fill="#EF1818"/>
<path d="M372.958 76.5496C370.442 84.4758 362.012 88.8792 354.086 86.363C346.16 83.8467 341.756 75.4172 344.273 67.491C346.789 59.5648 355.218 55.1614 363.145 57.6776C370.945 60.1939 375.348 68.6234 372.958 76.5496Z" fill="#E0821B"/>
<path d="M372.203 76.4238C369.813 83.9726 361.761 88.1244 354.338 85.8597C346.789 83.4693 342.637 75.4173 344.902 67.9943C347.292 60.4455 355.344 56.2937 362.767 58.5583C370.19 60.823 374.593 68.875 372.203 76.4238Z" fill="#FCCA4C"/>
<path d="M369.435 75.543C367.548 81.582 361.131 84.8532 355.218 82.966C349.179 81.0788 345.908 74.6624 347.795 68.7492C349.682 62.7101 356.099 59.439 362.012 61.3262C367.925 63.2134 371.196 69.504 369.435 75.543Z" fill="#FFE066"/>
<g opacity="0.23">
<g opacity="0.23">
<path opacity="0.23" d="M373.084 76.0464L367.171 59.8165C365.913 58.9358 364.529 58.3068 363.019 57.8036C362.893 57.8036 362.767 57.6778 362.641 57.6778L370.945 80.7015C371.826 79.4434 372.455 78.1852 372.832 76.6755C372.958 76.4239 372.958 76.1722 373.084 76.0464Z" fill="#FFE066"/>
</g>
</g>
<g opacity="0.23">
<g opacity="0.23">
<path opacity="0.23" d="M348.047 61.3262L357.357 86.9921C359.999 87.2437 362.515 86.7404 364.906 85.6081L354.715 57.4261C352.073 58.3067 349.808 59.5648 348.047 61.3262Z" fill="#FFE066"/>
</g>
</g>
<path d="M367.171 59.8164C367.171 59.6906 367.171 59.6906 367.171 59.8164C366.667 59.439 366.038 59.0616 365.409 58.81C365.283 58.6841 365.158 58.6841 365.032 58.5583C364.403 58.3067 363.774 58.0551 363.145 57.8035C363.019 57.8035 362.893 57.6777 362.767 57.6777C359.999 56.9228 357.357 56.9228 354.715 57.6777C353.583 58.0551 352.45 58.4325 351.318 59.0616C351.192 59.0616 351.066 59.1874 351.066 59.1874C350.689 59.439 350.186 59.6906 349.808 60.0681C349.682 60.1939 349.683 60.1939 349.557 60.3197C349.053 60.6972 348.676 61.0746 348.173 61.4521C346.411 63.0876 345.153 65.2264 344.398 67.6169C341.882 75.5431 346.286 83.9725 354.212 86.4888C355.344 86.8662 356.351 86.992 357.483 87.1178C357.609 87.1178 357.609 87.1178 357.735 87.1178C358.238 87.1178 358.741 87.1178 359.244 87.1178C359.37 87.1178 359.496 87.1178 359.622 87.1178C360.125 87.1178 360.628 86.9921 361.131 86.9921C361.257 86.9921 361.257 86.9921 361.383 86.9921C362.012 86.8662 362.515 86.7404 363.145 86.6146H363.27C363.774 86.4888 364.277 86.2372 364.78 85.9856C364.78 85.9856 364.906 85.9855 364.906 85.8597C367.925 84.4758 370.442 82.0853 372.077 78.94C372.203 78.8142 372.203 78.6884 372.329 78.5626C372.58 77.9335 372.832 77.3045 373.084 76.6754C373.084 76.4238 373.21 76.298 373.21 76.0463C374.719 69.7557 372.203 63.3392 367.171 59.8164Z" stroke="black" stroke-miterlimit="10"/>
<path d="M66.9842 317.282C71.0102 313.382 69.2488 309.23 68.2423 307.468C70.0037 308.601 74.0297 310.488 78.0557 306.588C83.4657 301.429 75.9169 291.742 65.3487 293.377C59.3097 294.258 56.2901 293.755 54.7804 293.252C54.6545 293.126 54.5287 293.126 54.4029 293C54.4029 293.126 54.5287 293.252 54.5287 293.377C55.032 294.887 55.4094 298.033 54.2771 303.946C52.2641 314.514 61.7001 322.314 66.9842 317.282Z" fill="#EF1818"/>
<path d="M66.9842 317.282C71.0102 313.382 69.2488 309.23 68.2423 307.468C70.0037 308.601 74.0297 310.488 78.0557 306.588C83.4657 301.429 75.9169 291.742 65.3487 293.377C59.3097 294.258 56.2901 293.755 54.7804 293.252C54.6545 293.126 54.5287 293.126 54.4029 293C54.4029 293.126 54.5287 293.252 54.5287 293.377C55.032 294.887 55.4094 298.033 54.2771 303.946C52.2641 314.514 61.7001 322.314 66.9842 317.282Z" stroke="black" stroke-miterlimit="10"/>
<path d="M55.3658 485.795C58.3853 487.053 62.5371 484.285 65.8082 479.379L52.3462 473.969C51.2139 479.882 52.3463 484.663 55.3658 485.795Z" fill="#FFA340"/>
<path d="M53.3527 469.691L67.947 475.604C68.1986 474.975 68.576 474.346 68.8276 473.591L53.9817 467.678C53.8559 468.307 53.6043 468.936 53.3527 469.691Z" fill="#FFA340"/>
<path d="M55.8651 486.151L68.3411 455.231L64.724 453.772L52.2481 484.691L55.8651 486.151Z" fill="#FFA340"/>
<path d="M67.8212 454.971C65.4308 453.964 62.1597 455.6 59.266 458.871L71.2182 463.652C71.4698 459.248 70.2117 455.977 67.8212 454.971Z" fill="#FFA340"/>
<path d="M52.2203 473.969L65.6822 479.379C66.4371 478.246 67.192 476.862 67.9469 475.478L53.3526 469.565C52.8493 471.075 52.4719 472.585 52.2203 473.969Z" fill="#FFB96E"/>
<path d="M54.1077 467.426C54.1077 467.552 54.1077 467.552 53.9819 467.678L68.8278 473.591C68.8278 473.465 68.8278 473.465 68.9536 473.34C70.3376 469.943 71.0924 466.546 71.2183 463.652L59.266 458.871C57.3789 461.01 55.4917 464.029 54.1077 467.426Z" fill="#FFB96E"/>
<path d="M65.5566 454.09C69.5826 455.726 70.2117 464.029 66.6889 472.585C63.292 481.14 57.1271 486.676 53.1011 485.04C49.0751 483.405 48.4461 475.101 51.9688 466.546C55.4916 457.99 61.5306 452.455 65.5566 454.09Z" fill="#E0821B"/>
<path d="M65.0533 453.838C69.0793 455.474 69.7084 463.778 66.1856 472.333C62.7887 480.888 56.6239 486.424 52.5979 484.788C48.5719 483.153 47.9428 474.849 51.4655 466.294C54.8625 457.739 61.0273 452.203 65.0533 453.838Z" fill="#FCCA4C"/>
<path d="M63.7952 456.984C66.9405 458.242 67.318 464.784 64.5501 471.578C61.7822 478.372 57.0014 482.776 53.856 481.517C50.7107 480.259 50.3332 473.717 53.1011 466.923C55.869 460.129 60.6499 455.726 63.7952 456.984Z" fill="#FFE066"/>
<path d="M65.8083 479.379C66.5631 478.246 67.318 476.862 68.0729 475.478C68.3245 474.849 68.702 474.22 68.9536 473.465C68.9536 473.339 68.9536 473.34 69.0794 473.214C70.4633 469.817 71.2182 466.42 71.344 463.526C71.4698 459.5 70.5891 456.355 68.4503 455.097L68.4503 454.971L67.8212 454.719L65.0533 453.587L64.8018 453.461C60.7758 452.203 54.8625 457.613 51.4656 466.042C48.0686 474.346 48.5719 482.398 52.3463 484.285L55.3658 485.543L55.9949 485.795L55.9949 485.669C58.8886 486.676 62.6629 484.034 65.8083 479.379Z" stroke="black" stroke-miterlimit="10"/>
<path d="M295.209 46.4955C293.448 43.8535 288.415 43.7276 283.005 45.9923L291.183 58.0703C295.209 53.7927 296.971 49.2634 295.209 46.4955Z" fill="#FFA340"/>
<path d="M287.786 61.0897L278.979 48.0052C278.35 48.3827 277.721 48.7601 277.092 49.1375L286.025 62.3479C286.654 61.9704 287.157 61.4672 287.786 61.0897Z" fill="#FFA340"/>
<path d="M269.277 67.8274L296.896 49.1501L294.711 45.9192L267.092 64.5965L269.277 67.8274Z" fill="#FFA340"/>
<path d="M267.531 65.2417C269.04 67.3805 272.563 67.8837 276.715 66.7514L269.543 56.0573C267.027 59.5801 266.147 62.9771 267.531 65.2417Z" fill="#FFA340"/>
<path d="M291.057 58.0703L282.88 45.9922C281.621 46.4954 280.237 47.2504 278.854 48.0052L287.66 61.0897C289.044 60.0832 290.051 59.0768 291.057 58.0703Z" fill="#FFB96E"/>
<path d="M285.899 62.4737L286.025 62.3479L277.092 49.1375L276.966 49.2634C273.947 51.2764 271.431 53.6668 269.669 56.0572L276.841 66.7513C279.608 65.9964 282.754 64.4867 285.899 62.4737Z" fill="#FFB96E"/>
<path d="M268.914 67.1289C266.398 63.4803 270.676 56.3089 278.224 51.1506C285.899 45.9923 294.077 44.7341 296.467 48.3827C298.984 52.0313 294.706 59.2026 287.157 64.361C279.608 69.5193 271.431 70.7774 268.914 67.1289Z" fill="#E0821B"/>
<path d="M269.292 67.6321C266.775 63.9836 271.053 56.8122 278.602 51.6539C286.276 46.4956 294.454 45.2375 296.845 48.8861C299.361 52.5346 295.083 59.7059 287.535 64.8642C279.86 70.0226 271.682 71.2807 269.292 67.6321Z" fill="#FCCA4C"/>
<path d="M272.06 65.7449C270.173 62.977 273.569 57.3155 279.609 53.2894C285.648 49.1376 292.19 48.1311 294.077 50.899C295.964 53.6669 292.567 59.3285 286.528 63.3545C280.363 67.5063 273.947 68.5127 272.06 65.7449Z" fill="#FFE066"/>
<path d="M287.535 64.8642C294.958 59.8317 299.11 52.912 296.971 49.1376L295.209 46.4956L294.832 45.9923L294.706 45.9923C292.567 43.8535 288.038 43.8535 282.88 45.9923C281.622 46.4956 280.238 47.2505 278.854 48.0054C278.225 48.3828 277.596 48.7602 276.967 49.1376L276.841 49.2635C273.821 51.2765 271.305 53.6669 269.544 56.0573C267.153 59.3285 266.272 62.4738 267.153 64.6127L267.027 64.6127L267.405 65.1159L268.789 67.1289L269.166 67.6321L269.292 67.8838C272.06 71.2807 280.112 70.0226 287.535 64.8642Z" stroke="black" stroke-miterlimit="10"/>
<path d="M217.813 322.495C222.594 325.388 226.116 322.62 227.626 321.111C226.997 323.124 226.242 327.527 231.023 330.421C237.44 334.195 244.737 324.507 240.459 314.694C238.069 309.158 237.691 306.013 237.817 304.503C237.817 304.377 237.817 304.126 237.943 304C237.817 304.126 237.691 304.126 237.565 304.252C236.181 305.132 233.414 306.265 227.249 306.768C216.68 307.649 211.396 318.72 217.813 322.495Z" fill="#EF1818"/>
<path d="M37.4133 232.759C42.5716 235.024 45.7169 231.878 46.9751 230.243C46.5976 232.382 46.346 236.785 51.5043 239.05C58.2982 242.069 64.4631 231.501 58.9273 222.317C55.782 217.158 55.1529 214.139 55.1529 212.503C55.1529 212.377 55.1529 212.126 55.1529 212C55.0271 212.126 54.9012 212.252 54.7754 212.377C53.5173 213.51 50.8752 214.894 44.962 216.152C34.3937 218.039 30.6194 229.74 37.4133 232.759Z" fill="#EF1818"/>
<path d="M227.249 306.768C216.555 307.523 211.396 318.72 217.813 322.495C222.594 325.388 226.116 322.62 227.626 321.111C226.997 323.124 226.242 327.527 231.023 330.421C237.44 334.195 244.737 324.507 240.459 314.694C238.069 309.158 237.691 306.013 237.817 304.503C237.817 304.377 237.817 304.126 237.943 304C237.817 304.126 237.691 304.126 237.565 304.252C236.181 305.258 233.288 306.39 227.249 306.768Z" stroke="black" stroke-miterlimit="10"/>
<path d="M36.4133 233.759C41.5716 236.024 44.7169 232.878 45.9751 231.243C45.5976 233.382 45.346 237.785 50.5043 240.05C57.2982 243.069 63.4631 232.501 57.9273 223.317C54.782 218.158 54.1529 215.139 54.1529 213.503C54.1529 213.377 54.1529 213.126 54.1529 213C54.0271 213.126 53.9012 213.252 53.7754 213.377C52.5173 214.51 49.8752 215.894 43.962 217.152C33.3937 219.039 29.6194 230.74 36.4133 233.759Z" stroke="black" stroke-miterlimit="10"/>
<path d="M213.617 29.5592C210.105 33.0283 211.716 36.6012 212.696 38.0793C211.079 37.1028 207.559 35.623 204.048 39.0922C199.345 43.7655 206.126 51.9033 215.472 50.2454C220.775 49.3307 223.441 49.6337 224.848 50.108C224.993 50.1655 225.138 50.2229 225.283 50.2804C225.241 50.18 225.199 50.0795 225.115 49.8786C224.674 48.5299 224.286 45.8616 225.144 40.6694C226.661 31.5472 218.361 24.9863 213.617 29.5592Z" fill="#EF1818"/>
<path d="M93.5458 75.4001C95.5458 69.1001 102.246 65.6001 108.546 67.6001C114.846 69.6001 118.346 76.3 116.346 82.6C114.346 88.9 107.646 92.4001 101.346 90.4001C95.1458 88.4001 91.6458 81.7001 93.5458 75.4001Z" fill="#E0821B"/>
<path d="M94.1457 75.6002C96.0457 69.6002 102.446 66.3002 108.346 68.1002C114.346 70.0002 117.646 76.4001 115.846 82.3001C113.946 88.3001 107.546 91.6001 101.646 89.8001C95.7457 88.0001 92.2457 81.5002 94.1457 75.6002Z" fill="#FCCA4C"/>
<path d="M96.3458 76.3C97.8458 71.5 102.946 68.9001 107.646 70.4001C112.446 71.9001 115.046 77.0001 113.546 81.7001C112.046 86.5001 106.946 89.1001 102.246 87.6001C97.5458 86.1001 94.8458 81 96.3458 76.3Z" fill="#FFE066"/>
<g opacity="0.23">
<g opacity="0.23">
<path opacity="0.23" d="M93.4457 75.8L98.1458 88.7001C99.1458 89.4001 100.246 89.9001 101.446 90.3001C101.546 90.3001 101.646 90.4001 101.746 90.4001L95.1458 72.2001C94.4458 73.2001 93.9458 74.2001 93.6458 75.4001C93.5458 75.5001 93.4457 75.7 93.4457 75.8Z" fill="#FFE066"/>
</g>
</g>
<g opacity="0.23">
<g opacity="0.23">
<path opacity="0.23" d="M113.346 87.5L105.946 67.1001C103.846 66.9001 101.846 67.3 99.9458 68.2L108.046 90.6C110.046 89.9 111.946 88.9 113.346 87.5Z" fill="#FFE066"/>
</g>
</g>
<path d="M98.1459 88.7C98.1459 88.8 98.1459 88.8 98.1459 88.7C98.5459 89 99.0459 89.3 99.5459 89.5C99.6459 89.6 99.7459 89.6 99.8459 89.7C100.346 89.9 100.846 90.1 101.346 90.3C101.446 90.3 101.546 90.4 101.646 90.4C103.846 91 105.946 91 108.046 90.4C108.946 90.1 109.846 89.8 110.746 89.3C110.846 89.3 110.946 89.2 110.946 89.2C111.246 89 111.646 88.8 111.946 88.5C112.046 88.4 112.046 88.4 112.146 88.3C112.546 88 112.846 87.7 113.246 87.4C114.646 86.1 115.646 84.4 116.246 82.5C118.246 76.2 114.746 69.5 108.446 67.5C107.546 67.2 106.746 67.1 105.846 67C105.746 67 105.746 67 105.646 67C105.246 67 104.846 67 104.446 67C104.346 67 104.246 67 104.146 67C103.746 67 103.346 67.1 102.946 67.1C102.846 67.1 102.846 67.1 102.746 67.1C102.246 67.2 101.846 67.3 101.346 67.4L101.246 67.4C100.846 67.5 100.446 67.7 100.046 67.9C100.046 67.9 99.9459 67.9 99.9459 68C97.5459 69.1 95.5458 71 94.2458 73.5C94.1458 73.6 94.1459 73.7 94.0459 73.8C93.8459 74.3 93.6458 74.8 93.4458 75.3C93.4458 75.5 93.3459 75.6 93.3459 75.8C92.1459 80.8 94.1459 85.9 98.1459 88.7Z" stroke="black" stroke-miterlimit="10"/>
<path d="M277.457 122.7C281.557 121 281.457 117.4 281.157 115.8C282.157 117.2 284.557 119.7 288.657 118C294.157 115.7 291.357 106.4 283.057 104.5C278.357 103.4 276.257 102.2 275.257 101.3C275.157 101.2 275.057 101.1 274.957 101C274.957 101.1 274.957 101.2 274.957 101.4C274.857 102.7 274.257 105.1 271.757 109.2C267.357 116.4 271.957 124.9 277.457 122.7Z" fill="#EF1818"/>
<path d="M316.09 291.613C316.89 289.213 314.59 286.013 310.49 283.613L306.79 294.613C311.49 295.113 315.19 294.013 316.09 291.613Z" fill="#FFA340"/>
<path d="M303.29 293.913L307.29 282.013C306.79 281.813 306.19 281.613 305.69 281.413L301.69 293.413C302.19 293.613 302.69 293.813 303.29 293.913Z" fill="#FFA340"/>
<path d="M315.197 294.006L316.18 291.066L291.047 282.665L290.064 285.606L315.197 294.006Z" fill="#FFA340"/>
<path d="M290.89 283.213C290.19 285.213 291.69 287.613 294.39 289.813L297.59 280.113C294.19 280.113 291.59 281.213 290.89 283.213Z" fill="#FFA340"/>
<path d="M306.79 294.613L310.49 283.613C309.49 283.013 308.49 282.513 307.29 282.013L303.29 293.913C304.49 294.213 305.69 294.513 306.79 294.613Z" fill="#FFB96E"/>
<path d="M301.49 293.413C301.59 293.413 301.59 293.413 301.69 293.413L305.69 281.413C305.59 281.413 305.59 281.413 305.49 281.313C302.69 280.413 299.99 279.913 297.69 280.013L294.49 289.713C296.29 291.213 298.69 292.513 301.49 293.413Z" fill="#FFB96E"/>
<path d="M290.29 285.013C291.39 281.713 297.89 280.913 304.89 283.213C311.79 285.513 316.59 290.113 315.49 293.413C314.39 296.713 307.89 297.513 300.89 295.213C293.89 292.913 289.19 288.313 290.29 285.013Z" fill="#E0821B"/>
<path d="M290.19 285.413C291.29 282.113 297.79 281.313 304.79 283.613C311.69 285.913 316.49 290.513 315.39 293.813C314.29 297.113 307.79 297.913 300.79 295.613C293.79 293.313 289.09 288.813 290.19 285.413Z" fill="#FCCA4C"/>
<path d="M292.69 286.313C293.59 283.713 298.69 283.213 304.19 285.013C309.69 286.813 313.49 290.413 312.59 293.013C311.69 295.613 306.59 296.113 301.09 294.313C295.69 292.413 291.89 288.813 292.69 286.313Z" fill="#FFE066"/>
<path d="M300.69 295.613C307.49 297.913 313.89 297.113 315.19 294.013L315.29 293.813L316.19 291.113C316.59 288.713 314.29 285.913 310.49 283.613C309.49 283.013 308.49 282.513 307.29 282.013C306.79 281.813 306.19 281.613 305.69 281.413C305.59 281.413 305.59 281.413 305.49 281.313C302.69 280.413 299.99 279.913 297.69 280.013C294.49 280.113 292.09 281.013 291.19 282.713L291.09 282.713L290.19 285.413L290.09 285.613C289.29 289.013 293.89 293.413 300.69 295.613Z" stroke="black" stroke-miterlimit="10"/>
</svg>
