<svg width="286" height="286" viewBox="0 0 286 286" fill="none" xmlns="http://www.w3.org/2000/svg">
<rect width="286" height="286" fill="#C4C4C4"/>
<rect width="286" height="286" fill="#202020"/>
<path d="M77.7165 230C77.5332 230 77.3748 229.933 77.2415 229.8C77.1082 229.667 77.0415 229.508 77.0415 229.325V213.175C77.0415 212.992 77.1082 212.833 77.2415 212.7C77.3748 212.567 77.5332 212.5 77.7165 212.5H81.6665C82.1332 212.5 82.4915 212.725 82.7415 213.175L86.3665 219.175L89.9915 213.175C90.2415 212.725 90.5998 212.5 91.0665 212.5H95.0165C95.1998 212.5 95.3582 212.567 95.4915 212.7C95.6248 212.833 95.6915 212.992 95.6915 213.175V229.325C95.6915 229.508 95.6248 229.667 95.4915 229.8C95.3582 229.933 95.1998 230 95.0165 230H90.4915C90.3082 230 90.1498 229.933 90.0165 229.8C89.8832 229.667 89.8165 229.508 89.8165 229.325V222.475L88.1665 225.175C88.0498 225.358 87.9165 225.508 87.7665 225.625C87.6332 225.742 87.4582 225.8 87.2415 225.8H85.4915C85.2748 225.8 85.0915 225.742 84.9415 225.625C84.8082 225.508 84.6832 225.358 84.5665 225.175L82.9165 222.475V229.325C82.9165 229.508 82.8498 229.667 82.7165 229.8C82.5832 229.933 82.4248 230 82.2415 230H77.7165ZM103.503 230C103.319 230 103.161 229.933 103.028 229.8C102.894 229.667 102.828 229.508 102.828 229.325V224.4L97.2026 213.275C97.1693 213.208 97.1526 213.133 97.1526 213.05C97.1526 212.9 97.2026 212.775 97.3026 212.675C97.4193 212.558 97.5526 212.5 97.7026 212.5H102.403C102.686 212.5 102.911 212.575 103.078 212.725C103.261 212.858 103.386 212.992 103.453 213.125L105.953 218.15L108.453 213.125C108.519 212.992 108.636 212.858 108.803 212.725C108.986 212.575 109.219 212.5 109.503 212.5H114.203C114.353 212.5 114.478 212.558 114.578 212.675C114.694 212.775 114.753 212.9 114.753 213.05C114.753 213.133 114.736 213.208 114.703 213.275L109.078 224.4V229.325C109.078 229.508 109.011 229.667 108.878 229.8C108.744 229.933 108.586 230 108.403 230H103.503ZM120.832 230C120.648 230 120.49 229.933 120.357 229.8C120.223 229.667 120.157 229.508 120.157 229.325V213.175C120.157 212.992 120.223 212.833 120.357 212.7C120.49 212.567 120.648 212.5 120.832 212.5H128.407C130.74 212.5 132.573 213.017 133.907 214.05C135.257 215.083 135.932 216.608 135.932 218.625C135.932 220.625 135.265 222.117 133.932 223.1C132.598 224.067 130.757 224.55 128.407 224.55H126.657V229.325C126.657 229.508 126.59 229.667 126.457 229.8C126.323 229.933 126.165 230 125.982 230H120.832ZM128.282 219.925C128.582 219.925 128.848 219.817 129.082 219.6C129.315 219.367 129.432 219.025 129.432 218.575C129.432 218.192 129.34 217.858 129.157 217.575C128.973 217.292 128.682 217.15 128.282 217.15H126.532V219.925H128.282ZM138.459 230C138.275 230 138.117 229.942 137.984 229.825C137.85 229.692 137.784 229.525 137.784 229.325V213.175C137.784 212.992 137.85 212.833 137.984 212.7C138.117 212.567 138.275 212.5 138.459 212.5H143.359C143.542 212.5 143.7 212.567 143.834 212.7C143.967 212.833 144.034 212.992 144.034 213.175V218.425H148.084V213.175C148.084 212.992 148.15 212.833 148.284 212.7C148.417 212.567 148.575 212.5 148.759 212.5H153.659C153.842 212.5 154 212.567 154.134 212.7C154.267 212.833 154.334 212.992 154.334 213.175V229.325C154.334 229.508 154.267 229.667 154.134 229.8C154 229.933 153.842 230 153.659 230H148.759C148.575 230 148.417 229.933 148.284 229.8C148.15 229.667 148.084 229.508 148.084 229.325V223.925H144.034V229.325C144.034 229.508 143.967 229.667 143.834 229.8C143.7 229.933 143.542 230 143.359 230H138.459ZM164.995 230.25C162.495 230.25 160.504 229.675 159.02 228.525C157.537 227.375 156.745 225.7 156.645 223.5C156.629 223.05 156.62 222.325 156.62 221.325C156.62 220.308 156.629 219.567 156.645 219.1C156.695 217.667 157.07 216.433 157.77 215.4C158.487 214.367 159.462 213.583 160.695 213.05C161.929 212.517 163.362 212.25 164.995 212.25C166.629 212.25 168.062 212.517 169.295 213.05C170.529 213.583 171.495 214.367 172.195 215.4C172.912 216.433 173.295 217.667 173.345 219.1C173.379 220.033 173.395 220.775 173.395 221.325C173.395 221.875 173.379 222.6 173.345 223.5C173.245 225.7 172.454 227.375 170.97 228.525C169.487 229.675 167.495 230.25 164.995 230.25ZM164.995 225.375C165.562 225.375 166.004 225.208 166.32 224.875C166.654 224.542 166.829 224.033 166.845 223.35C166.879 222.383 166.895 221.675 166.895 221.225C166.895 220.742 166.879 220.05 166.845 219.15C166.829 218.467 166.654 217.958 166.32 217.625C165.987 217.292 165.545 217.125 164.995 217.125C164.445 217.125 164.004 217.292 163.67 217.625C163.337 217.958 163.162 218.467 163.145 219.15C163.129 219.6 163.12 220.292 163.12 221.225C163.12 222.158 163.129 222.867 163.145 223.35C163.162 224.033 163.329 224.542 163.645 224.875C163.979 225.208 164.429 225.375 164.995 225.375ZM180.029 230C179.846 230 179.687 229.933 179.554 229.8C179.421 229.667 179.354 229.508 179.354 229.325V217.875H175.204C175.021 217.875 174.862 217.808 174.729 217.675C174.596 217.542 174.529 217.383 174.529 217.2V213.175C174.529 212.992 174.596 212.833 174.729 212.7C174.862 212.567 175.021 212.5 175.204 212.5H189.854C190.037 212.5 190.196 212.567 190.329 212.7C190.462 212.833 190.529 212.992 190.529 213.175V217.2C190.529 217.383 190.462 217.542 190.329 217.675C190.196 217.808 190.037 217.875 189.854 217.875H185.704V229.325C185.704 229.508 185.637 229.667 185.504 229.8C185.371 229.933 185.212 230 185.029 230H180.029ZM200.054 230.25C197.554 230.25 195.562 229.675 194.079 228.525C192.595 227.375 191.804 225.7 191.704 223.5C191.687 223.05 191.679 222.325 191.679 221.325C191.679 220.308 191.687 219.567 191.704 219.1C191.754 217.667 192.129 216.433 192.829 215.4C193.545 214.367 194.52 213.583 195.754 213.05C196.987 212.517 198.42 212.25 200.054 212.25C201.687 212.25 203.12 212.517 204.354 213.05C205.587 213.583 206.554 214.367 207.254 215.4C207.97 216.433 208.354 217.667 208.404 219.1C208.437 220.033 208.454 220.775 208.454 221.325C208.454 221.875 208.437 222.6 208.404 223.5C208.304 225.7 207.512 227.375 206.029 228.525C204.545 229.675 202.554 230.25 200.054 230.25ZM200.054 225.375C200.62 225.375 201.062 225.208 201.379 224.875C201.712 224.542 201.887 224.033 201.904 223.35C201.937 222.383 201.954 221.675 201.954 221.225C201.954 220.742 201.937 220.05 201.904 219.15C201.887 218.467 201.712 217.958 201.379 217.625C201.045 217.292 200.604 217.125 200.054 217.125C199.504 217.125 199.062 217.292 198.729 217.625C198.395 217.958 198.22 218.467 198.204 219.15C198.187 219.6 198.179 220.292 198.179 221.225C198.179 222.158 198.187 222.867 198.204 223.35C198.22 224.033 198.387 224.542 198.704 224.875C199.037 225.208 199.487 225.375 200.054 225.375Z" fill="#FAFAFA"/>
<rect x="76" y="57" width="133" height="133" rx="8.86667" fill="#E5F5F9"/>
<rect x="78.2167" y="59.2167" width="128.567" height="128.567" rx="6.65" stroke="black" stroke-width="4.43333"/>
<rect x="91.5168" y="72.5168" width="101.967" height="101.967" rx="6.65" stroke="black" stroke-width="4.43333"/>
<path d="M102.969 135.034H93.7333V168.558C93.7333 171.006 95.7181 172.991 98.1666 172.991H186.833C189.282 172.991 191.267 171.006 191.267 168.558V144.307H182.4L160.233 122.052L145.455 136.888L123.289 114.633L102.969 135.034Z" fill="#91FF31"/>
<path d="M93.7333 134.214H102.969L123.289 113.894L145.455 136.061L160.233 121.283L182.4 143.45H193.483" stroke="black" stroke-width="3.69444" stroke-linejoin="round"/>
<path d="M169.1 121.283C169.1 137.201 156.201 150.1 140.283 150.1C138.271 150.1 136.259 149.884 134.355 149.489C121.276 146.758 111.467 135.153 111.467 121.283C111.467 107.414 121.276 95.8081 134.355 93.0774C136.259 92.6821 138.271 92.4666 140.283 92.4666C156.201 92.4666 169.1 105.366 169.1 121.283Z" fill="#91FF31"/>
<path d="M169.1 121.283C169.1 137.201 156.201 150.1 140.283 150.1C138.271 150.1 136.259 149.884 134.354 149.489C147.433 146.758 157.243 135.153 157.243 121.283C157.243 107.414 147.433 95.8081 134.354 93.0774C136.259 92.6821 138.271 92.4666 140.283 92.4666C156.201 92.4666 169.1 105.366 169.1 121.283Z" fill="#00EA80"/>
<path d="M140.283 138.027C141.756 138.027 142.978 136.805 142.978 135.332V113.738L150.631 121.391C151.673 122.433 153.398 122.433 154.44 121.391C155.482 120.349 155.482 118.624 154.44 117.582L142.187 105.33C141.684 104.827 141.002 104.539 140.283 104.539C139.564 104.539 138.882 104.827 138.379 105.33L126.126 117.582C125.084 118.624 125.084 120.349 126.126 121.391C126.665 121.93 127.348 122.181 128.031 122.181C128.713 122.181 129.396 121.93 129.935 121.391L137.588 113.738V135.332C137.588 136.805 138.81 138.027 140.283 138.027Z" fill="black"/>
<circle cx="140.283" cy="121.283" r="26.6" stroke="black" stroke-width="4.43333"/>
<circle cx="162.45" cy="103.55" r="7.67308" fill="#FFEB31"/>
<path fill-rule="evenodd" clip-rule="evenodd" d="M159.04 110.425C161.566 109.17 163.303 106.563 163.303 103.55C163.303 100.537 161.566 97.9299 159.04 96.6743C160.067 96.1639 161.225 95.8768 162.45 95.8768C166.687 95.8768 170.123 99.3122 170.123 103.55C170.123 107.788 166.687 111.223 162.45 111.223C161.225 111.223 160.067 110.936 159.04 110.425Z" fill="#FFCE00"/>
<circle cx="162.45" cy="103.55" r="9.37821" stroke="black" stroke-width="3.41026"/>
</svg>
