<svg width="595" height="595" viewBox="0 0 595 595" fill="none" xmlns="http://www.w3.org/2000/svg">
<rect width="595" height="595" fill="#C4C4C4"/>
<rect width="595" height="595" fill="#202020"/>
<path d="M478.336 266.33C476.593 268.509 477.791 272.649 481.06 276.571L488.905 266.766C484.329 264.478 480.079 264.151 478.336 266.33Z" fill="#FFA340"/>
<path d="M492.282 268.727L483.784 279.404C484.219 279.84 484.655 280.276 485.2 280.603L493.807 269.816C493.263 269.489 492.718 269.054 492.282 268.727Z" fill="#FFA340"/>
<path d="M480.008 264.113L477.897 266.75L500.432 284.798L502.543 282.161L480.008 264.113Z" fill="#FFA340"/>
<path d="M500.889 284.307C502.306 282.564 501.761 279.513 499.8 276.245L492.827 284.961C496.313 286.268 499.473 286.159 500.889 284.307Z" fill="#FFA340"/>
<path d="M488.905 266.766L481.06 276.571C481.823 277.552 482.694 278.423 483.675 279.404L492.173 268.727C491.193 267.964 489.994 267.31 488.905 266.766Z" fill="#FFB96E"/>
<path d="M493.916 269.925L493.807 269.816L485.2 280.603L485.309 280.712C487.815 282.673 490.43 284.198 492.827 284.961L499.8 276.245C498.383 274.174 496.422 271.995 493.916 269.925Z" fill="#FFB96E"/>
<path d="M502.088 282.782C499.691 285.723 492.718 284.089 486.507 279.186C480.297 274.174 477.138 267.746 479.535 264.805C481.932 261.863 488.904 263.497 495.115 268.4C501.434 273.303 504.485 279.731 502.088 282.782Z" fill="#E0821B"/>
<path d="M502.415 282.346C500.018 285.287 493.045 283.653 486.834 278.75C480.624 273.739 477.465 267.31 479.862 264.369C482.258 261.427 489.231 263.061 495.442 267.964C501.761 272.976 504.811 279.404 502.415 282.346Z" fill="#FCCA4C"/>
<path d="M500.127 280.494C498.274 282.782 492.827 281.474 487.815 277.443C482.912 273.521 480.297 268.4 482.15 266.112C484.002 263.824 489.449 265.131 494.461 269.163C499.473 273.194 501.979 278.206 500.127 280.494Z" fill="#FFE066"/>
<path d="M500.453 284.852L502.415 282.455L502.524 282.237C504.594 279.186 501.543 272.867 495.442 268.073C489.34 263.17 482.585 261.536 480.08 264.26L478.009 266.875L478.118 266.984C476.811 269.272 478.118 273.085 481.169 276.789C481.932 277.77 482.803 278.641 483.784 279.622C484.22 280.058 484.655 280.494 485.2 280.82L485.309 280.929C487.815 282.891 490.43 284.416 492.827 285.179C496.095 286.159 498.928 286.159 500.453 284.852Z" stroke="black" stroke-miterlimit="10"/>
<path d="M502.431 190.932C504.175 188.753 502.976 184.612 499.708 180.69L491.863 190.496C496.439 192.784 500.688 193.111 502.431 190.932Z" fill="#FFA340"/>
<path d="M488.486 188.535L496.984 177.857C496.548 177.422 496.112 176.986 495.568 176.659L486.96 187.445C487.505 187.772 488.05 188.208 488.486 188.535Z" fill="#FFA340"/>
<path d="M500.759 193.148L502.87 190.512L480.336 172.464L478.224 175.1L500.759 193.148Z" fill="#FFA340"/>
<path d="M479.878 172.955C478.462 174.698 479.007 177.749 480.968 181.017L487.941 172.301C484.454 170.994 481.295 171.102 479.878 172.955Z" fill="#FFA340"/>
<path d="M491.863 190.496L499.708 180.69C498.945 179.71 498.073 178.838 497.093 177.858L488.594 188.535C489.575 189.298 490.773 189.951 491.863 190.496Z" fill="#FFB96E"/>
<path d="M486.851 187.336L486.96 187.445L495.567 176.659L495.458 176.55C492.953 174.589 490.338 173.064 487.941 172.301L480.968 181.017C482.384 183.087 484.345 185.266 486.851 187.336Z" fill="#FFB96E"/>
<path d="M478.68 174.48C481.077 171.538 488.05 173.173 494.26 178.075C500.47 183.087 503.63 189.515 501.233 192.457C498.836 195.399 491.863 193.764 485.653 188.862C479.334 183.959 476.283 177.531 478.68 174.48Z" fill="#E0821B"/>
<path d="M478.353 174.916C480.75 171.974 487.723 173.608 493.933 178.511C500.143 183.523 503.303 189.951 500.906 192.893C498.509 195.835 491.536 194.2 485.326 189.298C479.007 184.286 475.956 177.858 478.353 174.916Z" fill="#FCCA4C"/>
<path d="M480.641 176.768C482.493 174.48 487.941 175.787 492.953 179.819C497.856 183.741 500.47 188.862 498.618 191.15C496.766 193.438 491.319 192.13 486.307 188.099C481.295 184.068 478.789 179.056 480.641 176.768Z" fill="#FFE066"/>
<path d="M480.314 172.41L478.353 174.807L478.244 175.025C476.174 178.075 479.225 184.395 485.326 189.188C491.427 194.091 498.182 195.726 500.688 193.002L502.758 190.387L502.649 190.278C503.957 187.99 502.649 184.177 499.599 180.472C498.836 179.492 497.964 178.62 496.984 177.64C496.548 177.204 496.112 176.768 495.567 176.441L495.458 176.332C492.952 174.371 490.338 172.846 487.941 172.083C484.672 171.103 481.839 171.102 480.314 172.41Z" stroke="black" stroke-miterlimit="10"/>
<path d="M543.323 510.615C547.9 508.765 547.788 504.847 547.453 503.106C548.569 504.63 551.248 507.35 555.825 505.5C561.964 502.997 558.838 492.877 549.574 490.809C544.328 489.612 541.984 488.306 540.868 487.326C540.756 487.218 540.645 487.109 540.533 487C540.533 487.109 540.533 487.218 540.533 487.435C540.421 488.85 539.752 491.462 536.961 495.924C532.05 503.759 537.184 513.009 543.323 510.615Z" fill="#EF1818"/>
<path d="M543.323 510.615C547.9 508.765 547.788 504.847 547.453 503.106C548.569 504.63 551.248 507.35 555.825 505.5C561.964 502.997 558.838 492.877 549.574 490.809C544.328 489.612 541.984 488.306 540.868 487.326C540.756 487.218 540.645 487.109 540.533 487C540.533 487.109 540.533 487.218 540.533 487.435C540.421 488.85 539.752 491.462 536.961 495.924C532.05 503.759 537.184 513.009 543.323 510.615Z" stroke="black" stroke-miterlimit="10"/>
<path d="M459.671 312.148C455.09 310.307 452.454 313.208 451.488 314.694C451.74 312.823 451.697 309.005 447.116 307.165C440.957 304.711 436.191 314.171 441.433 322.085C444.383 326.585 445.166 329.151 445.291 330.631C445.296 330.787 445.301 330.942 445.306 331.098C445.382 331.02 445.457 330.941 445.608 330.785C446.669 329.843 448.963 328.425 454.068 327.145C463.04 324.905 465.754 314.679 459.671 312.148Z" fill="#EF1818"/>
<path d="M459.671 312.148C455.09 310.307 452.454 313.208 451.488 314.694C451.74 312.823 451.697 309.005 447.116 307.165C440.957 304.711 436.191 314.171 441.433 322.085C444.383 326.585 445.166 329.151 445.291 330.631C445.296 330.787 445.301 330.942 445.306 331.098C445.382 331.02 445.457 330.941 445.608 330.785C446.669 329.843 448.963 328.425 454.068 327.145C463.04 324.905 465.754 314.679 459.671 312.148Z" stroke="black" stroke-miterlimit="10"/>
<path d="M531.218 50.5486C530.237 53.1635 532.634 56.65 536.992 59.4827L541.46 47.7159C536.339 46.8443 532.199 47.8249 531.218 50.5486Z" fill="#FFA340"/>
<path d="M545.164 48.4787L540.37 61.226C540.915 61.4439 541.46 61.7708 542.113 61.9887L547.016 49.0235C546.362 48.8056 545.818 48.6966 545.164 48.4787Z" fill="#FFA340"/>
<path d="M532.113 47.8919L530.924 51.0529L557.945 61.2188L559.134 58.0578L532.113 47.8919Z" fill="#FFA340"/>
<path d="M558.238 60.6812C559.001 58.5022 557.584 55.8874 554.643 53.3815L550.72 63.8409C554.534 63.8409 557.475 62.8603 558.238 60.6812Z" fill="#FFA340"/>
<path d="M541.459 47.607L536.992 59.3739C537.973 60.0276 539.172 60.6812 540.37 61.226L545.164 48.4787C543.965 48.0429 542.658 47.8249 541.459 47.607Z" fill="#FFB96E"/>
<path d="M547.125 49.1324C547.016 49.1324 547.016 49.1324 546.907 49.0235L542.004 61.9887C542.113 61.9887 542.113 61.9887 542.222 62.0977C545.164 63.1872 548.106 63.8409 550.721 63.8409L554.643 53.3815C552.791 51.7472 550.176 50.2219 547.125 49.1324Z" fill="#FFB96E"/>
<path d="M559.001 58.7201C557.693 62.3155 550.502 62.8602 543.094 60.1364C535.685 57.3037 530.673 52.183 531.981 48.5876C533.288 44.9922 540.479 44.4474 547.888 47.1712C555.296 50.004 560.308 55.1247 559.001 58.7201Z" fill="#E0821B"/>
<path d="M559.11 58.2843C557.802 61.8797 550.612 62.4245 543.203 59.7007C535.794 56.8679 530.782 51.7471 532.09 48.1517C533.397 44.5563 540.588 44.0116 547.997 46.7354C555.514 49.5681 560.526 54.6889 559.11 58.2843Z" fill="#FCCA4C"/>
<path d="M556.386 57.1947C555.296 59.9185 549.74 60.3543 543.747 58.1752C537.864 55.9962 533.833 51.856 534.922 49.1323C536.012 46.4085 541.568 45.9726 547.561 48.1517C553.444 50.4396 557.366 54.4709 556.386 57.1947Z" fill="#FFE066"/>
<path d="M558.02 61.2259L559.219 58.0663C560.308 54.4709 555.405 49.4591 548.106 46.7353C540.806 44.0115 533.833 44.5563 532.308 47.9338L531.109 51.0933H531.218C530.673 53.5992 533.07 56.8678 537.101 59.4826C538.082 60.1364 539.28 60.7901 540.479 61.3348C541.024 61.5527 541.568 61.8796 542.222 62.0975C542.331 62.0975 542.331 62.0975 542.44 62.2064C545.382 63.296 548.323 63.9496 550.938 63.9496C554.207 63.8407 556.931 62.9691 558.02 61.2259Z" stroke="black" stroke-miterlimit="10"/>
<path d="M518.622 312.24C516.007 311.151 512.412 313.548 509.579 317.797L521.237 322.482C522.218 317.361 521.237 313.221 518.622 312.24Z" fill="#FFA340"/>
<path d="M520.365 326.186L507.727 321.065C507.509 321.61 507.182 322.155 506.964 322.808L519.821 327.929C519.93 327.384 520.148 326.84 520.365 326.186Z" fill="#FFA340"/>
<path d="M518.19 311.932L507.386 338.708L510.518 339.972L521.322 313.196L518.19 311.932Z" fill="#FFA340"/>
<path d="M507.836 338.933C509.906 339.805 512.739 338.389 515.245 335.556L504.894 331.416C504.676 335.229 505.766 338.062 507.836 338.933Z" fill="#FFA340"/>
<path d="M521.346 322.482L509.688 317.797C509.035 318.777 508.381 319.976 507.727 321.174L520.366 326.295C520.801 324.987 521.128 323.68 521.346 322.482Z" fill="#FFB96E"/>
<path d="M519.712 328.147C519.712 328.038 519.712 328.038 519.821 327.929L506.964 322.808C506.964 322.917 506.964 322.917 506.855 323.026C505.657 325.968 505.003 328.91 504.894 331.416L515.245 335.556C516.879 333.704 518.513 331.089 519.712 328.147Z" fill="#FFB96E"/>
<path d="M509.797 339.696C506.311 338.28 505.766 331.089 508.817 323.68C511.758 316.271 517.097 311.477 520.583 312.894C524.07 314.31 524.615 321.501 521.564 328.91C518.513 336.318 513.284 341.112 509.797 339.696Z" fill="#E0821B"/>
<path d="M510.233 339.914C506.747 338.498 506.202 331.307 509.252 323.898C512.194 316.489 517.533 311.695 521.019 313.112C524.506 314.528 525.05 321.719 522 329.128C519.058 336.536 513.719 341.33 510.233 339.914Z" fill="#FCCA4C"/>
<path d="M511.322 337.19C508.599 336.101 508.272 330.435 510.669 324.552C513.066 318.668 517.206 314.855 519.929 315.944C522.653 317.034 522.98 322.699 520.583 328.583C518.186 334.466 514.046 338.28 511.322 337.19Z" fill="#FFE066"/>
<path d="M509.579 317.797C508.925 318.777 508.272 319.976 507.618 321.174C507.4 321.719 507.073 322.264 506.855 322.917C506.855 323.026 506.855 323.026 506.746 323.135C505.548 326.077 504.894 329.019 504.785 331.525C504.676 335.011 505.439 337.735 507.291 338.824V338.933L507.836 339.151L510.233 340.132L510.451 340.241C513.937 341.33 519.058 336.645 522 329.346C524.941 322.155 524.506 315.182 521.237 313.548L518.622 312.458L518.077 312.24V312.349C515.571 311.477 512.303 313.765 509.579 317.797Z" stroke="black" stroke-miterlimit="10"/>
<path d="M496.454 87.015C494.275 93.8789 486.975 97.6922 480.111 95.5132C473.248 93.3342 469.434 86.0344 471.613 79.1704C473.792 72.3065 481.092 68.4932 487.956 70.6722C494.711 72.8512 498.524 80.151 496.454 87.015Z" fill="#E0821B"/>
<path d="M495.801 86.906C493.73 93.4432 486.758 97.0386 480.329 95.0774C473.792 93.0073 470.197 86.0344 472.158 79.6063C474.228 73.0692 481.201 69.4737 487.629 71.4349C494.057 73.396 497.871 80.3689 495.801 86.906Z" fill="#FCCA4C"/>
<path d="M493.404 86.1433C491.77 91.373 486.213 94.2058 481.092 92.5715C475.863 90.9372 473.03 85.3807 474.664 80.2599C476.298 75.0303 481.855 72.1975 486.976 73.8318C492.096 75.466 494.929 80.9136 493.404 86.1433Z" fill="#FFE066"/>
<g opacity="0.23">
<g opacity="0.23">
<path opacity="0.23" d="M496.563 86.5793L491.443 72.5244C490.353 71.7618 489.155 71.2171 487.847 70.7812C487.738 70.7812 487.629 70.6723 487.52 70.6723L494.711 90.6105C495.474 89.521 496.019 88.4314 496.345 87.124C496.454 86.9061 496.454 86.6882 496.563 86.5793Z" fill="#FFE066"/>
</g>
</g>
<g opacity="0.23">
<g opacity="0.23">
<path opacity="0.23" d="M474.882 73.8318L482.944 96.058C485.232 96.2759 487.411 95.8401 489.481 94.8595L480.656 70.4543C478.368 71.217 476.407 72.3065 474.882 73.8318Z" fill="#FFE066"/>
</g>
</g>
<path d="M491.443 72.5244C491.443 72.4154 491.443 72.4154 491.443 72.5244C491.007 72.1975 490.462 71.8707 489.917 71.6528C489.808 71.5438 489.699 71.5438 489.591 71.4348C489.046 71.2169 488.501 70.9991 487.956 70.7812C487.847 70.7812 487.738 70.6722 487.629 70.6722C485.232 70.0185 482.944 70.0185 480.656 70.6722C479.676 70.9991 478.695 71.3259 477.715 71.8707C477.606 71.8707 477.497 71.9796 477.497 71.9796C477.17 72.1975 476.734 72.4154 476.407 72.7423C476.298 72.8512 476.298 72.8512 476.189 72.9602C475.754 73.287 475.427 73.6139 474.991 73.9408C473.466 75.3572 472.376 77.2093 471.722 79.2794C469.543 86.1433 473.357 93.4431 480.221 95.6222C481.201 95.949 482.073 96.058 483.053 96.1669C483.162 96.1669 483.162 96.1669 483.271 96.1669C483.707 96.1669 484.143 96.1669 484.579 96.1669C484.688 96.1669 484.797 96.1669 484.906 96.1669C485.341 96.1669 485.777 96.058 486.213 96.058C486.322 96.058 486.322 96.058 486.431 96.058C486.976 95.949 487.411 95.8401 487.956 95.7311H488.065C488.501 95.6222 488.937 95.4043 489.373 95.1864C489.373 95.1864 489.482 95.1863 489.482 95.0774C492.096 93.8789 494.275 91.8088 495.692 89.085C495.801 88.9761 495.801 88.8672 495.91 88.7582C496.128 88.2134 496.345 87.6687 496.563 87.1239C496.563 86.906 496.672 86.7971 496.672 86.5792C497.98 81.1316 495.801 75.575 491.443 72.5244Z" stroke="black" stroke-miterlimit="10"/>
<path d="M541.141 239.188C544.41 235.592 542.775 232.106 541.686 230.689C543.32 231.561 546.916 233.086 550.184 229.491C554.542 224.806 547.569 216.744 538.526 218.705C533.406 219.794 530.682 219.467 529.374 219.032C529.265 219.032 529.156 218.923 528.938 218.923C529.047 219.032 529.047 219.141 529.156 219.249C529.701 220.557 530.137 223.172 529.483 228.401C528.285 237.553 536.783 243.873 541.141 239.188Z" fill="#EF1818"/>
<path d="M540.947 239.018C544.216 235.423 542.581 231.936 541.492 230.52C543.126 231.391 546.722 232.917 549.99 229.321C554.348 224.636 547.375 216.574 538.332 218.535C533.212 219.625 530.488 219.298 529.18 218.862C529.071 218.862 528.963 218.753 528.745 218.753C528.854 218.862 528.854 218.971 528.962 219.08C529.507 220.387 529.943 223.002 529.289 228.232C528.091 237.384 536.589 243.703 540.947 239.018Z" stroke="black" stroke-miterlimit="10"/>
<path d="M539.944 371.253C539.072 373.976 541.687 377.354 546.154 379.86L550.076 367.875C544.847 367.33 540.815 368.529 539.944 371.253Z" fill="#FFA340"/>
<path d="M553.78 368.529L549.531 381.494C550.076 381.712 550.73 381.93 551.275 382.148L555.524 368.965C554.979 368.856 554.434 368.747 553.78 368.529Z" fill="#FFA340"/>
<path d="M540.762 368.568L539.721 371.781L567.19 380.677L568.231 377.463L540.762 368.568Z" fill="#FFA340"/>
<path d="M567.4 380.078C568.053 377.899 566.528 375.284 563.477 372.996L560.1 383.564C563.804 383.564 566.637 382.257 567.4 380.078Z" fill="#FFA340"/>
<path d="M549.967 367.875L546.045 379.86C547.134 380.514 548.333 381.058 549.531 381.494L553.781 368.529C552.473 368.202 551.166 367.984 549.967 367.875Z" fill="#FFB96E"/>
<path d="M555.742 369.074C555.633 369.074 555.633 369.074 555.524 369.074L551.275 382.257C551.384 382.257 551.384 382.257 551.493 382.366C554.543 383.346 557.485 383.782 559.991 383.673L563.368 373.105C561.516 371.471 558.792 370.054 555.742 369.074Z" fill="#FFB96E"/>
<path d="M568.053 378.226C566.855 381.821 559.773 382.802 552.146 380.405C544.52 377.899 539.399 372.996 540.597 369.401C541.796 365.805 548.878 364.825 556.504 367.221C564.022 369.618 569.143 374.521 568.053 378.226Z" fill="#E0821B"/>
<path d="M568.162 377.681C566.964 381.276 559.882 382.257 552.255 379.86C544.629 377.354 539.508 372.451 540.706 368.856C541.905 365.26 548.987 364.28 556.613 366.677C564.131 369.074 569.361 374.085 568.162 377.681Z" fill="#FCCA4C"/>
<path d="M565.33 376.809C564.458 379.642 558.792 380.296 552.8 378.335C546.808 376.374 542.668 372.56 543.539 369.727C544.411 366.895 550.076 366.241 556.069 368.202C562.061 370.163 566.31 373.977 565.33 376.809Z" fill="#FFE066"/>
<path d="M556.613 366.677C549.205 364.28 542.232 365.151 540.815 368.529L539.944 371.253L539.726 371.798C539.399 374.412 541.905 377.463 546.045 379.86C547.134 380.514 548.333 381.058 549.531 381.494C550.076 381.712 550.73 381.93 551.275 382.148C551.384 382.148 551.384 382.148 551.493 382.257C554.543 383.237 557.485 383.673 559.991 383.564C563.477 383.455 566.092 382.475 567.073 380.623H567.182L567.4 380.078L568.053 378.117L568.162 377.572L568.271 377.354C569.143 373.868 564.022 369.074 556.613 366.677Z" stroke="black" stroke-miterlimit="10"/>
<path d="M548.235 435.256C549.216 432.641 546.819 429.154 542.461 426.322L537.994 438.088C543.115 438.96 547.255 437.98 548.235 435.256Z" fill="#FFA340"/>
<path d="M534.289 437.326L539.083 424.578C538.538 424.36 537.994 424.034 537.34 423.816L532.437 436.781C533.091 436.999 533.635 437.108 534.289 437.326Z" fill="#FFA340"/>
<path d="M547.341 437.912L548.53 434.752L521.508 424.586L520.319 427.747L547.341 437.912Z" fill="#FFA340"/>
<path d="M521.215 425.123C520.452 427.302 521.869 429.917 524.81 432.423L528.733 421.964C524.919 421.964 521.978 422.944 521.215 425.123Z" fill="#FFA340"/>
<path d="M537.994 438.197L542.461 426.431C541.48 425.777 540.282 425.123 539.083 424.578L534.289 437.326C535.488 437.762 536.795 437.979 537.994 438.197Z" fill="#FFB96E"/>
<path d="M532.328 436.672C532.437 436.672 532.437 436.672 532.546 436.781L537.449 423.816C537.34 423.816 537.34 423.816 537.231 423.707C534.289 422.617 531.347 421.964 528.733 421.964L524.81 432.423C526.663 434.057 529.277 435.582 532.328 436.672Z" fill="#FFB96E"/>
<path d="M520.452 427.084C521.76 423.489 528.95 422.944 536.359 425.668C543.768 428.501 548.78 433.621 547.472 437.217C546.165 440.812 538.974 441.357 531.565 438.633C524.157 435.8 519.145 430.68 520.452 427.084Z" fill="#E0821B"/>
<path d="M520.344 427.52C521.651 423.925 528.842 423.38 536.251 426.104C543.659 428.936 548.671 434.057 547.364 437.653C546.056 441.248 538.865 441.793 531.457 439.069C523.939 436.236 518.927 431.116 520.344 427.52Z" fill="#FCCA4C"/>
<path d="M523.068 428.61C524.157 425.886 529.714 425.45 535.706 427.629C541.589 429.808 545.62 433.948 544.531 436.672C543.441 439.396 537.885 439.832 531.893 437.653C526.009 435.365 522.087 431.333 523.068 428.61Z" fill="#FFE066"/>
<path d="M512.717 496.378C511.083 494.09 506.833 494.09 502.149 496.16L509.448 506.51C512.826 502.697 514.351 498.666 512.717 496.378Z" fill="#FFA340"/>
<path d="M506.506 509.125L498.662 498.012C498.117 498.339 497.572 498.666 497.136 498.993L505.09 510.323C505.526 509.888 506.071 509.452 506.506 509.125Z" fill="#FFA340"/>
<path d="M490.779 515.402L514.362 498.745L512.413 495.986L488.83 512.643L490.779 515.402Z" fill="#FFA340"/>
<path d="M489.074 513.047C490.381 514.899 493.432 515.226 497.136 514.246L490.708 505.203C488.529 508.144 487.766 511.195 489.074 513.047Z" fill="#FFA340"/>
<path d="M509.339 506.51L502.039 496.16C500.95 496.596 499.751 497.249 498.553 497.903L506.397 509.016C507.596 508.253 508.467 507.382 509.339 506.51Z" fill="#FFB96E"/>
<path d="M504.872 510.324L504.981 510.215L497.027 498.884L496.919 498.993C494.304 500.845 492.234 502.915 490.708 504.985L497.136 514.028C499.533 513.483 502.257 512.176 504.872 510.324Z" fill="#FFB96E"/>
<path d="M490.273 514.682C488.094 511.522 491.58 505.312 498.117 500.736C504.654 496.16 511.736 494.961 513.915 498.012C516.094 501.172 512.608 507.382 506.071 511.958C499.534 516.643 492.452 517.841 490.273 514.682Z" fill="#E0821B"/>
<path d="M490.6 515.117C488.421 511.958 491.907 505.748 498.444 501.172C504.981 496.596 512.063 495.397 514.242 498.448C516.421 501.607 512.935 507.818 506.398 512.394C499.86 517.079 492.779 518.277 490.6 515.117Z" fill="#FCCA4C"/>
<path d="M492.996 513.483C491.253 511.086 494.086 506.183 499.315 502.479C504.545 498.775 510.102 497.794 511.736 500.191C513.479 502.588 510.646 507.491 505.417 511.195C500.296 514.791 494.739 515.88 492.996 513.483Z" fill="#FFE066"/>
<path d="M521.433 424.579L520.234 427.738C519.145 431.334 524.048 436.345 531.348 439.069C538.647 441.793 545.62 441.248 547.146 437.871L548.344 434.711L548.235 434.711C548.78 432.205 546.383 428.937 542.352 426.322C541.371 425.668 540.173 425.014 538.974 424.47C538.429 424.252 537.885 423.925 537.231 423.707C537.122 423.707 537.122 423.707 537.013 423.598C534.071 422.508 531.13 421.855 528.515 421.855C525.246 421.964 522.522 422.835 521.433 424.579Z" stroke="black" stroke-miterlimit="10"/>
<path d="M488.747 512.612L490.272 514.791L490.599 515.226L490.708 515.444C493.105 518.277 499.969 517.079 506.288 512.612C512.608 508.144 516.094 502.043 514.242 498.884L512.281 496.16L512.172 496.16C510.32 494.308 506.397 494.417 501.93 496.378C500.841 496.813 499.642 497.467 498.444 498.121C497.899 498.448 497.354 498.775 496.919 499.101L496.81 499.21C494.195 501.063 492.125 503.133 490.599 505.203C488.638 507.927 487.985 510.65 488.747 512.612Z" stroke="black" stroke-miterlimit="10"/>
<path d="M288.284 281.744C286.65 279.456 282.401 279.456 277.716 281.526L285.016 291.877C288.393 288.063 289.919 284.032 288.284 281.744Z" fill="#FFA340"/>
<path d="M282.074 294.492L274.229 283.379C273.685 283.705 273.14 284.032 272.704 284.359L280.658 295.69C281.093 295.254 281.638 294.818 282.074 294.492Z" fill="#FFA340"/>
<path d="M266.347 300.768L289.929 284.112L287.981 281.353L264.398 298.009L266.347 300.768Z" fill="#FFA340"/>
<path d="M264.642 298.414C265.949 300.266 269 300.593 272.704 299.612L266.276 290.569C264.097 293.511 263.334 296.562 264.642 298.414Z" fill="#FFA340"/>
<path d="M284.907 291.877L277.607 281.526C276.517 281.962 275.319 282.616 274.121 283.27L281.965 294.383C283.163 293.62 284.035 292.748 284.907 291.877Z" fill="#FFB96E"/>
<path d="M280.44 295.69L280.549 295.581L272.595 284.25L272.486 284.359C269.872 286.211 267.801 288.282 266.276 290.352L272.704 299.395C275.101 298.85 277.825 297.542 280.44 295.69Z" fill="#FFB96E"/>
<path d="M265.84 300.048C263.661 296.889 267.148 290.678 273.685 286.102C280.222 281.526 287.304 280.328 289.483 283.379C291.662 286.538 288.175 292.748 281.638 297.324C275.101 302.009 268.019 303.208 265.84 300.048Z" fill="#E0821B"/>
<path d="M266.167 300.484C263.988 297.324 267.475 291.114 274.012 286.538C280.549 281.962 287.631 280.764 289.81 283.814C291.989 286.974 288.502 293.184 281.965 297.76C275.428 302.445 268.346 303.644 266.167 300.484Z" fill="#FCCA4C"/>
<path d="M268.564 298.85C266.821 296.453 269.653 291.55 274.883 287.846C280.113 284.141 285.669 283.161 287.304 285.558C289.047 287.955 286.214 292.857 280.984 296.562C275.864 300.157 270.307 301.247 268.564 298.85Z" fill="#FFE066"/>
<path d="M264.315 297.978L265.84 300.157L266.167 300.593L266.276 300.811C268.673 303.644 275.537 302.445 281.856 297.978C288.175 293.511 291.662 287.41 289.81 284.25L287.848 281.526L287.739 281.526C285.887 279.674 281.965 279.783 277.498 281.744C276.408 282.18 275.21 282.834 274.012 283.488C273.467 283.814 272.922 284.141 272.486 284.468L272.377 284.577C269.762 286.429 267.692 288.499 266.167 290.569C264.206 293.293 263.552 296.017 264.315 297.978Z" stroke="black" stroke-miterlimit="10"/>
<path d="M537.677 127.385C533.1 129.235 533.212 133.153 533.547 134.894C532.431 133.37 529.752 130.65 525.175 132.5C519.036 135.003 522.162 145.123 531.426 147.191C536.672 148.388 539.016 149.694 540.132 150.674C540.244 150.782 540.355 150.891 540.467 151C540.467 150.891 540.467 150.782 540.467 150.565C540.579 149.15 541.248 146.538 544.039 142.076C548.95 134.241 543.816 124.991 537.677 127.385Z" fill="#EF1818"/>
<path d="M537.677 127.385C533.1 129.235 533.212 133.153 533.547 134.894C532.431 133.37 529.752 130.65 525.175 132.5C519.036 135.003 522.162 145.123 531.426 147.191C536.672 148.388 539.016 149.694 540.132 150.674C540.244 150.782 540.355 150.891 540.467 151C540.467 150.891 540.467 150.782 540.467 150.565C540.579 149.15 541.248 146.538 544.039 142.076C548.95 134.241 543.816 124.991 537.677 127.385Z" stroke="black" stroke-miterlimit="10"/>
<path d="M118.504 381.326C118.321 381.326 118.163 381.26 118.029 381.126C117.896 380.993 117.829 380.835 117.829 380.651V364.501C117.829 364.318 117.896 364.16 118.029 364.026C118.163 363.893 118.321 363.826 118.504 363.826H122.454C122.921 363.826 123.279 364.051 123.529 364.501L127.154 370.501L130.779 364.501C131.029 364.051 131.388 363.826 131.854 363.826H135.804C135.988 363.826 136.146 363.893 136.279 364.026C136.413 364.16 136.479 364.318 136.479 364.501V380.651C136.479 380.835 136.413 380.993 136.279 381.126C136.146 381.26 135.988 381.326 135.804 381.326H131.279C131.096 381.326 130.938 381.26 130.804 381.126C130.671 380.993 130.604 380.835 130.604 380.651V373.801L128.954 376.501C128.838 376.685 128.704 376.835 128.554 376.951C128.421 377.068 128.246 377.126 128.029 377.126H126.279C126.063 377.126 125.879 377.068 125.729 376.951C125.596 376.835 125.471 376.685 125.354 376.501L123.704 373.801V380.651C123.704 380.835 123.638 380.993 123.504 381.126C123.371 381.26 123.213 381.326 123.029 381.326H118.504ZM144.29 381.326C144.107 381.326 143.949 381.26 143.815 381.126C143.682 380.993 143.615 380.835 143.615 380.651V375.726L137.99 364.601C137.957 364.535 137.94 364.46 137.94 364.376C137.94 364.226 137.99 364.101 138.09 364.001C138.207 363.885 138.34 363.826 138.49 363.826H143.19C143.474 363.826 143.699 363.901 143.865 364.051C144.049 364.185 144.174 364.318 144.24 364.451L146.74 369.476L149.24 364.451C149.307 364.318 149.424 364.185 149.59 364.051C149.774 363.901 150.007 363.826 150.29 363.826H154.99C155.14 363.826 155.265 363.885 155.365 364.001C155.482 364.101 155.54 364.226 155.54 364.376C155.54 364.46 155.524 364.535 155.49 364.601L149.865 375.726V380.651C149.865 380.835 149.799 380.993 149.665 381.126C149.532 381.26 149.374 381.326 149.19 381.326H144.29ZM161.619 381.326C161.436 381.326 161.278 381.26 161.144 381.126C161.011 380.993 160.944 380.835 160.944 380.651V364.501C160.944 364.318 161.011 364.16 161.144 364.026C161.278 363.893 161.436 363.826 161.619 363.826H169.194C171.528 363.826 173.361 364.343 174.694 365.376C176.044 366.41 176.719 367.935 176.719 369.951C176.719 371.951 176.053 373.443 174.719 374.426C173.386 375.393 171.544 375.876 169.194 375.876H167.444V380.651C167.444 380.835 167.378 380.993 167.244 381.126C167.111 381.26 166.953 381.326 166.769 381.326H161.619ZM169.069 371.251C169.369 371.251 169.636 371.143 169.869 370.926C170.103 370.693 170.219 370.351 170.219 369.901C170.219 369.518 170.128 369.185 169.944 368.901C169.761 368.618 169.469 368.476 169.069 368.476H167.319V371.251H169.069ZM179.246 381.326C179.063 381.326 178.905 381.268 178.771 381.151C178.638 381.018 178.571 380.851 178.571 380.651V364.501C178.571 364.318 178.638 364.16 178.771 364.026C178.905 363.893 179.063 363.826 179.246 363.826H184.146C184.33 363.826 184.488 363.893 184.621 364.026C184.755 364.16 184.821 364.318 184.821 364.501V369.751H188.871V364.501C188.871 364.318 188.938 364.16 189.071 364.026C189.205 363.893 189.363 363.826 189.546 363.826H194.446C194.63 363.826 194.788 363.893 194.921 364.026C195.055 364.16 195.121 364.318 195.121 364.501V380.651C195.121 380.835 195.055 380.993 194.921 381.126C194.788 381.26 194.63 381.326 194.446 381.326H189.546C189.363 381.326 189.205 381.26 189.071 381.126C188.938 380.993 188.871 380.835 188.871 380.651V375.251H184.821V380.651C184.821 380.835 184.755 380.993 184.621 381.126C184.488 381.26 184.33 381.326 184.146 381.326H179.246ZM205.783 381.576C203.283 381.576 201.291 381.001 199.808 379.851C198.325 378.701 197.533 377.026 197.433 374.826C197.416 374.376 197.408 373.651 197.408 372.651C197.408 371.635 197.416 370.893 197.433 370.426C197.483 368.993 197.858 367.76 198.558 366.726C199.275 365.693 200.25 364.91 201.483 364.376C202.716 363.843 204.15 363.576 205.783 363.576C207.416 363.576 208.85 363.843 210.083 364.376C211.316 364.91 212.283 365.693 212.983 366.726C213.7 367.76 214.083 368.993 214.133 370.426C214.166 371.36 214.183 372.101 214.183 372.651C214.183 373.201 214.166 373.926 214.133 374.826C214.033 377.026 213.241 378.701 211.758 379.851C210.275 381.001 208.283 381.576 205.783 381.576ZM205.783 376.701C206.35 376.701 206.791 376.535 207.108 376.201C207.441 375.868 207.616 375.36 207.633 374.676C207.666 373.71 207.683 373.001 207.683 372.551C207.683 372.068 207.666 371.376 207.633 370.476C207.616 369.793 207.441 369.285 207.108 368.951C206.775 368.618 206.333 368.451 205.783 368.451C205.233 368.451 204.791 368.618 204.458 368.951C204.125 369.285 203.95 369.793 203.933 370.476C203.916 370.926 203.908 371.618 203.908 372.551C203.908 373.485 203.916 374.193 203.933 374.676C203.95 375.36 204.116 375.868 204.433 376.201C204.766 376.535 205.216 376.701 205.783 376.701ZM220.817 381.326C220.633 381.326 220.475 381.26 220.342 381.126C220.208 380.993 220.142 380.835 220.142 380.651V369.201H215.992C215.808 369.201 215.65 369.135 215.517 369.001C215.383 368.868 215.317 368.71 215.317 368.526V364.501C215.317 364.318 215.383 364.16 215.517 364.026C215.65 363.893 215.808 363.826 215.992 363.826H230.642C230.825 363.826 230.983 363.893 231.117 364.026C231.25 364.16 231.317 364.318 231.317 364.501V368.526C231.317 368.71 231.25 368.868 231.117 369.001C230.983 369.135 230.825 369.201 230.642 369.201H226.492V380.651C226.492 380.835 226.425 380.993 226.292 381.126C226.158 381.26 226 381.326 225.817 381.326H220.817ZM240.842 381.576C238.342 381.576 236.35 381.001 234.867 379.851C233.383 378.701 232.592 377.026 232.492 374.826C232.475 374.376 232.467 373.651 232.467 372.651C232.467 371.635 232.475 370.893 232.492 370.426C232.542 368.993 232.917 367.76 233.617 366.726C234.333 365.693 235.308 364.91 236.542 364.376C237.775 363.843 239.208 363.576 240.842 363.576C242.475 363.576 243.908 363.843 245.142 364.376C246.375 364.91 247.342 365.693 248.042 366.726C248.758 367.76 249.142 368.993 249.192 370.426C249.225 371.36 249.242 372.101 249.242 372.651C249.242 373.201 249.225 373.926 249.192 374.826C249.092 377.026 248.3 378.701 246.817 379.851C245.333 381.001 243.342 381.576 240.842 381.576ZM240.842 376.701C241.408 376.701 241.85 376.535 242.167 376.201C242.5 375.868 242.675 375.36 242.692 374.676C242.725 373.71 242.742 373.001 242.742 372.551C242.742 372.068 242.725 371.376 242.692 370.476C242.675 369.793 242.5 369.285 242.167 368.951C241.833 368.618 241.392 368.451 240.842 368.451C240.292 368.451 239.85 368.618 239.517 368.951C239.183 369.285 239.008 369.793 238.992 370.476C238.975 370.926 238.967 371.618 238.967 372.551C238.967 373.485 238.975 374.193 238.992 374.676C239.008 375.36 239.175 375.868 239.492 376.201C239.825 376.535 240.275 376.701 240.842 376.701Z" fill="#FAFAFA"/>
<rect x="116.196" y="207" width="134.184" height="134.184" rx="8.86667" fill="#E5F5F9"/>
<rect x="118.412" y="209.217" width="129.75" height="129.75" rx="6.65" stroke="black" stroke-width="4.43333"/>
<rect x="131.831" y="222.635" width="102.914" height="102.914" rx="6.65" stroke="black" stroke-width="4.43333"/>
<path d="M143.405 285.728H134.087V319.59C134.087 322.038 136.072 324.023 138.52 324.023H228.055C230.503 324.023 232.488 322.038 232.488 319.59V295.084H223.543L201.179 272.631L186.269 287.599L163.905 265.146L143.405 285.728Z" fill="#91FF31"/>
<path d="M134.087 284.901H143.405L163.905 264.401L186.269 286.765L201.179 271.855L223.543 294.219H234.725" stroke="black" stroke-width="3.69444" stroke-linejoin="round"/>
<path d="M210.124 271.855C210.124 287.914 197.11 300.929 181.051 300.929C179.021 300.929 176.991 300.711 175.07 300.312C161.874 297.557 151.978 285.848 151.978 271.855C151.978 257.863 161.874 246.154 175.07 243.398C176.991 243 179.021 242.782 181.051 242.782C197.11 242.782 210.124 255.796 210.124 271.855Z" fill="#91FF31"/>
<path d="M210.124 271.855C210.124 287.914 197.11 300.929 181.051 300.929C179.021 300.929 176.991 300.711 175.07 300.312C188.265 297.557 198.161 285.848 198.161 271.855C198.161 257.863 188.265 246.154 175.07 243.398C176.991 243 179.021 242.782 181.051 242.782C197.11 242.782 210.124 255.796 210.124 271.855Z" fill="#00EA80"/>
<path d="M181.051 288.748C182.537 288.748 183.77 287.516 183.77 286.029V264.243L191.491 271.964C192.543 273.015 194.283 273.015 195.334 271.964C196.385 270.913 196.385 269.173 195.334 268.121L182.972 255.76C182.465 255.252 181.776 254.962 181.051 254.962C180.326 254.962 179.637 255.252 179.13 255.76L166.768 268.121C165.717 269.173 165.717 270.913 166.768 271.964C167.312 272.508 168.001 272.762 168.689 272.762C169.378 272.762 170.067 272.508 170.611 271.964L178.332 264.243V286.029C178.332 287.516 179.565 288.748 181.051 288.748Z" fill="black"/>
<circle cx="181.051" cy="271.855" r="26.8565" stroke="black" stroke-width="4.43333"/>
<circle cx="203.415" cy="253.964" r="7.74137" fill="#FFEB31"/>
<path fill-rule="evenodd" clip-rule="evenodd" d="M199.975 260.901C202.524 259.634 204.275 257.004 204.275 253.964C204.275 250.925 202.524 248.294 199.975 247.027C201.011 246.512 202.179 246.223 203.415 246.223C207.691 246.223 211.156 249.689 211.156 253.964C211.156 258.24 207.691 261.706 203.415 261.706C202.179 261.706 201.011 261.416 199.975 260.901Z" fill="#FFCE00"/>
<circle cx="203.415" cy="253.964" r="9.47685" stroke="black" stroke-width="3.41026"/>
<path d="M322.834 126.74C319.06 130.892 320.947 134.918 322.205 136.553C320.318 135.547 316.166 133.785 312.391 137.937C307.359 143.347 315.411 152.657 325.853 150.393C331.767 149.134 334.912 149.512 336.422 150.015C336.548 150.015 336.673 150.141 336.925 150.141C336.799 150.015 336.799 149.889 336.673 149.763C336.044 148.254 335.541 145.234 336.296 139.195C337.68 128.627 327.867 121.33 322.834 126.74Z" fill="#EF1818"/>
<path d="M323.058 126.936C319.283 131.087 321.171 135.113 322.429 136.749C320.542 135.742 316.39 133.981 312.615 138.133C307.583 143.543 315.635 152.853 326.077 150.588C331.991 149.33 335.136 149.708 336.646 150.211C336.771 150.211 336.897 150.337 337.149 150.337C337.023 150.211 337.023 150.085 336.897 149.959C336.268 148.45 335.765 145.43 336.52 139.391C337.904 128.823 328.09 121.526 323.058 126.936Z" stroke="black" stroke-miterlimit="10"/>
<path d="M142.721 155.812C140.204 163.738 131.775 168.141 123.849 165.625C115.922 163.109 111.519 154.679 114.035 146.753C116.552 138.827 124.981 134.423 132.907 136.94C140.708 139.456 145.111 147.885 142.721 155.812Z" fill="#E0821B"/>
<path d="M141.966 155.56C139.575 163.109 131.523 167.26 124.1 164.996C116.552 162.605 112.4 154.553 114.664 147.13C117.055 139.582 125.107 135.43 132.53 137.694C139.953 139.959 144.356 148.137 141.966 155.56Z" fill="#FCCA4C"/>
<path d="M139.198 154.679C137.311 160.718 130.894 163.989 124.981 162.102C118.942 160.215 115.671 153.799 117.558 147.885C119.445 141.846 125.862 138.575 131.775 140.462C137.688 142.35 141.085 148.766 139.198 154.679Z" fill="#FFE066"/>
<g opacity="0.23">
<g opacity="0.23">
<path opacity="0.23" d="M117.81 140.588L127.12 166.254C129.762 166.506 132.278 166.003 134.669 164.87L124.478 136.688C121.962 137.569 119.571 138.827 117.81 140.588Z" fill="#FFE066"/>
</g>
</g>
<path d="M136.933 139.079C136.933 138.953 136.933 138.953 136.933 139.079C136.43 138.701 135.801 138.324 135.172 138.072C135.046 137.946 134.92 137.946 134.794 137.82C134.165 137.569 133.536 137.317 132.907 137.066C132.781 137.066 132.656 136.94 132.53 136.94C129.762 136.185 127.12 136.185 124.478 136.94C123.345 137.317 122.213 137.695 121.081 138.324C120.955 138.324 120.829 138.45 120.829 138.45C120.452 138.701 119.948 138.953 119.571 139.33C119.445 139.456 119.445 139.456 119.319 139.582C118.816 139.959 118.439 140.337 117.935 140.714C116.174 142.35 114.916 144.489 114.161 146.879C111.645 154.805 116.048 163.235 123.974 165.751C125.107 166.128 126.113 166.254 127.246 166.38C127.371 166.38 127.371 166.38 127.497 166.38C128 166.38 128.504 166.38 129.007 166.38C129.133 166.38 129.259 166.38 129.384 166.38C129.888 166.38 130.391 166.254 130.894 166.254C131.02 166.254 131.02 166.254 131.146 166.254C131.775 166.128 132.278 166.003 132.907 165.877H133.033C133.536 165.751 134.039 165.499 134.543 165.248C134.543 165.248 134.669 165.248 134.669 165.122C137.688 163.738 140.204 161.347 141.84 158.202C141.966 158.076 141.966 157.951 142.091 157.825C142.343 157.196 142.595 156.567 142.846 155.938C142.846 155.686 142.972 155.56 142.972 155.308C144.482 149.018 141.966 142.601 136.933 139.079Z" stroke="black" stroke-miterlimit="10"/>
<path d="M339.923 256.957C337.91 259.473 339.294 264.254 343.068 268.783L352.127 257.46C346.842 254.818 341.936 254.44 339.923 256.957Z" fill="#FFA340"/>
<path d="M356.027 259.724L346.213 272.054C346.717 272.557 347.22 273.061 347.849 273.438L357.788 260.982C357.159 260.605 356.53 260.102 356.027 259.724Z" fill="#FFA340"/>
<path d="M341.854 254.397L339.416 257.441L365.438 278.282L367.876 275.238L341.854 254.397Z" fill="#FFA340"/>
<path d="M365.966 277.716C367.602 275.703 366.973 272.18 364.708 268.405L356.656 278.47C360.682 279.98 364.331 279.854 365.966 277.716Z" fill="#FFA340"/>
<path d="M352.127 257.46L343.068 268.783C343.949 269.915 344.955 270.922 346.088 272.054L355.901 259.724C354.769 258.844 353.385 258.089 352.127 257.46Z" fill="#FFB96E"/>
<path d="M357.914 261.108L357.788 260.982L347.849 273.438L347.975 273.564C350.869 275.828 353.888 277.59 356.656 278.47L364.708 268.405C363.073 266.015 360.808 263.499 357.914 261.108Z" fill="#FFB96E"/>
<path d="M367.35 275.954C364.582 279.351 356.53 277.464 349.359 271.802C342.187 266.015 338.539 258.592 341.307 255.195C344.075 251.798 352.127 253.685 359.298 259.347C366.595 265.009 370.118 272.432 367.35 275.954Z" fill="#E0821B"/>
<path d="M367.727 275.451C364.96 278.848 356.908 276.961 349.736 271.299C342.565 265.512 338.916 258.089 341.684 254.692C344.452 251.295 352.504 253.182 359.675 258.844C366.973 264.631 370.495 272.054 367.727 275.451Z" fill="#FCCA4C"/>
<path d="M365.085 273.312C362.946 275.954 356.656 274.444 350.868 269.789C345.207 265.26 342.187 259.347 344.326 256.705C346.465 254.063 352.756 255.573 358.543 260.228C364.33 264.883 367.224 270.67 365.085 273.312Z" fill="#FFE066"/>
<path d="M365.463 278.345L367.727 275.577L367.853 275.325C370.244 271.802 366.721 264.505 359.675 258.969C352.63 253.308 344.829 251.421 341.936 254.566L339.545 257.586L339.671 257.711C338.161 260.353 339.671 264.757 343.194 269.035C344.075 270.167 345.081 271.173 346.213 272.306C346.717 272.809 347.22 273.312 347.849 273.69L347.975 273.815C350.868 276.08 353.888 277.841 356.656 278.722C360.43 279.854 363.701 279.854 365.463 278.345Z" stroke="black" stroke-miterlimit="10"/>
<path d="M121.887 399.706C116.728 397.442 113.583 400.587 112.325 402.223C112.702 400.084 112.954 395.68 107.795 393.416C101.002 390.396 94.8367 400.964 100.373 410.149C103.518 415.307 104.147 418.327 104.147 419.962C104.147 420.088 104.147 420.34 104.147 420.465C104.273 420.34 104.399 420.214 104.524 420.088C105.783 418.956 108.425 417.572 114.338 416.314C124.906 414.426 128.68 402.726 121.887 399.706Z" fill="#EF1818"/>
<path d="M121.887 399.706C116.728 397.442 113.583 400.587 112.325 402.223C112.702 400.084 112.954 395.68 107.795 393.416C101.002 390.396 94.8367 400.964 100.373 410.149C103.518 415.307 104.147 418.327 104.147 419.962C104.147 420.088 104.147 420.34 104.147 420.465C104.273 420.34 104.399 420.214 104.524 420.088C105.783 418.956 108.425 417.572 114.338 416.314C124.906 414.426 128.68 402.726 121.887 399.706Z" stroke="black" stroke-miterlimit="10"/>
<path d="M347.626 413.328C343.6 417.228 345.362 421.38 346.368 423.141C344.607 422.009 340.581 420.122 336.555 424.022C331.145 429.18 338.694 438.868 349.262 437.232C355.301 436.352 358.32 436.855 359.83 437.358C359.956 437.484 360.082 437.484 360.208 437.61C360.208 437.484 360.082 437.358 360.082 437.232C359.579 435.723 359.201 432.577 360.334 426.664C362.347 416.096 352.911 408.296 347.626 413.328Z" fill="#EF1818"/>
<path d="M347.626 413.328C343.6 417.228 345.362 421.38 346.368 423.141C344.607 422.009 340.581 420.122 336.555 424.022C331.145 429.18 338.694 438.868 349.262 437.232C355.301 436.352 358.32 436.855 359.83 437.358C359.956 437.484 360.082 437.484 360.208 437.61C360.208 437.484 360.082 437.358 360.082 437.232C359.579 435.723 359.201 432.577 360.334 426.664C362.347 416.096 352.911 408.296 347.626 413.328Z" stroke="black" stroke-miterlimit="10"/>
<path d="M379.86 196.548C381.873 194.032 380.489 189.251 376.715 184.722L367.656 196.045C372.94 198.687 377.847 199.064 379.86 196.548Z" fill="#FFA340"/>
<path d="M363.756 193.78L373.57 181.451C373.066 180.947 372.563 180.444 371.934 180.067L361.995 192.522C362.624 192.9 363.253 193.403 363.756 193.78Z" fill="#FFA340"/>
<path d="M377.929 199.108L380.367 196.064L354.345 175.222L351.907 178.267L377.929 199.108Z" fill="#FFA340"/>
<path d="M353.817 175.789C352.181 177.802 352.81 181.325 355.075 185.099L363.127 175.034C359.101 173.524 355.452 173.65 353.817 175.789Z" fill="#FFA340"/>
<path d="M367.656 196.045L376.715 184.722C375.834 183.589 374.828 182.583 373.695 181.451L363.882 193.78C365.014 194.661 366.398 195.416 367.656 196.045Z" fill="#FFB96E"/>
<path d="M361.869 192.396L361.995 192.522L371.934 180.067L371.808 179.941C368.914 177.676 365.895 175.915 363.127 175.034L355.075 185.099C356.71 187.49 358.975 190.006 361.869 192.396Z" fill="#FFB96E"/>
<path d="M352.433 177.55C355.201 174.153 363.253 176.041 370.424 181.702C377.596 187.49 381.244 194.912 378.476 198.309C375.708 201.706 367.656 199.819 360.485 194.158C353.188 188.496 349.665 181.073 352.433 177.55Z" fill="#E0821B"/>
<path d="M352.055 178.054C354.823 174.657 362.875 176.544 370.047 182.206C377.218 187.993 380.867 195.416 378.099 198.813C375.331 202.21 367.279 200.323 360.108 194.661C352.81 188.874 349.288 181.451 352.055 178.054Z" fill="#FCCA4C"/>
<path d="M354.698 180.192C356.837 177.55 363.127 179.06 368.915 183.715C374.576 188.245 377.596 194.158 375.457 196.8C373.318 199.442 367.027 197.932 361.24 193.277C355.453 188.622 352.559 182.835 354.698 180.192Z" fill="#FFE066"/>
<path d="M354.32 175.16L352.055 177.928L351.93 178.179C349.539 181.702 353.062 188.999 360.107 194.535C367.153 200.197 374.953 202.084 377.847 198.939L380.237 195.919L380.112 195.793C381.621 193.151 380.112 188.748 376.589 184.47C375.708 183.338 374.702 182.331 373.569 181.199C373.066 180.696 372.563 180.192 371.934 179.815L371.808 179.689C368.914 177.425 365.895 175.663 363.127 174.783C359.353 173.65 356.081 173.65 354.32 175.16Z" stroke="black" stroke-miterlimit="10"/>
<path d="M303.338 228.789C306.487 229.472 310.152 226.105 312.528 220.709L298.357 217.637C298.343 223.545 300.189 228.107 303.338 228.789Z" fill="#FFA340"/>
<path d="M298.649 213.136L314.057 216.436C314.284 215.762 314.511 215.087 314.569 214.356L298.991 210.999C298.933 211.73 298.763 212.518 298.649 213.136Z" fill="#FFA340"/>
<path d="M300.186 228.199L303.997 229.027L311.078 196.449L307.267 195.62L300.186 228.199Z" fill="#FFA340"/>
<path d="M310.336 196.228C307.805 195.659 304.931 197.791 302.559 201.499L315.156 204.229C314.716 199.952 312.979 196.741 310.336 196.228Z" fill="#FFA340"/>
<path d="M298.357 217.637L312.528 220.709C313.15 219.416 313.604 218.067 314.114 216.549L298.705 213.249C298.42 214.655 298.36 216.23 298.357 217.637Z" fill="#FFB96E"/>
<path d="M299.048 210.83L298.991 210.999L314.569 214.356L314.625 214.187C315.365 210.588 315.599 207.1 315.156 204.229L302.559 201.499C301.146 204.027 299.901 207.175 299.048 210.83Z" fill="#FFB96E"/>
<path d="M308.143 195.773C312.417 196.74 314.311 204.79 312.432 213.732C310.442 222.73 305.419 229.301 301.145 228.334C296.871 227.367 294.977 219.317 296.855 210.375C298.677 201.321 303.756 194.862 308.143 195.773Z" fill="#E0821B"/>
<path d="M307.524 195.659C311.798 196.626 313.692 204.676 311.814 213.618C309.823 222.616 304.8 229.187 300.526 228.22C296.252 227.253 294.358 219.203 296.236 210.261C298.171 201.151 303.25 194.692 307.524 195.659Z" fill="#FCCA4C"/>
<path d="M306.785 198.977C310.103 199.716 311.55 206.021 309.958 213.276C308.422 220.362 304.47 225.698 301.153 224.958C297.835 224.219 296.387 217.914 297.979 210.659C299.572 203.405 303.467 198.238 306.785 198.977Z" fill="#FFE066"/>
<path d="M311.123 196.399L307.636 195.603L307.355 195.602C303.137 195.03 298.17 201.432 296.349 210.205C294.415 219.034 296.197 226.859 300.301 228.051L304.069 228.847L304.126 228.679C307.164 228.855 310.435 225.543 312.697 220.484C313.319 219.192 313.773 217.842 314.283 216.324C314.509 215.65 314.736 214.975 314.794 214.244L314.851 214.075C315.591 210.476 315.824 206.988 315.381 204.117C314.715 200.234 313.259 197.304 311.123 196.399Z" stroke="black" stroke-miterlimit="10"/>
<path d="M273.796 447.493C276.312 439.566 284.742 435.163 292.668 437.679C300.594 440.195 304.998 448.625 302.481 456.551C299.965 464.477 291.536 468.881 283.609 466.364C275.809 463.848 271.406 455.419 273.796 447.493Z" fill="#E0821B"/>
<path d="M274.551 447.744C276.941 440.196 284.993 436.044 292.416 438.308C299.965 440.699 304.117 448.751 301.852 456.174C299.462 463.723 291.41 467.874 283.987 465.61C276.564 463.345 272.16 455.167 274.551 447.744Z" fill="#FCCA4C"/>
<path d="M277.319 448.625C279.206 442.586 285.622 439.315 291.535 441.202C297.574 443.089 300.846 449.506 298.958 455.419C297.071 461.458 290.655 464.729 284.742 462.842C278.828 460.955 275.431 454.538 277.319 448.625Z" fill="#FFE066"/>
<g opacity="0.23">
<g opacity="0.23">
<path opacity="0.23" d="M273.67 447.996L279.583 464.226C280.841 465.106 282.225 465.735 283.735 466.239C283.861 466.239 283.986 466.364 284.112 466.364L275.809 443.467C274.928 444.725 274.299 445.983 273.921 447.493C273.796 447.618 273.67 447.87 273.67 447.996Z" fill="#FFE066"/>
</g>
</g>
<g opacity="0.23">
<g opacity="0.23">
<path opacity="0.23" d="M298.707 462.716L289.397 437.05C286.755 436.798 284.238 437.302 281.848 438.434L292.039 466.616C294.555 465.735 296.945 464.477 298.707 462.716Z" fill="#FFE066"/>
</g>
</g>
<path d="M279.583 464.226C279.583 464.351 279.583 464.351 279.583 464.226C280.086 464.603 280.716 464.98 281.345 465.232C281.47 465.358 281.596 465.358 281.722 465.484C282.351 465.735 282.98 465.987 283.609 466.239C283.735 466.239 283.861 466.364 283.987 466.364C286.755 467.119 289.397 467.119 292.039 466.364C293.171 465.987 294.303 465.61 295.436 464.98C295.561 464.98 295.687 464.855 295.687 464.855C296.065 464.603 296.568 464.351 296.945 463.974C297.071 463.848 297.071 463.848 297.197 463.722C297.7 463.345 298.078 462.967 298.581 462.59C300.342 460.954 301.6 458.816 302.355 456.425C304.872 448.499 300.468 440.07 292.542 437.553C291.41 437.176 290.403 437.05 289.271 436.924C289.145 436.924 289.145 436.924 289.019 436.924C288.516 436.924 288.013 436.924 287.509 436.924C287.384 436.924 287.258 436.924 287.132 436.924C286.629 436.924 286.125 437.05 285.622 437.05C285.496 437.05 285.496 437.05 285.371 437.05C284.742 437.176 284.238 437.302 283.609 437.427L283.483 437.427C282.98 437.553 282.477 437.805 281.974 438.057C281.974 438.057 281.848 438.057 281.848 438.182C278.828 439.566 276.312 441.957 274.676 445.102C274.551 445.228 274.551 445.354 274.425 445.479C274.173 446.109 273.922 446.738 273.67 447.367C273.67 447.618 273.544 447.744 273.544 447.996C272.034 454.286 274.551 460.703 279.583 464.226Z" stroke="black" stroke-miterlimit="10"/>
<path d="M230.517 408.566C226.491 412.467 228.253 416.618 229.259 418.38C227.498 417.247 223.472 415.36 219.446 419.261C214.036 424.419 221.585 434.106 232.153 432.471C238.192 431.59 241.211 432.093 242.721 432.597C242.847 432.722 242.973 432.722 243.099 432.848C243.099 432.722 242.973 432.597 242.973 432.471C242.469 430.961 242.092 427.816 243.224 421.903C245.237 411.334 235.801 403.534 230.517 408.566Z" fill="#EF1818"/>
<path d="M230.517 408.566C226.491 412.467 228.253 416.618 229.259 418.38C227.498 417.247 223.472 415.36 219.446 419.261C214.036 424.419 221.585 434.106 232.153 432.471C238.192 431.59 241.211 432.093 242.721 432.597C242.847 432.722 242.973 432.722 243.099 432.848C243.099 432.722 242.973 432.597 242.973 432.471C242.469 430.961 242.092 427.816 243.224 421.903C245.237 411.334 235.801 403.534 230.517 408.566Z" stroke="black" stroke-miterlimit="10"/>
<path d="M156.687 442.731C159.203 434.805 167.633 430.401 175.559 432.918C183.485 435.434 187.888 443.863 185.372 451.789C182.856 459.716 174.426 464.119 166.5 461.603C158.7 459.087 154.296 450.657 156.687 442.731Z" fill="#E0821B"/>
<path d="M157.442 442.983C159.832 435.434 167.884 431.282 175.307 433.547C182.856 435.937 187.008 443.989 184.743 451.412C182.352 458.961 174.3 463.113 166.877 460.848C159.455 458.583 155.051 450.406 157.442 442.983Z" fill="#FCCA4C"/>
<path d="M160.209 443.863C162.097 437.824 168.513 434.553 174.426 436.44C180.465 438.328 183.736 444.744 181.849 450.657C179.962 456.696 173.546 459.967 167.632 458.08C161.719 456.193 158.322 449.776 160.209 443.863Z" fill="#FFE066"/>
<g opacity="0.23">
<g opacity="0.23">
<path opacity="0.23" d="M156.561 443.234L162.474 459.464C163.732 460.345 165.116 460.974 166.626 461.477C166.752 461.477 166.877 461.603 167.003 461.603L158.7 438.705C157.819 439.963 157.19 441.221 156.812 442.731C156.687 442.857 156.561 443.108 156.561 443.234Z" fill="#FFE066"/>
</g>
</g>
<g opacity="0.23">
<g opacity="0.23">
<path opacity="0.23" d="M181.598 457.954L172.287 432.288C169.645 432.037 167.129 432.54 164.739 433.672L174.93 461.854C177.446 460.974 179.836 459.716 181.598 457.954Z" fill="#FFE066"/>
</g>
</g>
<path d="M162.474 459.464C162.474 459.59 162.474 459.59 162.474 459.464C162.977 459.841 163.606 460.219 164.235 460.47C164.361 460.596 164.487 460.596 164.613 460.722C165.242 460.974 165.871 461.225 166.5 461.477C166.626 461.477 166.752 461.603 166.878 461.603C169.645 462.358 172.288 462.358 174.93 461.603C176.062 461.225 177.194 460.848 178.326 460.219C178.452 460.219 178.578 460.093 178.578 460.093C178.956 459.841 179.459 459.59 179.836 459.212C179.962 459.087 179.962 459.087 180.088 458.961C180.591 458.583 180.969 458.206 181.472 457.828C183.233 456.193 184.491 454.054 185.246 451.664C187.762 443.737 183.359 435.308 175.433 432.792C174.3 432.414 173.294 432.288 172.162 432.163C172.036 432.163 172.036 432.163 171.91 432.163C171.407 432.163 170.904 432.163 170.4 432.163C170.274 432.163 170.149 432.163 170.023 432.163C169.52 432.163 169.016 432.288 168.513 432.288C168.387 432.288 168.387 432.288 168.261 432.288C167.632 432.414 167.129 432.54 166.5 432.666L166.374 432.666C165.871 432.792 165.368 433.043 164.865 433.295C164.865 433.295 164.739 433.295 164.739 433.421C161.719 434.805 159.203 437.195 157.567 440.34C157.442 440.466 157.442 440.592 157.316 440.718C157.064 441.347 156.812 441.976 156.561 442.605C156.561 442.857 156.435 442.982 156.435 443.234C154.925 449.525 157.442 455.941 162.474 459.464Z" stroke="black" stroke-miterlimit="10"/>
<path d="M37.8334 562.614C39.7206 565.256 44.6274 565.256 50.0373 562.866L41.6078 550.914C37.7076 555.317 35.9463 559.972 37.8334 562.614Z" fill="#FFA340"/>
<path d="M45.0048 547.894L54.0633 560.727C54.6924 560.349 55.3215 559.972 55.8247 559.595L46.6403 546.51C46.1371 547.013 45.508 547.517 45.0048 547.894Z" fill="#FFA340"/>
<path d="M63.1664 540.646L35.934 559.88L38.184 563.066L65.4164 543.832L63.1664 540.646Z" fill="#FFA340"/>
<path d="M65.1349 543.365C63.6252 541.226 60.1025 540.848 55.8248 541.981L63.2477 552.423C65.764 549.026 66.6447 545.504 65.1349 543.365Z" fill="#FFA340"/>
<path d="M41.7338 550.914L50.1632 562.866C51.4214 562.362 52.8052 561.608 54.1892 560.853L45.1307 548.02C43.7468 548.9 42.7403 549.907 41.7338 550.914Z" fill="#FFB96E"/>
<path d="M46.892 546.51L46.7662 546.636L55.9506 559.72L56.0763 559.594C59.0958 557.456 61.4863 555.065 63.2477 552.675L55.8248 542.232C53.0569 542.861 49.9115 544.371 46.892 546.51Z" fill="#FFB96E"/>
<path d="M63.751 541.477C66.2672 545.126 62.2412 552.297 54.6924 557.581C47.1437 562.866 38.9658 564.25 36.4496 560.727C33.9333 557.078 37.9593 549.907 45.5081 544.623C53.0569 539.213 61.2347 537.829 63.751 541.477Z" fill="#E0821B"/>
<path d="M63.3735 540.974C65.8898 544.623 61.8638 551.794 54.315 557.078C46.7662 562.362 38.5884 563.746 36.0721 560.224C33.5559 556.575 37.5819 549.404 45.1307 544.119C52.6794 538.71 60.8573 537.326 63.3735 540.974Z" fill="#FCCA4C"/>
<path d="M60.6056 542.861C62.6186 545.629 59.3475 551.291 53.3085 555.568C47.2695 559.846 40.853 560.978 38.9658 558.211C36.9528 555.443 40.2239 549.781 46.2629 545.503C52.1761 541.352 58.5926 540.093 60.6056 542.861Z" fill="#FFE066"/>
<path d="M65.5122 543.868L63.7509 541.352L63.3734 540.848L63.2476 540.597C60.4797 537.326 52.5535 538.71 45.2564 543.868C37.9592 549.026 33.9332 556.072 36.072 559.72L38.3366 562.866H38.4624C40.6012 565.005 45.1305 564.879 50.2889 562.614C51.547 562.111 52.931 561.356 54.3149 560.601C54.944 560.224 55.573 559.846 56.0762 559.469L56.2021 559.343C59.2216 557.204 61.612 554.814 63.3734 552.423C65.6381 549.278 66.3929 546.133 65.5122 543.868Z" stroke="black" stroke-miterlimit="10"/>
<path d="M427.176 566.134C432.334 563.995 432.208 559.466 431.831 557.453C433.089 559.214 436.109 562.36 441.267 560.221C448.187 557.327 444.664 545.627 434.221 543.236C428.308 541.852 425.666 540.342 424.408 539.21C424.282 539.084 424.156 538.958 424.031 538.833C424.031 538.958 424.031 539.084 424.031 539.336C423.905 540.971 423.15 543.991 420.005 549.149C414.469 558.208 420.256 568.902 427.176 566.134Z" fill="#EF1818"/>
<path d="M427.176 566.134C432.334 563.995 432.208 559.466 431.831 557.453C433.089 559.214 436.109 562.36 441.267 560.221C448.187 557.327 444.664 545.627 434.221 543.236C428.308 541.852 425.666 540.342 424.408 539.21C424.282 539.084 424.156 538.958 424.031 538.833C424.031 538.958 424.031 539.084 424.031 539.336C423.905 540.971 423.15 543.991 420.005 549.149C414.469 558.208 420.256 568.902 427.176 566.134Z" stroke="black" stroke-miterlimit="10"/>
<path d="M413.101 34.4398C411.969 37.4594 414.737 41.4854 419.769 44.7565L424.928 31.1687C419.015 30.1622 414.234 31.2945 413.101 34.4398Z" fill="#FFA340"/>
<path d="M429.205 32.0495L423.67 46.7696C424.299 47.0212 424.928 47.3987 425.683 47.6503L431.344 32.6786C430.589 32.427 429.96 32.3012 429.205 32.0495Z" fill="#FFA340"/>
<path d="M414.135 31.3719L412.761 35.0221L443.965 46.7612L445.338 43.1111L414.135 31.3719Z" fill="#FFA340"/>
<path d="M444.303 46.1405C445.184 43.6243 443.548 40.6048 440.151 37.7111L435.622 49.7891C440.025 49.7891 443.422 48.6568 444.303 46.1405Z" fill="#FFA340"/>
<path d="M424.928 31.043L419.769 44.6308C420.902 45.3857 422.286 46.1405 423.67 46.7696L429.205 32.0495C427.821 31.5463 426.312 31.2946 424.928 31.043Z" fill="#FFB96E"/>
<path d="M431.47 32.8044C431.344 32.8044 431.344 32.8044 431.218 32.6786L425.557 47.6503C425.683 47.6503 425.683 47.6503 425.808 47.7761C429.205 49.0343 432.602 49.7891 435.622 49.7891L440.151 37.7111C438.012 35.8239 434.993 34.0625 431.47 32.8044Z" fill="#FFB96E"/>
<path d="M445.184 43.8758C443.674 48.0277 435.371 48.6567 426.815 45.5114C418.26 42.2403 412.473 36.3271 413.982 32.1753C415.492 28.0234 423.796 27.3944 432.351 30.5397C440.906 33.8108 446.694 39.724 445.184 43.8758Z" fill="#E0821B"/>
<path d="M445.309 43.3726C443.8 47.5245 435.496 48.1535 426.941 45.0082C418.385 41.737 412.598 35.8238 414.108 31.672C415.617 27.5202 423.921 26.8911 432.476 30.0364C441.158 33.3076 446.945 39.2208 445.309 43.3726Z" fill="#FCCA4C"/>
<path d="M442.164 42.1144C440.906 45.2597 434.49 45.7629 427.57 43.2467C420.776 40.7304 416.121 35.9496 417.379 32.8042C418.637 29.6589 425.054 29.1556 431.973 31.6719C438.767 34.314 443.297 38.9691 442.164 42.1144Z" fill="#FFE066"/>
<path d="M444.051 46.7694L445.435 43.1209C446.693 38.9691 441.032 33.1816 432.602 30.0363C424.173 26.891 416.121 27.5201 414.359 31.4203L412.976 35.0688H413.101C412.472 37.9625 415.24 41.7369 419.895 44.7564C421.028 45.5113 422.412 46.2662 423.795 46.8953C424.425 47.1469 425.054 47.5243 425.808 47.776C425.934 47.776 425.934 47.7759 426.06 47.9018C429.457 49.1599 432.854 49.9147 435.873 49.9147C439.648 49.7889 442.793 48.7824 444.051 46.7694Z" stroke="black" stroke-miterlimit="10"/>
<path d="M47.9253 31.7611C43.1444 28.8674 39.6217 31.6353 38.1119 33.1451C38.741 31.1321 39.4959 26.7286 34.715 23.8349C28.2985 20.0605 21.0014 29.7481 25.279 39.5615C27.6695 45.0973 28.0469 48.2426 27.9211 49.7524C27.9211 49.8782 27.9211 50.1298 27.7953 50.2556C27.9211 50.1298 28.047 50.1297 28.1728 50.0039C29.5567 49.1232 32.3245 47.9909 38.4894 47.4877C49.0576 46.607 54.3418 35.5355 47.9253 31.7611Z" fill="#EF1818"/>
<path d="M38.4894 47.4877C49.1835 46.7328 54.3418 35.5355 47.9253 31.7611C43.1444 28.8674 39.6217 31.6353 38.1119 33.1451C38.741 31.1321 39.4959 26.7286 34.715 23.8349C28.2985 20.0605 21.0014 29.7481 25.279 39.5615C27.6695 45.0973 28.0469 48.2426 27.9211 49.7524C27.9211 49.8782 27.9211 50.1298 27.7953 50.2556C27.9211 50.1298 28.047 50.1297 28.1728 50.0039C29.5567 48.9974 32.4503 47.8651 38.4894 47.4877Z" stroke="black" stroke-miterlimit="10"/>
<path d="M196.475 68.8147C197.482 65.6694 194.462 61.7693 189.304 58.8756L184.774 72.715C190.813 73.344 195.469 71.9601 196.475 68.8147Z" fill="#FFA340"/>
<path d="M180.497 71.96L185.403 56.9883C184.774 56.7367 184.019 56.485 183.39 56.2334L178.484 71.4568C179.113 71.5826 179.742 71.7084 180.497 71.96Z" fill="#FFA340"/>
<path d="M195.531 71.9154L196.732 68.2047L165.012 57.9325L163.811 61.6432L195.531 71.9154Z" fill="#FFA340"/>
<path d="M164.77 58.6239C164.015 61.1401 165.777 64.1597 169.3 66.8017L173.2 54.5979C168.922 54.5979 165.651 56.1076 164.77 58.6239Z" fill="#FFA340"/>
<path d="M184.9 72.7149L189.43 58.8755C188.172 58.1206 186.788 57.4915 185.404 56.9883L180.497 71.96C182.007 72.3374 183.516 72.5891 184.9 72.7149Z" fill="#FFB96E"/>
<path d="M178.232 71.331C178.358 71.331 178.358 71.331 178.484 71.331L183.391 56.1076C183.265 56.1076 183.265 56.1076 183.139 55.9818C179.616 54.8495 176.219 54.3463 173.326 54.4721L169.425 66.6759C171.564 68.5631 174.71 70.1986 178.232 71.331Z" fill="#FFB96E"/>
<path d="M164.015 60.7627C165.399 56.6109 173.577 55.4786 182.384 58.2465C191.191 61.1402 197.104 66.8017 195.72 70.9535C194.336 75.1054 186.158 76.2377 177.351 73.4698C168.67 70.7019 162.757 65.0404 164.015 60.7627Z" fill="#E0821B"/>
<path d="M163.89 61.3918C165.274 57.24 173.451 56.1077 182.258 58.8755C191.065 61.7692 196.978 67.4308 195.595 71.5826C194.211 75.7344 186.033 76.8667 177.226 74.0989C168.545 71.331 162.506 65.5436 163.89 61.3918Z" fill="#FCCA4C"/>
<path d="M167.161 62.3982C168.167 59.1271 174.709 58.3722 181.629 60.6368C188.549 62.9014 193.33 67.3049 192.323 70.5761C191.317 73.8472 184.774 74.602 177.855 72.3374C170.935 70.0728 166.028 65.6694 167.161 62.3982Z" fill="#FFE066"/>
<path d="M177.226 74.0988C185.781 76.8667 193.833 75.8602 195.469 71.96L196.475 68.8147L196.727 68.1856C197.104 65.1661 194.211 61.6434 189.43 58.8755C188.172 58.1206 186.788 57.4915 185.404 56.9883C184.775 56.7367 184.02 56.485 183.391 56.2334C183.265 56.2334 183.265 56.2334 183.139 56.1076C179.616 54.9753 176.219 54.472 173.326 54.5978C169.3 54.7236 166.28 55.856 165.148 57.9948L165.022 57.9948L164.77 58.6238L164.015 60.8885L163.89 61.5175L163.764 61.7692C162.757 65.7952 168.671 71.3309 177.226 74.0988Z" stroke="black" stroke-miterlimit="10"/>
<path d="M222.213 536.82C224.729 528.893 233.158 524.49 241.085 527.006C249.011 529.522 253.414 537.952 250.898 545.878C248.382 553.804 239.952 558.208 232.026 555.692C224.226 553.175 219.822 544.746 222.213 536.82Z" fill="#E0821B"/>
<path d="M222.968 536.945C225.358 529.397 233.41 525.245 240.833 527.509C248.382 529.9 252.534 537.952 250.269 545.375C247.879 552.924 239.827 557.075 232.404 554.811C224.981 552.546 220.577 544.494 222.968 536.945Z" fill="#FCCA4C"/>
<path d="M225.736 537.826C227.623 531.787 234.039 528.516 239.952 530.403C245.991 532.29 249.263 538.707 247.375 544.62C245.488 550.659 239.072 553.93 233.159 552.043C227.245 550.156 223.974 543.865 225.736 537.826Z" fill="#FFE066"/>
<g opacity="0.23">
<g opacity="0.23">
<path opacity="0.23" d="M247.124 552.043L237.814 526.377C235.172 526.125 232.655 526.629 230.265 527.761L240.456 555.943C243.098 555.062 245.362 553.804 247.124 552.043Z" fill="#FFE066"/>
</g>
</g>
<path d="M228 553.553C228 553.679 228 553.679 228 553.553C228.503 553.93 229.132 554.308 229.762 554.559C229.887 554.685 230.013 554.685 230.139 554.811C230.768 555.062 231.397 555.314 232.026 555.566C232.152 555.566 232.278 555.692 232.404 555.692C235.171 556.446 237.814 556.446 240.456 555.692C241.588 555.314 242.72 554.937 243.853 554.308C243.978 554.308 244.104 554.182 244.104 554.182C244.482 553.93 244.985 553.679 245.362 553.301C245.488 553.175 245.488 553.175 245.614 553.049C246.117 552.672 246.495 552.295 246.998 551.917C248.759 550.282 250.017 548.143 250.772 545.752C253.289 537.826 248.885 529.397 240.959 526.88C239.827 526.503 238.82 526.377 237.688 526.251C237.562 526.251 237.562 526.251 237.436 526.251C236.933 526.251 236.43 526.251 235.926 526.251C235.801 526.251 235.675 526.251 235.549 526.251C235.046 526.251 234.542 526.377 234.039 526.377C233.913 526.377 233.913 526.377 233.788 526.377C233.159 526.503 232.655 526.629 232.026 526.755L231.9 526.755C231.397 526.88 230.894 527.132 230.391 527.384C230.391 527.384 230.265 527.384 230.265 527.509C227.245 528.893 224.729 531.284 223.093 534.429C222.968 534.555 222.968 534.681 222.842 534.807C222.59 535.436 222.339 536.065 222.087 536.694C222.087 536.945 221.961 537.071 221.961 537.323C220.451 543.613 222.968 550.03 228 553.553Z" stroke="black" stroke-miterlimit="10"/>
<path d="M339.904 525.764C340.91 522.744 338.016 518.718 332.858 515.699L328.203 529.538C334.116 530.167 338.771 528.783 339.904 525.764Z" fill="#FFA340"/>
<path d="M323.8 528.658L328.832 513.686C328.203 513.434 327.448 513.183 326.819 512.931L321.787 528.029C322.416 528.28 323.045 528.532 323.8 528.658Z" fill="#FFA340"/>
<path d="M338.78 528.775L340.016 525.076L308.396 514.507L307.16 518.206L338.78 528.775Z" fill="#FFA340"/>
<path d="M308.199 515.196C307.318 517.712 309.205 520.731 312.602 523.499L316.628 511.295C312.35 511.295 309.079 512.679 308.199 515.196Z" fill="#FFA340"/>
<path d="M328.203 529.538L332.858 515.699C331.6 514.944 330.342 514.315 328.832 513.686L323.8 528.658C325.309 529.035 326.819 529.412 328.203 529.538Z" fill="#FFB96E"/>
<path d="M321.535 528.029C321.661 528.029 321.661 528.029 321.787 528.029L326.819 512.931C326.693 512.931 326.693 512.931 326.567 512.805C323.045 511.673 319.648 511.044 316.754 511.17L312.728 523.374C314.993 525.261 318.012 526.896 321.535 528.029Z" fill="#FFB96E"/>
<path d="M307.444 517.46C308.828 513.309 317.006 512.302 325.812 515.196C334.494 518.089 340.533 523.877 339.149 528.029C337.765 532.181 329.587 533.187 320.78 530.293C311.973 527.4 306.06 521.612 307.444 517.46Z" fill="#E0821B"/>
<path d="M307.318 517.964C308.702 513.812 316.88 512.805 325.687 515.699C334.368 518.593 340.407 524.38 339.023 528.532C337.639 532.684 329.461 533.69 320.654 530.796C311.848 527.903 305.934 522.241 307.318 517.964Z" fill="#FCCA4C"/>
<path d="M310.463 519.096C311.596 515.825 318.012 515.196 324.932 517.46C331.852 519.725 336.632 524.254 335.5 527.525C334.368 530.796 327.951 531.425 321.032 529.161C314.238 526.77 309.457 522.241 310.463 519.096Z" fill="#FFE066"/>
<path d="M320.528 530.796C329.084 533.69 337.136 532.684 338.771 528.783L338.897 528.532L340.029 525.135C340.533 522.115 337.639 518.593 332.858 515.699C331.6 514.944 330.342 514.315 328.832 513.686C328.203 513.434 327.448 513.183 326.819 512.931C326.693 512.931 326.693 512.931 326.567 512.805C323.045 511.673 319.648 511.044 316.754 511.17C312.728 511.295 309.709 512.428 308.576 514.567L308.45 514.567L307.318 517.964L307.192 518.215C306.186 522.493 311.973 528.029 320.528 530.796Z" stroke="black" stroke-miterlimit="10"/>
<path d="M41.3587 264.286C43.1201 266.928 48.1527 267.054 53.5626 264.789L45.3848 252.711C41.3588 256.989 39.5974 261.518 41.3587 264.286Z" fill="#FFA340"/>
<path d="M48.7816 249.692L57.5885 262.776C58.2176 262.399 58.8466 262.021 59.4757 261.644L50.5429 248.433C49.9139 248.811 49.4107 249.314 48.7816 249.692Z" fill="#FFA340"/>
<path d="M67.2913 242.954L39.6721 261.631L41.857 264.862L69.4762 246.185L67.2913 242.954Z" fill="#FFA340"/>
<path d="M69.0375 245.54C67.5277 243.401 64.005 242.898 59.8531 244.03L67.0245 254.724C69.5408 251.201 70.4214 247.804 69.0375 245.54Z" fill="#FFA340"/>
<path d="M45.5106 252.711L53.6885 264.789C54.9466 264.286 56.3305 263.531 57.7145 262.776L48.9076 249.692C47.5236 250.698 46.5171 251.705 45.5106 252.711Z" fill="#FFB96E"/>
<path d="M50.6689 248.308L50.5431 248.433L59.4758 261.644L59.6016 261.518C62.6211 259.505 65.1374 257.115 66.8988 254.724L59.7275 244.03C56.9596 244.785 53.8143 246.295 50.6689 248.308Z" fill="#FFB96E"/>
<path d="M67.6536 243.652C70.1699 247.301 65.8922 254.472 58.3434 259.631C50.6688 264.789 42.491 266.047 40.1006 262.399C37.5843 258.75 41.862 251.579 49.4107 246.42C56.9595 241.262 65.1373 240.004 67.6536 243.652Z" fill="#E0821B"/>
<path d="M67.2762 243.149C69.7924 246.798 65.5147 253.969 57.966 259.127C50.2914 264.286 42.1136 265.544 39.7231 261.895C37.2069 258.247 41.4845 251.075 49.0333 245.917C56.7079 240.759 64.8857 239.501 67.2762 243.149Z" fill="#FCCA4C"/>
<path d="M64.5083 245.036C66.3954 247.804 62.9985 253.466 56.9595 257.492C50.9205 261.644 44.3782 262.65 42.491 259.882C40.6038 257.114 44.0008 251.453 50.0398 247.427C56.2046 243.275 62.6211 242.269 64.5083 245.036Z" fill="#FFE066"/>
<path d="M49.0342 245.917C41.6112 250.95 37.4594 257.869 39.5982 261.644L41.3595 264.286L41.737 264.789H41.8628C44.0016 266.928 48.5309 266.928 53.6892 264.789C54.9473 264.286 56.3313 263.531 57.7152 262.776C58.3443 262.398 58.9733 262.021 59.6024 261.644L59.7283 261.518C62.7478 259.505 65.264 257.114 67.0254 254.724C69.4158 251.453 70.2965 248.307 69.4158 246.169H69.5416L69.1642 245.665L67.7802 243.652L67.4028 243.149L67.277 242.898C64.5091 239.501 56.4571 240.759 49.0342 245.917Z" stroke="black" stroke-miterlimit="10"/>
<path d="M398.556 336.63C395.537 335.372 391.385 338.14 388.114 343.046L401.576 348.456C402.708 342.543 401.576 337.762 398.556 336.63Z" fill="#FFA340"/>
<path d="M400.57 352.734L385.975 346.821C385.724 347.45 385.346 348.079 385.095 348.834L399.941 354.747C400.066 354.118 400.318 353.489 400.57 352.734Z" fill="#FFA340"/>
<path d="M398.057 336.274L385.581 367.194L389.198 368.653L401.674 337.733L398.057 336.274Z" fill="#FFA340"/>
<path d="M386.101 367.454C388.491 368.46 391.763 366.825 394.656 363.554L382.704 358.773C382.452 363.176 383.711 366.447 386.101 367.454Z" fill="#FFA340"/>
<path d="M401.701 348.456L388.24 343.046C387.485 344.179 386.73 345.562 385.975 346.946L400.569 352.86C401.072 351.35 401.45 349.84 401.701 348.456Z" fill="#FFB96E"/>
<path d="M399.814 354.998C399.814 354.873 399.814 354.873 399.94 354.747L385.094 348.834C385.094 348.959 385.094 348.959 384.968 349.085C383.584 352.482 382.829 355.879 382.704 358.773L394.656 363.554C396.543 361.415 398.43 358.395 399.814 354.998Z" fill="#FFB96E"/>
<path d="M388.365 368.335C384.339 366.699 383.71 358.395 387.233 349.84C390.63 341.285 396.795 335.749 400.821 337.385C404.847 339.02 405.476 347.324 401.953 355.879C398.43 364.434 392.391 369.97 388.365 368.335Z" fill="#E0821B"/>
<path d="M388.869 368.586C384.843 366.951 384.214 358.647 387.736 350.092C391.133 341.537 397.298 336.001 401.324 337.636C405.35 339.272 405.979 347.576 402.456 356.131C399.06 364.686 392.895 370.222 388.869 368.586Z" fill="#FCCA4C"/>
<path d="M390.127 365.441C386.982 364.183 386.604 357.64 389.372 350.847C392.14 344.053 396.921 339.649 400.066 340.907C403.211 342.165 403.589 348.708 400.821 355.502C398.053 362.296 393.272 366.699 390.127 365.441Z" fill="#FFE066"/>
<path d="M388.114 343.046C387.359 344.179 386.604 345.563 385.849 346.946C385.598 347.576 385.22 348.205 384.969 348.96C384.969 349.085 384.969 349.085 384.843 349.211C383.459 352.608 382.704 356.005 382.578 358.899C382.452 362.925 383.333 366.07 385.472 367.328V367.454L386.101 367.706L388.869 368.838L389.12 368.964C393.146 370.222 399.06 364.812 402.457 356.382C405.853 348.079 405.35 340.027 401.576 338.14L398.556 336.881L397.927 336.63V336.756C395.034 335.749 391.259 338.391 388.114 343.046Z" stroke="black" stroke-miterlimit="10"/>
<path d="M314.583 379.421C317.516 377.972 318.159 373.024 316.61 367.334L303.685 373.925C307.398 378.664 311.745 380.953 314.583 379.421Z" fill="#FFA340"/>
<path d="M301.123 370.355L315.171 363.241C314.862 362.638 314.636 361.94 314.233 361.254L300.019 368.558C300.41 369.066 300.719 369.669 301.123 370.355Z" fill="#FFA340"/>
<path d="M315.18 379.279L300.075 349.555L296.598 351.322L311.703 381.046L315.18 379.279Z" fill="#FFA340"/>
<path d="M299.537 349.775C297.208 350.916 296.29 354.456 296.854 358.787L308.313 352.92C305.159 349.837 301.867 348.635 299.537 349.775Z" fill="#FFA340"/>
<path d="M303.603 374.019L316.528 367.428C316.17 366.115 315.624 364.637 315.077 363.158L301.028 370.272C301.835 371.643 302.725 372.92 303.603 374.019Z" fill="#FFB96E"/>
<path d="M299.912 368.297C300.007 368.38 300.007 368.38 300.019 368.557L314.233 361.254C314.138 361.171 314.138 361.171 314.126 360.994C312.475 357.718 310.411 354.917 308.313 352.92L296.854 358.786C297.226 361.615 298.262 365.021 299.912 368.297Z" fill="#FFB96E"/>
<path d="M297.385 350.903C301.264 348.944 307.936 353.927 312.069 362.205C316.284 370.388 316.405 378.672 312.526 380.632C308.648 382.591 301.976 377.608 297.843 369.33C293.71 361.052 293.507 352.863 297.385 350.903Z" fill="#E0821B"/>
<path d="M296.865 351.117C300.743 349.158 307.415 354.141 311.548 362.419C315.764 370.602 315.885 378.886 312.006 380.846C308.127 382.805 301.455 377.822 297.322 369.544C293.107 361.361 292.986 353.077 296.865 351.117Z" fill="#FCCA4C"/>
<path d="M298.409 354.133C301.424 352.589 306.603 356.604 309.904 363.155C313.206 369.707 313.383 376.204 310.367 377.748C307.352 379.291 302.173 375.276 298.871 368.725C295.57 362.174 295.393 355.676 298.409 354.133Z" fill="#FFE066"/>
<path d="M316.61 367.334C316.253 366.02 315.706 364.542 315.159 363.063C314.85 362.46 314.624 361.762 314.221 361.077C314.126 360.994 314.126 360.994 314.114 360.817C312.463 357.541 310.399 354.739 308.301 352.743C305.349 350.002 302.4 348.599 300.046 349.384L299.951 349.301L299.348 349.61L296.675 350.952L296.415 351.059C292.821 353.266 293.012 361.279 297.133 369.379C301.159 377.397 307.558 382.309 311.461 380.705L314.394 379.256L314.997 378.947L314.902 378.864C317.563 377.345 318.052 372.764 316.61 367.334Z" stroke="black" stroke-miterlimit="10"/>
<path d="M227.049 151.455C231.956 148.687 231.327 144.284 230.698 142.271C232.082 143.78 235.604 146.674 240.385 143.906C246.802 140.258 242.021 129.06 231.327 127.928C225.288 127.299 222.52 126.041 221.136 125.16C221.01 125.034 220.884 124.908 220.759 124.908C220.759 125.034 220.759 125.16 220.759 125.412C220.884 127.047 220.507 130.067 217.865 135.603C213.461 145.164 220.507 155.104 227.049 151.455Z" fill="#EF1818"/>
<path d="M217.991 135.477C213.461 145.164 220.507 155.103 227.049 151.455C231.956 148.687 231.327 144.284 230.698 142.271C232.082 143.78 235.604 146.674 240.385 143.906C246.802 140.258 242.021 129.06 231.327 127.928C225.288 127.299 222.52 126.041 221.136 125.16C221.01 125.034 220.884 124.908 220.759 124.908C220.759 125.034 220.759 125.16 220.759 125.412C221.01 126.921 220.633 130.067 217.991 135.477Z" stroke="black" stroke-miterlimit="10"/>
<path d="M152.423 522.852C148.397 526.752 150.159 530.904 151.291 532.665C149.529 531.533 145.503 529.646 141.477 533.546C136.193 538.704 143.742 548.392 154.31 546.63C160.349 545.624 163.369 546.127 164.879 546.756C165.004 546.756 165.13 546.882 165.256 546.882C165.256 546.756 165.13 546.63 165.13 546.504C164.627 544.995 164.25 541.849 165.256 535.936C167.269 525.494 157.833 517.693 152.423 522.852Z" fill="#EF1818"/>
<path d="M152.423 522.852C148.397 526.752 150.159 530.904 151.291 532.665C149.529 531.533 145.503 529.646 141.477 533.546C136.193 538.704 143.742 548.392 154.31 546.63C160.349 545.624 163.369 546.127 164.879 546.756C165.004 546.756 165.13 546.882 165.256 546.882C165.256 546.756 165.13 546.63 165.13 546.504C164.627 544.995 164.25 541.849 165.256 535.936C167.269 525.494 157.833 517.693 152.423 522.852Z" stroke="black" stroke-miterlimit="10"/>
<path d="M372.958 76.5496C370.442 84.4758 362.012 88.8792 354.086 86.363C346.16 83.8467 341.756 75.4172 344.273 67.491C346.789 59.5648 355.218 55.1614 363.145 57.6776C370.945 60.1939 375.348 68.6234 372.958 76.5496Z" fill="#E0821B"/>
<path d="M372.203 76.4238C369.813 83.9726 361.761 88.1244 354.338 85.8597C346.789 83.4693 342.637 75.4173 344.902 67.9943C347.292 60.4455 355.344 56.2937 362.767 58.5583C370.19 60.823 374.593 68.875 372.203 76.4238Z" fill="#FCCA4C"/>
<path d="M369.435 75.543C367.548 81.582 361.131 84.8532 355.218 82.966C349.179 81.0788 345.908 74.6624 347.795 68.7492C349.682 62.7101 356.099 59.439 362.012 61.3262C367.925 63.2134 371.196 69.504 369.435 75.543Z" fill="#FFE066"/>
<g opacity="0.23">
<g opacity="0.23">
<path opacity="0.23" d="M373.084 76.0464L367.171 59.8165C365.913 58.9358 364.529 58.3068 363.019 57.8036C362.893 57.8036 362.767 57.6778 362.641 57.6778L370.945 80.7015C371.826 79.4434 372.455 78.1852 372.832 76.6755C372.958 76.4239 372.958 76.1722 373.084 76.0464Z" fill="#FFE066"/>
</g>
</g>
<g opacity="0.23">
<g opacity="0.23">
<path opacity="0.23" d="M348.047 61.3262L357.357 86.9921C359.999 87.2437 362.515 86.7404 364.906 85.6081L354.715 57.4261C352.073 58.3067 349.808 59.5648 348.047 61.3262Z" fill="#FFE066"/>
</g>
</g>
<path d="M367.171 59.8164C367.171 59.6906 367.171 59.6906 367.171 59.8164C366.667 59.439 366.038 59.0616 365.409 58.81C365.283 58.6841 365.158 58.6841 365.032 58.5583C364.403 58.3067 363.774 58.0551 363.145 57.8035C363.019 57.8035 362.893 57.6777 362.767 57.6777C359.999 56.9228 357.357 56.9228 354.715 57.6777C353.583 58.0551 352.45 58.4325 351.318 59.0616C351.192 59.0616 351.066 59.1874 351.066 59.1874C350.689 59.439 350.186 59.6906 349.808 60.0681C349.682 60.1939 349.683 60.1939 349.557 60.3197C349.053 60.6972 348.676 61.0746 348.173 61.4521C346.411 63.0876 345.153 65.2264 344.398 67.6169C341.882 75.5431 346.286 83.9725 354.212 86.4888C355.344 86.8662 356.351 86.992 357.483 87.1178C357.609 87.1178 357.609 87.1178 357.735 87.1178C358.238 87.1178 358.741 87.1178 359.244 87.1178C359.37 87.1178 359.496 87.1178 359.622 87.1178C360.125 87.1178 360.628 86.9921 361.131 86.9921C361.257 86.9921 361.257 86.9921 361.383 86.9921C362.012 86.8662 362.515 86.7404 363.145 86.6146H363.27C363.774 86.4888 364.277 86.2372 364.78 85.9856C364.78 85.9856 364.906 85.9855 364.906 85.8597C367.925 84.4758 370.442 82.0853 372.077 78.94C372.203 78.8142 372.203 78.6884 372.329 78.5626C372.58 77.9335 372.832 77.3045 373.084 76.6754C373.084 76.4238 373.21 76.298 373.21 76.0463C374.719 69.7557 372.203 63.3392 367.171 59.8164Z" stroke="black" stroke-miterlimit="10"/>
<path d="M55.7586 335.737C59.7846 331.837 58.0233 327.685 57.0168 325.924C58.7781 327.056 62.8041 328.943 66.8301 325.043C72.2401 319.885 64.6914 310.197 54.1231 311.833C48.0841 312.713 45.0645 312.21 43.5548 311.707C43.429 311.581 43.3032 311.581 43.1773 311.455C43.1773 311.581 43.3031 311.707 43.3031 311.833C43.8064 313.342 44.1838 316.488 43.0515 322.401C41.0385 332.969 50.4745 340.77 55.7586 335.737Z" fill="#EF1818"/>
<path d="M55.7586 335.737C59.7846 331.837 58.0233 327.685 57.0168 325.924C58.7781 327.056 62.8041 328.943 66.8301 325.043C72.2401 319.885 64.6914 310.197 54.1231 311.833C48.0841 312.713 45.0645 312.21 43.5548 311.707C43.429 311.581 43.3032 311.581 43.1773 311.455C43.1773 311.581 43.3031 311.707 43.3031 311.833C43.8064 313.342 44.1838 316.488 43.0515 322.401C41.0385 332.969 50.4745 340.77 55.7586 335.737Z" stroke="black" stroke-miterlimit="10"/>
<path d="M55.3658 485.795C58.3853 487.053 62.5371 484.285 65.8082 479.379L52.3462 473.969C51.2139 479.882 52.3463 484.663 55.3658 485.795Z" fill="#FFA340"/>
<path d="M53.3527 469.691L67.947 475.604C68.1986 474.975 68.576 474.346 68.8276 473.591L53.9817 467.678C53.8559 468.307 53.6043 468.936 53.3527 469.691Z" fill="#FFA340"/>
<path d="M55.8651 486.151L68.3411 455.231L64.724 453.772L52.2481 484.691L55.8651 486.151Z" fill="#FFA340"/>
<path d="M67.8212 454.971C65.4308 453.964 62.1597 455.6 59.266 458.871L71.2182 463.652C71.4698 459.248 70.2117 455.977 67.8212 454.971Z" fill="#FFA340"/>
<path d="M52.2203 473.969L65.6822 479.379C66.4371 478.246 67.192 476.862 67.9469 475.478L53.3526 469.565C52.8493 471.075 52.4719 472.585 52.2203 473.969Z" fill="#FFB96E"/>
<path d="M54.1077 467.426C54.1077 467.552 54.1077 467.552 53.9819 467.678L68.8278 473.591C68.8278 473.465 68.8278 473.465 68.9536 473.34C70.3376 469.943 71.0924 466.546 71.2183 463.652L59.266 458.871C57.3789 461.01 55.4917 464.029 54.1077 467.426Z" fill="#FFB96E"/>
<path d="M65.5566 454.09C69.5826 455.726 70.2117 464.029 66.6889 472.585C63.292 481.14 57.1271 486.676 53.1011 485.04C49.0751 483.405 48.4461 475.101 51.9688 466.546C55.4916 457.99 61.5306 452.455 65.5566 454.09Z" fill="#E0821B"/>
<path d="M65.0533 453.838C69.0793 455.474 69.7084 463.778 66.1856 472.333C62.7887 480.888 56.6239 486.424 52.5979 484.788C48.5719 483.153 47.9428 474.849 51.4655 466.294C54.8625 457.739 61.0273 452.203 65.0533 453.838Z" fill="#FCCA4C"/>
<path d="M63.7952 456.984C66.9405 458.242 67.318 464.784 64.5501 471.578C61.7822 478.372 57.0014 482.776 53.856 481.517C50.7107 480.259 50.3332 473.717 53.1011 466.923C55.869 460.129 60.6499 455.726 63.7952 456.984Z" fill="#FFE066"/>
<path d="M65.8083 479.379C66.5631 478.246 67.318 476.862 68.0729 475.478C68.3245 474.849 68.702 474.22 68.9536 473.465C68.9536 473.339 68.9536 473.34 69.0794 473.214C70.4633 469.817 71.2182 466.42 71.344 463.526C71.4698 459.5 70.5891 456.355 68.4503 455.097L68.4503 454.971L67.8212 454.719L65.0533 453.587L64.8018 453.461C60.7758 452.203 54.8625 457.613 51.4656 466.042C48.0686 474.346 48.5719 482.398 52.3463 484.285L55.3658 485.543L55.9949 485.795L55.9949 485.669C58.8886 486.676 62.6629 484.034 65.8083 479.379Z" stroke="black" stroke-miterlimit="10"/>
<path d="M295.209 46.4955C293.448 43.8535 288.415 43.7276 283.005 45.9923L291.183 58.0703C295.209 53.7927 296.971 49.2634 295.209 46.4955Z" fill="#FFA340"/>
<path d="M287.786 61.0897L278.979 48.0052C278.35 48.3827 277.721 48.7601 277.092 49.1375L286.025 62.3479C286.654 61.9704 287.157 61.4672 287.786 61.0897Z" fill="#FFA340"/>
<path d="M269.277 67.8274L296.896 49.1501L294.711 45.9192L267.092 64.5965L269.277 67.8274Z" fill="#FFA340"/>
<path d="M267.531 65.2417C269.04 67.3805 272.563 67.8837 276.715 66.7514L269.543 56.0573C267.027 59.5801 266.147 62.9771 267.531 65.2417Z" fill="#FFA340"/>
<path d="M291.057 58.0703L282.88 45.9922C281.621 46.4954 280.237 47.2504 278.854 48.0052L287.66 61.0897C289.044 60.0832 290.051 59.0768 291.057 58.0703Z" fill="#FFB96E"/>
<path d="M285.899 62.4737L286.025 62.3479L277.092 49.1375L276.966 49.2634C273.947 51.2764 271.431 53.6668 269.669 56.0572L276.841 66.7513C279.608 65.9964 282.754 64.4867 285.899 62.4737Z" fill="#FFB96E"/>
<path d="M268.914 67.1289C266.398 63.4803 270.676 56.3089 278.224 51.1506C285.899 45.9923 294.077 44.7341 296.467 48.3827C298.984 52.0313 294.706 59.2026 287.157 64.361C279.608 69.5193 271.431 70.7774 268.914 67.1289Z" fill="#E0821B"/>
<path d="M269.292 67.6321C266.775 63.9836 271.053 56.8122 278.602 51.6539C286.276 46.4956 294.454 45.2375 296.845 48.8861C299.361 52.5346 295.083 59.7059 287.535 64.8642C279.86 70.0226 271.682 71.2807 269.292 67.6321Z" fill="#FCCA4C"/>
<path d="M272.06 65.7449C270.173 62.977 273.569 57.3155 279.609 53.2894C285.648 49.1376 292.19 48.1311 294.077 50.899C295.964 53.6669 292.567 59.3285 286.528 63.3545C280.363 67.5063 273.947 68.5127 272.06 65.7449Z" fill="#FFE066"/>
<path d="M287.535 64.8642C294.958 59.8317 299.11 52.912 296.971 49.1376L295.209 46.4956L294.832 45.9923L294.706 45.9923C292.567 43.8535 288.038 43.8535 282.88 45.9923C281.622 46.4956 280.238 47.2505 278.854 48.0054C278.225 48.3828 277.596 48.7602 276.967 49.1376L276.841 49.2635C273.821 51.2765 271.305 53.6669 269.544 56.0573C267.153 59.3285 266.272 62.4738 267.153 64.6127L267.027 64.6127L267.405 65.1159L268.789 67.1289L269.166 67.6321L269.292 67.8838C272.06 71.2807 280.112 70.0226 287.535 64.8642Z" stroke="black" stroke-miterlimit="10"/>
<path d="M424.56 252.272C428.335 248.12 426.447 244.094 425.189 242.459C427.077 243.465 431.228 245.226 435.003 241.075C440.035 235.665 431.983 226.355 421.541 228.619C415.628 229.877 412.482 229.5 410.973 228.997C410.847 228.997 410.721 228.871 410.469 228.871C410.595 228.997 410.595 229.122 410.721 229.248C411.35 230.758 411.853 233.777 411.098 239.816C409.714 250.385 419.528 257.682 424.56 252.272Z" fill="#EF1818"/>
<path d="M424.336 252.076C428.111 247.924 426.224 243.898 424.965 242.263C426.853 243.269 431.005 245.031 434.779 240.879C439.811 235.469 431.759 226.159 421.317 228.423C415.404 229.681 412.258 229.304 410.749 228.801C410.623 228.801 410.497 228.675 410.245 228.675C410.371 228.801 410.371 228.927 410.497 229.052C411.126 230.562 411.629 233.582 410.875 239.621C409.491 250.189 419.304 257.486 424.336 252.076Z" stroke="black" stroke-miterlimit="10"/>
<path d="M423.177 404.775C422.171 407.92 425.19 411.821 430.349 414.714L434.878 400.875C428.839 400.246 424.184 401.63 423.177 404.775Z" fill="#FFA340"/>
<path d="M439.156 401.63L434.249 416.601C434.878 416.853 435.633 417.105 436.262 417.356L441.168 402.133C440.539 402.007 439.91 401.881 439.156 401.63Z" fill="#FFA340"/>
<path d="M424.122 401.674L422.92 405.385L454.64 415.657L455.842 411.947L424.122 401.674Z" fill="#FFA340"/>
<path d="M454.882 414.966C455.637 412.45 453.876 409.43 450.353 406.788L446.453 418.992C450.731 418.992 454.002 417.482 454.882 414.966Z" fill="#FFA340"/>
<path d="M434.752 400.875L430.223 414.714C431.481 415.469 432.865 416.098 434.249 416.602L439.155 401.63C437.646 401.252 436.136 401.001 434.752 400.875Z" fill="#FFB96E"/>
<path d="M441.42 402.259C441.294 402.259 441.294 402.259 441.168 402.259L436.262 417.482C436.388 417.482 436.387 417.482 436.513 417.608C440.036 418.74 443.433 419.244 446.327 419.118L450.227 406.914C448.088 405.027 444.943 403.391 441.42 402.259Z" fill="#FFB96E"/>
<path d="M455.637 412.827C454.253 416.979 446.075 418.111 437.268 415.343C428.461 412.45 422.548 406.788 423.932 402.636C425.316 398.484 433.494 397.352 442.301 400.12C450.982 402.888 456.895 408.549 455.637 412.827Z" fill="#E0821B"/>
<path d="M455.763 412.198C454.379 416.35 446.201 417.482 437.394 414.714C428.587 411.821 422.674 406.159 424.058 402.007C425.442 397.855 433.62 396.723 442.427 399.491C451.108 402.259 457.147 408.046 455.763 412.198Z" fill="#FCCA4C"/>
<path d="M452.492 411.192C451.485 414.463 444.943 415.218 438.023 412.953C431.103 410.688 426.323 406.285 427.329 403.014C428.336 399.743 434.878 398.988 441.798 401.252C448.717 403.517 453.624 407.92 452.492 411.192Z" fill="#FFE066"/>
<path d="M442.426 399.491C433.871 396.723 425.819 397.73 424.184 401.63L423.177 404.775L422.926 405.404C422.548 408.424 425.442 411.946 430.223 414.714C431.481 415.469 432.865 416.098 434.249 416.602C434.878 416.853 435.633 417.105 436.262 417.356C436.388 417.356 436.387 417.356 436.513 417.482C440.036 418.615 443.433 419.118 446.327 418.992C450.353 418.866 453.372 417.734 454.505 415.595H454.63L454.882 414.966L455.637 412.701L455.763 412.072L455.888 411.821C456.895 407.795 450.982 402.259 442.426 399.491Z" stroke="black" stroke-miterlimit="10"/>
<path d="M432.752 478.683C433.884 475.663 431.116 471.637 426.084 468.366L420.925 481.954C426.839 482.961 431.62 481.828 432.752 478.683Z" fill="#FFA340"/>
<path d="M416.648 481.073L422.183 466.353C421.554 466.102 420.925 465.724 420.17 465.473L414.509 480.444C415.264 480.696 415.893 480.822 416.648 481.073Z" fill="#FFA340"/>
<path d="M431.719 481.751L433.092 478.101L401.889 466.362L400.516 470.012L431.719 481.751Z" fill="#FFA340"/>
<path d="M401.55 466.982C400.669 469.499 402.305 472.518 405.702 475.412L410.231 463.334C405.828 463.334 402.431 464.466 401.55 466.982Z" fill="#FFA340"/>
<path d="M420.925 482.08L426.084 468.492C424.951 467.737 423.567 466.982 422.183 466.353L416.648 481.073C418.032 481.577 419.541 481.828 420.925 482.08Z" fill="#FFB96E"/>
<path d="M414.383 480.318C414.509 480.318 414.509 480.318 414.635 480.444L420.296 465.473C420.17 465.473 420.17 465.472 420.045 465.347C416.648 464.089 413.251 463.334 410.231 463.334L405.702 475.412C407.841 477.299 410.86 479.06 414.383 480.318Z" fill="#FFB96E"/>
<path d="M400.669 469.247C402.179 465.095 410.483 464.466 419.038 467.611C427.593 470.883 433.381 476.796 431.871 480.948C430.361 485.099 422.058 485.728 413.502 482.583C404.947 479.312 399.16 473.399 400.669 469.247Z" fill="#E0821B"/>
<path d="M400.544 469.75C402.054 465.598 410.357 464.969 418.912 468.115C427.468 471.386 433.255 477.299 431.745 481.451C430.236 485.603 421.932 486.232 413.377 483.086C404.696 479.815 398.908 473.902 400.544 469.75Z" fill="#FCCA4C"/>
<path d="M403.689 471.008C404.947 467.863 411.364 467.36 418.284 469.876C425.077 472.392 429.733 477.173 428.474 480.319C427.216 483.464 420.8 483.967 413.88 481.451C407.086 478.809 402.557 474.154 403.689 471.008Z" fill="#FFE066"/>
<path d="M391.737 549.264C389.85 546.622 384.943 546.622 379.533 549.012L387.963 560.964C391.863 556.561 393.624 551.906 391.737 549.264Z" fill="#FFA340"/>
<path d="M384.565 563.984L375.507 551.151C374.878 551.528 374.249 551.906 373.745 552.283L382.93 565.368C383.433 564.865 384.062 564.361 384.565 563.984Z" fill="#FFA340"/>
<path d="M366.404 571.232L393.636 551.998L391.386 548.812L364.154 568.046L366.404 571.232Z" fill="#FFA340"/>
<path d="M364.436 568.513C365.945 570.652 369.468 571.029 373.746 569.897L366.323 559.455C363.806 562.852 362.926 566.374 364.436 568.513Z" fill="#FFA340"/>
<path d="M387.837 560.964L379.407 549.012C378.149 549.515 376.765 550.27 375.381 551.025L384.44 563.858C385.824 562.977 386.83 561.971 387.837 560.964Z" fill="#FFB96E"/>
<path d="M382.678 565.368L382.804 565.242L373.62 552.158L373.494 552.284C370.475 554.422 368.084 556.813 366.323 559.203L373.746 569.646C376.514 569.017 379.659 567.507 382.678 565.368Z" fill="#FFB96E"/>
<path d="M365.819 570.4C363.303 566.752 367.329 559.581 374.878 554.296C382.427 549.012 390.604 547.628 393.121 551.151C395.637 554.8 391.611 561.971 384.062 567.255C376.513 572.665 368.336 574.049 365.819 570.4Z" fill="#E0821B"/>
<path d="M366.197 570.904C363.681 567.255 367.707 560.084 375.256 554.8C382.804 549.516 390.982 548.132 393.498 551.654C396.015 555.303 391.989 562.474 384.44 567.758C376.891 573.168 368.713 574.552 366.197 570.904Z" fill="#FCCA4C"/>
<path d="M368.965 569.017C366.952 566.249 370.223 560.587 376.262 556.309C382.301 552.032 388.717 550.899 390.604 553.667C392.617 556.435 389.346 562.097 383.307 566.375C377.394 570.526 370.978 571.784 368.965 569.017Z" fill="#FFE066"/>
<path d="M401.802 466.353L400.418 470.002C399.16 474.154 404.821 479.941 413.251 483.086C421.68 486.232 429.732 485.603 431.494 481.702L432.877 478.054L432.752 478.054C433.381 475.16 430.613 471.386 425.958 468.366C424.825 467.611 423.442 466.857 422.058 466.228C421.429 465.976 420.799 465.598 420.045 465.347C419.919 465.347 419.919 465.347 419.793 465.221C416.396 463.963 412.999 463.208 409.98 463.208C406.205 463.334 403.06 464.34 401.802 466.353Z" stroke="black" stroke-miterlimit="10"/>
<path d="M364.058 568.01L365.819 570.526L366.197 571.029L366.323 571.281C369.091 574.552 377.017 573.168 384.314 568.01C391.611 562.852 395.637 555.806 393.498 552.158L391.234 549.012L391.108 549.012C388.969 546.873 384.44 546.999 379.281 549.264C378.023 549.767 376.639 550.522 375.255 551.277C374.626 551.654 373.997 552.032 373.494 552.409L373.368 552.535C370.349 554.674 367.958 557.064 366.197 559.455C363.932 562.6 363.177 565.745 364.058 568.01Z" stroke="black" stroke-miterlimit="10"/>
<path d="M97.9944 94.3359C102.775 97.2296 106.298 94.4616 107.808 92.9519C107.179 94.9649 106.424 99.3684 111.205 102.262C117.621 106.036 124.918 96.3489 120.641 86.5355C118.25 80.9997 117.873 77.8543 117.999 76.3446C117.999 76.2188 117.999 75.9672 118.124 75.8414C117.999 75.9672 117.873 75.9672 117.747 76.093C116.363 76.9737 113.595 78.106 107.43 78.6093C96.862 79.49 91.5779 90.5615 97.9944 94.3359Z" fill="#EF1818"/>
<path d="M39.9946 181.524C45.1529 183.789 48.2982 180.643 49.5564 179.008C49.1789 181.147 48.9273 185.55 54.0856 187.815C60.8795 190.834 67.0444 180.266 61.5086 171.082C58.3633 165.923 57.7342 162.904 57.7342 161.268C57.7342 161.142 57.7342 160.891 57.7342 160.765C57.6084 160.891 57.4825 161.017 57.3567 161.142C56.0986 162.275 53.4565 163.659 47.5433 164.917C36.975 166.804 33.2007 178.505 39.9946 181.524Z" fill="#EF1818"/>
<path d="M107.43 78.6093C96.7362 79.3641 91.5779 90.5615 97.9944 94.3359C102.775 97.2296 106.298 94.4616 107.808 92.9519C107.179 94.9649 106.424 99.3684 111.205 102.262C117.621 106.036 124.918 96.3489 120.641 86.5355C118.25 80.9997 117.873 77.8543 117.999 76.3446C117.999 76.2188 117.999 75.9672 118.124 75.8414C117.999 75.9672 117.873 75.9672 117.747 76.093C116.363 77.0995 113.469 78.2318 107.43 78.6093Z" stroke="black" stroke-miterlimit="10"/>
<path d="M39.9946 181.524C45.1529 183.789 48.2982 180.643 49.5564 179.008C49.1789 181.147 48.9273 185.55 54.0856 187.815C60.8795 190.834 67.0444 180.266 61.5086 171.082C58.3633 165.923 57.7342 162.904 57.7342 161.268C57.7342 161.142 57.7342 160.891 57.7342 160.765C57.6084 160.891 57.4825 161.017 57.3567 161.142C56.0986 162.275 53.4565 163.659 47.5433 164.917C36.975 166.804 33.2007 178.505 39.9946 181.524Z" stroke="black" stroke-miterlimit="10"/>
<path d="M420.367 122.837C415.208 124.976 415.334 129.505 415.712 131.518C414.454 129.757 411.434 126.611 406.276 128.75C399.356 131.644 402.879 143.344 413.321 145.735C419.234 147.119 421.877 148.629 423.135 149.761C423.26 149.887 423.386 150.013 423.512 150.138C423.512 150.013 423.512 149.887 423.512 149.635C423.638 148 424.393 144.98 427.538 139.822C433.074 130.763 427.286 120.069 420.367 122.837Z" fill="#EF1818"/>
<path d="M420.367 122.837C415.208 124.976 415.334 129.505 415.712 131.518C414.454 129.757 411.434 126.611 406.276 128.75C399.356 131.644 402.879 143.344 413.321 145.735C419.234 147.119 421.877 148.629 423.135 149.761C423.26 149.887 423.386 150.013 423.512 150.138C423.512 150.013 423.512 149.887 423.512 149.635C423.638 148 424.393 144.98 427.538 139.822C433.074 130.763 427.286 120.069 420.367 122.837Z" stroke="black" stroke-miterlimit="10"/>
<path d="M112.617 221.559C109.105 225.028 110.716 228.601 111.696 230.079C110.079 229.103 106.559 227.623 103.048 231.092C98.3454 235.765 105.126 243.903 114.472 242.245C119.775 241.331 122.441 241.634 123.848 242.108C123.993 242.165 124.138 242.223 124.283 242.28C124.241 242.18 124.199 242.08 124.115 241.879C123.674 240.53 123.286 237.862 124.144 232.669C125.661 223.547 117.361 216.986 112.617 221.559Z" fill="#EF1818"/>
<path d="M112.617 221.559C109.105 225.028 110.716 228.601 111.696 230.079C110.079 229.103 106.559 227.623 103.048 231.092C98.3454 235.765 105.126 243.903 114.472 242.245C119.775 241.331 122.441 241.634 123.848 242.108C123.993 242.165 124.138 242.223 124.283 242.28C124.241 242.18 124.199 242.08 124.115 241.879C123.674 240.53 123.286 237.862 124.144 232.669C125.661 223.547 117.361 216.986 112.617 221.559Z" stroke="black" stroke-miterlimit="10"/>
<path d="M522.995 570.902C524.495 573.002 528.395 573.002 532.695 571.102L525.995 561.602C522.895 565.102 521.495 568.802 522.995 570.902Z" fill="#FFA340"/>
<path d="M528.695 559.202L535.895 569.402C536.395 569.102 536.895 568.802 537.295 568.502L529.995 558.102C529.595 558.502 529.095 558.902 528.695 559.202Z" fill="#FFA340"/>
<path d="M543.131 553.441L521.485 568.729L523.274 571.261L544.919 555.974L543.131 553.441Z" fill="#FFA340"/>
<path d="M544.695 555.602C543.495 553.902 540.695 553.602 537.295 554.502L543.195 562.802C545.195 560.102 545.895 557.302 544.695 555.602Z" fill="#FFA340"/>
<path d="M526.095 561.602L532.795 571.102C533.795 570.702 534.895 570.102 535.995 569.502L528.795 559.302C527.695 560.002 526.895 560.802 526.095 561.602Z" fill="#FFB96E"/>
<path d="M530.195 558.102L530.095 558.202L537.395 568.602L537.495 568.502C539.895 566.802 541.795 564.902 543.195 563.002L537.295 554.702C535.095 555.202 532.595 556.402 530.195 558.102Z" fill="#FFB96E"/>
<path d="M543.595 554.102C545.595 557.002 542.395 562.702 536.395 566.902C530.395 571.102 523.895 572.202 521.895 569.402C519.895 566.502 523.095 560.802 529.095 556.602C535.095 552.302 541.595 551.202 543.595 554.102Z" fill="#E0821B"/>
<path d="M543.295 553.702C545.295 556.602 542.095 562.302 536.095 566.502C530.095 570.702 523.595 571.802 521.595 569.002C519.595 566.102 522.795 560.402 528.795 556.202C534.795 551.902 541.295 550.802 543.295 553.702Z" fill="#FCCA4C"/>
<path d="M541.095 555.202C542.695 557.402 540.095 561.902 535.295 565.302C530.495 568.702 525.395 569.602 523.895 567.402C522.295 565.202 524.895 560.702 529.695 557.302C534.395 554.002 539.495 553.002 541.095 555.202Z" fill="#FFE066"/>
<path d="M544.995 556.002L543.595 554.002L543.295 553.602L543.195 553.402C540.995 550.802 534.695 551.902 528.895 556.002C523.095 560.102 519.895 565.702 521.595 568.602L523.395 571.102H523.495C525.195 572.802 528.795 572.702 532.895 570.902C533.895 570.502 534.995 569.902 536.095 569.302C536.595 569.002 537.095 568.702 537.495 568.402L537.595 568.302C539.995 566.602 541.895 564.702 543.295 562.802C545.095 560.302 545.695 557.802 544.995 556.002Z" stroke="black" stroke-miterlimit="10"/>
</svg>
