<svg width="595" height="595" viewBox="0 0 595 595" fill="none" xmlns="http://www.w3.org/2000/svg">
<rect width="595" height="595" fill="#C4C4C4"/>
<rect width="595" height="595" fill="#202020"/>
<path d="M478.336 266.33C476.593 268.509 477.791 272.649 481.06 276.571L488.905 266.766C484.329 264.478 480.079 264.151 478.336 266.33Z" fill="#FFA340"/>
<path d="M492.282 268.727L483.784 279.404C484.219 279.84 484.655 280.276 485.2 280.603L493.807 269.816C493.263 269.489 492.718 269.054 492.282 268.727Z" fill="#FFA340"/>
<path d="M480.008 264.113L477.897 266.75L500.432 284.798L502.543 282.161L480.008 264.113Z" fill="#FFA340"/>
<path d="M500.889 284.307C502.306 282.564 501.761 279.513 499.8 276.245L492.827 284.961C496.313 286.268 499.473 286.159 500.889 284.307Z" fill="#FFA340"/>
<path d="M488.905 266.766L481.06 276.571C481.823 277.552 482.694 278.423 483.675 279.404L492.173 268.727C491.193 267.964 489.994 267.31 488.905 266.766Z" fill="#FFB96E"/>
<path d="M493.916 269.925L493.807 269.816L485.2 280.603L485.309 280.712C487.815 282.673 490.43 284.198 492.827 284.961L499.8 276.245C498.383 274.174 496.422 271.995 493.916 269.925Z" fill="#FFB96E"/>
<path d="M502.088 282.782C499.691 285.723 492.718 284.089 486.507 279.186C480.297 274.174 477.138 267.746 479.535 264.805C481.932 261.863 488.904 263.497 495.115 268.4C501.434 273.303 504.485 279.731 502.088 282.782Z" fill="#E0821B"/>
<path d="M502.415 282.346C500.018 285.287 493.045 283.653 486.834 278.75C480.624 273.739 477.465 267.31 479.862 264.369C482.258 261.427 489.231 263.061 495.442 267.964C501.761 272.976 504.811 279.404 502.415 282.346Z" fill="#FCCA4C"/>
<path d="M500.127 280.494C498.274 282.782 492.827 281.474 487.815 277.443C482.912 273.521 480.297 268.4 482.15 266.112C484.002 263.824 489.449 265.131 494.461 269.163C499.473 273.194 501.979 278.206 500.127 280.494Z" fill="#FFE066"/>
<path d="M500.453 284.852L502.415 282.455L502.524 282.237C504.594 279.186 501.543 272.867 495.442 268.073C489.34 263.17 482.585 261.536 480.08 264.26L478.009 266.875L478.118 266.984C476.811 269.272 478.118 273.085 481.169 276.789C481.932 277.77 482.803 278.641 483.784 279.622C484.22 280.058 484.655 280.494 485.2 280.82L485.309 280.929C487.815 282.891 490.43 284.416 492.827 285.179C496.095 286.159 498.928 286.159 500.453 284.852Z" stroke="black" stroke-miterlimit="10"/>
<path d="M502.431 190.932C504.175 188.753 502.976 184.612 499.708 180.69L491.863 190.496C496.439 192.784 500.688 193.111 502.431 190.932Z" fill="#FFA340"/>
<path d="M488.486 188.535L496.984 177.857C496.548 177.422 496.112 176.986 495.568 176.659L486.96 187.445C487.505 187.772 488.05 188.208 488.486 188.535Z" fill="#FFA340"/>
<path d="M500.759 193.148L502.87 190.512L480.336 172.464L478.224 175.1L500.759 193.148Z" fill="#FFA340"/>
<path d="M479.878 172.955C478.462 174.698 479.007 177.749 480.968 181.017L487.941 172.301C484.454 170.994 481.295 171.102 479.878 172.955Z" fill="#FFA340"/>
<path d="M491.863 190.496L499.708 180.69C498.945 179.71 498.073 178.838 497.093 177.858L488.594 188.535C489.575 189.298 490.773 189.951 491.863 190.496Z" fill="#FFB96E"/>
<path d="M486.851 187.336L486.96 187.445L495.567 176.659L495.458 176.55C492.953 174.589 490.338 173.064 487.941 172.301L480.968 181.017C482.384 183.087 484.345 185.266 486.851 187.336Z" fill="#FFB96E"/>
<path d="M478.68 174.48C481.077 171.538 488.05 173.173 494.26 178.075C500.47 183.087 503.63 189.515 501.233 192.457C498.836 195.399 491.863 193.764 485.653 188.862C479.334 183.959 476.283 177.531 478.68 174.48Z" fill="#E0821B"/>
<path d="M478.353 174.916C480.75 171.974 487.723 173.608 493.933 178.511C500.143 183.523 503.303 189.951 500.906 192.893C498.509 195.835 491.536 194.2 485.326 189.298C479.007 184.286 475.956 177.858 478.353 174.916Z" fill="#FCCA4C"/>
<path d="M480.641 176.768C482.493 174.48 487.941 175.787 492.953 179.819C497.856 183.741 500.47 188.862 498.618 191.15C496.766 193.438 491.319 192.13 486.307 188.099C481.295 184.068 478.789 179.056 480.641 176.768Z" fill="#FFE066"/>
<path d="M480.314 172.41L478.353 174.807L478.244 175.025C476.174 178.075 479.225 184.395 485.326 189.188C491.427 194.091 498.182 195.726 500.688 193.002L502.758 190.387L502.649 190.278C503.957 187.99 502.649 184.177 499.599 180.472C498.836 179.492 497.964 178.62 496.984 177.64C496.548 177.204 496.112 176.768 495.567 176.441L495.458 176.332C492.952 174.371 490.338 172.846 487.941 172.083C484.672 171.103 481.839 171.102 480.314 172.41Z" stroke="black" stroke-miterlimit="10"/>
<path d="M543.323 510.615C547.9 508.765 547.788 504.847 547.453 503.106C548.569 504.63 551.248 507.35 555.825 505.5C561.964 502.997 558.838 492.877 549.574 490.809C544.328 489.612 541.984 488.306 540.868 487.326C540.756 487.218 540.645 487.109 540.533 487C540.533 487.109 540.533 487.218 540.533 487.435C540.421 488.85 539.752 491.462 536.961 495.924C532.05 503.759 537.184 513.009 543.323 510.615Z" fill="#EF1818"/>
<path d="M543.323 510.615C547.9 508.765 547.788 504.847 547.453 503.106C548.569 504.63 551.248 507.35 555.825 505.5C561.964 502.997 558.838 492.877 549.574 490.809C544.328 489.612 541.984 488.306 540.868 487.326C540.756 487.218 540.645 487.109 540.533 487C540.533 487.109 540.533 487.218 540.533 487.435C540.421 488.85 539.752 491.462 536.961 495.924C532.05 503.759 537.184 513.009 543.323 510.615Z" stroke="black" stroke-miterlimit="10"/>
<path d="M459.671 312.148C455.09 310.307 452.454 313.208 451.488 314.694C451.74 312.823 451.697 309.005 447.116 307.165C440.957 304.711 436.191 314.171 441.433 322.085C444.383 326.585 445.166 329.151 445.291 330.631C445.296 330.787 445.301 330.942 445.306 331.098C445.382 331.02 445.457 330.941 445.608 330.785C446.669 329.843 448.963 328.425 454.068 327.145C463.04 324.905 465.754 314.679 459.671 312.148Z" fill="#EF1818"/>
<path d="M459.671 312.148C455.09 310.307 452.454 313.208 451.488 314.694C451.74 312.823 451.697 309.005 447.116 307.165C440.957 304.711 436.191 314.171 441.433 322.085C444.383 326.585 445.166 329.151 445.291 330.631C445.296 330.787 445.301 330.942 445.306 331.098C445.382 331.02 445.457 330.941 445.608 330.785C446.669 329.843 448.963 328.425 454.068 327.145C463.04 324.905 465.754 314.679 459.671 312.148Z" stroke="black" stroke-miterlimit="10"/>
<path d="M531.218 50.5486C530.237 53.1635 532.634 56.65 536.992 59.4827L541.46 47.7159C536.339 46.8443 532.199 47.8249 531.218 50.5486Z" fill="#FFA340"/>
<path d="M545.164 48.4787L540.37 61.226C540.915 61.4439 541.46 61.7708 542.113 61.9887L547.016 49.0235C546.362 48.8056 545.818 48.6966 545.164 48.4787Z" fill="#FFA340"/>
<path d="M532.113 47.8919L530.924 51.0529L557.945 61.2188L559.134 58.0578L532.113 47.8919Z" fill="#FFA340"/>
<path d="M558.238 60.6812C559.001 58.5022 557.584 55.8874 554.643 53.3815L550.72 63.8409C554.534 63.8409 557.475 62.8603 558.238 60.6812Z" fill="#FFA340"/>
<path d="M541.459 47.607L536.992 59.3739C537.973 60.0276 539.172 60.6812 540.37 61.226L545.164 48.4787C543.965 48.0429 542.658 47.8249 541.459 47.607Z" fill="#FFB96E"/>
<path d="M547.125 49.1324C547.016 49.1324 547.016 49.1324 546.907 49.0235L542.004 61.9887C542.113 61.9887 542.113 61.9887 542.222 62.0977C545.164 63.1872 548.106 63.8409 550.721 63.8409L554.643 53.3815C552.791 51.7472 550.176 50.2219 547.125 49.1324Z" fill="#FFB96E"/>
<path d="M559.001 58.7201C557.693 62.3155 550.502 62.8602 543.094 60.1364C535.685 57.3037 530.673 52.183 531.981 48.5876C533.288 44.9922 540.479 44.4474 547.888 47.1712C555.296 50.004 560.308 55.1247 559.001 58.7201Z" fill="#E0821B"/>
<path d="M559.11 58.2843C557.802 61.8797 550.612 62.4245 543.203 59.7007C535.794 56.8679 530.782 51.7471 532.09 48.1517C533.397 44.5563 540.588 44.0116 547.997 46.7354C555.514 49.5681 560.526 54.6889 559.11 58.2843Z" fill="#FCCA4C"/>
<path d="M556.386 57.1947C555.296 59.9185 549.74 60.3543 543.747 58.1752C537.864 55.9962 533.833 51.856 534.922 49.1323C536.012 46.4085 541.568 45.9726 547.561 48.1517C553.444 50.4396 557.366 54.4709 556.386 57.1947Z" fill="#FFE066"/>
<path d="M558.02 61.2259L559.219 58.0663C560.308 54.4709 555.405 49.4591 548.106 46.7353C540.806 44.0115 533.833 44.5563 532.308 47.9338L531.109 51.0933H531.218C530.673 53.5992 533.07 56.8678 537.101 59.4826C538.082 60.1364 539.28 60.7901 540.479 61.3348C541.024 61.5527 541.568 61.8796 542.222 62.0975C542.331 62.0975 542.331 62.0975 542.44 62.2064C545.382 63.296 548.323 63.9496 550.938 63.9496C554.207 63.8407 556.931 62.9691 558.02 61.2259Z" stroke="black" stroke-miterlimit="10"/>
<path d="M518.622 312.24C516.007 311.151 512.412 313.548 509.579 317.797L521.237 322.482C522.218 317.361 521.237 313.221 518.622 312.24Z" fill="#FFA340"/>
<path d="M520.365 326.186L507.727 321.065C507.509 321.61 507.182 322.155 506.964 322.808L519.821 327.929C519.93 327.384 520.148 326.84 520.365 326.186Z" fill="#FFA340"/>
<path d="M518.19 311.932L507.386 338.708L510.518 339.972L521.322 313.196L518.19 311.932Z" fill="#FFA340"/>
<path d="M507.836 338.933C509.906 339.805 512.739 338.389 515.245 335.556L504.894 331.416C504.676 335.229 505.766 338.062 507.836 338.933Z" fill="#FFA340"/>
<path d="M521.346 322.482L509.688 317.797C509.035 318.777 508.381 319.976 507.727 321.174L520.366 326.295C520.801 324.987 521.128 323.68 521.346 322.482Z" fill="#FFB96E"/>
<path d="M519.712 328.147C519.712 328.038 519.712 328.038 519.821 327.929L506.964 322.808C506.964 322.917 506.964 322.917 506.855 323.026C505.657 325.968 505.003 328.91 504.894 331.416L515.245 335.556C516.879 333.704 518.513 331.089 519.712 328.147Z" fill="#FFB96E"/>
<path d="M509.797 339.696C506.311 338.28 505.766 331.089 508.817 323.68C511.758 316.271 517.097 311.477 520.583 312.894C524.07 314.31 524.615 321.501 521.564 328.91C518.513 336.318 513.284 341.112 509.797 339.696Z" fill="#E0821B"/>
<path d="M510.233 339.914C506.747 338.498 506.202 331.307 509.252 323.898C512.194 316.489 517.533 311.695 521.019 313.112C524.506 314.528 525.05 321.719 522 329.128C519.058 336.536 513.719 341.33 510.233 339.914Z" fill="#FCCA4C"/>
<path d="M511.322 337.19C508.599 336.101 508.272 330.435 510.669 324.552C513.066 318.668 517.206 314.855 519.929 315.944C522.653 317.034 522.98 322.699 520.583 328.583C518.186 334.466 514.046 338.28 511.322 337.19Z" fill="#FFE066"/>
<path d="M509.579 317.797C508.925 318.777 508.272 319.976 507.618 321.174C507.4 321.719 507.073 322.264 506.855 322.917C506.855 323.026 506.855 323.026 506.746 323.135C505.548 326.077 504.894 329.019 504.785 331.525C504.676 335.011 505.439 337.735 507.291 338.824V338.933L507.836 339.151L510.233 340.132L510.451 340.241C513.937 341.33 519.058 336.645 522 329.346C524.941 322.155 524.506 315.182 521.237 313.548L518.622 312.458L518.077 312.24V312.349C515.571 311.477 512.303 313.765 509.579 317.797Z" stroke="black" stroke-miterlimit="10"/>
<path d="M496.454 87.015C494.275 93.8789 486.975 97.6922 480.111 95.5132C473.248 93.3342 469.434 86.0344 471.613 79.1704C473.792 72.3065 481.092 68.4932 487.956 70.6722C494.711 72.8512 498.524 80.151 496.454 87.015Z" fill="#E0821B"/>
<path d="M495.801 86.906C493.73 93.4432 486.758 97.0386 480.329 95.0774C473.792 93.0073 470.197 86.0344 472.158 79.6063C474.228 73.0692 481.201 69.4737 487.629 71.4349C494.057 73.396 497.871 80.3689 495.801 86.906Z" fill="#FCCA4C"/>
<path d="M493.404 86.1433C491.77 91.373 486.213 94.2058 481.092 92.5715C475.863 90.9372 473.03 85.3807 474.664 80.2599C476.298 75.0303 481.855 72.1975 486.976 73.8318C492.096 75.466 494.929 80.9136 493.404 86.1433Z" fill="#FFE066"/>
<g opacity="0.23">
<g opacity="0.23">
<path opacity="0.23" d="M496.563 86.5793L491.443 72.5244C490.353 71.7618 489.155 71.2171 487.847 70.7812C487.738 70.7812 487.629 70.6723 487.52 70.6723L494.711 90.6105C495.474 89.521 496.019 88.4314 496.345 87.124C496.454 86.9061 496.454 86.6882 496.563 86.5793Z" fill="#FFE066"/>
</g>
</g>
<g opacity="0.23">
<g opacity="0.23">
<path opacity="0.23" d="M474.882 73.8318L482.944 96.058C485.232 96.2759 487.411 95.8401 489.481 94.8595L480.656 70.4543C478.368 71.217 476.407 72.3065 474.882 73.8318Z" fill="#FFE066"/>
</g>
</g>
<path d="M491.443 72.5244C491.443 72.4154 491.443 72.4154 491.443 72.5244C491.007 72.1975 490.462 71.8707 489.917 71.6528C489.808 71.5438 489.699 71.5438 489.591 71.4348C489.046 71.2169 488.501 70.9991 487.956 70.7812C487.847 70.7812 487.738 70.6722 487.629 70.6722C485.232 70.0185 482.944 70.0185 480.656 70.6722C479.676 70.9991 478.695 71.3259 477.715 71.8707C477.606 71.8707 477.497 71.9796 477.497 71.9796C477.17 72.1975 476.734 72.4154 476.407 72.7423C476.298 72.8512 476.298 72.8512 476.189 72.9602C475.754 73.287 475.427 73.6139 474.991 73.9408C473.466 75.3572 472.376 77.2093 471.722 79.2794C469.543 86.1433 473.357 93.4431 480.221 95.6222C481.201 95.949 482.073 96.058 483.053 96.1669C483.162 96.1669 483.162 96.1669 483.271 96.1669C483.707 96.1669 484.143 96.1669 484.579 96.1669C484.688 96.1669 484.797 96.1669 484.906 96.1669C485.341 96.1669 485.777 96.058 486.213 96.058C486.322 96.058 486.322 96.058 486.431 96.058C486.976 95.949 487.411 95.8401 487.956 95.7311H488.065C488.501 95.6222 488.937 95.4043 489.373 95.1864C489.373 95.1864 489.482 95.1863 489.482 95.0774C492.096 93.8789 494.275 91.8088 495.692 89.085C495.801 88.9761 495.801 88.8672 495.91 88.7582C496.128 88.2134 496.345 87.6687 496.563 87.1239C496.563 86.906 496.672 86.7971 496.672 86.5792C497.98 81.1316 495.801 75.575 491.443 72.5244Z" stroke="black" stroke-miterlimit="10"/>
<path d="M541.141 239.188C544.41 235.592 542.775 232.106 541.686 230.689C543.32 231.561 546.916 233.086 550.184 229.491C554.542 224.806 547.569 216.744 538.526 218.705C533.406 219.794 530.682 219.467 529.374 219.032C529.265 219.032 529.156 218.923 528.938 218.923C529.047 219.032 529.047 219.141 529.156 219.249C529.701 220.557 530.137 223.172 529.483 228.401C528.285 237.553 536.783 243.873 541.141 239.188Z" fill="#EF1818"/>
<path d="M540.947 239.018C544.216 235.423 542.581 231.936 541.492 230.52C543.126 231.391 546.722 232.917 549.99 229.321C554.348 224.636 547.375 216.574 538.332 218.535C533.212 219.625 530.488 219.298 529.18 218.862C529.071 218.862 528.963 218.753 528.745 218.753C528.854 218.862 528.854 218.971 528.962 219.08C529.507 220.387 529.943 223.002 529.289 228.232C528.091 237.384 536.589 243.703 540.947 239.018Z" stroke="black" stroke-miterlimit="10"/>
<path d="M539.944 371.253C539.072 373.976 541.687 377.354 546.154 379.86L550.076 367.875C544.847 367.33 540.815 368.529 539.944 371.253Z" fill="#FFA340"/>
<path d="M553.78 368.529L549.531 381.494C550.076 381.712 550.73 381.93 551.275 382.148L555.524 368.965C554.979 368.856 554.434 368.747 553.78 368.529Z" fill="#FFA340"/>
<path d="M540.762 368.568L539.721 371.781L567.19 380.677L568.231 377.463L540.762 368.568Z" fill="#FFA340"/>
<path d="M567.4 380.078C568.053 377.899 566.528 375.284 563.477 372.996L560.1 383.564C563.804 383.564 566.637 382.257 567.4 380.078Z" fill="#FFA340"/>
<path d="M549.967 367.875L546.045 379.86C547.134 380.514 548.333 381.058 549.531 381.494L553.781 368.529C552.473 368.202 551.166 367.984 549.967 367.875Z" fill="#FFB96E"/>
<path d="M555.742 369.074C555.633 369.074 555.633 369.074 555.524 369.074L551.275 382.257C551.384 382.257 551.384 382.257 551.493 382.366C554.543 383.346 557.485 383.782 559.991 383.673L563.368 373.105C561.516 371.471 558.792 370.054 555.742 369.074Z" fill="#FFB96E"/>
<path d="M568.053 378.226C566.855 381.821 559.773 382.802 552.146 380.405C544.52 377.899 539.399 372.996 540.597 369.401C541.796 365.805 548.878 364.825 556.504 367.221C564.022 369.618 569.143 374.521 568.053 378.226Z" fill="#E0821B"/>
<path d="M568.162 377.681C566.964 381.276 559.882 382.257 552.255 379.86C544.629 377.354 539.508 372.451 540.706 368.856C541.905 365.26 548.987 364.28 556.613 366.677C564.131 369.074 569.361 374.085 568.162 377.681Z" fill="#FCCA4C"/>
<path d="M565.33 376.809C564.458 379.642 558.792 380.296 552.8 378.335C546.808 376.374 542.668 372.56 543.539 369.727C544.411 366.895 550.076 366.241 556.069 368.202C562.061 370.163 566.31 373.977 565.33 376.809Z" fill="#FFE066"/>
<path d="M556.613 366.677C549.205 364.28 542.232 365.151 540.815 368.529L539.944 371.253L539.726 371.798C539.399 374.412 541.905 377.463 546.045 379.86C547.134 380.514 548.333 381.058 549.531 381.494C550.076 381.712 550.73 381.93 551.275 382.148C551.384 382.148 551.384 382.148 551.493 382.257C554.543 383.237 557.485 383.673 559.991 383.564C563.477 383.455 566.092 382.475 567.073 380.623H567.182L567.4 380.078L568.053 378.117L568.162 377.572L568.271 377.354C569.143 373.868 564.022 369.074 556.613 366.677Z" stroke="black" stroke-miterlimit="10"/>
<path d="M548.235 435.256C549.216 432.641 546.819 429.154 542.461 426.322L537.994 438.088C543.115 438.96 547.255 437.98 548.235 435.256Z" fill="#FFA340"/>
<path d="M534.289 437.326L539.083 424.578C538.538 424.36 537.994 424.034 537.34 423.816L532.437 436.781C533.091 436.999 533.635 437.108 534.289 437.326Z" fill="#FFA340"/>
<path d="M547.341 437.912L548.53 434.752L521.508 424.586L520.319 427.747L547.341 437.912Z" fill="#FFA340"/>
<path d="M521.215 425.123C520.452 427.302 521.869 429.917 524.81 432.423L528.733 421.964C524.919 421.964 521.978 422.944 521.215 425.123Z" fill="#FFA340"/>
<path d="M537.994 438.197L542.461 426.431C541.48 425.777 540.282 425.123 539.083 424.578L534.289 437.326C535.488 437.762 536.795 437.979 537.994 438.197Z" fill="#FFB96E"/>
<path d="M532.328 436.672C532.437 436.672 532.437 436.672 532.546 436.781L537.449 423.816C537.34 423.816 537.34 423.816 537.231 423.707C534.289 422.617 531.347 421.964 528.733 421.964L524.81 432.423C526.663 434.057 529.277 435.582 532.328 436.672Z" fill="#FFB96E"/>
<path d="M520.452 427.084C521.76 423.489 528.95 422.944 536.359 425.668C543.768 428.501 548.78 433.621 547.472 437.217C546.165 440.812 538.974 441.357 531.565 438.633C524.157 435.8 519.145 430.68 520.452 427.084Z" fill="#E0821B"/>
<path d="M520.344 427.52C521.651 423.925 528.842 423.38 536.251 426.104C543.659 428.936 548.671 434.057 547.364 437.653C546.056 441.248 538.865 441.793 531.457 439.069C523.939 436.236 518.927 431.116 520.344 427.52Z" fill="#FCCA4C"/>
<path d="M523.068 428.61C524.157 425.886 529.714 425.45 535.706 427.629C541.589 429.808 545.62 433.948 544.531 436.672C543.441 439.396 537.885 439.832 531.893 437.653C526.009 435.365 522.087 431.333 523.068 428.61Z" fill="#FFE066"/>
<path d="M512.717 496.378C511.083 494.09 506.833 494.09 502.149 496.16L509.448 506.51C512.826 502.697 514.351 498.666 512.717 496.378Z" fill="#FFA340"/>
<path d="M506.506 509.125L498.662 498.012C498.117 498.339 497.572 498.666 497.136 498.993L505.09 510.323C505.526 509.888 506.071 509.452 506.506 509.125Z" fill="#FFA340"/>
<path d="M490.779 515.402L514.362 498.745L512.413 495.986L488.83 512.643L490.779 515.402Z" fill="#FFA340"/>
<path d="M489.074 513.047C490.381 514.899 493.432 515.226 497.136 514.246L490.708 505.203C488.529 508.144 487.766 511.195 489.074 513.047Z" fill="#FFA340"/>
<path d="M509.339 506.51L502.039 496.16C500.95 496.596 499.751 497.249 498.553 497.903L506.397 509.016C507.596 508.253 508.467 507.382 509.339 506.51Z" fill="#FFB96E"/>
<path d="M504.872 510.324L504.981 510.215L497.027 498.884L496.919 498.993C494.304 500.845 492.234 502.915 490.708 504.985L497.136 514.028C499.533 513.483 502.257 512.176 504.872 510.324Z" fill="#FFB96E"/>
<path d="M490.273 514.682C488.094 511.522 491.58 505.312 498.117 500.736C504.654 496.16 511.736 494.961 513.915 498.012C516.094 501.172 512.608 507.382 506.071 511.958C499.534 516.643 492.452 517.841 490.273 514.682Z" fill="#E0821B"/>
<path d="M490.6 515.117C488.421 511.958 491.907 505.748 498.444 501.172C504.981 496.596 512.063 495.397 514.242 498.448C516.421 501.607 512.935 507.818 506.398 512.394C499.86 517.079 492.779 518.277 490.6 515.117Z" fill="#FCCA4C"/>
<path d="M492.996 513.483C491.253 511.086 494.086 506.183 499.315 502.479C504.545 498.775 510.102 497.794 511.736 500.191C513.479 502.588 510.646 507.491 505.417 511.195C500.296 514.791 494.739 515.88 492.996 513.483Z" fill="#FFE066"/>
<path d="M521.433 424.579L520.234 427.738C519.145 431.334 524.048 436.345 531.348 439.069C538.647 441.793 545.62 441.248 547.146 437.871L548.344 434.711L548.235 434.711C548.78 432.205 546.383 428.937 542.352 426.322C541.371 425.668 540.173 425.014 538.974 424.47C538.429 424.252 537.885 423.925 537.231 423.707C537.122 423.707 537.122 423.707 537.013 423.598C534.071 422.508 531.13 421.855 528.515 421.855C525.246 421.964 522.522 422.835 521.433 424.579Z" stroke="black" stroke-miterlimit="10"/>
<path d="M488.747 512.612L490.272 514.791L490.599 515.226L490.708 515.444C493.105 518.277 499.969 517.079 506.288 512.612C512.608 508.144 516.094 502.043 514.242 498.884L512.281 496.16L512.172 496.16C510.32 494.308 506.397 494.417 501.93 496.378C500.841 496.813 499.642 497.467 498.444 498.121C497.899 498.448 497.354 498.775 496.919 499.101L496.81 499.21C494.195 501.063 492.125 503.133 490.599 505.203C488.638 507.927 487.985 510.65 488.747 512.612Z" stroke="black" stroke-miterlimit="10"/>
<path d="M288.284 281.744C286.65 279.456 282.401 279.456 277.716 281.526L285.016 291.877C288.393 288.063 289.919 284.032 288.284 281.744Z" fill="#FFA340"/>
<path d="M282.074 294.492L274.229 283.379C273.685 283.705 273.14 284.032 272.704 284.359L280.658 295.69C281.093 295.254 281.638 294.818 282.074 294.492Z" fill="#FFA340"/>
<path d="M266.347 300.768L289.929 284.112L287.981 281.353L264.398 298.009L266.347 300.768Z" fill="#FFA340"/>
<path d="M264.642 298.414C265.949 300.266 269 300.593 272.704 299.612L266.276 290.569C264.097 293.511 263.334 296.562 264.642 298.414Z" fill="#FFA340"/>
<path d="M284.907 291.877L277.607 281.526C276.517 281.962 275.319 282.616 274.121 283.27L281.965 294.383C283.163 293.62 284.035 292.748 284.907 291.877Z" fill="#FFB96E"/>
<path d="M280.44 295.69L280.549 295.581L272.595 284.25L272.486 284.359C269.872 286.211 267.801 288.282 266.276 290.352L272.704 299.395C275.101 298.85 277.825 297.542 280.44 295.69Z" fill="#FFB96E"/>
<path d="M265.84 300.048C263.661 296.889 267.148 290.678 273.685 286.102C280.222 281.526 287.304 280.328 289.483 283.379C291.662 286.538 288.175 292.748 281.638 297.324C275.101 302.009 268.019 303.208 265.84 300.048Z" fill="#E0821B"/>
<path d="M266.167 300.484C263.988 297.324 267.475 291.114 274.012 286.538C280.549 281.962 287.631 280.764 289.81 283.814C291.989 286.974 288.502 293.184 281.965 297.76C275.428 302.445 268.346 303.644 266.167 300.484Z" fill="#FCCA4C"/>
<path d="M268.564 298.85C266.821 296.453 269.653 291.55 274.883 287.846C280.113 284.141 285.669 283.161 287.304 285.558C289.047 287.955 286.214 292.857 280.984 296.562C275.864 300.157 270.307 301.247 268.564 298.85Z" fill="#FFE066"/>
<path d="M264.315 297.978L265.84 300.157L266.167 300.593L266.276 300.811C268.673 303.644 275.537 302.445 281.856 297.978C288.175 293.511 291.662 287.41 289.81 284.25L287.848 281.526L287.739 281.526C285.887 279.674 281.965 279.783 277.498 281.744C276.408 282.18 275.21 282.834 274.012 283.488C273.467 283.814 272.922 284.141 272.486 284.468L272.377 284.577C269.762 286.429 267.692 288.499 266.167 290.569C264.206 293.293 263.552 296.017 264.315 297.978Z" stroke="black" stroke-miterlimit="10"/>
<path d="M537.677 127.385C533.1 129.235 533.212 133.153 533.547 134.894C532.431 133.37 529.752 130.65 525.175 132.5C519.036 135.003 522.162 145.123 531.426 147.191C536.672 148.388 539.016 149.694 540.132 150.674C540.244 150.782 540.355 150.891 540.467 151C540.467 150.891 540.467 150.782 540.467 150.565C540.579 149.15 541.248 146.538 544.039 142.076C548.95 134.241 543.816 124.991 537.677 127.385Z" fill="#EF1818"/>
<path d="M537.677 127.385C533.1 129.235 533.212 133.153 533.547 134.894C532.431 133.37 529.752 130.65 525.175 132.5C519.036 135.003 522.162 145.123 531.426 147.191C536.672 148.388 539.016 149.694 540.132 150.674C540.244 150.782 540.355 150.891 540.467 151C540.467 150.891 540.467 150.782 540.467 150.565C540.579 149.15 541.248 146.538 544.039 142.076C548.95 134.241 543.816 124.991 537.677 127.385Z" stroke="black" stroke-miterlimit="10"/>
<path d="M89.5042 253.326C89.3209 253.326 89.1625 253.26 89.0292 253.126C88.8959 252.993 88.8292 252.835 88.8292 252.651V236.501C88.8292 236.318 88.8959 236.16 89.0292 236.026C89.1625 235.893 89.3209 235.826 89.5042 235.826H93.4542C93.9209 235.826 94.2792 236.051 94.5292 236.501L98.1542 242.501L101.779 236.501C102.029 236.051 102.388 235.826 102.854 235.826H106.804C106.988 235.826 107.146 235.893 107.279 236.026C107.413 236.16 107.479 236.318 107.479 236.501V252.651C107.479 252.835 107.413 252.993 107.279 253.126C107.146 253.26 106.988 253.326 106.804 253.326H102.279C102.096 253.326 101.938 253.26 101.804 253.126C101.671 252.993 101.604 252.835 101.604 252.651V245.801L99.9542 248.501C99.8375 248.685 99.7042 248.835 99.5542 248.951C99.4209 249.068 99.2459 249.126 99.0292 249.126H97.2792C97.0625 249.126 96.8792 249.068 96.7292 248.951C96.5959 248.835 96.4709 248.685 96.3542 248.501L94.7042 245.801V252.651C94.7042 252.835 94.6375 252.993 94.5042 253.126C94.3709 253.26 94.2125 253.326 94.0292 253.326H89.5042ZM115.29 253.326C115.107 253.326 114.949 253.26 114.815 253.126C114.682 252.993 114.615 252.835 114.615 252.651V247.726L108.99 236.601C108.957 236.535 108.94 236.46 108.94 236.376C108.94 236.226 108.99 236.101 109.09 236.001C109.207 235.885 109.34 235.826 109.49 235.826H114.19C114.474 235.826 114.699 235.901 114.865 236.051C115.049 236.185 115.174 236.318 115.24 236.451L117.74 241.476L120.24 236.451C120.307 236.318 120.424 236.185 120.59 236.051C120.774 235.901 121.007 235.826 121.29 235.826H125.99C126.14 235.826 126.265 235.885 126.365 236.001C126.482 236.101 126.54 236.226 126.54 236.376C126.54 236.46 126.524 236.535 126.49 236.601L120.865 247.726V252.651C120.865 252.835 120.799 252.993 120.665 253.126C120.532 253.26 120.374 253.326 120.19 253.326H115.29ZM132.619 253.326C132.436 253.326 132.278 253.26 132.144 253.126C132.011 252.993 131.944 252.835 131.944 252.651V236.501C131.944 236.318 132.011 236.16 132.144 236.026C132.278 235.893 132.436 235.826 132.619 235.826H140.194C142.528 235.826 144.361 236.343 145.694 237.376C147.044 238.41 147.719 239.935 147.719 241.951C147.719 243.951 147.053 245.443 145.719 246.426C144.386 247.393 142.544 247.876 140.194 247.876H138.444V252.651C138.444 252.835 138.378 252.993 138.244 253.126C138.111 253.26 137.953 253.326 137.769 253.326H132.619ZM140.069 243.251C140.369 243.251 140.636 243.143 140.869 242.926C141.103 242.693 141.219 242.351 141.219 241.901C141.219 241.518 141.128 241.185 140.944 240.901C140.761 240.618 140.469 240.476 140.069 240.476H138.319V243.251H140.069ZM150.246 253.326C150.063 253.326 149.905 253.268 149.771 253.151C149.638 253.018 149.571 252.851 149.571 252.651V236.501C149.571 236.318 149.638 236.16 149.771 236.026C149.905 235.893 150.063 235.826 150.246 235.826H155.146C155.33 235.826 155.488 235.893 155.621 236.026C155.755 236.16 155.821 236.318 155.821 236.501V241.751H159.871V236.501C159.871 236.318 159.938 236.16 160.071 236.026C160.205 235.893 160.363 235.826 160.546 235.826H165.446C165.63 235.826 165.788 235.893 165.921 236.026C166.055 236.16 166.121 236.318 166.121 236.501V252.651C166.121 252.835 166.055 252.993 165.921 253.126C165.788 253.26 165.63 253.326 165.446 253.326H160.546C160.363 253.326 160.205 253.26 160.071 253.126C159.938 252.993 159.871 252.835 159.871 252.651V247.251H155.821V252.651C155.821 252.835 155.755 252.993 155.621 253.126C155.488 253.26 155.33 253.326 155.146 253.326H150.246ZM176.783 253.576C174.283 253.576 172.291 253.001 170.808 251.851C169.325 250.701 168.533 249.026 168.433 246.826C168.416 246.376 168.408 245.651 168.408 244.651C168.408 243.635 168.416 242.893 168.433 242.426C168.483 240.993 168.858 239.76 169.558 238.726C170.275 237.693 171.25 236.91 172.483 236.376C173.716 235.843 175.15 235.576 176.783 235.576C178.416 235.576 179.85 235.843 181.083 236.376C182.316 236.91 183.283 237.693 183.983 238.726C184.7 239.76 185.083 240.993 185.133 242.426C185.166 243.36 185.183 244.101 185.183 244.651C185.183 245.201 185.166 245.926 185.133 246.826C185.033 249.026 184.241 250.701 182.758 251.851C181.275 253.001 179.283 253.576 176.783 253.576ZM176.783 248.701C177.35 248.701 177.791 248.535 178.108 248.201C178.441 247.868 178.616 247.36 178.633 246.676C178.666 245.71 178.683 245.001 178.683 244.551C178.683 244.068 178.666 243.376 178.633 242.476C178.616 241.793 178.441 241.285 178.108 240.951C177.775 240.618 177.333 240.451 176.783 240.451C176.233 240.451 175.791 240.618 175.458 240.951C175.125 241.285 174.95 241.793 174.933 242.476C174.916 242.926 174.908 243.618 174.908 244.551C174.908 245.485 174.916 246.193 174.933 246.676C174.95 247.36 175.116 247.868 175.433 248.201C175.766 248.535 176.216 248.701 176.783 248.701ZM191.817 253.326C191.633 253.326 191.475 253.26 191.342 253.126C191.208 252.993 191.142 252.835 191.142 252.651V241.201H186.992C186.808 241.201 186.65 241.135 186.517 241.001C186.383 240.868 186.317 240.71 186.317 240.526V236.501C186.317 236.318 186.383 236.16 186.517 236.026C186.65 235.893 186.808 235.826 186.992 235.826H201.642C201.825 235.826 201.983 235.893 202.117 236.026C202.25 236.16 202.317 236.318 202.317 236.501V240.526C202.317 240.71 202.25 240.868 202.117 241.001C201.983 241.135 201.825 241.201 201.642 241.201H197.492V252.651C197.492 252.835 197.425 252.993 197.292 253.126C197.158 253.26 197 253.326 196.817 253.326H191.817ZM211.842 253.576C209.342 253.576 207.35 253.001 205.867 251.851C204.383 250.701 203.592 249.026 203.492 246.826C203.475 246.376 203.467 245.651 203.467 244.651C203.467 243.635 203.475 242.893 203.492 242.426C203.542 240.993 203.917 239.76 204.617 238.726C205.333 237.693 206.308 236.91 207.542 236.376C208.775 235.843 210.208 235.576 211.842 235.576C213.475 235.576 214.908 235.843 216.142 236.376C217.375 236.91 218.342 237.693 219.042 238.726C219.758 239.76 220.142 240.993 220.192 242.426C220.225 243.36 220.242 244.101 220.242 244.651C220.242 245.201 220.225 245.926 220.192 246.826C220.092 249.026 219.3 250.701 217.817 251.851C216.333 253.001 214.342 253.576 211.842 253.576ZM211.842 248.701C212.408 248.701 212.85 248.535 213.167 248.201C213.5 247.868 213.675 247.36 213.692 246.676C213.725 245.71 213.742 245.001 213.742 244.551C213.742 244.068 213.725 243.376 213.692 242.476C213.675 241.793 213.5 241.285 213.167 240.951C212.833 240.618 212.392 240.451 211.842 240.451C211.292 240.451 210.85 240.618 210.517 240.951C210.183 241.285 210.008 241.793 209.992 242.476C209.975 242.926 209.967 243.618 209.967 244.551C209.967 245.485 209.975 246.193 209.992 246.676C210.008 247.36 210.175 247.868 210.492 248.201C210.825 248.535 211.275 248.701 211.842 248.701Z" fill="#FAFAFA"/>
<rect x="87.1958" y="79" width="134.184" height="134.184" rx="8.86667" fill="#E5F5F9"/>
<rect x="89.4125" y="81.2167" width="129.75" height="129.75" rx="6.65" stroke="black" stroke-width="4.43333"/>
<rect x="102.831" y="94.6352" width="102.914" height="102.914" rx="6.65" stroke="black" stroke-width="4.43333"/>
<path d="M114.405 157.728H105.087V191.59C105.087 194.038 107.072 196.023 109.52 196.023H199.055C201.503 196.023 203.488 194.038 203.488 191.59V167.084H194.543L172.179 144.631L157.269 159.599L134.905 137.146L114.405 157.728Z" fill="#91FF31"/>
<path d="M105.087 156.901H114.405L134.905 136.401L157.269 158.765L172.179 143.855L194.543 166.219H205.725" stroke="black" stroke-width="3.69444" stroke-linejoin="round"/>
<path d="M181.124 143.855C181.124 159.914 168.11 172.929 152.051 172.929C150.021 172.929 147.991 172.711 146.07 172.312C132.874 169.557 122.978 157.848 122.978 143.855C122.978 129.863 132.874 118.154 146.07 115.398C147.991 115 150.021 114.782 152.051 114.782C168.11 114.782 181.124 127.796 181.124 143.855Z" fill="#91FF31"/>
<path d="M181.124 143.855C181.124 159.914 168.11 172.929 152.051 172.929C150.021 172.929 147.991 172.711 146.07 172.312C159.265 169.557 169.161 157.848 169.161 143.855C169.161 129.863 159.265 118.154 146.07 115.398C147.991 115 150.021 114.782 152.051 114.782C168.11 114.782 181.124 127.796 181.124 143.855Z" fill="#00EA80"/>
<path d="M152.051 160.748C153.537 160.748 154.77 159.516 154.77 158.029V136.243L162.491 143.964C163.543 145.015 165.283 145.015 166.334 143.964C167.385 142.913 167.385 141.173 166.334 140.121L153.972 127.76C153.465 127.252 152.776 126.962 152.051 126.962C151.326 126.962 150.637 127.252 150.13 127.76L137.768 140.121C136.717 141.173 136.717 142.913 137.768 143.964C138.312 144.508 139.001 144.762 139.689 144.762C140.378 144.762 141.067 144.508 141.611 143.964L149.332 136.243V158.029C149.332 159.516 150.565 160.748 152.051 160.748Z" fill="black"/>
<circle cx="152.051" cy="143.855" r="26.8565" stroke="black" stroke-width="4.43333"/>
<circle cx="174.415" cy="125.964" r="7.74137" fill="#FFEB31"/>
<path fill-rule="evenodd" clip-rule="evenodd" d="M170.975 132.901C173.524 131.634 175.275 129.004 175.275 125.964C175.275 122.925 173.524 120.294 170.975 119.027C172.011 118.512 173.179 118.223 174.415 118.223C178.691 118.223 182.156 121.689 182.156 125.964C182.156 130.24 178.691 133.706 174.415 133.706C173.179 133.706 172.011 133.416 170.975 132.901Z" fill="#FFCE00"/>
<circle cx="174.415" cy="125.964" r="9.47685" stroke="black" stroke-width="3.41026"/>
<path d="M322.834 126.74C319.06 130.892 320.947 134.918 322.205 136.553C320.318 135.547 316.166 133.785 312.391 137.937C307.359 143.347 315.411 152.657 325.853 150.393C331.767 149.134 334.912 149.512 336.422 150.015C336.548 150.015 336.673 150.141 336.925 150.141C336.799 150.015 336.799 149.889 336.673 149.763C336.044 148.254 335.541 145.234 336.296 139.195C337.68 128.627 327.867 121.33 322.834 126.74Z" fill="#EF1818"/>
<path d="M323.058 126.936C319.283 131.087 321.171 135.113 322.429 136.749C320.542 135.742 316.39 133.981 312.615 138.133C307.583 143.543 315.635 152.853 326.077 150.588C331.991 149.33 335.136 149.708 336.646 150.211C336.771 150.211 336.897 150.337 337.149 150.337C337.023 150.211 337.023 150.085 336.897 149.959C336.268 148.45 335.765 145.43 336.52 139.391C337.904 128.823 328.09 121.526 323.058 126.936Z" stroke="black" stroke-miterlimit="10"/>
<path d="M164.393 324.58C161.877 332.506 153.448 336.91 145.522 334.393C137.595 331.877 133.192 323.448 135.708 315.522C138.224 307.595 146.654 303.192 154.58 305.708C162.38 308.224 166.784 316.654 164.393 324.58Z" fill="#E0821B"/>
<path d="M163.639 324.328C161.248 331.877 153.196 336.029 145.773 333.764C138.224 331.374 134.073 323.322 136.337 315.899C138.728 308.35 146.78 304.198 154.203 306.463C161.626 308.728 166.029 316.905 163.639 324.328Z" fill="#FCCA4C"/>
<path d="M160.871 323.448C158.983 329.487 152.567 332.758 146.654 330.871C140.615 328.984 137.344 322.567 139.231 316.654C141.118 310.615 147.535 307.344 153.448 309.231C159.361 311.118 162.758 317.535 160.871 323.448Z" fill="#FFE066"/>
<g opacity="0.23">
<g opacity="0.23">
<path opacity="0.23" d="M139.483 309.357L148.793 335.023C151.435 335.274 153.951 334.771 156.341 333.639L146.151 305.457C143.634 306.337 141.244 307.595 139.483 309.357Z" fill="#FFE066"/>
</g>
</g>
<path d="M158.606 307.847C158.606 307.721 158.606 307.721 158.606 307.847C158.103 307.47 157.474 307.092 156.845 306.841C156.719 306.715 156.593 306.715 156.467 306.589C155.838 306.337 155.209 306.086 154.58 305.834C154.454 305.834 154.328 305.708 154.203 305.708C151.435 304.953 148.793 304.953 146.15 305.708C145.018 306.086 143.886 306.463 142.754 307.092C142.628 307.092 142.502 307.218 142.502 307.218C142.125 307.47 141.621 307.721 141.244 308.099C141.118 308.225 141.118 308.224 140.992 308.35C140.489 308.728 140.112 309.105 139.608 309.483C137.847 311.118 136.589 313.257 135.834 315.647C133.318 323.574 137.721 332.003 145.647 334.519C146.78 334.897 147.786 335.023 148.918 335.148C149.044 335.148 149.044 335.148 149.17 335.148C149.673 335.148 150.177 335.148 150.68 335.148C150.806 335.148 150.931 335.148 151.057 335.148C151.56 335.148 152.064 335.023 152.567 335.023C152.693 335.023 152.693 335.023 152.819 335.023C153.448 334.897 153.951 334.771 154.58 334.645H154.706C155.209 334.519 155.712 334.268 156.216 334.016C156.216 334.016 156.341 334.016 156.341 333.89C159.361 332.506 161.877 330.116 163.513 326.971C163.639 326.845 163.638 326.719 163.764 326.593C164.016 325.964 164.268 325.335 164.519 324.706C164.519 324.454 164.645 324.329 164.645 324.077C166.155 317.786 163.639 311.37 158.606 307.847Z" stroke="black" stroke-miterlimit="10"/>
<path d="M339.923 256.957C337.91 259.473 339.294 264.254 343.068 268.783L352.127 257.46C346.842 254.818 341.936 254.44 339.923 256.957Z" fill="#FFA340"/>
<path d="M356.027 259.724L346.213 272.054C346.717 272.557 347.22 273.061 347.849 273.438L357.788 260.982C357.159 260.605 356.53 260.102 356.027 259.724Z" fill="#FFA340"/>
<path d="M341.854 254.397L339.416 257.441L365.438 278.282L367.876 275.238L341.854 254.397Z" fill="#FFA340"/>
<path d="M365.966 277.716C367.602 275.703 366.973 272.18 364.708 268.405L356.656 278.47C360.682 279.98 364.331 279.854 365.966 277.716Z" fill="#FFA340"/>
<path d="M352.127 257.46L343.068 268.783C343.949 269.915 344.955 270.922 346.088 272.054L355.901 259.724C354.769 258.844 353.385 258.089 352.127 257.46Z" fill="#FFB96E"/>
<path d="M357.914 261.108L357.788 260.982L347.849 273.438L347.975 273.564C350.869 275.828 353.888 277.59 356.656 278.47L364.708 268.405C363.073 266.015 360.808 263.499 357.914 261.108Z" fill="#FFB96E"/>
<path d="M367.35 275.954C364.582 279.351 356.53 277.464 349.359 271.802C342.187 266.015 338.539 258.592 341.307 255.195C344.075 251.798 352.127 253.685 359.298 259.347C366.595 265.009 370.118 272.432 367.35 275.954Z" fill="#E0821B"/>
<path d="M367.727 275.451C364.96 278.848 356.908 276.961 349.736 271.299C342.565 265.512 338.916 258.089 341.684 254.692C344.452 251.295 352.504 253.182 359.675 258.844C366.973 264.631 370.495 272.054 367.727 275.451Z" fill="#FCCA4C"/>
<path d="M365.085 273.312C362.946 275.954 356.656 274.444 350.868 269.789C345.207 265.26 342.187 259.347 344.326 256.705C346.465 254.063 352.756 255.573 358.543 260.228C364.33 264.883 367.224 270.67 365.085 273.312Z" fill="#FFE066"/>
<path d="M365.463 278.345L367.727 275.577L367.853 275.325C370.244 271.802 366.721 264.505 359.675 258.969C352.63 253.308 344.829 251.421 341.936 254.566L339.545 257.586L339.671 257.711C338.161 260.353 339.671 264.757 343.194 269.035C344.075 270.167 345.081 271.173 346.213 272.306C346.717 272.809 347.22 273.312 347.849 273.69L347.975 273.815C350.868 276.08 353.888 277.841 356.656 278.722C360.43 279.854 363.701 279.854 365.463 278.345Z" stroke="black" stroke-miterlimit="10"/>
<path d="M121.887 399.706C116.728 397.442 113.583 400.587 112.325 402.223C112.702 400.084 112.954 395.68 107.795 393.416C101.002 390.396 94.8367 400.964 100.373 410.149C103.518 415.307 104.147 418.327 104.147 419.962C104.147 420.088 104.147 420.34 104.147 420.465C104.273 420.34 104.399 420.214 104.524 420.088C105.783 418.956 108.425 417.572 114.338 416.314C124.906 414.426 128.68 402.726 121.887 399.706Z" fill="#EF1818"/>
<path d="M121.887 399.706C116.728 397.442 113.583 400.587 112.325 402.223C112.702 400.084 112.954 395.68 107.795 393.416C101.002 390.396 94.8367 400.964 100.373 410.149C103.518 415.307 104.147 418.327 104.147 419.962C104.147 420.088 104.147 420.34 104.147 420.465C104.273 420.34 104.399 420.214 104.524 420.088C105.783 418.956 108.425 417.572 114.338 416.314C124.906 414.426 128.68 402.726 121.887 399.706Z" stroke="black" stroke-miterlimit="10"/>
<path d="M347.626 413.328C343.6 417.228 345.362 421.38 346.368 423.141C344.607 422.009 340.581 420.122 336.555 424.022C331.145 429.18 338.694 438.868 349.262 437.232C355.301 436.352 358.32 436.855 359.83 437.358C359.956 437.484 360.082 437.484 360.208 437.61C360.208 437.484 360.082 437.358 360.082 437.232C359.579 435.723 359.201 432.577 360.334 426.664C362.347 416.096 352.911 408.296 347.626 413.328Z" fill="#EF1818"/>
<path d="M347.626 413.328C343.6 417.228 345.362 421.38 346.368 423.141C344.607 422.009 340.581 420.122 336.555 424.022C331.145 429.18 338.694 438.868 349.262 437.232C355.301 436.352 358.32 436.855 359.83 437.358C359.956 437.484 360.082 437.484 360.208 437.61C360.208 437.484 360.082 437.358 360.082 437.232C359.579 435.723 359.201 432.577 360.334 426.664C362.347 416.096 352.911 408.296 347.626 413.328Z" stroke="black" stroke-miterlimit="10"/>
<path d="M379.86 196.548C381.873 194.032 380.489 189.251 376.715 184.722L367.656 196.045C372.94 198.687 377.847 199.064 379.86 196.548Z" fill="#FFA340"/>
<path d="M363.756 193.78L373.57 181.451C373.066 180.947 372.563 180.444 371.934 180.067L361.995 192.522C362.624 192.9 363.253 193.403 363.756 193.78Z" fill="#FFA340"/>
<path d="M377.929 199.108L380.367 196.064L354.345 175.222L351.907 178.267L377.929 199.108Z" fill="#FFA340"/>
<path d="M353.817 175.789C352.181 177.802 352.81 181.325 355.075 185.099L363.127 175.034C359.101 173.524 355.452 173.65 353.817 175.789Z" fill="#FFA340"/>
<path d="M367.656 196.045L376.715 184.722C375.834 183.589 374.828 182.583 373.695 181.451L363.882 193.78C365.014 194.661 366.398 195.416 367.656 196.045Z" fill="#FFB96E"/>
<path d="M361.869 192.396L361.995 192.522L371.934 180.067L371.808 179.941C368.914 177.676 365.895 175.915 363.127 175.034L355.075 185.099C356.71 187.49 358.975 190.006 361.869 192.396Z" fill="#FFB96E"/>
<path d="M352.433 177.55C355.201 174.153 363.253 176.041 370.424 181.702C377.596 187.49 381.244 194.912 378.476 198.309C375.708 201.706 367.656 199.819 360.485 194.158C353.188 188.496 349.665 181.073 352.433 177.55Z" fill="#E0821B"/>
<path d="M352.055 178.054C354.823 174.657 362.875 176.544 370.047 182.206C377.218 187.993 380.867 195.416 378.099 198.813C375.331 202.21 367.279 200.323 360.108 194.661C352.81 188.874 349.288 181.451 352.055 178.054Z" fill="#FCCA4C"/>
<path d="M354.698 180.192C356.837 177.55 363.127 179.06 368.915 183.715C374.576 188.245 377.596 194.158 375.457 196.8C373.318 199.442 367.027 197.932 361.24 193.277C355.453 188.622 352.559 182.835 354.698 180.192Z" fill="#FFE066"/>
<path d="M354.32 175.16L352.055 177.928L351.93 178.179C349.539 181.702 353.062 188.999 360.107 194.535C367.153 200.197 374.953 202.084 377.847 198.939L380.237 195.919L380.112 195.793C381.621 193.151 380.112 188.748 376.589 184.47C375.708 183.338 374.702 182.331 373.569 181.199C373.066 180.696 372.563 180.192 371.934 179.815L371.808 179.689C368.914 177.425 365.895 175.663 363.127 174.783C359.353 173.65 356.081 173.65 354.32 175.16Z" stroke="black" stroke-miterlimit="10"/>
<path d="M282.338 224.789C285.487 225.472 289.152 222.105 291.528 216.709L277.357 213.637C277.343 219.545 279.189 224.107 282.338 224.789Z" fill="#FFA340"/>
<path d="M277.649 209.136L293.057 212.436C293.284 211.762 293.511 211.087 293.569 210.356L277.991 206.999C277.933 207.73 277.763 208.518 277.649 209.136Z" fill="#FFA340"/>
<path d="M279.186 224.199L282.997 225.027L290.078 192.449L286.267 191.62L279.186 224.199Z" fill="#FFA340"/>
<path d="M289.336 192.228C286.805 191.659 283.931 193.791 281.559 197.499L294.156 200.229C293.716 195.952 291.979 192.741 289.336 192.228Z" fill="#FFA340"/>
<path d="M277.357 213.637L291.528 216.709C292.15 215.416 292.604 214.067 293.114 212.549L277.705 209.249C277.42 210.655 277.36 212.23 277.357 213.637Z" fill="#FFB96E"/>
<path d="M278.048 206.83L277.991 206.999L293.569 210.356L293.625 210.187C294.365 206.588 294.599 203.1 294.156 200.229L281.559 197.499C280.146 200.027 278.901 203.175 278.048 206.83Z" fill="#FFB96E"/>
<path d="M287.143 191.773C291.417 192.74 293.311 200.79 291.432 209.732C289.442 218.73 284.419 225.301 280.145 224.334C275.871 223.367 273.977 215.317 275.855 206.375C277.677 197.321 282.756 190.862 287.143 191.773Z" fill="#E0821B"/>
<path d="M286.524 191.659C290.798 192.626 292.692 200.676 290.814 209.618C288.823 218.616 283.8 225.187 279.526 224.22C275.252 223.253 273.358 215.203 275.236 206.261C277.171 197.151 282.25 190.692 286.524 191.659Z" fill="#FCCA4C"/>
<path d="M285.785 194.977C289.103 195.716 290.55 202.021 288.958 209.276C287.422 216.362 283.47 221.698 280.153 220.958C276.835 220.219 275.387 213.914 276.979 206.659C278.572 199.405 282.467 194.238 285.785 194.977Z" fill="#FFE066"/>
<path d="M290.123 192.399L286.636 191.603L286.355 191.602C282.137 191.03 277.17 197.432 275.349 206.205C273.415 215.034 275.197 222.859 279.301 224.051L283.069 224.847L283.126 224.679C286.164 224.855 289.435 221.543 291.697 216.484C292.319 215.192 292.773 213.842 293.283 212.324C293.509 211.65 293.736 210.975 293.794 210.244L293.851 210.075C294.591 206.476 294.824 202.988 294.381 200.117C293.715 196.234 292.259 193.304 290.123 192.399Z" stroke="black" stroke-miterlimit="10"/>
<path d="M273.796 447.493C276.312 439.566 284.742 435.163 292.668 437.679C300.594 440.195 304.998 448.625 302.481 456.551C299.965 464.477 291.536 468.881 283.609 466.364C275.809 463.848 271.406 455.419 273.796 447.493Z" fill="#E0821B"/>
<path d="M274.551 447.744C276.941 440.196 284.993 436.044 292.416 438.308C299.965 440.699 304.117 448.751 301.852 456.174C299.462 463.723 291.41 467.874 283.987 465.61C276.564 463.345 272.16 455.167 274.551 447.744Z" fill="#FCCA4C"/>
<path d="M277.319 448.625C279.206 442.586 285.622 439.315 291.535 441.202C297.574 443.089 300.846 449.506 298.958 455.419C297.071 461.458 290.655 464.729 284.742 462.842C278.828 460.955 275.431 454.538 277.319 448.625Z" fill="#FFE066"/>
<g opacity="0.23">
<g opacity="0.23">
<path opacity="0.23" d="M273.67 447.996L279.583 464.226C280.841 465.106 282.225 465.735 283.735 466.239C283.861 466.239 283.986 466.364 284.112 466.364L275.809 443.467C274.928 444.725 274.299 445.983 273.921 447.493C273.796 447.618 273.67 447.87 273.67 447.996Z" fill="#FFE066"/>
</g>
</g>
<g opacity="0.23">
<g opacity="0.23">
<path opacity="0.23" d="M298.707 462.716L289.397 437.05C286.755 436.798 284.238 437.302 281.848 438.434L292.039 466.616C294.555 465.735 296.945 464.477 298.707 462.716Z" fill="#FFE066"/>
</g>
</g>
<path d="M279.583 464.226C279.583 464.351 279.583 464.351 279.583 464.226C280.086 464.603 280.716 464.98 281.345 465.232C281.47 465.358 281.596 465.358 281.722 465.484C282.351 465.735 282.98 465.987 283.609 466.239C283.735 466.239 283.861 466.364 283.987 466.364C286.755 467.119 289.397 467.119 292.039 466.364C293.171 465.987 294.303 465.61 295.436 464.98C295.561 464.98 295.687 464.855 295.687 464.855C296.065 464.603 296.568 464.351 296.945 463.974C297.071 463.848 297.071 463.848 297.197 463.722C297.7 463.345 298.078 462.967 298.581 462.59C300.342 460.954 301.6 458.816 302.355 456.425C304.872 448.499 300.468 440.07 292.542 437.553C291.41 437.176 290.403 437.05 289.271 436.924C289.145 436.924 289.145 436.924 289.019 436.924C288.516 436.924 288.013 436.924 287.509 436.924C287.384 436.924 287.258 436.924 287.132 436.924C286.629 436.924 286.125 437.05 285.622 437.05C285.496 437.05 285.496 437.05 285.371 437.05C284.742 437.176 284.238 437.302 283.609 437.427L283.483 437.427C282.98 437.553 282.477 437.805 281.974 438.057C281.974 438.057 281.848 438.057 281.848 438.182C278.828 439.566 276.312 441.957 274.676 445.102C274.551 445.228 274.551 445.354 274.425 445.479C274.173 446.109 273.922 446.738 273.67 447.367C273.67 447.618 273.544 447.744 273.544 447.996C272.034 454.286 274.551 460.703 279.583 464.226Z" stroke="black" stroke-miterlimit="10"/>
<path d="M230.517 408.566C226.491 412.467 228.253 416.618 229.259 418.38C227.498 417.247 223.472 415.36 219.446 419.261C214.036 424.419 221.585 434.106 232.153 432.471C238.192 431.59 241.211 432.093 242.721 432.597C242.847 432.722 242.973 432.722 243.099 432.848C243.099 432.722 242.973 432.597 242.973 432.471C242.469 430.961 242.092 427.816 243.224 421.903C245.237 411.334 235.801 403.534 230.517 408.566Z" fill="#EF1818"/>
<path d="M230.517 408.566C226.491 412.467 228.253 416.618 229.259 418.38C227.498 417.247 223.472 415.36 219.446 419.261C214.036 424.419 221.585 434.106 232.153 432.471C238.192 431.59 241.211 432.093 242.721 432.597C242.847 432.722 242.973 432.722 243.099 432.848C243.099 432.722 242.973 432.597 242.973 432.471C242.469 430.961 242.092 427.816 243.224 421.903C245.237 411.334 235.801 403.534 230.517 408.566Z" stroke="black" stroke-miterlimit="10"/>
<path d="M156.687 442.731C159.203 434.805 167.633 430.401 175.559 432.918C183.485 435.434 187.888 443.863 185.372 451.789C182.856 459.716 174.426 464.119 166.5 461.603C158.7 459.087 154.296 450.657 156.687 442.731Z" fill="#E0821B"/>
<path d="M157.442 442.983C159.832 435.434 167.884 431.282 175.307 433.547C182.856 435.937 187.008 443.989 184.743 451.412C182.352 458.961 174.3 463.113 166.877 460.848C159.455 458.583 155.051 450.406 157.442 442.983Z" fill="#FCCA4C"/>
<path d="M160.209 443.863C162.097 437.824 168.513 434.553 174.426 436.44C180.465 438.328 183.736 444.744 181.849 450.657C179.962 456.696 173.546 459.967 167.632 458.08C161.719 456.193 158.322 449.776 160.209 443.863Z" fill="#FFE066"/>
<g opacity="0.23">
<g opacity="0.23">
<path opacity="0.23" d="M156.561 443.234L162.474 459.464C163.732 460.345 165.116 460.974 166.626 461.477C166.752 461.477 166.877 461.603 167.003 461.603L158.7 438.705C157.819 439.963 157.19 441.221 156.812 442.731C156.687 442.857 156.561 443.108 156.561 443.234Z" fill="#FFE066"/>
</g>
</g>
<g opacity="0.23">
<g opacity="0.23">
<path opacity="0.23" d="M181.598 457.954L172.287 432.288C169.645 432.037 167.129 432.54 164.739 433.672L174.93 461.854C177.446 460.974 179.836 459.716 181.598 457.954Z" fill="#FFE066"/>
</g>
</g>
<path d="M162.474 459.464C162.474 459.59 162.474 459.59 162.474 459.464C162.977 459.841 163.606 460.219 164.235 460.47C164.361 460.596 164.487 460.596 164.613 460.722C165.242 460.974 165.871 461.225 166.5 461.477C166.626 461.477 166.752 461.603 166.878 461.603C169.645 462.358 172.288 462.358 174.93 461.603C176.062 461.225 177.194 460.848 178.326 460.219C178.452 460.219 178.578 460.093 178.578 460.093C178.956 459.841 179.459 459.59 179.836 459.212C179.962 459.087 179.962 459.087 180.088 458.961C180.591 458.583 180.969 458.206 181.472 457.828C183.233 456.193 184.491 454.054 185.246 451.664C187.762 443.737 183.359 435.308 175.433 432.792C174.3 432.414 173.294 432.288 172.162 432.163C172.036 432.163 172.036 432.163 171.91 432.163C171.407 432.163 170.904 432.163 170.4 432.163C170.274 432.163 170.149 432.163 170.023 432.163C169.52 432.163 169.016 432.288 168.513 432.288C168.387 432.288 168.387 432.288 168.261 432.288C167.632 432.414 167.129 432.54 166.5 432.666L166.374 432.666C165.871 432.792 165.368 433.043 164.865 433.295C164.865 433.295 164.739 433.295 164.739 433.421C161.719 434.805 159.203 437.195 157.567 440.34C157.442 440.466 157.442 440.592 157.316 440.718C157.064 441.347 156.812 441.976 156.561 442.605C156.561 442.857 156.435 442.982 156.435 443.234C154.925 449.525 157.442 455.941 162.474 459.464Z" stroke="black" stroke-miterlimit="10"/>
<path d="M37.8334 562.614C39.7206 565.256 44.6274 565.256 50.0373 562.866L41.6078 550.914C37.7076 555.317 35.9463 559.972 37.8334 562.614Z" fill="#FFA340"/>
<path d="M45.0048 547.894L54.0633 560.727C54.6924 560.349 55.3215 559.972 55.8247 559.595L46.6403 546.51C46.1371 547.013 45.508 547.517 45.0048 547.894Z" fill="#FFA340"/>
<path d="M63.1664 540.646L35.934 559.88L38.184 563.066L65.4164 543.832L63.1664 540.646Z" fill="#FFA340"/>
<path d="M65.1349 543.365C63.6252 541.226 60.1025 540.848 55.8248 541.981L63.2477 552.423C65.764 549.026 66.6447 545.504 65.1349 543.365Z" fill="#FFA340"/>
<path d="M41.7338 550.914L50.1632 562.866C51.4214 562.362 52.8052 561.608 54.1892 560.853L45.1307 548.02C43.7468 548.9 42.7403 549.907 41.7338 550.914Z" fill="#FFB96E"/>
<path d="M46.892 546.51L46.7662 546.636L55.9506 559.72L56.0763 559.594C59.0958 557.456 61.4863 555.065 63.2477 552.675L55.8248 542.232C53.0569 542.861 49.9115 544.371 46.892 546.51Z" fill="#FFB96E"/>
<path d="M63.751 541.477C66.2672 545.126 62.2412 552.297 54.6924 557.581C47.1437 562.866 38.9658 564.25 36.4496 560.727C33.9333 557.078 37.9593 549.907 45.5081 544.623C53.0569 539.213 61.2347 537.829 63.751 541.477Z" fill="#E0821B"/>
<path d="M63.3735 540.974C65.8898 544.623 61.8638 551.794 54.315 557.078C46.7662 562.362 38.5884 563.746 36.0721 560.224C33.5559 556.575 37.5819 549.404 45.1307 544.119C52.6794 538.71 60.8573 537.326 63.3735 540.974Z" fill="#FCCA4C"/>
<path d="M60.6056 542.861C62.6186 545.629 59.3475 551.291 53.3085 555.568C47.2695 559.846 40.853 560.978 38.9658 558.211C36.9528 555.443 40.2239 549.781 46.2629 545.503C52.1761 541.352 58.5926 540.093 60.6056 542.861Z" fill="#FFE066"/>
<path d="M65.5122 543.868L63.7509 541.352L63.3734 540.848L63.2476 540.597C60.4797 537.326 52.5535 538.71 45.2564 543.868C37.9592 549.026 33.9332 556.072 36.072 559.72L38.3366 562.866H38.4624C40.6012 565.005 45.1305 564.879 50.2889 562.614C51.547 562.111 52.931 561.356 54.3149 560.601C54.944 560.224 55.573 559.846 56.0762 559.469L56.2021 559.343C59.2216 557.204 61.612 554.814 63.3734 552.423C65.6381 549.278 66.3929 546.133 65.5122 543.868Z" stroke="black" stroke-miterlimit="10"/>
<path d="M427.176 566.134C432.334 563.995 432.208 559.466 431.831 557.453C433.089 559.214 436.109 562.36 441.267 560.221C448.187 557.327 444.664 545.627 434.221 543.236C428.308 541.852 425.666 540.342 424.408 539.21C424.282 539.084 424.156 538.958 424.031 538.833C424.031 538.958 424.031 539.084 424.031 539.336C423.905 540.971 423.15 543.991 420.005 549.149C414.469 558.208 420.256 568.902 427.176 566.134Z" fill="#EF1818"/>
<path d="M427.176 566.134C432.334 563.995 432.208 559.466 431.831 557.453C433.089 559.214 436.109 562.36 441.267 560.221C448.187 557.327 444.664 545.627 434.221 543.236C428.308 541.852 425.666 540.342 424.408 539.21C424.282 539.084 424.156 538.958 424.031 538.833C424.031 538.958 424.031 539.084 424.031 539.336C423.905 540.971 423.15 543.991 420.005 549.149C414.469 558.208 420.256 568.902 427.176 566.134Z" stroke="black" stroke-miterlimit="10"/>
<path d="M413.101 34.4399C411.969 37.4594 414.737 41.4854 419.769 44.7565L424.928 31.1688C419.015 30.1623 414.234 31.2945 413.101 34.4399Z" fill="#FFA340"/>
<path d="M429.205 32.0496L423.67 46.7696C424.299 47.0212 424.928 47.3987 425.683 47.6503L431.344 32.6786C430.589 32.427 429.96 32.3012 429.205 32.0496Z" fill="#FFA340"/>
<path d="M414.135 31.3719L412.761 35.0221L443.965 46.7613L445.338 43.1111L414.135 31.3719Z" fill="#FFA340"/>
<path d="M444.303 46.1405C445.184 43.6243 443.548 40.6048 440.151 37.7111L435.622 49.7891C440.025 49.7891 443.422 48.6568 444.303 46.1405Z" fill="#FFA340"/>
<path d="M424.928 31.043L419.769 44.6308C420.902 45.3857 422.286 46.1405 423.67 46.7696L429.205 32.0496C427.821 31.5463 426.312 31.2946 424.928 31.043Z" fill="#FFB96E"/>
<path d="M431.47 32.8044C431.344 32.8044 431.344 32.8044 431.218 32.6786L425.557 47.6503C425.683 47.6503 425.683 47.6503 425.808 47.7762C429.205 49.0343 432.602 49.7891 435.622 49.7891L440.151 37.7111C438.012 35.8239 434.993 34.0625 431.47 32.8044Z" fill="#FFB96E"/>
<path d="M445.184 43.8758C443.674 48.0277 435.371 48.6567 426.815 45.5114C418.26 42.2403 412.473 36.3271 413.982 32.1753C415.492 28.0234 423.796 27.3944 432.351 30.5397C440.906 33.8109 446.694 39.724 445.184 43.8758Z" fill="#E0821B"/>
<path d="M445.309 43.3726C443.8 47.5245 435.496 48.1535 426.941 45.0082C418.385 41.7371 412.598 35.8238 414.108 31.672C415.617 27.5202 423.921 26.8911 432.476 30.0364C441.158 33.3076 446.945 39.2208 445.309 43.3726Z" fill="#FCCA4C"/>
<path d="M442.164 42.1144C440.906 45.2598 434.49 45.763 427.57 43.2467C420.776 40.7304 416.121 35.9496 417.379 32.8043C418.637 29.6589 425.054 29.1557 431.973 31.6719C438.767 34.314 443.297 38.9691 442.164 42.1144Z" fill="#FFE066"/>
<path d="M444.051 46.7694L445.435 43.1209C446.693 38.9691 441.032 33.1817 432.602 30.0363C424.173 26.891 416.121 27.5201 414.359 31.4203L412.976 35.0688H413.101C412.472 37.9625 415.24 41.7369 419.895 44.7565C421.028 45.5113 422.412 46.2662 423.795 46.8953C424.425 47.1469 425.054 47.5244 425.808 47.776C425.934 47.776 425.934 47.776 426.06 47.9018C429.457 49.1599 432.854 49.9147 435.873 49.9147C439.648 49.7889 442.793 48.7824 444.051 46.7694Z" stroke="black" stroke-miterlimit="10"/>
<path d="M47.9253 31.7611C43.1444 28.8674 39.6217 31.6353 38.1119 33.1451C38.741 31.1321 39.4959 26.7286 34.715 23.8349C28.2985 20.0605 21.0014 29.7481 25.279 39.5615C27.6695 45.0973 28.0469 48.2426 27.9211 49.7524C27.9211 49.8782 27.9211 50.1298 27.7953 50.2556C27.9211 50.1298 28.047 50.1297 28.1728 50.0039C29.5567 49.1232 32.3245 47.9909 38.4894 47.4877C49.0576 46.607 54.3418 35.5355 47.9253 31.7611Z" fill="#EF1818"/>
<path d="M38.4894 47.4877C49.1835 46.7328 54.3418 35.5355 47.9253 31.7611C43.1444 28.8674 39.6217 31.6353 38.1119 33.1451C38.741 31.1321 39.4959 26.7286 34.715 23.8349C28.2985 20.0605 21.0014 29.7481 25.279 39.5615C27.6695 45.0973 28.0469 48.2426 27.9211 49.7524C27.9211 49.8782 27.9211 50.1298 27.7953 50.2556C27.9211 50.1298 28.047 50.1297 28.1728 50.0039C29.5567 48.9974 32.4503 47.8651 38.4894 47.4877Z" stroke="black" stroke-miterlimit="10"/>
<path d="M162.823 46.3615C163.829 43.2162 160.81 39.316 155.651 36.4224L151.122 50.2618C157.161 50.8908 161.816 49.5068 162.823 46.3615Z" fill="#FFA340"/>
<path d="M146.844 49.5068L151.751 34.5351C151.122 34.2835 150.367 34.0318 149.738 33.7802L144.831 49.0036C145.46 49.1294 146.089 49.2552 146.844 49.5068Z" fill="#FFA340"/>
<path d="M161.878 49.4622L163.08 45.7515L131.36 35.4793L130.158 39.19L161.878 49.4622Z" fill="#FFA340"/>
<path d="M131.118 36.1707C130.363 38.6869 132.124 41.7064 135.647 44.3485L139.547 32.1447C135.27 32.1447 131.999 33.6544 131.118 36.1707Z" fill="#FFA340"/>
<path d="M151.248 50.2617L155.777 36.4222C154.519 35.6674 153.135 35.0383 151.751 34.5351L146.845 49.5067C148.354 49.8842 149.864 50.1358 151.248 50.2617Z" fill="#FFB96E"/>
<path d="M144.58 48.8777C144.706 48.8777 144.706 48.8777 144.832 48.8777L149.738 33.6544C149.612 33.6544 149.613 33.6544 149.487 33.5286C145.964 32.3963 142.567 31.8931 139.673 32.0189L135.773 44.2227C137.912 46.1098 141.057 47.7454 144.58 48.8777Z" fill="#FFB96E"/>
<path d="M130.363 38.3095C131.747 34.1577 139.925 33.0254 148.732 35.7933C157.538 38.6869 163.452 44.3485 162.068 48.5003C160.684 52.6521 152.506 53.7845 143.699 51.0166C135.018 48.2487 129.105 42.5871 130.363 38.3095Z" fill="#E0821B"/>
<path d="M130.237 38.9386C131.621 34.7868 139.799 33.6544 148.606 36.4223C157.413 39.316 163.326 44.9776 161.942 49.1294C160.558 53.2812 152.38 54.4135 143.574 51.6456C134.892 48.8778 128.853 43.0904 130.237 38.9386Z" fill="#FCCA4C"/>
<path d="M133.508 39.945C134.515 36.6739 141.057 35.919 147.977 38.1836C154.897 40.4482 159.677 44.8517 158.671 48.1228C157.664 51.394 151.122 52.1488 144.202 49.8842C137.283 47.6195 132.376 43.2161 133.508 39.945Z" fill="#FFE066"/>
<path d="M143.574 51.6456C152.129 54.4135 160.181 53.407 161.816 49.5068L162.823 46.3614L163.074 45.7324C163.452 42.7129 160.558 39.1902 155.777 36.4223C154.519 35.6674 153.135 35.0383 151.751 34.5351C151.122 34.2834 150.367 34.0318 149.738 33.7802C149.612 33.7802 149.613 33.7802 149.487 33.6544C145.964 32.5221 142.567 32.0188 139.673 32.1446C135.647 32.2704 132.628 33.4027 131.495 35.5416L131.37 35.5416L131.118 36.1706L130.363 38.4352L130.237 39.0643L130.112 39.3159C129.105 43.342 135.018 48.8777 143.574 51.6456Z" stroke="black" stroke-miterlimit="10"/>
<path d="M222.213 536.82C224.729 528.893 233.158 524.49 241.085 527.006C249.011 529.522 253.414 537.952 250.898 545.878C248.382 553.804 239.952 558.208 232.026 555.692C224.226 553.175 219.822 544.746 222.213 536.82Z" fill="#E0821B"/>
<path d="M222.968 536.945C225.358 529.397 233.41 525.245 240.833 527.509C248.382 529.9 252.534 537.952 250.269 545.375C247.879 552.924 239.827 557.075 232.404 554.811C224.981 552.546 220.577 544.494 222.968 536.945Z" fill="#FCCA4C"/>
<path d="M225.736 537.826C227.623 531.787 234.039 528.516 239.952 530.403C245.991 532.29 249.263 538.707 247.375 544.62C245.488 550.659 239.072 553.93 233.159 552.043C227.245 550.156 223.974 543.865 225.736 537.826Z" fill="#FFE066"/>
<g opacity="0.23">
<g opacity="0.23">
<path opacity="0.23" d="M247.124 552.043L237.814 526.377C235.172 526.125 232.655 526.629 230.265 527.761L240.456 555.943C243.098 555.062 245.362 553.804 247.124 552.043Z" fill="#FFE066"/>
</g>
</g>
<path d="M228 553.553C228 553.679 228 553.679 228 553.553C228.503 553.93 229.132 554.308 229.762 554.559C229.887 554.685 230.013 554.685 230.139 554.811C230.768 555.062 231.397 555.314 232.026 555.566C232.152 555.566 232.278 555.692 232.404 555.692C235.171 556.446 237.814 556.446 240.456 555.692C241.588 555.314 242.72 554.937 243.853 554.308C243.978 554.308 244.104 554.182 244.104 554.182C244.482 553.93 244.985 553.679 245.362 553.301C245.488 553.175 245.488 553.175 245.614 553.049C246.117 552.672 246.495 552.295 246.998 551.917C248.759 550.282 250.017 548.143 250.772 545.752C253.289 537.826 248.885 529.397 240.959 526.88C239.827 526.503 238.82 526.377 237.688 526.251C237.562 526.251 237.562 526.251 237.436 526.251C236.933 526.251 236.43 526.251 235.926 526.251C235.801 526.251 235.675 526.251 235.549 526.251C235.046 526.251 234.542 526.377 234.039 526.377C233.913 526.377 233.913 526.377 233.788 526.377C233.159 526.503 232.655 526.629 232.026 526.755L231.9 526.755C231.397 526.88 230.894 527.132 230.391 527.384C230.391 527.384 230.265 527.384 230.265 527.509C227.245 528.893 224.729 531.284 223.093 534.429C222.968 534.555 222.968 534.681 222.842 534.807C222.59 535.436 222.339 536.065 222.087 536.694C222.087 536.945 221.961 537.071 221.961 537.323C220.451 543.613 222.968 550.03 228 553.553Z" stroke="black" stroke-miterlimit="10"/>
<path d="M339.904 525.764C340.91 522.744 338.016 518.718 332.858 515.699L328.203 529.538C334.116 530.167 338.771 528.783 339.904 525.764Z" fill="#FFA340"/>
<path d="M323.8 528.658L328.832 513.686C328.203 513.434 327.448 513.183 326.819 512.931L321.787 528.029C322.416 528.28 323.045 528.532 323.8 528.658Z" fill="#FFA340"/>
<path d="M338.78 528.775L340.016 525.076L308.396 514.507L307.16 518.206L338.78 528.775Z" fill="#FFA340"/>
<path d="M308.199 515.196C307.318 517.712 309.205 520.731 312.602 523.499L316.628 511.295C312.35 511.295 309.079 512.679 308.199 515.196Z" fill="#FFA340"/>
<path d="M328.203 529.538L332.858 515.699C331.6 514.944 330.342 514.315 328.832 513.686L323.8 528.658C325.309 529.035 326.819 529.412 328.203 529.538Z" fill="#FFB96E"/>
<path d="M321.535 528.029C321.661 528.029 321.661 528.029 321.787 528.029L326.819 512.931C326.693 512.931 326.693 512.931 326.567 512.805C323.045 511.673 319.648 511.044 316.754 511.17L312.728 523.373C314.993 525.261 318.012 526.896 321.535 528.029Z" fill="#FFB96E"/>
<path d="M307.444 517.46C308.828 513.309 317.006 512.302 325.812 515.196C334.494 518.089 340.533 523.877 339.149 528.029C337.765 532.18 329.587 533.187 320.78 530.293C311.973 527.4 306.06 521.612 307.444 517.46Z" fill="#E0821B"/>
<path d="M307.318 517.964C308.702 513.812 316.88 512.805 325.687 515.699C334.368 518.593 340.407 524.38 339.023 528.532C337.639 532.684 329.461 533.69 320.654 530.796C311.848 527.903 305.934 522.241 307.318 517.964Z" fill="#FCCA4C"/>
<path d="M310.463 519.096C311.596 515.825 318.012 515.196 324.932 517.46C331.852 519.725 336.632 524.254 335.5 527.525C334.368 530.796 327.951 531.425 321.032 529.161C314.238 526.77 309.457 522.241 310.463 519.096Z" fill="#FFE066"/>
<path d="M320.528 530.796C329.084 533.69 337.136 532.684 338.771 528.783L338.897 528.532L340.029 525.135C340.533 522.115 337.639 518.593 332.858 515.699C331.6 514.944 330.342 514.315 328.832 513.686C328.203 513.434 327.448 513.183 326.819 512.931C326.693 512.931 326.693 512.931 326.567 512.805C323.045 511.673 319.648 511.044 316.754 511.17C312.728 511.295 309.709 512.428 308.576 514.567L308.45 514.567L307.318 517.964L307.192 518.215C306.186 522.493 311.973 528.029 320.528 530.796Z" stroke="black" stroke-miterlimit="10"/>
<path d="M36.3587 119.286C38.1201 121.928 43.1527 122.054 48.5626 119.789L40.3848 107.711C36.3588 111.989 34.5974 116.518 36.3587 119.286Z" fill="#FFA340"/>
<path d="M43.7816 104.692L52.5885 117.776C53.2176 117.399 53.8466 117.021 54.4757 116.644L45.5429 103.433C44.9139 103.811 44.4107 104.314 43.7816 104.692Z" fill="#FFA340"/>
<path d="M62.2913 97.9539L34.6721 116.631L36.857 119.862L64.4762 101.185L62.2913 97.9539Z" fill="#FFA340"/>
<path d="M64.0375 100.54C62.5277 98.4007 59.005 97.8975 54.8531 99.0299L62.0245 109.724C64.5408 106.201 65.4214 102.804 64.0375 100.54Z" fill="#FFA340"/>
<path d="M40.5106 107.711L48.6885 119.789C49.9466 119.286 51.3305 118.531 52.7145 117.776L43.9076 104.692C42.5236 105.698 41.5171 106.705 40.5106 107.711Z" fill="#FFB96E"/>
<path d="M45.6689 103.308L45.5431 103.433L54.4758 116.644L54.6016 116.518C57.6211 114.505 60.1374 112.115 61.8988 109.724L54.7275 99.03C51.9596 99.7848 48.8143 101.295 45.6689 103.308Z" fill="#FFB96E"/>
<path d="M62.6536 98.6524C65.1699 102.301 60.8922 109.472 53.3434 114.631C45.6688 119.789 37.491 121.047 35.1006 117.399C32.5843 113.75 36.862 106.579 44.4107 101.42C51.9595 96.262 60.1373 95.0039 62.6536 98.6524Z" fill="#E0821B"/>
<path d="M62.2762 98.1491C64.7924 101.798 60.5147 108.969 52.966 114.127C45.2914 119.286 37.1136 120.544 34.7231 116.895C32.2069 113.247 36.4845 106.075 44.0333 100.917C51.7079 95.7587 59.8857 94.5006 62.2762 98.1491Z" fill="#FCCA4C"/>
<path d="M59.5083 100.036C61.3954 102.804 57.9985 108.466 51.9595 112.492C45.9205 116.644 39.3782 117.65 37.491 114.882C35.6038 112.114 39.0008 106.453 45.0398 102.427C51.2046 98.275 57.6211 97.2685 59.5083 100.036Z" fill="#FFE066"/>
<path d="M44.0342 100.917C36.6112 105.95 32.4594 112.869 34.5982 116.644L36.3595 119.286L36.737 119.789H36.8628C39.0016 121.928 43.5309 121.928 48.6892 119.789C49.9473 119.286 51.3313 118.531 52.7152 117.776C53.3443 117.399 53.9733 117.021 54.6024 116.644L54.7283 116.518C57.7478 114.505 60.264 112.114 62.0254 109.724C64.4158 106.453 65.2965 103.307 64.4158 101.169H64.5416L64.1642 100.665L62.7802 98.6524L62.4028 98.1492L62.277 97.8975C59.5091 94.5006 51.4571 95.7587 44.0342 100.917Z" stroke="black" stroke-miterlimit="10"/>
<path d="M398.556 336.63C395.537 335.372 391.385 338.14 388.114 343.046L401.576 348.456C402.708 342.543 401.576 337.762 398.556 336.63Z" fill="#FFA340"/>
<path d="M400.57 352.734L385.975 346.821C385.724 347.45 385.346 348.079 385.095 348.834L399.941 354.747C400.066 354.118 400.318 353.489 400.57 352.734Z" fill="#FFA340"/>
<path d="M398.057 336.274L385.581 367.194L389.198 368.653L401.674 337.733L398.057 336.274Z" fill="#FFA340"/>
<path d="M386.101 367.454C388.491 368.46 391.763 366.825 394.656 363.554L382.704 358.773C382.452 363.176 383.711 366.447 386.101 367.454Z" fill="#FFA340"/>
<path d="M401.701 348.456L388.24 343.046C387.485 344.179 386.73 345.562 385.975 346.946L400.569 352.86C401.072 351.35 401.45 349.84 401.701 348.456Z" fill="#FFB96E"/>
<path d="M399.814 354.998C399.814 354.873 399.814 354.873 399.94 354.747L385.094 348.834C385.094 348.959 385.094 348.959 384.968 349.085C383.584 352.482 382.829 355.879 382.704 358.773L394.656 363.554C396.543 361.415 398.43 358.395 399.814 354.998Z" fill="#FFB96E"/>
<path d="M388.365 368.335C384.339 366.699 383.71 358.395 387.233 349.84C390.63 341.285 396.795 335.749 400.821 337.385C404.847 339.02 405.476 347.324 401.953 355.879C398.43 364.434 392.391 369.97 388.365 368.335Z" fill="#E0821B"/>
<path d="M388.869 368.586C384.843 366.951 384.214 358.647 387.736 350.092C391.133 341.537 397.298 336.001 401.324 337.636C405.35 339.272 405.979 347.576 402.456 356.131C399.06 364.686 392.895 370.222 388.869 368.586Z" fill="#FCCA4C"/>
<path d="M390.127 365.441C386.982 364.183 386.604 357.64 389.372 350.847C392.14 344.053 396.921 339.649 400.066 340.907C403.211 342.165 403.589 348.708 400.821 355.502C398.053 362.296 393.272 366.699 390.127 365.441Z" fill="#FFE066"/>
<path d="M388.114 343.046C387.359 344.179 386.604 345.563 385.849 346.946C385.598 347.576 385.22 348.205 384.969 348.96C384.969 349.085 384.969 349.085 384.843 349.211C383.459 352.608 382.704 356.005 382.578 358.899C382.452 362.925 383.333 366.07 385.472 367.328V367.454L386.101 367.706L388.869 368.838L389.12 368.964C393.146 370.222 399.06 364.812 402.457 356.382C405.853 348.079 405.35 340.027 401.576 338.14L398.556 336.881L397.927 336.63V336.756C395.034 335.749 391.259 338.391 388.114 343.046Z" stroke="black" stroke-miterlimit="10"/>
<path d="M314.583 379.421C317.516 377.972 318.159 373.024 316.61 367.334L303.685 373.925C307.398 378.664 311.745 380.953 314.583 379.421Z" fill="#FFA340"/>
<path d="M301.123 370.355L315.171 363.241C314.862 362.638 314.636 361.94 314.233 361.254L300.019 368.558C300.41 369.066 300.719 369.669 301.123 370.355Z" fill="#FFA340"/>
<path d="M315.18 379.279L300.075 349.555L296.598 351.322L311.703 381.046L315.18 379.279Z" fill="#FFA340"/>
<path d="M299.537 349.775C297.208 350.916 296.29 354.456 296.854 358.787L308.313 352.92C305.159 349.837 301.867 348.635 299.537 349.775Z" fill="#FFA340"/>
<path d="M303.603 374.019L316.528 367.428C316.17 366.115 315.624 364.637 315.077 363.158L301.028 370.272C301.835 371.643 302.725 372.92 303.603 374.019Z" fill="#FFB96E"/>
<path d="M299.912 368.297C300.007 368.38 300.007 368.38 300.019 368.557L314.233 361.254C314.138 361.171 314.138 361.171 314.126 360.994C312.475 357.718 310.411 354.917 308.313 352.92L296.854 358.786C297.226 361.615 298.262 365.021 299.912 368.297Z" fill="#FFB96E"/>
<path d="M297.385 350.903C301.264 348.944 307.936 353.927 312.069 362.205C316.284 370.388 316.405 378.672 312.526 380.632C308.648 382.591 301.976 377.608 297.843 369.33C293.71 361.052 293.507 352.863 297.385 350.903Z" fill="#E0821B"/>
<path d="M296.865 351.117C300.743 349.158 307.415 354.141 311.548 362.419C315.764 370.602 315.885 378.886 312.006 380.846C308.127 382.805 301.455 377.822 297.322 369.544C293.107 361.361 292.986 353.077 296.865 351.117Z" fill="#FCCA4C"/>
<path d="M298.409 354.133C301.424 352.589 306.603 356.604 309.904 363.155C313.206 369.707 313.383 376.204 310.367 377.748C307.352 379.291 302.173 375.276 298.871 368.725C295.57 362.174 295.393 355.676 298.409 354.133Z" fill="#FFE066"/>
<path d="M316.61 367.334C316.253 366.02 315.706 364.542 315.159 363.063C314.85 362.46 314.624 361.762 314.221 361.077C314.126 360.994 314.126 360.994 314.114 360.817C312.463 357.541 310.399 354.739 308.301 352.743C305.349 350.002 302.4 348.599 300.046 349.384L299.951 349.301L299.348 349.61L296.675 350.952L296.415 351.059C292.821 353.266 293.012 361.279 297.133 369.379C301.159 377.397 307.558 382.309 311.461 380.705L314.394 379.256L314.997 378.947L314.902 378.864C317.563 377.345 318.052 372.764 316.61 367.334Z" stroke="black" stroke-miterlimit="10"/>
<path d="M54.5835 382.421C57.5162 380.972 58.1587 376.024 56.6104 370.334L43.6854 376.925C47.398 381.664 51.7456 383.953 54.5835 382.421Z" fill="#FFA340"/>
<path d="M41.1227 373.355L55.1711 366.241C54.8624 365.638 54.6363 364.94 54.2327 364.254L40.0189 371.558C40.4104 372.066 40.7191 372.669 41.1227 373.355Z" fill="#FFA340"/>
<path d="M55.1797 382.279L40.0748 352.555L36.5977 354.322L51.7026 384.046L55.1797 382.279Z" fill="#FFA340"/>
<path d="M39.5372 352.775C37.2076 353.916 36.2905 357.456 36.8541 361.787L48.3127 355.92C45.1592 352.837 41.8669 351.635 39.5372 352.775Z" fill="#FFA340"/>
<path d="M43.6028 377.019L56.5277 370.428C56.1704 369.115 55.6235 367.637 55.0766 366.158L41.0281 373.272C41.8353 374.643 42.7251 375.92 43.6028 377.019Z" fill="#FFB96E"/>
<path d="M39.9123 371.297C40.0071 371.38 40.0071 371.38 40.0192 371.557L54.233 364.254C54.1382 364.171 54.1382 364.171 54.1261 363.994C52.4753 360.718 50.4112 357.917 48.3129 355.92L36.8543 361.786C37.226 364.615 38.2616 368.021 39.9123 371.297Z" fill="#FFB96E"/>
<path d="M37.3853 353.903C41.264 351.944 47.9359 356.927 52.0688 365.205C56.2844 373.388 56.405 381.672 52.5263 383.632C48.6476 385.591 41.9757 380.608 37.8428 372.33C33.7099 364.052 33.5066 355.863 37.3853 353.903Z" fill="#E0821B"/>
<path d="M36.8646 354.117C40.7433 352.158 47.4153 357.141 51.5481 365.419C55.7637 373.602 55.8844 381.886 52.0057 383.846C48.127 385.805 41.4551 380.822 37.3222 372.544C33.1066 364.361 32.9859 356.077 36.8646 354.117Z" fill="#FCCA4C"/>
<path d="M38.4085 357.133C41.4239 355.589 46.6029 359.604 49.9044 366.155C53.2058 372.707 53.3826 379.204 50.3672 380.748C47.3518 382.291 42.1728 378.276 38.8714 371.725C35.5699 365.174 35.3931 358.676 38.4085 357.133Z" fill="#FFE066"/>
<path d="M56.6103 370.334C56.253 369.02 55.7061 367.542 55.1591 366.063C54.8504 365.46 54.6243 364.762 54.2207 364.077C54.1259 363.994 54.1259 363.994 54.1138 363.817C52.463 360.541 50.3989 357.739 48.3006 355.743C45.3488 353.002 42.3994 351.599 40.0455 352.384L39.9507 352.301L39.3476 352.61L36.675 353.952L36.4149 354.059C32.8207 356.266 33.0119 364.279 37.1326 372.379C41.1586 380.397 47.5581 385.309 51.4611 383.705L54.3938 382.256L54.9969 381.947L54.9021 381.864C57.5625 380.345 58.0517 375.764 56.6103 370.334Z" stroke="black" stroke-miterlimit="10"/>
<path d="M253.556 156.547C258.462 153.779 257.833 149.375 257.204 147.362C258.588 148.872 262.111 151.766 266.892 148.998C273.308 145.349 268.527 134.152 257.833 133.02C251.794 132.391 249.026 131.132 247.642 130.252C247.517 130.126 247.391 130 247.265 130C247.265 130.126 247.265 130.252 247.265 130.503C247.391 132.139 247.013 135.158 244.371 140.694C239.968 150.256 247.013 160.195 253.556 156.547Z" fill="#EF1818"/>
<path d="M244.497 140.568C239.968 150.256 247.013 160.195 253.556 156.546C258.462 153.779 257.833 149.375 257.204 147.362C258.588 148.872 262.111 151.766 266.892 148.998C273.308 145.349 268.527 134.152 257.833 133.02C251.794 132.39 249.026 131.132 247.642 130.252C247.517 130.126 247.391 130 247.265 130C247.265 130.126 247.265 130.252 247.265 130.503C247.517 132.013 247.139 135.158 244.497 140.568Z" stroke="black" stroke-miterlimit="10"/>
<path d="M152.423 522.852C148.397 526.752 150.159 530.904 151.291 532.665C149.529 531.533 145.503 529.646 141.477 533.546C136.193 538.704 143.742 548.392 154.31 546.63C160.349 545.624 163.369 546.127 164.879 546.756C165.004 546.756 165.13 546.882 165.256 546.882C165.256 546.756 165.13 546.63 165.13 546.504C164.627 544.995 164.25 541.849 165.256 535.936C167.269 525.494 157.833 517.693 152.423 522.852Z" fill="#EF1818"/>
<path d="M152.423 522.852C148.397 526.752 150.159 530.904 151.291 532.665C149.529 531.533 145.503 529.646 141.477 533.546C136.193 538.704 143.742 548.392 154.31 546.63C160.349 545.624 163.369 546.127 164.879 546.756C165.004 546.756 165.13 546.882 165.256 546.882C165.256 546.756 165.13 546.63 165.13 546.504C164.627 544.995 164.25 541.849 165.256 535.936C167.269 525.494 157.833 517.693 152.423 522.852Z" stroke="black" stroke-miterlimit="10"/>
<path d="M372.958 76.5496C370.442 84.4758 362.012 88.8792 354.086 86.363C346.16 83.8467 341.756 75.4172 344.273 67.491C346.789 59.5648 355.218 55.1614 363.145 57.6776C370.945 60.1939 375.348 68.6234 372.958 76.5496Z" fill="#E0821B"/>
<path d="M372.203 76.4238C369.813 83.9726 361.761 88.1244 354.338 85.8597C346.789 83.4693 342.637 75.4173 344.902 67.9943C347.292 60.4455 355.344 56.2937 362.767 58.5583C370.19 60.823 374.593 68.875 372.203 76.4238Z" fill="#FCCA4C"/>
<path d="M369.435 75.543C367.548 81.582 361.131 84.8532 355.218 82.966C349.179 81.0788 345.908 74.6624 347.795 68.7492C349.682 62.7101 356.099 59.439 362.012 61.3262C367.925 63.2134 371.196 69.504 369.435 75.543Z" fill="#FFE066"/>
<g opacity="0.23">
<g opacity="0.23">
<path opacity="0.23" d="M373.084 76.0464L367.171 59.8165C365.913 58.9358 364.529 58.3068 363.019 57.8036C362.893 57.8036 362.767 57.6778 362.641 57.6778L370.945 80.7015C371.826 79.4434 372.455 78.1852 372.832 76.6755C372.958 76.4239 372.958 76.1722 373.084 76.0464Z" fill="#FFE066"/>
</g>
</g>
<g opacity="0.23">
<g opacity="0.23">
<path opacity="0.23" d="M348.047 61.3262L357.357 86.9921C359.999 87.2437 362.515 86.7404 364.906 85.6081L354.715 57.4261C352.073 58.3067 349.808 59.5648 348.047 61.3262Z" fill="#FFE066"/>
</g>
</g>
<path d="M367.171 59.8164C367.171 59.6906 367.171 59.6906 367.171 59.8164C366.667 59.439 366.038 59.0616 365.409 58.81C365.283 58.6841 365.158 58.6841 365.032 58.5583C364.403 58.3067 363.774 58.0551 363.145 57.8035C363.019 57.8035 362.893 57.6777 362.767 57.6777C359.999 56.9228 357.357 56.9228 354.715 57.6777C353.583 58.0551 352.45 58.4325 351.318 59.0616C351.192 59.0616 351.066 59.1874 351.066 59.1874C350.689 59.439 350.186 59.6906 349.808 60.0681C349.682 60.1939 349.683 60.1939 349.557 60.3197C349.053 60.6972 348.676 61.0746 348.173 61.4521C346.411 63.0876 345.153 65.2264 344.398 67.6169C341.882 75.5431 346.286 83.9725 354.212 86.4888C355.344 86.8662 356.351 86.992 357.483 87.1178C357.609 87.1178 357.609 87.1178 357.735 87.1178C358.238 87.1178 358.741 87.1178 359.244 87.1178C359.37 87.1178 359.496 87.1178 359.622 87.1178C360.125 87.1178 360.628 86.9921 361.131 86.9921C361.257 86.9921 361.257 86.9921 361.383 86.9921C362.012 86.8662 362.515 86.7404 363.145 86.6146H363.27C363.774 86.4888 364.277 86.2372 364.78 85.9856C364.78 85.9856 364.906 85.9855 364.906 85.8597C367.925 84.4758 370.442 82.0853 372.077 78.94C372.203 78.8142 372.203 78.6884 372.329 78.5626C372.58 77.9335 372.832 77.3045 373.084 76.6754C373.084 76.4238 373.21 76.298 373.21 76.0463C374.719 69.7557 372.203 63.3392 367.171 59.8164Z" stroke="black" stroke-miterlimit="10"/>
<path d="M66.9842 317.282C71.0102 313.382 69.2488 309.23 68.2423 307.468C70.0037 308.601 74.0297 310.488 78.0557 306.588C83.4657 301.429 75.9169 291.742 65.3487 293.377C59.3097 294.258 56.2901 293.755 54.7804 293.252C54.6545 293.126 54.5287 293.126 54.4029 293C54.4029 293.126 54.5287 293.252 54.5287 293.377C55.032 294.887 55.4094 298.033 54.2771 303.946C52.2641 314.514 61.7001 322.314 66.9842 317.282Z" fill="#EF1818"/>
<path d="M66.9842 317.282C71.0102 313.382 69.2488 309.23 68.2423 307.468C70.0037 308.601 74.0297 310.488 78.0557 306.588C83.4657 301.429 75.9169 291.742 65.3487 293.377C59.3097 294.258 56.2901 293.755 54.7804 293.252C54.6545 293.126 54.5287 293.126 54.4029 293C54.4029 293.126 54.5287 293.252 54.5287 293.377C55.032 294.887 55.4094 298.033 54.2771 303.946C52.2641 314.514 61.7001 322.314 66.9842 317.282Z" stroke="black" stroke-miterlimit="10"/>
<path d="M55.3658 485.795C58.3853 487.053 62.5371 484.285 65.8082 479.379L52.3462 473.969C51.2139 479.882 52.3463 484.663 55.3658 485.795Z" fill="#FFA340"/>
<path d="M53.3527 469.691L67.947 475.604C68.1986 474.975 68.576 474.346 68.8276 473.591L53.9817 467.678C53.8559 468.307 53.6043 468.936 53.3527 469.691Z" fill="#FFA340"/>
<path d="M55.8651 486.151L68.3411 455.231L64.724 453.772L52.2481 484.691L55.8651 486.151Z" fill="#FFA340"/>
<path d="M67.8212 454.971C65.4308 453.964 62.1597 455.6 59.266 458.871L71.2182 463.652C71.4698 459.248 70.2117 455.977 67.8212 454.971Z" fill="#FFA340"/>
<path d="M52.2203 473.969L65.6822 479.379C66.4371 478.246 67.192 476.862 67.9469 475.478L53.3526 469.565C52.8493 471.075 52.4719 472.585 52.2203 473.969Z" fill="#FFB96E"/>
<path d="M54.1077 467.426C54.1077 467.552 54.1077 467.552 53.9819 467.678L68.8278 473.591C68.8278 473.465 68.8278 473.465 68.9536 473.34C70.3376 469.943 71.0924 466.546 71.2183 463.652L59.266 458.871C57.3789 461.01 55.4917 464.029 54.1077 467.426Z" fill="#FFB96E"/>
<path d="M65.5566 454.09C69.5826 455.726 70.2117 464.029 66.6889 472.585C63.292 481.14 57.1271 486.676 53.1011 485.04C49.0751 483.405 48.4461 475.101 51.9688 466.546C55.4916 457.99 61.5306 452.455 65.5566 454.09Z" fill="#E0821B"/>
<path d="M65.0533 453.838C69.0793 455.474 69.7084 463.778 66.1856 472.333C62.7887 480.888 56.6239 486.424 52.5979 484.788C48.5719 483.153 47.9428 474.849 51.4655 466.294C54.8625 457.739 61.0273 452.203 65.0533 453.838Z" fill="#FCCA4C"/>
<path d="M63.7952 456.984C66.9405 458.242 67.318 464.784 64.5501 471.578C61.7822 478.372 57.0014 482.776 53.856 481.517C50.7107 480.259 50.3332 473.717 53.1011 466.923C55.869 460.129 60.6499 455.726 63.7952 456.984Z" fill="#FFE066"/>
<path d="M65.8083 479.379C66.5631 478.246 67.318 476.862 68.0729 475.478C68.3245 474.849 68.702 474.22 68.9536 473.465C68.9536 473.339 68.9536 473.34 69.0794 473.214C70.4633 469.817 71.2182 466.42 71.344 463.526C71.4698 459.5 70.5891 456.355 68.4503 455.097L68.4503 454.971L67.8212 454.719L65.0533 453.587L64.8018 453.461C60.7758 452.203 54.8625 457.613 51.4656 466.042C48.0686 474.346 48.5719 482.398 52.3463 484.285L55.3658 485.543L55.9949 485.795L55.9949 485.669C58.8886 486.676 62.6629 484.034 65.8083 479.379Z" stroke="black" stroke-miterlimit="10"/>
<path d="M295.209 46.4955C293.448 43.8535 288.415 43.7276 283.005 45.9923L291.183 58.0703C295.209 53.7927 296.971 49.2634 295.209 46.4955Z" fill="#FFA340"/>
<path d="M287.786 61.0897L278.979 48.0052C278.35 48.3827 277.721 48.7601 277.092 49.1375L286.025 62.3479C286.654 61.9704 287.157 61.4672 287.786 61.0897Z" fill="#FFA340"/>
<path d="M269.277 67.8274L296.896 49.1501L294.711 45.9192L267.092 64.5965L269.277 67.8274Z" fill="#FFA340"/>
<path d="M267.531 65.2417C269.04 67.3805 272.563 67.8837 276.715 66.7514L269.543 56.0573C267.027 59.5801 266.147 62.9771 267.531 65.2417Z" fill="#FFA340"/>
<path d="M291.057 58.0703L282.88 45.9922C281.621 46.4954 280.237 47.2504 278.854 48.0052L287.66 61.0897C289.044 60.0832 290.051 59.0768 291.057 58.0703Z" fill="#FFB96E"/>
<path d="M285.899 62.4737L286.025 62.3479L277.092 49.1375L276.966 49.2634C273.947 51.2764 271.431 53.6668 269.669 56.0572L276.841 66.7513C279.608 65.9964 282.754 64.4867 285.899 62.4737Z" fill="#FFB96E"/>
<path d="M268.914 67.1289C266.398 63.4803 270.676 56.3089 278.224 51.1506C285.899 45.9923 294.077 44.7341 296.467 48.3827C298.984 52.0313 294.706 59.2026 287.157 64.361C279.608 69.5193 271.431 70.7774 268.914 67.1289Z" fill="#E0821B"/>
<path d="M269.292 67.6321C266.775 63.9836 271.053 56.8122 278.602 51.6539C286.276 46.4956 294.454 45.2375 296.845 48.8861C299.361 52.5346 295.083 59.7059 287.535 64.8642C279.86 70.0226 271.682 71.2807 269.292 67.6321Z" fill="#FCCA4C"/>
<path d="M272.06 65.7449C270.173 62.977 273.569 57.3155 279.609 53.2894C285.648 49.1376 292.19 48.1311 294.077 50.899C295.964 53.6669 292.567 59.3285 286.528 63.3545C280.363 67.5063 273.947 68.5127 272.06 65.7449Z" fill="#FFE066"/>
<path d="M287.535 64.8642C294.958 59.8317 299.11 52.912 296.971 49.1376L295.209 46.4956L294.832 45.9923L294.706 45.9923C292.567 43.8535 288.038 43.8535 282.88 45.9923C281.622 46.4956 280.238 47.2505 278.854 48.0054C278.225 48.3828 277.596 48.7602 276.967 49.1376L276.841 49.2635C273.821 51.2765 271.305 53.6669 269.544 56.0573C267.153 59.3285 266.272 62.4738 267.153 64.6127L267.027 64.6127L267.405 65.1159L268.789 67.1289L269.166 67.6321L269.292 67.8838C272.06 71.2807 280.112 70.0226 287.535 64.8642Z" stroke="black" stroke-miterlimit="10"/>
<path d="M424.56 252.272C428.335 248.12 426.447 244.094 425.189 242.459C427.077 243.465 431.228 245.226 435.003 241.075C440.035 235.665 431.983 226.355 421.541 228.619C415.628 229.877 412.482 229.5 410.973 228.997C410.847 228.997 410.721 228.871 410.469 228.871C410.595 228.997 410.595 229.122 410.721 229.248C411.35 230.758 411.853 233.777 411.098 239.816C409.714 250.385 419.528 257.682 424.56 252.272Z" fill="#EF1818"/>
<path d="M424.336 252.076C428.111 247.924 426.224 243.898 424.965 242.263C426.853 243.269 431.005 245.031 434.779 240.879C439.811 235.469 431.759 226.159 421.317 228.423C415.404 229.681 412.258 229.304 410.749 228.801C410.623 228.801 410.497 228.675 410.245 228.675C410.371 228.801 410.371 228.927 410.497 229.052C411.126 230.562 411.629 233.582 410.875 239.621C409.491 250.189 419.304 257.486 424.336 252.076Z" stroke="black" stroke-miterlimit="10"/>
<path d="M423.177 404.775C422.171 407.92 425.19 411.821 430.349 414.714L434.878 400.875C428.839 400.246 424.184 401.63 423.177 404.775Z" fill="#FFA340"/>
<path d="M439.156 401.63L434.249 416.601C434.878 416.853 435.633 417.105 436.262 417.356L441.168 402.133C440.539 402.007 439.91 401.881 439.156 401.63Z" fill="#FFA340"/>
<path d="M424.122 401.674L422.92 405.385L454.64 415.657L455.842 411.947L424.122 401.674Z" fill="#FFA340"/>
<path d="M454.882 414.966C455.637 412.45 453.876 409.43 450.353 406.788L446.453 418.992C450.731 418.992 454.002 417.482 454.882 414.966Z" fill="#FFA340"/>
<path d="M434.752 400.875L430.223 414.714C431.481 415.469 432.865 416.098 434.249 416.602L439.155 401.63C437.646 401.252 436.136 401.001 434.752 400.875Z" fill="#FFB96E"/>
<path d="M441.42 402.259C441.294 402.259 441.294 402.259 441.168 402.259L436.262 417.482C436.388 417.482 436.387 417.482 436.513 417.608C440.036 418.74 443.433 419.244 446.327 419.118L450.227 406.914C448.088 405.027 444.943 403.391 441.42 402.259Z" fill="#FFB96E"/>
<path d="M455.637 412.827C454.253 416.979 446.075 418.111 437.268 415.343C428.461 412.45 422.548 406.788 423.932 402.636C425.316 398.484 433.494 397.352 442.301 400.12C450.982 402.888 456.895 408.549 455.637 412.827Z" fill="#E0821B"/>
<path d="M455.763 412.198C454.379 416.35 446.201 417.482 437.394 414.714C428.587 411.821 422.674 406.159 424.058 402.007C425.442 397.855 433.62 396.723 442.427 399.491C451.108 402.259 457.147 408.046 455.763 412.198Z" fill="#FCCA4C"/>
<path d="M452.492 411.192C451.485 414.463 444.943 415.218 438.023 412.953C431.103 410.688 426.323 406.285 427.329 403.014C428.336 399.743 434.878 398.988 441.798 401.252C448.717 403.517 453.624 407.92 452.492 411.192Z" fill="#FFE066"/>
<path d="M442.426 399.491C433.871 396.723 425.819 397.73 424.184 401.63L423.177 404.775L422.926 405.404C422.548 408.424 425.442 411.946 430.223 414.714C431.481 415.469 432.865 416.098 434.249 416.602C434.878 416.853 435.633 417.105 436.262 417.356C436.388 417.356 436.387 417.356 436.513 417.482C440.036 418.615 443.433 419.118 446.327 418.992C450.353 418.866 453.372 417.734 454.505 415.595H454.63L454.882 414.966L455.637 412.701L455.763 412.072L455.888 411.821C456.895 407.795 450.982 402.259 442.426 399.491Z" stroke="black" stroke-miterlimit="10"/>
<path d="M432.752 478.683C433.884 475.663 431.116 471.637 426.084 468.366L420.925 481.954C426.839 482.961 431.62 481.828 432.752 478.683Z" fill="#FFA340"/>
<path d="M416.648 481.073L422.183 466.353C421.554 466.102 420.925 465.724 420.17 465.473L414.509 480.444C415.264 480.696 415.893 480.822 416.648 481.073Z" fill="#FFA340"/>
<path d="M431.719 481.751L433.092 478.101L401.889 466.362L400.516 470.012L431.719 481.751Z" fill="#FFA340"/>
<path d="M401.55 466.982C400.669 469.499 402.305 472.518 405.702 475.412L410.231 463.334C405.828 463.334 402.431 464.466 401.55 466.982Z" fill="#FFA340"/>
<path d="M420.925 482.08L426.084 468.492C424.951 467.737 423.567 466.982 422.183 466.353L416.648 481.073C418.032 481.577 419.541 481.828 420.925 482.08Z" fill="#FFB96E"/>
<path d="M414.383 480.318C414.509 480.318 414.509 480.318 414.635 480.444L420.296 465.473C420.17 465.473 420.17 465.472 420.045 465.347C416.648 464.089 413.251 463.334 410.231 463.334L405.702 475.412C407.841 477.299 410.86 479.06 414.383 480.318Z" fill="#FFB96E"/>
<path d="M400.669 469.247C402.179 465.095 410.483 464.466 419.038 467.611C427.593 470.883 433.381 476.796 431.871 480.948C430.361 485.099 422.058 485.728 413.502 482.583C404.947 479.312 399.16 473.399 400.669 469.247Z" fill="#E0821B"/>
<path d="M400.544 469.75C402.054 465.598 410.357 464.969 418.912 468.115C427.468 471.386 433.255 477.299 431.745 481.451C430.236 485.603 421.932 486.232 413.377 483.086C404.696 479.815 398.908 473.902 400.544 469.75Z" fill="#FCCA4C"/>
<path d="M403.689 471.008C404.947 467.863 411.364 467.36 418.284 469.876C425.077 472.392 429.733 477.173 428.474 480.319C427.216 483.464 420.8 483.967 413.88 481.451C407.086 478.809 402.557 474.154 403.689 471.008Z" fill="#FFE066"/>
<path d="M391.737 549.264C389.85 546.622 384.943 546.622 379.533 549.012L387.963 560.964C391.863 556.561 393.624 551.906 391.737 549.264Z" fill="#FFA340"/>
<path d="M384.565 563.984L375.507 551.151C374.878 551.528 374.249 551.906 373.745 552.283L382.93 565.368C383.433 564.865 384.062 564.361 384.565 563.984Z" fill="#FFA340"/>
<path d="M366.404 571.232L393.636 551.998L391.386 548.812L364.154 568.046L366.404 571.232Z" fill="#FFA340"/>
<path d="M364.436 568.513C365.945 570.652 369.468 571.029 373.746 569.897L366.323 559.455C363.806 562.852 362.926 566.374 364.436 568.513Z" fill="#FFA340"/>
<path d="M387.837 560.964L379.407 549.012C378.149 549.515 376.765 550.27 375.381 551.025L384.44 563.858C385.824 562.977 386.83 561.971 387.837 560.964Z" fill="#FFB96E"/>
<path d="M382.678 565.368L382.804 565.242L373.62 552.158L373.494 552.284C370.475 554.422 368.084 556.813 366.323 559.203L373.746 569.646C376.514 569.017 379.659 567.507 382.678 565.368Z" fill="#FFB96E"/>
<path d="M365.819 570.4C363.303 566.752 367.329 559.581 374.878 554.296C382.427 549.012 390.604 547.628 393.121 551.151C395.637 554.8 391.611 561.971 384.062 567.255C376.513 572.665 368.336 574.049 365.819 570.4Z" fill="#E0821B"/>
<path d="M366.197 570.904C363.681 567.255 367.707 560.084 375.256 554.8C382.804 549.516 390.982 548.132 393.498 551.654C396.015 555.303 391.989 562.474 384.44 567.758C376.891 573.168 368.713 574.552 366.197 570.904Z" fill="#FCCA4C"/>
<path d="M368.965 569.017C366.952 566.249 370.223 560.587 376.262 556.309C382.301 552.032 388.717 550.899 390.604 553.667C392.617 556.435 389.346 562.097 383.307 566.375C377.394 570.526 370.978 571.784 368.965 569.017Z" fill="#FFE066"/>
<path d="M401.802 466.353L400.418 470.002C399.16 474.154 404.821 479.941 413.251 483.086C421.68 486.232 429.732 485.603 431.494 481.702L432.877 478.054L432.752 478.054C433.381 475.16 430.613 471.386 425.958 468.366C424.825 467.611 423.442 466.857 422.058 466.228C421.429 465.976 420.799 465.598 420.045 465.347C419.919 465.347 419.919 465.347 419.793 465.221C416.396 463.963 412.999 463.208 409.98 463.208C406.205 463.334 403.06 464.34 401.802 466.353Z" stroke="black" stroke-miterlimit="10"/>
<path d="M364.058 568.01L365.819 570.526L366.197 571.029L366.323 571.281C369.091 574.552 377.017 573.168 384.314 568.01C391.611 562.852 395.637 555.806 393.498 552.158L391.234 549.012L391.108 549.012C388.969 546.873 384.44 546.999 379.281 549.264C378.023 549.767 376.639 550.522 375.255 551.277C374.626 551.654 373.997 552.032 373.494 552.409L373.368 552.535C370.349 554.674 367.958 557.064 366.197 559.455C363.932 562.6 363.177 565.745 364.058 568.01Z" stroke="black" stroke-miterlimit="10"/>
<path d="M214.813 371.495C219.594 374.388 223.116 371.62 224.626 370.111C223.997 372.124 223.242 376.527 228.023 379.421C234.44 383.195 241.737 373.507 237.459 363.694C235.069 358.158 234.691 355.013 234.817 353.503C234.817 353.377 234.817 353.126 234.943 353C234.817 353.126 234.691 353.126 234.565 353.252C233.181 354.132 230.414 355.265 224.249 355.768C213.68 356.649 208.396 367.72 214.813 371.495Z" fill="#EF1818"/>
<path d="M37.4133 232.759C42.5716 235.024 45.7169 231.878 46.9751 230.243C46.5976 232.382 46.346 236.785 51.5043 239.05C58.2982 242.069 64.4631 231.501 58.9273 222.317C55.782 217.158 55.1529 214.139 55.1529 212.503C55.1529 212.377 55.1529 212.126 55.1529 212C55.0271 212.126 54.9012 212.252 54.7754 212.377C53.5173 213.51 50.8752 214.894 44.962 216.152C34.3937 218.039 30.6194 229.74 37.4133 232.759Z" fill="#EF1818"/>
<path d="M224.249 355.768C213.555 356.523 208.396 367.72 214.813 371.495C219.594 374.388 223.116 371.62 224.626 370.111C223.997 372.124 223.242 376.527 228.023 379.421C234.44 383.195 241.737 373.507 237.459 363.694C235.069 358.158 234.691 355.013 234.817 353.503C234.817 353.377 234.817 353.126 234.943 353C234.817 353.126 234.691 353.126 234.565 353.252C233.181 354.258 230.288 355.39 224.249 355.768Z" stroke="black" stroke-miterlimit="10"/>
<path d="M36.4133 233.759C41.5716 236.024 44.7169 232.878 45.9751 231.243C45.5976 233.382 45.346 237.785 50.5043 240.05C57.2982 243.069 63.4631 232.501 57.9273 223.317C54.782 218.158 54.1529 215.139 54.1529 213.503C54.1529 213.377 54.1529 213.126 54.1529 213C54.0271 213.126 53.9012 213.252 53.7754 213.377C52.5173 214.51 49.8752 215.894 43.962 217.152C33.3937 219.039 29.6194 230.74 36.4133 233.759Z" stroke="black" stroke-miterlimit="10"/>
<path d="M420.367 122.837C415.208 124.976 415.334 129.505 415.712 131.518C414.454 129.757 411.434 126.611 406.276 128.75C399.356 131.644 402.879 143.344 413.321 145.735C419.234 147.119 421.877 148.629 423.135 149.761C423.26 149.887 423.386 150.013 423.512 150.138C423.512 150.013 423.512 149.887 423.512 149.635C423.638 148 424.393 144.98 427.538 139.822C433.074 130.763 427.286 120.069 420.367 122.837Z" fill="#EF1818"/>
<path d="M420.367 122.837C415.208 124.976 415.334 129.505 415.712 131.518C414.454 129.757 411.434 126.611 406.276 128.75C399.356 131.644 402.879 143.344 413.321 145.735C419.234 147.119 421.877 148.629 423.135 149.761C423.26 149.887 423.386 150.013 423.512 150.138C423.512 150.013 423.512 149.887 423.512 149.635C423.638 148 424.393 144.98 427.538 139.822C433.074 130.763 427.286 120.069 420.367 122.837Z" stroke="black" stroke-miterlimit="10"/>
<path d="M208.617 279.559C205.105 283.028 206.716 286.601 207.696 288.079C206.079 287.103 202.559 285.623 199.048 289.092C194.345 293.765 201.126 301.903 210.472 300.245C215.775 299.331 218.441 299.634 219.848 300.108C219.993 300.165 220.138 300.223 220.283 300.28C220.241 300.18 220.199 300.08 220.115 299.879C219.674 298.53 219.286 295.862 220.144 290.669C221.661 281.547 213.361 274.986 208.617 279.559Z" fill="#EF1818"/>
<path d="M208.617 279.559C205.105 283.028 206.716 286.601 207.696 288.079C206.079 287.103 202.559 285.623 199.048 289.092C194.345 293.765 201.126 301.903 210.472 300.245C215.775 299.331 218.441 299.634 219.848 300.108C219.993 300.165 220.138 300.223 220.283 300.28C220.241 300.18 220.199 300.08 220.115 299.879C219.674 298.53 219.286 295.862 220.144 290.669C221.661 281.547 213.361 274.986 208.617 279.559Z" stroke="black" stroke-miterlimit="10"/>
<path d="M522.995 570.902C524.495 573.002 528.395 573.002 532.695 571.102L525.995 561.602C522.895 565.102 521.495 568.802 522.995 570.902Z" fill="#FFA340"/>
<path d="M528.695 559.202L535.895 569.402C536.395 569.102 536.895 568.802 537.295 568.502L529.995 558.102C529.595 558.502 529.095 558.902 528.695 559.202Z" fill="#FFA340"/>
<path d="M543.131 553.441L521.485 568.729L523.274 571.261L544.919 555.974L543.131 553.441Z" fill="#FFA340"/>
<path d="M544.695 555.602C543.495 553.902 540.695 553.602 537.295 554.502L543.195 562.802C545.195 560.102 545.895 557.302 544.695 555.602Z" fill="#FFA340"/>
<path d="M526.095 561.602L532.795 571.102C533.795 570.702 534.895 570.102 535.995 569.502L528.795 559.302C527.695 560.002 526.895 560.802 526.095 561.602Z" fill="#FFB96E"/>
<path d="M530.195 558.102L530.095 558.202L537.395 568.602L537.495 568.502C539.895 566.802 541.795 564.902 543.195 563.002L537.295 554.702C535.095 555.202 532.595 556.402 530.195 558.102Z" fill="#FFB96E"/>
<path d="M543.595 554.102C545.595 557.002 542.395 562.702 536.395 566.902C530.395 571.102 523.895 572.202 521.895 569.402C519.895 566.502 523.095 560.802 529.095 556.602C535.095 552.302 541.595 551.202 543.595 554.102Z" fill="#E0821B"/>
<path d="M543.295 553.702C545.295 556.602 542.095 562.302 536.095 566.502C530.095 570.702 523.595 571.802 521.595 569.002C519.595 566.102 522.795 560.402 528.795 556.202C534.795 551.902 541.295 550.802 543.295 553.702Z" fill="#FCCA4C"/>
<path d="M541.095 555.202C542.695 557.402 540.095 561.902 535.295 565.302C530.495 568.702 525.395 569.602 523.895 567.402C522.295 565.202 524.895 560.702 529.695 557.302C534.395 554.002 539.495 553.002 541.095 555.202Z" fill="#FFE066"/>
<path d="M544.995 556.002L543.595 554.002L543.295 553.602L543.195 553.402C540.995 550.802 534.695 551.902 528.895 556.002C523.095 560.102 519.895 565.702 521.595 568.602L523.395 571.102H523.495C525.195 572.802 528.795 572.702 532.895 570.902C533.895 570.502 534.995 569.902 536.095 569.302C536.595 569.002 537.095 568.702 537.495 568.402L537.595 568.302C539.995 566.602 541.895 564.702 543.295 562.802C545.095 560.302 545.695 557.802 544.995 556.002Z" stroke="black" stroke-miterlimit="10"/>
</svg>
