<svg width="134" height="71" viewBox="0 0 134 71" fill="none" xmlns="http://www.w3.org/2000/svg">
<path opacity="0.07" d="M111.841 39.7545H121.158C123.508 39.7545 125.412 37.8501 125.412 35.5009C125.412 33.1517 123.508 31.2472 121.158 31.2472H111.842C109.493 31.2472 107.588 33.1517 107.588 35.5009C107.588 37.8509 109.493 39.7545 111.841 39.7545Z" fill="#844500"/>
<path opacity="0.07" d="M22.1777 31.2479H12.8613C10.5122 31.2479 8.60767 33.1524 8.60767 35.5016C8.60767 37.8508 10.5122 39.7553 12.8613 39.7553H22.1777C24.5269 39.7553 26.4314 37.8508 26.4314 35.5016C26.4314 33.1524 24.5269 31.2479 22.1777 31.2479Z" fill="#844500"/>
<path opacity="0.07" d="M103.862 26.995C103.862 24.6458 101.957 22.7413 99.608 22.7413H97.7449C95.3957 22.7413 93.4912 24.6458 93.4912 26.995C93.4912 29.3442 95.3957 31.2487 97.7449 31.2487H99.608C101.958 31.2479 103.862 29.3434 103.862 26.995Z" fill="#844500"/>
<path opacity="0.07" d="M13.2662 14.2347H4.25368C1.90449 14.2347 0 16.1392 0 18.4884C0 20.8376 1.90449 22.7421 4.25368 22.7421H13.267C15.6162 22.7421 17.5207 20.8376 17.5207 18.4884C17.5199 16.1392 15.6154 14.2347 13.2662 14.2347Z" fill="#844500"/>
<path opacity="0.07" d="M123.629 9.98195C123.629 12.3311 125.534 14.2356 127.883 14.2356H129.746C132.095 14.2356 134 12.3311 134 9.98195C134 7.63276 132.095 5.72827 129.746 5.72827H127.883C125.534 5.72827 123.629 7.63276 123.629 9.98195Z" fill="#844500"/>
<path opacity="0.07" d="M94.522 48.261H94.9094C97.2586 48.261 99.1631 46.3565 99.1631 44.0073C99.1631 41.6581 97.2586 39.7537 94.9094 39.7537H80.4078C78.0586 39.7537 76.1541 37.8492 76.1541 35.5C76.1541 33.1508 78.0586 31.2463 80.4078 31.2463H82.1094C84.4586 31.2463 86.3631 29.3418 86.3631 26.9926C86.3631 24.6434 84.4586 22.739 82.1094 22.739H75.1215C72.7723 22.739 70.8678 20.8345 70.8678 18.4853C70.8678 16.1361 72.7723 14.2316 75.1215 14.2316H116.784C119.133 14.2316 121.038 12.3271 121.038 9.97792C121.038 7.62873 119.133 5.72424 116.784 5.72424H47.5326C45.1835 5.72424 43.279 7.62873 43.279 9.97792C43.279 12.3271 41.3745 14.2316 39.0253 14.2316H25.1752C22.826 14.2316 20.9215 16.1361 20.9215 18.4853C20.9215 20.8345 22.826 22.739 25.1752 22.739H29.4487C31.7979 22.739 33.7024 24.6434 33.7024 26.9926C33.7024 29.3418 35.6069 31.2463 37.9561 31.2463H39.0269C41.3761 31.2463 43.2806 33.1508 43.2806 35.5C43.2806 37.8492 41.3761 39.7537 39.0269 39.7537H32.9332C30.584 39.7537 28.6795 41.6581 28.6795 44.0073C28.6795 46.3565 26.775 48.261 24.4258 48.261H21.7727C19.4235 48.261 17.519 50.1655 17.519 52.5147C17.519 54.8639 19.4235 56.7684 21.7727 56.7684H25.0742C27.4233 56.7684 29.3278 58.6729 29.3278 61.022C29.3278 63.3712 31.2323 65.2757 33.5815 65.2757H100.642C102.991 65.2757 104.896 63.3712 104.896 61.022C104.896 58.6729 102.991 56.7684 100.642 56.7684H94.5228C92.1736 56.7684 90.2691 54.8639 90.2691 52.5147C90.2683 50.1655 92.1728 48.261 94.522 48.261ZM43.2798 52.5147C43.2798 50.1655 45.1843 48.261 47.5334 48.261H74.8184C77.1676 48.261 79.0721 50.1655 79.0721 52.5147C79.0721 54.8639 77.1676 56.7684 74.8184 56.7684H47.5326C45.1843 56.7676 43.2798 54.8639 43.2798 52.5147Z" fill="#844500"/>
<path opacity="0.07" d="M114.093 56.7676H116.784C119.133 56.7676 121.037 54.8631 121.037 52.5139C121.037 50.1647 119.133 48.2603 116.784 48.2603H114.093C111.743 48.2603 109.839 50.1647 109.839 52.5139C109.839 54.8639 111.743 56.7676 114.093 56.7676Z" fill="#844500"/>
<mask id="mask0" mask-type="alpha" maskUnits="userSpaceOnUse" x="25" y="0" width="100" height="71">
<rect x="25" width="100" height="71" fill="#C4C4C4"/>
</mask>
<g mask="url(#mask0)">
<path d="M55.6557 52.1714C55.6557 52.1714 49.586 60.251 47.4661 63.7409C45.3462 67.2307 54.2058 69.9606 54.2058 69.9606L59.2756 64.5008C59.2856 64.5008 58.1756 51.5114 55.6557 52.1714Z" fill="#299DBD"/>
<path d="M85.9643 84.5999C83.6844 82.32 81.3045 78.6202 83.8844 74.6204C85.3643 72.3305 87.7542 68.2107 89.5241 65.0908C86.4543 67.1307 72.6849 76.0903 67.3652 75.7803C67.9852 77.6802 68.1851 81.2201 63.7254 85.1999C57.0957 91.1296 55.6257 99.5792 55.6257 99.5792H94.4139C94.0139 92.3495 88.2442 86.8798 85.9643 84.5999Z" fill="#DF3C3C"/>
<path d="M89.5244 65.1008C90.1143 64.0608 90.6443 63.1309 91.0443 62.4209C89.1244 64.3708 86.0945 66.1407 82.0047 68.4206C82.2647 68.5806 82.4147 68.6506 82.4147 68.6506C82.4147 68.6506 82.2647 68.5806 82.0047 68.4206C81.8347 68.5106 81.6747 68.6006 81.5047 68.7006C75.285 72.1604 70.3653 74.9503 67.0454 74.9703C67.1554 75.1903 67.2654 75.4703 67.3754 75.7903C72.6851 76.1003 86.4545 67.1407 89.5244 65.1008Z" fill="#C01212"/>
<path d="M72.0451 63.1709L65.2954 62.6809C66.0954 64.3608 66.8153 65.8508 67.3653 67.0107L66.9153 66.0807C67.8853 65.6608 69.7952 64.5608 72.0451 63.1709Z" fill="#DF3C3C"/>
<path d="M67.3652 67.0007C69.1951 66.0607 71.355 64.7308 73.5349 63.2709C69.7851 65.7108 67.3652 67.0007 67.3652 67.0007Z" fill="#17849F"/>
<path d="M73.5347 63.2808C73.5547 63.2708 73.5747 63.2508 73.5947 63.2408C73.5847 63.2508 73.5547 63.2608 73.5347 63.2808Z" fill="white"/>
<path d="M93.404 55.2313C92.794 50.2515 86.0143 49.2815 82.2045 47.8616C81.6645 49.3015 79.9146 52.5014 75.0248 51.9914C70.255 51.4914 69.1651 48.7116 68.9151 47.4116C66.3252 47.5016 62.6954 47.0016 58.9556 49.4215C60.9655 53.6313 63.3754 58.6911 65.2853 62.6809L72.035 63.1709C78.0147 59.4911 86.4543 53.8113 86.4543 53.8113C82.9944 56.6712 79.6746 59.1111 76.8047 61.081C78.5247 65.8708 81.0145 67.8107 81.9845 68.4206C86.0743 66.1407 89.1041 64.3708 91.0241 62.4209C91.514 61.541 91.824 61.001 91.824 61.001C91.824 61.001 91.524 61.541 91.0241 62.4209C92.974 60.451 93.7839 58.2911 93.404 55.2313Z" fill="#299DBD"/>
<path d="M73.605 63.2409C74.5949 62.6009 75.6749 61.881 76.8248 61.091C76.8148 61.071 76.8148 61.061 76.8048 61.041C75.7549 61.781 74.6749 62.5209 73.605 63.2409Z" fill="#F5D8C7"/>
<path d="M72.0451 63.1709C69.7952 64.5608 67.8852 65.6708 66.9253 66.0808L67.3753 67.0107C67.3753 67.0107 69.7852 65.7108 73.545 63.2809L72.0451 63.1709Z" fill="#C01212"/>
<path d="M76.6847 60.681C76.7247 60.801 76.7647 60.9209 76.8147 61.0409C81.9545 57.4111 86.4742 53.8113 86.4742 53.8113C86.4742 53.8113 78.0246 59.491 72.0449 63.1708L73.5349 63.2808C73.5549 63.2708 73.5749 63.2508 73.5948 63.2408C74.6648 62.5309 75.7448 61.7809 76.8047 61.0409C76.7647 60.9209 76.7247 60.801 76.6847 60.681Z" fill="#0F7593"/>
<path d="M76.8047 61.041C76.8147 61.061 76.8147 61.071 76.8247 61.091C79.6945 59.1211 83.0044 56.6812 86.4742 53.8213C86.4742 53.8113 81.9444 57.4111 76.8047 61.041Z" fill="#299DBD"/>
<path d="M91.1243 31.4223C92.2342 28.7924 90.1643 28.0325 90.1643 28.0325C89.3843 29.5324 88.4344 30.5224 87.7244 31.1123C87.3844 31.8723 87.0045 32.6423 86.5845 33.4122C87.8344 33.4922 90.3043 33.3722 91.1243 31.4223Z" fill="#FFCDB0"/>
<path d="M85.6043 8.68346C85.6043 8.68346 81.6545 3.31371 75.6248 4.07368C69.5951 4.83364 64.1354 9.84341 61.8055 19.9729C59.4756 30.1025 62.8654 39.512 67.2252 45.2417L72.075 43.6818C70.795 41.6219 67.4052 38.812 66.0153 33.5423C65.7553 32.5523 65.5653 31.5624 65.4353 30.5924C64.2653 30.5524 62.1354 28.2325 62.9254 26.5026C63.5854 25.0527 64.7353 25.4527 65.2153 25.7027C65.3553 22.2928 66.0453 19.553 66.4252 18.293C65.7153 18.193 64.9853 18.073 64.2253 17.943C64.9853 18.083 65.7153 18.193 66.4252 18.293C66.5752 17.803 66.6652 17.533 66.6652 17.533C66.6652 17.533 66.5652 17.803 66.4252 18.293C77.7047 19.9029 82.8845 17.3831 84.3144 16.4731C84.2044 15.8131 84.1444 15.1032 84.1444 14.3432C84.1444 15.1032 84.2144 15.8031 84.3144 16.4731C84.6044 16.2831 84.7444 16.1731 84.7444 16.1731C84.7444 16.1731 84.6044 16.2931 84.3144 16.4731C85.0844 21.2429 88.2342 23.7228 90.0841 24.7827C90.2741 24.1327 90.3741 23.7628 90.3741 23.7628C90.3741 23.7628 90.2841 24.1427 90.0841 24.7827C90.8941 25.2527 91.4541 25.4527 91.4541 25.4527C91.4541 25.4527 90.8941 25.2527 90.0841 24.7827C89.7042 26.0826 88.9242 28.4725 87.7242 31.1024C88.4342 30.5124 89.3842 29.5225 90.1641 28.0226C90.1641 28.0226 92.244 28.7825 91.1241 31.4124C90.3041 33.3523 87.8342 33.4823 86.5843 33.4123C85.8343 34.8222 84.9644 36.2222 83.9844 37.4921C81.2945 40.9619 79.5946 42.6919 79.1946 44.0818L84.8944 46.7017C84.8944 46.7017 94.5639 40.322 95.7839 26.0426C97.0038 11.7733 91.2341 5.7036 85.6043 8.68346Z" fill="#2D0E0F"/>
<path d="M65.2153 25.7226C64.7253 25.4626 63.5854 25.0726 62.9254 26.5226C62.1354 28.2525 64.2653 30.5724 65.4353 30.6124C65.1953 28.8925 65.1553 27.2325 65.2153 25.7226Z" fill="#FFCDB0"/>
<path d="M76.8046 61.041C75.7347 61.8009 74.6248 62.5609 73.5348 63.2809L74.1048 63.3209L73.5348 63.2809C71.3449 64.7408 69.195 66.0607 67.3651 67.0107C68.1251 68.5906 68.585 69.5706 68.585 69.5706C68.585 69.5706 68.1151 68.6006 67.3651 67.0107C67.2151 67.0907 67.0651 67.1607 66.9151 67.2407C67.0651 67.1707 67.2151 67.0907 67.3651 67.0107C66.8051 65.8507 66.0951 64.3608 65.2952 62.6809L64.7752 62.6409L65.2952 62.6809C63.3853 58.6911 60.9654 53.6313 58.9655 49.4215C58.7455 49.5615 58.5355 49.7115 58.3155 49.8715C58.5355 49.7115 58.7455 49.5615 58.9655 49.4215C56.8856 45.0517 55.2457 41.5919 55.0757 41.1619C54.5657 39.892 55.3757 36.1321 54.6657 34.7822C54.0757 33.6523 50.9659 32.5523 51.4758 33.0123C51.5458 33.0723 51.6258 33.2123 51.7158 33.3823L51.8758 33.3623L51.7158 33.3823C52.2658 34.4722 53.0558 37.3121 52.8458 37.3121C52.5958 37.3121 51.3258 33.8222 50.6659 34.0222C50.0059 34.2222 51.0159 38.022 51.2758 39.342C51.3358 39.652 51.4658 39.912 51.6258 40.1419L51.8858 39.822L51.6258 40.1419C52.1558 40.8819 53.0458 41.2119 53.0458 41.2119C53.0458 41.2119 53.8057 43.5918 55.6256 52.0514C55.6356 52.0914 55.6456 52.1414 55.6556 52.1814C55.8656 51.9014 55.9856 51.7414 55.9856 51.7414C55.9856 51.7414 55.8656 51.9014 55.6556 52.1814C57.4856 60.611 61.1154 70.5005 63.9852 73.7204C64.7752 74.6003 65.7952 74.9803 67.0451 74.9803C66.8451 74.5603 66.6751 74.3303 66.6751 74.3303C66.6751 74.3303 66.8451 74.5603 67.0451 74.9803C70.3749 74.9603 75.2847 72.1704 81.5144 68.7106C81.6844 68.6206 81.8444 68.5206 82.0144 68.4306C81.0344 67.8107 78.5346 65.8607 76.8046 61.041Z" fill="#F5D8C7"/>
<path d="M86.5942 33.4223C86.1542 33.4023 85.8642 33.3523 85.8642 33.3523C85.8642 33.3523 86.1542 33.4023 86.5942 33.4223C87.0041 32.6523 87.3841 31.8723 87.7341 31.1224C87.1441 31.6123 86.7342 31.8323 86.7342 31.8323C86.7342 31.8323 87.1541 31.6123 87.7341 31.1224C88.924 28.4925 89.704 26.1026 90.094 24.8027C88.2441 23.7327 85.0942 21.2528 84.3243 16.493C82.8843 17.403 77.7146 19.9329 66.4351 18.313C66.0551 19.5729 65.3651 22.3128 65.2252 25.7226C65.3651 25.8026 65.4551 25.8626 65.4551 25.8626C65.4551 25.8626 65.3651 25.8026 65.2252 25.7226C65.1652 27.2425 65.2052 28.8925 65.4351 30.6124C65.5351 30.6124 65.6251 30.6024 65.7151 30.5724C65.6351 30.6024 65.5351 30.6124 65.4351 30.6124C65.5651 31.5823 65.7551 32.5623 66.0151 33.5622C67.4051 38.832 70.7949 41.6419 72.0748 43.7018L72.5748 43.5418L72.0748 43.7018C72.8048 44.8717 72.8548 45.7917 71.4849 46.7816C70.8449 47.2416 69.9649 47.3816 68.925 47.4116C69.175 48.7215 70.2649 51.4914 75.0347 51.9914C79.9245 52.5014 81.6844 49.3015 82.2144 47.8616C81.2544 47.5016 80.4844 47.1116 80.0445 46.6216C79.2145 45.6917 78.9545 44.9617 79.2045 44.1018L78.5245 43.7918L79.2045 44.1018C79.6045 42.7118 81.3044 40.9819 83.9943 37.5121C84.9742 36.2321 85.8442 34.8322 86.5942 33.4223Z" fill="#F5D8C7"/>
<path d="M34.7867 42.4818C34.3967 42.2818 33.8667 42.1918 33.4968 42.8718C32.8368 44.0917 34.1067 48.1416 34.9667 48.2916C35.6567 48.4115 38.3965 48.2416 40.3264 49.5215C40.1165 48.8715 39.8765 48.6415 39.8765 48.6415C39.8765 48.6415 40.1165 48.8715 40.3264 49.5215C40.7964 49.8315 41.2164 50.2215 41.5464 50.7214C41.2164 50.2215 40.7964 49.8315 40.3264 49.5215C40.6264 50.4315 40.8864 52.1714 40.3864 55.2812C39.5265 60.601 37.6566 77.1102 41.5464 77.4602C44.0463 77.6902 49.866 73.7604 54.2058 69.9605C51.7259 65.2608 48.716 64.0508 47.4661 63.7408C46.7961 64.7608 46.2062 65.7007 45.7562 66.4807C46.1762 68.5306 46.5062 70.0705 46.5062 70.0705C46.5062 70.0705 46.1762 68.5306 45.7562 66.4807C45.5962 66.7507 45.4662 67.0007 45.3462 67.2307C45.4662 67.0007 45.6062 66.7507 45.7562 66.4807C45.3962 64.7008 44.9662 62.5309 44.6362 60.651C43.9263 56.6012 43.8763 47.8416 43.5763 47.4316C43.3163 47.0916 42.0164 46.2117 41.6164 45.9417L37.6466 47.4616C34.9567 45.6517 34.7667 43.3118 34.7867 42.4818Z" fill="#F5D8C7"/>
<path d="M50.6659 34.0122C51.3259 33.8122 52.5858 37.302 52.8458 37.302C53.0658 37.302 52.2659 34.4521 51.7159 33.3722L46.1561 33.9422L46.0461 34.0022L50.126 42.0218L51.6159 40.1419C51.4559 39.9119 51.3259 39.6519 51.2659 39.3419C51.0159 38.012 50.006 34.2122 50.6659 34.0122Z" fill="white"/>
<path d="M34.8168 42.1617C34.8168 42.1617 34.7968 42.2817 34.7868 42.4817C35.0967 42.6417 35.3167 42.8717 35.3167 42.8717C35.3167 42.8717 35.0967 42.6417 34.7868 42.4817C34.7568 43.3217 34.9467 45.6616 37.6466 47.4615L41.6164 45.9416C41.5464 45.8916 41.4964 45.8616 41.4964 45.8616L40.3865 45.2516L41.4964 45.8616C41.4964 45.8616 41.5464 45.8916 41.6164 45.9416L47.9761 43.5117L43.8463 35.2521L34.8168 42.1617Z" fill="#DF3C3C"/>
<path d="M48.816 43.5817L49.9159 43.0317C50.0759 42.9517 50.1559 42.7817 50.1359 42.6117L48.416 43.5616C48.536 43.6316 48.686 43.6516 48.816 43.5817Z" fill="#775757"/>
<path d="M45.3162 33.8921L44.2163 34.4421C44.0363 34.5321 43.9463 34.7421 44.0063 34.9321L45.7662 33.9521C45.6562 33.8421 45.4762 33.8121 45.3162 33.8921Z" fill="#775757"/>
<path d="M45.8762 34.0822L49.956 42.2018L50.006 42.1618L50.136 42.0018L46.0562 33.9922L45.8762 34.0822Z" fill="#330000"/>
<path d="M48.2662 43.4018L44.0764 35.0721L43.8464 35.2521L47.9862 43.5118L48.2662 43.4018Z" fill="#330000"/>
<path d="M49.9561 42.2018L45.8763 34.0922L45.8663 34.0822C45.8463 34.0322 45.8163 33.9922 45.7763 33.9622L44.0164 34.9421C44.0264 34.9621 44.0264 34.9821 44.0364 35.0021L44.0764 35.0821L48.2662 43.4017C48.2962 43.4717 48.3562 43.5217 48.4162 43.5617L50.1361 42.6118C50.1261 42.5718 50.1161 42.5218 50.0961 42.4818L49.9561 42.2018Z" fill="#D22F2F"/>
<path d="M80.4445 26.9226C80.4445 27.2825 80.1545 27.5725 79.7945 27.5725C79.4345 27.5725 79.1445 27.2825 79.1445 26.9226C79.1445 26.5626 79.4345 26.2726 79.7945 26.2726C80.1545 26.2626 80.4445 26.5526 80.4445 26.9226Z" fill="#2D0E0F"/>
<path d="M74.1651 25.8026C74.1651 26.1926 73.8551 26.5026 73.4651 26.5026C73.0751 26.5026 72.7651 26.1926 72.7651 25.8026C72.7651 25.4126 73.0751 25.1027 73.4651 25.1027C73.8551 25.1027 74.1651 25.4126 74.1651 25.8026Z" fill="#2D0E0F"/>
<path d="M76.5049 34.5022C76.395 34.5022 76.275 34.5022 76.155 34.4922C72.1052 34.3522 71.3952 31.7623 71.3652 31.6524C71.3352 31.5224 71.4152 31.3824 71.5452 31.3524C71.6752 31.3224 71.8152 31.4024 71.8452 31.5324C71.8752 31.6324 72.5151 33.8622 76.175 33.9922C79.8248 34.1222 80.4648 32.1223 80.4848 32.0323C80.5248 31.9023 80.6647 31.8223 80.7947 31.8623C80.9247 31.9023 81.0047 32.0423 80.9647 32.1723C80.9347 32.2723 80.2648 34.5022 76.5049 34.5022Z" fill="#2D0E0F"/>
</g>
</svg>
