<svg width="64" height="64" viewBox="0 0 64 64" fill="none" xmlns="http://www.w3.org/2000/svg">
<circle cx="32" cy="32" r="32" fill="#59C398"/>
<path d="M50.6154 24.7719H12.4915V30.9188H50.6154V24.7719Z" fill="#FF5E5E"/>
<path fill-rule="evenodd" clip-rule="evenodd" d="M41.2178 27.8455C42.9316 27.8455 44.2912 26.4271 44.2912 24.772C44.2912 23.0582 42.9316 21.6985 41.2178 21.6985C39.504 21.6985 38.1443 23.0582 38.1443 24.772C38.1443 26.4271 39.504 27.8455 41.2178 27.8455Z" fill="#59C398"/>
<path fill-rule="evenodd" clip-rule="evenodd" d="M21.8899 27.8455C23.545 27.8455 24.9634 26.4271 24.9634 24.772C24.9634 23.0582 23.545 21.6985 21.8899 21.6985C20.1761 21.6985 18.8164 23.0582 18.8164 24.772C18.8164 26.4271 20.1752 27.8455 21.8899 27.8455Z" fill="#59C398"/>
<path fill-rule="evenodd" clip-rule="evenodd" d="M17.1015 49.7745L14.6189 30.9189H48.4877L45.9463 49.7745H17.1015Z" fill="#DF3B3B"/>
<path d="M20.8844 22.8232C20.4625 22.8232 20.0695 22.554 19.9304 22.133L16.6798 12.3199C16.5055 11.7923 16.791 11.224 17.3186 11.0515C17.8453 10.8762 18.4153 11.1635 18.5879 11.6884L21.8384 21.5015C22.0128 22.0291 21.7273 22.5973 21.1997 22.7699C21.0949 22.8042 20.9892 22.8232 20.8844 22.8232Z" fill="#424952"/>
<path d="M42.1638 22.8233C42.0599 22.8233 41.9524 22.8052 41.8485 22.77C41.3209 22.5965 41.0364 22.0291 41.2116 21.5015L44.4613 11.6885C44.6347 11.1627 45.2021 10.8763 45.7297 11.0515C46.2573 11.225 46.5419 11.7924 46.3675 12.32L43.117 22.133C42.9787 22.554 42.5857 22.8233 42.1638 22.8233Z" fill="#424952"/>
<path d="M38.1445 25.7758H29.3379C28.7832 25.7758 28.3333 25.3277 28.3333 24.7721C28.3333 24.2164 28.7832 23.7683 29.3379 23.7683H38.1445C38.7001 23.7683 39.1482 24.2164 39.1482 24.7721C39.1482 25.3277 38.7001 25.7758 38.1445 25.7758Z" fill="#424952"/>
<path d="M18.8155 25.7758H12.4914C11.9367 25.7758 11.4868 25.3277 11.4868 24.7721C11.4868 24.2164 11.9367 23.7683 12.4914 23.7683H18.8155C19.3702 23.7683 19.8201 24.2164 19.8201 24.7721C19.8201 25.3277 19.3702 25.7758 18.8155 25.7758Z" fill="#424952"/>
<path d="M50.6162 25.7758H44.2913C43.7357 25.7758 43.2876 25.3277 43.2876 24.7721C43.2876 24.2164 43.7357 23.7683 44.2913 23.7683H50.6162C51.1719 23.7683 51.62 24.2164 51.62 24.7721C51.62 25.3277 51.1728 25.7758 50.6162 25.7758Z" fill="#424952"/>
<path d="M12.4914 31.9236C11.9367 31.9236 11.4868 31.4755 11.4868 30.9199V24.7721C11.4868 24.2164 11.9367 23.7683 12.4914 23.7683C13.0461 23.7683 13.496 24.2164 13.496 24.7721V30.9199C13.497 31.4755 13.047 31.9236 12.4914 31.9236Z" fill="#424952"/>
<path d="M50.6163 31.9236C50.0606 31.9236 49.6125 31.4755 49.6125 30.9199V24.7721C49.6125 24.2164 50.0606 23.7683 50.6163 23.7683C51.1719 23.7683 51.62 24.2164 51.62 24.7721V30.9199C51.62 31.4755 51.1728 31.9236 50.6163 31.9236Z" fill="#424952"/>
<path d="M50.6163 31.9235H44.2913C43.7357 31.9235 43.2876 31.4754 43.2876 30.9198C43.2876 30.3641 43.7357 29.916 44.2913 29.916H50.6163C51.1719 29.916 51.62 30.3641 51.62 30.9198C51.62 31.4754 51.1728 31.9235 50.6163 31.9235ZM38.1444 31.9235H24.9633C24.4086 31.9235 23.9587 31.4754 23.9587 30.9198C23.9587 30.3641 24.4086 29.916 24.9633 29.916H38.1444C38.7 29.916 39.1481 30.3641 39.1481 30.9198C39.1481 31.4754 38.7 31.9235 38.1444 31.9235ZM18.8155 31.9235H12.4914C11.9367 31.9235 11.4868 31.4754 11.4868 30.9198C11.4868 30.3641 11.9367 29.916 12.4914 29.916H18.8155C19.3702 29.916 19.8201 30.3641 19.8201 30.9198C19.8201 31.4754 19.3702 31.9235 18.8155 31.9235Z" fill="#424952"/>
<path d="M17.1008 50.78C16.6039 50.78 16.172 50.4114 16.1061 49.9046L13.6244 31.0499C13.5512 30.4998 13.9387 29.9947 14.4889 29.9243C15.0409 29.8493 15.5441 30.2378 15.6164 30.7898L18.0991 49.6444C18.1722 50.1946 17.7847 50.6996 17.2345 50.7701C17.1884 50.7755 17.145 50.78 17.1008 50.78Z" fill="#424952"/>
<path d="M45.9491 50.78C45.904 50.78 45.8579 50.7755 45.8127 50.7701C45.2625 50.6969 44.8777 50.1901 44.9518 49.6399L47.4931 30.7852C47.5663 30.235 48.0776 29.8502 48.6233 29.9243C49.1735 29.9974 49.5584 30.5043 49.4843 31.0545L46.9429 49.9091C46.8761 50.4132 46.4442 50.78 45.9491 50.78Z" fill="#424952"/>
<path d="M45.9472 50.7774H17.1015C16.5468 50.7774 16.0969 50.3293 16.0969 49.7736C16.0969 49.218 16.5468 48.7699 17.1015 48.7699H45.9472C46.5028 48.7699 46.9509 49.218 46.9509 49.7736C46.9509 50.3293 46.5028 50.7774 45.9472 50.7774Z" fill="#424952"/>
<path d="M24.0762 45.2817C23.5214 45.2817 23.0715 44.8336 23.0715 44.278V36.4154C23.0715 35.8598 23.5214 35.4117 24.0762 35.4117C24.6309 35.4117 25.0808 35.8598 25.0808 36.4154V44.278C25.0817 44.8336 24.6309 45.2817 24.0762 45.2817Z" fill="#424952"/>
<path d="M31.5239 45.2817C30.9692 45.2817 30.5193 44.8336 30.5193 44.278V36.4154C30.5193 35.8598 30.9692 35.4117 31.5239 35.4117C32.0786 35.4117 32.5285 35.8598 32.5285 36.4154V44.278C32.5285 44.8336 32.0786 45.2817 31.5239 45.2817Z" fill="#424952"/>
<path d="M39.0298 45.2817C38.4742 45.2817 38.0261 44.8336 38.0261 44.278V36.4154C38.0261 35.8598 38.4742 35.4117 39.0298 35.4117C39.5854 35.4117 40.0335 35.8598 40.0335 36.4154V44.278C40.0335 44.8336 39.5863 45.2817 39.0298 45.2817Z" fill="#424952"/>
<path d="M21.8891 28.8483C19.6395 28.8483 17.8101 27.0197 17.8101 24.772C17.8101 22.4854 19.6016 20.6957 21.8891 20.6957C22.8801 20.6957 23.8098 21.0354 24.5081 21.6569C24.9228 22.0255 24.9598 22.6606 24.5912 23.0762C24.2217 23.4936 23.5866 23.5261 23.1719 23.1593C22.8476 22.8702 22.3796 22.7031 21.8891 22.7031C20.729 22.7031 19.8202 23.6138 19.8202 24.772C19.8202 25.8922 20.767 26.8408 21.8891 26.8408C23.0111 26.8408 23.9579 25.8922 23.9579 24.772C23.9579 24.2164 24.4078 23.7683 24.9625 23.7683C25.5172 23.7683 25.9671 24.2164 25.9671 24.772C25.9681 27.0197 24.1386 28.8483 21.8891 28.8483Z" fill="#424952"/>
<path d="M41.2169 28.8483C38.9692 28.8483 37.1406 27.0197 37.1406 24.772C37.1406 22.4854 38.9303 20.6957 41.2169 20.6957C42.2062 20.6957 43.1376 21.0354 43.836 21.6569C44.2515 22.0255 44.2877 22.6606 43.9191 23.0762C43.5487 23.4936 42.9154 23.5261 42.4998 23.1593C42.1736 22.8702 41.7075 22.7031 41.2169 22.7031C40.0578 22.7031 39.1481 23.6138 39.1481 24.772C39.1481 25.8922 40.0967 26.8408 41.2169 26.8408C42.339 26.8408 43.2876 25.8922 43.2876 24.772C43.2876 24.2164 43.7357 23.7683 44.2913 23.7683C44.8469 23.7683 45.295 24.2164 45.295 24.772C45.2959 27.0197 43.4674 28.8483 41.2169 28.8483Z" fill="#424952"/>
</svg>
