<svg width="104" height="67" viewBox="0 0 104 67" fill="none" xmlns="http://www.w3.org/2000/svg">
<g clip-path="url(#clip0)">
<path d="M0.629445 21.7106C-2.51788 31.4849 6.90875 43.8534 23.1213 53.2881L37.2613 9.38836C18.6383 7.47363 3.79213 11.9362 0.629445 21.7106Z" fill="#FFA340"/>
<path d="M51.1095 11.8898L35.8028 59.4183C37.8754 60.2521 40.0094 61.0551 42.2049 61.7963L57.6805 13.7428C55.4697 13.0479 53.2896 12.4303 51.1095 11.8898Z" fill="#FFA340"/>
<path d="M103.673 44.4235L3.79288 11.8918L-0.00074523 23.6739L99.8797 56.2056L103.673 44.4235Z" fill="#FFA340"/>
<path d="M100.515 54.2454C103.079 46.2931 97.3215 36.6423 86.3903 28.2422L73.9238 66.9846C87.6646 66.6294 97.951 62.1823 100.515 54.2454Z" fill="#FFA340"/>
<path d="M37.2613 9.38834L23.1213 53.2881C26.9749 55.5271 31.2583 57.5962 35.8028 59.4337L51.1095 11.8898C46.3502 10.7009 41.6983 9.85158 37.2613 9.38834Z" fill="#FFB96E"/>
<path d="M58.31 13.9281C58.0951 13.8663 57.8955 13.8046 57.6805 13.7428L42.2049 61.7963C42.4198 61.8735 42.6194 61.9507 42.819 62.0125C53.8884 65.6257 64.6814 67.2162 73.8931 66.9691L86.3596 28.2268C79.0517 22.6061 69.3794 17.5414 58.31 13.9281Z" fill="#FFB96E"/>
<path d="M102.815 47.0889C107.092 33.807 88.1998 15.7574 60.6186 6.77403C33.0374 -2.20933 7.21159 1.27532 2.93506 14.5572C-1.34148 27.8391 17.5507 45.8887 45.1319 54.872C72.7131 63.8554 98.539 60.3708 102.815 47.0889Z" fill="#E0821B"/>
<path d="M103.398 45.2902C107.674 32.0083 88.7821 13.9588 61.2009 4.97541C33.6197 -4.00795 7.79386 -0.523306 3.51733 12.7586C-0.759201 26.0405 18.133 44.09 45.7142 53.0734C73.2954 62.0568 99.1212 58.5721 103.398 45.2902Z" fill="#FCCA4C"/>
<path d="M93.1732 41.96C96.4649 31.7369 81.352 17.658 59.4177 10.5138C37.4834 3.36972 17.0338 5.86571 13.7421 16.0888C10.4505 26.3119 25.5633 40.3908 47.4976 47.5349C69.4319 54.679 89.8816 52.183 93.1732 41.96Z" fill="#FFE066"/>
</g>
<defs>
<clipPath id="clip0">
<rect width="104" height="67" fill="white"/>
</clipPath>
</defs>
</svg>
