<svg width="17" height="30" viewBox="0 0 17 30" fill="none" xmlns="http://www.w3.org/2000/svg">
<path d="M8.70385 26.1245C6.98157 26.1245 5.23025 25.7181 3.75953 24.886C1.50508 23.6281 0.266602 21.6059 0.266602 19.2063C0.266602 18.5387 0.808443 17.9969 1.47607 17.9969C2.1437 17.9969 2.68554 18.5387 2.68554 19.2063C2.68554 21.1125 3.90467 22.2059 4.93997 22.7767C7.08799 23.9765 10.2617 24.0055 12.1581 22.8347C13.2708 22.1478 13.8127 21.1512 13.7643 19.874C13.6675 17.5712 11.5872 16.8939 8.86835 16.2456C8.60711 16.1876 8.36521 16.1295 8.13299 16.0714C7.87174 16.0037 7.58148 15.9457 7.26218 15.8779C4.95935 15.3845 0.682652 14.4555 0.682652 10.0144C0.682652 5.88283 4.43684 3.71545 8.15233 3.71545C10.1165 3.71545 11.9646 4.28637 13.3579 5.33135C15.0124 6.56984 15.8929 8.34054 15.8929 10.4499C15.8929 11.1175 15.3511 11.6593 14.6835 11.6593C14.0158 11.6593 13.474 11.1175 13.474 10.4499C13.474 9.1146 12.9515 8.04056 11.9065 7.2665C10.9486 6.55049 9.57466 6.13439 8.15233 6.13439C5.72372 6.13439 3.10159 7.34387 3.10159 10.0144C3.10159 12.3172 5.12384 12.9364 7.77499 13.5073C8.12332 13.5847 8.45228 13.6525 8.73288 13.7299C8.94575 13.788 9.17796 13.8363 9.41985 13.8944C11.7227 14.4362 15.9994 15.4522 16.1735 19.7773C16.2606 21.935 15.2834 23.7539 13.4159 24.8957C12.1 25.7181 10.4165 26.1245 8.70385 26.1245Z" fill="#003D59"/>
<path d="M8.22998 29.84C7.56235 29.84 7.02051 29.2981 7.02051 28.6305V24.8957C7.02051 24.2281 7.56235 23.6862 8.22998 23.6862C8.8976 23.6862 9.43944 24.2281 9.43944 24.8957V28.6305C9.43944 29.2981 8.8976 29.84 8.22998 29.84Z" fill="#003D59"/>
<path d="M8.22998 6.14407C7.56235 6.14407 7.02051 5.60223 7.02051 4.93461V1.20947C7.02051 0.541842 7.56235 0 8.22998 0C8.8976 0 9.43944 0.541842 9.43944 1.20947V4.93461C9.43944 5.60223 8.8976 6.14407 8.22998 6.14407Z" fill="#003D59"/>
</svg>
