<svg width="244" height="244" viewBox="0 0 244 244" fill="none" xmlns="http://www.w3.org/2000/svg">
<rect width="244" height="244" rx="48" fill="white"/>
<path d="M169.59 205.64H74.4102C63.6922 205.64 55 196.948 55 186.23V87.4906C55 76.7725 63.6922 68.0803 74.4102 68.0803H169.59C180.308 68.0803 189 76.7725 189 87.4906V186.23C189.01 196.948 180.317 205.64 169.59 205.64Z" fill="#FFCE00"/>
<path d="M169.378 73.9265C176.97 73.9265 183.154 80.1008 183.154 87.7028V186.018C183.154 193.61 176.97 199.794 169.378 199.794H74.6224C67.0301 199.794 60.8462 193.62 60.8462 186.018V87.7028C60.8462 80.1104 67.0301 73.9265 74.6224 73.9265H169.378ZM169.378 68.0803H74.6224C63.779 68.0803 55 76.869 55 87.7028V186.018C55 196.861 63.7886 205.64 74.6224 205.64H169.378C180.211 205.64 189 196.852 189 186.018V87.7028C189.01 76.8593 180.221 68.0803 169.378 68.0803Z" fill="#FF7300"/>
<path d="M121.999 186.857C149.614 186.857 172 164.47 172 136.855C172 109.24 149.614 86.8536 121.999 86.8536C94.3835 86.8536 71.9971 109.24 71.9971 136.855C71.9971 164.47 94.3835 186.857 121.999 186.857Z" fill="#FFA300"/>
<path d="M122.001 179.786C145.71 179.786 164.931 160.565 164.931 136.855C164.931 113.146 145.71 93.9253 122.001 93.9253C98.2908 93.9253 79.0703 113.146 79.0703 136.855C79.0703 160.565 98.2908 179.786 122.001 179.786Z" fill="#FFCE00"/>
<path d="M111.551 169.357C111.233 168.914 111.108 168.431 111.194 167.91L111.976 162.971C106.612 161.34 102.676 158.919 100.177 155.716C97.6786 152.513 96.6656 149.088 97.148 145.442C97.2155 145.017 97.4278 144.67 97.7847 144.41C98.1417 144.149 98.5372 144.053 98.9713 144.12L112.564 146.272C113.23 146.378 113.751 146.542 114.137 146.773C114.513 147.005 114.957 147.41 115.449 147.969C116.655 149.281 118.333 150.111 120.485 150.449C122.105 150.709 123.437 150.729 124.469 150.526C125.501 150.323 126.07 149.909 126.167 149.291C126.302 148.432 125.762 147.67 124.546 147.014C123.331 146.358 120.967 145.509 117.465 144.467C105.416 140.898 100.09 134.676 101.499 125.81C102.136 121.758 104.133 118.526 107.47 116.124C110.808 113.722 114.976 112.468 119.983 112.381L120.774 107.374C120.861 106.853 121.121 106.428 121.565 106.11C122.009 105.792 122.491 105.666 123.012 105.753L131.666 107.123C132.187 107.21 132.611 107.47 132.93 107.914C133.248 108.358 133.373 108.84 133.286 109.361L132.457 114.58C135.544 115.757 138.149 117.301 140.262 119.23C142.374 121.15 143.918 123.186 144.873 125.318C145.828 127.45 146.214 129.408 146.04 131.183C145.973 131.608 145.76 131.955 145.394 132.215C145.037 132.476 144.661 132.572 144.284 132.515L129.978 130.247C129.312 130.141 128.801 129.977 128.444 129.746C128.087 129.514 127.701 129.157 127.296 128.646C126.427 127.633 125.231 126.996 123.707 126.755C121.42 126.389 120.166 126.881 119.954 128.212C119.838 128.926 120.311 129.611 121.353 130.267C122.395 130.923 124.421 131.685 127.411 132.543C132.081 133.913 135.766 135.457 138.458 137.145C141.149 138.843 142.982 140.83 143.966 143.117C144.95 145.403 145.191 148.114 144.699 151.259C144.024 155.552 141.844 158.89 138.168 161.263C134.492 163.637 129.939 164.842 124.508 164.862L123.717 169.869C123.63 170.39 123.369 170.814 122.925 171.142C122.482 171.46 121.999 171.586 121.478 171.499L112.825 170.129C112.294 170.062 111.87 169.801 111.551 169.357Z" fill="#FFA300"/>
<path d="M109.777 165.807C109.458 165.363 109.333 164.881 109.42 164.36L110.201 159.42C104.838 157.79 100.901 155.368 98.4028 152.166C95.9042 148.963 94.8912 145.538 95.3736 141.891C95.4411 141.467 95.6534 141.12 96.0103 140.859C96.3673 140.599 96.7628 140.502 97.1873 140.57L110.78 142.721C111.446 142.827 111.967 142.991 112.353 143.223C112.729 143.454 113.173 143.859 113.665 144.419C114.871 145.741 116.549 146.561 118.701 146.898C120.321 147.159 121.653 147.178 122.685 146.975C123.717 146.773 124.286 146.358 124.383 145.741C124.518 144.882 123.978 144.12 122.762 143.464C121.547 142.808 119.183 141.959 115.681 140.917C103.632 137.347 98.3063 131.125 99.7148 122.259C100.352 118.207 102.348 114.976 105.686 112.573C109.024 110.171 113.192 108.917 118.189 108.83L118.98 103.823C119.067 103.302 119.328 102.878 119.771 102.56C120.215 102.241 120.697 102.116 121.218 102.203L129.872 103.572C130.393 103.659 130.817 103.92 131.145 104.364C131.464 104.807 131.589 105.29 131.502 105.811L130.673 111.03C133.76 112.207 136.365 113.75 138.477 115.68C140.59 117.6 142.134 119.635 143.089 121.767C144.044 123.899 144.43 125.858 144.247 127.633C144.179 128.057 143.967 128.404 143.61 128.665C143.253 128.925 142.877 129.032 142.5 128.964L128.193 126.697C127.528 126.591 127.016 126.427 126.659 126.195C126.303 125.973 125.917 125.607 125.512 125.095C124.643 124.083 123.447 123.446 121.923 123.205C119.636 122.848 118.382 123.33 118.17 124.661C118.054 125.375 118.517 126.06 119.569 126.716C120.611 127.372 122.637 128.134 125.627 128.993C130.297 130.373 133.982 131.906 136.673 133.595C139.365 135.293 141.198 137.28 142.182 139.566C143.166 141.853 143.407 144.564 142.915 147.709C142.24 152.002 140.06 155.34 136.384 157.713C132.708 160.086 128.155 161.292 122.723 161.311L121.932 166.318C121.846 166.839 121.585 167.264 121.141 167.582C120.698 167.9 120.215 168.026 119.694 167.939L111.041 166.569C110.52 166.511 110.095 166.251 109.777 165.807Z" fill="#FFE161"/>
<path d="M169.994 60.835H74.014C71.6987 60.835 69.8271 58.9634 69.8271 56.6481V42.1869C69.8271 39.8716 71.6987 38 74.014 38H169.994C172.31 38 174.181 39.8716 174.181 42.1869V56.6481C174.181 58.9634 172.31 60.835 169.994 60.835Z" fill="#003D59"/>
</svg>
