<svg width="244" height="244" viewBox="0 0 244 244" fill="none" xmlns="http://www.w3.org/2000/svg">
<path d="M180.954 225.674H63.0455C49.7679 225.674 39 214.906 39 201.628V79.3092C39 66.0316 49.7679 55.2637 63.0455 55.2637H180.954C194.232 55.2637 205 66.0316 205 79.3092V201.628C205.012 214.906 194.244 225.674 180.954 225.674Z" fill="#FFCE00"/>
<path d="M180.692 62.506C190.097 62.506 197.758 70.1547 197.758 79.5721V201.365C197.758 210.771 190.097 218.431 180.692 218.431H63.3084C53.9029 218.431 46.2423 210.783 46.2423 201.365V79.5721C46.2423 70.1666 53.9029 62.506 63.3084 62.506H180.692ZM180.692 55.2637H63.3084C49.8754 55.2637 39 66.1511 39 79.5721V201.365C39 214.798 49.8874 225.674 63.3084 225.674H180.692C194.113 225.674 205 214.786 205 201.365V79.5721C205.012 66.1391 194.125 55.2637 180.692 55.2637Z" fill="#FF7300"/>
<path d="M121.998 202.405C156.208 202.405 183.94 174.672 183.94 140.463C183.94 106.253 156.208 78.5202 121.998 78.5202C87.7881 78.5202 60.0557 106.253 60.0557 140.463C60.0557 174.672 87.7881 202.405 121.998 202.405Z" fill="#FFA300"/>
<path d="M122.001 193.645C151.372 193.645 175.183 169.835 175.183 140.463C175.183 111.091 151.372 87.2806 122.001 87.2806C92.6288 87.2806 68.8184 111.091 68.8184 140.463C68.8184 169.835 92.6288 193.645 122.001 193.645Z" fill="#FFCE00"/>
<path d="M109.056 180.726C108.662 180.177 108.506 179.579 108.614 178.934L109.582 172.815C102.937 170.795 98.0609 167.795 94.9656 163.828C91.8703 159.86 90.6154 155.617 91.213 151.1C91.2966 150.574 91.5596 150.144 92.0018 149.821C92.444 149.498 92.9339 149.379 93.4717 149.462L110.311 152.127C111.135 152.259 111.781 152.462 112.259 152.749C112.725 153.036 113.275 153.538 113.884 154.231C115.378 155.856 117.458 156.884 120.123 157.302C122.13 157.625 123.78 157.649 125.058 157.398C126.337 157.147 127.042 156.633 127.162 155.868C127.329 154.804 126.66 153.86 125.154 153.048C123.648 152.235 120.72 151.183 116.382 149.893C101.455 145.471 94.8581 137.762 96.6029 126.779C97.3917 121.76 99.8655 117.756 104.001 114.78C108.136 111.805 113.299 110.251 119.501 110.143L120.481 103.941C120.589 103.295 120.911 102.77 121.461 102.375C122.011 101.981 122.608 101.825 123.254 101.933L133.974 103.63C134.619 103.738 135.145 104.06 135.539 104.61C135.934 105.16 136.089 105.757 135.982 106.403L134.954 112.868C138.778 114.326 142.005 116.238 144.622 118.629C147.24 121.007 149.152 123.529 150.335 126.17C151.518 128.811 151.996 131.237 151.781 133.436C151.697 133.962 151.434 134.392 150.98 134.715C150.538 135.037 150.072 135.157 149.606 135.085L131.882 132.277C131.058 132.145 130.424 131.942 129.982 131.655C129.54 131.368 129.062 130.926 128.56 130.293C127.484 129.038 126.003 128.249 124.114 127.95C121.282 127.496 119.728 128.106 119.465 129.755C119.322 130.639 119.907 131.488 121.198 132.301C122.489 133.113 124.999 134.057 128.703 135.121C134.488 136.818 139.053 138.73 142.387 140.822C145.722 142.925 147.992 145.387 149.211 148.219C150.43 151.052 150.729 154.41 150.12 158.306C149.283 163.624 146.582 167.759 142.029 170.699C137.476 173.639 131.835 175.133 125.106 175.157L124.126 181.36C124.019 182.005 123.696 182.531 123.146 182.937C122.596 183.332 121.999 183.487 121.353 183.379L110.633 181.682C109.976 181.599 109.45 181.276 109.056 180.726Z" fill="#FFA300"/>
<path d="M106.858 176.328C106.463 175.778 106.308 175.181 106.415 174.535L107.383 168.416C100.739 166.397 95.8627 163.397 92.7674 159.429C89.6721 155.461 88.4172 151.219 89.0147 146.701C89.0984 146.175 89.3614 145.745 89.8035 145.422C90.2457 145.1 90.7357 144.98 91.2615 145.064L108.101 147.729C108.925 147.86 109.571 148.064 110.049 148.35C110.515 148.637 111.064 149.139 111.674 149.832C113.168 151.47 115.247 152.486 117.912 152.904C119.92 153.227 121.569 153.25 122.848 152.999C124.127 152.748 124.832 152.235 124.951 151.47C125.119 150.406 124.45 149.462 122.944 148.649C121.438 147.837 118.51 146.785 114.172 145.494C99.2447 141.072 92.6479 133.364 94.3927 122.381C95.1815 117.361 97.6553 113.358 101.79 110.382C105.925 107.406 111.088 105.853 117.279 105.745L118.259 99.5424C118.366 98.897 118.689 98.3712 119.239 97.9768C119.789 97.5824 120.386 97.4271 121.032 97.5346L131.752 99.2317C132.397 99.3392 132.923 99.6619 133.329 100.212C133.724 100.761 133.879 101.359 133.771 102.004L132.744 108.47C136.568 109.928 139.795 111.84 142.412 114.23C145.029 116.608 146.941 119.13 148.125 121.771C149.308 124.413 149.786 126.839 149.559 129.038C149.475 129.563 149.212 129.994 148.77 130.316C148.328 130.639 147.862 130.77 147.396 130.687L129.672 127.878C128.848 127.747 128.214 127.544 127.772 127.257C127.33 126.982 126.852 126.528 126.35 125.894C125.274 124.64 123.792 123.851 121.904 123.552C119.072 123.11 117.518 123.707 117.255 125.357C117.112 126.241 117.685 127.09 118.988 127.902C120.279 128.715 122.788 129.659 126.493 130.723C132.278 132.432 136.843 134.332 140.177 136.423C143.511 138.527 145.782 140.989 147.001 143.821C148.22 146.653 148.519 150.012 147.91 153.908C147.073 159.226 144.372 163.361 139.819 166.301C135.265 169.241 129.624 170.735 122.896 170.759L121.916 176.961C121.808 177.607 121.486 178.133 120.936 178.527C120.386 178.921 119.789 179.077 119.143 178.969L108.423 177.272C107.778 177.2 107.252 176.878 106.858 176.328Z" fill="#FFE161"/>
<path d="M181.456 46.2881H62.5549C59.6866 46.2881 57.3682 43.9696 57.3682 41.1014V23.1868C57.3682 20.3185 59.6866 18 62.5549 18H181.456C184.324 18 186.643 20.3185 186.643 23.1868V41.1014C186.643 43.9696 184.324 46.2881 181.456 46.2881Z" fill="#003D59"/>
</svg>
