<svg width="244" height="244" viewBox="0 0 244 244" fill="none" xmlns="http://www.w3.org/2000/svg">
<rect width="244" height="244" rx="48" fill="white"/>
<path d="M100.481 111.343C100.293 111.156 100.201 110.933 100.201 110.677V87.9517C100.201 87.6949 100.293 87.4727 100.481 87.2849C100.669 87.0971 100.891 87.0051 101.148 87.0051H106.704C107.36 87.0051 107.866 87.3232 108.218 87.9555L113.319 96.3978L118.419 87.9555C118.772 87.3232 119.274 87.0051 119.933 87.0051H125.49C125.747 87.0051 125.969 87.1009 126.157 87.2849C126.344 87.4727 126.436 87.6949 126.436 87.9517V110.673C126.436 110.929 126.341 111.152 126.157 111.34C125.969 111.527 125.747 111.619 125.49 111.619H119.121C118.864 111.619 118.638 111.527 118.454 111.34C118.266 111.152 118.174 110.929 118.174 110.673V101.035L115.852 104.832C115.687 105.089 115.507 105.304 115.308 105.465C115.108 105.63 114.855 105.71 114.553 105.71H112.089C111.782 105.71 111.533 105.63 111.334 105.465C111.134 105.3 110.95 105.089 110.79 104.832L108.467 101.035V110.673C108.467 110.929 108.375 111.152 108.187 111.34C108 111.527 107.777 111.619 107.521 111.619H101.152C100.891 111.623 100.669 111.531 100.481 111.343Z" fill="#003D59"/>
<path d="M136.748 111.342C136.56 111.154 136.468 110.932 136.468 110.675V103.747L128.554 88.0922C128.508 88.0002 128.485 87.8929 128.485 87.7741C128.485 87.5633 128.562 87.3832 128.715 87.2299C128.869 87.0766 129.049 87 129.259 87H135.874C136.272 87 136.594 87.0996 136.839 87.2989C137.085 87.4982 137.257 87.6936 137.349 87.8776L140.867 94.948L144.385 87.8776C144.477 87.6898 144.65 87.4982 144.895 87.2989C145.14 87.0996 145.462 87 145.86 87H152.475C152.686 87 152.866 87.0766 153.019 87.2299C153.172 87.3832 153.249 87.5633 153.249 87.7741C153.249 87.8929 153.226 87.9964 153.18 88.0922L145.266 103.747V110.671C145.266 110.928 145.175 111.15 144.987 111.338C144.799 111.526 144.577 111.618 144.32 111.618H137.426C137.158 111.622 136.935 111.53 136.748 111.342Z" fill="#003D59"/>
<path d="M163.882 111.342C163.694 111.154 163.602 110.932 163.602 110.675V94.5647H157.762C157.505 94.5647 157.283 94.4728 157.095 94.285C156.907 94.0972 156.815 93.875 156.815 93.6182V87.9466C156.815 87.6898 156.907 87.4675 157.095 87.2798C157.283 87.092 157.505 87 157.762 87H178.375C178.632 87 178.854 87.0958 179.042 87.2798C179.23 87.4675 179.322 87.6898 179.322 87.9466V93.6105C179.322 93.8673 179.226 94.0934 179.042 94.2773C178.854 94.4651 178.632 94.5571 178.375 94.5571H172.535V110.671C172.535 110.928 172.439 111.15 172.255 111.338C172.068 111.526 171.845 111.618 171.589 111.618H164.553C164.292 111.622 164.07 111.53 163.882 111.342Z" fill="#FF7300"/>
<path d="M182.139 111.342C181.951 111.154 181.859 110.932 181.859 110.675V87.9501C181.859 87.6933 181.951 87.4711 182.139 87.2833C182.327 87.0955 182.549 87.0035 182.806 87.0035H189.984C190.24 87.0035 190.463 87.0993 190.65 87.2833C190.838 87.4711 190.93 87.6933 190.93 87.9501V110.671C190.93 110.928 190.834 111.15 190.65 111.338C190.463 111.526 190.24 111.618 189.984 111.618H182.806C182.549 111.622 182.327 111.53 182.139 111.342Z" fill="#FF7300"/>
<path d="M195.084 111.342C194.897 111.154 194.805 110.932 194.805 110.675V87.9501C194.805 87.6933 194.897 87.4711 195.084 87.2833C195.272 87.0955 195.494 87.0035 195.751 87.0035H206.412C209.697 87.0035 212.279 87.7317 214.169 89.1841C216.058 90.6403 217.001 92.7863 217.001 95.6221C217.001 98.435 216.062 100.531 214.188 101.903C212.31 103.275 209.72 103.961 206.412 103.961H203.948V110.671C203.948 110.928 203.852 111.15 203.669 111.338C203.481 111.526 203.259 111.618 203.002 111.618H195.755C195.494 111.622 195.272 111.53 195.084 111.342ZM206.24 97.4463C206.661 97.4463 207.037 97.2891 207.367 96.9711C207.696 96.653 207.861 96.1778 207.861 95.5455C207.861 95.0052 207.731 94.5376 207.474 94.1391C207.217 93.7405 206.807 93.5413 206.244 93.5413H203.78V97.4463H206.24Z" fill="#FF7300"/>
<path d="M100.617 151.438C100.337 151.159 100.195 150.825 100.195 150.438V116.466C100.195 116.079 100.333 115.749 100.617 115.466C100.897 115.186 101.23 115.044 101.617 115.044H112.136C112.523 115.044 112.853 115.186 113.137 115.466C113.416 115.745 113.558 116.079 113.558 116.466V141.08H128.124C128.511 141.08 128.841 141.222 129.125 141.502C129.404 141.781 129.546 142.115 129.546 142.502V150.442C129.546 150.829 129.404 151.162 129.125 151.442C128.845 151.722 128.511 151.864 128.124 151.864H101.617C101.23 151.856 100.897 151.718 100.617 151.438Z" fill="#003D59"/>
<path d="M133.539 151.438C133.259 151.159 133.117 150.825 133.117 150.438V116.466C133.117 116.079 133.255 115.749 133.539 115.466C133.818 115.186 134.152 115.044 134.539 115.044H145.269C145.656 115.044 145.986 115.186 146.269 115.466C146.549 115.745 146.691 116.079 146.691 116.466V150.438C146.691 150.825 146.549 151.159 146.269 151.438C145.989 151.718 145.656 151.86 145.269 151.86H134.539C134.152 151.856 133.818 151.718 133.539 151.438Z" fill="#003D59"/>
<path d="M152.891 151.438C152.612 151.159 152.47 150.825 152.47 150.438V116.466C152.47 116.079 152.608 115.749 152.891 115.466C153.171 115.186 153.504 115.044 153.891 115.044H180.399C180.786 115.044 181.115 115.186 181.399 115.466C181.679 115.745 181.82 116.079 181.82 116.466V124.46C181.82 124.847 181.679 125.18 181.399 125.46C181.119 125.74 180.786 125.882 180.399 125.882H165.357V129.775H179.345C179.732 129.775 180.061 129.917 180.345 130.197C180.625 130.476 180.767 130.81 180.767 131.197V139.137C180.767 139.524 180.625 139.858 180.345 140.137C180.065 140.417 179.732 140.559 179.345 140.559H165.357V150.446C165.357 150.833 165.216 151.166 164.936 151.446C164.656 151.726 164.323 151.868 163.936 151.868H153.891C153.504 151.856 153.171 151.718 152.891 151.438Z" fill="#003D59"/>
<path d="M186.864 151.438C186.584 151.159 186.442 150.825 186.442 150.438V116.466C186.442 116.079 186.58 115.749 186.864 115.466C187.144 115.186 187.477 115.044 187.864 115.044H214.843C215.23 115.044 215.559 115.186 215.843 115.466C216.123 115.745 216.264 116.079 216.264 116.466V123.881C216.264 124.268 216.123 124.602 215.843 124.881C215.563 125.161 215.23 125.303 214.843 125.303H199.066V128.618H213.685C214.072 128.618 214.402 128.759 214.686 129.039C214.965 129.319 215.107 129.652 215.107 130.039V136.876C215.107 137.263 214.965 137.597 214.686 137.876C214.406 138.156 214.072 138.298 213.685 138.298H199.066V141.613H215.264C215.651 141.613 215.981 141.754 216.264 142.034C216.544 142.314 216.686 142.647 216.686 143.034V150.45C216.686 150.837 216.544 151.17 216.264 151.45C215.985 151.73 215.651 151.871 215.264 151.871H187.864C187.477 151.856 187.144 151.718 186.864 151.438Z" fill="#003D59"/>
<path d="M72.5187 153.887H34.7104C30.4528 153.887 27 150.434 27 146.177V106.954C27 102.697 30.4528 99.244 34.7104 99.244H72.5187C76.7763 99.244 80.2291 102.697 80.2291 106.954V146.177C80.2329 150.434 76.7801 153.887 72.5187 153.887Z" fill="#FFCE00"/>
<path d="M72.4344 101.566C75.4504 101.566 77.9068 104.019 77.9068 107.039V146.093C77.9068 149.108 75.4504 151.565 72.4344 151.565H34.7947C31.7787 151.565 29.3223 149.112 29.3223 146.093V107.039C29.3223 104.023 31.7787 101.566 34.7947 101.566H72.4344ZM72.4344 99.244H34.7947C30.4873 99.244 27 102.735 27 107.039V146.093C27 150.4 30.4911 153.887 34.7947 153.887H72.4344C76.738 153.887 80.2291 150.396 80.2291 146.093V107.039C80.2329 102.731 76.7418 99.244 72.4344 99.244Z" fill="#FF7300"/>
<path d="M53.6142 146.426C64.5838 146.426 73.4764 137.533 73.4764 126.564C73.4764 115.594 64.5838 106.701 53.6142 106.701C42.6446 106.701 33.752 115.594 33.752 126.564C33.752 137.533 42.6446 146.426 53.6142 146.426Z" fill="#FFA300"/>
<path d="M53.6148 143.617C63.033 143.617 70.668 135.982 70.668 126.564C70.668 117.145 63.033 109.51 53.6148 109.51C44.1965 109.51 36.5615 117.145 36.5615 126.564C36.5615 135.982 44.1965 143.617 53.6148 143.617Z" fill="#FFCE00"/>
<path d="M49.4641 139.475C49.3377 139.298 49.2879 139.107 49.3224 138.9L49.6327 136.938C47.502 136.29 45.9385 135.328 44.946 134.056C43.9534 132.784 43.5511 131.423 43.7427 129.975C43.7695 129.806 43.8538 129.668 43.9956 129.564C44.1374 129.461 44.2945 129.423 44.467 129.45L49.8665 130.304C50.1309 130.346 50.3379 130.411 50.4911 130.503C50.6406 130.595 50.8169 130.756 51.0123 130.979C51.4913 131.5 52.1582 131.829 53.0128 131.963C53.6566 132.067 54.1854 132.075 54.5954 131.994C55.0055 131.914 55.2316 131.749 55.2699 131.504C55.3235 131.162 55.1089 130.86 54.6261 130.599C54.1432 130.339 53.2044 130.001 51.8133 129.587C47.0269 128.17 44.9115 125.698 45.471 122.176C45.7239 120.566 46.5171 119.283 47.8431 118.328C49.169 117.374 50.8246 116.876 52.8135 116.842L53.1277 114.853C53.1622 114.646 53.2657 114.477 53.442 114.351C53.6182 114.224 53.8098 114.174 54.0168 114.209L57.4542 114.753C57.6612 114.788 57.8298 114.891 57.9562 115.067C58.0827 115.244 58.1325 115.435 58.098 115.642L57.7685 117.715C58.9948 118.183 60.0295 118.796 60.8687 119.562C61.708 120.325 62.3211 121.134 62.7005 121.981C63.0799 122.827 63.2332 123.605 63.1642 124.311C63.1374 124.479 63.0531 124.617 62.9074 124.721C62.7657 124.824 62.6162 124.862 62.4667 124.839L56.7836 123.939C56.5192 123.897 56.3161 123.832 56.1743 123.74C56.0325 123.648 55.8792 123.506 55.7183 123.303C55.3734 122.9 54.8982 122.647 54.2927 122.552C53.3845 122.406 52.8863 122.601 52.802 123.13C52.756 123.414 52.9437 123.686 53.3576 123.946C53.7715 124.207 54.5763 124.51 55.7642 124.851C57.619 125.395 59.0829 126.008 60.1521 126.679C61.2213 127.353 61.9494 128.143 62.3403 129.051C62.7312 129.959 62.827 131.036 62.6315 132.285C62.3633 133.991 61.4972 135.317 60.0371 136.259C58.5771 137.202 56.7683 137.681 54.6107 137.689L54.2965 139.678C54.262 139.885 54.1585 140.053 53.9823 140.183C53.806 140.31 53.6144 140.36 53.4074 140.325L49.97 139.781C49.7592 139.754 49.5906 139.651 49.4641 139.475Z" fill="#FFA300"/>
<path d="M48.759 138.064C48.6326 137.888 48.5827 137.696 48.6172 137.489L48.9277 135.527C46.797 134.88 45.2334 133.918 44.2409 132.645C43.2484 131.373 42.846 130.013 43.0376 128.564C43.0644 128.396 43.1487 128.258 43.2905 128.154C43.4323 128.051 43.5894 128.012 43.758 128.039L49.1576 128.894C49.422 128.936 49.6289 129.001 49.7822 129.093C49.9317 129.185 50.108 129.346 50.3034 129.568C50.7824 130.093 51.4492 130.419 52.3038 130.553C52.9476 130.656 53.4764 130.664 53.8865 130.584C54.2965 130.503 54.5226 130.338 54.561 130.093C54.6146 129.752 54.4 129.449 53.9172 129.189C53.4343 128.928 52.4954 128.591 51.1043 128.177C46.3179 126.759 44.2026 124.287 44.7621 120.766C45.015 119.156 45.8082 117.872 47.1342 116.918C48.4601 115.964 50.1156 115.466 52.1007 115.431L52.4149 113.442C52.4494 113.235 52.5529 113.067 52.7292 112.94C52.9054 112.814 53.0971 112.764 53.304 112.798L56.7415 113.343C56.9484 113.377 57.117 113.481 57.2473 113.657C57.3738 113.833 57.4236 114.025 57.3891 114.232L57.0596 116.305C58.2859 116.772 59.3205 117.386 60.1598 118.152C60.999 118.915 61.6122 119.723 61.9916 120.57C62.371 121.417 62.5243 122.195 62.4515 122.9C62.4246 123.069 62.3403 123.207 62.1985 123.31C62.0567 123.414 61.9073 123.456 61.7578 123.429L56.0747 122.528C55.8103 122.486 55.6071 122.421 55.4654 122.329C55.3236 122.241 55.1703 122.095 55.0093 121.892C54.6644 121.49 54.1893 121.237 53.5838 121.141C52.6755 120.999 52.1774 121.191 52.0931 121.72C52.0471 122.003 52.231 122.275 52.6487 122.536C53.0626 122.797 53.8673 123.099 55.0553 123.44C56.9101 123.988 58.374 124.598 59.4432 125.268C60.5123 125.943 61.2405 126.732 61.6314 127.641C62.0223 128.549 62.1181 129.626 61.9226 130.875C61.6544 132.58 60.7883 133.906 59.3282 134.849C57.8682 135.792 56.0594 136.271 53.9018 136.278L53.5876 138.267C53.5531 138.474 53.4496 138.643 53.2733 138.769C53.0971 138.896 52.9055 138.946 52.6985 138.911L49.2611 138.367C49.0541 138.344 48.8855 138.24 48.759 138.064Z" fill="#FFE161"/>
<path d="M72.6793 96.366H34.5528C33.6331 96.366 32.8896 95.6225 32.8896 94.7028V88.9583C32.8896 88.0386 33.6331 87.2952 34.5528 87.2952H72.6793C73.599 87.2952 74.3424 88.0386 74.3424 88.9583V94.7028C74.3424 95.6225 73.599 96.366 72.6793 96.366Z" fill="#003D59"/>
</svg>
