<svg width="244" height="244" viewBox="0 0 244 244" fill="none" xmlns="http://www.w3.org/2000/svg">
<rect width="244" height="244" rx="48" fill="white"/>
<path d="M30.4552 107.764C30.1562 107.465 30.0098 107.111 30.0098 106.703V70.5155C30.0098 70.1066 30.1562 69.7527 30.4552 69.4536C30.7542 69.1546 31.1082 69.0082 31.517 69.0082H40.3655C41.409 69.0082 42.2145 69.5147 42.776 70.5216L50.8982 83.9651L59.0205 70.5216C59.5819 69.5147 60.3813 69.0082 61.4309 69.0082H70.2793C70.6882 69.0082 71.0421 69.1607 71.3411 69.4536C71.6401 69.7527 71.7866 70.1066 71.7866 70.5155V106.696C71.7866 107.105 71.634 107.459 71.3411 107.758C71.0421 108.057 70.6882 108.204 70.2793 108.204H60.1372C59.7283 108.204 59.3683 108.057 59.0754 107.758C58.7764 107.459 58.6299 107.105 58.6299 106.696V91.349L54.9318 97.3964C54.6694 97.8053 54.3827 98.147 54.0653 98.4033C53.748 98.6657 53.3453 98.7938 52.8632 98.7938H48.9393C48.4511 98.7938 48.0545 98.6657 47.7372 98.4033C47.4199 98.1409 47.1269 97.8053 46.8706 97.3964L43.1726 91.349V106.696C43.1726 107.105 43.0261 107.459 42.7271 107.758C42.4281 108.057 42.0741 108.204 41.6653 108.204H31.5231C31.1082 108.21 30.7542 108.063 30.4552 107.764Z" fill="#003D59"/>
<path d="M88.2065 107.762C87.9075 107.463 87.761 107.109 87.761 106.7V95.6674L75.1596 70.7392C75.0864 70.5927 75.0498 70.4219 75.0498 70.2327C75.0498 69.8971 75.1718 69.6102 75.4159 69.3661C75.66 69.1221 75.9468 69 76.2824 69H86.8151C87.4498 69 87.9624 69.1587 88.3529 69.476C88.7435 69.7933 89.0181 70.1045 89.1646 70.3974L94.7665 81.6563L100.369 70.3974C100.515 70.0984 100.79 69.7933 101.18 69.476C101.571 69.1587 102.083 69 102.718 69H113.251C113.586 69 113.873 69.1221 114.117 69.3661C114.361 69.6102 114.483 69.8971 114.483 70.2327C114.483 70.4219 114.447 70.5866 114.373 70.7392L101.772 95.6674V106.694C101.772 107.103 101.626 107.457 101.327 107.756C101.028 108.055 100.674 108.202 100.265 108.202H89.2866C88.8594 108.208 88.5055 108.061 88.2065 107.762Z" fill="#003D59"/>
<path d="M131.415 107.762C131.116 107.463 130.969 107.109 130.969 106.7V81.0461H121.669C121.261 81.0461 120.907 80.8996 120.608 80.6006C120.309 80.3016 120.162 79.9477 120.162 79.5388V70.5073C120.162 70.0984 120.309 69.7445 120.608 69.4455C120.907 69.1465 121.261 69 121.669 69H154.494C154.903 69 155.257 69.1526 155.556 69.4455C155.855 69.7445 156.001 70.0984 156.001 70.5073V79.5266C156.001 79.9355 155.849 80.2955 155.556 80.5884C155.257 80.8874 154.903 81.0339 154.494 81.0339H145.194V106.694C145.194 107.103 145.042 107.457 144.749 107.756C144.45 108.055 144.096 108.202 143.687 108.202H132.483C132.068 108.208 131.714 108.061 131.415 107.762Z" fill="#FF7300"/>
<path d="M160.488 107.762C160.189 107.463 160.042 107.109 160.042 106.7V70.5129C160.042 70.104 160.189 69.7501 160.488 69.4511C160.787 69.1521 161.14 69.0056 161.549 69.0056H172.979C173.388 69.0056 173.742 69.1582 174.041 69.4511C174.34 69.7501 174.486 70.104 174.486 70.5129V106.694C174.486 107.103 174.334 107.457 174.041 107.756C173.742 108.055 173.388 108.201 172.979 108.201H161.549C161.14 108.207 160.787 108.061 160.488 107.762Z" fill="#FF7300"/>
<path d="M181.102 107.762C180.803 107.463 180.656 107.109 180.656 106.7V70.5129C180.656 70.104 180.803 69.7501 181.102 69.4511C181.401 69.1521 181.755 69.0056 182.164 69.0056H199.14C204.37 69.0056 208.483 70.1651 211.492 72.4779C214.5 74.7968 216.001 78.2141 216.001 82.7298C216.001 87.209 214.506 90.547 211.522 92.7316C208.532 94.9163 204.407 96.0086 199.14 96.0086H195.217V106.694C195.217 107.103 195.064 107.457 194.771 107.756C194.472 108.055 194.118 108.201 193.709 108.201H182.17C181.755 108.207 181.401 108.061 181.102 107.762ZM198.866 85.6346C199.537 85.6346 200.135 85.3844 200.66 84.8779C201.185 84.3714 201.447 83.6147 201.447 82.6078C201.447 81.7474 201.24 81.0029 200.831 80.3682C200.422 79.7336 199.769 79.4163 198.872 79.4163H194.948V85.6346H198.866Z" fill="#FF7300"/>
<path d="M30.6712 171.612C30.2258 171.166 30 170.635 30 170.019V115.921C30 115.305 30.2197 114.78 30.6712 114.329C31.1167 113.883 31.6477 113.657 32.264 113.657H49.015C49.6314 113.657 50.1561 113.883 50.6077 114.329C51.0532 114.774 51.279 115.305 51.279 115.921V155.117H74.4741C75.0904 155.117 75.6152 155.343 76.0668 155.788C76.5123 156.234 76.7381 156.765 76.7381 157.381V170.025C76.7381 170.641 76.5123 171.172 76.0668 171.618C75.6213 172.063 75.0904 172.289 74.4741 172.289H32.264C31.6477 172.277 31.1167 172.057 30.6712 171.612Z" fill="#003D59"/>
<path d="M83.0961 171.612C82.6506 171.166 82.4248 170.635 82.4248 170.019V115.921C82.4248 115.305 82.6445 114.78 83.0961 114.329C83.5415 113.883 84.0724 113.657 84.6888 113.657H101.775C102.392 113.657 102.917 113.883 103.368 114.329C103.814 114.774 104.039 115.305 104.039 115.921V170.019C104.039 170.635 103.814 171.166 103.368 171.612C102.923 172.057 102.392 172.283 101.775 172.283H84.6888C84.0724 172.277 83.5415 172.057 83.0961 171.612Z" fill="#003D59"/>
<path d="M113.912 171.612C113.467 171.166 113.241 170.635 113.241 170.019V115.921C113.241 115.305 113.461 114.78 113.912 114.329C114.358 113.883 114.889 113.657 115.505 113.657H157.715C158.332 113.657 158.856 113.883 159.308 114.329C159.753 114.774 159.979 115.305 159.979 115.921V128.651C159.979 129.267 159.753 129.798 159.308 130.244C158.863 130.689 158.332 130.915 157.715 130.915H133.763V137.115H156.037C156.653 137.115 157.178 137.341 157.63 137.786C158.075 138.232 158.301 138.763 158.301 139.379V152.023C158.301 152.639 158.075 153.17 157.63 153.616C157.184 154.061 156.653 154.287 156.037 154.287H133.763V170.031C133.763 170.647 133.538 171.178 133.092 171.624C132.647 172.069 132.116 172.295 131.5 172.295H115.505C114.889 172.277 114.358 172.057 113.912 171.612Z" fill="#003D59"/>
<path d="M168.011 171.612C167.566 171.166 167.34 170.635 167.34 170.019V115.921C167.34 115.305 167.56 114.78 168.011 114.329C168.457 113.883 168.987 113.657 169.604 113.657H212.565C213.181 113.657 213.706 113.883 214.157 114.329C214.603 114.774 214.828 115.305 214.828 115.921V127.729C214.828 128.346 214.603 128.877 214.157 129.322C213.712 129.768 213.181 129.993 212.565 129.993H187.441V135.272H210.722C211.338 135.272 211.863 135.498 212.314 135.943C212.76 136.389 212.986 136.92 212.986 137.536V148.423C212.986 149.039 212.76 149.57 212.314 150.015C211.869 150.461 211.338 150.687 210.722 150.687H187.441V155.965H213.236C213.852 155.965 214.377 156.191 214.828 156.636C215.274 157.082 215.5 157.613 215.5 158.229V170.037C215.5 170.654 215.274 171.184 214.828 171.63C214.383 172.075 213.852 172.301 213.236 172.301H169.604C168.987 172.277 168.457 172.057 168.011 171.612Z" fill="#003D59"/>
</svg>
