<svg width="885" height="675" viewBox="0 0 885 675" fill="none" xmlns="http://www.w3.org/2000/svg">
<g clip-path="url(#clip0)">
<path d="M240.729 195.1C147.99 242.482 88.8832 305.465 75.8701 411.915C64.2716 506.844 109.222 647.498 245.845 653.312C316.579 656.325 341.414 618.836 396.644 616.317C452.447 613.778 540.748 692.555 660.725 670.046C767.717 649.979 786.913 565.805 774.365 478.86C766.758 426.1 718.262 398.02 731.246 324.65C741.391 267.326 805.187 219.702 782.988 130.877C767.805 70.0944 709.464 -0.697811 606.463 0.00953063C531.892 0.51339 503.84 38.8067 496.389 76.6059C489.287 112.622 490.217 135.364 459.869 148.638C394.939 177.039 340.106 144.336 240.729 195.1Z" fill="url(#paint0_linear)"/>
<path d="M272.685 49.2135C259.439 70.9279 287.898 82.1194 330.416 75.9955C369.3 70.3949 343.38 104.716 391.014 112.235C418.707 116.605 448.115 105.026 448.697 84.7162C449.491 57.0814 398.582 39.2913 359.969 33.962C308.682 26.8789 278.78 39.2138 272.685 49.2135Z" fill="url(#paint1_linear)"/>
<path d="M115.171 170.837C108.078 174.936 106.256 179.674 111.557 186.961C116.857 194.248 127.254 203.666 143.019 197.891C151.565 194.761 157.417 186.108 158.251 177.359C158.774 171.835 156.264 165.431 146.991 165.101C137.718 164.772 123.785 165.867 115.171 170.837Z" fill="url(#paint2_linear)"/>
<path d="M89.6965 496.03C71.5963 497.261 52.2753 499.848 35.832 507.997C26.5397 512.599 16.6272 522.056 25.2606 532.25C35.1634 543.955 55.0368 546.765 69.2805 548.548C88.9601 551.009 109.095 550.573 128.562 546.649C147.437 542.841 165.585 535.932 183.947 530.254C203.52 524.208 223.258 518.694 243.238 514.179C286.58 504.392 331.268 498.927 375.753 500.633C386.935 501.059 398.146 501.902 409.172 503.792C418.019 505.313 428.62 507.115 435.848 512.822C445.576 520.506 434.007 527.987 426.546 530.777C418.61 533.752 410.045 535.176 401.644 536.058C382.1 538.102 361.151 537.57 342.314 531.543C335.735 529.44 326.695 526.213 322.983 519.828C318.991 512.958 327.053 507.096 332.198 503.956C348.952 493.763 369.813 489.199 388.853 485.478C410.703 481.215 432.941 478.909 455.179 478.037C474.732 477.271 496.253 476.37 515.099 482.484C522.706 484.955 529.779 489.17 529.769 497.939C529.76 502.765 528.132 507.551 528.946 512.377C530.855 523.675 542.54 530.186 552.346 533.694C571.134 540.418 592.219 540.573 611.927 539.905C655.763 538.413 699.841 532.434 743.096 525.39C753.57 523.684 764.016 521.834 774.442 519.857C776.273 519.508 775.498 516.708 773.666 517.057C728.028 525.709 681.857 531.862 635.551 535.583C613.885 537.327 591.599 538.606 570.03 535.089C557.142 532.986 535.341 528.006 531.949 512.648C530.816 507.512 532.841 502.28 532.676 497.106C532.502 491.844 530.147 487.532 525.884 484.451C519.14 479.568 510.206 477.853 502.144 476.68C492.203 475.227 482.126 474.82 472.087 474.8C449.646 474.752 427.118 476.486 404.928 479.8C384.978 482.775 364.843 486.97 345.967 494.257C337.324 497.59 315.3 505.817 319.379 518.927C320.997 524.12 326.375 527.657 330.91 530.031C339.194 534.372 348.554 536.659 357.74 538.083C375.879 540.893 394.919 540.69 412.971 537.366C421.74 535.748 446.419 530.486 442.35 516.747C440.509 510.526 433.116 507.367 427.592 505.371C418.533 502.106 408.843 500.604 399.318 499.48C376.548 496.796 353.37 496.941 330.512 498.414C286.822 501.224 243.732 509.799 201.708 521.911C182.775 527.366 164.19 533.917 145.295 539.459C124.686 545.515 103.601 548.044 82.1386 546.804C72.0421 546.222 61.9164 544.943 52.1009 542.482C43.6418 540.36 33.584 537.405 27.6637 530.603C14.4761 515.458 47.8084 505.972 57.0716 503.724C67.7786 501.117 78.7182 499.683 89.7062 498.937C91.5569 498.811 91.5666 495.904 89.6965 496.03Z" fill="white"/>
<path d="M135.529 611.307H785.168C791.515 601.996 764.549 591.977 768.26 581.425H115.045C120.994 591.822 127.787 601.841 135.529 611.307Z" fill="url(#paint3_linear)"/>
<path d="M706.925 107.477C705.859 107.71 609.447 168.367 609.447 168.367V541.814L706.925 581.396L720.345 273.382L706.925 107.477Z" fill="url(#paint4_linear)"/>
<path d="M108.804 599.564C79.7356 597.975 50.0272 634.398 99.0566 634.33C148.086 634.262 165.489 610.116 200.797 617.141C236.106 624.166 258.121 652.043 289.961 643.584C321.801 635.125 374.842 649.058 399.909 632.218C427.873 613.429 374.736 596.017 332.15 592.665C280.146 588.566 266.202 611.695 212.929 603.284C159.665 594.893 135.402 601.017 108.804 599.564Z" fill="url(#paint5_linear)"/>
<path d="M473.87 93.718V581.405H499.044V107.477H717.147V581.405H742.321V93.718C742.321 87.3131 737.127 82.1195 730.722 82.1195H485.469C479.064 82.1195 473.87 87.3131 473.87 93.718Z" fill="url(#paint6_linear)"/>
<path d="M260.806 582.326C259.595 586.182 256.978 592.965 255.108 596.977C259.362 602.868 273.955 604.583 273.955 604.583C274.158 599.719 277.86 591.628 279.303 588.411C276.629 587.52 264.091 585.204 260.806 582.326Z" fill="#E07770"/>
<path d="M121.324 570.737C122.816 568.198 124.657 565.999 126.847 563.896C135.083 565.388 142.535 572.404 142.535 572.404C137.796 575.65 134.124 583.973 134.027 588.004C130.171 587.394 118.34 580.901 121.324 570.737Z" fill="#E07770"/>
<path d="M250.632 192.348C256.203 196.205 256.222 207.222 248.103 214.45C260.67 212.561 281.929 218.123 288.276 223.684C279.158 218.791 276.823 200.769 289.051 193.54C282.607 186.205 251.252 176.37 250.632 192.348Z" fill="#F68B85"/>
<path d="M262.869 192.552C274.119 191.999 279.942 202.745 280.717 210.565C280.204 204.538 282.355 198.026 288.159 194.112C288.12 193.356 288.043 192.92 288.043 192.92C288.043 192.92 267.297 187.571 262.869 192.552Z" fill="#E07770"/>
<path d="M293.391 364.407C297.17 385.84 318.613 474.597 322.063 492.426C323.575 500.216 320.048 506.001 315.522 515.051C310.997 524.101 283.595 582.326 279.002 591.405C274.652 591.25 263.16 586.793 258.809 584.303C267.976 565.359 289.254 518.268 285.678 479.287C277.142 460.809 262.85 433.629 257.569 422.137C244.837 448.222 237.754 470.45 233.442 479.228C229.13 488.007 224.498 493.918 216.039 502.697C207.58 511.475 163.715 555.621 139.821 578.431C130.664 576.813 125.81 568.731 125.451 564.778C150.063 539.449 191.195 485.75 194.606 479.994C198.017 474.248 199.276 471.913 201.253 464.549C203.23 457.185 222.774 397.303 225.845 366.984C242.928 359.484 284.932 359.814 293.391 364.407Z" fill="#295789"/>
<path d="M304.806 143.92C305.397 159.559 302.596 181.021 296.55 193.114C293.866 198.472 293.537 198.957 287.703 198.521C282.2 198.104 271.541 193.937 263.857 184.916C260.369 180.827 286.492 132.302 304.806 143.92Z" fill="#F9B0AC"/>
<path d="M304.806 143.92C303.963 143.387 303.11 142.99 302.248 142.699C301.492 143.203 300.697 143.833 299.864 144.637C300.029 157.65 300.62 186.903 291.502 198.579C293.905 198.298 294.632 196.961 296.56 193.114C302.606 181.021 305.407 159.559 304.806 143.92Z" fill="url(#paint7_linear)"/>
<path d="M309.66 246.155C332.896 239.827 358.011 240.07 369.058 240.283C390.539 246.736 420.916 260.137 427.874 264.042C431.391 276.667 427.098 316.278 419.744 332.964C404.609 336.181 372.943 337.072 365.405 337.179C334.349 332.547 290.785 325.164 290.785 325.164C285.504 286.628 284.681 251.697 309.66 246.155Z" fill="#E0A853"/>
<path d="M342.121 319.282C342.121 319.282 360.463 284.855 347.198 275.834C334.592 267.249 331.801 260.311 330.59 242.066C323.73 242.957 316.618 244.265 309.67 246.155C284.69 251.697 285.514 286.628 290.785 325.164C290.785 325.164 311.201 328.623 334.039 332.296C335.958 325.164 342.121 319.282 342.121 319.282Z" fill="url(#paint8_linear)"/>
<path d="M419.744 332.964C427.108 316.278 431.4 276.667 427.873 264.042C420.916 260.137 390.529 246.726 369.057 240.283C371.761 266.009 371.402 307.432 365.404 337.179C372.943 337.072 404.608 336.191 419.744 332.964Z" fill="#F4C87C"/>
<path d="M607.79 141.739C605.629 135.868 606.395 119.153 624.892 116.488C639.514 114.386 645.386 126.11 646.529 133.222C647.895 141.739 643.99 152.33 642.798 156.652C641.607 160.973 640.192 163.996 648.825 170.169C657.459 176.341 665.55 179.665 665.986 186.195C666.674 196.486 654.571 201.156 655.695 211.466C656.635 220.012 668.156 221.931 668.544 233.054C668.738 238.461 666.625 246.348 655.947 250.418C649.31 252.947 632.847 252.744 631.82 236.077C630.793 219.411 637.372 213.268 636.704 207.638C635.706 199.189 627.208 207.89 625.057 195.139C623.7 187.116 632.673 178.55 631.345 166.254C630.483 158.299 627.644 156.807 620.212 155.47C616.821 150.053 610.9 143.58 607.79 141.739Z" fill="#294972"/>
<path d="M422.157 308.691C420.209 297.713 416.324 300.475 410.665 301.986C405.006 303.507 402.874 294.603 398.146 299.167C393.417 303.73 381.528 312.654 366.664 306.066C348.332 316.54 348.399 334.466 362.953 334.262C396.373 333.807 386.044 321.637 396.683 321.385C407.322 321.133 411.692 321.52 415.829 316.366C419.967 311.23 416.837 308.943 422.157 308.691Z" fill="#E0A853"/>
<path d="M252.143 117.293C246.232 122.67 242.182 127.593 237.986 140.887C235.826 147.747 238.093 155.024 239.982 163.522C241.872 172.019 244.052 178.337 245.825 183.802C247.443 188.782 249.691 192.813 254.1 194.499C259.41 196.534 264.691 196.34 269.507 195.982C273.072 195.71 277.937 195.071 277.491 189.18C276.997 182.678 279.409 175.43 282.869 172.785C286.328 170.14 285.611 170.014 283.76 165.518C281.909 161.012 280.843 156.652 285.087 152.805C289.322 148.968 293.953 153.464 294.225 158.231C294.486 162.998 296.744 163.396 296.608 158.628C296.473 153.861 298.992 153.328 299.128 150.683C299.263 148.038 300.978 148.299 304.031 148.038C307.083 147.776 307.858 145.819 310.523 142.873C313.1 140.015 314.224 134.511 313.478 128.629C312.683 122.38 307.025 121.507 303.847 116.372C298.74 108.126 289.39 117.331 276.328 113.62C268.024 111.275 258.47 111.527 252.143 117.293Z" fill="#294972"/>
<path d="M393.292 324.989C398.979 324.04 400.462 324.447 404.435 325.125C408.417 325.803 415.432 322.606 418.795 320.242C421.701 318.197 422.331 310.31 422.331 306.463C422.331 301.628 420.161 299.826 416.508 300.436C412.855 301.037 407.884 304.796 406.77 303.217C405.656 301.647 406.421 301.279 407.225 298.13C408.039 294.981 408.572 291.686 407.448 291.056C405.258 289.836 404.774 293.634 403.621 296.87C402.506 300.019 400.985 303.818 398.95 306.482C396.925 309.147 394.687 312.655 391.441 312.529C388.214 312.412 394.115 319.776 393.292 324.989Z" fill="#F9B0AC"/>
<path d="M268.79 210.72C257.075 208.346 251.901 208.879 241.785 213.229C231.465 217.667 227.338 220.109 215.293 228.684C203.249 237.26 185.227 265.844 176.05 295.659C173.987 302.374 174.5 305.31 180.701 309.786C186.903 314.263 197.242 319.263 203.269 320.813C205.168 333.904 211.195 355.105 225.836 366.994C241.688 370.957 283.905 370.608 293.382 364.407C302.51 347.353 313.275 313.042 306.385 280.999C310.348 289.438 327.489 312.025 341.103 320.813C349.398 326.162 352.198 327.383 356.49 327.693C368.379 328.555 391.916 326.026 398.64 325.338C400.365 321.201 402.254 312.935 397.09 308.284C390.481 305.823 371.703 304.05 364.387 301.075C357.721 298.372 357.653 297.529 354.223 294.312C351.054 291.347 326.976 258.267 321.114 246.726C315.251 235.186 309.738 223.297 295.436 221.398C281.154 219.499 280.718 213.133 268.79 210.72Z" fill="#1F8B8F"/>
<path d="M215.293 228.684C204.383 236.455 188.56 260.65 178.86 287.297C181.719 284.06 185.381 281.851 191.195 274.972C200.313 264.168 204.518 248.199 218.559 236.078C220.002 230.254 222.609 225.4 224.692 222.183C222.047 223.927 219.053 226.01 215.293 228.684Z" fill="url(#paint9_linear)"/>
<path d="M319.66 243.829C314.282 233.267 308.556 223.132 295.455 221.398C293.188 221.097 291.279 220.681 289.603 220.196C287.093 222.619 284.448 225.506 281.687 228.946C298.731 231.174 306.502 258.044 334.853 285.591C329.728 277.752 321.898 254.265 319.66 243.829Z" fill="url(#paint10_linear)"/>
<path d="M296.744 221.834C287.839 224.033 279.128 232.318 272.694 244.207C266.26 256.096 258.014 285.32 246.406 292.723C234.798 300.135 215.506 285.029 217.463 262.656C219.421 240.283 217.88 240.147 218.025 235.109C239.275 218.471 283.459 217.357 296.744 221.834Z" fill="url(#paint11_linear)"/>
<path d="M216.369 234.605C216.369 243.839 218.336 253.984 218.336 259.178C218.336 264.371 217.493 273.363 229.285 274.487C241.078 275.611 247.822 271.115 253.442 261.426C259.062 251.736 272.966 235.729 279.419 231.087C285.882 226.456 216.369 225.613 216.369 234.605Z" fill="#389D9C"/>
<path d="M285.494 371.819C271.619 378.699 241.765 377.749 230.205 372.711C227.259 371.431 228.209 375.269 227.056 382.168C223.364 404.25 212.754 445.295 207.309 453.9C229.692 424.298 243.538 407.167 242.802 395.559C242.046 383.95 276.211 400.898 285.494 371.819Z" fill="url(#paint12_linear)"/>
<path d="M221.282 222.386C215.245 226.175 214.819 231.94 216.505 237.134C218.191 242.327 222.541 250.195 236.165 249.352C249.788 248.509 263.131 240.079 272.394 236.291C281.667 232.502 291.502 222.996 295.145 222.531C298.827 222.057 295.455 220.361 291.802 219.033C284.923 216.533 273.799 208.627 262.84 208.491C251.881 208.355 244.585 210.739 236.717 214.673C228.869 218.597 227.464 219.159 221.282 222.386Z" fill="#FF565A"/>
<path d="M256.251 594.322C253.354 601.385 246.794 614.631 244.013 619.418C241.242 624.214 240.806 624.195 243.131 625.852C247.55 629.001 253.596 629.766 260.156 629.892C266.716 630.018 290.678 629.01 297.364 628.381C304.05 627.751 307.073 625.987 310.736 624.854C314.398 623.72 317.169 620.939 316.162 617.286C315.154 613.623 312.121 615.426 308.216 615.145C305.183 614.922 289.215 610.358 280.087 605.688C276.463 603.827 276.425 601.647 276.173 599.254C272.529 600.378 262.307 596.841 256.251 594.322Z" fill="#19345C"/>
<path d="M122.253 568.983C118.436 573.78 105.723 582.917 102.409 584.574C100.442 585.552 99.8412 586.018 100.771 588.498C102.079 591.986 115.296 614.001 119.414 617.722C121.924 619.989 124.162 621.239 128.232 621.918C134.54 622.974 154.704 625.251 159.442 625.948C160.227 623.497 160.314 619.989 160.052 618.497C157.601 617.179 141.642 610.697 138.667 610.261C135.683 609.825 133.668 608.856 134.637 604.825C135.606 600.794 137.437 587.384 137.437 582.122C133.416 581.522 123.106 579.681 122.253 568.983Z" fill="#19345C"/>
<path d="M568.877 223.239C573.595 225.719 571.202 235.128 566.454 237.202C568.101 244.992 589.951 246.833 588.605 235.593C585.388 232.802 582.907 225.351 587.684 219.896C592.422 214.489 597.994 213.888 599.292 197.251C602.364 187.697 596.928 187.833 596.928 187.833C596.928 187.833 573.363 214.625 568.877 223.239Z" fill="#F68B85"/>
<path d="M227.28 403.01L222.096 396.877L223.21 395.937L227.871 401.46C229.169 401.276 233.297 400.694 235.283 400.413C235.855 398.136 236.485 395.074 237.153 391.857C238.268 386.46 239.421 380.889 240.496 378.011L241.862 378.515C240.826 381.286 239.682 386.809 238.587 392.148C237.87 395.617 237.192 398.892 236.582 401.247L236.456 401.721L235.971 401.789C233.965 402.06 227.687 402.952 227.687 402.952L227.28 403.01Z" fill="#326DA9"/>
<path d="M549.042 340.444C550.273 342.082 552.54 344.349 553.945 345.318C556.532 341.326 559.333 335.396 557.831 333.565C556.319 331.733 545.99 331.966 549.042 340.444Z" fill="#C54247"/>
<path d="M575.418 572.161C575.001 577.471 576.145 582.268 576.774 586.115C572.918 590.068 566.881 592.345 565.941 586.115C568.025 581.841 567.811 576.008 567.298 571.532C570.631 568.198 573.654 570.592 575.418 572.161Z" fill="#F68B85"/>
<path d="M265.069 405.878L264.768 405.694C264.4 405.471 264.061 405.258 263.732 405.064C260.96 403.378 259.129 402.274 255.689 397.216L255.563 397.022V396.789C255.68 390.879 255.418 377.914 255.418 377.788L256.871 377.759C256.871 377.885 257.123 390.549 257.026 396.586C260.205 401.217 261.832 402.206 264.497 403.824C264.739 403.969 264.991 404.124 265.243 404.279C265.67 404.124 266.144 403.96 266.648 403.795C269.235 402.903 273.082 401.576 274.439 400.462C274.991 393.931 276.241 384.357 278.092 376.741L279.506 377.081C277.646 384.735 276.406 394.386 275.873 400.869L275.853 401.13L275.669 401.314C274.293 402.69 270.33 404.056 267.142 405.161C266.513 405.374 265.931 405.578 265.427 405.762L265.069 405.878Z" fill="#326DA9"/>
<path d="M480.517 209.073C478.598 207.522 475.798 205.526 474.064 208.133C472.659 210.235 472.649 215.836 475.168 222.289C476.447 225.574 481.631 233.888 483.821 236.446C486.011 239.004 487.803 239.702 488.385 243.684C490.371 257.298 501.03 285.01 509.227 301.405C511.204 305.368 513.781 304.874 516.93 303.207C526.281 298.285 541.455 283.266 548.906 273.034C555.476 268.828 557.472 264.119 557.472 264.119L541.445 254.662C538.742 261.067 530.38 271.396 520.864 279.109C518.636 280.921 516.562 279.749 515.293 276.483C511.65 267.113 500.565 256.765 497.91 239.265C497.445 236.204 499.857 234.343 500.322 230.535C500.787 226.727 500.235 222.813 501.272 219.286C502.309 215.759 499.673 213.385 498.026 216.379C496.883 218.472 496.195 222.086 495.788 224.344C495.381 226.601 494.528 226.301 492.958 223.762C490.139 219.189 483.879 211.795 480.517 209.073Z" fill="#F9B0AC"/>
<path d="M614.582 548.936C615.541 553.17 619.049 558.48 622.673 562.249C624.582 564.235 622.77 576.376 620.793 579.593C619.417 581.822 612.964 573.654 612.654 570.737C612.344 567.821 608.749 556.842 606.879 554.032C609.369 547.366 612.916 547.579 614.582 548.936Z" fill="#F68B85"/>
<path d="M555.659 331.743C549.332 346.82 539.71 369.959 538.819 387.594C537.53 412.932 545.97 438.6 553.276 470.266C561.434 505.633 565.756 543.257 566.144 573.382L575.756 573.043C579.467 558.034 584.186 532.919 581.492 509.14C585.542 524.314 598.013 543.364 607.121 555.679C610.842 554.071 612.983 551.639 615.57 549.352C603.371 518.704 603.216 493.85 590.561 472.194C601.084 447.795 613.38 421.963 615.57 389.551C617.091 366.984 608.817 343.787 605.076 336.103C598.507 337.324 563.615 326.414 555.659 331.743Z" fill="#295789"/>
<path d="M621.123 238.79C619.205 241.465 619.311 243.432 620.901 246.823C622.48 250.214 624.951 253.354 626.307 255.282C627.664 257.21 629.553 257.065 631.288 255.282C635.135 251.319 646.103 236.165 647.692 234.13C649.272 232.095 649.727 229.488 649.272 227.231C648.816 224.973 647.489 220.361 646.355 217.977C645.221 215.603 642.169 213.568 640.59 215.148C638.991 216.737 624.854 233.587 621.123 238.79Z" fill="#FF565A"/>
<path d="M605.629 337.315C604.893 336.898 604.157 336.52 603.411 336.2C601.318 336.152 598.149 335.648 594.419 334.96C591.676 335.425 597.684 334.902 594.874 337.179C609.612 347.896 605.329 377.943 602.035 395.694C597.413 420.655 586.308 439.801 594.632 462.805C604.04 441.119 613.652 417.845 615.561 389.551C617.015 368.05 609.573 345.996 605.629 337.315Z" fill="url(#paint13_linear)"/>
<path d="M590.552 472.194C589.225 476.622 586.667 486.399 591.783 497.978C595.242 505.817 602.499 516.01 608.342 527.609C602.529 506.592 600.077 488.492 590.552 472.194Z" fill="url(#paint14_linear)"/>
<path d="M590.553 472.194C590.727 471.796 590.902 471.389 591.076 470.992C590.892 471.254 590.727 471.641 590.553 472.194Z" fill="url(#paint15_linear)"/>
<path d="M631.016 603.779C603.294 600.513 598.313 576.997 572.859 589.69C547.404 602.383 525.922 603.372 504.789 597.228C483.656 591.085 451.38 618.071 480.633 624.95C509.886 631.83 517.066 603.614 556.968 622.247C596.87 640.88 624.214 631.336 624.214 631.336C624.214 631.336 685.471 610.193 631.016 603.779Z" fill="url(#paint16_linear)"/>
<path d="M557.724 249.788C549.827 256.571 545.03 262.249 545.379 270.476C545.602 275.814 548.16 280.155 551.048 290.494C553.935 300.833 556.619 306.463 556.164 314.747C555.834 320.861 552.937 328.758 550.272 332.208C547.598 335.657 547.492 338.099 549.052 340.434C547.559 335.221 554.168 333.652 560.844 335.202C567.52 336.762 583.769 343.206 598.885 343.768C610.261 344.184 608.74 339.34 607.984 336.917C606.947 333.594 601.666 323.856 599.447 320.183C597.228 316.511 596.337 309.282 599.341 302.383C602.344 295.484 605.348 287.81 606.017 283.033C605.687 274.69 594.224 250.001 594.224 250.001C594.224 250.001 565.175 248.674 557.724 249.788Z" fill="#FF565A"/>
<path d="M545.999 274.623C542.491 269.652 538.441 266.057 535.68 263.926C534.469 265.495 533.141 267.104 531.697 268.722C535.263 271.832 536.862 281.435 534.498 289.283C539.052 284.845 543.412 280.068 546.794 275.815C546.551 275.417 546.29 275.03 545.999 274.623Z" fill="#F68B85"/>
<path d="M599.438 320.203C597.209 316.53 596.328 309.302 599.331 302.403C602.335 295.504 605.339 287.83 606.008 283.053C605.833 278.634 602.539 269.633 599.467 262.133C596.89 259.691 594.554 258.141 592.587 259.827C592.655 267.278 588.072 279.051 593.101 287.771C598.13 296.492 594.467 300.378 592.607 310.542C591.008 319.243 603.75 334.882 603.246 343.632C609.816 342.779 608.624 338.991 607.984 336.937C606.938 333.613 601.657 323.875 599.438 320.203Z" fill="url(#paint17_linear)"/>
<path d="M596.278 275.553C598.274 285.427 604.379 301.86 611.675 311.85C613.603 314.486 617.121 313.265 618.652 310.775C623.768 302.451 632.411 272.559 634.484 260.301C635.211 256.028 635.667 255.747 638.496 251.581C642.924 245.079 641.849 240.447 638.544 229.178C637.362 225.157 634.252 223.006 630.143 224.169C627.479 224.925 625.938 227.095 625.938 233.645C625.938 238.384 626.927 242.143 624.863 247.686C622.808 253.228 623.923 251.629 623.07 259.759C622.624 264.051 618.952 274.361 615.997 279.371C614.979 275.795 613.681 270.049 613.681 266.919C608.051 267.365 597.654 270.776 596.278 275.553Z" fill="#F9B0AC"/>
<path d="M571.387 227.541C574.274 230.942 580.698 225.652 586.435 219.615C591.832 213.947 577.685 217.27 571.609 218.888C570.427 220.584 569.478 222.076 568.877 223.229C570.466 224.072 571.232 225.69 571.387 227.541Z" fill="#E07770"/>
<path d="M613.681 266.919C608.051 267.365 597.645 270.776 596.278 275.553C596.656 277.442 597.199 279.564 597.858 281.841C602.451 274.361 609.388 283.566 610.115 293.963C611.278 290.019 613.904 283.062 616.006 279.371C614.979 275.805 613.681 270.049 613.681 266.919Z" fill="#F68B85"/>
<path d="M566.454 237.201C560.921 237.744 554.041 238.112 547.268 244.11C541.242 249.459 535.515 257.782 532.443 264.933C536.029 265.689 542.278 274.855 543.683 280.398C546.503 279.313 554.158 270.301 554.158 270.301L585.998 266.9C585.998 266.9 593.488 251.591 592.509 257.676C591.531 263.751 593.594 272.762 595.222 278.411C598.585 278.741 613.061 274.671 615.551 270.107C613.923 261.203 610.6 250.031 605.61 245.36C600.619 240.69 592.819 236.562 588.585 235.593C584.157 238.636 572.103 242.628 566.454 237.201Z" fill="#FF565A"/>
<path d="M619.524 558.373C622.751 562.53 626.278 565.844 628.729 568.567C630.26 570.262 630.154 572.22 628.623 574.933C623.448 584.099 612.141 598.517 601.201 608.546C599.166 610.416 594.748 606.424 595.852 602.771C597.412 597.626 612.77 579.448 611.152 566.881C616.385 566.803 619.669 561.58 619.524 558.373Z" fill="#FF565A"/>
<path d="M576.589 584.651C577.713 587.636 579.128 591.521 580.32 594.205C581.512 596.889 582.19 599.205 580.019 600.474C577.859 601.744 565.911 604.883 560.379 606.22C554.856 607.567 548.538 609.079 544.178 607.112C541.193 605.765 539.527 603.43 542.24 602.558C547.54 600.843 561.803 595.542 565.756 585.233C568.004 587.045 571.212 586.744 576.589 584.651Z" fill="#FF565A"/>
<path d="M556.212 168.948C553.199 180.324 555.418 204.199 561.29 216.592C563.043 220.283 566.144 225.196 573.382 222.89C581.996 220.148 597.693 217.677 599.437 207.183C602.78 196.476 598.391 193.734 602.073 189.839C605.755 185.944 611.772 178.017 607.422 172.892C603.071 167.766 581.667 154.162 581.667 154.162C581.667 154.162 560.447 154.782 556.212 168.948Z" fill="#F9B0AC"/>
<path d="M560.262 146.672C553.422 151.332 552.007 158.716 552.007 164.51C552.007 170.305 553.053 174.384 559.729 174.859C570.175 175.605 572.384 167.155 579.738 167.359C585.397 167.514 588.944 172.553 590.145 175.992C592.325 182.262 594.447 182.262 595.087 178.269C595.678 174.616 599.06 172.649 602.073 174.093C605.086 175.547 605.261 181.428 603.885 185.876C602.771 189.5 600.339 191.699 599.253 192.61C598.168 193.511 597.199 194.093 598.187 197.271C599.185 200.439 596.773 208.191 595.658 211.514C594.476 215.071 598.72 214.324 601.889 211.514C605.057 208.704 614.64 196.612 613.584 180.886C612.858 170.111 613.4 164.132 612.954 159.51C612.499 154.888 606.521 145.286 603.536 147.369C600.552 149.453 598.856 148.503 595.019 146.284C586.831 141.536 572.655 138.232 560.262 146.672Z" fill="#294972"/>
<path d="M597.268 147.544C601.143 149.675 614.564 158.9 613.236 170.683C613.149 163.192 614.767 157.146 620.183 155.518C621.627 147.757 616.124 139.627 607.723 141.798C605.194 144.957 601.599 149.259 597.268 147.544Z" fill="#FF565A"/>
<path d="M663.06 206.854C659.232 207.891 659.978 217.076 666.335 216.01C672.701 214.954 668.748 205.313 663.06 206.854Z" fill="#294972"/>
<path d="M200.866 277.132C198.579 301.143 192.193 313.401 183.114 311.424C189.335 315.426 197.978 319.457 203.278 320.813C200.623 304.961 200.759 291.667 200.866 277.132Z" fill="url(#paint18_linear)"/>
<path d="M294.758 312.151C290.495 330.125 299.671 340.822 299.225 351.442C306.289 332.925 311.831 306.269 306.395 280.999C303.294 275.311 295.853 263.829 293.401 256.755C297.171 279.836 299.36 292.742 294.758 312.151Z" fill="url(#paint19_linear)"/>
<path d="M293.886 222.919C285.029 225.08 267.578 232.289 258.926 236.581C248.606 241.697 240.544 250.089 225.642 244.372C220.991 242.589 211.34 229.77 231.669 217.173C227.803 219.072 225.836 220.002 221.282 222.386C215.245 226.175 214.819 231.94 216.505 237.134C218.191 242.327 222.541 250.195 236.165 249.352C249.788 248.509 263.131 240.079 272.394 236.291C280.756 232.87 289.564 224.789 293.886 222.919Z" fill="#DE4D51"/>
<path d="M563.509 204.974C566.697 206.66 574.952 206.263 578.411 204.615C576.532 212.299 564.41 215.623 563.509 204.974Z" fill="white"/>
<path d="M204.731 316.346C207.735 337.867 216.63 354.765 225.816 362.498C235.651 365.957 260.999 366.974 279.215 362.788C253.722 361.509 221.485 369.881 204.731 316.346Z" fill="url(#paint20_linear)"/>
<path d="M555.272 320.464C560.553 310.154 551.949 286.793 549.09 275.504C547.366 268.683 547.869 261.096 551.697 255.505C547.491 260.088 545.127 264.642 545.37 270.485C545.592 275.824 548.15 280.165 551.038 290.504C553.925 300.852 556.609 306.472 556.154 314.757C556.067 316.55 555.737 318.507 555.272 320.464Z" fill="url(#paint21_linear)"/>
<path d="M566.454 237.202C560.921 237.744 553.45 237.957 546.687 243.955C540.66 249.304 535.515 257.782 532.453 264.943C533.345 265.137 534.401 265.844 535.505 266.89C539.565 257.269 543.102 252.23 547.675 247.23C552.288 242.182 559.797 239.44 567.588 238.112C567.181 237.841 566.803 237.541 566.454 237.202Z" fill="url(#paint22_linear)"/>
<path d="M638.497 251.852C641.898 246.852 642.043 242.947 640.435 236.3C640.415 239.769 639.388 242.715 637.944 244.992C635.057 249.546 633.352 252.889 631.685 265.505C630.018 278.111 621.569 297.364 619.99 302.093C618.875 305.436 615.213 313.866 612.315 312.81C614.302 314.496 617.276 313.284 618.652 311.056C623.769 302.732 632.412 272.84 634.485 260.583C635.212 256.3 635.667 256.009 638.497 251.852Z" fill="url(#paint23_linear)"/>
<path d="M497.91 239.256C497.445 236.194 499.858 234.333 500.323 230.525C500.788 226.717 500.236 222.803 501.273 219.276C502.261 215.923 499.926 213.617 498.278 215.981C500.749 216.834 499.412 220.816 498.744 224.915C498.017 229.421 495.188 232.396 495.624 238.568C495.963 243.364 498.85 249.304 503.966 256.93C501.302 251.891 498.957 246.135 497.91 239.256Z" fill="url(#paint24_linear)"/>
<path d="M489.374 227.134C493.133 232.328 494.78 229.518 494.858 225.845C494.393 225.758 493.782 225.051 492.978 223.762C490.149 219.198 483.88 211.805 480.527 209.082C478.608 207.532 475.808 205.536 474.074 208.142C473.521 208.966 473.192 210.332 473.134 212.076C476.244 210.691 484.8 220.807 489.374 227.134Z" fill="url(#paint25_linear)"/>
<path d="M558.257 296.579C564.09 308.846 556.803 328.826 553.373 332.644C564.855 328.536 573.973 339.291 593.604 339.902C584.855 337.605 572.839 329.766 573.489 310.164C574.012 294.419 568.595 280.921 558.257 296.579Z" fill="url(#paint26_linear)"/>
<path d="M602.384 277.161C607.684 275.65 614.002 272.985 615.571 270.107C613.944 261.203 610.62 250.031 605.63 245.36C600.64 240.69 592.84 236.562 588.605 235.593C587.355 236.446 585.495 237.376 583.354 238.151C594.739 241.281 602.413 245.35 603.702 253.092C604.835 259.943 608.101 272.065 602.384 277.161Z" fill="url(#paint27_linear)"/>
<path d="M665.986 186.205C665.598 180.42 659.213 177.155 651.762 172.194C653.205 173.57 654.62 175.304 655.967 177.698C662.798 189.81 645.299 207.232 658.913 217.91C657.265 216.088 655.986 214.092 655.705 211.476C654.572 201.166 666.674 196.505 665.986 186.205Z" fill="url(#paint28_linear)"/>
<path d="M642.799 156.662C643.991 152.34 647.905 141.749 646.529 133.232C645.386 126.12 639.514 114.395 624.892 116.498C620.987 117.06 617.877 118.262 615.406 119.841C622.77 116.605 630.726 121.333 633.41 128.271C636.607 136.527 635.134 142.108 637.179 153.386C638.787 162.262 642.082 165.46 645.987 167.96C640.551 163.212 641.752 160.431 642.799 156.662Z" fill="url(#paint29_linear)"/>
<path d="M636.637 172.194C633.323 181.321 629.001 188.841 630.145 193.424C631.288 198.007 641.772 198.007 641.433 202.212C645.677 188.715 629.883 188.782 636.637 172.194Z" fill="url(#paint30_linear)"/>
<path d="M597.189 147.505C596.54 147.166 595.833 146.759 595.029 146.294C586.831 141.536 572.655 138.232 560.262 146.672C553.422 151.332 552.007 158.716 552.007 164.51C552.007 170.305 556.687 174.103 562.491 170.75C563.237 170.324 563.944 169.859 564.632 169.384C558.295 170.479 557.452 165.779 560.495 156.041C564.119 144.443 582.713 140.587 597.189 147.505Z" fill="url(#paint31_linear)"/>
<path d="M575.339 379.639C570.02 388.359 567.268 428.387 567.054 443.057C566.841 457.727 571.822 486.011 576.783 500.681C578.73 506.447 580.378 511.02 582.025 515.303C581.899 513.249 581.725 511.194 581.492 509.15C576.279 488.482 570.562 469.946 570.562 448.096C570.552 429.249 571.938 401.964 575.339 379.639Z" fill="url(#paint32_linear)"/>
<path d="M222.26 227.89C228.112 220.419 239.488 213.21 250.185 211.766C260.883 210.323 289.225 218.724 279.806 218.898C270.388 219.072 256.89 212.105 249.081 222.89C241.271 233.665 234.304 219.324 222.26 227.89Z" fill="url(#paint33_linear)"/>
<path d="M717.157 107.477H706.915V581.144H717.157V107.477Z" fill="url(#paint34_linear)"/>
<path d="M769.481 562.22C765.353 552.085 756.555 544.42 747.592 538.761C738.629 533.103 719.695 523.539 709.085 511.553C703.543 505.293 700.122 496.631 704.289 487.445C709.066 476.893 732.088 474.771 753.735 501.001C777.726 530.07 779.655 557.404 778.221 565.883C775.643 563.334 772.436 559.991 769.481 562.22Z" fill="#FF565A"/>
<path d="M760.421 532.754C761.138 544.672 768.231 554.885 778.541 559.516C778.221 547.443 773.366 524.808 753.726 501.001C746.371 492.087 738.852 486.447 731.943 483.308C742.34 499.887 759.753 521.562 760.421 532.754Z" fill="url(#paint35_linear)"/>
<path d="M765.576 537.569C746.08 508.452 722.98 497.29 716.362 494.567L716.915 493.22C723.63 495.982 747.059 507.289 766.787 536.756L765.576 537.569Z" fill="white"/>
<path d="M772.92 561.58C773.482 550.505 773.298 539.982 766.661 534.159C759.626 527.986 749.966 524.237 747.776 514.528C746.293 507.987 750.77 499.906 751.477 495.885C752.214 491.689 752.834 486.999 749.995 485.885C747.156 484.771 746.167 481.932 745.673 477.862C745.179 473.792 745.47 467.068 748.163 458.996C749.055 456.332 750.625 452.495 749.152 449.83C747.669 447.165 746.099 446.574 746.099 441.449C746.099 436.323 744.743 430.16 747.001 422.922C747.989 419.773 750.557 417.137 749.055 413.068C747.679 409.337 744.346 401.624 745.605 391.286C746.099 387.245 749.568 382.778 755.576 384.551C761.583 386.324 769.451 392.865 772.707 396.508C775.963 400.151 779.306 404.328 781.864 406.692C784.422 409.056 785.807 411.479 789.16 416.023C791.922 419.763 792.881 425.974 792.803 431.4C792.706 438.203 791.718 444.414 794.673 446.778C797.629 449.142 805.613 452.785 803.743 470.924C803.472 485.817 798.617 545.108 793.598 561.086C788.036 560.369 776.118 560.282 772.92 561.58Z" fill="url(#paint36_linear)"/>
<path d="M794.683 446.778C793.53 445.857 792.978 444.336 792.735 442.437C782.135 462.446 784.189 471.089 787.484 484.587C790.555 497.173 785.216 543.965 776.563 560.863C781.515 560.35 789.383 560.534 793.598 561.076C794.179 559.226 794.761 556.784 795.332 553.896L799.47 524.847C801.863 503.365 803.578 479.597 803.743 470.915C805.623 452.785 797.638 449.142 794.683 446.778Z" fill="url(#paint37_linear)"/>
<path d="M789.092 560.524C781.96 512.58 799.489 470.692 823.257 427.108C827.783 418.814 834.468 407.099 838.8 408.601C843.131 410.103 839.943 424.153 838.509 431.139C824.188 500.856 814.062 540.108 800.797 569.235C798.946 566.057 791.127 560.437 789.092 560.524Z" fill="url(#paint38_linear)"/>
<path d="M809.101 497.028C799.46 512.861 797.435 547.22 803.549 562.181C803.879 561.638 804.208 561.096 804.537 560.543C815.341 534.013 824.391 498.782 836.164 442.437C828.5 468.793 818.752 481.205 809.101 497.028Z" fill="url(#paint39_linear)"/>
<path d="M812.531 560.553C814.643 548.858 819.43 540.612 829.013 536.785C838.596 532.948 853.663 533.732 860.068 525.089C867.074 515.642 853.828 510.332 856.909 505.255C860.369 499.557 874.428 500.265 882.587 485.604C888.614 474.771 882.616 463.086 871.977 459.588C857.355 454.791 845.398 460.779 840.272 467.737C837.143 471.981 838.819 475.44 836.474 478.453C833.015 482.92 823.519 483.812 817.831 483.589C812.134 483.366 807.899 484.819 806.33 488.279C804.77 491.738 807.56 494.083 812.25 496.321C816.94 498.549 820.806 501.64 819.614 506.485C818.277 511.96 812.919 513.597 807.56 518.762C801.64 524.459 796.95 529.924 796.059 540.535C795.167 551.145 800.526 558.063 803.539 562.191C807.686 559.953 810.235 559.468 812.531 560.553Z" fill="url(#paint40_linear)"/>
<path d="M817.58 557.172H755.295L764.355 615.057H808.51L817.58 557.172Z" fill="#C3E3F0"/>
<path d="M796.951 562.191L756.826 561.086L756.952 567.714C777.504 570.921 802.493 576.328 812.774 587.897L817.212 559.575C811.883 558.819 804.354 562.947 796.951 562.191Z" fill="url(#paint41_linear)"/>
<path d="M819.615 557.172H752.97V567.103H819.615V557.172Z" fill="#1F8B8F"/>
<path d="M807.376 547.104L805.942 546.881C807.095 539.595 813.122 530.661 824.353 519.566C829.12 514.857 832.879 509.063 836.862 502.929C844.323 491.428 852.772 478.385 870.611 468.269L871.328 469.529C853.809 479.471 845.457 492.348 838.083 503.714C834.062 509.915 830.263 515.778 825.38 520.603C814.363 531.465 808.481 540.137 807.376 547.104Z" fill="white"/>
<path d="M781.767 537.182L780.313 537.143C780.381 534.352 780.061 530.583 779.615 525.37C778.86 516.485 777.726 503.065 777.745 483.841C777.774 452.689 768.802 419.192 753.754 394.241L755.004 393.495C770.178 418.668 779.228 452.446 779.199 483.85C779.179 503.016 780.313 516.398 781.069 525.254C781.515 530.515 781.834 534.314 781.767 537.182Z" fill="white"/>
<path d="M871.996 459.588C857.374 454.791 845.417 460.779 840.292 467.737C837.162 471.981 838.838 475.44 836.493 478.453C833.034 482.92 823.538 483.812 817.85 483.589C812.153 483.366 807.919 484.819 806.349 488.279C804.789 491.738 807.579 494.083 812.269 496.321C815.583 497.9 818.48 499.906 819.478 502.658C818.529 484.848 831.338 488.715 835.65 483.279C844.158 472.543 852.859 468.269 861.318 467.204C869.002 466.235 881.143 468.773 884.903 478.57C885.823 470.11 880.329 462.33 871.996 459.588Z" fill="url(#paint42_linear)"/>
<path d="M813.403 514.043C811.601 515.38 809.595 516.824 807.58 518.762C801.66 524.459 796.97 529.924 796.078 540.534C795.555 546.755 797.183 551.697 799.227 555.563C798.055 540.35 806.63 525.777 813.403 514.043Z" fill="url(#paint43_linear)"/>
<path d="M761.08 571.318L767.407 610.668H804.693C804.693 610.668 773.405 606.54 761.08 571.318Z" fill="url(#paint44_linear)"/>
<path d="M260.786 117.021C252.675 119.337 239.246 130.771 240.825 143.435C242.404 156.09 245.844 170.266 248.102 180.924C249.468 187.378 257.036 184.577 257.026 174.597C257.016 164.617 258.712 144.046 270.892 135.044C283.062 126.033 279.535 111.673 260.786 117.021Z" fill="url(#paint45_linear)"/>
<path d="M313.459 128.639C312.664 122.389 307.005 121.517 303.827 116.382C302.713 114.58 301.386 113.611 299.864 113.155C302.015 114.599 303.469 118.795 305.591 121.818C310.319 128.552 306.773 133.009 303.682 136.468C300.785 139.714 303.498 143.9 302.073 148.193C302.645 148.144 303.294 148.106 304.011 148.048C307.054 147.786 307.839 145.829 310.503 142.883C313.081 140.015 314.205 134.511 313.459 128.639Z" fill="url(#paint46_linear)"/>
<path d="M160.149 621.859C155.615 621.055 147.689 619.747 140.819 619.137C130.48 618.226 124.695 616.075 120.848 609.37C117.079 602.81 110.238 591.037 106.546 582.006C104.754 583.227 103.271 584.157 102.419 584.584C100.452 585.562 99.851 586.027 100.781 588.508C102.089 591.996 115.306 614.011 119.424 617.732C121.934 619.999 124.172 621.249 128.242 621.927C134.549 622.983 154.714 625.26 159.452 625.958C159.849 624.728 160.062 623.235 160.149 621.859Z" fill="url(#paint47_linear)"/>
<path d="M316.172 617.276C315.939 616.423 315.58 615.871 315.144 615.513C314.205 617.732 308.681 621.908 300.901 622.819C291.967 623.865 267.888 624.66 259.042 623.429C251.59 622.392 246.261 620.861 245.089 617.518C244.701 618.235 244.342 618.885 244.032 619.418C241.261 624.214 240.825 624.195 243.151 625.851C247.569 629.001 253.615 629.766 260.175 629.892C266.735 630.018 290.698 629.01 297.383 628.38C304.069 627.751 307.092 625.987 310.755 624.853C314.398 623.71 317.179 620.939 316.172 617.276Z" fill="url(#paint48_linear)"/>
<path d="M257.569 422.137C254.526 415.771 252.637 408.504 250.156 395.559C251.668 421.653 239.876 428.862 241.174 445.799C241.697 452.64 240.757 458.89 239.585 464.268C243.839 453.318 249.594 438.484 257.569 422.137Z" fill="url(#paint49_linear)"/>
<path d="M287.714 421.226C298.702 437.505 312.054 457.766 318.633 476.622C311.434 444.714 296.483 381.964 293.392 364.406C286.299 385.326 271.445 397.128 287.714 421.226Z" fill="url(#paint50_linear)"/>
<path d="M279.003 591.405C283.596 582.326 310.998 524.101 315.523 515.051C316.211 513.675 316.87 512.377 317.499 511.127C308.488 521.049 296.667 530.244 286.57 551.823C279.187 567.607 273.751 579.962 270.127 589.157C273.664 590.397 277.055 591.328 279.003 591.405Z" fill="url(#paint51_linear)"/>
<path d="M199.712 469.704C198.414 473.473 197.076 475.856 194.606 480.004C191.679 484.926 161.05 525.08 136.865 552.404C148.299 543.664 161.07 535.816 170.527 527.88C187.222 513.888 193.947 494.509 199.712 469.704Z" fill="url(#paint52_linear)"/>
<path d="M358.457 323.759C347.45 325.28 340.289 320.406 331.336 312.868C334.65 316.017 337.973 318.788 341.122 320.813C349.417 326.162 352.217 327.383 356.51 327.693C368.399 328.555 391.935 326.026 398.659 325.338C394.454 314.573 372.672 321.792 358.457 323.759Z" fill="url(#paint53_linear)"/>
<path d="M417.206 300.349C416.934 308.284 410.83 319.369 402.855 324.844C403.35 324.931 403.863 325.018 404.445 325.115C407.923 325.706 413.717 323.342 417.37 321.162C418.407 320.29 419.367 319.369 420.258 318.439C421.934 315.261 422.341 309.554 422.341 306.463C422.332 301.947 420.442 300.077 417.206 300.349Z" fill="url(#paint54_linear)"/>
<path d="M68.6413 632.721C75.5403 641.781 88.7085 643.932 99.4155 644.378C113.058 644.95 126.585 641.81 139.453 637.537C141.216 636.956 140.461 634.146 138.678 634.737C127.67 638.39 116.285 641.2 104.638 641.5C93.8827 641.781 78.2534 640.57 71.1606 631.249C70.0366 629.785 67.5076 631.229 68.6413 632.721Z" fill="#B9DFED"/>
<path d="M413.533 629.243C404.609 640.774 390.617 644.882 377.119 648.574C375.317 649.068 376.083 651.868 377.895 651.374C391.828 647.566 406.372 643.206 415.587 631.297C416.721 629.834 414.676 627.76 413.533 629.243Z" fill="#B9DFED"/>
<path d="M559.294 632.082C578.179 640.338 598.614 643.71 619.147 641.772C620.997 641.597 621.007 638.69 619.147 638.865C599.167 640.744 579.158 637.615 560.757 629.572C559.071 628.826 557.589 631.326 559.294 632.082Z" fill="#B9DFED"/>
<path d="M839.71 164.781C833.247 172.31 828.829 182.184 830.728 192.29C832.356 200.972 840.883 206.088 849.439 203.898C857.53 201.825 861.715 193.802 860.514 185.721C860.049 182.61 857.82 180.139 854.429 180.265C851.871 180.362 849.865 182.058 850.495 184.606C850.941 186.418 853.741 185.653 853.295 183.831C854.71 184.316 856.134 184.8 857.549 185.285C857.588 185.963 857.626 186.631 857.656 187.31C857.665 188.695 857.549 190.091 857.336 191.467C856.89 194.344 855.766 196.786 853.489 198.666C848.867 202.503 840.951 202.513 836.668 198.036C828.393 189.383 835.389 174.258 841.765 166.826C842.976 165.431 840.931 163.367 839.71 164.781Z" fill="#B9DFED"/>
<path d="M105.055 397.816C107.4 408.795 114.008 419.114 124.948 423.048C134.88 426.614 146.381 423.901 152.263 414.773C156.352 408.436 157.612 395.074 148.087 392.574C144.647 391.673 141.168 393.543 139.589 396.644C137.506 400.714 139.163 405.016 141.856 408.31C143.038 409.764 145.083 407.69 143.91 406.256C142.302 404.289 140.955 401.498 141.798 398.873C142.942 395.278 147.06 394.415 149.685 396.799C152.554 399.396 153.019 403.911 152.224 407.477C150.713 414.279 145.141 419.618 138.426 421.217C122.7 424.957 110.801 410.926 107.846 397.051C107.478 395.22 104.668 395.995 105.055 397.816Z" fill="white"/>
<path d="M708.484 643.128C708.009 637.857 715.412 635.909 719.307 635.531C723.106 635.163 726.972 635.89 730.315 637.75C733.193 639.349 735.644 641.907 737.165 644.824C737.882 646.209 738.415 647.711 738.599 649.262C739.161 654.155 734.452 655.288 730.441 653.544C728.745 652.808 727.262 655.308 728.978 656.054C733.483 658.011 739.442 659.087 741.303 653.157C743.018 647.702 739.249 641.335 735.344 637.808C730.479 633.419 723.765 631.743 717.35 632.867C712.166 633.768 705.005 636.82 705.577 643.109C705.752 644.979 708.658 644.998 708.484 643.128Z" fill="#B9DFED"/>
<path d="M38.5068 363.292C90.8113 363.292 154.937 358.118 187.155 363.292C157.776 344.553 169.336 328.109 144.53 330.832C129.047 332.528 110.413 343.603 102.468 344.601C92.1485 345.899 89.2125 335.948 77.1102 338.729C65.0176 341.52 53.0316 363.583 38.5068 363.292Z" fill="white"/>
<path d="M772.775 297.655C807.619 297.655 862.685 304.447 876.037 304.447C861.707 298.256 859.73 283.324 842.473 280.388C825.216 277.452 839.866 295.698 820.652 291.463C801.437 287.229 783.521 273.227 760.402 285.272C737.282 297.326 713.833 299.603 697.216 300.581C735.325 300.581 765.935 296.996 772.775 297.655Z" fill="#B9DFED"/>
<path d="M61.3838 119.124C79.9297 119.124 125.006 116.983 160.014 116.983C179.461 116.983 195.653 120.044 203.288 120.044C211.931 115.384 224.702 90.9756 203.995 91.3148C183.289 91.6539 149.307 107.235 130.635 109.958C111.964 112.671 115.016 107.244 100.084 107.584C85.1524 107.923 70.5502 118.107 61.3838 119.124Z" fill="url(#paint55_linear)"/>
<path d="M0 117.942C5.46494 118.465 52.1785 118.911 55.0563 119.192C45.4927 91.8573 18.9819 119.763 0 117.942Z" fill="url(#paint56_linear)"/>
<path d="M628.73 568.567C627.054 566.706 624.873 564.565 622.635 562.065C624.389 570.863 619.486 581.27 611.221 589.981C613.333 590.678 615.397 590.998 617.393 591.017C622.092 585.145 626.094 579.409 628.633 574.923C630.154 572.21 630.261 570.262 628.73 568.567Z" fill="url(#paint57_linear)"/>
<path d="M580.32 594.215C579.778 592.984 579.177 591.502 578.595 589.971C577.772 594.137 573.043 597.432 562.046 599.816C549.197 602.596 545.796 603.633 541.562 603.701C541.407 604.108 541.29 604.496 541.213 604.883C541.726 605.678 542.812 606.501 544.188 607.121C548.558 609.088 554.866 607.567 560.389 606.23C565.912 604.883 577.859 601.753 580.029 600.484C582.19 599.215 581.522 596.899 580.32 594.215Z" fill="url(#paint58_linear)"/>
<path d="M374.639 245.719C388.931 250.312 414.502 259.177 424.831 264.923C426.187 282.665 425.664 288.091 424.201 298.944C413.872 282.772 415.955 271.503 401.45 268.266C386.954 265.02 376.102 263.664 374.639 245.719Z" fill="url(#paint59_linear)"/>
</g>
<defs>
<linearGradient id="paint0_linear" x1="430.888" y1="-7.70853" x2="430.888" y2="663.115" gradientUnits="userSpaceOnUse">
<stop stop-color="#C8E5F1"/>
<stop offset="1" stop-color="#E8FAEE"/>
</linearGradient>
<linearGradient id="paint1_linear" x1="359.062" y1="6.08989" x2="359.062" y2="594.563" gradientUnits="userSpaceOnUse">
<stop stop-color="#C8E5F1"/>
<stop offset="1" stop-color="#E8FAEE"/>
</linearGradient>
<linearGradient id="paint2_linear" x1="133.409" y1="-14.3563" x2="133.409" y2="669.532" gradientUnits="userSpaceOnUse">
<stop stop-color="#C8E5F1"/>
<stop offset="1" stop-color="#E8FAEE"/>
</linearGradient>
<linearGradient id="paint3_linear" x1="484.007" y1="459.884" x2="424.741" y2="699.839" gradientUnits="userSpaceOnUse">
<stop stop-color="#C8E5F1"/>
<stop offset="1" stop-color="#E8FAEE"/>
</linearGradient>
<linearGradient id="paint4_linear" x1="641.864" y1="547.712" x2="689.841" y2="39.5879" gradientUnits="userSpaceOnUse">
<stop stop-color="#C8E5F1"/>
<stop offset="1" stop-color="#E8FAEE"/>
</linearGradient>
<linearGradient id="paint5_linear" x1="271.359" y1="694.38" x2="186.583" y2="496.815" gradientUnits="userSpaceOnUse">
<stop stop-color="#C8E5F1"/>
<stop offset="1" stop-color="#9BD1E5"/>
</linearGradient>
<linearGradient id="paint6_linear" x1="482.31" y1="113.262" x2="750.021" y2="587.367" gradientUnits="userSpaceOnUse">
<stop stop-color="white"/>
<stop offset="1" stop-color="#E8FAEE"/>
</linearGradient>
<linearGradient id="paint7_linear" x1="285.065" y1="171.723" x2="323.539" y2="168.171" gradientUnits="userSpaceOnUse">
<stop stop-color="#F9B0AC"/>
<stop offset="1" stop-color="#FCD9D7"/>
</linearGradient>
<linearGradient id="paint8_linear" x1="355.809" y1="247.666" x2="293.737" y2="317.316" gradientUnits="userSpaceOnUse">
<stop stop-color="#E0A853"/>
<stop offset="1" stop-color="#B68755"/>
</linearGradient>
<linearGradient id="paint9_linear" x1="193.415" y1="240.651" x2="213.679" y2="274.81" gradientUnits="userSpaceOnUse">
<stop stop-color="#5EBBAF"/>
<stop offset="1" stop-color="#1F8B8F"/>
</linearGradient>
<linearGradient id="paint10_linear" x1="322.981" y1="211.418" x2="307.859" y2="258.562" gradientUnits="userSpaceOnUse">
<stop stop-color="#5EBBAF"/>
<stop offset="1" stop-color="#1F8B8F"/>
</linearGradient>
<linearGradient id="paint11_linear" x1="252.048" y1="232.302" x2="271.347" y2="288.019" gradientUnits="userSpaceOnUse">
<stop stop-color="#16687B"/>
<stop offset="1" stop-color="#1F8B8F"/>
</linearGradient>
<linearGradient id="paint12_linear" x1="248.8" y1="417.873" x2="212.715" y2="342.671" gradientUnits="userSpaceOnUse">
<stop stop-color="#295789"/>
<stop offset="0.2582" stop-color="#2B5C8D"/>
<stop offset="0.5585" stop-color="#306A9A"/>
<stop offset="0.8786" stop-color="#3981AF"/>
<stop offset="1" stop-color="#3D8CB9"/>
</linearGradient>
<linearGradient id="paint13_linear" x1="570.2" y1="408.327" x2="633.239" y2="383.685" gradientUnits="userSpaceOnUse">
<stop stop-color="#295789"/>
<stop offset="0.2582" stop-color="#2B5C8D"/>
<stop offset="0.5585" stop-color="#306A9A"/>
<stop offset="0.8786" stop-color="#3981AF"/>
<stop offset="1" stop-color="#3D8CB9"/>
</linearGradient>
<linearGradient id="paint14_linear" x1="615.319" y1="530.456" x2="585.502" y2="474.559" gradientUnits="userSpaceOnUse">
<stop stop-color="#295789"/>
<stop offset="0.2582" stop-color="#2B5C8D"/>
<stop offset="0.5585" stop-color="#306A9A"/>
<stop offset="0.8786" stop-color="#3981AF"/>
<stop offset="1" stop-color="#3D8CB9"/>
</linearGradient>
<linearGradient id="paint15_linear" x1="591.046" y1="472.026" x2="590.623" y2="471.232" gradientUnits="userSpaceOnUse">
<stop stop-color="#294972"/>
<stop offset="1" stop-color="#3860A2"/>
</linearGradient>
<linearGradient id="paint16_linear" x1="578.954" y1="655.079" x2="529.769" y2="542.178" gradientUnits="userSpaceOnUse">
<stop stop-color="#C8E5F1"/>
<stop offset="1" stop-color="#9BD1E5"/>
</linearGradient>
<linearGradient id="paint17_linear" x1="604.934" y1="330.038" x2="590.816" y2="250.198" gradientUnits="userSpaceOnUse">
<stop stop-color="#FF565A"/>
<stop offset="1" stop-color="#EA3035"/>
</linearGradient>
<linearGradient id="paint18_linear" x1="205.33" y1="296.412" x2="179.496" y2="316.698" gradientUnits="userSpaceOnUse">
<stop stop-color="#16687B"/>
<stop offset="1" stop-color="#1F8B8F"/>
</linearGradient>
<linearGradient id="paint19_linear" x1="306.48" y1="269.538" x2="287.129" y2="337.125" gradientUnits="userSpaceOnUse">
<stop stop-color="#16687B"/>
<stop offset="1" stop-color="#1F8B8F"/>
</linearGradient>
<linearGradient id="paint20_linear" x1="197.462" y1="374.011" x2="239.726" y2="341.3" gradientUnits="userSpaceOnUse">
<stop stop-color="#5EBBAF"/>
<stop offset="1" stop-color="#1F8B8F"/>
</linearGradient>
<linearGradient id="paint21_linear" x1="531.545" y1="266.283" x2="571.531" y2="305.826" gradientUnits="userSpaceOnUse">
<stop stop-color="#FFA8AA"/>
<stop offset="1" stop-color="#FF565A"/>
</linearGradient>
<linearGradient id="paint22_linear" x1="543.416" y1="245.001" x2="552.389" y2="253.875" gradientUnits="userSpaceOnUse">
<stop stop-color="#FFA8AA"/>
<stop offset="1" stop-color="#FF565A"/>
</linearGradient>
<linearGradient id="paint23_linear" x1="622.022" y1="265.395" x2="644.512" y2="312.699" gradientUnits="userSpaceOnUse">
<stop stop-color="#F9B0AC"/>
<stop offset="1" stop-color="#F68B85"/>
</linearGradient>
<linearGradient id="paint24_linear" x1="495.589" y1="235.975" x2="503.981" y2="235.975" gradientUnits="userSpaceOnUse">
<stop stop-color="#F9B0AC"/>
<stop offset="1" stop-color="#F68B85"/>
</linearGradient>
<linearGradient id="paint25_linear" x1="481.126" y1="224.422" x2="491.785" y2="203.675" gradientUnits="userSpaceOnUse">
<stop stop-color="#F9B0AC"/>
<stop offset="1" stop-color="#F68B85"/>
</linearGradient>
<linearGradient id="paint26_linear" x1="549.485" y1="335.482" x2="583.482" y2="311.87" gradientUnits="userSpaceOnUse">
<stop stop-color="#FFA8AA"/>
<stop offset="1" stop-color="#FF565A"/>
</linearGradient>
<linearGradient id="paint27_linear" x1="582.516" y1="248.799" x2="626.199" y2="272.638" gradientUnits="userSpaceOnUse">
<stop stop-color="#FF565A"/>
<stop offset="1" stop-color="#EA3035"/>
</linearGradient>
<linearGradient id="paint28_linear" x1="638.661" y1="203.333" x2="723.782" y2="161.068" gradientUnits="userSpaceOnUse">
<stop stop-color="#294972"/>
<stop offset="1" stop-color="#3D86AD"/>
</linearGradient>
<linearGradient id="paint29_linear" x1="613.385" y1="152.428" x2="698.507" y2="110.163" gradientUnits="userSpaceOnUse">
<stop stop-color="#294972"/>
<stop offset="1" stop-color="#3D86AD"/>
</linearGradient>
<linearGradient id="paint30_linear" x1="619.595" y1="196.855" x2="676.479" y2="168.61" gradientUnits="userSpaceOnUse">
<stop stop-color="#294972"/>
<stop offset="1" stop-color="#3D86AD"/>
</linearGradient>
<linearGradient id="paint31_linear" x1="574.238" y1="160.612" x2="576.406" y2="129.444" gradientUnits="userSpaceOnUse">
<stop stop-color="#294972"/>
<stop offset="1" stop-color="#3D86AD"/>
</linearGradient>
<linearGradient id="paint32_linear" x1="613.425" y1="512.612" x2="549.472" y2="392.721" gradientUnits="userSpaceOnUse">
<stop stop-color="#295789"/>
<stop offset="0.2582" stop-color="#2B5C8D"/>
<stop offset="0.5585" stop-color="#306A9A"/>
<stop offset="0.8786" stop-color="#3981AF"/>
<stop offset="1" stop-color="#3D8CB9"/>
</linearGradient>
<linearGradient id="paint33_linear" x1="234.651" y1="185.763" x2="259.176" y2="238.651" gradientUnits="userSpaceOnUse">
<stop stop-color="#FFA8AA"/>
<stop offset="1" stop-color="#FF565A"/>
</linearGradient>
<linearGradient id="paint34_linear" x1="753.996" y1="561.49" x2="654.73" y2="47.7273" gradientUnits="userSpaceOnUse">
<stop stop-color="#9BD1E5"/>
<stop offset="1" stop-color="#D8EDF5"/>
</linearGradient>
<linearGradient id="paint35_linear" x1="730.616" y1="522.44" x2="773.77" y2="520.642" gradientUnits="userSpaceOnUse">
<stop stop-color="#FF565A"/>
<stop offset="1" stop-color="#EA3035"/>
</linearGradient>
<linearGradient id="paint36_linear" x1="835.463" y1="517.971" x2="704.733" y2="434.624" gradientUnits="userSpaceOnUse">
<stop stop-color="#1F8B8F"/>
<stop offset="1" stop-color="#3DC8AF"/>
</linearGradient>
<linearGradient id="paint37_linear" x1="815.275" y1="555.713" x2="759.556" y2="452.945" gradientUnits="userSpaceOnUse">
<stop stop-color="#1A7783"/>
<stop offset="0.4708" stop-color="#1F8A8E"/>
<stop offset="1" stop-color="#2FA99F"/>
</linearGradient>
<linearGradient id="paint38_linear" x1="787.489" y1="488.859" x2="840.997" y2="488.859" gradientUnits="userSpaceOnUse">
<stop stop-color="#C8E5F1"/>
<stop offset="1" stop-color="#9BD1E5"/>
</linearGradient>
<linearGradient id="paint39_linear" x1="845.551" y1="537.798" x2="807.664" y2="485.466" gradientUnits="userSpaceOnUse">
<stop stop-color="#62A2C3"/>
<stop offset="1" stop-color="#9BD1E5"/>
</linearGradient>
<linearGradient id="paint40_linear" x1="867.865" y1="532.067" x2="790.218" y2="475.909" gradientUnits="userSpaceOnUse">
<stop stop-color="#1F8B8F"/>
<stop offset="1" stop-color="#3DC8AF"/>
</linearGradient>
<linearGradient id="paint41_linear" x1="799.001" y1="544.005" x2="774.893" y2="595.738" gradientUnits="userSpaceOnUse">
<stop stop-color="#62A2C3"/>
<stop offset="1" stop-color="#9BD1E5"/>
</linearGradient>
<linearGradient id="paint42_linear" x1="868.041" y1="528.495" x2="831.939" y2="454" gradientUnits="userSpaceOnUse">
<stop stop-color="#2AA29B"/>
<stop offset="0.5071" stop-color="#3DC8AF"/>
<stop offset="1" stop-color="#74D8C6"/>
</linearGradient>
<linearGradient id="paint43_linear" x1="815.57" y1="553.923" x2="779.469" y2="479.428" gradientUnits="userSpaceOnUse">
<stop stop-color="#2AA29B"/>
<stop offset="0.5071" stop-color="#3DC8AF"/>
<stop offset="1" stop-color="#74D8C6"/>
</linearGradient>
<linearGradient id="paint44_linear" x1="758.319" y1="610.455" x2="800.106" y2="577.348" gradientUnits="userSpaceOnUse">
<stop stop-color="#F1F8FB"/>
<stop offset="0.444" stop-color="#C8E5F1"/>
<stop offset="1" stop-color="#9BD1E5"/>
</linearGradient>
<linearGradient id="paint45_linear" x1="265.472" y1="156.211" x2="239.634" y2="106.677" gradientUnits="userSpaceOnUse">
<stop stop-color="#294972"/>
<stop offset="1" stop-color="#3D86AD"/>
</linearGradient>
<linearGradient id="paint46_linear" x1="299.058" y1="143.267" x2="312.376" y2="111.573" gradientUnits="userSpaceOnUse">
<stop stop-color="#294972"/>
<stop offset="1" stop-color="#3D86AD"/>
</linearGradient>
<linearGradient id="paint47_linear" x1="133.805" y1="612.305" x2="112.811" y2="567.715" gradientUnits="userSpaceOnUse">
<stop stop-color="#294972"/>
<stop offset="1" stop-color="#3860A2"/>
</linearGradient>
<linearGradient id="paint48_linear" x1="280.793" y1="624.738" x2="269.098" y2="599.899" gradientUnits="userSpaceOnUse">
<stop stop-color="#294972"/>
<stop offset="1" stop-color="#3860A2"/>
</linearGradient>
<linearGradient id="paint49_linear" x1="226.941" y1="436.928" x2="266.17" y2="421.594" gradientUnits="userSpaceOnUse">
<stop stop-color="#295789"/>
<stop offset="1" stop-color="#244E78"/>
</linearGradient>
<linearGradient id="paint50_linear" x1="287.345" y1="427.813" x2="318.048" y2="415.811" gradientUnits="userSpaceOnUse">
<stop stop-color="#295789"/>
<stop offset="0.2582" stop-color="#2B5C8D"/>
<stop offset="0.5585" stop-color="#306A9A"/>
<stop offset="0.8786" stop-color="#3981AF"/>
<stop offset="1" stop-color="#3D8CB9"/>
</linearGradient>
<linearGradient id="paint51_linear" x1="257.486" y1="567.2" x2="339.081" y2="535.304" gradientUnits="userSpaceOnUse">
<stop stop-color="#295789"/>
<stop offset="0.2582" stop-color="#2B5C8D"/>
<stop offset="0.5585" stop-color="#306A9A"/>
<stop offset="0.8786" stop-color="#3981AF"/>
<stop offset="1" stop-color="#3D8CB9"/>
</linearGradient>
<linearGradient id="paint52_linear" x1="122.703" y1="528.878" x2="222.429" y2="489.894" gradientUnits="userSpaceOnUse">
<stop stop-color="#295789"/>
<stop offset="1" stop-color="#244E78"/>
</linearGradient>
<linearGradient id="paint53_linear" x1="359.196" y1="337.767" x2="371.06" y2="299.584" gradientUnits="userSpaceOnUse">
<stop stop-color="#16687B"/>
<stop offset="1" stop-color="#1F8B8F"/>
</linearGradient>
<linearGradient id="paint54_linear" x1="409.252" y1="297.229" x2="414.691" y2="326.234" gradientUnits="userSpaceOnUse">
<stop stop-color="#F9B0AC"/>
<stop offset="1" stop-color="#F68B85"/>
</linearGradient>
<linearGradient id="paint55_linear" x1="135.981" y1="27.6273" x2="144.475" y2="328.902" gradientUnits="userSpaceOnUse">
<stop stop-color="#C8E5F1"/>
<stop offset="1" stop-color="#E8FAEE"/>
</linearGradient>
<linearGradient id="paint56_linear" x1="37.484" y1="-28.5688" x2="4.31492" y2="461.62" gradientUnits="userSpaceOnUse">
<stop stop-color="#C8E5F1"/>
<stop offset="1" stop-color="#E8FAEE"/>
</linearGradient>
<linearGradient id="paint57_linear" x1="629.503" y1="563.89" x2="610.985" y2="588.757" gradientUnits="userSpaceOnUse">
<stop stop-color="#FFA8AA"/>
<stop offset="1" stop-color="#FF565A"/>
</linearGradient>
<linearGradient id="paint58_linear" x1="569.762" y1="610.074" x2="558.654" y2="595.842" gradientUnits="userSpaceOnUse">
<stop stop-color="#FFA8AA"/>
<stop offset="1" stop-color="#FF565A"/>
</linearGradient>
<linearGradient id="paint59_linear" x1="395.354" y1="281.426" x2="411.842" y2="244.588" gradientUnits="userSpaceOnUse">
<stop stop-color="#F4C87C"/>
<stop offset="1" stop-color="#F8DCAC"/>
</linearGradient>
<clipPath id="clip0">
<rect width="885" height="674.106" fill="white"/>
</clipPath>
</defs>
</svg>
