<svg width="925" height="97" viewBox="0 0 925 97" fill="none" xmlns="http://www.w3.org/2000/svg">
<path d="M416.054 38.521C415.849 38.3164 415.749 38.0743 415.749 37.7945V13.0364C415.749 12.7566 415.849 12.5145 416.054 12.3099C416.258 12.1053 416.501 12.0051 416.78 12.0051H422.834C423.548 12.0051 424.099 12.3517 424.483 13.0405L430.04 22.2382L435.597 13.0405C435.981 12.3517 436.528 12.0051 437.246 12.0051H443.3C443.58 12.0051 443.822 12.1095 444.027 12.3099C444.231 12.5145 444.332 12.7566 444.332 13.0364V37.7904C444.332 38.0701 444.227 38.3122 444.027 38.5168C443.822 38.7214 443.58 38.8216 443.3 38.8216H436.361C436.082 38.8216 435.835 38.7214 435.635 38.5168C435.43 38.3122 435.33 38.0701 435.33 37.7904V27.2901L432.8 31.4276C432.62 31.7073 432.424 31.9411 432.207 32.1164C431.99 32.296 431.715 32.3836 431.385 32.3836H428.7C428.366 32.3836 428.095 32.296 427.878 32.1164C427.661 31.9369 427.46 31.7073 427.285 31.4276L424.755 27.2901V37.7904C424.755 38.0701 424.654 38.3122 424.45 38.5168C424.245 38.7214 424.003 38.8216 423.723 38.8216H416.784C416.501 38.8258 416.258 38.7256 416.054 38.521Z" fill="#003D59"/>
<path d="M455.566 38.5201C455.361 38.3155 455.261 38.0733 455.261 37.7936V30.2451L446.64 13.1899C446.589 13.0897 446.564 12.9728 446.564 12.8434C446.564 12.6137 446.648 12.4175 446.815 12.2505C446.982 12.0835 447.178 12 447.408 12H454.614C455.048 12 455.399 12.1086 455.666 12.3257C455.933 12.5428 456.121 12.7557 456.221 12.9561L460.054 20.6591L463.887 12.9561C463.987 12.7515 464.175 12.5428 464.442 12.3257C464.709 12.1086 465.06 12 465.494 12H472.7C472.93 12 473.126 12.0835 473.293 12.2505C473.46 12.4175 473.544 12.6137 473.544 12.8434C473.544 12.9728 473.519 13.0855 473.469 13.1899L464.847 30.2451V37.7894C464.847 38.0691 464.747 38.3113 464.542 38.5159C464.338 38.7204 464.096 38.8207 463.816 38.8207H456.305C456.013 38.8248 455.77 38.7246 455.566 38.5201Z" fill="#003D59"/>
<path d="M485.13 38.5201C484.925 38.3155 484.825 38.0733 484.825 37.7936V20.2416H478.462C478.182 20.2416 477.94 20.1414 477.735 19.9368C477.531 19.7322 477.431 19.4901 477.431 19.2103V13.0312C477.431 12.7515 477.531 12.5094 477.735 12.3048C477.94 12.1002 478.182 12 478.462 12H500.92C501.199 12 501.441 12.1044 501.646 12.3048C501.851 12.5094 501.951 12.7515 501.951 13.0312V19.202C501.951 19.4817 501.846 19.7281 501.646 19.9285C501.441 20.133 501.199 20.2332 500.92 20.2332H494.557V37.7894C494.557 38.0691 494.452 38.3113 494.252 38.5159C494.047 38.7204 493.805 38.8207 493.526 38.8207H485.86C485.576 38.8248 485.334 38.7246 485.13 38.5201Z" fill="#FF7300"/>
<path d="M505.02 38.52C504.815 38.3154 504.715 38.0733 504.715 37.7936V13.0354C504.715 12.7557 504.815 12.5135 505.02 12.3089C505.224 12.1044 505.466 12.0042 505.746 12.0042H513.566C513.846 12.0042 514.088 12.1085 514.292 12.3089C514.497 12.5135 514.597 12.7557 514.597 13.0354V37.7894C514.597 38.0691 514.493 38.3113 514.292 38.5158C514.088 38.7204 513.846 38.8206 513.566 38.8206H505.746C505.466 38.8248 505.224 38.7246 505.02 38.52Z" fill="#FF7300"/>
<path d="M519.123 38.52C518.918 38.3154 518.818 38.0733 518.818 37.7936V13.0354C518.818 12.7557 518.918 12.5135 519.123 12.3089C519.327 12.1044 519.57 12.0042 519.849 12.0042H531.464C535.042 12.0042 537.856 12.7974 539.915 14.3798C541.973 15.9663 543 18.3043 543 21.3939C543 24.4584 541.977 26.7421 539.936 28.2368C537.89 29.7315 535.068 30.4788 531.464 30.4788H528.78V37.7894C528.78 38.0691 528.675 38.3113 528.475 38.5158C528.27 38.7204 528.028 38.8206 527.749 38.8206H519.854C519.57 38.8248 519.327 38.7246 519.123 38.52ZM531.277 23.3812C531.736 23.3812 532.145 23.21 532.504 22.8635C532.863 22.517 533.043 21.9993 533.043 21.3104C533.043 20.7217 532.901 20.2123 532.621 19.7781C532.341 19.3439 531.894 19.1268 531.281 19.1268H528.596V23.3812H531.277Z" fill="#FF7300"/>
<path d="M416.203 82.2039C415.898 81.8991 415.744 81.5359 415.744 81.1142V44.1022C415.744 43.6805 415.894 43.3214 416.203 43.0125C416.508 42.7077 416.871 42.5532 417.293 42.5532H428.753C429.175 42.5532 429.534 42.7077 429.843 43.0125C430.148 43.3173 430.302 43.6805 430.302 44.1022V70.9187H446.172C446.593 70.9187 446.953 71.0731 447.261 71.3779C447.566 71.6827 447.721 72.0459 447.721 72.4676V81.1183C447.721 81.54 447.566 81.9033 447.261 82.208C446.957 82.5128 446.593 82.6673 446.172 82.6673H417.293C416.871 82.6589 416.508 82.5086 416.203 82.2039Z" fill="#003D59"/>
<path d="M452.071 82.2039C451.767 81.8991 451.612 81.5358 451.612 81.1142V44.1022C451.612 43.6805 451.762 43.3214 452.071 43.0125C452.376 42.7077 452.739 42.5532 453.161 42.5532H464.851C465.273 42.5532 465.632 42.7077 465.941 43.0125C466.246 43.3173 466.4 43.6805 466.4 44.1022V81.1142C466.4 81.5358 466.246 81.8991 465.941 82.2039C465.636 82.5086 465.273 82.6631 464.851 82.6631H453.161C452.739 82.659 452.376 82.5086 452.071 82.2039Z" fill="#003D59"/>
<path d="M473.155 82.2039C472.851 81.8991 472.696 81.5358 472.696 81.1142V44.1022C472.696 43.6805 472.846 43.3214 473.155 43.0125C473.46 42.7077 473.823 42.5532 474.245 42.5532H503.124C503.546 42.5532 503.905 42.7077 504.214 43.0125C504.518 43.3173 504.673 43.6805 504.673 44.1022V52.8114C504.673 53.2331 504.518 53.5963 504.214 53.9011C503.909 54.2058 503.546 54.3603 503.124 54.3603H486.737V58.6022H501.976C502.397 58.6022 502.757 58.7567 503.066 59.0615C503.37 59.3662 503.525 59.7295 503.525 60.1511V68.8019C503.525 69.2236 503.37 69.5868 503.066 69.8916C502.761 70.1964 502.397 70.3508 501.976 70.3508H486.737V81.1225C486.737 81.5442 486.582 81.9074 486.278 82.2122C485.973 82.517 485.61 82.6715 485.188 82.6715H474.245C473.823 82.6589 473.46 82.5086 473.155 82.2039Z" fill="#003D59"/>
<path d="M510.167 82.2039C509.862 81.8991 509.708 81.5359 509.708 81.1142V44.1022C509.708 43.6805 509.858 43.3214 510.167 43.0125C510.472 42.7077 510.835 42.5532 511.257 42.5532H540.649C541.071 42.5532 541.43 42.7077 541.739 43.0125C542.044 43.3173 542.198 43.6805 542.198 44.1022V52.1809C542.198 52.6026 542.044 52.9658 541.739 53.2706C541.434 53.5754 541.071 53.7299 540.649 53.7299H523.461V57.3413H539.389C539.81 57.3413 540.169 57.4958 540.478 57.8006C540.783 58.1054 540.938 58.4686 540.938 58.8903V66.3386C540.938 66.7603 540.783 67.1235 540.478 67.4283C540.173 67.7331 539.81 67.8875 539.389 67.8875H523.461V71.499H541.109C541.53 71.499 541.889 71.6535 542.198 71.9582C542.503 72.263 542.658 72.6263 542.658 73.0479V81.1267C542.658 81.5484 542.503 81.9116 542.198 82.2164C541.894 82.5212 541.53 82.6757 541.109 82.6757H511.257C510.835 82.659 510.472 82.5086 510.167 82.2039Z" fill="#003D59"/>
<path d="M385.591 84.8718H344.4C339.762 84.8718 336 81.1101 336 76.4716V33.7397C336 29.1012 339.762 25.3395 344.4 25.3395H385.591C390.23 25.3395 393.992 29.1012 393.992 33.7397V76.4716C393.996 81.1101 390.234 84.8718 385.591 84.8718Z" fill="#FFCE00"/>
<path d="M385.5 27.8696C388.785 27.8696 391.462 30.5416 391.462 33.8316V76.3797C391.462 79.6655 388.785 82.3417 385.5 82.3417H344.492C341.206 82.3417 338.53 79.6697 338.53 76.3797V33.8316C338.53 30.5458 341.206 27.8696 344.492 27.8696H385.5ZM385.5 25.3395H344.492C339.799 25.3395 336 29.143 336 33.8316V76.3797C336 81.0725 339.803 84.8718 344.492 84.8718H385.5C390.188 84.8718 393.992 81.0683 393.992 76.3797V33.8316C393.996 29.1388 390.192 25.3395 385.5 25.3395Z" fill="#FF7300"/>
<path d="M364.996 76.743C376.947 76.743 386.635 67.0547 386.635 55.1036C386.635 43.1525 376.947 33.4642 364.996 33.4642C353.045 33.4642 343.356 43.1525 343.356 55.1036C343.356 67.0547 353.045 76.743 364.996 76.743Z" fill="#FFA300"/>
<path d="M364.996 73.6827C375.257 73.6827 383.575 65.3645 383.575 55.1036C383.575 44.8427 375.257 36.5245 364.996 36.5245C354.735 36.5245 346.417 44.8427 346.417 55.1036C346.417 65.3645 354.735 73.6827 364.996 73.6827Z" fill="#FFCE00"/>
<path d="M360.474 69.1696C360.336 68.9775 360.282 68.7687 360.32 68.5433L360.658 66.4057C358.336 65.7001 356.633 64.6521 355.552 63.266C354.47 61.8799 354.032 60.3977 354.241 58.8196C354.27 58.6359 354.362 58.4855 354.516 58.3728C354.671 58.2601 354.842 58.2183 355.03 58.2476L360.912 59.1786C361.201 59.2245 361.426 59.2955 361.593 59.3957C361.756 59.4959 361.948 59.6713 362.161 59.9134C362.683 60.4812 363.409 60.8403 364.34 60.9864C365.042 61.0991 365.618 61.1075 366.065 61.0198C366.511 60.9321 366.758 60.7526 366.799 60.4854C366.858 60.1138 366.624 59.784 366.098 59.5001C365.572 59.2162 364.549 58.8488 363.033 58.3979C357.819 56.8531 355.514 54.1602 356.124 50.3233C356.399 48.5698 357.263 47.1711 358.708 46.1315C360.153 45.0919 361.956 44.5492 364.123 44.5116L364.465 42.3447C364.503 42.1193 364.616 41.9356 364.808 41.7978C365 41.66 365.209 41.6057 365.434 41.6433L369.179 42.2362C369.405 42.2738 369.588 42.3865 369.726 42.5785C369.864 42.7706 369.918 42.9793 369.881 43.2048L369.521 45.4635C370.857 45.9729 371.985 46.6409 372.899 47.4759C373.813 48.3067 374.481 49.1877 374.895 50.1104C375.308 51.033 375.475 51.8806 375.4 52.6488C375.371 52.8325 375.279 52.9828 375.12 53.0955C374.966 53.2083 374.803 53.25 374.64 53.225L368.448 52.2438C368.16 52.1979 367.939 52.1269 367.785 52.0267C367.63 51.9265 367.463 51.772 367.288 51.5508C366.912 51.1124 366.394 50.8368 365.735 50.7324C364.745 50.5738 364.202 50.7867 364.111 51.3629C364.06 51.6718 364.265 51.9683 364.716 52.2522C365.167 52.5361 366.044 52.8659 367.338 53.2375C369.359 53.8303 370.954 54.4984 372.118 55.229C373.283 55.9638 374.076 56.8239 374.502 57.8134C374.928 58.8029 375.033 59.976 374.82 61.3371C374.527 63.195 373.584 64.6396 371.993 65.6667C370.402 66.6937 368.432 67.2156 366.081 67.224L365.739 69.3908C365.701 69.6163 365.589 69.8 365.396 69.9419C365.204 70.0797 364.996 70.134 364.77 70.0964L361.025 69.5036C360.796 69.4743 360.612 69.3616 360.474 69.1696Z" fill="#FFA300"/>
<path d="M359.706 67.6331C359.568 67.441 359.514 67.2322 359.552 67.0068L359.89 64.8692C357.568 64.1636 355.865 63.1156 354.784 61.7295C353.702 60.3434 353.264 58.8612 353.473 57.2831C353.502 57.0994 353.594 56.949 353.748 56.8363C353.903 56.7236 354.074 56.6818 354.258 56.7111L360.14 57.6421C360.428 57.688 360.654 57.759 360.821 57.8592C360.984 57.9594 361.176 58.1348 361.389 58.3769C361.91 58.9489 362.637 59.3038 363.568 59.4499C364.269 59.5626 364.846 59.571 365.292 59.4833C365.739 59.3956 365.985 59.2161 366.027 58.9489C366.086 58.5773 365.852 58.2475 365.326 57.9636C364.8 57.6797 363.777 57.3123 362.261 56.8614C357.046 55.3166 354.742 52.6237 355.351 48.7868C355.627 47.0333 356.491 45.6346 357.936 44.595C359.38 43.5554 361.184 43.0127 363.347 42.9751L363.689 40.8082C363.727 40.5828 363.839 40.3991 364.031 40.2613C364.223 40.1235 364.432 40.0692 364.658 40.1068L368.403 40.6997C368.628 40.7373 368.812 40.85 368.954 41.042C369.092 41.2341 369.146 41.4428 369.108 41.6683L368.749 43.927C370.085 44.4364 371.212 45.1044 372.127 45.9394C373.041 46.7702 373.709 47.6512 374.123 48.5739C374.536 49.4965 374.703 50.3441 374.624 51.1123C374.594 51.296 374.502 51.4463 374.348 51.559C374.194 51.6718 374.031 51.7177 373.868 51.6885L367.676 50.7073C367.388 50.6614 367.167 50.5904 367.012 50.4902C366.858 50.3942 366.691 50.2355 366.516 50.0143C366.14 49.5759 365.622 49.3003 364.962 49.1959C363.973 49.0415 363.43 49.2502 363.338 49.8264C363.288 50.1353 363.489 50.4318 363.944 50.7157C364.395 50.9996 365.271 51.3294 366.566 51.701C368.586 52.298 370.181 52.9619 371.346 53.6925C372.511 54.4273 373.304 55.2874 373.73 56.2769C374.156 57.2664 374.26 58.4395 374.047 59.8006C373.755 61.6585 372.812 63.1031 371.221 64.1302C369.63 65.1572 367.66 65.6791 365.309 65.6875L364.967 67.8543C364.929 68.0798 364.816 68.2635 364.624 68.4013C364.432 68.539 364.223 68.5933 363.998 68.5557L360.253 67.9629C360.027 67.9378 359.844 67.8251 359.706 67.6331Z" fill="#FFE161"/>
<path d="M385.767 22.2039H344.229C343.227 22.2039 342.417 21.394 342.417 20.3919V14.1335C342.417 13.1315 343.227 12.3215 344.229 12.3215H385.767C386.769 12.3215 387.579 13.1315 387.579 14.1335V20.3919C387.579 21.394 386.769 22.2039 385.767 22.2039Z" fill="#003D59"/>
<rect x="888.186" y="40.8333" width="1.77811" height="5.79895" rx="0.889057" transform="rotate(-68.7901 888.186 40.8333)" fill="#269DBD"/>
<rect x="891.44" y="38.1053" width="1.77811" height="5.79895" rx="0.889057" transform="rotate(21.2099 891.44 38.1053)" fill="#269DBD"/>
<rect x="731.541" y="35.6907" width="1.77811" height="5.79895" rx="0.889057" transform="rotate(35.7757 731.541 35.6907)" fill="#269DBD"/>
<rect x="733.363" y="39.526" width="1.77811" height="5.79895" rx="0.889057" transform="rotate(125.776 733.363 39.526)" fill="#269DBD"/>
<rect x="767.71" y="40.5378" width="1.77811" height="5.79895" rx="0.889057" transform="rotate(35.7757 767.71 40.5378)" fill="#269DBD"/>
<rect x="769.532" y="44.3733" width="1.77811" height="5.79895" rx="0.889057" transform="rotate(125.776 769.532 44.3733)" fill="#269DBD"/>
<rect x="831.824" y="50.326" width="1.77811" height="5.79895" rx="0.889057" transform="rotate(35.7757 831.824 50.326)" fill="#269DBD"/>
<rect x="833.645" y="54.1615" width="1.77811" height="5.79895" rx="0.889057" transform="rotate(125.776 833.645 54.1615)" fill="#269DBD"/>
<rect x="627.738" y="65.4979" width="1.77811" height="5.79895" rx="0.889057" transform="rotate(35.7757 627.738 65.4979)" fill="#269DBD"/>
<rect x="629.56" y="69.3334" width="1.77811" height="5.79895" rx="0.889057" transform="rotate(125.776 629.56 69.3334)" fill="#269DBD"/>
<rect x="914.03" y="85.3278" width="1.77811" height="5.79895" rx="0.889057" transform="rotate(104.072 914.03 85.3278)" fill="#269DBD"/>
<rect x="911.14" y="88.4388" width="1.77811" height="5.79895" rx="0.889057" transform="rotate(-165.928 911.14 88.4388)" fill="#269DBD"/>
<rect x="922.35" y="13.3744" width="1.77811" height="5.79895" rx="0.889057" transform="rotate(44.5785 922.35 13.3744)" fill="#269DBD"/>
<rect x="923.563" y="17.4434" width="1.77811" height="5.79895" rx="0.889057" transform="rotate(134.578 923.563 17.4434)" fill="#269DBD"/>
<rect x="726.11" y="77.7333" width="1.77811" height="5.79895" rx="0.889057" transform="rotate(35.7757 726.11 77.7333)" fill="#269DBD"/>
<rect x="727.932" y="81.5687" width="1.77811" height="5.79895" rx="0.889057" transform="rotate(125.776 727.932 81.5687)" fill="#269DBD"/>
<rect x="714.175" y="56.6786" width="1.77811" height="5.79895" rx="0.889057" transform="rotate(91.0468 714.175 56.6786)" fill="#269DBD"/>
<rect x="712.061" y="60.361" width="1.77811" height="5.79895" rx="0.889057" transform="rotate(-178.953 712.061 60.361)" fill="#269DBD"/>
<rect x="654.515" y="26.1406" width="1.77811" height="5.79895" rx="0.889057" transform="rotate(14.5346 654.515 26.1406)" fill="#269DBD"/>
<rect x="657.602" y="29.0555" width="1.77811" height="5.79895" rx="0.889057" transform="rotate(104.535 657.602 29.0555)" fill="#269DBD"/>
<rect x="616.83" y="8.52173" width="1.77811" height="5.79895" rx="0.889057" transform="rotate(14.5346 616.83 8.52173)" fill="#269DBD"/>
<rect x="619.917" y="11.4366" width="1.77811" height="5.79895" rx="0.889057" transform="rotate(104.535 619.917 11.4366)" fill="#269DBD"/>
<rect x="612.971" y="72.2249" width="1.77811" height="5.79895" rx="0.889057" transform="rotate(84.5251 612.971 72.2249)" fill="#269DBD"/>
<rect x="611.288" y="76.1235" width="1.77811" height="5.79895" rx="0.889057" transform="rotate(174.525 611.288 76.1235)" fill="#269DBD"/>
<rect x="616.886" y="42.3705" width="1.77811" height="5.79895" rx="0.889057" transform="rotate(84.5251 616.886 42.3705)" fill="#269DBD"/>
<rect x="615.204" y="46.2692" width="1.77811" height="5.79895" rx="0.889057" transform="rotate(174.525 615.204 46.2692)" fill="#269DBD"/>
<rect x="281.186" y="40.8333" width="1.77811" height="5.79895" rx="0.889057" transform="rotate(-68.7901 281.186 40.8333)" fill="#269DBD"/>
<rect x="284.44" y="38.1053" width="1.77811" height="5.79895" rx="0.889057" transform="rotate(21.2099 284.44 38.1053)" fill="#269DBD"/>
<rect x="124.541" y="35.6907" width="1.77811" height="5.79895" rx="0.889057" transform="rotate(35.7757 124.541 35.6907)" fill="#269DBD"/>
<rect x="126.363" y="39.526" width="1.77811" height="5.79895" rx="0.889057" transform="rotate(125.776 126.363 39.526)" fill="#269DBD"/>
<rect x="160.71" y="40.5378" width="1.77811" height="5.79895" rx="0.889057" transform="rotate(35.7757 160.71 40.5378)" fill="#269DBD"/>
<rect x="162.532" y="44.3733" width="1.77811" height="5.79895" rx="0.889057" transform="rotate(125.776 162.532 44.3733)" fill="#269DBD"/>
<rect x="224.823" y="50.326" width="1.77811" height="5.79895" rx="0.889057" transform="rotate(35.7757 224.823 50.326)" fill="#269DBD"/>
<rect x="226.646" y="54.1615" width="1.77811" height="5.79895" rx="0.889057" transform="rotate(125.776 226.646 54.1615)" fill="#269DBD"/>
<rect x="20.7378" y="65.4979" width="1.77811" height="5.79895" rx="0.889057" transform="rotate(35.7757 20.7378 65.4979)" fill="#269DBD"/>
<rect x="22.5598" y="69.3334" width="1.77811" height="5.79895" rx="0.889057" transform="rotate(125.776 22.5598 69.3334)" fill="#269DBD"/>
<rect x="307.03" y="85.3278" width="1.77811" height="5.79895" rx="0.889057" transform="rotate(104.072 307.03 85.3278)" fill="#269DBD"/>
<rect x="304.14" y="88.4388" width="1.77811" height="5.79895" rx="0.889057" transform="rotate(-165.928 304.14 88.4388)" fill="#269DBD"/>
<rect x="315.35" y="13.3744" width="1.77811" height="5.79895" rx="0.889057" transform="rotate(44.5785 315.35 13.3744)" fill="#269DBD"/>
<rect x="316.563" y="17.4434" width="1.77811" height="5.79895" rx="0.889057" transform="rotate(134.578 316.563 17.4434)" fill="#269DBD"/>
<rect x="119.11" y="77.7333" width="1.77811" height="5.79895" rx="0.889057" transform="rotate(35.7757 119.11 77.7333)" fill="#269DBD"/>
<rect x="120.932" y="81.5687" width="1.77811" height="5.79895" rx="0.889057" transform="rotate(125.776 120.932 81.5687)" fill="#269DBD"/>
<rect x="107.175" y="56.6786" width="1.77811" height="5.79895" rx="0.889057" transform="rotate(91.0468 107.175 56.6786)" fill="#269DBD"/>
<rect x="105.061" y="60.361" width="1.77811" height="5.79895" rx="0.889057" transform="rotate(-178.953 105.061 60.361)" fill="#269DBD"/>
<rect x="47.5149" y="26.1406" width="1.77811" height="5.79895" rx="0.889057" transform="rotate(14.5346 47.5149 26.1406)" fill="#269DBD"/>
<rect x="50.6023" y="29.0555" width="1.77811" height="5.79895" rx="0.889057" transform="rotate(104.535 50.6023 29.0555)" fill="#269DBD"/>
<rect x="9.83008" y="8.52173" width="1.77811" height="5.79895" rx="0.889057" transform="rotate(14.5346 9.83008 8.52173)" fill="#269DBD"/>
<rect x="12.9177" y="11.4366" width="1.77811" height="5.79895" rx="0.889057" transform="rotate(104.535 12.9177 11.4366)" fill="#269DBD"/>
<rect x="5.97095" y="72.2249" width="1.77811" height="5.79895" rx="0.889057" transform="rotate(84.5251 5.97095 72.2249)" fill="#269DBD"/>
<rect x="4.28833" y="76.1235" width="1.77811" height="5.79895" rx="0.889057" transform="rotate(174.525 4.28833 76.1235)" fill="#269DBD"/>
<rect x="9.88599" y="42.3705" width="1.77811" height="5.79895" rx="0.889057" transform="rotate(84.5251 9.88599 42.3705)" fill="#269DBD"/>
<rect x="8.20361" y="46.2692" width="1.77811" height="5.79895" rx="0.889057" transform="rotate(174.525 8.20361 46.2692)" fill="#269DBD"/>
<g clip-path="url(#clip0)">
<path d="M578.158 96.8056C589.311 96.8056 598.351 95.8604 598.351 94.6946C598.351 93.5287 589.311 92.5836 578.158 92.5836C567.006 92.5836 557.966 93.5287 557.966 94.6946C557.966 95.8604 567.006 96.8056 578.158 96.8056Z" fill="#F4F4F4"/>
<path d="M545.1 25.6348L545.441 25.4199L552.499 34.03L551.992 34.4021L545.1 25.6348Z" fill="#330000"/>
<path d="M545.441 25.4199C545.441 25.4199 545.844 24.6158 545.286 24.2105C544.727 23.8051 543.383 23.5016 543.002 22.7684C543.002 22.7684 542.834 24.6025 545.1 25.6347L545.441 25.4199Z" fill="#FF7300"/>
<path d="M579.131 22.6202C579.326 22.7487 579.554 22.886 579.817 23.0212C580.081 23.1563 580.378 23.2914 580.706 23.4154C580.925 23.4974 581.16 23.5749 581.41 23.6436C582.032 23.8164 582.748 23.9382 583.549 23.9648C585.738 24.0335 587.755 23.205 588.927 22.5981C587.465 21.7541 586.446 21.3067 586.446 21.3067C585.687 20.9434 585.067 20.4295 584.772 19.6985C583.696 17.0227 585.656 14.6681 585.897 14.3934C585.618 14.2716 585.631 13.9393 585.78 13.5428C585.631 13.9393 585.618 14.2716 585.897 14.3934C585.913 14.3757 585.922 14.3668 585.922 14.3668C586.15 14.4001 586.34 14.3668 586.502 14.3004C586.752 14.1409 586.996 13.8596 587.191 13.5295C587.414 13.0644 587.572 12.6391 587.611 12.2824C587.634 11.9413 587.554 11.6423 587.326 11.4717C586.433 10.805 585.928 12.3024 585.928 12.3024C585.928 12.3024 586.433 10.805 587.326 11.4717C587.554 11.6423 587.634 11.9391 587.611 12.2824C587.658 11.8682 587.545 11.5492 587.193 11.3765C586.484 11.0287 585.197 11.6866 584.706 12.5704C584.034 13.7776 584.881 15.2595 584.881 15.2595C583.479 14.3624 583.658 12.1938 584.641 11.5293C585.724 10.7961 586.229 10.0518 585.775 8.32187C585.204 6.13558 583.747 6.11786 581.871 5.87863C580.243 5.67041 578.269 6.03812 577.334 9.26328C577.39 9.3408 577.425 9.38068 577.425 9.38068C577.425 9.38068 577.39 9.33859 577.334 9.26328C577.193 9.75502 577.073 10.3088 576.985 10.9423C576.309 15.7202 577.802 17.4879 577.802 17.4879C579.029 19.1027 580.743 18.2809 581.583 18.529C582.473 18.7948 582.573 19.5324 582.48 20.0175C582.307 20.9102 581.532 21.3532 578.652 22.2769C578.776 22.3744 578.936 22.494 579.131 22.6202Z" fill="#F4D7C6"/>
<path d="M587.611 48.9509C587.662 49.0484 587.702 49.1459 587.738 49.2367C589.255 48.5323 590.418 47.8124 590.83 47.5488C589.935 45.3204 589.157 43.2227 589.115 41.2469C589.02 36.7791 590.779 33.8729 591.246 33.1818C589.432 31.4163 587.654 30.3575 587.654 30.3575C587.654 30.3575 589.432 31.4163 591.246 33.1818C591.317 33.0754 591.359 33.0201 591.359 33.0201C591.359 33.0201 591.317 33.0754 591.246 33.1818C591.751 33.6735 592.26 34.2184 592.732 34.8121C592.774 34.8076 592.819 34.801 592.867 34.7921C593.437 34.7013 594.356 34.4333 595.545 33.6802C595.842 33.4919 596.159 33.2726 596.489 33.0178C596.604 32.9292 596.712 32.8406 596.819 32.752C596.923 32.6634 597.025 32.5726 597.12 32.484C597.543 32.0875 597.871 31.691 598.13 31.3167C596.09 27.2298 591.709 24.1996 588.929 22.5959C587.755 23.205 585.74 24.0335 583.552 23.9626C582.75 23.936 582.034 23.8142 581.412 23.6414C581.164 23.5727 580.929 23.4952 580.708 23.4132C580.378 23.2892 580.081 23.1563 579.82 23.019C579.556 22.8838 579.328 22.7465 579.133 22.618C578.938 22.4896 578.779 22.3722 578.652 22.2703C577.733 22.5649 576.599 22.9082 575.202 23.3335C570.942 24.6249 567.616 27.4912 564.852 30.0585C564.916 30.805 565.206 32.4995 566.471 34.4134C567.711 36.2917 569.08 37.2863 569.729 37.6872C571.004 36.7946 571.864 35.9307 572.189 35.5807C571.549 33.3878 571.317 30.774 572.697 28.1292C571.315 30.774 571.549 33.3878 572.189 35.5807C572.287 35.4766 572.338 35.4168 572.338 35.4168C572.338 35.4168 572.285 35.4766 572.189 35.5807C572.71 37.3616 573.498 38.8657 573.908 39.878C574.172 40.5248 574.595 41.7896 574.947 43.4974C576.059 43.0566 577.346 43.3224 577.704 43.5107C578.327 43.8385 579.8 44.461 582.287 44.0024C582.287 44.0024 585.56 43.1851 586.672 45.0834C587.434 46.3837 587.197 47.4823 586.892 48.1535C586.949 48.1867 587.002 48.2244 587.053 48.2643C587.104 48.3041 587.153 48.344 587.197 48.3861C587.377 48.5589 587.512 48.756 587.611 48.9509Z" fill="#269DBD"/>
<path d="M578.65 22.2747C578.776 22.3743 578.936 22.494 579.131 22.6224C578.936 22.494 578.776 22.3743 578.65 22.2747Z" fill="#269DBD"/>
<path d="M579.817 23.0212C579.554 22.886 579.326 22.7487 579.131 22.6202C579.326 22.7487 579.556 22.886 579.817 23.0212Z" fill="#269DBD"/>
<path d="M588.887 50.4771C595.864 49.3253 600.101 43.081 599.186 34.7965C599.051 33.5672 598.672 32.4043 598.13 31.3167C597.871 31.6932 597.543 32.0875 597.12 32.484C597.025 32.5726 596.925 32.6634 596.819 32.752C596.715 32.8406 596.604 32.9292 596.489 33.0178C596.159 33.2726 595.844 33.4896 595.545 33.6801C594.354 34.4333 593.434 34.7013 592.867 34.7921C592.821 34.7988 592.774 34.8054 592.732 34.8121C594.418 36.9252 595.66 39.6343 594.765 42.5981C593.88 45.5308 592.431 47.1988 591.071 48.1491C589.594 49.1813 588.223 49.3674 587.793 49.3984C587.778 49.3452 587.76 49.2921 587.738 49.2367C587.705 49.1436 587.662 49.0484 587.611 48.9509C587.512 48.756 587.377 48.5589 587.195 48.3883C587.151 48.3462 587.102 48.3041 587.051 48.2665C587 48.2266 586.945 48.1912 586.889 48.1557C586.745 48.0693 586.582 47.9962 586.391 47.9497C586.163 47.8943 585.946 47.85 585.742 47.819C584.703 47.6595 584.023 47.8478 584.132 48.6541C584.132 48.6541 584.185 48.6829 584.28 48.7006C584.482 48.7139 584.688 48.6873 584.867 48.6187C584.887 48.6098 584.907 48.6032 584.927 48.5921C584.963 48.5766 584.998 48.5589 585.031 48.5389C585.031 48.5389 585.702 48.6364 585.718 49.2256C585.727 49.5202 585.611 49.7971 585.494 50.0031C585.335 50.1515 585.155 50.2999 584.949 50.4461C586.187 50.661 587.507 50.7053 588.887 50.4771Z" fill="#F4D7C6"/>
<path d="M587.611 48.9509C587.512 48.756 587.377 48.5589 587.195 48.3883C587.377 48.5589 587.512 48.756 587.611 48.9509Z" fill="#F4D7C6"/>
<path d="M597.118 32.4862C597.541 32.0897 597.869 31.6932 598.128 31.3188C597.871 31.6932 597.541 32.0897 597.118 32.4862Z" fill="#F4D7C6"/>
<path d="M592.732 34.8121C592.774 34.8076 592.819 34.801 592.867 34.7921C592.819 34.801 592.774 34.8076 592.732 34.8121Z" fill="#F4D7C6"/>
<path d="M589.673 22.0775C588.805 21.6345 588.054 21.2624 587.516 20.9523C587.425 20.8991 587.337 20.8482 587.259 20.7994C585.439 19.672 585.456 17.3794 586.07 15.707C586.192 15.3747 586.336 15.0668 586.495 14.7988C586.69 14.4687 586.876 14.1431 587.038 13.833C586.929 13.9991 586.756 14.1919 586.504 14.2982C586.309 14.4222 586.11 14.471 585.928 14.4067C585.917 14.4023 585.91 14.3956 585.899 14.3912C585.658 14.6659 583.698 17.0205 584.774 19.6963C585.069 20.4273 585.689 20.9412 586.449 21.3045C586.449 21.3045 587.467 21.7541 588.929 22.5959C589.297 22.4054 589.585 22.2348 589.764 22.1218C589.733 22.1086 589.704 22.0931 589.673 22.0775Z" fill="#F1BA9A"/>
<path d="M598.13 31.3166C598.69 30.5059 598.918 29.7904 599.007 29.3895C596.962 25.9428 592.712 23.6281 589.764 22.1218C589.583 22.2348 589.297 22.4031 588.929 22.5959C591.709 24.1996 596.09 27.2298 598.13 31.3166Z" fill="#047492"/>
<path d="M591.988 50.4771C594.214 49.5889 596.354 48.1247 598.125 46.1665C602.15 41.7142 601.846 34.7434 599.237 29.8015C599.164 29.662 599.087 29.5268 599.007 29.3917C598.918 29.7927 598.69 30.5059 598.13 31.3188C598.673 32.4065 599.051 33.5672 599.186 34.7987C600.103 43.0832 595.864 49.3275 588.887 50.4793C587.507 50.7075 586.187 50.6632 584.954 50.4483C584.672 50.6499 584.345 50.8448 583.957 51.022C586.431 51.7906 589.275 51.5603 591.988 50.4771Z" fill="#F1BA9A"/>
<path d="M598.13 31.3166C598.69 30.5059 598.918 29.7904 599.007 29.3917C598.916 29.7927 598.688 30.5059 598.13 31.3166Z" fill="#F4D7C6"/>
<path d="M586.504 14.2979C586.757 14.1916 586.929 13.9989 587.038 13.8328C587.091 13.7287 587.144 13.6268 587.191 13.5271C586.996 13.8571 586.752 14.1407 586.504 14.2979Z" fill="#F4D7C6"/>
<path d="M585.924 14.3644C585.924 14.3644 585.915 14.3733 585.899 14.391C585.91 14.3954 585.917 14.4021 585.928 14.4065C586.11 14.4707 586.309 14.422 586.504 14.298C586.345 14.3644 586.152 14.3977 585.924 14.3644Z" fill="#047492"/>
<path d="M581.871 5.87609C583.747 6.11531 585.204 6.13304 585.775 8.31932C586.227 10.0493 585.725 10.7936 584.641 11.5268C583.66 12.1913 583.479 14.3599 584.881 15.257C584.881 15.257 584.037 13.7751 584.706 12.5679C585.197 11.684 586.484 11.0239 587.193 11.3739C587.545 11.5467 587.658 11.8657 587.612 12.2799C587.587 12.6764 587.423 13.1349 587.191 13.527C586.998 13.9279 586.757 14.3576 586.495 14.7984C586.336 15.0665 586.192 15.3744 586.07 15.7066C586.881 15.5405 589.255 14.9158 590.876 13.0419C592.334 11.3562 592.529 8.40349 590.761 5.81406C590.471 5.74318 590.287 5.66122 590.287 5.66122C590.287 5.66122 590.471 5.74318 590.761 5.81406C590.125 4.88373 589.24 3.99991 588.063 3.23792C587.882 3.12052 587.696 3.00977 587.512 2.90566C587.545 3.074 587.589 3.17368 587.589 3.17368C587.589 3.17368 587.545 3.074 587.512 2.90566C583.177 0.438056 578.159 1.39497 576.854 4.18819C575.676 6.71339 576.971 8.75791 577.337 9.25852C578.269 6.03557 580.243 5.66787 581.871 5.87609Z" fill="#EBAB0D"/>
<path d="M566.466 34.4152C565.202 32.5014 564.914 30.8068 564.847 30.0604C562.307 32.4216 560.24 34.5304 558.36 34.938C554.433 35.7886 551.241 29.717 551.241 29.717C548.362 28.4744 547.609 26.8197 547.266 27.0168C546.922 27.214 547.921 28.7512 548.493 29.161C549.066 29.5708 550.533 31.6441 549.753 31.1258C549.093 30.685 548.258 29.655 548.258 29.655C547.35 30.4657 549.467 31.972 550.254 32.4969C551.04 33.0197 554.355 39.4368 560.989 40.1766C564.637 40.5842 567.702 39.1045 569.724 37.6913C569.075 37.2882 567.707 36.2936 566.466 34.4152Z" fill="#F4D7C6"/>
<path d="M587.193 13.527C587.425 13.1349 587.589 12.6786 587.614 12.2799C587.574 12.6365 587.417 13.0618 587.193 13.527Z" fill="white"/>
<path d="M588.393 92.8935C586.387 92.8935 586.517 94.6943 586.517 94.6943H590.183C590.183 94.6943 590.07 94.4175 589.953 92.2334L588.156 92.2821C588.309 92.6831 588.393 92.8935 588.393 92.8935Z" fill="#269DBD"/>
<path d="M587.738 49.2365C587.758 49.2919 587.775 49.3472 587.793 49.3982C588.223 49.3649 589.594 49.1811 591.071 48.1489C590.989 47.9473 590.909 47.7479 590.83 47.5486C590.418 47.8122 589.255 48.5321 587.738 49.2365Z" fill="#330000"/>
<path d="M570.068 93.2434C568.803 93.1991 568.584 94.6943 568.584 94.6943H571.552C571.647 94.0342 571.755 93.3785 571.866 92.7251L570.019 92.776C570.048 93.0773 570.068 93.2434 570.068 93.2434Z" fill="#269DBD"/>
<path d="M583.957 51.0195C583.244 51.3451 582.338 51.6087 581.171 51.7306C580.101 51.8413 578.967 51.6863 577.902 51.3363C576.812 51.2255 575.99 51.0749 575.53 50.9774C575.368 54.3311 574.606 58.1299 572.695 61.9753C568.123 71.1746 569.707 89.6218 570.019 92.7761L571.866 92.7251C572.969 86.2726 574.772 80.3051 576.198 75.7864C577.519 71.6043 580.458 64.0929 581.361 61.8048C581.239 60.046 581.173 58.2651 581.173 56.4753C581.173 58.2628 581.239 60.046 581.361 61.8048C581.532 61.3706 581.631 61.1225 581.631 61.1225C581.631 61.1225 581.534 61.3706 581.361 61.8048C582.36 76.3423 587.045 89.3604 588.156 92.2821L589.953 92.2334C589.877 90.8157 589.798 88.5962 589.747 85.1252C589.616 76.3091 592.584 66.3169 593.457 59.3327C593.851 56.1762 593.025 53.2324 591.99 50.4746C589.275 51.56 586.431 51.7904 583.957 51.0195Z" fill="#330000"/>
<path d="M575.556 50.16C575.552 50.4281 575.541 50.7005 575.527 50.9752C575.988 51.0727 576.81 51.2233 577.899 51.334C577.056 51.0571 576.254 50.654 575.556 50.16Z" fill="#047492"/>
<path d="M586.67 45.0854C585.558 43.1871 582.285 44.0044 582.285 44.0044C579.798 44.463 578.325 43.8405 577.702 43.5127C577.343 43.3244 576.057 43.0608 574.945 43.4994C574.132 43.8206 573.412 44.5183 573.217 45.9028C572.991 47.5242 574.008 49.0637 575.554 50.1579C576.249 50.6519 577.053 51.055 577.899 51.3319C578.967 51.6841 580.101 51.837 581.168 51.7262C582.336 51.6066 583.242 51.3408 583.955 51.0152C584.624 50.7095 585.12 50.3484 585.496 49.9984C585.614 49.7947 585.727 49.5156 585.72 49.221C585.705 48.6317 585.033 48.5343 585.033 48.5343C584.998 48.5542 584.963 48.5719 584.929 48.5874C584.909 48.5963 584.889 48.6052 584.87 48.614C584.608 48.7226 584.407 48.7203 584.283 48.696C583.68 48.6539 583.115 48.2618 583.399 47.6505C583.399 47.6505 583.922 46.6204 585.166 47.0768C585.733 47.285 585.837 47.5574 585.744 47.8122C585.948 47.8432 586.165 47.8875 586.393 47.9429C586.582 47.9894 586.746 48.0602 586.892 48.1489C587.195 47.4865 587.432 46.3879 586.67 45.0854Z" fill="#845C47"/>
<path d="M584.283 48.7004C584.409 48.7247 584.611 48.7269 584.87 48.6184C584.69 48.6893 584.484 48.7159 584.283 48.7004Z" fill="white"/>
<path d="M585.034 48.5386C585 48.5585 584.965 48.5762 584.929 48.5917C584.963 48.5762 584.998 48.5585 585.034 48.5386Z" fill="white"/>
<path d="M585.742 47.8188C585.833 47.5618 585.731 47.2916 585.164 47.0834C583.922 46.6248 583.397 47.6571 583.397 47.6571C583.113 48.2684 583.678 48.6605 584.28 48.7026C584.185 48.6849 584.132 48.6561 584.132 48.6561C584.023 47.8476 584.706 47.6593 585.742 47.8188Z" fill="#047492"/>
<path d="M584.929 48.594C584.909 48.6029 584.89 48.6117 584.87 48.6206C584.89 48.6117 584.909 48.6029 584.929 48.594Z" fill="white"/>
<path d="M579.16 15.0555C578.014 15.071 577.702 14.0255 577.702 14.0255C577.702 14.0255 578.014 15.0732 579.16 15.0555ZM579.16 15.0555C580.305 15.04 581.042 14.3511 581.401 13.6644C581.042 14.3533 580.305 15.04 579.16 15.0555Z" stroke="#6D1D1D" stroke-width="0.235537" stroke-miterlimit="10" stroke-linecap="round" stroke-linejoin="round"/>
<path d="M586.785 12.4949C586.73 12.1914 586.584 12.0497 586.584 12.0497C586.584 12.0497 586.73 12.1914 586.785 12.4949ZM586.785 12.4949C586.827 12.7275 586.819 13.0553 586.648 13.4895C586.816 13.0553 586.827 12.7275 586.785 12.4949ZM586.785 12.4949C586.223 12.7762 586.212 13.4363 586.212 13.5449C586.212 13.4363 586.223 12.7762 586.785 12.4949Z" stroke="#6D1D1D" stroke-width="0.235537" stroke-miterlimit="10" stroke-linecap="round" stroke-linejoin="round"/>
<path d="M585.924 12.2601C585.924 12.2601 586.429 10.7627 587.321 11.4295C588.214 12.0962 586.852 14.6923 585.924 14.3667C585.611 14.2559 585.625 13.9126 585.778 13.5028" stroke="#6D1D1D" stroke-width="0.235537" stroke-miterlimit="10" stroke-linecap="round" stroke-linejoin="round"/>
<path d="M580.726 11.0153C580.848 11.0153 580.947 10.9161 580.947 10.7938C580.947 10.6714 580.848 10.5723 580.726 10.5723C580.603 10.5723 580.504 10.6714 580.504 10.7938C580.504 10.9161 580.603 11.0153 580.726 11.0153Z" fill="#6D1D1D"/>
<path d="M578.599 10.6165C578.599 10.7384 578.5 10.838 578.378 10.838C578.256 10.838 578.156 10.7384 578.156 10.6165C578.156 10.4947 578.256 10.395 578.378 10.395C578.5 10.395 578.599 10.4947 578.599 10.6165Z" fill="#6D1D1D"/>
<path d="M572.695 28.1312C572.695 28.1312 569.448 30.9112 571.089 36.6283L572.185 35.5828C572.187 35.5828 570.564 32.4108 572.695 28.1312Z" fill="#047492"/>
<path d="M587.651 30.3574C587.651 30.3574 589.273 32.094 590.524 34.4553L591.242 33.1817C591.244 33.1817 589.022 31.0685 587.651 30.3574Z" fill="#047492"/>
<path d="M582.976 45.8364C583.445 45.8364 583.826 45.5825 583.826 45.2693C583.826 44.9562 583.445 44.7023 582.976 44.7023C582.506 44.7023 582.125 44.9562 582.125 45.2693C582.125 45.5825 582.506 45.8364 582.976 45.8364Z" fill="#EBAB0D"/>
<path d="M579.811 46.2085C580.28 46.2085 580.661 45.9546 580.661 45.6414C580.661 45.3282 580.28 45.0743 579.811 45.0743C579.341 45.0743 578.96 45.3282 578.96 45.6414C578.96 45.9546 579.341 46.2085 579.811 46.2085Z" fill="#FFE08F"/>
<path d="M576.715 45.2694C577.184 45.2694 577.565 45.0155 577.565 44.7023C577.565 44.3891 577.184 44.1353 576.715 44.1353C576.245 44.1353 575.864 44.3891 575.864 44.7023C575.864 45.0155 576.245 45.2694 576.715 45.2694Z" fill="#11CEA2"/>
<path d="M574.861 46.7756C575.33 46.7756 575.711 46.5217 575.711 46.2085C575.711 45.8954 575.33 45.6415 574.861 45.6415C574.391 45.6415 574.01 45.8954 574.01 46.2085C574.01 46.5217 574.391 46.7756 574.861 46.7756Z" fill="#1037A3"/>
<path d="M575.953 48.6828C576.422 48.6828 576.803 48.4289 576.803 48.1158C576.803 47.8026 576.422 47.5487 575.953 47.5487C575.483 47.5487 575.102 47.8026 575.102 48.1158C575.102 48.4289 575.483 48.6828 575.953 48.6828Z" fill="#330000"/>
<path d="M577.902 50.2533C578.371 50.2533 578.752 49.9994 578.752 49.6862C578.752 49.373 578.371 49.1191 577.902 49.1191C577.432 49.1191 577.051 49.373 577.051 49.6862C577.051 49.9994 577.432 50.2533 577.902 50.2533Z" fill="#85BEF2"/>
<path d="M592.969 1.16272C591.971 0.114981 589.796 -0.571695 588.405 0.655462C587.871 1.12727 587.627 1.60573 587.53 2.01995C588.201 2.10413 589.745 2.42974 590.761 3.69234C591.361 4.43882 591.807 5.22961 592.115 5.8742C592.558 5.79002 593.014 5.57959 593.397 5.13879C594.591 3.76322 593.968 2.21045 592.969 1.16272Z" fill="#EBAB0D"/>
<path d="M587.53 2.0177C587.441 2.3854 587.468 2.69995 587.51 2.90595C587.696 3.01227 587.88 3.12081 588.061 3.23821C589.237 4.0002 590.123 4.88402 590.759 5.81435C591.104 5.90074 591.601 5.96941 592.112 5.87195C591.804 5.22736 591.359 4.43436 590.759 3.69009C589.745 2.42971 588.201 2.10187 587.53 2.0177Z" fill="#CC8F09"/>
</g>
<defs>
<clipPath id="clip0">
<rect width="58.1777" height="96.8058" fill="white" transform="translate(543)"/>
</clipPath>
</defs>
</svg>
