<svg width="186" height="114" viewBox="0 0 186 114" fill="none" xmlns="http://www.w3.org/2000/svg">
<rect x="1.1181" y="40.4641" width="0.855741" height="2.79082" rx="0.42787" transform="rotate(174.525 1.1181 40.4641)" fill="#269DBD"/>
<path opacity="0.07" d="M144.715 64.7509H156.064C158.926 64.7509 161.246 62.431 161.246 59.5695C161.246 56.7079 158.926 54.388 156.064 54.388H144.716C141.854 54.388 139.534 56.7079 139.534 59.5695C139.534 62.432 141.854 64.7509 144.715 64.7509Z" fill="#269DBD"/>
<path opacity="0.07" d="M35.4943 54.389H24.1459C21.2843 54.389 18.9644 56.7089 18.9644 59.5704C18.9644 62.432 21.2843 64.7519 24.1459 64.7519H35.4943C38.3559 64.7519 40.6758 62.432 40.6758 59.5704C40.6758 56.7089 38.3559 54.389 35.4943 54.389Z" fill="#269DBD"/>
<path opacity="0.07" d="M134.994 49.2084C134.994 46.3469 132.675 44.027 129.813 44.027H127.544C124.682 44.027 122.362 46.3469 122.362 49.2084C122.362 52.07 124.682 54.3899 127.544 54.3899H129.813C132.676 54.3889 134.994 52.069 134.994 49.2084Z" fill="#269DBD"/>
<path opacity="0.07" d="M24.6391 33.665H13.6608C10.7993 33.665 8.47937 35.9849 8.47937 38.8465C8.47937 41.7081 10.7993 44.028 13.6608 44.028H24.6401C27.5017 44.028 29.8215 41.7081 29.8215 38.8465C29.8206 35.9849 27.5007 33.665 24.6391 33.665Z" fill="#269DBD"/>
<path opacity="0.07" d="M159.074 28.4845C159.074 31.3461 161.394 33.666 164.256 33.666H166.525C169.387 33.666 171.707 31.3461 171.707 28.4845C171.707 25.6229 169.387 23.303 166.525 23.303H164.256C161.394 23.303 159.074 25.6229 159.074 28.4845Z" fill="#269DBD"/>
<path opacity="0.07" d="M123.618 75.1129H124.09C126.951 75.1129 129.271 72.793 129.271 69.9314C129.271 67.0698 126.951 64.7499 124.09 64.7499H106.425C103.564 64.7499 101.244 62.43 101.244 59.5685C101.244 56.7069 103.564 54.387 106.425 54.387H108.498C111.36 54.387 113.679 52.0671 113.679 49.2055C113.679 46.344 111.36 44.0241 108.498 44.0241H99.9859C97.1243 44.0241 94.8045 41.7042 94.8045 38.8426C94.8045 35.981 97.1243 33.6611 99.9859 33.6611H150.736C153.597 33.6611 155.917 31.3413 155.917 28.4797C155.917 25.6181 153.597 23.2982 150.736 23.2982H66.3796C63.518 23.2982 61.1981 25.6181 61.1981 28.4797C61.1981 31.3413 58.8782 33.6611 56.0166 33.6611H39.1456C36.2841 33.6611 33.9642 35.981 33.9642 38.8426C33.9642 41.7042 36.2841 44.0241 39.1456 44.0241H44.3513C47.2129 44.0241 49.5328 46.344 49.5328 49.2055C49.5328 52.0671 51.8527 54.387 54.7142 54.387H56.0186C58.8802 54.387 61.2 56.7069 61.2 59.5685C61.2 62.43 58.8802 64.7499 56.0186 64.7499H48.5957C45.7341 64.7499 43.4143 67.0698 43.4143 69.9314C43.4143 72.793 41.0944 75.1129 38.2328 75.1129H35.001C32.1395 75.1129 29.8196 77.4327 29.8196 80.2943C29.8196 83.1559 32.1395 85.4758 35.001 85.4758H39.0226C41.8841 85.4758 44.204 87.7957 44.204 90.6572C44.204 93.5188 46.5239 95.8387 49.3855 95.8387H131.073C133.934 95.8387 136.254 93.5188 136.254 90.6572C136.254 87.7957 133.934 85.4758 131.073 85.4758H123.619C120.757 85.4758 118.437 83.1559 118.437 80.2943C118.436 77.4327 120.756 75.1129 123.618 75.1129ZM61.1991 80.2943C61.1991 77.4327 63.519 75.1129 66.3805 75.1129H99.6167C102.478 75.1129 104.798 77.4327 104.798 80.2943C104.798 83.1559 102.478 85.4758 99.6167 85.4758H66.3796C63.519 85.4748 61.1991 83.1559 61.1991 80.2943Z" fill="#269DBD"/>
<path opacity="0.07" d="M147.457 85.4749H150.736C153.597 85.4749 155.917 83.155 155.917 80.2934C155.917 77.4318 153.597 75.1119 150.736 75.1119H147.457C144.596 75.1119 142.276 77.4318 142.276 80.2934C142.276 83.1559 144.596 85.4749 147.457 85.4749Z" fill="#269DBD"/>
<g clip-path="url(#clip0)">
<path d="M36.1008 114C47.253 114 56.2937 113.055 56.2937 111.889C56.2937 110.723 47.253 109.778 36.1008 109.778C24.9486 109.778 15.908 110.723 15.908 111.889C15.908 113.055 24.9486 114 36.1008 114Z" fill="#F4F4F4"/>
<path d="M3.04181 42.8291L3.3829 42.6143L10.4417 51.2243L9.93445 51.5964L3.04181 42.8291Z" fill="#330000"/>
<path d="M3.3829 42.6143C3.3829 42.6143 3.78601 41.8102 3.22786 41.4048C2.66972 40.9995 1.3253 40.696 0.944345 39.9628C0.944345 39.9628 0.776016 41.7969 3.04182 42.8291L3.3829 42.6143Z" fill="#269DBD"/>
<path d="M37.0731 39.8144C37.268 39.9429 37.4962 40.0803 37.7597 40.2154C38.0233 40.3505 38.3201 40.4856 38.6479 40.6097C38.8672 40.6916 39.1019 40.7691 39.3522 40.8378C39.9746 41.0106 40.69 41.1324 41.4918 41.159C43.6801 41.2277 45.6978 40.3992 46.8694 39.7923C45.4076 38.9483 44.3888 38.5009 44.3888 38.5009C43.6291 38.1376 43.009 37.6237 42.7144 36.8927C41.638 34.2169 43.5981 31.8623 43.8395 31.5876C43.5604 31.4658 43.5737 31.1335 43.7221 30.737C43.5737 31.1335 43.5604 31.4658 43.8395 31.5876C43.855 31.5699 43.8639 31.561 43.8639 31.561C44.092 31.5943 44.2825 31.561 44.4442 31.4946C44.6945 31.3351 44.9381 31.0538 45.133 30.7237C45.3567 30.2586 45.514 29.8333 45.5538 29.4766C45.576 29.1355 45.4962 28.8365 45.2681 28.6659C44.3755 27.9992 43.8705 29.4966 43.8705 29.4966C43.8705 29.4966 44.3755 27.9992 45.2681 28.6659C45.4962 28.8365 45.576 29.1333 45.5538 29.4766C45.6003 29.0624 45.4874 28.7435 45.1352 28.5707C44.4265 28.2229 43.1396 28.8808 42.6479 29.7646C41.9768 30.9718 42.8229 32.4537 42.8229 32.4537C41.4209 31.5566 41.6003 29.388 42.5837 28.7235C43.6668 27.9903 44.1718 27.2461 43.7177 25.5161C43.1463 23.3298 41.6889 23.3121 39.8129 23.0728C38.185 22.8646 36.2116 23.2323 35.2769 26.4575C35.3323 26.535 35.3677 26.5749 35.3677 26.5749C35.3677 26.5749 35.3323 26.5328 35.2769 26.4575C35.1351 26.9492 35.0155 27.503 34.9269 28.1365C34.2514 32.9145 35.7442 34.6821 35.7442 34.6821C36.9712 36.2969 38.6855 35.4751 39.525 35.7232C40.4153 35.989 40.515 36.7266 40.422 37.2117C40.2492 38.1044 39.474 38.5474 36.5947 39.4711C36.7188 39.5686 36.8782 39.6882 37.0731 39.8144Z" fill="#F4D7C6"/>
<path d="M45.5538 66.1452C45.6048 66.2426 45.6446 66.3401 45.6801 66.4309C47.1973 65.7265 48.3601 65.0066 48.772 64.743C47.8772 62.5146 47.0998 60.417 47.0577 58.4411C46.9625 53.9733 48.7211 51.0671 49.1884 50.376C47.3744 48.6106 45.5959 47.5517 45.5959 47.5517C45.5959 47.5517 47.3744 48.6106 49.1884 50.376C49.2593 50.2697 49.3014 50.2143 49.3014 50.2143C49.3014 50.2143 49.2593 50.2697 49.1884 50.376C49.6934 50.8677 50.2028 51.4126 50.6746 52.0063C50.7167 52.0018 50.761 51.9952 50.8097 51.9863C51.3789 51.8955 52.2981 51.6275 53.4875 50.8744C53.7842 50.6861 54.101 50.4668 54.431 50.2121C54.5462 50.1235 54.6547 50.0349 54.761 49.9463C54.8651 49.8576 54.967 49.7668 55.0622 49.6782C55.4853 49.2817 55.8131 48.8852 56.0722 48.5109C54.0323 44.424 49.6513 41.3938 46.8717 39.7901C45.6978 40.3992 43.6823 41.2277 41.494 41.1568C40.6922 41.1302 39.9768 41.0084 39.3544 40.8356C39.1064 40.7669 38.8716 40.6894 38.6501 40.6075C38.3201 40.4834 38.0233 40.3505 37.762 40.2132C37.4984 40.0781 37.2703 39.9407 37.0754 39.8122C36.8804 39.6838 36.721 39.5664 36.5947 39.4645C35.6756 39.7591 34.5416 40.1024 33.144 40.5277C28.8848 41.8191 25.5581 44.6854 22.7939 47.2527C22.8582 47.9992 23.1483 49.6937 24.413 51.6076C25.6533 53.486 27.0221 54.4805 27.6711 54.8815C28.9468 53.9888 29.8062 53.1249 30.1318 52.7749C29.4917 50.582 29.2591 47.9682 30.639 45.3234C29.2569 47.9682 29.4917 50.582 30.1318 52.7749C30.2292 52.6708 30.2802 52.611 30.2802 52.611C30.2802 52.611 30.227 52.6708 30.1318 52.7749C30.6523 54.5558 31.4408 56.0599 31.8505 57.0722C32.1141 57.719 32.5371 58.9838 32.8893 60.6916C34.0011 60.2508 35.288 60.5166 35.6468 60.7049C36.2691 61.0327 37.742 61.6552 40.2293 61.1967C40.2293 61.1967 43.5029 60.3793 44.6147 62.2776C45.3766 63.5779 45.1397 64.6766 44.834 65.3477C44.8916 65.381 44.9447 65.4186 44.9957 65.4585C45.0466 65.4984 45.0954 65.5382 45.1397 65.5803C45.3191 65.7531 45.4542 65.9502 45.5538 66.1452Z" fill="#269DBD"/>
<path d="M36.5925 39.4689C36.7188 39.5686 36.8782 39.6882 37.0732 39.8167C36.8782 39.6882 36.7188 39.5686 36.5925 39.4689Z" fill="#269DBD"/>
<path d="M37.7597 40.2154C37.4962 40.0803 37.268 39.9429 37.0731 39.8145C37.268 39.9429 37.4984 40.0803 37.7597 40.2154Z" fill="#269DBD"/>
<path d="M46.8296 67.6713C53.8064 66.5195 58.0434 60.2752 57.1287 51.9908C56.9936 50.7614 56.6148 49.5985 56.0722 48.5109C55.813 48.8874 55.4852 49.2817 55.0622 49.6782C54.967 49.7668 54.8673 49.8576 54.761 49.9462C54.6569 50.0348 54.5461 50.1234 54.431 50.212C54.101 50.4668 53.7864 50.6839 53.4874 50.8744C52.2958 51.6275 51.3767 51.8955 50.8097 51.9863C50.7632 51.993 50.7167 51.9996 50.6746 52.0063C52.3601 54.1195 53.6026 56.8285 52.7078 59.7923C51.8219 62.7251 50.3733 64.393 49.0134 65.3433C47.5361 66.3755 46.1651 66.5616 45.7354 66.5926C45.7199 66.5394 45.7022 66.4863 45.6801 66.4309C45.6468 66.3379 45.6048 66.2426 45.5538 66.1451C45.4541 65.9502 45.319 65.7531 45.1374 65.5825C45.0931 65.5404 45.0444 65.4983 44.9935 65.4607C44.9425 65.4208 44.8871 65.3854 44.8318 65.3499C44.6878 65.2635 44.5239 65.1904 44.3334 65.1439C44.1053 65.0885 43.8882 65.0442 43.6845 65.0132C42.6457 64.8538 41.9657 65.042 42.0743 65.8483C42.0743 65.8483 42.1274 65.8771 42.2227 65.8948C42.4242 65.9081 42.6302 65.8815 42.8096 65.8129C42.8295 65.804 42.8495 65.7974 42.8694 65.7863C42.9048 65.7708 42.9403 65.7531 42.9735 65.7331C42.9735 65.7331 43.6446 65.8306 43.6601 66.4198C43.669 66.7144 43.5538 66.9913 43.4364 67.1973C43.2769 67.3457 43.0975 67.4941 42.8916 67.6403C44.1297 67.8552 45.4497 67.8995 46.8296 67.6713Z" fill="#F4D7C6"/>
<path d="M45.5538 66.1452C45.4542 65.9502 45.3191 65.7531 45.1375 65.5825C45.3191 65.7531 45.4542 65.9502 45.5538 66.1452Z" fill="#F4D7C6"/>
<path d="M55.06 49.6805C55.483 49.284 55.8108 48.8875 56.07 48.5131C55.813 48.8875 55.483 49.284 55.06 49.6805Z" fill="#F4D7C6"/>
<path d="M50.6746 52.0063C50.7167 52.0019 50.761 51.9952 50.8097 51.9864C50.761 51.9952 50.7167 52.0019 50.6746 52.0063Z" fill="#F4D7C6"/>
<path d="M47.6159 39.2718C46.7476 38.8287 45.9968 38.4566 45.4586 38.1465C45.3678 38.0933 45.2792 38.0424 45.2017 37.9937C43.3811 36.8662 43.3988 34.5736 44.0123 32.9012C44.1341 32.5689 44.2781 32.261 44.4376 31.993C44.6325 31.6629 44.8185 31.3373 44.9802 31.0272C44.8717 31.1934 44.6989 31.3861 44.4464 31.4924C44.2515 31.6164 44.0522 31.6652 43.8705 31.6009C43.8595 31.5965 43.8528 31.5899 43.8418 31.5854C43.6003 31.8601 41.6402 34.2147 42.7166 36.8905C43.0112 37.6215 43.6313 38.1354 44.391 38.4987C44.391 38.4987 45.4099 38.9484 46.8717 39.7901C47.2393 39.5996 47.5273 39.429 47.7067 39.3161C47.6757 39.3028 47.6469 39.2873 47.6159 39.2718Z" fill="#F1BA9A"/>
<path d="M56.0722 48.5108C56.6326 47.7001 56.8607 46.9847 56.9493 46.5837C54.905 43.1371 50.6547 40.8223 47.7067 39.316C47.5251 39.429 47.2393 39.5974 46.8717 39.7901C49.6513 41.3938 54.0323 44.424 56.0722 48.5108Z" fill="#047492"/>
<path d="M49.9304 67.6714C52.1563 66.7831 54.2959 65.319 56.0677 63.3608C60.0921 58.9085 59.7887 51.9376 57.1796 46.9958C57.1065 46.8562 57.029 46.7211 56.9493 46.586C56.8607 46.9869 56.6325 47.7002 56.0722 48.5131C56.6148 49.6007 56.9935 50.7614 57.1287 51.993C58.0456 60.2774 53.8064 66.5217 46.8296 67.6736C45.4497 67.9017 44.1297 67.8574 42.896 67.6426C42.6147 67.8442 42.2869 68.0391 41.8993 68.2163C44.3733 68.9849 47.2172 68.7546 49.9304 67.6714Z" fill="#F1BA9A"/>
<path d="M56.0722 48.5109C56.6326 47.7002 56.8607 46.9847 56.9493 46.586C56.8585 46.9869 56.6303 47.7002 56.0722 48.5109Z" fill="#F4D7C6"/>
<path d="M44.4464 31.4924C44.6988 31.3861 44.8716 31.1934 44.9801 31.0272C45.0333 30.9231 45.0864 30.8212 45.133 30.7216C44.938 31.0516 44.6944 31.3351 44.4464 31.4924Z" fill="#F4D7C6"/>
<path d="M43.8661 31.5588C43.8661 31.5588 43.8572 31.5677 43.8417 31.5854C43.8528 31.5898 43.8595 31.5965 43.8705 31.6009C44.0521 31.6651 44.2515 31.6164 44.4464 31.4924C44.2869 31.5588 44.0942 31.592 43.8661 31.5588Z" fill="#047492"/>
<path d="M39.8129 23.0705C41.6889 23.3098 43.1463 23.3275 43.7177 25.5138C44.1695 27.2438 43.6667 27.988 42.5837 28.7212C41.6025 29.3857 41.4209 31.5543 42.8229 32.4514C42.8229 32.4514 41.979 30.9695 42.6479 29.7623C43.1396 28.8785 44.4264 28.2184 45.1352 28.5684C45.4874 28.7412 45.6003 29.0601 45.5538 29.4743C45.5294 29.8708 45.3655 30.3294 45.133 30.7214C44.9403 31.1224 44.6989 31.5521 44.4375 31.9929C44.278 32.2609 44.1341 32.5688 44.0123 32.9011C44.8229 32.735 47.1972 32.1103 48.8185 30.2363C50.2759 28.5507 50.4708 25.598 48.7033 23.0085C48.4132 22.9376 48.2294 22.8557 48.2294 22.8557C48.2294 22.8557 48.4132 22.9376 48.7033 23.0085C48.0677 22.0782 47.1817 21.1944 46.0056 20.4324C45.824 20.315 45.638 20.2042 45.4541 20.1001C45.4874 20.2685 45.5317 20.3681 45.5317 20.3681C45.5317 20.3681 45.4874 20.2685 45.4541 20.1001C41.1197 17.6325 36.1008 18.5894 34.7962 21.3826C33.6179 23.9078 34.9136 25.9524 35.2791 26.453C36.2115 23.23 38.185 22.8623 39.8129 23.0705Z" fill="#EBAB0D"/>
<path d="M24.4085 51.6097C23.1439 49.6958 22.8559 48.0013 22.7895 47.2548C20.249 49.6161 18.1826 51.7249 16.3022 52.1324C12.3752 52.983 9.18361 46.9115 9.18361 46.9115C6.3043 45.6688 5.55125 44.0141 5.20794 44.2113C4.86464 44.4084 5.86354 45.9457 6.43497 46.3555C7.00862 46.7653 8.47486 48.8386 7.69523 48.3203C7.0352 47.8795 6.2002 46.8495 6.2002 46.8495C5.29211 47.6602 7.40951 49.1664 8.19579 49.6914C8.98206 50.2142 12.2977 56.6313 18.9312 57.3711C22.5791 57.7787 25.6444 56.299 27.6666 54.8858C27.0177 54.4826 25.6489 53.4881 24.4085 51.6097Z" fill="#F4D7C6"/>
<path d="M45.1352 30.7214C45.3678 30.3293 45.5316 29.873 45.556 29.4743C45.5161 29.8309 45.3589 30.2562 45.1352 30.7214Z" fill="white"/>
<path d="M46.3357 110.088C44.329 110.088 44.4597 111.889 44.4597 111.889H48.1253C48.1253 111.889 48.0123 111.612 47.8949 109.428L46.0987 109.476C46.2515 109.877 46.3357 110.088 46.3357 110.088Z" fill="#269DBD"/>
<path d="M45.6801 66.4308C45.7 66.4862 45.7177 66.5416 45.7354 66.5925C46.1651 66.5593 47.5361 66.3754 49.0134 65.3432C48.9315 65.1416 48.8517 64.9423 48.772 64.7429C48.36 65.0065 47.1972 65.7264 45.6801 66.4308Z" fill="#330000"/>
<path d="M28.0099 110.438C26.7452 110.394 26.5259 111.889 26.5259 111.889H29.4938C29.5891 111.229 29.6976 110.573 29.8084 109.92L27.9612 109.971C27.99 110.272 28.0099 110.438 28.0099 110.438Z" fill="#269DBD"/>
<path d="M41.8993 68.2139C41.1861 68.5395 40.2802 68.8031 39.113 68.925C38.0432 69.0357 36.9092 68.8807 35.8439 68.5307C34.7542 68.4199 33.9325 68.2693 33.4718 68.1718C33.3101 71.5255 32.5482 75.3243 30.6367 79.1697C26.0653 88.369 27.6489 106.816 27.9612 109.97L29.8084 109.919C30.9114 103.467 32.7143 97.4995 34.1407 92.9808C35.4607 88.7987 38.3998 81.2873 39.3035 78.9992C39.1817 77.2404 39.1152 75.4595 39.1152 73.6697C39.1152 75.4572 39.1817 77.2404 39.3035 78.9992C39.474 78.565 39.5737 78.3169 39.5737 78.3169C39.5737 78.3169 39.4762 78.565 39.3035 78.9992C40.3024 93.5367 44.9868 106.555 46.0987 109.476L47.8949 109.428C47.8196 108.01 47.7399 105.791 47.6889 102.32C47.5583 93.5035 50.5262 83.5113 51.3988 76.5271C51.7931 73.3706 50.9669 70.4268 49.9326 67.669C47.2172 68.7544 44.3733 68.9848 41.8993 68.2139Z" fill="#330000"/>
<path d="M33.4983 67.3545C33.4939 67.6225 33.4828 67.895 33.4695 68.1696C33.9302 68.2671 34.7519 68.4177 35.8417 68.5285C34.9978 68.2516 34.196 67.8485 33.4983 67.3545Z" fill="#047492"/>
<path d="M44.6125 62.2797C43.5006 60.3814 40.227 61.1988 40.227 61.1988C37.7398 61.6573 36.2669 61.0349 35.6445 60.707C35.2857 60.5187 33.9989 60.2551 32.887 60.6937C32.0742 61.0149 31.3543 61.7127 31.1594 63.0971C30.9335 64.7185 31.9501 66.258 33.4961 67.3523C34.1916 67.8462 34.9956 68.2494 35.8416 68.5263C36.9092 68.8785 38.0432 69.0313 39.1108 68.9205C40.278 68.8009 41.1839 68.5351 41.8971 68.2095C42.5659 67.9038 43.0621 67.5428 43.4386 67.1928C43.556 66.989 43.6689 66.7099 43.6623 66.4153C43.6468 65.8261 42.9757 65.7286 42.9757 65.7286C42.9403 65.7485 42.9048 65.7663 42.8716 65.7818C42.8517 65.7906 42.8317 65.7995 42.8118 65.8084C42.5504 65.9169 42.3489 65.9147 42.2249 65.8903C41.6224 65.8482 41.0576 65.4562 41.3411 64.8448C41.3411 64.8448 41.8638 63.8148 43.1086 64.2711C43.6756 64.4793 43.7797 64.7518 43.6867 65.0065C43.8904 65.0375 44.1075 65.0818 44.3356 65.1372C44.5239 65.1837 44.6878 65.2546 44.834 65.3432C45.1374 64.6809 45.3744 63.5822 44.6125 62.2797Z" fill="#845C47"/>
<path d="M42.2249 65.8948C42.3511 65.9191 42.5527 65.9213 42.8118 65.8128C42.6324 65.8837 42.4264 65.9103 42.2249 65.8948Z" fill="white"/>
<path d="M42.9757 65.733C42.9425 65.753 42.907 65.7707 42.8716 65.7862C42.9048 65.7707 42.9402 65.753 42.9757 65.733Z" fill="white"/>
<path d="M43.6845 65.0131C43.7753 64.7562 43.6734 64.4859 43.1064 64.2777C41.8639 63.8192 41.3389 64.8514 41.3389 64.8514C41.0554 65.4628 41.6202 65.8548 42.2227 65.8969C42.1274 65.8792 42.0743 65.8504 42.0743 65.8504C41.9657 65.0419 42.6479 64.8536 43.6845 65.0131Z" fill="#047492"/>
<path d="M42.8716 65.7884C42.8517 65.7973 42.8318 65.8061 42.8118 65.815C42.8318 65.8061 42.8517 65.7973 42.8716 65.7884Z" fill="white"/>
<path d="M37.1019 32.2499C35.9568 32.2654 35.6445 31.2199 35.6445 31.2199C35.6445 31.2199 35.9568 32.2676 37.1019 32.2499ZM37.1019 32.2499C38.247 32.2344 38.9845 31.5455 39.3433 30.8588C38.9845 31.5477 38.247 32.2344 37.1019 32.2499Z" stroke="#6D1D1D" stroke-width="0.235537" stroke-miterlimit="10" stroke-linecap="round" stroke-linejoin="round"/>
<path d="M44.7276 29.6893C44.6723 29.3858 44.5261 29.244 44.5261 29.244C44.5261 29.244 44.6723 29.3858 44.7276 29.6893ZM44.7276 29.6893C44.7697 29.9218 44.7609 30.2497 44.5903 30.6838C44.7586 30.2497 44.7697 29.9218 44.7276 29.6893ZM44.7276 29.6893C44.1651 29.9706 44.154 30.6307 44.154 30.7392C44.154 30.6307 44.1651 29.9706 44.7276 29.6893Z" stroke="#6D1D1D" stroke-width="0.235537" stroke-miterlimit="10" stroke-linecap="round" stroke-linejoin="round"/>
<path d="M43.8661 29.4545C43.8661 29.4545 44.3711 27.9571 45.2636 28.6238C46.1562 29.2906 44.7941 31.8866 43.8661 31.561C43.5538 31.4503 43.5671 31.1069 43.7199 30.6971" stroke="#6D1D1D" stroke-width="0.235537" stroke-miterlimit="10" stroke-linecap="round" stroke-linejoin="round"/>
<path d="M38.6678 28.2096C38.7902 28.2096 38.8893 28.1104 38.8893 27.9881C38.8893 27.8658 38.7902 27.7666 38.6678 27.7666C38.5455 27.7666 38.4464 27.8658 38.4464 27.9881C38.4464 28.1104 38.5455 28.2096 38.6678 28.2096Z" fill="#6D1D1D"/>
<path d="M36.5415 27.8109C36.5415 27.9327 36.4419 28.0324 36.3201 28.0324C36.1982 28.0324 36.0986 27.9327 36.0986 27.8109C36.0986 27.689 36.1982 27.5894 36.3201 27.5894C36.4419 27.5894 36.5415 27.689 36.5415 27.8109Z" fill="#6D1D1D"/>
<path d="M30.6367 45.3256C30.6367 45.3256 27.3897 48.1055 29.0309 53.8226L30.1273 52.7771C30.1295 52.7771 28.506 49.6051 30.6367 45.3256Z" fill="#047492"/>
<path d="M45.5937 47.5517C45.5937 47.5517 47.215 49.2883 48.4664 51.6496L49.184 50.3759C49.1862 50.3759 46.9647 48.2627 45.5937 47.5517Z" fill="#047492"/>
<path d="M40.9181 63.0307C41.3879 63.0307 41.7686 62.7768 41.7686 62.4637C41.7686 62.1505 41.3879 61.8966 40.9181 61.8966C40.4484 61.8966 40.0676 62.1505 40.0676 62.4637C40.0676 62.7768 40.4484 63.0307 40.9181 63.0307Z" fill="#EBAB0D"/>
<path d="M37.7531 63.4028C38.2228 63.4028 38.6036 63.1489 38.6036 62.8357C38.6036 62.5226 38.2228 62.2687 37.7531 62.2687C37.2834 62.2687 36.9026 62.5226 36.9026 62.8357C36.9026 63.1489 37.2834 63.4028 37.7531 63.4028Z" fill="#FFE08F"/>
<path d="M34.6567 62.4636C35.1264 62.4636 35.5072 62.2098 35.5072 61.8966C35.5072 61.5834 35.1264 61.3295 34.6567 61.3295C34.187 61.3295 33.8062 61.5834 33.8062 61.8966C33.8062 62.2098 34.187 62.4636 34.6567 62.4636Z" fill="#11CEA2"/>
<path d="M32.8028 63.9699C33.2726 63.9699 33.6533 63.7161 33.6533 63.4029C33.6533 63.0897 33.2726 62.8358 32.8028 62.8358C32.3331 62.8358 31.9523 63.0897 31.9523 63.4029C31.9523 63.7161 32.3331 63.9699 32.8028 63.9699Z" fill="#1037A3"/>
<path d="M33.8948 65.8771C34.3645 65.8771 34.7453 65.6232 34.7453 65.31C34.7453 64.9969 34.3645 64.743 33.8948 64.743C33.4251 64.743 33.0443 64.9969 33.0443 65.31C33.0443 65.6232 33.4251 65.8771 33.8948 65.8771Z" fill="#330000"/>
<path d="M35.8439 67.4476C36.3136 67.4476 36.6944 67.1937 36.6944 66.8805C36.6944 66.5674 36.3136 66.3135 35.8439 66.3135C35.3741 66.3135 34.9933 66.5674 34.9933 66.8805C34.9933 67.1937 35.3741 67.4476 35.8439 67.4476Z" fill="#85BEF2"/>
<path d="M50.9116 18.3569C49.9127 17.3091 47.7377 16.6225 46.3468 17.8496C45.813 18.3214 45.5694 18.7999 45.4719 19.2141C46.143 19.2983 47.6868 19.6239 48.7034 20.8865C49.3036 21.633 49.7488 22.4238 50.0567 23.0684C50.4996 22.9842 50.9559 22.7737 51.3391 22.3329C52.5329 20.9574 51.9105 19.4046 50.9116 18.3569Z" fill="#EBAB0D"/>
<path d="M45.4719 19.2119C45.3833 19.5796 45.4099 19.8942 45.452 20.1002C45.638 20.2065 45.8219 20.315 46.0035 20.4324C47.1796 21.1944 48.0655 22.0782 48.7012 23.0086C49.0467 23.095 49.5428 23.1636 50.0544 23.0662C49.7466 22.4216 49.3014 21.6286 48.7012 20.8843C47.6868 19.6239 46.143 19.2961 45.4719 19.2119Z" fill="#CC8F09"/>
</g>
<g clip-path="url(#clip1)">
<path d="M93.3632 114C106.322 114 116.826 112.901 116.826 111.544C116.826 110.188 106.322 109.089 93.3632 109.089C80.4048 109.089 69.8999 110.188 69.8999 111.544C69.8999 112.901 80.4048 114 93.3632 114Z" fill="#F4F4F4"/>
<path d="M111.145 21.7734C112.559 18.9677 109.655 17.0504 109.634 17.0354C104.58 16.049 99.0919 24.8032 98.4796 27.1326C97.848 29.5326 100.246 30.7966 101.509 31.1745C102.772 31.5524 102.518 32.4385 102.518 32.4385C102.518 32.4385 102.444 33.1538 101.593 33.2072C101.469 33.2157 101.23 33.2157 100.903 33.2264C101.174 34.0442 101.994 35.2804 104.452 34.8342C103.566 31.1788 109.726 24.5896 111.145 21.7734Z" fill="#845C47"/>
<path d="M109.589 29.4065C112.997 25.2387 115.269 18.7947 110.095 17.1528C109.941 17.1037 109.788 17.0652 109.634 17.0353C109.655 17.0482 112.559 18.9677 111.145 21.7733C109.726 24.5896 103.566 31.1787 104.452 34.8341C105.124 34.7124 105.917 34.4647 106.856 34.0484C106.092 33.4441 106.438 33.2626 109.589 29.4065Z" fill="#724835"/>
<path d="M95.2898 49.8209C97.4042 48.527 98.8892 46.7057 99.9176 44.9485C99.9176 38.2611 100.931 36.9843 100.931 36.9843C104.609 36.6747 106.425 35.0947 107.14 34.2598C107.114 34.2427 107.089 34.2235 107.065 34.2064C106.988 34.1488 106.92 34.0975 106.858 34.0484C102.482 35.9893 101.249 34.2662 100.905 33.2242C100.206 33.2456 99.1004 33.3032 97.863 33.5509C97.9099 34.2534 98.0849 35.5302 98.7505 36.3437C98.7505 36.3459 96.9007 42.2539 95.2898 49.8209Z" fill="#11CEA2"/>
<path d="M106.233 64.829C106.248 64.9721 106.267 65.1237 106.284 65.2817C109.06 65.3906 109.696 64.4853 109.696 64.4853C109.165 63.4155 108.697 62.1238 108.426 60.5993C107.626 56.109 109.182 51.4693 109.713 50.0686C107.748 54.9133 105.427 57.5438 106.233 64.829Z" fill="#FFE08F"/>
<path d="M93.632 59.2306C93.5531 59.8242 93.4784 60.4199 93.4101 61.0113C94.5431 61.3167 97.3872 61.9572 100.677 61.7565C100.56 61.2014 100.44 60.5373 100.325 59.743C97.1141 60.0291 94.6242 59.4954 93.632 59.2306Z" fill="#330000"/>
<path d="M82.5928 100.335C80.6 100.335 80.4399 102.41 80.4399 102.41H85.8614C85.7996 101.419 85.7718 100.435 85.774 99.4572H82.3346C82.4925 100.021 82.5928 100.335 82.5928 100.335Z" fill="#330000"/>
<path d="M109.882 49.6458C109.875 49.6608 109.811 49.8102 109.713 50.0707C109.769 49.9298 109.824 49.7889 109.882 49.6458Z" fill="white"/>
<path d="M100.325 59.7431C100.157 58.5794 99.9987 57.136 99.8686 55.351C98.3772 55.9126 96.6745 56.3545 94.7522 56.5702C94.5004 56.598 94.255 56.6214 94.0139 56.6428C93.8774 57.5011 93.7494 58.3659 93.6342 59.2306C94.6241 59.4954 97.1141 60.0292 100.325 59.7431Z" fill="#11CEA2"/>
<path d="M106.284 65.2816C105.134 65.2368 103.615 65.0169 101.622 64.4852C101.622 64.4852 101.164 64.0411 100.677 61.7565C97.3872 61.9572 94.5431 61.3166 93.4101 61.0113C93.3162 61.8355 93.233 62.6575 93.1648 63.4731C93.1648 63.4731 91.3725 63.2959 89.8214 62.9863C87.2867 69.4943 82.3559 74.2557 80.9989 81.1054C79.5502 88.4226 81.5835 96.7754 82.3346 99.4572H85.7739C85.7867 91.6958 87.7731 84.5515 90.9245 81.1865C93.9179 77.988 96.3929 72.5924 97.0906 70.9868C96.8687 68.9563 96.7279 66.7827 96.7044 64.4703C96.7279 66.7827 96.8687 68.9563 97.0906 70.9868C97.2207 70.69 97.289 70.5213 97.289 70.5213C97.289 70.5213 97.2207 70.69 97.0906 70.9868C97.9547 78.9019 100.076 84.5921 101.567 87.449C102.981 90.1585 107.891 102.5 110.214 108.393H112.928C111.448 99.3675 107.247 73.5341 106.284 65.2816Z" fill="#85BEF2"/>
<path d="M93.4101 61.0113C93.073 60.9195 92.8874 60.8597 92.8874 60.8597C92.8874 60.8597 93.073 60.9216 93.4101 61.0113C93.4784 60.4177 93.5531 59.8242 93.632 59.2306C93.3291 59.1495 93.1648 59.0939 93.1648 59.0939C93.1648 59.0939 93.3291 59.1495 93.632 59.2306C93.7472 58.3658 93.8753 57.5032 94.0118 56.6428C93.0346 56.726 92.1257 56.7495 91.2808 56.7196C91.0994 59.0235 90.5618 61.0796 89.8193 62.9864C91.3704 63.296 93.1626 63.4732 93.1626 63.4732C93.233 62.6597 93.3141 61.8376 93.4101 61.0113Z" fill="#FFE08F"/>
<path d="M110.217 108.393C110.972 110.31 111.454 111.544 111.454 111.544H113.447C113.447 111.544 113.253 110.372 112.928 108.393H110.217Z" fill="#330000"/>
<path d="M95.2899 49.8209C96.9007 42.2517 98.7506 36.3458 98.7506 36.3458C98.0849 35.5323 97.9078 34.2555 97.863 33.553C95.6824 33.9907 93.0965 35.0114 91.603 37.4348C88.8656 41.8759 89.6891 45.068 86.8728 44.6687C85.5521 44.4808 84.9973 42.6937 84.4895 40.9066C83.8665 42.1343 83.1176 42.7748 82.5757 43.1015C82.8061 46.6096 86.4695 50.4785 92.3092 49.6245C92.3284 49.3085 92.322 49.0843 92.322 49.0843C92.322 49.0843 92.3284 49.3085 92.3092 49.6245C92.8106 49.5519 93.3291 49.443 93.8625 49.2978C93.3291 49.4451 92.8106 49.5519 92.3092 49.6245C92.2815 50.0921 92.2004 50.7604 91.9678 51.2066C92.2687 51.134 92.5716 51.0486 92.8789 50.9461C93.7622 50.6515 94.5623 50.2671 95.2899 49.8209Z" fill="#FFE08F"/>
<path d="M84.4874 40.9066C83.9113 38.8824 83.6745 37.691 82.1489 37.7807C80.3311 37.8874 80.3439 39.6959 81.4961 39.6511C82.7207 39.6041 82.6439 40.6204 82.5671 42.54C82.5586 42.7257 82.5629 42.9115 82.5735 43.0994C83.1155 42.777 83.8644 42.1343 84.4874 40.9066Z" fill="#845C47"/>
<path d="M101.648 24.9291C102.501 24.8949 101.339 24.4529 101.339 24.4529C101.339 24.4529 101.012 24.2714 100.483 24.075L100.135 24.8757C100.376 24.9269 100.628 24.9889 100.897 25.0551C101.563 25.2216 100.795 24.9632 101.648 24.9291Z" fill="#330000"/>
<path d="M72.5626 57.6805C74.9949 56.0919 76.3327 50.6451 79.834 44.7755C85.5243 35.2335 94.8247 24.2267 98.1169 24.2459C98.1169 24.2459 98.9874 24.2373 100.255 24.6088L100.487 24.0751C99.4205 23.6758 97.5259 23.2124 95.819 24.0409C93.2672 25.2793 82.2983 38.3529 77.2779 45.0446C72.2575 51.7362 68.3552 45.5698 68.816 43.6183L55.8629 54.5589C55.8629 54.5589 56.7398 57.4691 59.3919 59.615C59.3919 59.615 66.1746 61.8526 72.5626 57.6805Z" fill="#FCCA4C"/>
<path d="M71.4937 60.8854C78.4898 58.5495 77.4315 46.4965 87.3912 34.9217C95.676 25.2942 96.6596 24.1306 100.137 24.8736L100.253 24.6067C98.9852 24.2352 98.1147 24.2437 98.1147 24.2437C94.8247 24.2245 85.5222 35.2313 79.8318 44.7734C76.3306 50.643 74.995 56.0898 72.5605 57.6784C66.1725 61.8505 59.3897 59.6128 59.3897 59.6128C61.7751 61.5452 65.59 62.8561 71.4937 60.8854Z" fill="#E0A122"/>
<path d="M63.0365 49.7679C66.6051 46.6924 69.179 43.8284 68.7853 43.371C68.3917 42.9135 65.1796 45.0358 61.6109 48.1113C58.0422 51.1867 55.4683 54.0507 55.862 54.5082C56.2556 54.9657 59.4678 52.8434 63.0365 49.7679Z" fill="#EBAB0D"/>
<path d="M94.0118 56.6449C94.0246 56.5702 94.0353 56.4933 94.0481 56.4186C94.0353 56.4933 94.0246 56.568 94.0118 56.6449C94.255 56.6235 94.5004 56.6 94.75 56.5723C96.6724 56.3566 98.375 55.9147 99.8664 55.3531C99.8622 55.2933 99.8579 55.2357 99.8536 55.1759C99.8579 55.2357 99.8622 55.2933 99.8664 55.3531C105.523 53.2222 108.145 49.3511 108.145 49.3511C108.145 49.3511 105.523 53.2222 99.8664 55.3531C99.9944 57.1381 100.154 58.5793 100.323 59.7451C100.457 59.7323 100.592 59.7195 100.731 59.7046C100.594 59.7195 100.457 59.7323 100.323 59.7451C100.438 60.5394 100.558 61.2035 100.675 61.7586C100.852 61.7479 101.029 61.7351 101.208 61.7202C101.029 61.7351 100.852 61.7479 100.675 61.7586C101.162 64.0454 101.62 64.4874 101.62 64.4874C103.613 65.019 105.132 65.2368 106.282 65.2838C106.263 65.1258 106.246 64.9763 106.231 64.8311C105.424 57.5459 107.748 54.9133 109.711 50.0707C109.809 49.8102 109.873 49.6607 109.879 49.6458C110.379 48.3626 110.85 46.9192 111.23 45.1982C113.082 36.8006 108.298 35.0434 107.14 34.2598C106.425 35.0946 104.609 36.6746 100.931 36.9842C100.931 36.9842 99.9176 38.2611 99.9176 44.9484C101.582 42.1001 102.047 39.4183 102.047 39.4183C102.047 39.4183 101.582 42.1001 99.9176 44.9484C98.8914 46.7057 97.4042 48.527 95.2898 49.8209C95.2664 49.9298 95.2429 50.0387 95.2216 50.1476C95.245 50.0387 95.2685 49.9298 95.2898 49.8209C94.5623 50.2671 93.7622 50.6493 92.8767 50.9461C92.5695 51.0486 92.2665 51.134 91.9657 51.2066C91.9657 51.2066 91.9657 51.2066 91.9657 51.2087C91.9657 51.2087 91.9657 51.2087 91.9657 51.2066C87.1629 52.366 83.2499 49.7782 81.1995 47.9547C80.4293 48.3775 80.0281 49.2188 79.8318 49.8059C80.0409 50.0344 80.2671 50.3355 80.5189 50.7454C81.9292 53.0514 84.6453 56.4869 91.2808 56.7196C92.1278 56.7495 93.0346 56.7282 94.0118 56.6449Z" fill="#FFE08F"/>
<path d="M79.1214 43.7207C79.1214 43.7207 79.7849 43.8616 79.834 44.7755C79.8831 45.6893 80.3204 46.458 80.3204 46.458L80.1263 46.9085C79.5267 47.2437 78.7693 46.9363 78.573 46.2786C78.5261 46.1228 78.4962 46.0117 78.4962 45.9925C78.4941 45.9178 78.1122 44.6281 79.1214 43.7207Z" fill="#E0A122"/>
<path d="M81.2016 47.9569C80.201 47.0665 79.6441 46.3598 79.6441 46.3598C79.6441 46.3598 79.275 45.2068 79.3859 44.3527C79.4926 43.5286 78.1762 42.9969 77.7751 45.0381C77.6449 45.7064 77.502 46.4815 77.7303 47.4786C78.2039 49.5583 78.684 48.5505 79.834 49.8102C80.0282 49.2209 80.4314 48.3797 81.2016 47.9569Z" fill="#845C47"/>
<path d="M106.705 23.3918C106.858 23.4644 107.037 23.4004 107.11 23.2488C107.183 23.095 107.119 22.9157 106.967 22.8431C106.813 22.7705 106.634 22.8345 106.562 22.9861C106.487 23.1356 106.551 23.3192 106.705 23.3918Z" fill="#330000"/>
<path d="M103.511 21.8609C103.664 21.9335 103.843 21.8694 103.916 21.7178C103.989 21.5641 103.925 21.3847 103.773 21.3121C103.622 21.2395 103.44 21.3036 103.368 21.4552C103.295 21.6068 103.359 21.7883 103.511 21.8609Z" fill="#330000"/>
<path d="M102.42 25.243C102.324 25.4245 102.064 25.4757 101.838 25.3562C101.612 25.2366 101.507 24.9932 101.603 24.8117C101.699 24.6302 101.959 24.579 102.186 24.6985C102.41 24.816 102.516 25.0615 102.42 25.243Z" fill="#330000"/>
<path d="M102.047 39.4184C102.047 39.4184 101.219 41.9144 99.9283 43.7571L99.9176 44.9485C99.9176 44.9485 101.906 41.7308 102.047 39.4184Z" fill="#EFBD59"/>
<path d="M108.145 49.3513C108.145 49.3513 106.28 53.7006 99.956 56.4656L99.8686 55.3511C99.8686 55.3532 103.779 54.0977 108.145 49.3513Z" fill="#EFBD59"/>
<path d="M91.2829 56.7197L91.2168 57.4072C91.2168 57.4072 92.3775 57.6058 93.8944 57.4072L94.0139 56.6428C94.0118 56.645 92.5268 56.8051 91.2829 56.7197Z" fill="#EFBD59"/>
<path d="M92.5268 41.6368L91.5752 49.7099C91.5752 49.7099 91.7758 49.695 91.9401 49.6736C92.1662 49.6459 92.307 49.6266 92.307 49.6266L92.5268 41.6368Z" fill="#EFBD59"/>
<path d="M92.1684 50.6344C92.1684 50.6344 93.775 50.2159 95.4243 49.1953L95.2898 49.8209C95.2898 49.8209 93.9435 50.7497 91.9657 51.2066L92.1684 50.6344Z" fill="#EFBD59"/>
<path d="M96.075 48.653L98.9575 36.8626L98.6695 36.6042C97.863 38.6604 95.4242 49.1911 95.4242 49.1911L96.075 48.653C95.6781 48.9989 95.4242 49.1932 95.4242 49.1932L95.2898 49.8188C98.678 47.8566 99.9176 44.9464 99.9176 44.9464V43.9642C98.853 46.0566 97.0415 47.8096 96.075 48.653Z" fill="#0BB588"/>
<path d="M96.7044 64.4703C96.7044 64.4703 95.7422 71.621 92.8447 78.7717C92.8447 78.7717 95.0637 75.9469 97.0906 70.9869L96.7044 64.4703Z" fill="#4B93C9"/>
<path d="M102.188 64.6326C102.188 64.6326 102.267 65.4162 102.48 65.7621C102.693 66.108 105.111 65.8411 105.35 66.6653C105.589 67.4895 107.528 84.3509 108.273 86.9836C109.017 89.6162 111.966 108.393 111.966 108.393H112.928L109.613 87.8248C109.613 87.8248 107.008 70.9015 106.675 68.3307C106.342 65.76 106.284 65.2817 106.284 65.2817C106.284 65.2817 103.782 64.9657 102.188 64.6326Z" fill="#4B93C9"/>
<path d="M89.6614 63.3857C89.6614 63.3857 91.3299 63.9002 93.4101 63.9792C93.4101 63.9792 93.5275 62.3843 93.632 61.5601L93.7067 61.0904L93.4101 61.0135L93.1648 63.4753L89.8214 62.9885L89.6614 63.3857Z" fill="#4B93C9"/>
<path d="M93.7067 61.0903L93.9499 59.3117L93.632 59.2306L93.4101 61.0113L93.7067 61.0903Z" fill="#1E0000"/>
<path d="M99.956 56.4656L99.8686 55.3511C97.88 56.2756 94.0118 56.6429 94.0118 56.6429L93.8923 57.4072L93.6299 59.2307L93.9478 59.3118L94.2486 57.4051H94.223C97.1418 57.3411 99.956 56.4656 99.956 56.4656Z" fill="#0BB588"/>
<path d="M95.2898 111.544H71.2697V107.182C71.2697 104.545 73.4054 102.408 76.0404 102.408H90.5191C93.1541 102.408 95.2898 104.545 95.2898 107.182V111.544Z" fill="#845C47"/>
</g>
<g clip-path="url(#clip2)">
<path d="M133.621 114C121.483 114 111.642 112.88 111.642 111.497C111.642 110.115 121.483 108.994 133.621 108.994C145.76 108.994 155.6 110.115 155.6 111.497C155.6 112.88 145.76 114 133.621 114Z" fill="#F4F4F4"/>
<path d="M135.037 40.3001L133.796 41.7344C133.796 41.7344 130.447 39.9171 129.334 37.2836C130.395 37.1857 131.231 37.1356 131.694 36.9463C132.008 37.5383 132.923 38.9616 135.037 40.3001Z" fill="#094656"/>
<path d="M131.62 20.2662C129.824 20.9496 129.097 22.3273 128.951 23.8943C128.226 23.7898 126.12 23.1892 127.094 19.8201C127.692 17.7481 128.914 15.0319 133.643 15.6283C135.329 15.8394 137.208 16.9015 138.749 17.5718C140.914 18.512 140.348 21.731 137.994 21.8811C137.952 21.8833 137.911 21.8855 137.867 21.8877C136.3 20.0769 134.314 19.2411 131.62 20.2662Z" fill="#330000"/>
<path d="M136.764 41.5994L135.037 40.3001C136.509 39.4361 137.155 37.869 137.362 37.2401C137.885 37.3793 138.39 37.5273 138.878 37.6862C138.882 37.7015 138.998 38.1063 139.163 38.7548C138.301 40.5373 136.764 41.5994 136.764 41.5994Z" fill="#094656"/>
<path d="M136.589 38.8071C136.589 38.8071 136.171 39.7908 135.037 40.3001C135.721 39.8996 136.224 39.3468 136.589 38.8071Z" fill="#EFCB7D"/>
<path d="M135.037 40.3001C135.037 40.3001 132.901 39.6015 131.694 36.9462C132.008 37.5382 132.923 38.9616 135.037 40.3001Z" fill="#EFCB7D"/>
<path d="M130.432 27.9946C127.324 21.5524 131.62 20.2662 131.62 20.2662C134.314 19.2411 136.3 20.0768 137.865 21.8876C137.722 21.8941 137.571 21.8963 137.415 21.8941C137.571 21.8963 137.719 21.8941 137.865 21.8876C139.141 23.3654 140.141 25.4896 141.012 27.79C142.952 32.909 137.985 33.995 136.82 35.0049C135.655 36.0125 136.82 37.0986 136.82 37.0986C137.003 37.1443 137.182 37.1921 137.36 37.24C137.249 37.5752 137.01 38.1824 136.587 38.8049C132.67 38.844 133.005 33.329 130.432 27.9946ZM138.116 25.076C138.288 25.076 138.425 24.9367 138.425 24.767C138.425 24.5951 138.286 24.4579 138.116 24.4579C137.946 24.4579 137.807 24.5972 137.807 24.767C137.804 24.9367 137.944 25.076 138.116 25.076ZM134.83 24.7648C134.83 24.5929 134.691 24.4558 134.521 24.4558C134.349 24.4558 134.212 24.5951 134.212 24.7648C134.212 24.9367 134.351 25.0739 134.521 25.0739C134.691 25.076 134.83 24.9367 134.83 24.7648Z" fill="#F4D7C6"/>
<path d="M130.845 31.1265C130.157 29.8511 128.698 26.5909 128.951 23.8943C129.097 23.9161 129.19 23.9161 129.19 23.9161C129.19 23.9161 129.099 23.9139 128.951 23.8943C129.099 22.3273 128.339 21.3283 130.138 20.6449C130.138 20.6449 130.059 21.5176 130.118 25.4548C130.155 27.9533 131.703 30.2625 132.293 29.0067C134.832 34.3563 132.67 38.8441 136.587 38.8071C136.221 39.3468 135.718 39.8997 135.035 40.3001C132.923 38.9616 132.006 37.5382 131.692 36.9463C131.694 36.9463 131.697 36.9441 131.697 36.9441C133.561 36.1693 131.932 33.1441 130.845 31.1265Z" fill="#F1BA9A"/>
<path d="M130.921 31.268C130.921 31.268 126.813 25.0652 126.856 21.2064C126.898 17.3476 138.107 18.166 137.867 21.8876C137.867 21.8876 136.522 21.8855 134.717 21.1672C133.105 20.5274 129.824 20.5948 130.34 23.5657C130.449 24.1881 130.706 24.7736 131.061 25.2981L131.901 26.5408C132.065 26.8433 131.183 25.9097 130.621 26.4625C130.36 26.7193 130.053 27.3722 131.028 28.7891C133.63 32.5717 131.594 32.3518 130.921 31.268Z" fill="#330000"/>
<path d="M127.414 71.4229C127.409 70.548 127.39 69.697 127.357 68.8656C127.407 69.6861 127.427 70.5393 127.414 71.4229Z" fill="#876464"/>
<path d="M133.794 41.7343L135.035 40.3001L136.761 41.5994C136.761 41.5994 138.299 40.5373 139.161 38.757C139.801 41.2686 141.188 47.4627 139.808 49.2408C138.061 51.4912 132.084 50.9471 131.657 49.2408C131.231 47.5345 130.702 40.1238 128.328 37.3902C128.328 37.3902 128.278 37.3967 128.198 37.4054C128.598 37.3554 128.977 37.3162 129.332 37.2836C130.447 39.917 133.794 41.7343 133.794 41.7343Z" fill="#269DBD"/>
<path d="M153.623 50.6534C155.507 53.7308 157.103 56.1923 160.027 56.6472C167.478 57.8116 169.651 51.8373 170.117 49.8198C170.583 47.8023 166.237 47.1036 167.79 46.9186C169.342 46.7315 170.196 47.4149 170.971 47.4149C171.746 47.4149 173.222 47.4149 175.938 47.0274C178.655 46.64 179.119 47.4149 179.119 47.4149C179.119 47.4149 179.454 48.0351 176.661 48.7599C173.867 49.4846 172.521 48.4487 171.176 53.2085C169.915 57.6701 160.911 67.0635 149.776 58.1468C152.94 55.2652 153.521 51.9353 153.623 50.6534Z" fill="#F4D7C6"/>
<path d="M146.623 52.66C146.118 50.8906 145.547 49.1081 144.892 47.3147C145.547 49.1081 146.12 50.8906 146.623 52.66C146.516 52.5839 143.668 50.4988 142.876 48.5052C141.129 44.1219 140.439 38.2434 140.439 38.2434C140.439 38.2434 140.428 38.2391 140.415 38.2347C148.003 41.2034 151.078 46.4921 153.626 50.6555C153.521 51.9375 152.94 55.2652 149.778 58.1511C149.253 57.7311 148.724 57.2675 148.189 56.7647C147.733 55.2413 147.217 53.8505 146.629 52.6666C146.627 52.6622 146.625 52.66 146.623 52.66Z" fill="#269DBD"/>
<path d="M125.232 111.961H123.266C123.266 111.961 123.44 110.866 123.736 108.779H126.932C125.898 110.779 125.232 111.961 125.232 111.961Z" fill="#330000"/>
<path d="M142.512 109.789C144.539 110.006 144.167 111.961 144.167 111.961H139.923C140.208 110.942 140.441 109.878 140.628 108.779H142.969C142.682 109.438 142.512 109.789 142.512 109.789Z" fill="#330000"/>
<path d="M142.917 87.2652C145.094 86.8516 147.718 85.7743 149.06 85.1845C147.651 97.1374 144.208 105.911 142.969 108.779H141.495C144.062 92.6257 139.886 87.8397 142.917 87.2652Z" fill="#85BEF2"/>
<path d="M140.123 85.9287C142.976 85.6371 146.048 85.0385 149.197 83.9656C149.153 84.3747 149.107 84.7817 149.062 85.1844C147.72 85.7742 145.097 86.8515 142.919 87.265C139.888 87.8396 144.064 92.6255 141.495 108.779H140.633C141.887 101.438 141.11 92.5646 140.123 85.9287Z" fill="#3886C1"/>
<path d="M126.887 37.6144C126.876 37.6166 126.863 37.6188 126.852 37.621C126.852 37.621 130.186 42.9554 129.254 49.7828C128.642 54.2727 126.987 56.4818 125.926 57.4655C125.356 54.8734 124.698 52.7275 124.091 51.0451C124.224 50.8732 124.363 50.6947 124.402 50.6533C124.363 50.6969 124.224 50.8753 124.091 51.0451C123.03 48.1091 122.125 46.5878 122.125 46.5878C122.125 46.5878 123.028 48.1091 124.091 51.0451C123.973 51.1975 123.86 51.3433 123.825 51.3803C122.571 52.7884 121.85 54.2901 121.508 55.794C117.724 54.6862 115.642 52.9734 114.771 52.1007C115.277 49.9613 116.211 47.602 117.572 44.8554C120.08 39.7974 123.827 38.2108 126.887 37.6144Z" fill="#269DBD"/>
<path d="M140.099 38.1151C139.96 38.0628 139.792 38.0019 139.614 37.9366C139.777 37.9953 139.94 38.0541 140.099 38.1151Z" fill="#876464"/>
<path d="M134.519 25.0761C134.347 25.0761 134.209 24.9368 134.209 24.7671C134.209 24.5951 134.349 24.458 134.519 24.458C134.691 24.458 134.828 24.5973 134.828 24.7671C134.83 24.9368 134.691 25.0761 134.519 25.0761Z" fill="#330000"/>
<path d="M138.116 25.0761C137.944 25.0761 137.807 24.9368 137.807 24.7671C137.807 24.5951 137.946 24.458 138.116 24.458C138.286 24.458 138.425 24.5973 138.425 24.7671C138.425 24.9368 138.286 25.0761 138.116 25.0761Z" fill="#330000"/>
<path d="M127.403 73.1227C127.403 73.0813 127.403 73.0421 127.405 73.0008C127.405 73.0378 127.405 73.0726 127.405 73.1096C127.405 73.1118 127.403 73.1161 127.403 73.1227Z" fill="#876464"/>
<path d="M140.415 38.2347C140.313 38.1933 140.206 38.1563 140.099 38.115C140.254 38.1716 140.367 38.2151 140.415 38.2347Z" fill="#876464"/>
<path d="M138.878 37.6862C139.098 37.7559 139.363 37.8473 139.614 37.9365C139.372 37.8516 139.128 37.7689 138.878 37.6862Z" fill="#876464"/>
<path d="M128.2 37.4055C127.782 37.4578 127.342 37.5252 126.887 37.6145C127.348 37.5187 127.941 37.4382 128.2 37.4055Z" fill="#876464"/>
<path d="M127.405 73.0008C127.409 72.6765 127.407 72.3696 127.398 72.0758C127.405 71.856 127.411 71.6383 127.414 71.4229C127.418 71.9408 127.414 72.4675 127.405 73.0008Z" fill="#876464"/>
<path d="M127.405 73.0008C127.405 73.0421 127.405 73.0813 127.403 73.1227C127.398 73.2728 127.368 73.4143 127.318 73.5471C127.357 73.0487 127.383 72.559 127.398 72.078C127.407 72.3675 127.409 72.6765 127.405 73.0008Z" fill="#876464"/>
<path d="M127.318 73.5449C127.37 73.4121 127.401 73.2707 127.403 73.1205C127.403 73.1162 127.403 73.1118 127.403 73.1074C127.403 73.0704 127.403 73.0356 127.403 72.9986C127.411 72.4654 127.416 71.9387 127.411 71.4229C127.425 70.5393 127.403 69.6861 127.355 68.8656C126.98 62.4822 124.981 58.162 124.981 58.162C124.981 58.162 125.373 57.9792 125.924 57.4677C126.985 56.4818 128.637 54.2749 129.251 49.785C130.183 42.9576 126.85 37.6232 126.85 37.6232C126.861 37.621 126.874 37.6188 126.885 37.6166C127.34 37.5274 127.779 37.4599 128.198 37.4077C128.278 37.3968 128.328 37.3925 128.328 37.3925C130.702 40.126 131.231 47.5367 131.657 49.243C132.084 50.9494 138.061 51.4935 139.808 49.243C141.188 47.4627 139.801 41.2708 139.161 38.7592C138.995 38.1085 138.88 37.7059 138.876 37.6906C139.126 37.7712 139.372 37.8539 139.612 37.9409C139.79 38.004 139.958 38.0671 140.097 38.1194C140.202 38.1586 140.308 38.1977 140.413 38.2391C140.428 38.2434 140.437 38.2478 140.437 38.2478C140.437 38.2478 141.127 44.1263 142.873 48.5096C143.668 50.5032 146.516 52.5882 146.621 52.6644C146.623 52.6665 146.625 52.6687 146.625 52.6687C147.213 53.8527 147.729 55.2456 148.184 56.7669C151.233 66.97 151.485 83.1081 151.485 83.1081C150.717 83.4258 149.952 83.7109 149.19 83.9699C146.044 85.0429 142.969 85.6414 140.117 85.9331C138.778 86.0702 137.486 86.1398 136.261 86.1572C132.021 86.2204 128.552 85.6784 126.49 85.2453C125.169 84.9689 124.424 84.736 124.424 84.736C126.22 80.812 127.05 77.0011 127.318 73.5449Z" fill="#FFE08F"/>
<path d="M167.239 41.9106H178.457C178.825 41.9106 179.088 42.2632 178.986 42.6158C178.581 43.9957 177.209 46.9251 172.861 46.9251C168.515 46.9251 167.128 44 166.714 42.618C166.607 42.2654 166.871 41.9106 167.239 41.9106Z" fill="#EBAB0D"/>
<path d="M160.38 46.7314H185.312C185.473 46.7314 185.603 46.862 185.603 47.0231C185.603 47.1841 185.473 47.3147 185.312 47.3147H160.38C160.219 47.3147 160.088 47.1841 160.088 47.0231C160.088 46.862 160.219 46.7314 160.38 46.7314Z" fill="#330000"/>
<path d="M131.847 54.1769C132.744 58.4209 132.883 64.2211 132.883 64.2211C138.27 64.4975 144.071 63.6334 144.071 63.6334C143.588 57.9378 142.551 54.1747 142.551 54.1747H131.847V54.1769Z" stroke="#F9C146" stroke-width="0.235537" stroke-miterlimit="10" stroke-linecap="round" stroke-linejoin="round"/>
<path d="M132.047 55.2216H142.806" stroke="#F9C146" stroke-width="0.235537" stroke-miterlimit="10" stroke-linecap="round" stroke-linejoin="round"/>
<path d="M130.458 26.8346C130.588 26.1208 131.649 26.0598 131.932 26.8346C131.647 26.0577 130.586 26.1208 130.458 26.8346ZM130.458 26.8346C130.199 28.2558 132.062 30.0927 132.295 29.0067C132.06 30.0927 130.199 28.2558 130.458 26.8346Z" stroke="#330000" stroke-width="0.235537" stroke-miterlimit="10" stroke-linecap="round" stroke-linejoin="round"/>
<path d="M137.752 29.4986C139.538 29.4464 139.383 28.0252 139.383 28.0252C139.383 28.0252 139.538 29.4464 137.752 29.4986ZM137.752 29.4986C135.967 29.5508 135.011 27.8054 135.011 27.8054C135.011 27.8054 135.967 29.5487 137.752 29.4986Z" stroke="#330000" stroke-width="0.235537" stroke-miterlimit="10" stroke-linecap="round" stroke-linejoin="round"/>
<path d="M124.093 51.0473C124.093 51.0473 123.03 48.0199 122.127 46.59L123.109 52.2769L124.093 51.0473Z" fill="#047492"/>
<path d="M146.627 52.6622L144.892 47.3126L149.776 58.1468L148.186 56.7604C148.189 56.7626 147.612 54.5143 146.627 52.6622Z" fill="#047492"/>
<path d="M136.589 41.4689L135.971 41.8433L135.037 40.9901L133.794 41.7344L135.037 40.3002L136.589 41.4689Z" fill="#047492"/>
<path d="M133.521 41.5755L132.97 41.8432C132.97 41.8432 130.07 40.2239 129.334 37.2836C129.334 37.2836 130.538 39.9562 133.521 41.5755Z" fill="#047492"/>
<path d="M131.004 89.1651C133.071 88.8735 134.721 88.2227 135.805 87.683C133.177 96.1514 129.184 104.417 126.932 108.779H124.857C130 89.4655 127.261 89.694 131.004 89.1651Z" fill="#85BEF2"/>
<path d="M126.495 85.241C128.557 85.6741 132.025 86.216 136.265 86.1529C136.117 86.6622 135.964 87.1736 135.805 87.6829C134.721 88.2227 133.071 88.8734 131.004 89.165C127.263 89.6939 130 89.4654 124.857 108.779H123.736C124.322 104.615 125.389 96.4996 126.495 85.241Z" fill="#3886C1"/>
<path d="M114.774 52.1028C115.642 52.9756 117.724 54.6863 121.511 55.7962C120.302 61.1132 123.836 66.4367 125.315 67.588C126.956 68.8656 127.342 70.154 127.398 72.0758C127.383 72.559 127.357 73.0487 127.318 73.5449C126.878 74.6853 124.862 75.1859 124.306 74.6658C123.686 74.0847 124.306 73.1923 124.907 72.5525C125.016 72.4371 125.093 72.3043 125.145 72.1672C125.147 72.1629 125.149 72.1563 125.151 72.152C125.378 71.5361 125.121 70.807 125.121 70.807C125.121 70.807 125.084 71.5382 124.309 71.6623C123.061 70.8418 120.579 68.8525 117.574 64.5607C114.602 60.3188 113.683 56.7277 114.774 52.1028Z" fill="#F4D7C6"/>
<path d="M125.121 70.8069C125.121 70.8069 125.376 71.536 125.151 72.1519C125.066 72.1127 124.772 71.9669 124.309 71.6644C125.086 71.5382 125.121 70.8069 125.121 70.8069Z" fill="#F1BA9A"/>
<path d="M170.485 39.5928C170.485 39.5928 167.559 36.3543 170.191 36.3021C171.594 36.2738 171.494 35.3249 170.485 33.1136" stroke="#999999" stroke-width="0.235537" stroke-miterlimit="10" stroke-linecap="round" stroke-linejoin="round"/>
<path d="M173.752 38.0693C173.752 38.0693 170.825 34.8308 173.458 34.7785C174.86 34.7502 174.76 33.8013 173.752 31.5901" stroke="#999999" stroke-width="0.235537" stroke-miterlimit="10" stroke-linecap="round" stroke-linejoin="round"/>
<path d="M175.929 40.8987C175.929 40.8987 173.003 37.6602 175.635 37.6079C177.037 37.5797 176.937 36.6307 175.929 34.4195" stroke="#999999" stroke-width="0.235537" stroke-miterlimit="10" stroke-linecap="round" stroke-linejoin="round"/>
<path d="M166.601 42.6245H179.095C179.358 42.6245 179.574 42.4112 179.574 42.1457C179.574 41.8823 179.361 41.6669 179.095 41.6669H166.599C166.335 41.6669 166.12 41.8802 166.12 42.1457C166.122 42.4112 166.335 42.6245 166.601 42.6245Z" fill="#330000"/>
</g>
<rect x="147.573" y="15.8015" width="0.855741" height="2.79082" rx="0.42787" transform="rotate(-68.7901 147.573 15.8015)" fill="#269DBD"/>
<rect x="149.139" y="14.4887" width="0.855741" height="2.79082" rx="0.42787" transform="rotate(21.2099 149.139 14.4887)" fill="#269DBD"/>
<rect x="72.1848" y="13.3263" width="0.855741" height="2.79082" rx="0.42787" transform="rotate(35.7757 72.1848 13.3263)" fill="#269DBD"/>
<rect x="73.0615" y="15.1722" width="0.855741" height="2.79082" rx="0.42787" transform="rotate(125.776 73.0615 15.1722)" fill="#269DBD"/>
<rect x="89.5919" y="15.6591" width="0.855741" height="2.79082" rx="0.42787" transform="rotate(35.7757 89.5919 15.6591)" fill="#269DBD"/>
<rect x="90.4687" y="17.505" width="0.855741" height="2.79082" rx="0.42787" transform="rotate(125.776 90.4687 17.505)" fill="#269DBD"/>
<rect x="120.447" y="20.3699" width="0.855741" height="2.79082" rx="0.42787" transform="rotate(35.7757 120.447 20.3699)" fill="#269DBD"/>
<rect x="121.324" y="22.2158" width="0.855741" height="2.79082" rx="0.42787" transform="rotate(125.776 121.324 22.2158)" fill="#269DBD"/>
<rect x="22.2283" y="27.6721" width="0.855741" height="2.79082" rx="0.42787" transform="rotate(35.7757 22.2283 27.6721)" fill="#269DBD"/>
<rect x="23.105" y="29.5179" width="0.855741" height="2.79082" rx="0.42787" transform="rotate(125.776 23.105 29.5179)" fill="#269DBD"/>
<rect x="160.01" y="37.2151" width="0.855741" height="2.79082" rx="0.42787" transform="rotate(104.072 160.01 37.2151)" fill="#269DBD"/>
<rect x="158.619" y="38.7123" width="0.855741" height="2.79082" rx="0.42787" transform="rotate(-165.928 158.619 38.7123)" fill="#269DBD"/>
<rect x="164.014" y="2.58643" width="0.855741" height="2.79082" rx="0.42787" transform="rotate(44.5785 164.014 2.58643)" fill="#269DBD"/>
<rect x="164.598" y="4.54474" width="0.855741" height="2.79082" rx="0.42787" transform="rotate(134.578 164.598 4.54474)" fill="#269DBD"/>
<rect x="69.5713" y="33.5605" width="0.855741" height="2.79082" rx="0.42787" transform="rotate(35.7757 69.5713 33.5605)" fill="#269DBD"/>
<rect x="70.448" y="35.4064" width="0.855741" height="2.79082" rx="0.42787" transform="rotate(125.776 70.448 35.4064)" fill="#269DBD"/>
<rect x="63.8272" y="23.4273" width="0.855741" height="2.79082" rx="0.42787" transform="rotate(91.0468 63.8272 23.4273)" fill="#269DBD"/>
<rect x="62.8096" y="25.1995" width="0.855741" height="2.79082" rx="0.42787" transform="rotate(-178.953 62.8096 25.1995)" fill="#269DBD"/>
<rect x="35.115" y="8.73047" width="0.855741" height="2.79082" rx="0.42787" transform="rotate(14.5346 35.115 8.73047)" fill="#269DBD"/>
<rect x="36.601" y="10.1333" width="0.855741" height="2.79082" rx="0.42787" transform="rotate(104.535 36.601 10.1333)" fill="#269DBD"/>
<rect x="16.9787" y="0.251038" width="0.855741" height="2.79082" rx="0.42787" transform="rotate(14.5346 16.9787 0.251038)" fill="#269DBD"/>
<rect x="18.4647" y="1.65387" width="0.855741" height="2.79082" rx="0.42787" transform="rotate(104.535 18.4647 1.65387)" fill="#269DBD"/>
<rect x="4.52228" y="28.5536" width="0.855741" height="2.79082" rx="0.42787" transform="rotate(84.5251 4.52228 28.5536)" fill="#269DBD"/>
<rect x="3.71259" y="30.4299" width="0.855741" height="2.79082" rx="0.42787" transform="rotate(174.525 3.71259 30.4299)" fill="#269DBD"/>
<rect x="17.0057" y="16.5413" width="0.855741" height="2.79082" rx="0.42787" transform="rotate(84.5251 17.0057 16.5413)" fill="#269DBD"/>
<rect x="16.196" y="18.4175" width="0.855741" height="2.79082" rx="0.42787" transform="rotate(174.525 16.196 18.4175)" fill="#269DBD"/>
<defs>
<clipPath id="clip0">
<rect width="58.1777" height="96.8058" fill="white" transform="translate(0.942139 17.1942)"/>
</clipPath>
<clipPath id="clip1">
<rect width="61.0041" height="97.0413" fill="white" transform="translate(55.8223 16.9587)"/>
</clipPath>
<clipPath id="clip2">
<rect width="73.9587" height="98.4545" fill="white" transform="matrix(-1 0 0 1 185.603 15.5455)"/>
</clipPath>
</defs>
</svg>
