<svg width="286" height="330" viewBox="0 0 286 330" fill="none" xmlns="http://www.w3.org/2000/svg">
<path opacity="0.1" d="M101.5 329.155C-0.396545 329.155 -83 325.755 -83 321.56C-83 317.366 -0.396545 313.966 101.5 313.966C203.397 313.966 286 317.366 286 321.56C286 325.755 203.397 329.155 101.5 329.155Z" fill="#121212"/>
<path d="M182.363 32.4658L162.597 3.62573" stroke="#DBB358" stroke-width="1.16284" stroke-miterlimit="10"/>
<path d="M161.566 4.23983C160.393 4.23983 159.443 3.29071 159.443 2.11992C159.443 0.949119 160.393 0 161.566 0C162.738 0 163.688 0.949119 163.688 2.11992C163.688 3.29071 162.738 4.23983 161.566 4.23983Z" fill="#FFE08F"/>
<path d="M93.7698 45.8918C87.8777 48.3617 87.4082 54.9526 82.4551 50.8383C77.5021 46.7173 78.6858 34.1233 81.5095 34.2422C84.0753 34.3478 92.0439 37.0225 96.7522 31.627C99.7082 37.0093 102.334 43.5408 103.696 49.4514C103.22 48.7778 99.285 43.5738 93.7698 45.8918Z" fill="#845C47"/>
<path d="M66.855 44.868C67.7213 43.0651 74.1623 42.1207 74.5524 49.4975C74.6384 51.0494 74.8566 52.5155 75.1807 53.909C74.5921 55.2496 73.5539 55.9893 71.8015 55.3883C71.2327 55.1902 70.7302 54.9392 70.2673 54.6619C70.2143 54.4043 70.1879 54.259 70.1879 54.259C70.1879 54.259 70.2143 54.4043 70.2673 54.6619C65.949 52.0929 66.0747 46.4992 66.855 44.868Z" fill="#845C47"/>
<path d="M55.58 300.354H61.0225C60.6588 309.64 59.8652 314.791 59.8652 314.791H40.5357C40.377 306.001 51.6916 305.221 51.6916 305.221C51.3345 303.623 50.9245 301.999 50.4683 300.354H55.58Z" fill="#330000"/>
<path d="M149.53 306.628C158.265 307.097 159.178 314.791 159.178 314.791H140.166C140.166 314.791 139.987 309.574 139.914 300.354H152.261C150.568 304.297 149.53 306.628 149.53 306.628Z" fill="#330000"/>
<path d="M81.4696 65.9814C79.0493 63.1945 76.3909 59.1264 75.1873 53.9157C75.4122 53.4072 75.5775 52.8062 75.6899 52.1656C75.5775 52.8129 75.4122 53.4072 75.1873 53.9157C74.8633 52.5289 74.6385 51.0562 74.5591 49.5042C74.1689 42.1274 67.7214 43.0718 66.8617 44.8747C66.0814 46.5059 65.9557 52.093 70.2806 54.662C70.4922 55.6526 71.2262 58.3933 73.1968 61.7746C71.0543 63.4983 62.9072 68.9533 56.4133 58.7235C48.868 46.8361 59.1246 42.9529 59.1246 42.9529C59.1246 42.9529 56.2942 43.3029 55.9438 40.9519C55.5933 38.6008 57.8483 38.3631 57.8483 38.3631C57.8483 38.3631 50.1178 37.2074 52.2934 31.3033C53.7086 27.4663 58.1459 27.0172 60.9564 27.1427C62.517 28.2192 64.0776 28.8268 64.0776 28.8268C64.0776 28.8268 62.517 28.2126 60.9564 27.1427C62.3649 27.2088 63.3701 27.4201 63.3701 27.4201C63.3701 27.4201 62.3649 27.2088 60.9564 27.1427C58.126 25.1879 55.3023 21.7075 61.8359 17.5338C71.9734 11.0617 75.5047 20.5915 75.5047 20.5915C75.5047 20.5915 74.5591 17.4149 78.216 15.295C81.8664 13.1751 84.4652 16.9394 84.4652 16.9394C84.7033 14.2317 91.6535 9.99848 97.076 13.4062C102.499 16.8139 96.5999 22.5925 96.5999 22.5925C98.8086 24.5209 99.2649 27.605 98.101 29.7051C97.6976 30.4382 97.248 31.0722 96.7652 31.6269C96.6594 31.4354 96.5536 31.2373 96.4478 31.0457C96.5536 31.2373 96.6594 31.4354 96.7652 31.6269C92.0502 37.0158 84.0883 34.3478 81.5225 34.2421C78.6922 34.1233 77.5151 46.7173 82.4681 50.8382C87.4212 54.9592 87.8907 48.3683 93.7828 45.8918C99.298 43.5803 103.233 48.7777 103.715 49.4514C104.509 52.9119 104.886 56.1611 104.628 58.8358C103.92 66.2522 93.5514 67.8966 93.5514 67.8966C90.807 68.3061 88.7438 68.207 87.6593 68.8608C85.8341 68.6891 83.2749 68.0551 81.4696 65.9814Z" fill="#2D1006"/>
<path d="M86.7333 185.007C76.2122 185.185 56.929 185.317 40.9191 187.332C44.6025 174.275 46.7649 157.402 48.0346 142.041L48.0147 142.338C48.0147 142.338 58.8004 119.646 61.8622 113.524C64.9239 107.402 67.2054 108.895 69.9564 108.505C72.7007 108.115 72.8197 100.448 72.8197 100.428C73.1835 98.9225 73.3355 97.43 73.1438 96.3799C72.9586 95.3695 72.4098 94.6232 71.7485 94.0751C72.0659 92.8137 72.2312 90.3504 69.1364 89.3201C64.8909 87.9069 58.0597 98.9687 51.8965 112.857C51.222 114.376 50.402 115.875 49.4894 117.355C49.5423 115.836 49.5952 114.396 49.6283 113.049C49.8399 105.778 49.8399 101.201 49.8399 101.201C49.8399 101.201 49.8399 105.778 49.6283 113.049C49.6283 113.049 46.2557 118.233 42.4533 122.975C39.8214 122.354 36.2636 120.987 31.661 118.147C28.1231 115.961 25.6962 113.709 24.0231 111.622C30.6956 93.5864 49.6283 78.0668 49.8399 77.9017C56.2148 75.4251 63.5617 74.0184 71.9931 74.1703C70.8888 75.8808 69.553 79.5065 73.7389 83.9378C79.5914 90.1391 91.7062 89.5381 93.657 83.9378C94.5299 81.4216 94.272 79.2819 93.7297 77.7299C112.94 83.6868 125.306 95.1516 139.941 97.8064C141.931 100.818 144.451 106.339 142.454 113.135C141.925 114.924 141.217 116.522 140.404 117.936C121.504 119.336 109.766 113.59 109.766 113.59V118.504C109.356 118.266 109.006 118.061 108.741 117.896C109.237 115.287 109.912 112.745 110.791 110.301C109.912 112.745 109.237 115.287 108.741 117.896C108.278 117.612 108.04 117.44 108.04 117.44C108.04 117.44 108.278 117.612 108.741 117.896C103.9 143.269 115.79 174.916 119.943 184.895C107.293 184.571 95.1714 184.868 86.7333 185.007Z" fill="#FFE08F"/>
<path d="M48.4775 136.342C48.3453 138.211 48.1998 140.112 48.0411 142.041L48.4775 136.342Z" fill="#DBB358"/>
<path d="M64.5404 104.972C66.1738 103.981 66.8947 105.441 69.0174 106.147C70.4392 106.623 72.0726 103.493 72.8198 100.422C72.8198 100.441 72.7008 108.102 69.9564 108.498C67.2055 108.888 64.9306 107.402 61.8622 113.518C58.8005 119.64 48.0148 142.331 48.0148 142.331L48.0346 142.034C48.1933 140.106 48.3388 138.204 48.4711 136.335C54.0854 123.972 58.9724 108.353 64.5404 104.972Z" fill="#DBB358"/>
<path d="M49.6284 113.055C49.5887 114.403 49.5425 115.842 49.4896 117.361C49.4234 117.467 49.3507 117.573 49.2846 117.678L49.6284 113.055Z" fill="#FFE08F"/>
<path d="M22.582 223.535C13.1652 207.778 24.6849 190.601 24.7113 190.568C29.1949 189.148 34.8224 188.104 40.9261 187.338C40.6947 188.144 40.4632 188.943 40.2252 189.722C40.4632 188.943 40.6947 188.144 40.9261 187.338C56.936 185.324 76.2192 185.192 86.7403 185.014C95.1784 184.875 107.3 184.578 119.937 184.908C120.784 186.935 121.313 188.071 121.313 188.071C121.313 188.071 120.784 186.935 119.937 184.908C137.534 185.37 156.13 187.048 167.193 192.073C186.205 200.705 180.075 222.829 171.438 249.899C165.216 269.381 156.606 290.21 152.268 300.354H139.921C139.862 292.277 139.875 281.123 140.173 267.71C140.576 249.199 143.988 231.216 146.356 220.768C147.09 220.867 147.85 220.98 148.657 221.105C147.85 220.98 147.09 220.867 146.356 220.768L148.657 211.529C148.657 211.529 135.649 206.979 105.323 208.544C74.9958 210.116 55.7523 208.703 48.4053 203.366L52.8426 220.616C52.0821 220.531 51.7052 220.471 51.7052 220.471C51.7052 220.471 52.0755 220.531 52.8426 220.616C61.0095 256.08 61.6576 284.353 61.036 300.348H55.5936C51.0968 282.074 32.0054 239.306 22.582 223.535Z" fill="#85BEF2"/>
<path d="M150.098 116.661C146.686 117.315 143.452 117.725 140.391 117.949C141.204 116.536 141.912 114.944 142.441 113.148C144.438 106.346 141.918 100.831 139.928 97.8199C145.754 98.8765 151.937 98.5463 159.052 95.9113C188.632 84.9683 175.591 27.4532 175.591 27.4532L174.738 27.4994C171.782 27.6711 169.17 25.5248 168.833 22.586C168.826 22.5463 168.826 22.5133 168.819 22.4803C168.502 19.6736 170.34 17.0121 173.105 16.4177C173.832 16.2592 174.54 16.213 175.208 16.2328C177.628 16.3055 179.684 18.0291 180.333 20.3538C187.131 44.7361 188.632 67.0316 184.644 84.6315C184.571 84.8626 174.507 111.979 150.098 116.661Z" fill="#845C47"/>
<path d="M93.6508 83.9445C91.7 89.5447 79.5851 90.1457 73.7327 83.9445C69.5468 79.5131 70.8826 75.8875 71.9869 74.177C73.6468 74.21 75.3529 74.3025 77.0987 74.4544C76.4969 74.8704 75.8026 75.1082 75.1082 75.0752C75.8026 75.1082 76.4969 74.8704 77.0987 74.4544C77.231 74.4676 77.3698 74.4742 77.5021 74.4874C82.2105 74.9365 86.5485 75.7554 90.5824 76.8318C91.8058 77.697 92.8638 78.1329 92.8638 78.1329C92.8638 78.1329 91.8124 77.6904 90.5824 76.8318C91.6471 77.1158 92.6985 77.4196 93.7235 77.7366C94.2592 79.2886 94.5237 81.4283 93.6508 83.9445Z" fill="#845C47"/>
<path d="M77.0986 74.4611C78.3815 73.5762 79.2412 71.8855 78.7981 70.2543C78.3153 68.4976 76.4373 66.5428 74.7906 64.2512C74.1756 63.3993 73.6532 62.5672 73.1837 61.7747C73.5342 61.4973 73.726 61.3124 73.726 61.3124C73.726 61.3124 73.5276 61.4973 73.1837 61.7747C71.2131 58.3934 70.4856 55.6527 70.2674 54.662C70.7303 54.9394 71.2263 55.1904 71.8016 55.3885C73.554 55.9961 74.5923 55.2498 75.1808 53.9092C76.391 59.1264 79.0494 63.1879 81.4631 65.9749C83.2684 68.0552 85.8276 68.6892 87.6329 68.8609C86.8592 69.3298 86.5815 70.1817 86.9253 71.8987C87.375 74.1507 89.101 75.7952 90.5757 76.832C86.5418 75.7555 82.2037 74.93 77.4953 74.4876C77.3697 74.4809 77.2308 74.4677 77.0986 74.4611Z" fill="#845C47"/>
<path d="M49.2847 117.672V117.678C48.0348 119.692 46.6593 121.608 45.2177 123.411C45.1781 123.411 45.145 123.411 45.1053 123.404C46.613 121.575 48.0348 119.653 49.2847 117.672Z" fill="#845C47"/>
<path d="M45.098 123.411C45.1377 123.411 45.1708 123.411 45.2104 123.417C37.3874 133.198 27.7656 139.578 27.7656 139.578C27.7656 139.578 37.5064 132.623 45.098 123.411Z" fill="#845C47"/>
<path d="M27.7662 139.578C27.7662 139.578 31.1388 133.456 36.4027 129.374C38.2411 127.948 40.4101 125.531 42.4469 122.981C43.4653 123.219 44.3514 123.351 45.0986 123.404C37.507 132.623 27.7662 139.578 27.7662 139.578Z" fill="#603420"/>
<path d="M45.0984 123.411C44.3511 123.358 43.465 123.226 42.4466 122.988C46.249 118.24 49.6216 113.062 49.6216 113.062L49.2777 117.678C48.0345 119.653 46.6127 121.575 45.0984 123.411Z" fill="#DBB358"/>
<path d="M62.4113 99.7152L49.0201 127.505C49.2185 123.86 49.3706 120.439 49.483 117.361C50.4022 115.882 51.2222 114.383 51.8901 112.864C58.0467 98.9756 64.8845 87.9137 69.1299 89.327C72.2248 90.3572 72.0595 92.8205 71.7421 94.0819C70.2608 92.8536 68.1909 92.6224 68.1909 92.6224C68.1909 92.6224 70.2608 92.8602 71.7421 94.0819C71.623 94.5508 71.4908 94.8546 71.4908 94.8546C71.4908 94.8546 71.6296 94.5508 71.7421 94.0819C72.4033 94.6301 72.9522 95.3763 73.1374 96.3868C73.3291 97.4302 73.177 98.9293 72.8133 100.435L62.4113 99.7152Z" fill="#845C47"/>
<path d="M62.4114 99.7151L72.8135 100.428C72.0662 103.499 70.4328 106.623 69.0111 106.154C66.8883 105.447 66.1675 103.988 64.5341 104.979C58.9727 108.353 54.0791 123.972 48.4714 136.341C48.6896 133.284 48.8682 130.332 49.0203 127.505L62.4114 99.7151Z" fill="#845C47"/>
<path d="M21.8742 120.544C22.1784 117.546 22.9389 114.555 24.0234 111.629C25.6965 113.716 28.1234 115.968 31.6614 118.154C36.2639 120.994 39.8217 122.361 42.4536 122.981C40.4102 125.531 38.2478 127.948 36.4094 129.374C31.1455 133.455 27.773 139.577 27.773 139.577C27.773 139.577 37.3947 133.198 45.2178 123.417C47.3868 123.563 48.3986 123.1 48.3986 123.1C48.3986 123.1 47.3868 123.556 45.2178 123.417C46.6594 121.614 48.0415 119.699 49.2847 117.685V117.678C49.3509 117.573 49.4236 117.467 49.4897 117.361C49.3773 120.445 49.2252 123.866 49.0268 127.505L48.478 128.648V136.341C46.051 141.697 43.4852 146.439 40.6747 149.319C31.496 153.644 19.6721 142.166 21.8742 120.544Z" fill="#845C47"/>
<path d="M49.0269 127.505C48.8748 130.332 48.6962 133.284 48.478 136.341V128.648L49.0269 127.505Z" fill="#845C47"/>
<path d="M140.391 117.956C138.565 121.132 136.218 123.391 134.234 124.89C122.093 124.738 113.291 120.538 109.746 118.517V113.604C109.753 113.604 121.491 119.356 140.391 117.956Z" fill="#DBB358"/>
<path d="M140.39 117.956C143.446 117.731 146.686 117.322 150.098 116.668C174.506 111.979 184.571 84.8691 184.657 84.6379C180.868 101.393 172.113 113.894 158.239 119.884C149.377 123.708 141.257 124.976 134.24 124.89C136.218 123.384 138.565 121.132 140.39 117.956Z" fill="#603420"/>
<path d="M24.0167 111.636C21.9205 109.02 21.0145 106.676 20.6309 105.064C26.2453 94.2998 35.6092 83.4427 49.8335 77.9084C49.6285 78.0802 30.6892 93.5932 24.0167 111.636Z" fill="#DBB358"/>
<path d="M21.8743 120.544C19.6722 142.166 31.5027 153.644 40.6748 149.319C38.8496 151.188 36.9121 152.277 34.8422 152.231C22.2314 151.934 10.2092 136.639 15.6317 117.573C16.7493 113.65 18.3893 109.364 20.6311 105.064C21.0213 106.669 21.9272 109.02 24.0169 111.636C22.939 114.555 22.1785 117.546 21.8743 120.544Z" fill="#603420"/>
<path d="M105.309 208.544C135.636 206.972 148.644 211.529 148.644 211.529L146.342 220.768C138.751 219.731 133.427 219.976 101.348 221.264C71.7686 222.452 56.8432 221.092 52.8292 220.623L48.392 203.373C55.7455 208.709 74.9824 210.116 105.309 208.544Z" fill="#3886C1"/>
<path d="M22.5812 223.536C32.0112 239.306 51.1027 282.074 55.5796 300.354H50.4678C44.0665 277.366 28.341 250.956 20.4254 238.21C11.941 224.559 6.5978 204.001 16.4973 194.742C18.2828 193.071 21.1396 191.697 24.7106 190.568C24.6841 190.601 13.1578 207.778 22.5812 223.536Z" fill="#3886C1"/>
<path d="M70.9352 49.3325C70.9352 49.3325 71.0542 46.9749 69.0703 46.3277C69.7646 45.555 70.9352 45.5352 70.9352 45.5352C70.9352 45.5352 69.7646 45.5484 69.0703 46.3277C69.0703 46.3277 69.0703 46.3277 69.0637 46.3277C69.0637 46.3277 69.0637 46.3277 69.0703 46.3277C68.5677 46.889 68.3164 47.84 68.9314 49.4778C68.3164 47.84 68.5677 46.8824 69.0703 46.3277C71.0542 46.9749 70.9352 49.3325 70.9352 49.3325Z" stroke="#330000" stroke-width="0.58142" stroke-miterlimit="10" stroke-linecap="round" stroke-linejoin="round"/>
<path d="M96.9104 55.0716C99.9722 54.1272 98.8745 51.228 98.8745 51.228C98.8745 51.228 99.9722 54.1272 96.9104 55.0716ZM96.9104 55.0716C93.8487 56.016 91.2564 51.8158 91.2564 51.8158C91.2564 51.8158 93.8421 56.016 96.9104 55.0716Z" stroke="#845C47" stroke-width="0.58142" stroke-miterlimit="10" stroke-linecap="round" stroke-linejoin="round"/>
<path d="M75.187 53.9092C75.187 53.9092 74.6448 55.4809 73.1767 55.5866C71.7086 55.6923 69.771 54.4969 69.0767 53.7705C69.0767 53.7705 66.6299 51.8091 66.4381 47.7475C66.2464 43.686 68.3228 43.7587 70.558 43.6662C72.7931 43.5738 74.0298 46.1824 74.2678 47.5032" stroke="#330000" stroke-width="0.58142" stroke-miterlimit="10" stroke-linecap="round" stroke-linejoin="round"/>
<path d="M49.8398 101.208L46.3945 117.758L49.6282 113.056L49.8398 101.208Z" fill="#DBB358"/>
<path d="M110.778 110.308C110.778 110.308 109.231 114.845 108.728 117.903L110.778 119.072V110.308Z" fill="#DBB358"/>
<path d="M96.1173 40.0077C95.5951 40.0077 95.1717 39.5849 95.1717 39.0633C95.1717 38.5417 95.5951 38.1189 96.1173 38.1189C96.6396 38.1189 97.063 38.5417 97.063 39.0633C97.063 39.5849 96.6396 40.0077 96.1173 40.0077Z" fill="#2D1006"/>
<path d="M88.9293 41.8963C88.4071 41.8963 87.9837 41.4735 87.9837 40.952C87.9837 40.4304 88.4071 40.0076 88.9293 40.0076C89.4516 40.0076 89.875 40.4304 89.875 40.952C89.875 41.4735 89.4516 41.8963 88.9293 41.8963Z" fill="#2D1006"/>
<path d="M69.4072 93.0121L78.3677 59.2322" stroke="#DBB358" stroke-width="1.16284" stroke-miterlimit="10"/>
<path d="M78.8377 59.5887C77.6654 59.5887 76.715 58.6396 76.715 57.4688C76.715 56.298 77.6654 55.3489 78.8377 55.3489C80.0101 55.3489 80.9604 56.298 80.9604 57.4688C80.9604 58.6396 80.0101 59.5887 78.8377 59.5887Z" fill="#FFE08F"/>
<path d="M225.168 312.757C226.286 312.757 227.185 311.852 227.185 310.743V146.188H223.151V310.743C223.151 311.859 224.051 312.757 225.168 312.757Z" fill="#8A8C8F"/>
<path d="M184.168 322.835L225.168 302.587L266.168 322.835C267.167 323.33 268.377 322.921 268.873 321.924C269.369 320.926 268.959 319.718 267.96 319.222L225.175 298.089L182.389 319.222C181.391 319.718 180.981 320.926 181.477 321.924C181.959 322.921 183.17 323.33 184.168 322.835Z" fill="#8A8C8F"/>
<path d="M223.151 251.002H227.185V279.565H223.151V251.002Z" fill="#211003"/>
<path d="M218.099 254.033H232.23V276.54H218.099V254.033Z" fill="#787A7D"/>
<path d="M183.124 141.242C182.614 143.19 200.35 149.524 222.748 155.401C245.146 161.272 263.715 164.455 264.224 162.514C264.733 160.566 246.998 154.232 224.6 148.355C202.202 142.477 183.633 139.294 183.124 141.242Z" fill="#CE8106"/>
<path d="M184.618 135.556C184.109 137.504 201.845 143.837 224.243 149.715C246.641 155.593 265.21 158.769 265.719 156.828C266.228 154.879 248.492 148.546 226.094 142.668C203.696 136.791 185.127 133.608 184.618 135.556Z" fill="#EBAB0D"/>
<path d="M215.706 140.899C215.012 143.547 218.993 146.882 224.6 148.355C230.208 149.827 235.32 148.87 236.014 146.228C236.708 143.58 232.728 140.245 227.12 138.772C221.512 137.299 216.4 138.25 215.706 140.899Z" fill="#EBAB0D"/>
<path d="M18.8332 322.835L-22.1668 302.587L-63.1668 322.835C-64.1654 323.33 -65.3755 322.921 -65.8715 321.924C-66.3674 320.926 -65.9574 319.718 -64.9589 319.222L-22.1734 298.089L20.6121 319.222C21.6107 319.718 22.0207 320.926 21.5247 321.924C21.0419 322.921 19.8318 323.33 18.8332 322.835Z" fill="#8A8C8F"/>
<path d="M19.878 141.242C20.3872 143.19 2.65135 149.524 -19.7465 155.401C-42.1444 161.272 -60.7135 164.455 -61.2227 162.514C-61.7319 160.566 -43.9961 154.232 -21.5982 148.355C0.799749 142.477 19.3688 139.294 19.878 141.242Z" fill="#CE8106"/>
<path d="M18.3833 135.556C18.8925 137.504 1.15675 143.837 -21.2412 149.715C-43.6391 155.593 -62.2081 158.769 -62.7173 156.828C-63.2265 154.879 -45.4907 148.546 -23.0928 142.668C-0.69488 136.791 17.8742 133.608 18.3833 135.556Z" fill="#EBAB0D"/>
<path d="M184.817 312.731C185.935 312.731 186.834 311.826 186.834 310.716V225.722H182.8V310.716C182.793 311.833 183.699 312.731 184.817 312.731Z" fill="#A6AAAD"/>
<path d="M143.817 322.809L184.817 302.56L225.817 322.809C226.815 323.304 228.025 322.894 228.521 321.897C229.017 320.9 228.607 319.691 227.609 319.196L184.823 298.063L142.038 319.196C141.039 319.691 140.629 320.9 141.125 321.897C141.608 322.894 142.818 323.304 143.817 322.809Z" fill="#A6AAAD"/>
<path d="M182.8 250.976H186.834V279.538H182.8V250.976Z" fill="#211003"/>
<path d="M177.747 254.007H191.879V276.514H177.747V254.007Z" fill="#8A8C8F"/>
<path d="M146.548 193.936L200.709 183.48L211.179 237.569L157.018 248.025L146.548 193.936Z" fill="#EBAB0D"/>
<path d="M142.914 190.657L202.866 179.083L204.352 186.76L144.4 198.334L142.914 190.657Z" fill="#3B1C05"/>
<path d="M172.737 182.97L174.958 182.541L177.375 195.029L175.154 195.458L172.737 182.97Z" fill="#211003"/>
<path d="M198.5 177.997L200.721 177.568L203.138 190.056L200.918 190.485L198.5 177.997Z" fill="#211003"/>
<path d="M144.344 188.453L146.564 188.024L148.981 200.512L146.761 200.941L144.344 188.453Z" fill="#211003"/>
<path d="M209.873 230.846L155.713 241.301" stroke="#FFDBA6" stroke-width="0.145355" stroke-miterlimit="10"/>
<path d="M18.1915 312.731C17.074 312.731 16.1746 311.826 16.1746 310.716V225.722H20.2085V310.716C20.2085 311.832 19.3025 312.731 18.1915 312.731Z" fill="#A6AAAD"/>
<path d="M59.1848 322.808L18.1848 302.56L-22.8152 322.808C-23.8138 323.304 -25.0239 322.894 -25.5199 321.897C-26.0159 320.9 -25.6059 319.691 -24.6073 319.196L18.1782 298.063L60.9637 319.196C61.9622 319.691 62.3722 320.9 61.8762 321.897C61.3935 322.894 60.1834 323.304 59.1848 322.808Z" fill="#A6AAAD"/>
<path d="M20.2019 279.542H16.168L16.168 250.979H20.2019L20.2019 279.542Z" fill="#211003"/>
<path d="M25.2543 276.511H11.1226L11.1226 254.004H25.2543L25.2543 276.511Z" fill="#8A8C8F"/>
<path d="M45.9865 248.037L-8.17432 237.581L2.29597 183.492L56.4568 193.948L45.9865 248.037Z" fill="#EBAB0D"/>
<path d="M58.606 198.346L-1.34619 186.771L0.139885 179.095L60.0921 190.669L58.606 198.346Z" fill="#3B1C05"/>
<path d="M27.8547 195.47L25.6343 195.042L28.0516 182.554L30.2721 182.982L27.8547 195.47Z" fill="#211003"/>
<path d="M2.08422 190.495L-0.13623 190.067L2.28114 177.579L4.50159 178.007L2.08422 190.495Z" fill="#211003"/>
<path d="M56.2517 200.954L54.0312 200.525L56.4486 188.037L58.6691 188.466L56.2517 200.954Z" fill="#211003"/>
<path d="M-6.87159 230.846L47.2881 241.301" stroke="#FFDBA6" stroke-width="0.145355" stroke-miterlimit="10"/>
<path d="M101.5 323.271C68.108 323.271 41.0384 296.237 41.0384 262.89C41.0384 229.542 68.108 202.508 101.5 202.508C134.892 202.508 161.962 229.542 161.962 262.89C161.962 296.237 134.892 323.271 101.5 323.271Z" fill="#696969"/>
<path d="M101.5 315.333C72.498 315.333 48.9871 291.853 48.9871 262.889C48.9871 233.926 72.498 210.446 101.5 210.446C130.502 210.446 154.013 233.926 154.013 262.889C154.013 291.853 130.502 315.333 101.5 315.333Z" fill="#EBAB0D"/>
<path d="M123.686 296.65C117.744 296.65 112.927 291.839 112.927 285.905C112.927 279.971 117.744 275.16 123.686 275.16C129.628 275.16 134.445 279.971 134.445 285.905C134.445 291.839 129.628 296.65 123.686 296.65Z" fill="#FAFAFA"/>
</svg>
