<svg width="207" height="73" viewBox="0 0 207 73" fill="none" xmlns="http://www.w3.org/2000/svg">
<path d="M80.0537 26.521C79.8491 26.3164 79.7489 26.0743 79.7489 25.7945V1.03637C79.7489 0.75664 79.8491 0.514484 80.0537 0.309905C80.2583 0.105327 80.5004 0.00512695 80.7801 0.00512695H86.834C87.5479 0.00512695 88.0991 0.351656 88.4832 1.04054L94.0402 10.2382L99.5972 1.04054C99.9813 0.351656 100.528 0.00512695 101.246 0.00512695H107.3C107.58 0.00512695 107.822 0.109502 108.027 0.309905C108.231 0.514484 108.331 0.75664 108.331 1.03637V25.7904C108.331 26.0701 108.227 26.3122 108.027 26.5168C107.822 26.7214 107.58 26.8216 107.3 26.8216H100.361C100.081 26.8216 99.8352 26.7214 99.6348 26.5168C99.4302 26.3122 99.33 26.0701 99.33 25.7904V15.2901L96.7999 19.4276C96.6203 19.7073 96.4242 19.9411 96.207 20.1164C95.9899 20.296 95.7144 20.3836 95.3846 20.3836H92.7C92.366 20.3836 92.0946 20.296 91.8775 20.1164C91.6604 19.9369 91.46 19.7073 91.2846 19.4276L88.7546 15.2901V25.7904C88.7546 26.0701 88.6543 26.3122 88.4497 26.5168C88.2452 26.7214 88.003 26.8216 87.7233 26.8216H80.7843C80.5004 26.8258 80.2583 26.7256 80.0537 26.521Z" fill="#003D59"/>
<path d="M119.566 26.5201C119.361 26.3155 119.261 26.0733 119.261 25.7936V18.2451L110.639 1.1899C110.589 1.0897 110.564 0.972793 110.564 0.843366C110.564 0.613737 110.648 0.41751 110.815 0.250507C110.982 0.083504 111.178 0 111.408 0H118.614C119.048 0 119.399 0.108551 119.666 0.325655C119.933 0.542759 120.121 0.755691 120.221 0.956095L124.054 8.6591L127.887 0.956095C127.987 0.751516 128.175 0.542759 128.442 0.325655C128.709 0.108551 129.06 0 129.494 0H136.7C136.93 0 137.126 0.083504 137.293 0.250507C137.46 0.41751 137.544 0.613737 137.544 0.843366C137.544 0.972793 137.518 1.08552 137.468 1.1899L128.847 18.2451V25.7894C128.847 26.0691 128.747 26.3113 128.542 26.5159C128.337 26.7204 128.095 26.8207 127.816 26.8207H120.305C120.012 26.8248 119.77 26.7246 119.566 26.5201Z" fill="#003D59"/>
<path d="M149.129 26.5201C148.925 26.3155 148.825 26.0733 148.825 25.7936V8.24159H142.462C142.182 8.24159 141.94 8.14139 141.735 7.93681C141.531 7.73223 141.431 7.49008 141.431 7.21035V1.03124C141.431 0.751513 141.531 0.509363 141.735 0.304785C141.94 0.100206 142.182 0 142.462 0H164.919C165.199 0 165.441 0.104381 165.646 0.304785C165.85 0.509363 165.951 0.751513 165.951 1.03124V7.202C165.951 7.48173 165.846 7.72806 165.646 7.92846C165.441 8.13304 165.199 8.23324 164.919 8.23324H158.557V25.7894C158.557 26.0691 158.452 26.3113 158.252 26.5159C158.047 26.7204 157.805 26.8207 157.525 26.8207H149.86C149.576 26.8248 149.334 26.7246 149.129 26.5201Z" fill="#FF7300"/>
<path d="M169.019 26.52C168.815 26.3154 168.715 26.0733 168.715 25.7936V1.03539C168.715 0.755664 168.815 0.513507 169.019 0.308929C169.224 0.10435 169.466 0.00415039 169.746 0.00415039H177.566C177.846 0.00415039 178.088 0.108525 178.292 0.308929C178.497 0.513507 178.597 0.755664 178.597 1.03539V25.7894C178.597 26.0691 178.493 26.3113 178.292 26.5158C178.088 26.7204 177.846 26.8206 177.566 26.8206H169.746C169.466 26.8248 169.224 26.7246 169.019 26.52Z" fill="#FF7300"/>
<path d="M183.123 26.52C182.918 26.3154 182.818 26.0733 182.818 25.7936V1.03539C182.818 0.755664 182.918 0.513507 183.123 0.308929C183.327 0.10435 183.569 0.00415039 183.849 0.00415039H195.464C199.042 0.00415039 201.856 0.797408 203.915 2.37976C205.973 3.96629 207 6.30433 207 9.39388C207 12.4584 205.977 14.7421 203.936 16.2368C201.89 17.7315 199.067 18.4788 195.464 18.4788H192.78V25.7894C192.78 26.0691 192.675 26.3113 192.475 26.5158C192.27 26.7204 192.028 26.8206 191.748 26.8206H183.853C183.569 26.8248 183.327 26.7246 183.123 26.52ZM195.276 11.3812C195.736 11.3812 196.145 11.21 196.504 10.8635C196.863 10.517 197.042 9.99927 197.042 9.31038C197.042 8.72169 196.901 8.21234 196.621 7.77813C196.341 7.34392 195.894 7.12682 195.281 7.12682H192.596V11.3812H195.276Z" fill="#FF7300"/>
<path d="M80.2031 70.2039C79.8983 69.8991 79.7438 69.5359 79.7438 69.1142V32.1022C79.7438 31.6805 79.8941 31.3214 80.2031 31.0125C80.5079 30.7077 80.8711 30.5532 81.2928 30.5532H92.7534C93.1751 30.5532 93.5341 30.7077 93.8431 31.0125C94.1478 31.3173 94.3023 31.6805 94.3023 32.1022V58.9187H110.172C110.593 58.9187 110.952 59.0731 111.261 59.3779C111.566 59.6827 111.721 60.0459 111.721 60.4676V69.1183C111.721 69.54 111.566 69.9033 111.261 70.208C110.957 70.5128 110.593 70.6673 110.172 70.6673H81.2928C80.8711 70.6589 80.5079 70.5086 80.2031 70.2039Z" fill="#003D59"/>
<path d="M116.071 70.2039C115.766 69.8991 115.612 69.5358 115.612 69.1142V32.1022C115.612 31.6805 115.762 31.3214 116.071 31.0125C116.376 30.7077 116.739 30.5532 117.161 30.5532H128.851C129.273 30.5532 129.632 30.7077 129.941 31.0125C130.245 31.3173 130.4 31.6805 130.4 32.1022V69.1142C130.4 69.5358 130.245 69.8991 129.941 70.2039C129.636 70.5086 129.273 70.6631 128.851 70.6631H117.161C116.739 70.659 116.376 70.5086 116.071 70.2039Z" fill="#003D59"/>
<path d="M137.155 70.2039C136.85 69.8991 136.696 69.5358 136.696 69.1142V32.1022C136.696 31.6805 136.846 31.3214 137.155 31.0125C137.46 30.7077 137.823 30.5532 138.245 30.5532H167.124C167.546 30.5532 167.905 30.7077 168.214 31.0125C168.518 31.3173 168.673 31.6805 168.673 32.1022V40.8114C168.673 41.2331 168.518 41.5963 168.214 41.9011C167.909 42.2058 167.546 42.3603 167.124 42.3603H150.737V46.6022H165.976C166.397 46.6022 166.756 46.7567 167.065 47.0615C167.37 47.3662 167.525 47.7295 167.525 48.1511V56.8019C167.525 57.2236 167.37 57.5868 167.065 57.8916C166.761 58.1964 166.397 58.3508 165.976 58.3508H150.737V69.1225C150.737 69.5442 150.582 69.9074 150.278 70.2122C149.973 70.517 149.609 70.6715 149.188 70.6715H138.245C137.823 70.6589 137.46 70.5086 137.155 70.2039Z" fill="#003D59"/>
<path d="M174.167 70.2039C173.862 69.8991 173.708 69.5359 173.708 69.1142V32.1022C173.708 31.6805 173.858 31.3214 174.167 31.0125C174.472 30.7077 174.835 30.5532 175.257 30.5532H204.649C205.071 30.5532 205.43 30.7077 205.739 31.0125C206.044 31.3173 206.198 31.6805 206.198 32.1022V40.1809C206.198 40.6026 206.044 40.9658 205.739 41.2706C205.434 41.5754 205.071 41.7299 204.649 41.7299H187.461V45.3413H203.389C203.81 45.3413 204.169 45.4958 204.478 45.8006C204.783 46.1054 204.938 46.4686 204.938 46.8903V54.3386C204.938 54.7603 204.783 55.1235 204.478 55.4283C204.173 55.7331 203.81 55.8875 203.389 55.8875H187.461V59.499H205.109C205.53 59.499 205.889 59.6535 206.198 59.9582C206.503 60.263 206.658 60.6263 206.658 61.0479V69.1267C206.658 69.5484 206.503 69.9116 206.198 70.2164C205.894 70.5212 205.53 70.6757 205.109 70.6757H175.257C174.835 70.659 174.472 70.5086 174.167 70.2039Z" fill="#003D59"/>
<path d="M49.5914 72.8718H8.40024C3.76174 72.8718 0 69.1101 0 64.4716V21.7397C0 17.1012 3.76174 13.3395 8.40024 13.3395H49.5914C54.2299 13.3395 57.9917 17.1012 57.9917 21.7397V64.4716C57.9959 69.1101 54.2341 72.8718 49.5914 72.8718Z" fill="#FFCE00"/>
<path d="M49.4996 15.8696C52.7854 15.8696 55.4616 18.5416 55.4616 21.8316V64.3797C55.4616 67.6655 52.7854 70.3417 49.4996 70.3417H8.49208C5.2063 70.3417 2.53007 67.6697 2.53007 64.3797V21.8316C2.53007 18.5458 5.2063 15.8696 8.49208 15.8696H49.4996ZM49.4996 13.3395H8.49208C3.7993 13.3395 0 17.143 0 21.8316V64.3797C0 69.0725 3.80347 72.8718 8.49208 72.8718H49.4996C54.1882 72.8718 57.9917 69.0683 57.9917 64.3797V21.8316C57.9959 17.1388 54.1924 13.3395 49.4996 13.3395Z" fill="#FF7300"/>
<path d="M28.9959 64.743C40.947 64.743 50.6353 55.0547 50.6353 43.1036C50.6353 31.1525 40.947 21.4642 28.9959 21.4642C17.0448 21.4642 7.35651 31.1525 7.35651 43.1036C7.35651 55.0547 17.0448 64.743 28.9959 64.743Z" fill="#FFA300"/>
<path d="M28.9959 61.6827C39.2568 61.6827 47.5749 53.3645 47.5749 43.1036C47.5749 32.8427 39.2568 24.5245 28.9959 24.5245C18.7349 24.5245 10.4168 32.8427 10.4168 43.1036C10.4168 53.3645 18.7349 61.6827 28.9959 61.6827Z" fill="#FFCE00"/>
<path d="M24.4742 57.1696C24.3365 56.9775 24.2822 56.7687 24.3198 56.5433L24.6579 54.4057C22.3366 53.7001 20.6332 52.6521 19.5518 51.266C18.4705 49.8799 18.0321 48.3977 18.2408 46.8196C18.2701 46.6359 18.3619 46.4855 18.5164 46.3728C18.6709 46.2601 18.842 46.2183 19.0299 46.2476L24.9126 47.1786C25.2007 47.2245 25.4261 47.2955 25.5931 47.3957C25.7559 47.4959 25.948 47.6713 26.1609 47.9134C26.6828 48.4812 27.4093 48.8403 28.3404 48.9864C29.0418 49.0991 29.6179 49.1075 30.0647 49.0198C30.5114 48.9321 30.7577 48.7526 30.7994 48.4854C30.8579 48.1138 30.6241 47.784 30.098 47.5001C29.572 47.2162 28.5491 46.8488 27.0336 46.3979C21.8189 44.8531 19.5142 42.1602 20.1238 38.3233C20.3993 36.5698 21.2636 35.1711 22.7081 34.1315C24.1527 33.0919 25.9564 32.5492 28.1232 32.5116L28.4656 30.3447C28.5031 30.1193 28.6159 29.9356 28.808 29.7978C29 29.66 29.2088 29.6057 29.4342 29.6433L33.1792 30.2362C33.4047 30.2738 33.5884 30.3865 33.7262 30.5785C33.8639 30.7706 33.9182 30.9793 33.8806 31.2048L33.5216 33.4635C34.8576 33.9729 35.9849 34.6409 36.8992 35.4759C37.8136 36.3067 38.4816 37.1877 38.8949 38.1104C39.3082 39.033 39.4753 39.8806 39.4001 40.6488C39.3709 40.8325 39.279 40.9828 39.1204 41.0955C38.9659 41.2083 38.803 41.25 38.6402 41.225L32.4486 40.2438C32.1605 40.1979 31.9393 40.1269 31.7848 40.0267C31.6303 39.9265 31.4633 39.772 31.2879 39.5508C30.9122 39.1124 30.3945 38.8368 29.7348 38.7324C28.7453 38.5738 28.2026 38.7867 28.1107 39.3629C28.0606 39.6718 28.2652 39.9683 28.7161 40.2522C29.167 40.5361 30.0438 40.8659 31.338 41.2375C33.3588 41.8303 34.9537 42.4984 36.1185 43.229C37.2834 43.9638 38.0766 44.8239 38.5025 45.8134C38.9283 46.8029 39.0327 47.976 38.8198 49.3371C38.5275 51.195 37.5839 52.6396 35.9932 53.6667C34.4025 54.6937 32.4319 55.2156 30.0813 55.224L29.739 57.3908C29.7014 57.6163 29.5887 57.8 29.3966 57.9419C29.2046 58.0797 28.9958 58.134 28.7703 58.0964L25.0253 57.5036C24.7957 57.4743 24.612 57.3616 24.4742 57.1696Z" fill="#FFA300"/>
<path d="M23.706 55.6331C23.5682 55.441 23.5139 55.2322 23.5515 55.0068L23.8897 52.8692C21.5684 52.1636 19.865 51.1156 18.7836 49.7295C17.7023 48.3434 17.2639 46.8612 17.4726 45.2831C17.5019 45.0994 17.5937 44.949 17.7482 44.8363C17.9027 44.7236 18.0739 44.6818 18.2576 44.7111L24.1402 45.6421C24.4283 45.688 24.6538 45.759 24.8208 45.8592C24.9836 45.9594 25.1756 46.1348 25.3886 46.3769C25.9104 46.9489 26.6369 47.3038 27.5679 47.4499C28.2693 47.5626 28.8455 47.571 29.2922 47.4833C29.739 47.3956 29.9853 47.2161 30.0271 46.9489C30.0855 46.5773 29.8517 46.2475 29.3257 45.9636C28.7996 45.6797 27.7767 45.3123 26.2611 44.8614C21.0465 43.3166 18.7419 40.6237 19.3514 36.7868C19.627 35.0333 20.4912 33.6346 21.9358 32.595C23.3803 31.5554 25.184 31.0127 27.3467 30.9751L27.689 28.8082C27.7266 28.5828 27.8393 28.3991 28.0314 28.2613C28.2234 28.1235 28.4322 28.0692 28.6576 28.1068L32.4027 28.6997C32.6282 28.7373 32.8118 28.85 32.9538 29.042C33.0916 29.2341 33.1458 29.4428 33.1083 29.6683L32.7492 31.927C34.0852 32.4364 35.2125 33.1044 36.1268 33.9394C37.0412 34.7702 37.7092 35.6512 38.1225 36.5739C38.5359 37.4965 38.7029 38.3441 38.6236 39.1123C38.5943 39.296 38.5025 39.4463 38.348 39.559C38.1935 39.6718 38.0307 39.7177 37.8679 39.6885L31.6762 38.7073C31.3882 38.6614 31.1668 38.5904 31.0124 38.4902C30.8579 38.3942 30.6909 38.2355 30.5156 38.0143C30.1398 37.5759 29.6221 37.3003 28.9624 37.1959C27.973 37.0415 27.4302 37.2502 27.3383 37.8264C27.2882 38.1353 27.4886 38.4318 27.9437 38.7157C28.3946 38.9996 29.2714 39.3294 30.5657 39.701C32.5864 40.298 34.1812 40.9619 35.3461 41.6925C36.5109 42.4273 37.3042 43.2874 37.7301 44.2769C38.1559 45.2664 38.2603 46.4395 38.0474 47.8006C37.7551 49.6585 36.8116 51.1031 35.2209 52.1302C33.6302 53.1572 31.6595 53.6791 29.309 53.6875L28.9666 55.8543C28.929 56.0798 28.8163 56.2635 28.6242 56.4013C28.4322 56.539 28.2234 56.5933 27.998 56.5557L24.253 55.9629C24.0275 55.9378 23.8438 55.8251 23.706 55.6331Z" fill="#FFE161"/>
<path d="M49.7669 10.2039H8.22908C7.22706 10.2039 6.41711 9.39396 6.41711 8.39194V2.13351C6.41711 1.1315 7.22706 0.321533 8.22908 0.321533H49.7669C50.7689 0.321533 51.5788 1.1315 51.5788 2.13351V8.39194C51.5788 9.39396 50.7689 10.2039 49.7669 10.2039Z" fill="#003D59"/>
</svg>
