<svg width="339" height="143" viewBox="0 0 339 143" fill="none" xmlns="http://www.w3.org/2000/svg">
<path d="M259.5 142.765C215.593 142.765 180 141.3 180 139.493C180 137.685 215.593 136.22 259.5 136.22C303.407 136.22 339 137.685 339 139.493C339 141.3 303.407 142.765 259.5 142.765Z" fill="#F4F4F4"/>
<path d="M294.343 14.9236L285.826 2.49658" stroke="#DBB358" stroke-width="0.501061" stroke-miterlimit="10"/>
<path d="M285.381 2.76125C284.876 2.76125 284.467 2.35228 284.467 1.84779C284.467 1.3433 284.876 0.934326 285.381 0.934326C285.886 0.934326 286.296 1.3433 286.296 1.84779C286.296 2.35228 285.886 2.76125 285.381 2.76125Z" fill="#FFE08F"/>
<path d="M256.169 20.7089C253.63 21.7732 253.428 24.6132 251.293 22.8403C249.159 21.0646 249.669 15.6379 250.886 15.6891C251.991 15.7347 255.425 16.8872 257.454 14.5623C258.728 16.8815 259.859 19.6958 260.446 22.2427C260.241 21.9525 258.545 19.7101 256.169 20.7089Z" fill="#845C47"/>
<path d="M244.571 20.2679C244.944 19.491 247.72 19.0841 247.888 22.2627C247.925 22.9314 248.019 23.5632 248.159 24.1636C247.905 24.7413 247.458 25.06 246.703 24.801C246.458 24.7157 246.241 24.6075 246.042 24.488C246.019 24.377 246.007 24.3144 246.007 24.3144C246.007 24.3144 246.019 24.377 246.042 24.488C244.181 23.3811 244.235 20.9708 244.571 20.2679Z" fill="#845C47"/>
<path d="M239.713 130.355H242.058C241.901 134.356 241.559 136.576 241.559 136.576H233.23C233.162 132.789 238.038 132.453 238.038 132.453C237.884 131.764 237.707 131.064 237.51 130.355H239.713Z" fill="#330000"/>
<path d="M280.195 133.059C283.959 133.261 284.353 136.576 284.353 136.576H276.16C276.16 136.576 276.083 134.328 276.052 130.355H281.372C280.643 132.054 280.195 133.059 280.195 133.059Z" fill="#330000"/>
<path d="M250.869 29.3654C249.826 28.1645 248.68 26.4116 248.162 24.1664C248.259 23.9473 248.33 23.6883 248.378 23.4123C248.33 23.6911 248.259 23.9473 248.162 24.1664C248.022 23.5688 247.925 22.9342 247.891 22.2655C247.723 19.0869 244.945 19.4938 244.574 20.2706C244.238 20.9735 244.184 23.381 246.048 24.4879C246.139 24.9148 246.455 26.0957 247.304 27.5527C246.381 28.2954 242.87 30.646 240.072 26.238C236.821 21.1158 241.24 19.4426 241.24 19.4426C241.24 19.4426 240.021 19.5934 239.87 18.5803C239.719 17.5673 240.691 17.4648 240.691 17.4648C240.691 17.4648 237.36 16.9668 238.297 14.4228C238.907 12.7695 240.819 12.576 242.03 12.63C242.702 13.0939 243.375 13.3557 243.375 13.3557C243.375 13.3557 242.702 13.091 242.03 12.63C242.637 12.6585 243.07 12.7495 243.07 12.7495C243.07 12.7495 242.637 12.6585 242.03 12.63C240.81 11.7877 239.593 10.288 242.409 8.48958C246.777 5.70083 248.299 9.80713 248.299 9.80713C248.299 9.80713 247.891 8.43836 249.467 7.5249C251.04 6.61144 252.16 8.23347 252.16 8.23347C252.262 7.06675 255.257 5.24267 257.594 6.71104C259.93 8.1794 257.388 10.6694 257.388 10.6694C258.34 11.5003 258.537 12.8292 258.035 13.7341C257.861 14.05 257.668 14.3232 257.46 14.5622C257.414 14.4797 257.368 14.3943 257.323 14.3118C257.368 14.3943 257.414 14.4797 257.46 14.5622C255.428 16.8843 251.997 15.7347 250.892 15.6891C249.672 15.6379 249.165 21.0646 251.299 22.8403C253.433 24.616 253.636 21.776 256.175 20.7089C258.551 19.7129 260.246 21.9524 260.454 22.2427C260.796 23.7338 260.959 25.1339 260.848 26.2864C260.543 29.4821 256.075 30.1906 256.075 30.1906C254.892 30.3671 254.003 30.3244 253.536 30.6061C252.749 30.5321 251.647 30.2589 250.869 29.3654Z" fill="#2D1006"/>
<path d="M253.137 80.6528C248.603 80.7297 240.294 80.7866 233.396 81.6545C234.983 76.0286 235.914 68.7579 236.462 62.1389L236.453 62.267C236.453 62.267 241.1 52.4892 242.42 49.8513C243.739 47.2134 244.722 47.8565 245.908 47.6886C247.09 47.5207 247.141 44.2169 247.141 44.2084C247.298 43.5595 247.364 42.9164 247.281 42.464C247.201 42.0286 246.965 41.707 246.68 41.4708C246.817 40.9273 246.888 39.8659 245.554 39.4219C243.725 38.813 240.781 43.5795 238.126 49.5639C237.835 50.2184 237.482 50.8644 237.088 51.5018C237.111 50.8473 237.134 50.2269 237.148 49.6464C237.239 46.5133 237.239 44.5413 237.239 44.5413C237.239 44.5413 237.239 46.5133 237.148 49.6464C237.148 49.6464 235.695 51.8803 234.057 53.9235C232.923 53.656 231.39 53.0669 229.406 51.8433C227.882 50.9014 226.836 49.931 226.115 49.0318C228.99 41.2602 237.148 34.5729 237.239 34.5018C239.986 33.4346 243.152 32.8285 246.785 32.894C246.309 33.631 245.734 35.1933 247.537 37.1027C250.059 39.7748 255.279 39.5158 256.12 37.1027C256.496 36.0185 256.385 35.0965 256.151 34.4278C264.429 36.9946 269.758 41.9347 276.063 43.0786C276.921 44.3762 278.007 46.7552 277.146 49.6834C276.918 50.4546 276.613 51.1432 276.263 51.7522C268.119 52.3555 263.061 49.8798 263.061 49.8798V51.9969C262.885 51.8945 262.734 51.8063 262.62 51.7351C262.833 50.6111 263.124 49.5155 263.503 48.4626C263.124 49.5155 262.833 50.6111 262.62 51.7351C262.42 51.6128 262.318 51.5388 262.318 51.5388C262.318 51.5388 262.42 51.6128 262.62 51.7351C260.534 62.6682 265.657 76.3046 267.447 80.6045C261.996 80.465 256.773 80.5931 253.137 80.6528Z" fill="#FFE08F"/>
<path d="M236.653 59.6831C236.596 60.4884 236.533 61.308 236.465 62.1389L236.653 59.6831Z" fill="#DBB358"/>
<path d="M243.574 46.1662C244.278 45.7394 244.588 46.3683 245.503 46.6728C246.116 46.8776 246.82 45.5288 247.142 44.2056C247.142 44.2141 247.09 47.5151 245.908 47.6858C244.722 47.8537 243.742 47.2134 242.42 49.8485C241.101 52.4865 236.453 62.2642 236.453 62.2642L236.462 62.1361C236.53 61.3052 236.593 60.4856 236.65 59.6803C239.069 54.3532 241.175 47.6232 243.574 46.1662Z" fill="#DBB358"/>
<path d="M237.148 49.6494C237.131 50.2299 237.111 50.8503 237.089 51.5048C237.06 51.5503 237.029 51.5959 237 51.6414L237.148 49.6494Z" fill="#FFE08F"/>
<path d="M225.494 97.2544C221.436 90.4647 226.4 83.0631 226.411 83.0489C228.343 82.437 230.768 81.9874 233.398 81.6573C233.299 82.0045 233.199 82.3488 233.096 82.6846C233.199 82.3488 233.299 82.0045 233.398 81.6573C240.297 80.7894 248.606 80.7325 253.139 80.6557C256.775 80.5959 261.998 80.4678 267.444 80.6101C267.808 81.4837 268.036 81.9732 268.036 81.9732C268.036 81.9732 267.808 81.4837 267.444 80.6101C275.026 80.8093 283.039 81.5321 287.806 83.6977C295.998 87.417 293.357 96.95 289.635 108.614C286.954 117.009 283.244 125.984 281.375 130.355H276.055C276.029 126.875 276.035 122.069 276.163 116.289C276.337 108.313 277.807 100.564 278.827 96.0621C279.144 96.1048 279.471 96.1532 279.819 96.2072C279.471 96.1532 279.144 96.1048 278.827 96.0621L279.819 92.081C279.819 92.081 274.214 90.1203 261.146 90.7948C248.079 91.472 239.787 90.8631 236.621 88.5638L238.533 95.9967C238.205 95.9597 238.043 95.934 238.043 95.934C238.043 95.934 238.203 95.9597 238.533 95.9967C242.052 111.278 242.331 123.46 242.064 130.352H239.718C237.781 122.478 229.554 104.05 225.494 97.2544Z" fill="#85BEF2"/>
<path d="M280.44 51.2032C278.97 51.4849 277.577 51.6613 276.257 51.7581C276.608 51.1491 276.913 50.4633 277.141 49.6893C278.001 46.7583 276.916 44.3821 276.058 43.0845C278.568 43.5398 281.232 43.3975 284.298 42.2621C297.044 37.5468 291.425 12.7639 291.425 12.7639L291.057 12.7838C289.784 12.8578 288.658 11.933 288.513 10.6666C288.51 10.6496 288.51 10.6353 288.507 10.6211C288.37 9.4117 289.163 8.26489 290.354 8.00878C290.667 7.94049 290.972 7.92057 291.26 7.9291C292.303 7.96041 293.189 8.70313 293.468 9.7048C296.397 20.211 297.044 29.818 295.326 37.4017C295.295 37.5013 290.958 49.1856 280.44 51.2032Z" fill="#845C47"/>
<path d="M256.118 37.1057C255.277 39.5188 250.057 39.7778 247.535 37.1057C245.731 35.1963 246.307 33.634 246.783 32.897C247.498 32.9112 248.233 32.951 248.985 33.0165C248.726 33.1958 248.427 33.2982 248.128 33.284C248.427 33.2982 248.726 33.1958 248.985 33.0165C249.042 33.0222 249.102 33.025 249.159 33.0307C251.188 33.2242 253.057 33.5771 254.795 34.0409C255.323 34.4137 255.778 34.6015 255.778 34.6015C255.778 34.6015 255.325 34.4109 254.795 34.0409C255.254 34.1633 255.707 34.2942 256.149 34.4308C256.38 35.0995 256.494 36.0215 256.118 37.1057Z" fill="#845C47"/>
<path d="M248.985 33.0193C249.538 32.638 249.908 31.9095 249.718 31.2066C249.51 30.4497 248.7 29.6073 247.991 28.6199C247.726 28.2528 247.501 27.8942 247.298 27.5528C247.449 27.4332 247.532 27.3536 247.532 27.3536C247.532 27.3536 247.447 27.4332 247.298 27.5528C246.449 26.0958 246.136 24.9148 246.042 24.488C246.241 24.6075 246.455 24.7156 246.703 24.801C247.458 25.0628 247.905 24.7412 248.159 24.1636C248.68 26.4117 249.826 28.1617 250.866 29.3626C251.644 30.259 252.747 30.5322 253.524 30.6062C253.191 30.8082 253.071 31.1753 253.22 31.9152C253.413 32.8855 254.157 33.5941 254.792 34.0409C253.054 33.577 251.185 33.2213 249.156 33.0307C249.102 33.0278 249.042 33.0221 248.985 33.0193Z" fill="#845C47"/>
<path d="M237 51.6384V51.6413C236.461 52.5092 235.869 53.3344 235.248 54.1113C235.23 54.1113 235.216 54.1113 235.199 54.1085C235.849 53.3202 236.461 52.4921 237 51.6384Z" fill="#845C47"/>
<path d="M235.197 54.1113C235.214 54.1113 235.228 54.1113 235.245 54.1142C231.874 58.3286 227.728 61.0775 227.728 61.0775C227.728 61.0775 231.925 58.081 235.197 54.1113Z" fill="#845C47"/>
<path d="M227.728 61.0774C227.728 61.0774 229.181 58.4395 231.449 56.6809C232.241 56.0662 233.176 55.0247 234.054 53.9263C234.492 54.0287 234.874 54.0856 235.196 54.1084C231.925 58.0809 227.728 61.0774 227.728 61.0774Z" fill="#603420"/>
<path d="M235.196 54.1113C234.874 54.0885 234.493 54.0316 234.054 53.9291C235.692 51.8831 237.146 49.6521 237.146 49.6521L236.997 51.6412C236.462 52.4921 235.849 53.3202 235.196 54.1113Z" fill="#DBB358"/>
<path d="M242.656 43.9011L236.886 55.8757C236.972 54.3048 237.037 52.8308 237.086 51.5047C237.482 50.8673 237.835 50.2213 238.123 49.5668C240.776 43.5824 243.722 38.8159 245.551 39.4248C246.885 39.8688 246.814 40.9302 246.677 41.4737C246.039 40.9444 245.147 40.8448 245.147 40.8448C245.147 40.8448 246.039 40.9473 246.677 41.4737C246.626 41.6758 246.569 41.8067 246.569 41.8067C246.569 41.8067 246.628 41.6758 246.677 41.4737C246.962 41.7099 247.198 42.0315 247.278 42.4669C247.361 42.9165 247.295 43.5624 247.138 44.2113L242.656 43.9011Z" fill="#845C47"/>
<path d="M242.656 43.9011L247.139 44.2085C246.817 45.5317 246.113 46.8777 245.5 46.6756C244.586 46.3712 244.275 45.7423 243.571 46.1691C241.175 47.6233 239.066 54.3533 236.65 59.6832C236.744 58.3656 236.821 57.0936 236.886 55.8757L242.656 43.9011Z" fill="#845C47"/>
<path d="M225.189 52.8763C225.32 51.5844 225.648 50.2953 226.115 49.0347C226.836 49.9339 227.882 50.9043 229.406 51.8462C231.389 53.0698 232.922 53.6589 234.057 53.9264C233.176 55.0248 232.244 56.0663 231.452 56.681C229.184 58.4396 227.731 61.0775 227.731 61.0775C227.731 61.0775 231.877 58.3286 235.248 54.1142C236.182 54.1768 236.618 53.9776 236.618 53.9776C236.618 53.9776 236.182 54.1739 235.248 54.1142C235.869 53.3373 236.464 52.5121 237 51.6441V51.6413C237.029 51.5958 237.06 51.5502 237.088 51.5047C237.04 52.8336 236.974 54.3077 236.889 55.8757L236.652 56.368V59.6832C235.607 61.991 234.501 64.0342 233.29 65.2749C229.335 67.1388 224.24 62.193 225.189 52.8763Z" fill="#845C47"/>
<path d="M236.889 55.8757C236.824 57.0937 236.747 58.3657 236.653 59.6832V56.368L236.889 55.8757Z" fill="#845C47"/>
<path d="M276.257 51.7608C275.471 53.1296 274.459 54.1028 273.604 54.7487C268.373 54.6833 264.58 52.8734 263.053 52.0027V49.8855C263.056 49.8855 268.114 52.3641 276.257 51.7608Z" fill="#DBB358"/>
<path d="M276.257 51.7607C277.574 51.6639 278.97 51.4875 280.44 51.2058C290.958 49.1854 295.294 37.5039 295.332 37.4043C293.699 44.6238 289.926 50.0106 283.948 52.5916C280.13 54.2393 276.631 54.7857 273.607 54.7487C274.459 54.0998 275.471 53.1295 276.257 51.7607Z" fill="#603420"/>
<path d="M226.113 49.0375C225.209 47.9106 224.819 46.9004 224.654 46.206C227.073 41.5676 231.108 36.8893 237.237 34.5046C237.148 34.5786 228.988 41.2631 226.113 49.0375Z" fill="#DBB358"/>
<path d="M225.189 52.8763C224.24 62.193 229.338 67.1388 233.29 65.2749C232.504 66.0802 231.669 66.5497 230.777 66.5298C225.343 66.4018 220.163 59.8112 222.499 51.5958C222.981 49.9054 223.687 48.0586 224.653 46.2061C224.821 46.8976 225.212 47.9106 226.112 49.0375C225.648 50.2953 225.32 51.5844 225.189 52.8763Z" fill="#603420"/>
<path d="M261.141 90.7948C274.209 90.1175 279.813 92.081 279.813 92.081L278.822 96.0621C275.551 95.6154 273.257 95.7207 259.434 96.2756C246.688 96.7878 240.257 96.2016 238.528 95.9995L236.616 88.5667C239.784 90.866 248.073 91.4721 261.141 90.7948Z" fill="#3886C1"/>
<path d="M225.494 97.2544C229.557 104.05 237.784 122.478 239.713 130.355H237.51C234.752 120.449 227.976 109.07 224.565 103.577C220.909 97.6955 218.607 88.8369 222.873 84.8473C223.642 84.1273 224.873 83.5354 226.412 83.0488C226.4 83.0631 221.434 90.4646 225.494 97.2544Z" fill="#3886C1"/>
<path d="M246.329 22.1914C246.329 22.1914 246.381 21.1755 245.526 20.8967C245.825 20.5637 246.329 20.5552 246.329 20.5552C246.329 20.5552 245.825 20.5609 245.526 20.8967C245.526 20.8967 245.526 20.8967 245.523 20.8967C245.523 20.8967 245.523 20.8967 245.526 20.8967C245.309 21.1385 245.201 21.5483 245.466 22.254C245.201 21.5483 245.309 21.1357 245.526 20.8967C246.381 21.1755 246.329 22.1914 246.329 22.1914Z" stroke="#330000" stroke-width="0.250531" stroke-miterlimit="10" stroke-linecap="round" stroke-linejoin="round"/>
<path d="M257.522 24.6642C258.842 24.2573 258.369 23.0081 258.369 23.0081C258.369 23.0081 258.842 24.2573 257.522 24.6642ZM257.522 24.6642C256.203 25.0712 255.086 23.2613 255.086 23.2613C255.086 23.2613 256.2 25.0712 257.522 24.6642Z" stroke="#845C47" stroke-width="0.250531" stroke-miterlimit="10" stroke-linecap="round" stroke-linejoin="round"/>
<path d="M248.162 24.1634C248.162 24.1634 247.928 24.8407 247.295 24.8862C246.663 24.9318 245.828 24.4167 245.529 24.1037C245.529 24.1037 244.474 23.2585 244.392 21.5084C244.309 19.7583 245.204 19.7897 246.167 19.7498C247.13 19.71 247.663 20.834 247.766 21.4031" stroke="#330000" stroke-width="0.250531" stroke-miterlimit="10" stroke-linecap="round" stroke-linejoin="round"/>
<path d="M237.24 44.5442L235.755 51.6754L237.149 49.6493L237.24 44.5442Z" fill="#DBB358"/>
<path d="M263.498 48.4656C263.498 48.4656 262.831 50.4206 262.614 51.7381L263.498 52.2418V48.4656Z" fill="#DBB358"/>
<path d="M257.18 18.1735C256.955 18.1735 256.773 17.9913 256.773 17.7666C256.773 17.5418 256.955 17.3596 257.18 17.3596C257.405 17.3596 257.588 17.5418 257.588 17.7666C257.588 17.9913 257.405 18.1735 257.18 18.1735Z" fill="#2D1006"/>
<path d="M254.083 18.9872C253.858 18.9872 253.675 18.805 253.675 18.5803C253.675 18.3555 253.858 18.1733 254.083 18.1733C254.308 18.1733 254.49 18.3555 254.49 18.5803C254.49 18.805 254.308 18.9872 254.083 18.9872Z" fill="#2D1006"/>
<path d="M245.671 41.0126L249.532 26.457" stroke="#DBB358" stroke-width="0.501061" stroke-miterlimit="10"/>
<path d="M249.735 26.6109C249.23 26.6109 248.82 26.2019 248.82 25.6974C248.82 25.1929 249.23 24.7839 249.735 24.7839C250.24 24.7839 250.649 25.1929 250.649 25.6974C250.649 26.2019 250.24 26.6109 249.735 26.6109Z" fill="#FFE08F"/>
<path d="M312.788 135.699C313.27 135.699 313.657 135.31 313.657 134.832V63.926H311.919V134.832C311.919 135.312 312.307 135.699 312.788 135.699Z" fill="#8A8C8F"/>
<path d="M295.121 140.042L312.788 131.317L330.455 140.042C330.885 140.255 331.406 140.079 331.62 139.649C331.834 139.219 331.657 138.699 331.227 138.485L312.791 129.379L294.355 138.485C293.925 138.699 293.748 139.219 293.962 139.649C294.17 140.079 294.691 140.255 295.121 140.042Z" fill="#8A8C8F"/>
<path d="M311.919 109.09H313.657V121.397H311.919V109.09Z" fill="#211003"/>
<path d="M309.742 110.396H315.831V120.094H309.742V110.396Z" fill="#787A7D"/>
<path d="M294.672 61.7944C294.452 62.6338 302.095 65.3628 311.746 67.8955C321.397 70.4253 329.398 71.7969 329.617 70.9603C329.837 70.1208 322.195 67.3918 312.543 64.8591C302.892 62.3265 294.891 60.9549 294.672 61.7944Z" fill="#CE8106"/>
<path d="M295.315 59.3444C295.096 60.1839 302.738 62.9129 312.389 65.4455C322.04 67.9782 330.042 69.3469 330.261 68.5103C330.48 67.6708 322.838 64.9418 313.187 62.4092C303.536 59.8766 295.535 58.5049 295.315 59.3444Z" fill="#EBAB0D"/>
<path d="M308.711 61.6466C308.411 62.7877 310.127 64.2247 312.543 64.8593C314.959 65.4939 317.162 65.0813 317.461 63.943C317.76 62.8019 316.045 61.3649 313.629 60.7303C311.212 60.0957 309.01 60.5055 308.711 61.6466Z" fill="#EBAB0D"/>
<path d="M206.212 135.699C205.73 135.699 205.343 135.309 205.343 134.831V63.9258H207.081V134.831C207.081 135.312 206.694 135.699 206.212 135.699Z" fill="#8A8C8F"/>
<path d="M223.879 140.042L206.212 131.317L188.546 140.042C188.115 140.255 187.594 140.079 187.38 139.649C187.166 139.219 187.343 138.698 187.773 138.485L206.209 129.379L224.645 138.485C225.076 138.698 225.252 139.219 225.039 139.649C224.831 140.079 224.309 140.255 223.879 140.042Z" fill="#8A8C8F"/>
<path d="M207.082 121.398H205.344V109.091H207.082V121.398Z" fill="#211003"/>
<path d="M209.256 120.092H203.167V110.394H209.256V120.092Z" fill="#787A7D"/>
<path d="M224.329 61.7944C224.548 62.6338 216.906 65.3628 207.255 67.8955C197.604 70.4253 189.602 71.7969 189.383 70.9603C189.164 70.1208 196.806 67.3918 206.457 64.8591C216.108 62.3265 224.109 60.9549 224.329 61.7944Z" fill="#CE8106"/>
<path d="M223.685 59.3442C223.904 60.1836 216.262 62.9126 206.611 65.4453C196.96 67.9779 188.958 69.3467 188.739 68.5101C188.52 67.6706 196.162 64.9416 205.813 62.409C215.464 59.8763 223.465 58.5047 223.685 59.3442Z" fill="#EBAB0D"/>
<path d="M210.289 61.6463C210.589 62.7874 208.873 64.2245 206.457 64.8591C204.04 65.4937 201.838 65.081 201.539 63.9428C201.239 62.8017 202.955 61.3646 205.371 60.73C207.788 60.0954 209.99 60.5052 210.289 61.6463Z" fill="#EBAB0D"/>
<path d="M295.4 135.688C295.882 135.688 296.27 135.298 296.27 134.82V98.1963H294.531V134.82C294.529 135.301 294.919 135.688 295.4 135.688Z" fill="#A6AAAD"/>
<path d="M277.734 140.03L295.4 131.306L313.067 140.03C313.497 140.244 314.019 140.067 314.232 139.638C314.446 139.208 314.27 138.687 313.839 138.474L295.403 129.368L276.967 138.474C276.537 138.687 276.36 139.208 276.574 139.638C276.782 140.067 277.303 140.244 277.734 140.03Z" fill="#A6AAAD"/>
<path d="M294.531 109.078H296.27V121.386H294.531V109.078Z" fill="#211003"/>
<path d="M292.355 110.384H298.444V120.082H292.355V110.384Z" fill="#8A8C8F"/>
<path d="M278.91 84.5002L302.248 79.9946L306.76 103.301L283.422 107.807L278.91 84.5002Z" fill="#EBAB0D"/>
<path d="M277.345 83.0875L303.178 78.1001L303.818 81.4081L277.985 86.3954L277.345 83.0875Z" fill="#3B1C05"/>
<path d="M290.196 79.775L291.152 79.5903L292.194 84.9713L291.237 85.1561L290.196 79.775Z" fill="#211003"/>
<path d="M301.297 77.632L302.253 77.4473L303.295 82.8283L302.338 83.013L301.297 77.632Z" fill="#211003"/>
<path d="M277.961 82.1374L278.917 81.9526L279.959 87.3337L279.002 87.5184L277.961 82.1374Z" fill="#211003"/>
<path d="M306.197 100.405L282.86 104.909" stroke="#FFDBA6" stroke-width="0.0626326" stroke-miterlimit="10"/>
<path d="M223.602 135.688C223.121 135.688 222.733 135.298 222.733 134.82V98.1963H224.471V134.82C224.471 135.301 224.081 135.688 223.602 135.688Z" fill="#A6AAAD"/>
<path d="M241.266 140.03L223.599 131.306L205.933 140.03C205.502 140.244 204.981 140.067 204.767 139.638C204.554 139.208 204.73 138.687 205.161 138.474L223.597 129.368L242.033 138.474C242.463 138.687 242.64 139.208 242.426 139.638C242.218 140.067 241.696 140.244 241.266 140.03Z" fill="#A6AAAD"/>
<path d="M224.469 121.387H222.73V109.08H224.469V121.387Z" fill="#211003"/>
<path d="M226.645 120.081H220.556V110.383H226.645V120.081Z" fill="#8A8C8F"/>
<path d="M235.579 107.812L212.241 103.306L216.753 79.9996L240.09 84.5052L235.579 107.812Z" fill="#EBAB0D"/>
<path d="M241.017 86.4002L215.184 81.4128L215.824 78.1049L241.657 83.0922L241.017 86.4002Z" fill="#3B1C05"/>
<path d="M227.766 85.161L226.81 84.9763L227.851 79.5953L228.808 79.78L227.766 85.161Z" fill="#211003"/>
<path d="M216.662 83.0175L215.705 82.8328L216.747 77.4518L217.703 77.6365L216.662 83.0175Z" fill="#211003"/>
<path d="M240.002 87.5238L239.045 87.3391L240.087 81.9581L241.044 82.1428L240.002 87.5238Z" fill="#211003"/>
<path d="M212.803 100.405L236.14 104.909" stroke="#FFDBA6" stroke-width="0.0626326" stroke-miterlimit="10"/>
<path d="M259.5 140.23C245.112 140.23 233.447 128.581 233.447 114.212C233.447 99.8425 245.112 88.1938 259.5 88.1938C273.889 88.1938 285.553 99.8425 285.553 114.212C285.553 128.581 273.889 140.23 259.5 140.23Z" fill="#696969"/>
<path d="M259.5 136.809C247.003 136.809 236.872 126.692 236.872 114.212C236.872 101.732 247.003 91.6145 259.5 91.6145C271.997 91.6145 282.127 101.732 282.127 114.212C282.127 126.692 271.997 136.809 259.5 136.809Z" fill="white"/>
<path d="M269.06 128.759C266.499 128.759 264.424 126.686 264.424 124.129C264.424 121.572 266.499 119.499 269.06 119.499C271.62 119.499 273.696 121.572 273.696 124.129C273.696 126.686 271.62 128.759 269.06 128.759Z" fill="#787878"/>
<path d="M1.41432 111.194C1.28783 111.194 1.1786 111.148 1.08661 111.056C0.994621 110.964 0.948627 110.854 0.948627 110.728V99.5859C0.948627 99.4594 0.994621 99.3501 1.08661 99.2582C1.1786 99.1662 1.28783 99.1202 1.41432 99.1202H4.13946C4.46142 99.1202 4.70864 99.2754 4.88112 99.5859L7.38204 103.725L9.88296 99.5859C10.0554 99.2754 10.3027 99.1202 10.6246 99.1202H13.3498C13.4762 99.1202 13.5855 99.1662 13.6775 99.2582C13.7695 99.3501 13.8155 99.4594 13.8155 99.5859V110.728C13.8155 110.854 13.7695 110.964 13.6775 111.056C13.5855 111.148 13.4762 111.194 13.3498 111.194H10.2279C10.1014 111.194 9.9922 111.148 9.90021 111.056C9.80822 110.964 9.76223 110.854 9.76223 110.728V106.002L8.62388 107.865C8.54339 107.991 8.4514 108.095 8.34791 108.175C8.25593 108.256 8.13519 108.296 7.98571 108.296H6.77837C6.62889 108.296 6.5024 108.256 6.39892 108.175C6.30693 108.095 6.22069 107.991 6.1402 107.865L5.00185 106.002V110.728C5.00185 110.854 4.95586 110.964 4.86387 111.056C4.77188 111.148 4.66264 111.194 4.53616 111.194H1.41432ZM19.2044 111.194C19.0779 111.194 18.9687 111.148 18.8767 111.056C18.7847 110.964 18.7387 110.854 18.7387 110.728V107.33L14.858 99.6549C14.835 99.6089 14.8235 99.5571 14.8235 99.4996C14.8235 99.3961 14.858 99.3099 14.927 99.2409C15.0075 99.1604 15.0995 99.1202 15.203 99.1202H18.4455C18.641 99.1202 18.7962 99.1719 18.9112 99.2754C19.0377 99.3674 19.1239 99.4594 19.1699 99.5514L20.8947 103.018L22.6195 99.5514C22.6655 99.4594 22.746 99.3674 22.861 99.2754C22.9874 99.1719 23.1484 99.1202 23.3439 99.1202H26.5865C26.69 99.1202 26.7762 99.1604 26.8452 99.2409C26.9257 99.3099 26.9659 99.3961 26.9659 99.4996C26.9659 99.5571 26.9544 99.6089 26.9314 99.6549L23.0507 107.33V110.728C23.0507 110.854 23.0047 110.964 22.9127 111.056C22.8207 111.148 22.7115 111.194 22.585 111.194H19.2044ZM33.4628 111.194C33.3363 111.194 33.2271 111.148 33.1351 111.056C33.0431 110.964 32.9971 110.854 32.9971 110.728V102.828H30.134C30.0075 102.828 29.8983 102.782 29.8063 102.69C29.7143 102.598 29.6683 102.489 29.6683 102.363V99.5859C29.6683 99.4594 29.7143 99.3501 29.8063 99.2582C29.8983 99.1662 30.0075 99.1202 30.134 99.1202H40.2412C40.3677 99.1202 40.4769 99.1662 40.5689 99.2582C40.6609 99.3501 40.7069 99.4594 40.7069 99.5859V102.363C40.7069 102.489 40.6609 102.598 40.5689 102.69C40.4769 102.782 40.3677 102.828 40.2412 102.828H37.378V110.728C37.378 110.854 37.332 110.964 37.2401 111.056C37.1481 111.148 37.0388 111.194 36.9124 111.194H33.4628ZM42.4114 111.194C42.2849 111.194 42.1757 111.148 42.0837 111.056C41.9917 110.964 41.9457 110.854 41.9457 110.728V99.5859C41.9457 99.4594 41.9917 99.3501 42.0837 99.2582C42.1757 99.1662 42.2849 99.1202 42.4114 99.1202H45.93C46.0564 99.1202 46.1657 99.1662 46.2577 99.2582C46.3497 99.3501 46.3957 99.4594 46.3957 99.5859V110.728C46.3957 110.854 46.3497 110.964 46.2577 111.056C46.1657 111.148 46.0564 111.194 45.93 111.194H42.4114ZM48.7614 111.194C48.6349 111.194 48.5257 111.148 48.4337 111.056C48.3417 110.964 48.2957 110.854 48.2957 110.728V99.5859C48.2957 99.4594 48.3417 99.3501 48.4337 99.2582C48.5257 99.1662 48.6349 99.1202 48.7614 99.1202H53.9875C55.5973 99.1202 56.8621 99.4766 57.782 100.19C58.7134 100.902 59.1791 101.955 59.1791 103.346C59.1791 104.726 58.7191 105.755 57.7993 106.433C56.8794 107.1 55.6088 107.434 53.9875 107.434H52.7802V110.728C52.7802 110.854 52.7342 110.964 52.6422 111.056C52.5502 111.148 52.4409 111.194 52.3145 111.194H48.7614ZM53.9013 104.243C54.1082 104.243 54.2922 104.168 54.4532 104.019C54.6142 103.858 54.6947 103.622 54.6947 103.311C54.6947 103.047 54.6314 102.817 54.5049 102.621C54.3784 102.426 54.1772 102.328 53.9013 102.328H52.6939V104.243H53.9013ZM65.4931 111.366C64.2743 111.366 63.2394 111.199 62.3885 110.866C61.5491 110.532 60.9167 110.09 60.4912 109.538C60.0658 108.974 59.8416 108.359 59.8186 107.692C59.8186 107.589 59.8531 107.503 59.9221 107.434C60.0026 107.353 60.0945 107.313 60.198 107.313H63.4751C63.6361 107.313 63.7626 107.336 63.8546 107.382C63.958 107.416 64.0788 107.491 64.2168 107.606C64.5502 107.871 64.9757 108.003 65.4931 108.003C65.884 108.003 66.1945 107.963 66.4245 107.882C66.6659 107.79 66.7867 107.669 66.7867 107.52C66.7867 107.313 66.6314 107.158 66.321 107.054C66.0105 106.939 65.4241 106.824 64.5617 106.709C61.5951 106.318 60.1118 105.053 60.1118 102.915C60.1118 102.144 60.3303 101.46 60.7672 100.862C61.2157 100.253 61.8366 99.7813 62.63 99.4479C63.4234 99.1144 64.3375 98.9477 65.3724 98.9477C66.4532 98.9477 67.4018 99.1317 68.2182 99.4996C69.0346 99.8676 69.6613 100.333 70.0982 100.897C70.5352 101.449 70.7652 101.989 70.7882 102.518C70.7882 102.621 70.7479 102.713 70.6674 102.794C70.5984 102.863 70.5179 102.897 70.426 102.897H66.9764C66.8154 102.897 66.6889 102.88 66.597 102.846C66.505 102.8 66.4015 102.725 66.2865 102.621C66.045 102.414 65.7403 102.311 65.3724 102.311C64.8204 102.311 64.5445 102.472 64.5445 102.794C64.5445 102.966 64.6767 103.11 64.9412 103.225C65.2171 103.34 65.7231 103.444 66.459 103.536C67.6088 103.685 68.5287 103.909 69.2186 104.208C69.92 104.507 70.426 104.91 70.7364 105.416C71.0584 105.91 71.2194 106.537 71.2194 107.296C71.2194 108.112 70.9721 108.831 70.4777 109.452C69.9833 110.061 69.2991 110.532 68.4252 110.866C67.5628 111.199 66.5855 111.366 65.4931 111.366ZM101.751 111.194C101.625 111.194 101.515 111.148 101.423 111.056C101.331 110.964 101.285 110.854 101.285 110.728V99.5859C101.285 99.4594 101.331 99.3501 101.423 99.2582C101.515 99.1662 101.625 99.1202 101.751 99.1202H104.476C104.798 99.1202 105.045 99.2754 105.218 99.5859L107.719 103.725L110.22 99.5859C110.392 99.2754 110.639 99.1202 110.961 99.1202H113.687C113.813 99.1202 113.922 99.1662 114.014 99.2582C114.106 99.3501 114.152 99.4594 114.152 99.5859V110.728C114.152 110.854 114.106 110.964 114.014 111.056C113.922 111.148 113.813 111.194 113.687 111.194H110.565C110.438 111.194 110.329 111.148 110.237 111.056C110.145 110.964 110.099 110.854 110.099 110.728V106.002L108.961 107.865C108.88 107.991 108.788 108.095 108.685 108.175C108.593 108.256 108.472 108.296 108.323 108.296H107.115C106.966 108.296 106.839 108.256 106.736 108.175C106.644 108.095 106.557 107.991 106.477 107.865L105.339 106.002V110.728C105.339 110.854 105.293 110.964 105.201 111.056C105.109 111.148 104.999 111.194 104.873 111.194H101.751ZM119.541 111.194C119.415 111.194 119.306 111.148 119.214 111.056C119.122 110.964 119.076 110.854 119.076 110.728V107.33L115.195 99.6549C115.172 99.6089 115.16 99.5571 115.16 99.4996C115.16 99.3961 115.195 99.3099 115.264 99.2409C115.344 99.1604 115.436 99.1202 115.54 99.1202H118.782C118.978 99.1202 119.133 99.1719 119.248 99.2754C119.374 99.3674 119.461 99.4594 119.507 99.5514L121.232 103.018L122.956 99.5514C123.002 99.4594 123.083 99.3674 123.198 99.2754C123.324 99.1719 123.485 99.1202 123.681 99.1202H126.923C127.027 99.1202 127.113 99.1604 127.182 99.2409C127.262 99.3099 127.303 99.3961 127.303 99.4996C127.303 99.5571 127.291 99.6089 127.268 99.6549L123.387 107.33V110.728C123.387 110.854 123.341 110.964 123.249 111.056C123.158 111.148 123.048 111.194 122.922 111.194H119.541ZM131.497 111.194C131.37 111.194 131.261 111.148 131.169 111.056C131.077 110.964 131.031 110.854 131.031 110.728V99.5859C131.031 99.4594 131.077 99.3501 131.169 99.2582C131.261 99.1662 131.37 99.1202 131.497 99.1202H134.946C135.073 99.1202 135.182 99.1662 135.274 99.2582C135.366 99.3501 135.412 99.4594 135.412 99.5859V107.658H140.19C140.316 107.658 140.425 107.704 140.517 107.796C140.609 107.888 140.655 107.997 140.655 108.124V110.728C140.655 110.854 140.609 110.964 140.517 111.056C140.425 111.148 140.316 111.194 140.19 111.194H131.497ZM142.293 111.194C142.167 111.194 142.058 111.148 141.966 111.056C141.874 110.964 141.828 110.854 141.828 110.728V99.5859C141.828 99.4594 141.874 99.3501 141.966 99.2582C142.058 99.1662 142.167 99.1202 142.293 99.1202H145.812C145.938 99.1202 146.048 99.1662 146.14 99.2582C146.232 99.3501 146.278 99.4594 146.278 99.5859V110.728C146.278 110.854 146.232 110.964 146.14 111.056C146.048 111.148 145.938 111.194 145.812 111.194H142.293ZM148.643 111.194C148.517 111.194 148.408 111.148 148.316 111.056C148.224 110.964 148.178 110.854 148.178 110.728V99.5859C148.178 99.4594 148.224 99.3501 148.316 99.2582C148.408 99.1662 148.517 99.1202 148.643 99.1202H157.336C157.463 99.1202 157.572 99.1662 157.664 99.2582C157.756 99.3501 157.802 99.4594 157.802 99.5859V102.208C157.802 102.334 157.756 102.443 157.664 102.535C157.572 102.627 157.463 102.673 157.336 102.673H152.403V103.95H156.991C157.118 103.95 157.227 103.996 157.319 104.088C157.411 104.18 157.457 104.289 157.457 104.415V107.02C157.457 107.146 157.411 107.255 157.319 107.347C157.227 107.439 157.118 107.485 156.991 107.485H152.403V110.728C152.403 110.854 152.357 110.964 152.265 111.056C152.173 111.148 152.064 111.194 151.938 111.194H148.643ZM159.794 111.194C159.667 111.194 159.558 111.148 159.466 111.056C159.374 110.964 159.328 110.854 159.328 110.728V99.5859C159.328 99.4594 159.374 99.3501 159.466 99.2582C159.558 99.1662 159.667 99.1202 159.794 99.1202H168.642C168.768 99.1202 168.878 99.1662 168.97 99.2582C169.062 99.3501 169.108 99.4594 169.108 99.5859V102.018C169.108 102.144 169.062 102.254 168.97 102.346C168.878 102.437 168.768 102.483 168.642 102.483H163.468V103.57H168.262C168.389 103.57 168.498 103.616 168.59 103.708C168.682 103.8 168.728 103.909 168.728 104.036V106.278C168.728 106.404 168.682 106.514 168.59 106.606C168.498 106.698 168.389 106.744 168.262 106.744H163.468V107.83H168.78C168.906 107.83 169.016 107.876 169.108 107.968C169.2 108.06 169.246 108.169 169.246 108.296V110.728C169.246 110.854 169.2 110.964 169.108 111.056C169.016 111.148 168.906 111.194 168.78 111.194H159.794Z" fill="#003D59"/>
<path d="M78.0078 97.5211C76.3589 98.9078 76.6717 102.16 78.523 105.646L85.9234 99.4207C82.8073 96.9991 79.6567 96.1344 78.0078 97.5211Z" fill="#F6A146"/>
<path d="M88.1243 101.412L80.1099 108.155C80.3881 108.537 80.6802 108.916 80.9929 109.293L89.0948 102.477C88.7774 102.105 88.4532 101.75 88.1243 101.412Z" fill="#F6A146"/>
<path d="M79.664 96.131L77.6772 97.8025L91.9275 114.74L93.9142 113.068L79.664 96.131Z" fill="#F6A146"/>
<path d="M92.259 114.459C93.5997 113.332 93.6434 110.972 92.62 108.259L86.0889 113.755C88.5863 115.227 90.9183 115.585 92.259 114.459Z" fill="#F6A146"/>
<path d="M85.9258 99.4209L78.5254 105.648C78.9669 106.479 79.5028 107.32 80.1122 108.157L88.1266 101.415C87.4068 100.667 86.6686 99.9958 85.9258 99.4209Z" fill="#F9B870"/>
<path d="M89.1865 102.578C89.1566 102.542 89.1244 102.509 89.0945 102.475L80.9927 109.291C81.0226 109.328 81.0502 109.362 81.0801 109.399C82.66 111.276 84.4123 112.764 86.0865 113.753L92.6177 108.256C91.9324 106.437 90.7664 104.457 89.1865 102.578Z" fill="#F9B870"/>
<path d="M93.4639 113.444C91.224 115.328 86.2198 113.063 82.2851 108.387C78.3503 103.71 76.9751 98.3929 79.2127 96.5094C81.4503 94.626 86.4567 96.8912 90.3915 101.569C94.3286 106.242 95.7038 111.561 93.4639 113.444Z" fill="#E0821C"/>
<path d="M93.7676 113.189C91.5277 115.072 86.5236 112.807 82.5888 108.132C78.654 103.454 77.2788 98.1375 79.5164 96.254C81.754 94.3706 86.7604 96.6358 90.6952 101.313C94.63 105.986 96.0052 111.306 93.7676 113.189Z" fill="#FCCA4D"/>
<path d="M92.3074 111.455C90.5826 112.906 86.6479 111.067 83.5203 107.348C80.3927 103.629 79.252 99.437 80.9768 97.9882C82.7016 96.5371 86.634 98.3768 89.7639 102.095C92.8938 105.814 94.0322 110.004 92.3074 111.455Z" fill="#FFE067"/>
<path d="M66.1321 45.9095C65.9631 45.7405 65.8804 45.5405 65.8804 45.3094V24.857C65.8804 24.6259 65.9631 24.4259 66.1321 24.2569C66.3011 24.0879 66.5012 24.0051 66.7323 24.0051H71.7333C72.323 24.0051 72.7783 24.2914 73.0956 24.8605L77.6862 32.4586L82.2768 24.8605C82.5941 24.2914 83.0459 24.0051 83.6391 24.0051H88.6401C88.8712 24.0051 89.0712 24.0913 89.2402 24.2569C89.4092 24.4259 89.492 24.6259 89.492 24.857V45.306C89.492 45.5371 89.4058 45.7371 89.2402 45.9061C89.0712 46.0751 88.8712 46.1579 88.6401 46.1579H82.9079C82.6769 46.1579 82.4734 46.0751 82.3078 45.9061C82.1388 45.7371 82.0561 45.5371 82.0561 45.306V36.6318L79.966 40.0497C79.8177 40.2808 79.6556 40.474 79.4762 40.6188C79.2969 40.7671 79.0693 40.8396 78.7968 40.8396H76.5791C76.3032 40.8396 76.079 40.7671 75.8996 40.6188C75.7203 40.4705 75.5547 40.2808 75.4099 40.0497L73.3198 36.6318V45.306C73.3198 45.5371 73.237 45.7371 73.068 45.9061C72.899 46.0751 72.699 46.1579 72.4679 46.1579H66.7357C66.5012 46.1613 66.3011 46.0785 66.1321 45.9095Z" fill="#003D59"/>
<path d="M98.7714 45.9079C98.6024 45.7389 98.5196 45.5388 98.5196 45.3077V39.072L91.3975 24.983C91.3561 24.9002 91.3354 24.8036 91.3354 24.6967C91.3354 24.507 91.4044 24.3449 91.5424 24.2069C91.6803 24.069 91.8424 24 92.0321 24H97.985C98.3437 24 98.6334 24.0897 98.8542 24.269C99.0749 24.4484 99.2301 24.6243 99.3129 24.7898L102.479 31.1532L105.645 24.7898C105.728 24.6208 105.883 24.4484 106.104 24.269C106.325 24.0897 106.614 24 106.973 24H112.926C113.116 24 113.278 24.069 113.416 24.2069C113.554 24.3449 113.623 24.507 113.623 24.6967C113.623 24.8036 113.602 24.8967 113.561 24.983L106.438 39.072V45.3043C106.438 45.5354 106.356 45.7354 106.187 45.9044C106.018 46.0734 105.818 46.1562 105.587 46.1562H99.3819C99.1405 46.1596 98.9404 46.0769 98.7714 45.9079Z" fill="#003D59"/>
<path d="M123.194 45.9079C123.025 45.7389 122.942 45.5388 122.942 45.3077V30.8083H117.686C117.455 30.8083 117.255 30.7255 117.086 30.5565C116.917 30.3875 116.834 30.1875 116.834 29.9564V24.8519C116.834 24.6208 116.917 24.4208 117.086 24.2518C117.255 24.0828 117.455 24 117.686 24H136.238C136.469 24 136.669 24.0862 136.838 24.2518C137.007 24.4208 137.09 24.6208 137.09 24.8519V29.9495C137.09 30.1806 137.004 30.384 136.838 30.5496C136.669 30.7186 136.469 30.8014 136.238 30.8014H130.982V45.3043C130.982 45.5354 130.895 45.7354 130.73 45.9044C130.561 46.0734 130.361 46.1562 130.13 46.1562H123.797C123.563 46.1596 123.363 46.0769 123.194 45.9079Z" fill="#FF7300"/>
<path d="M139.625 45.9078C139.456 45.7388 139.373 45.5388 139.373 45.3077V24.8553C139.373 24.6242 139.456 24.4242 139.625 24.2552C139.794 24.0862 139.994 24.0034 140.225 24.0034H146.685C146.916 24.0034 147.116 24.0896 147.285 24.2552C147.454 24.4242 147.537 24.6242 147.537 24.8553V45.3043C147.537 45.5353 147.451 45.7354 147.285 45.9044C147.116 46.0734 146.916 46.1562 146.685 46.1562H140.225C139.994 46.1596 139.794 46.0768 139.625 45.9078Z" fill="#FF7300"/>
<path d="M151.275 45.9078C151.106 45.7388 151.023 45.5388 151.023 45.3077V24.8553C151.023 24.6242 151.106 24.4242 151.275 24.2552C151.444 24.0862 151.644 24.0034 151.875 24.0034H161.47C164.426 24.0034 166.751 24.6587 168.451 25.9659C170.151 27.2765 171 29.2079 171 31.7602C171 34.2917 170.155 36.1783 168.468 37.413C166.778 38.6477 164.447 39.2651 161.47 39.2651H159.253V45.3043C159.253 45.5353 159.166 45.7354 159.001 45.9044C158.832 46.0734 158.632 46.1562 158.401 46.1562H151.879C151.644 46.1596 151.444 46.0768 151.275 45.9078ZM161.315 33.4019C161.695 33.4019 162.033 33.2605 162.329 32.9742C162.626 32.6879 162.774 32.2603 162.774 31.6912C162.774 31.2049 162.657 30.7841 162.426 30.4254C162.195 30.0667 161.826 29.8874 161.319 29.8874H159.101V33.4019H161.315Z" fill="#FF7300"/>
<path d="M66.2549 81.9944C66.0031 81.7426 65.8755 81.4425 65.8755 81.0942V50.5191C65.8755 50.1707 65.9996 49.8741 66.2549 49.6189C66.5066 49.3671 66.8067 49.2395 67.1551 49.2395H76.6225C76.9708 49.2395 77.2674 49.3671 77.5227 49.6189C77.7744 49.8707 77.902 50.1707 77.902 50.5191V72.6718H91.0116C91.3599 72.6718 91.6565 72.7994 91.9118 73.0512C92.1635 73.303 92.2911 73.603 92.2911 73.9514V81.0976C92.2911 81.446 92.1635 81.7461 91.9118 81.9978C91.66 82.2496 91.3599 82.3772 91.0116 82.3772H67.1551C66.8067 82.3703 66.5066 82.2462 66.2549 81.9944Z" fill="#003D59"/>
<path d="M95.8852 81.9944C95.6335 81.7426 95.5059 81.4425 95.5059 81.0942V50.5191C95.5059 50.1707 95.63 49.8741 95.8852 49.6189C96.137 49.3671 96.4371 49.2395 96.7854 49.2395H106.443C106.791 49.2395 107.087 49.3671 107.343 49.6189C107.594 49.8707 107.722 50.1707 107.722 50.5191V81.0942C107.722 81.4425 107.594 81.7426 107.343 81.9944C107.091 82.2462 106.791 82.3738 106.443 82.3738H96.7854C96.4371 82.3703 96.137 82.2462 95.8852 81.9944Z" fill="#003D59"/>
<path d="M113.302 81.9944C113.05 81.7426 112.923 81.4425 112.923 81.0942V50.5191C112.923 50.1707 113.047 49.8741 113.302 49.6189C113.554 49.3671 113.854 49.2395 114.202 49.2395H138.059C138.407 49.2395 138.704 49.3671 138.959 49.6189C139.211 49.8707 139.339 50.1707 139.339 50.5191V57.7136C139.339 58.062 139.211 58.362 138.959 58.6138C138.707 58.8656 138.407 58.9932 138.059 58.9932H124.522V62.4973H137.11C137.459 62.4973 137.755 62.625 138.011 62.8767C138.262 63.1285 138.39 63.4286 138.39 63.7769V70.9232C138.39 71.2715 138.262 71.5716 138.011 71.8234C137.759 72.0751 137.459 72.2027 137.11 72.2027H124.522V81.1011C124.522 81.4494 124.394 81.7495 124.142 82.0013C123.891 82.2531 123.591 82.3807 123.242 82.3807H114.202C113.854 82.3703 113.554 82.2462 113.302 81.9944Z" fill="#003D59"/>
<path d="M143.877 81.9944C143.626 81.7426 143.498 81.4425 143.498 81.0942V50.5191C143.498 50.1707 143.622 49.8741 143.877 49.6189C144.129 49.3671 144.429 49.2395 144.778 49.2395H169.058C169.407 49.2395 169.703 49.3671 169.959 49.6189C170.21 49.8707 170.338 50.1707 170.338 50.5191V57.1928C170.338 57.5412 170.21 57.8412 169.959 58.093C169.707 58.3448 169.407 58.4724 169.058 58.4724H154.859V61.4558H168.017C168.365 61.4558 168.662 61.5834 168.917 61.8351C169.169 62.0869 169.296 62.387 169.296 62.7353V68.8883C169.296 69.2366 169.169 69.5367 168.917 69.7885C168.665 70.0402 168.365 70.1679 168.017 70.1679H154.859V73.1512H169.438C169.786 73.1512 170.083 73.2788 170.338 73.5306C170.59 73.7824 170.717 74.0824 170.717 74.4308V81.1045C170.717 81.4529 170.59 81.753 170.338 82.0047C170.086 82.2565 169.786 82.3841 169.438 82.3841H144.778C144.429 82.3703 144.129 82.2462 143.877 81.9944Z" fill="#003D59"/>
<path d="M40.9668 84.1984H6.93933C3.10752 84.1984 0 81.0909 0 77.2591V41.9589C0 38.1271 3.10752 35.0195 6.93933 35.0195H40.9668C44.7987 35.0195 47.9062 38.1271 47.9062 41.9589V77.2591C47.9096 81.0909 44.8021 84.1984 40.9668 84.1984Z" fill="#FFCE00"/>
<path d="M40.891 37.1096C43.6053 37.1096 45.8161 39.3169 45.8161 42.0347V77.1832C45.8161 79.8975 43.6053 82.1083 40.891 82.1083H7.0152C4.30086 82.1083 2.09005 79.901 2.09005 77.1832V42.0347C2.09005 39.3204 4.30086 37.1096 7.0152 37.1096H40.891ZM40.891 35.0195H7.0152C3.13855 35.0195 0 38.1615 0 42.0347V77.1832C0 81.0598 3.142 84.1984 7.0152 84.1984H40.891C44.7642 84.1984 47.9062 81.0564 47.9062 77.1832V42.0347C47.9096 38.1581 44.7676 35.0195 40.891 35.0195Z" fill="#FF7300"/>
<path d="M23.9532 77.4832C33.8258 77.4832 41.8292 69.4799 41.8292 59.6072C41.8292 49.7346 33.8258 41.7312 23.9532 41.7312C14.0805 41.7312 6.07715 49.7346 6.07715 59.6072C6.07715 69.4799 14.0805 77.4832 23.9532 77.4832Z" fill="#FFA300"/>
<path d="M23.9534 74.9551C32.4298 74.9551 39.3013 68.0836 39.3013 59.6072C39.3013 51.1308 32.4298 44.2593 23.9534 44.2593C15.477 44.2593 8.60547 51.1308 8.60547 59.6072C8.60547 68.0836 15.477 74.9551 23.9534 74.9551Z" fill="#FFCE00"/>
<path d="M20.2179 71.2269C20.1041 71.0683 20.0593 70.8958 20.0903 70.7096L20.3697 68.9437C18.452 68.3608 17.0449 67.4951 16.1516 66.3501C15.2583 65.205 14.8961 63.9806 15.0686 62.6769C15.0927 62.5252 15.1686 62.401 15.2962 62.3079C15.4238 62.2148 15.5652 62.1803 15.7205 62.2044L20.58 62.9735C20.818 63.0115 21.0043 63.0701 21.1422 63.1529C21.2767 63.2357 21.4354 63.3805 21.6113 63.5805C22.0424 64.0496 22.6426 64.3462 23.4117 64.4669C23.9911 64.5601 24.4671 64.567 24.8361 64.4945C25.2051 64.4221 25.4086 64.2738 25.4431 64.0531C25.4914 63.7461 25.2982 63.4736 24.8637 63.2391C24.4291 63.0046 23.5841 62.7011 22.3321 62.3286C18.0244 61.0525 16.1205 58.8279 16.6241 55.6583C16.8517 54.2097 17.5656 53.0543 18.759 52.1955C19.9523 51.3367 21.4423 50.8883 23.2323 50.8573L23.5151 49.0673C23.5462 48.881 23.6393 48.7293 23.798 48.6155C23.9566 48.5016 24.1291 48.4568 24.3153 48.4879L27.409 48.9776C27.5953 49.0086 27.747 49.1018 27.8608 49.2604C27.9746 49.4191 28.0195 49.5915 27.9884 49.7778L27.6918 51.6437C28.7955 52.0644 29.7267 52.6163 30.4821 53.3061C31.2374 53.9924 31.7892 54.7201 32.1306 55.4824C32.4721 56.2446 32.6101 56.9447 32.548 57.5793C32.5239 57.7311 32.448 57.8553 32.3169 57.9484C32.1893 58.0415 32.0548 58.076 31.9203 58.0553L26.8054 57.2448C26.5675 57.2069 26.3847 57.1482 26.2571 57.0654C26.1295 56.9827 25.9915 56.8551 25.8466 56.6723C25.5362 56.3101 25.1086 56.0825 24.5636 55.9963C23.7462 55.8652 23.2978 56.0411 23.222 56.5171C23.1806 56.7723 23.3496 57.0172 23.722 57.2517C24.0945 57.4862 24.8188 57.7587 25.888 58.0656C27.5573 58.5554 28.8748 59.1072 29.8371 59.7108C30.7994 60.3178 31.4547 61.0283 31.8065 61.8457C32.1583 62.6631 32.2445 63.6323 32.0686 64.7567C31.8272 66.2914 31.0477 67.4848 29.7336 68.3332C28.4196 69.1817 26.7916 69.6128 24.8499 69.6197L24.5671 71.4097C24.536 71.596 24.4429 71.7477 24.2842 71.865C24.1256 71.9788 23.9531 72.0236 23.7669 71.9926L20.6732 71.5028C20.4835 71.4787 20.3317 71.3856 20.2179 71.2269Z" fill="#FFA300"/>
<path d="M19.5831 69.9576C19.4693 69.799 19.4245 69.6265 19.4555 69.4403L19.7349 67.6744C17.8173 67.0915 16.4101 66.2258 15.5168 65.0808C14.6235 63.9357 14.2614 62.7113 14.4338 61.4076C14.458 61.2559 14.5339 61.1317 14.6615 61.0386C14.7891 60.9455 14.9305 60.911 15.0822 60.9351L19.9418 61.7042C20.1798 61.7422 20.366 61.8008 20.504 61.8836C20.6385 61.9664 20.7972 62.1112 20.9731 62.3113C21.4042 62.7838 22.0043 63.0769 22.7734 63.1976C23.3528 63.2908 23.8288 63.2977 24.1978 63.2252C24.5669 63.1528 24.7704 63.0045 24.8049 62.7838C24.8531 62.4768 24.66 62.2043 24.2255 61.9698C23.7909 61.7353 22.9459 61.4318 21.6939 61.0593C17.3861 59.7832 15.4823 57.5586 15.9859 54.389C16.2135 52.9404 16.9274 51.785 18.1208 50.9262C19.3141 50.0674 20.8041 49.6191 22.5907 49.588L22.8734 47.798C22.9045 47.6118 22.9976 47.46 23.1562 47.3462C23.3149 47.2324 23.4873 47.1875 23.6736 47.2186L26.7674 47.7083C26.9536 47.7394 27.1053 47.8325 27.2226 47.9911C27.3364 48.1498 27.3812 48.3222 27.3502 48.5085L27.0536 50.3744C28.1573 50.7951 29.0885 51.347 29.8438 52.0368C30.5991 52.7231 31.151 53.4509 31.4924 54.2131C31.8339 54.9753 31.9719 55.6754 31.9063 56.3101C31.8822 56.4618 31.8063 56.586 31.6787 56.6791C31.5511 56.7722 31.4166 56.8102 31.282 56.786L26.1672 55.9755C25.9293 55.9376 25.7464 55.8789 25.6188 55.7962C25.4912 55.7168 25.3533 55.5858 25.2084 55.403C24.898 55.0408 24.4703 54.8132 23.9254 54.727C23.108 54.5994 22.6596 54.7718 22.5837 55.2478C22.5424 55.503 22.7079 55.7479 23.0838 55.9824C23.4563 56.2169 24.1806 56.4894 25.2498 56.7964C26.9191 57.2896 28.2366 57.8379 29.1989 58.4415C30.1611 59.0485 30.8164 59.759 31.1682 60.5764C31.52 61.3938 31.6063 62.363 31.4304 63.4874C31.1889 65.0222 30.4095 66.2155 29.0954 67.0639C27.7813 67.9124 26.1534 68.3435 24.2117 68.3504L23.9289 70.1404C23.8978 70.3267 23.8047 70.4784 23.646 70.5922C23.4874 70.7061 23.3149 70.7509 23.1287 70.7199L20.035 70.2301C19.8487 70.2094 19.6969 70.1163 19.5831 69.9576Z" fill="#FFE161"/>
<path d="M41.1119 32.4293H6.79811C5.97036 32.4293 5.30127 31.7602 5.30127 30.9325V25.7625C5.30127 24.9347 5.97036 24.2656 6.79811 24.2656H41.1119C41.9397 24.2656 42.6088 24.9347 42.6088 25.7625V30.9325C42.6088 31.7602 41.9397 32.4293 41.1119 32.4293Z" fill="#003D59"/>
</svg>
