<svg width="114" height="61" viewBox="0 0 114 61" fill="none" xmlns="http://www.w3.org/2000/svg">
<path d="M0.937561 58.1948C0.853714 58.1948 0.781301 58.1643 0.720321 58.1034C0.659342 58.0424 0.628852 57.97 0.628852 57.8861V50.5C0.628852 50.4161 0.659342 50.3437 0.720321 50.2827C0.781301 50.2217 0.853714 50.1913 0.937561 50.1913H2.74408C2.95751 50.1913 3.12139 50.2942 3.23573 50.5L4.89361 53.244L6.55149 50.5C6.66583 50.2942 6.82971 50.1913 7.04314 50.1913H8.84966C8.93351 50.1913 9.00592 50.2217 9.0669 50.2827C9.12788 50.3437 9.15837 50.4161 9.15837 50.5V57.8861C9.15837 57.97 9.12788 58.0424 9.0669 58.1034C9.00592 58.1643 8.93351 58.1948 8.84966 58.1948H6.78017C6.69632 58.1948 6.62391 58.1643 6.56293 58.1034C6.50195 58.0424 6.47146 57.97 6.47146 57.8861V54.7533L5.71684 55.9881C5.66348 56.072 5.6025 56.1406 5.5339 56.1939C5.47292 56.2473 5.39288 56.274 5.29379 56.274H4.49343C4.39434 56.274 4.31049 56.2473 4.24189 56.1939C4.18091 56.1406 4.12374 56.072 4.07039 55.9881L3.31576 54.7533V57.8861C3.31576 57.97 3.28527 58.0424 3.2243 58.1034C3.16332 58.1643 3.0909 58.1948 3.00706 58.1948H0.937561ZM12.7308 58.1948C12.6469 58.1948 12.5745 58.1643 12.5135 58.1034C12.4525 58.0424 12.4221 57.97 12.4221 57.8861V55.6337L9.84948 50.5457C9.83424 50.5152 9.82661 50.4809 9.82661 50.4428C9.82661 50.3742 9.84948 50.317 9.89522 50.2713C9.94857 50.2179 10.0096 50.1913 10.0782 50.1913H12.2277C12.3573 50.1913 12.4602 50.2256 12.5364 50.2942C12.6202 50.3551 12.6774 50.4161 12.7079 50.4771L13.8513 52.7753L14.9946 50.4771C15.0251 50.4161 15.0785 50.3551 15.1547 50.2942C15.2386 50.2256 15.3453 50.1913 15.4748 50.1913H17.6244C17.693 50.1913 17.7501 50.2179 17.7959 50.2713C17.8492 50.317 17.8759 50.3742 17.8759 50.4428C17.8759 50.4809 17.8683 50.5152 17.8531 50.5457L15.2805 55.6337V57.8861C15.2805 57.97 15.25 58.0424 15.189 58.1034C15.128 58.1643 15.0556 58.1948 14.9718 58.1948H12.7308ZM22.1827 58.1948C22.0989 58.1948 22.0265 58.1643 21.9655 58.1034C21.9045 58.0424 21.874 57.97 21.874 57.8861V52.6495H19.9761C19.8922 52.6495 19.8198 52.619 19.7588 52.558C19.6978 52.497 19.6673 52.4246 19.6673 52.3408V50.5C19.6673 50.4161 19.6978 50.3437 19.7588 50.2827C19.8198 50.2217 19.8922 50.1913 19.9761 50.1913H26.6762C26.76 50.1913 26.8324 50.2217 26.8934 50.2827C26.9544 50.3437 26.9849 50.4161 26.9849 50.5V52.3408C26.9849 52.4246 26.9544 52.497 26.8934 52.558C26.8324 52.619 26.76 52.6495 26.6762 52.6495H24.7782V57.8861C24.7782 57.97 24.7477 58.0424 24.6867 58.1034C24.6257 58.1643 24.5533 58.1948 24.4695 58.1948H22.1827ZM28.1149 58.1948C28.031 58.1948 27.9586 58.1643 27.8976 58.1034C27.8366 58.0424 27.8061 57.97 27.8061 57.8861V50.5C27.8061 50.4161 27.8366 50.3437 27.8976 50.2827C27.9586 50.2217 28.031 50.1913 28.1149 50.1913H30.4473C30.5312 50.1913 30.6036 50.2217 30.6646 50.2827C30.7255 50.3437 30.756 50.4161 30.756 50.5V57.8861C30.756 57.97 30.7255 58.0424 30.6646 58.1034C30.6036 58.1643 30.5312 58.1948 30.4473 58.1948H28.1149ZM32.3243 58.1948C32.2405 58.1948 32.1681 58.1643 32.1071 58.1034C32.0461 58.0424 32.0156 57.97 32.0156 57.8861V50.5C32.0156 50.4161 32.0461 50.3437 32.1071 50.2827C32.1681 50.2217 32.2405 50.1913 32.3243 50.1913H35.7887C36.8559 50.1913 37.6943 50.4276 38.3041 50.9001C38.9216 51.3727 39.2303 52.0702 39.2303 52.9925C39.2303 53.9072 38.9254 54.5894 38.3156 55.0391C37.7058 55.4812 36.8635 55.7023 35.7887 55.7023H34.9884V57.8861C34.9884 57.97 34.9579 58.0424 34.8969 58.1034C34.8359 58.1643 34.7635 58.1948 34.6797 58.1948H32.3243ZM35.7316 53.5871C35.8688 53.5871 35.9907 53.5375 36.0974 53.4384C36.2042 53.3317 36.2575 53.1754 36.2575 52.9696C36.2575 52.7943 36.2156 52.6419 36.1317 52.5123C36.0479 52.3827 35.9145 52.3179 35.7316 52.3179H34.9312V53.5871H35.7316ZM43.4159 58.3092C42.6079 58.3092 41.9219 58.1986 41.3578 57.9776C40.8014 57.7565 40.3821 57.4631 40.1001 57.0972C39.8181 56.7237 39.6694 56.3159 39.6542 55.8738C39.6542 55.8052 39.6771 55.748 39.7228 55.7023C39.7762 55.6489 39.8371 55.6222 39.9057 55.6222H42.0781C42.1849 55.6222 42.2687 55.6375 42.3297 55.668C42.3983 55.6909 42.4783 55.7404 42.5698 55.8166C42.7908 55.9919 43.0729 56.0796 43.4159 56.0796C43.675 56.0796 43.8808 56.0529 44.0333 55.9996C44.1934 55.9386 44.2734 55.8585 44.2734 55.7595C44.2734 55.6222 44.1705 55.5193 43.9647 55.4507C43.7589 55.3745 43.3701 55.2983 42.7985 55.2221C40.8319 54.9629 39.8486 54.1244 39.8486 52.7067C39.8486 52.196 39.9934 51.7424 40.2831 51.3461C40.5803 50.9421 40.9919 50.6295 41.5179 50.4085C42.0438 50.1874 42.6498 50.0769 43.3358 50.0769C44.0524 50.0769 44.6812 50.1989 45.2224 50.4428C45.7636 50.6867 46.179 50.9954 46.4687 51.3689C46.7583 51.7348 46.9108 52.0931 46.926 52.4437C46.926 52.5123 46.8993 52.5733 46.846 52.6266C46.8002 52.6724 46.7469 52.6952 46.6859 52.6952H44.3992C44.2925 52.6952 44.2086 52.6838 44.1476 52.6609C44.0867 52.6304 44.0181 52.5809 43.9418 52.5123C43.7818 52.3751 43.5798 52.3065 43.3358 52.3065C42.97 52.3065 42.787 52.4132 42.787 52.6266C42.787 52.741 42.8747 52.8362 43.05 52.9125C43.2329 52.9887 43.5683 53.0573 44.0562 53.1183C44.8184 53.2174 45.4282 53.366 45.8856 53.5642C46.3505 53.7624 46.6859 54.0292 46.8917 54.3645C47.1051 54.6923 47.2119 55.1077 47.2119 55.6108C47.2119 56.152 47.048 56.6284 46.7202 57.04C46.3924 57.444 45.9389 57.7565 45.3596 57.9776C44.7879 58.1986 44.14 58.3092 43.4159 58.3092ZM67.4516 58.1948C67.3678 58.1948 67.2953 58.1643 67.2344 58.1034C67.1734 58.0424 67.1429 57.97 67.1429 57.8861V50.5C67.1429 50.4161 67.1734 50.3437 67.2344 50.2827C67.2953 50.2217 67.3678 50.1913 67.4516 50.1913H69.2581C69.4715 50.1913 69.6354 50.2942 69.7498 50.5L71.4076 53.244L73.0655 50.5C73.1799 50.2942 73.3438 50.1913 73.5572 50.1913H75.3637C75.4475 50.1913 75.52 50.2217 75.5809 50.2827C75.6419 50.3437 75.6724 50.4161 75.6724 50.5V57.8861C75.6724 57.97 75.6419 58.0424 75.5809 58.1034C75.52 58.1643 75.4475 58.1948 75.3637 58.1948H73.2942C73.2104 58.1948 73.1379 58.1643 73.077 58.1034C73.016 58.0424 72.9855 57.97 72.9855 57.8861V54.7533L72.2309 55.9881C72.1775 56.072 72.1165 56.1406 72.0479 56.1939C71.987 56.2473 71.9069 56.274 71.8078 56.274H71.0075C70.9084 56.274 70.8245 56.2473 70.7559 56.1939C70.695 56.1406 70.6378 56.072 70.5844 55.9881L69.8298 54.7533V57.8861C69.8298 57.97 69.7993 58.0424 69.7383 58.1034C69.6774 58.1643 69.6049 58.1948 69.5211 58.1948H67.4516ZM79.2448 58.1948C79.161 58.1948 79.0885 58.1643 79.0276 58.1034C78.9666 58.0424 78.9361 57.97 78.9361 57.8861V55.6337L76.3635 50.5457C76.3483 50.5152 76.3407 50.4809 76.3407 50.4428C76.3407 50.3742 76.3635 50.317 76.4093 50.2713C76.4626 50.2179 76.5236 50.1913 76.5922 50.1913H78.7417C78.8713 50.1913 78.9742 50.2256 79.0504 50.2942C79.1343 50.3551 79.1914 50.4161 79.2219 50.4771L80.3653 52.7753L81.5087 50.4771C81.5392 50.4161 81.5925 50.3551 81.6687 50.2942C81.7526 50.2256 81.8593 50.1913 81.9889 50.1913H84.1384C84.207 50.1913 84.2642 50.2179 84.3099 50.2713C84.3633 50.317 84.39 50.3742 84.39 50.4428C84.39 50.4809 84.3823 50.5152 84.3671 50.5457L81.7945 55.6337V57.8861C81.7945 57.97 81.764 58.0424 81.703 58.1034C81.6421 58.1643 81.5697 58.1948 81.4858 58.1948H79.2448ZM87.1702 58.1948C87.0864 58.1948 87.014 58.1643 86.953 58.1034C86.892 58.0424 86.8615 57.97 86.8615 57.8861V50.5C86.8615 50.4161 86.892 50.3437 86.953 50.2827C87.014 50.2217 87.0864 50.1913 87.1702 50.1913H89.4569C89.5408 50.1913 89.6132 50.2217 89.6742 50.2827C89.7352 50.3437 89.7657 50.4161 89.7657 50.5V55.8509H92.9328C93.0166 55.8509 93.089 55.8814 93.15 55.9424C93.211 56.0034 93.2415 56.0758 93.2415 56.1596V57.8861C93.2415 57.97 93.211 58.0424 93.15 58.1034C93.089 58.1643 93.0166 58.1948 92.9328 58.1948H87.1702ZM94.3274 58.1948C94.2436 58.1948 94.1712 58.1643 94.1102 58.1034C94.0492 58.0424 94.0187 57.97 94.0187 57.8861V50.5C94.0187 50.4161 94.0492 50.3437 94.1102 50.2827C94.1712 50.2217 94.2436 50.1913 94.3274 50.1913H96.6599C96.7437 50.1913 96.8162 50.2217 96.8771 50.2827C96.9381 50.3437 96.9686 50.4161 96.9686 50.5V57.8861C96.9686 57.97 96.9381 58.0424 96.8771 58.1034C96.8162 58.1643 96.7437 58.1948 96.6599 58.1948H94.3274ZM98.5369 58.1948C98.453 58.1948 98.3806 58.1643 98.3196 58.1034C98.2587 58.0424 98.2282 57.97 98.2282 57.8861V50.5C98.2282 50.4161 98.2587 50.3437 98.3196 50.2827C98.3806 50.2217 98.453 50.1913 98.5369 50.1913H104.299C104.383 50.1913 104.456 50.2217 104.517 50.2827C104.578 50.3437 104.608 50.4161 104.608 50.5V52.2379C104.608 52.3217 104.578 52.3941 104.517 52.4551C104.456 52.5161 104.383 52.5466 104.299 52.5466H101.029V53.3927H104.071C104.155 53.3927 104.227 53.4232 104.288 53.4842C104.349 53.5451 104.379 53.6175 104.379 53.7014V55.4279C104.379 55.5117 104.349 55.5841 104.288 55.6451C104.227 55.7061 104.155 55.7366 104.071 55.7366H101.029V57.8861C101.029 57.97 100.999 58.0424 100.938 58.1034C100.877 58.1643 100.805 58.1948 100.721 58.1948H98.5369ZM105.929 58.1948C105.845 58.1948 105.772 58.1643 105.711 58.1034C105.65 58.0424 105.62 57.97 105.62 57.8861V50.5C105.62 50.4161 105.65 50.3437 105.711 50.2827C105.772 50.2217 105.845 50.1913 105.929 50.1913H111.794C111.878 50.1913 111.95 50.2217 112.011 50.2827C112.072 50.3437 112.103 50.4161 112.103 50.5V52.1121C112.103 52.196 112.072 52.2684 112.011 52.3294C111.95 52.3903 111.878 52.4208 111.794 52.4208H108.364V53.1411H111.543C111.626 53.1411 111.699 53.1716 111.76 53.2326C111.821 53.2936 111.851 53.366 111.851 53.4499V54.9362C111.851 55.0201 111.821 55.0925 111.76 55.1535C111.699 55.2144 111.626 55.2449 111.543 55.2449H108.364V55.9653H111.886C111.969 55.9653 112.042 55.9957 112.103 56.0567C112.164 56.1177 112.194 56.1901 112.194 56.274V57.8861C112.194 57.97 112.164 58.0424 112.103 58.1034C112.042 58.1643 111.969 58.1948 111.886 58.1948H105.929Z" fill="white"/>
<path d="M51.712 48.738C50.6189 49.6573 50.8262 51.8129 52.0534 54.124L56.9593 49.9972C54.8936 48.3919 52.805 47.8187 51.712 48.738Z" fill="#F6A146"/>
<path d="M58.4181 51.3174L53.1052 55.7872C53.2897 56.0403 53.4833 56.2918 53.6906 56.5418L59.0614 52.0232C58.851 51.7763 58.6361 51.5415 58.4181 51.3174Z" fill="#F6A146"/>
<path d="M52.8102 47.8162L51.4932 48.9243L60.9398 60.1523L62.2568 59.0442L52.8102 47.8162Z" fill="#F6A146"/>
<path d="M61.1593 59.9657C62.0481 59.2187 62.077 57.6546 61.3986 55.8557L57.0691 59.4992C58.7247 60.4749 60.2705 60.7127 61.1593 59.9657Z" fill="#F6A146"/>
<path d="M56.9607 49.9973L52.0549 54.1256C52.3476 54.676 52.7028 55.2339 53.1068 55.7888L58.4197 51.319C57.9425 50.8236 57.4532 50.3784 56.9607 49.9973Z" fill="#F9B870"/>
<path d="M59.1227 52.0903C59.1029 52.0659 59.0815 52.0446 59.0617 52.0217L53.6909 56.5403C53.7107 56.5647 53.729 56.5876 53.7488 56.612C54.7962 57.856 55.9578 58.8423 57.0677 59.4978L61.3972 55.8543C60.9429 54.6484 60.17 53.3358 59.1227 52.0903Z" fill="#F9B870"/>
<path d="M61.9581 59.2934C60.4733 60.542 57.156 59.0404 54.5476 55.9411C51.9392 52.8403 51.0275 49.3156 52.5109 48.0671C53.9942 46.8185 57.313 48.3202 59.9214 51.421C62.5313 54.5187 63.443 58.0449 61.9581 59.2934Z" fill="#E0821C"/>
<path d="M62.1593 59.1242C60.6744 60.3728 57.3572 58.8712 54.7488 55.7719C52.1404 52.6711 51.2287 49.1465 52.712 47.8979C54.1954 46.6493 57.5142 48.151 60.1226 51.2518C62.731 54.3495 63.6426 57.8757 62.1593 59.1242Z" fill="#FCCA4D"/>
<path d="M61.1914 57.9749C60.048 58.9368 57.4396 57.7172 55.3663 55.2521C53.293 52.787 52.5369 50.0079 53.6802 49.0475C54.8236 48.0855 57.4305 49.3051 59.5053 51.7702C61.5801 54.2353 62.3348 57.0129 61.1914 57.9749Z" fill="#FFE067"/>
<path d="M43.8405 14.5248C43.7285 14.4127 43.6736 14.2801 43.6736 14.1269V0.568879C43.6736 0.415694 43.7285 0.283084 43.8405 0.171053C43.9525 0.0590218 44.0851 0.00415039 44.2383 0.00415039H47.5535C47.9445 0.00415039 48.2463 0.193916 48.4566 0.571164L51.4998 5.60799L54.5429 0.571164C54.7532 0.193916 55.0527 0.00415039 55.446 0.00415039H58.7612C58.9144 0.00415039 59.047 0.0613082 59.159 0.171053C59.2711 0.283084 59.3259 0.415694 59.3259 0.568879V14.1246C59.3259 14.2778 59.2688 14.4104 59.159 14.5225C59.047 14.6345 58.9144 14.6894 58.7612 14.6894H54.9613C54.8081 14.6894 54.6732 14.6345 54.5635 14.5225C54.4514 14.4104 54.3966 14.2778 54.3966 14.1246V8.37448L53.011 10.6402C52.9127 10.7934 52.8053 10.9215 52.6864 11.0175C52.5675 11.1158 52.4166 11.1638 52.236 11.1638H50.7658C50.5829 11.1638 50.4343 11.1158 50.3154 11.0175C50.1965 10.9192 50.0868 10.7934 49.9908 10.6402L48.6053 8.37448V14.1246C48.6053 14.2778 48.5504 14.4104 48.4383 14.5225C48.3263 14.6345 48.1937 14.6894 48.0405 14.6894H44.2406C44.0851 14.6917 43.9525 14.6368 43.8405 14.5248Z" fill="white"/>
<path d="M65.4765 14.5229C65.3644 14.4109 65.3096 14.2783 65.3096 14.1251V9.99135L60.5883 0.651611C60.5608 0.596739 60.5471 0.53272 60.5471 0.461844C60.5471 0.336094 60.5928 0.228636 60.6843 0.137182C60.7757 0.0457284 60.8832 0 61.0089 0H64.9552C65.193 0 65.385 0.0594448 65.5313 0.178335C65.6777 0.297225 65.7806 0.413831 65.8354 0.523576L67.9343 4.74189L70.0332 0.523576C70.0881 0.411545 70.1909 0.297225 70.3373 0.178335C70.4836 0.0594448 70.6756 0 70.9134 0H74.8597C74.9854 0 75.0929 0.0457284 75.1843 0.137182C75.2758 0.228636 75.3215 0.336094 75.3215 0.461844C75.3215 0.53272 75.3078 0.594452 75.2803 0.651611L70.559 9.99135V14.1228C70.559 14.276 70.5042 14.4086 70.3921 14.5206C70.2801 14.6326 70.1475 14.6875 69.9943 14.6875H65.8812C65.7211 14.6898 65.5885 14.6349 65.4765 14.5229Z" fill="white"/>
<path d="M81.6662 14.5229C81.5542 14.4109 81.4993 14.2783 81.4993 14.1251V4.51326H78.0149C77.8617 4.51326 77.7291 4.45838 77.6171 4.34635C77.5051 4.23432 77.4502 4.10171 77.4502 3.94853V0.564729C77.4502 0.411543 77.5051 0.278937 77.6171 0.166906C77.7291 0.0548749 77.8617 0 78.0149 0H90.3132C90.4664 0 90.599 0.0571613 90.711 0.166906C90.8231 0.278937 90.8779 0.411543 90.8779 0.564729V3.94395C90.8779 4.09714 90.8208 4.23203 90.711 4.34178C90.599 4.45381 90.4664 4.50868 90.3132 4.50868H86.8288V14.1228C86.8288 14.276 86.7717 14.4086 86.6619 14.5206C86.5499 14.6326 86.4173 14.6875 86.2641 14.6875H82.0663C81.9109 14.6898 81.7783 14.6349 81.6662 14.5229Z" fill="white"/>
<path d="M92.5583 14.5228C92.4463 14.4108 92.3914 14.2782 92.3914 14.125V0.566926C92.3914 0.41374 92.4463 0.281131 92.5583 0.1691C92.6703 0.0570687 92.8029 0.00219727 92.9561 0.00219727H97.2384C97.3916 0.00219727 97.5242 0.059355 97.6363 0.1691C97.7483 0.281131 97.8032 0.41374 97.8032 0.566926V14.1227C97.8032 14.2759 97.746 14.4085 97.6363 14.5205C97.5242 14.6325 97.3916 14.6874 97.2384 14.6874H92.9561C92.8029 14.6897 92.6703 14.6348 92.5583 14.5228Z" fill="white"/>
<path d="M100.282 14.5228C100.17 14.4108 100.115 14.2782 100.115 14.125V0.566926C100.115 0.41374 100.17 0.281131 100.282 0.1691C100.394 0.0570687 100.526 0.00219727 100.679 0.00219727H107.04C109 0.00219727 110.541 0.436601 111.668 1.30313C112.795 2.17194 113.357 3.4523 113.357 5.1442C113.357 6.82238 112.797 8.07301 111.679 8.89152C110.559 9.71004 109.013 10.1193 107.04 10.1193H105.57V14.1227C105.57 14.2759 105.513 14.4085 105.403 14.5205C105.291 14.6325 105.158 14.6874 105.005 14.6874H100.682C100.526 14.6897 100.394 14.6348 100.282 14.5228ZM106.937 6.2325C107.189 6.2325 107.413 6.13876 107.609 5.94899C107.806 5.75922 107.904 5.47572 107.904 5.09847C107.904 4.77609 107.827 4.49716 107.673 4.25938C107.52 4.0216 107.276 3.90271 106.939 3.90271H105.469V6.2325H106.937Z" fill="white"/>
<path d="M43.9209 38.4452C43.754 38.2782 43.6694 38.0793 43.6694 37.8484V17.5799C43.6694 17.349 43.7517 17.1524 43.9209 16.9832C44.0878 16.8163 44.2868 16.7317 44.5177 16.7317H50.7937C51.0246 16.7317 51.2213 16.8163 51.3904 16.9832C51.5573 17.1501 51.6419 17.349 51.6419 17.5799V32.2652H60.3324C60.5633 32.2652 60.7599 32.3497 60.9291 32.5166C61.096 32.6836 61.1806 32.8825 61.1806 33.1134V37.8507C61.1806 38.0816 61.096 38.2805 60.9291 38.4474C60.7622 38.6143 60.5633 38.6989 60.3324 38.6989H44.5177C44.2868 38.6944 44.0878 38.6121 43.9209 38.4452Z" fill="white"/>
<path d="M63.5628 38.4452C63.3959 38.2782 63.3113 38.0793 63.3113 37.8484V17.5799C63.3113 17.349 63.3936 17.1524 63.5628 16.9832C63.7297 16.8163 63.9286 16.7317 64.1595 16.7317H70.5613C70.7922 16.7317 70.9888 16.8163 71.158 16.9832C71.3249 17.1501 71.4095 17.349 71.4095 17.5799V37.8484C71.4095 38.0793 71.3249 38.2782 71.158 38.4452C70.9911 38.6121 70.7922 38.6966 70.5613 38.6966H64.1595C63.9286 38.6944 63.7297 38.6121 63.5628 38.4452Z" fill="white"/>
<path d="M75.1089 38.4452C74.942 38.2782 74.8574 38.0793 74.8574 37.8484V17.5799C74.8574 17.349 74.9397 17.1524 75.1089 16.9832C75.2758 16.8163 75.4747 16.7317 75.7056 16.7317H91.5203C91.7513 16.7317 91.9479 16.8163 92.1171 16.9832C92.284 17.1501 92.3686 17.349 92.3686 17.5799V22.3493C92.3686 22.5802 92.284 22.7791 92.1171 22.946C91.9502 23.1129 91.7513 23.1975 91.5203 23.1975H82.5464V25.5204H90.8916C91.1225 25.5204 91.3191 25.605 91.4883 25.7719C91.6552 25.9388 91.7398 26.1377 91.7398 26.3687V31.106C91.7398 31.3369 91.6552 31.5358 91.4883 31.7027C91.3214 31.8696 91.1225 31.9542 90.8916 31.9542H82.5464V37.853C82.5464 38.0839 82.4618 38.2828 82.2949 38.4497C82.128 38.6166 81.9291 38.7012 81.6982 38.7012H75.7056C75.4747 38.6944 75.2758 38.6121 75.1089 38.4452Z" fill="white"/>
<path d="M95.3772 38.4452C95.2103 38.2782 95.1257 38.0793 95.1257 37.8484V17.5799C95.1257 17.349 95.208 17.1524 95.3772 16.9832C95.5441 16.8163 95.743 16.7317 95.974 16.7317H112.07C112.301 16.7317 112.497 16.8163 112.667 16.9832C112.834 17.1501 112.918 17.349 112.918 17.5799V22.004C112.918 22.2349 112.834 22.4338 112.667 22.6007C112.5 22.7676 112.301 22.8522 112.07 22.8522H102.657V24.8299H111.379C111.61 24.8299 111.807 24.9145 111.976 25.0814C112.143 25.2483 112.228 25.4473 112.228 25.6782V29.757C112.228 29.9879 112.143 30.1869 111.976 30.3538C111.809 30.5207 111.61 30.6053 111.379 30.6053H102.657V32.5829H112.321C112.552 32.5829 112.749 32.6675 112.918 32.8344C113.085 33.0014 113.17 33.2003 113.17 33.4312V37.8553C113.17 38.0862 113.085 38.2851 112.918 38.452C112.751 38.6189 112.552 38.7035 112.321 38.7035H95.974C95.743 38.6944 95.5441 38.6121 95.3772 38.4452Z" fill="white"/>
<path d="M27.1575 39.906H4.60038C2.06024 39.906 0.000244141 37.846 0.000244141 35.3059V11.9051C0.000244141 9.36493 2.06024 7.30493 4.60038 7.30493H27.1575C29.6976 7.30493 31.7576 9.36493 31.7576 11.9051V35.3059C31.7599 37.846 29.6999 39.906 27.1575 39.906Z" fill="#FFCE00"/>
<path d="M27.1072 8.69046C28.9065 8.69046 30.3721 10.1537 30.3721 11.9554V35.2556C30.3721 37.0549 28.9065 38.5205 27.1072 38.5205H4.65067C2.85131 38.5205 1.38576 37.0572 1.38576 35.2556V11.9554C1.38576 10.156 2.85131 8.69046 4.65067 8.69046H27.1072ZM27.1072 7.30493H4.65067C2.08081 7.30493 0.000244141 9.3878 0.000244141 11.9554V35.2556C0.000244141 37.8254 2.0831 39.906 4.65067 39.906H27.1072C29.6748 39.906 31.7576 37.8231 31.7576 35.2556V11.9554C31.7599 9.38551 29.677 7.30493 27.1072 7.30493Z" fill="#FF7300"/>
<path d="M15.8792 35.4544C22.4239 35.4544 27.7293 30.149 27.7293 23.6043C27.7293 17.0596 22.4239 11.7542 15.8792 11.7542C9.33454 11.7542 4.02905 17.0596 4.02905 23.6043C4.02905 30.149 9.33454 35.4544 15.8792 35.4544Z" fill="#FFA300"/>
<path d="M15.8788 33.7784C21.4979 33.7784 26.0531 29.2233 26.0531 23.6042C26.0531 17.9851 21.4979 13.4299 15.8788 13.4299C10.2598 13.4299 5.70459 17.9851 5.70459 23.6042C5.70459 29.2233 10.2598 33.7784 15.8788 33.7784Z" fill="#FFCE00"/>
<path d="M13.4026 31.3071C13.3272 31.2019 13.2975 31.0876 13.318 30.9641L13.5032 29.7935C12.232 29.4071 11.2992 28.8332 10.707 28.0742C10.1148 27.3151 9.87478 26.5034 9.98909 25.6392C10.0051 25.5386 10.0554 25.4563 10.14 25.3946C10.2246 25.3328 10.3183 25.31 10.4212 25.326L13.6427 25.8358C13.8004 25.861 13.9239 25.8998 14.0154 25.9547C14.1045 26.0096 14.2097 26.1056 14.3263 26.2382C14.6121 26.5492 15.0099 26.7458 15.5198 26.8258C15.9039 26.8875 16.2194 26.8921 16.4641 26.8441C16.7087 26.7961 16.8436 26.6978 16.8664 26.5515C16.8984 26.348 16.7704 26.1673 16.4823 26.0119C16.1943 25.8564 15.6341 25.6552 14.8042 25.4083C11.9485 24.5623 10.6864 23.0876 11.0202 20.9865C11.1711 20.0262 11.6444 19.2603 12.4355 18.691C13.2266 18.1217 14.2143 17.8245 15.4009 17.8039L15.5884 16.6173C15.6089 16.4938 15.6707 16.3932 15.7759 16.3178C15.881 16.2423 15.9953 16.2126 16.1188 16.2332L18.1697 16.5578C18.2931 16.5784 18.3937 16.6401 18.4692 16.7453C18.5446 16.8505 18.5743 16.9648 18.5538 17.0883L18.3571 18.3252C19.0888 18.6041 19.7061 18.9699 20.2068 19.4272C20.7075 19.8822 21.0733 20.3646 21.2997 20.8699C21.526 21.3752 21.6175 21.8393 21.5763 22.26C21.5603 22.3606 21.51 22.4429 21.4231 22.5046C21.3385 22.5663 21.2494 22.5892 21.1602 22.5755L17.7695 22.0382C17.6118 22.0131 17.4906 21.9742 17.406 21.9193C17.3214 21.8644 17.23 21.7798 17.1339 21.6587C16.9282 21.4186 16.6447 21.2677 16.2834 21.2105C15.7416 21.1237 15.4443 21.2403 15.394 21.5558C15.3666 21.725 15.4786 21.8873 15.7255 22.0428C15.9725 22.1982 16.4526 22.3789 17.1614 22.5824C18.268 22.907 19.1414 23.2728 19.7793 23.6729C20.4171 24.0753 20.8515 24.5463 21.0848 25.0882C21.318 25.6301 21.3751 26.2725 21.2585 27.0179C21.0985 28.0353 20.5818 28.8264 19.7107 29.3888C18.8396 29.9513 17.7604 30.237 16.4732 30.2416L16.2857 31.4282C16.2651 31.5517 16.2034 31.6523 16.0982 31.73C15.993 31.8055 15.8787 31.8352 15.7553 31.8146L13.7044 31.49C13.5787 31.474 13.4781 31.4122 13.4026 31.3071Z" fill="#FFA300"/>
<path d="M12.9819 30.4658C12.9065 30.3606 12.8768 30.2463 12.8973 30.1228L13.0826 28.9522C11.8113 28.5658 10.8785 27.9919 10.2864 27.2329C9.69419 26.4738 9.45412 25.6621 9.56844 24.7979C9.58444 24.6973 9.63475 24.615 9.71935 24.5533C9.80394 24.4915 9.89767 24.4687 9.99827 24.4847L13.2197 24.9945C13.3775 25.0197 13.501 25.0585 13.5924 25.1134C13.6816 25.1683 13.7867 25.2643 13.9033 25.3969C14.1891 25.7101 14.587 25.9045 15.0968 25.9845C15.4809 26.0462 15.7964 26.0508 16.0411 26.0028C16.2857 25.9548 16.4206 25.8565 16.4435 25.7101C16.4755 25.5067 16.3475 25.326 16.0594 25.1706C15.7713 25.0151 15.2111 24.8139 14.3812 24.567C11.5255 23.721 10.2635 22.2463 10.5973 20.1452C10.7482 19.1849 11.2215 18.419 12.0125 17.8497C12.8036 17.2804 13.7913 16.9831 14.9757 16.9626L15.1631 15.776C15.1837 15.6525 15.2454 15.5519 15.3506 15.4764C15.4558 15.401 15.5701 15.3713 15.6936 15.3919L17.7444 15.7165C17.8679 15.7371 17.9685 15.7988 18.0462 15.904C18.1217 16.0092 18.1514 16.1235 18.1308 16.2469L17.9342 17.4839C18.6658 17.7628 19.2831 18.1286 19.7838 18.5859C20.2845 19.0409 20.6504 19.5233 20.8767 20.0286C21.1031 20.5339 21.1945 20.998 21.1511 21.4187C21.1351 21.5193 21.0848 21.6016 21.0002 21.6633C20.9156 21.725 20.8264 21.7502 20.7373 21.7342L17.3466 21.1969C17.1888 21.1717 17.0677 21.1329 16.9831 21.078C16.8985 21.0254 16.807 20.9385 16.711 20.8174C16.5052 20.5773 16.2217 20.4264 15.8605 20.3692C15.3186 20.2846 15.0214 20.399 14.9711 20.7145C14.9436 20.8837 15.0534 21.046 15.3026 21.2015C15.5495 21.3569 16.0297 21.5376 16.7384 21.741C17.845 22.068 18.7184 22.4315 19.3563 22.8316C19.9942 23.234 20.4286 23.705 20.6618 24.2469C20.895 24.7887 20.9522 25.4312 20.8356 26.1766C20.6755 27.194 20.1588 27.9851 19.2877 28.5475C18.4166 29.1099 17.3374 29.3957 16.0502 29.4003L15.8628 30.5869C15.8422 30.7104 15.7804 30.811 15.6753 30.8864C15.5701 30.9619 15.4558 30.9916 15.3323 30.971L13.2815 30.6464C13.158 30.6327 13.0574 30.5709 12.9819 30.4658Z" fill="#FFE161"/>
<path d="M27.2536 5.58781H4.50667C3.95795 5.58781 3.5144 5.14426 3.5144 4.59554V1.1683C3.5144 0.619577 3.95795 0.176025 4.50667 0.176025H27.2536C27.8023 0.176025 28.2458 0.619577 28.2458 1.1683V4.59554C28.2458 5.14426 27.8023 5.58781 27.2536 5.58781Z" fill="#003D59"/>
</svg>
