<svg width="171" height="92" viewBox="0 0 171 92" fill="none" xmlns="http://www.w3.org/2000/svg">
<path d="M1.41432 87.1936C1.28783 87.1936 1.1786 87.1476 1.08661 87.0556C0.994621 86.9636 0.948627 86.8544 0.948627 86.7279V75.5859C0.948627 75.4594 0.994621 75.3501 1.08661 75.2582C1.1786 75.1662 1.28783 75.1202 1.41432 75.1202H4.13946C4.46142 75.1202 4.70864 75.2754 4.88112 75.5859L7.38204 79.7253L9.88296 75.5859C10.0554 75.2754 10.3027 75.1202 10.6246 75.1202H13.3498C13.4762 75.1202 13.5855 75.1662 13.6775 75.2582C13.7695 75.3501 13.8155 75.4594 13.8155 75.5859V86.7279C13.8155 86.8544 13.7695 86.9636 13.6775 87.0556C13.5855 87.1476 13.4762 87.1936 13.3498 87.1936H10.2279C10.1014 87.1936 9.9922 87.1476 9.90021 87.0556C9.80822 86.9636 9.76223 86.8544 9.76223 86.7279V82.002L8.62388 83.8648C8.54339 83.9913 8.4514 84.0948 8.34791 84.1752C8.25593 84.2557 8.13519 84.296 7.98571 84.296H6.77837C6.62889 84.296 6.5024 84.2557 6.39892 84.1752C6.30693 84.0948 6.22069 83.9913 6.1402 83.8648L5.00185 82.002V86.7279C5.00185 86.8544 4.95586 86.9636 4.86387 87.0556C4.77188 87.1476 4.66264 87.1936 4.53616 87.1936H1.41432ZM19.2044 87.1936C19.0779 87.1936 18.9687 87.1476 18.8767 87.0556C18.7847 86.9636 18.7387 86.8544 18.7387 86.7279V83.3301L14.858 75.6549C14.835 75.6089 14.8235 75.5571 14.8235 75.4996C14.8235 75.3961 14.858 75.3099 14.927 75.2409C15.0075 75.1604 15.0995 75.1202 15.203 75.1202H18.4455C18.641 75.1202 18.7962 75.1719 18.9112 75.2754C19.0377 75.3674 19.1239 75.4594 19.1699 75.5514L20.8947 79.0182L22.6195 75.5514C22.6655 75.4594 22.746 75.3674 22.861 75.2754C22.9874 75.1719 23.1484 75.1202 23.3439 75.1202H26.5865C26.69 75.1202 26.7762 75.1604 26.8452 75.2409C26.9257 75.3099 26.9659 75.3961 26.9659 75.4996C26.9659 75.5571 26.9544 75.6089 26.9314 75.6549L23.0507 83.3301V86.7279C23.0507 86.8544 23.0047 86.9636 22.9127 87.0556C22.8207 87.1476 22.7115 87.1936 22.585 87.1936H19.2044ZM33.4628 87.1936C33.3363 87.1936 33.2271 87.1476 33.1351 87.0556C33.0431 86.9636 32.9971 86.8544 32.9971 86.7279V78.8284H30.134C30.0075 78.8284 29.8983 78.7824 29.8063 78.6905C29.7143 78.5985 29.6683 78.4892 29.6683 78.3628V75.5859C29.6683 75.4594 29.7143 75.3501 29.8063 75.2582C29.8983 75.1662 30.0075 75.1202 30.134 75.1202H40.2412C40.3677 75.1202 40.4769 75.1662 40.5689 75.2582C40.6609 75.3501 40.7069 75.4594 40.7069 75.5859V78.3628C40.7069 78.4892 40.6609 78.5985 40.5689 78.6905C40.4769 78.7824 40.3677 78.8284 40.2412 78.8284H37.378V86.7279C37.378 86.8544 37.332 86.9636 37.2401 87.0556C37.1481 87.1476 37.0388 87.1936 36.9124 87.1936H33.4628ZM42.4114 87.1936C42.2849 87.1936 42.1757 87.1476 42.0837 87.0556C41.9917 86.9636 41.9457 86.8544 41.9457 86.7279V75.5859C41.9457 75.4594 41.9917 75.3501 42.0837 75.2582C42.1757 75.1662 42.2849 75.1202 42.4114 75.1202H45.93C46.0564 75.1202 46.1657 75.1662 46.2577 75.2582C46.3497 75.3501 46.3957 75.4594 46.3957 75.5859V86.7279C46.3957 86.8544 46.3497 86.9636 46.2577 87.0556C46.1657 87.1476 46.0564 87.1936 45.93 87.1936H42.4114ZM48.7614 87.1936C48.6349 87.1936 48.5257 87.1476 48.4337 87.0556C48.3417 86.9636 48.2957 86.8544 48.2957 86.7279V75.5859C48.2957 75.4594 48.3417 75.3501 48.4337 75.2582C48.5257 75.1662 48.6349 75.1202 48.7614 75.1202H53.9875C55.5973 75.1202 56.8621 75.4766 57.782 76.1895C58.7134 76.9024 59.1791 77.9546 59.1791 79.3459C59.1791 80.7257 58.7191 81.7548 57.7993 82.4332C56.8794 83.1001 55.6088 83.4336 53.9875 83.4336H52.7802V86.7279C52.7802 86.8544 52.7342 86.9636 52.6422 87.0556C52.5502 87.1476 52.4409 87.1936 52.3145 87.1936H48.7614ZM53.9013 80.2428C54.1082 80.2428 54.2922 80.168 54.4532 80.0185C54.6142 79.8576 54.6947 79.6218 54.6947 79.3114C54.6947 79.0469 54.6314 78.8169 54.5049 78.6215C54.3784 78.426 54.1772 78.3283 53.9013 78.3283H52.6939V80.2428H53.9013ZM65.4931 87.3661C64.2743 87.3661 63.2394 87.1994 62.3885 86.8659C61.5491 86.5324 60.9167 86.0897 60.4912 85.5378C60.0658 84.9744 59.8416 84.3592 59.8186 83.6923C59.8186 83.5888 59.8531 83.5026 59.9221 83.4336C60.0026 83.3531 60.0945 83.3129 60.198 83.3129H63.4751C63.6361 83.3129 63.7626 83.3359 63.8546 83.3818C63.958 83.4163 64.0788 83.4911 64.2168 83.6061C64.5502 83.8705 64.9757 84.0028 65.4931 84.0028C65.884 84.0028 66.1945 83.9625 66.4245 83.882C66.6659 83.79 66.7867 83.6693 66.7867 83.5198C66.7867 83.3129 66.6314 83.1576 66.321 83.0541C66.0105 82.9392 65.4241 82.8242 64.5617 82.7092C61.5951 82.3182 60.1118 81.0534 60.1118 78.9147C60.1118 78.1443 60.3303 77.4601 60.7672 76.8622C61.2157 76.2528 61.8366 75.7813 62.63 75.4479C63.4234 75.1144 64.3375 74.9477 65.3724 74.9477C66.4532 74.9477 67.4018 75.1317 68.2182 75.4996C69.0346 75.8676 69.6613 76.3333 70.0982 76.8967C70.5352 77.4486 70.7652 77.9891 70.7882 78.518C70.7882 78.6215 70.7479 78.7135 70.6674 78.7939C70.5984 78.8629 70.5179 78.8974 70.426 78.8974H66.9764C66.8154 78.8974 66.6889 78.8802 66.597 78.8457C66.505 78.7997 66.4015 78.725 66.2865 78.6215C66.045 78.4145 65.7403 78.311 65.3724 78.311C64.8204 78.311 64.5445 78.472 64.5445 78.7939C64.5445 78.9664 64.6767 79.1102 64.9412 79.2251C65.2171 79.3401 65.7231 79.4436 66.459 79.5356C67.6088 79.6851 68.5287 79.9093 69.2186 80.2083C69.92 80.5072 70.426 80.9097 70.7364 81.4156C71.0584 81.91 71.2194 82.5367 71.2194 83.2956C71.2194 84.112 70.9721 84.8307 70.4777 85.4516C69.9833 86.061 69.2991 86.5324 68.4252 86.8659C67.5628 87.1994 66.5855 87.3661 65.4931 87.3661ZM101.751 87.1936C101.625 87.1936 101.515 87.1476 101.423 87.0556C101.331 86.9636 101.285 86.8544 101.285 86.7279V75.5859C101.285 75.4594 101.331 75.3501 101.423 75.2582C101.515 75.1662 101.625 75.1202 101.751 75.1202H104.476C104.798 75.1202 105.045 75.2754 105.218 75.5859L107.719 79.7253L110.22 75.5859C110.392 75.2754 110.639 75.1202 110.961 75.1202H113.687C113.813 75.1202 113.922 75.1662 114.014 75.2582C114.106 75.3501 114.152 75.4594 114.152 75.5859V86.7279C114.152 86.8544 114.106 86.9636 114.014 87.0556C113.922 87.1476 113.813 87.1936 113.687 87.1936H110.565C110.438 87.1936 110.329 87.1476 110.237 87.0556C110.145 86.9636 110.099 86.8544 110.099 86.7279V82.002L108.961 83.8648C108.88 83.9913 108.788 84.0948 108.685 84.1752C108.593 84.2557 108.472 84.296 108.323 84.296H107.115C106.966 84.296 106.839 84.2557 106.736 84.1752C106.644 84.0948 106.557 83.9913 106.477 83.8648L105.339 82.002V86.7279C105.339 86.8544 105.293 86.9636 105.201 87.0556C105.109 87.1476 104.999 87.1936 104.873 87.1936H101.751ZM119.541 87.1936C119.415 87.1936 119.306 87.1476 119.214 87.0556C119.122 86.9636 119.076 86.8544 119.076 86.7279V83.3301L115.195 75.6549C115.172 75.6089 115.16 75.5571 115.16 75.4996C115.16 75.3961 115.195 75.3099 115.264 75.2409C115.344 75.1604 115.436 75.1202 115.54 75.1202H118.782C118.978 75.1202 119.133 75.1719 119.248 75.2754C119.374 75.3674 119.461 75.4594 119.507 75.5514L121.232 79.0182L122.956 75.5514C123.002 75.4594 123.083 75.3674 123.198 75.2754C123.324 75.1719 123.485 75.1202 123.681 75.1202H126.923C127.027 75.1202 127.113 75.1604 127.182 75.2409C127.262 75.3099 127.303 75.3961 127.303 75.4996C127.303 75.5571 127.291 75.6089 127.268 75.6549L123.387 83.3301V86.7279C123.387 86.8544 123.341 86.9636 123.249 87.0556C123.158 87.1476 123.048 87.1936 122.922 87.1936H119.541ZM131.497 87.1936C131.37 87.1936 131.261 87.1476 131.169 87.0556C131.077 86.9636 131.031 86.8544 131.031 86.7279V75.5859C131.031 75.4594 131.077 75.3501 131.169 75.2582C131.261 75.1662 131.37 75.1202 131.497 75.1202H134.946C135.073 75.1202 135.182 75.1662 135.274 75.2582C135.366 75.3501 135.412 75.4594 135.412 75.5859V83.6578H140.19C140.316 83.6578 140.425 83.7038 140.517 83.7958C140.609 83.8878 140.655 83.997 140.655 84.1235V86.7279C140.655 86.8544 140.609 86.9636 140.517 87.0556C140.425 87.1476 140.316 87.1936 140.19 87.1936H131.497ZM142.293 87.1936C142.167 87.1936 142.058 87.1476 141.966 87.0556C141.874 86.9636 141.828 86.8544 141.828 86.7279V75.5859C141.828 75.4594 141.874 75.3501 141.966 75.2582C142.058 75.1662 142.167 75.1202 142.293 75.1202H145.812C145.938 75.1202 146.048 75.1662 146.14 75.2582C146.232 75.3501 146.278 75.4594 146.278 75.5859V86.7279C146.278 86.8544 146.232 86.9636 146.14 87.0556C146.048 87.1476 145.938 87.1936 145.812 87.1936H142.293ZM148.643 87.1936C148.517 87.1936 148.408 87.1476 148.316 87.0556C148.224 86.9636 148.178 86.8544 148.178 86.7279V75.5859C148.178 75.4594 148.224 75.3501 148.316 75.2582C148.408 75.1662 148.517 75.1202 148.643 75.1202H157.336C157.463 75.1202 157.572 75.1662 157.664 75.2582C157.756 75.3501 157.802 75.4594 157.802 75.5859V78.2075C157.802 78.334 157.756 78.4432 157.664 78.5352C157.572 78.6272 157.463 78.6732 157.336 78.6732H152.403V79.9495H156.991C157.118 79.9495 157.227 79.9955 157.319 80.0875C157.411 80.1795 157.457 80.2888 157.457 80.4152V83.0196C157.457 83.1461 157.411 83.2554 157.319 83.3474C157.227 83.4393 157.118 83.4853 156.991 83.4853H152.403V86.7279C152.403 86.8544 152.357 86.9636 152.265 87.0556C152.173 87.1476 152.064 87.1936 151.938 87.1936H148.643ZM159.794 87.1936C159.667 87.1936 159.558 87.1476 159.466 87.0556C159.374 86.9636 159.328 86.8544 159.328 86.7279V75.5859C159.328 75.4594 159.374 75.3501 159.466 75.2582C159.558 75.1662 159.667 75.1202 159.794 75.1202H168.642C168.768 75.1202 168.878 75.1662 168.97 75.2582C169.062 75.3501 169.108 75.4594 169.108 75.5859V78.0178C169.108 78.1443 169.062 78.2535 168.97 78.3455C168.878 78.4375 168.768 78.4835 168.642 78.4835H163.468V79.5701H168.262C168.389 79.5701 168.498 79.6161 168.59 79.7081C168.682 79.8001 168.728 79.9093 168.728 80.0358V82.278C168.728 82.4045 168.682 82.5137 168.59 82.6057C168.498 82.6977 168.389 82.7437 168.262 82.7437H163.468V83.8303H168.78C168.906 83.8303 169.016 83.8763 169.108 83.9683C169.2 84.0603 169.246 84.1695 169.246 84.296V86.7279C169.246 86.8544 169.2 86.9636 169.108 87.0556C169.016 87.1476 168.906 87.1936 168.78 87.1936H159.794Z" fill="#003D59"/>
<path d="M78.0078 73.5211C76.3589 74.9078 76.6717 78.1596 78.523 81.646L85.9234 75.4207C82.8073 72.9991 79.6567 72.1344 78.0078 73.5211Z" fill="#F6A146"/>
<path d="M88.1241 77.4124L80.1096 84.1551C80.3879 84.5368 80.6799 84.9163 80.9927 85.2934L89.0946 78.4771C88.7772 78.1046 88.4529 77.7504 88.1241 77.4124Z" fill="#F6A146"/>
<path d="M79.6642 72.131L77.6775 73.8025L91.9278 90.7399L93.9145 89.0684L79.6642 72.131Z" fill="#F6A146"/>
<path d="M92.259 90.4585C93.5997 89.3317 93.6434 86.9722 92.62 84.2585L86.0889 89.7548C88.5863 91.2266 90.9183 91.5854 92.259 90.4585Z" fill="#F6A146"/>
<path d="M85.9256 75.4209L78.5251 81.6485C78.9667 82.4787 79.5025 83.3204 80.1119 84.1575L88.1264 77.4147C87.4066 76.6673 86.6684 75.9958 85.9256 75.4209Z" fill="#F9B870"/>
<path d="M89.1868 78.5783C89.1569 78.5415 89.1247 78.5093 89.0948 78.4749L80.9929 85.2912C81.0228 85.328 81.0504 85.3625 81.0803 85.3993C82.6602 87.2758 84.4126 88.7637 86.0868 89.7526L92.6179 84.2563C91.9326 82.4372 90.7666 80.4572 89.1868 78.5783Z" fill="#F9B870"/>
<path d="M93.4642 89.4444C91.2243 91.3278 86.2201 89.0626 82.2853 84.3874C78.3505 79.7098 76.9753 74.3929 79.2129 72.5094C81.4505 70.626 86.457 72.8912 90.3917 77.5687C94.3288 82.2417 95.7041 87.5609 93.4642 89.4444Z" fill="#E0821C"/>
<path d="M93.7676 89.189C91.5277 91.0725 86.5236 88.8073 82.5888 84.132C78.654 79.4544 77.2788 74.1375 79.5164 72.254C81.754 70.3706 86.7604 72.6358 90.6952 77.3134C94.63 81.9864 96.0052 87.3056 93.7676 89.189Z" fill="#FCCA4D"/>
<path d="M92.3074 87.4552C90.5826 88.9063 86.6479 87.0666 83.5203 83.3479C80.3927 79.6293 79.252 75.437 80.9768 73.9882C82.7016 72.5371 86.634 74.3768 89.7639 78.0954C92.8938 81.814 94.0322 86.0041 92.3074 87.4552Z" fill="#FFE067"/>
<path d="M66.1321 21.9095C65.9631 21.7405 65.8804 21.5405 65.8804 21.3094V0.857023C65.8804 0.625942 65.9631 0.4259 66.1321 0.2569C66.3011 0.0879008 66.5012 0.00512695 66.7323 0.00512695H71.7333C72.323 0.00512695 72.7783 0.29139 73.0956 0.86047L77.6862 8.45855L82.2768 0.86047C82.5941 0.29139 83.0459 0.00512695 83.6391 0.00512695H88.6401C88.8712 0.00512695 89.0712 0.0913498 89.2402 0.2569C89.4092 0.4259 89.492 0.625942 89.492 0.857023V21.306C89.492 21.5371 89.4058 21.7371 89.2402 21.9061C89.0712 22.0751 88.8712 22.1579 88.6401 22.1579H82.9079C82.6769 22.1579 82.4734 22.0751 82.3078 21.9061C82.1388 21.7371 82.0561 21.5371 82.0561 21.306V12.6318L79.966 16.0497C79.8177 16.2808 79.6556 16.474 79.4762 16.6188C79.2969 16.7671 79.0693 16.8396 78.7968 16.8396H76.5791C76.3032 16.8396 76.079 16.7671 75.8996 16.6188C75.7203 16.4705 75.5547 16.2808 75.4099 16.0497L73.3198 12.6318V21.306C73.3198 21.5371 73.237 21.7371 73.068 21.9061C72.899 22.0751 72.699 22.1579 72.4679 22.1579H66.7357C66.5012 22.1613 66.3011 22.0785 66.1321 21.9095Z" fill="#003D59"/>
<path d="M98.7717 21.9079C98.6027 21.7389 98.5199 21.5388 98.5199 21.3077V15.072L91.3978 0.982959C91.3564 0.900184 91.3357 0.803612 91.3357 0.696694C91.3357 0.507 91.4047 0.344899 91.5426 0.20694C91.6806 0.0689815 91.8427 0 92.0324 0H97.9853C98.344 0 98.6337 0.0896728 98.8544 0.269019C99.0752 0.448366 99.2304 0.624267 99.3132 0.789817L102.479 7.15317L105.645 0.789817C105.728 0.620818 105.883 0.448366 106.104 0.269019C106.325 0.0896728 106.615 0 106.973 0H112.926C113.116 0 113.278 0.0689815 113.416 0.20694C113.554 0.344899 113.623 0.507 113.623 0.696694C113.623 0.803612 113.602 0.896735 113.561 0.982959L106.439 15.072V21.3043C106.439 21.5354 106.356 21.7354 106.187 21.9044C106.018 22.0734 105.818 22.1562 105.587 22.1562H99.3821C99.1407 22.1596 98.9407 22.0769 98.7717 21.9079Z" fill="#003D59"/>
<path d="M123.194 21.9079C123.025 21.7389 122.942 21.5388 122.942 21.3077V6.80827H117.686C117.455 6.80827 117.255 6.7255 117.086 6.5565C116.917 6.3875 116.834 6.18746 116.834 5.95637V0.851896C116.834 0.620815 116.917 0.420778 117.086 0.251779C117.255 0.0827791 117.455 0 117.686 0H136.238C136.469 0 136.669 0.0862281 136.838 0.251779C137.007 0.420778 137.09 0.620815 137.09 0.851896V5.94948C137.09 6.18056 137.003 6.38405 136.838 6.5496C136.669 6.7186 136.469 6.80137 136.238 6.80137H130.981V21.3043C130.981 21.5354 130.895 21.7354 130.73 21.9044C130.561 22.0734 130.361 22.1562 130.13 22.1562H123.797C123.563 22.1596 123.363 22.0769 123.194 21.9079Z" fill="#FF7300"/>
<path d="M139.625 21.9078C139.456 21.7388 139.373 21.5388 139.373 21.3077V0.855314C139.373 0.624233 139.456 0.424191 139.625 0.255191C139.794 0.0861918 139.994 0.00341797 140.225 0.00341797H146.685C146.916 0.00341797 147.116 0.0896408 147.285 0.255191C147.454 0.424191 147.537 0.624233 147.537 0.855314V21.3043C147.537 21.5353 147.45 21.7354 147.285 21.9044C147.116 22.0734 146.916 22.1562 146.685 22.1562H140.225C139.994 22.1596 139.794 22.0768 139.625 21.9078Z" fill="#FF7300"/>
<path d="M151.275 21.9078C151.106 21.7388 151.023 21.5388 151.023 21.3077V0.855314C151.023 0.624233 151.106 0.424191 151.275 0.255191C151.444 0.0861918 151.644 0.00341797 151.875 0.00341797H161.47C164.426 0.00341797 166.751 0.658718 168.451 1.96588C170.151 3.27649 171 5.20791 171 7.76015C171 10.2917 170.155 12.1783 168.468 13.413C166.778 14.6477 164.447 15.2651 161.47 15.2651H159.253V21.3043C159.253 21.5353 159.166 21.7354 159.001 21.9044C158.832 22.0734 158.632 22.1562 158.401 22.1562H151.879C151.644 22.1596 151.444 22.0768 151.275 21.9078ZM161.315 9.40186C161.695 9.40186 162.033 9.26046 162.329 8.97419C162.626 8.68793 162.774 8.26025 162.774 7.69117C162.774 7.20487 162.657 6.78409 162.426 6.4254C162.195 6.06671 161.826 5.88736 161.319 5.88736H159.101V9.40186H161.315Z" fill="#FF7300"/>
<path d="M66.2546 57.9944C66.0028 57.7426 65.8752 57.4425 65.8752 57.0942V26.5191C65.8752 26.1707 65.9994 25.8741 66.2546 25.6189C66.5064 25.3671 66.8065 25.2395 67.1548 25.2395H76.6223C76.9706 25.2395 77.2672 25.3671 77.5224 25.6189C77.7742 25.8707 77.9018 26.1707 77.9018 26.5191V48.6718H91.0113C91.3597 48.6718 91.6563 48.7994 91.9115 49.0512C92.1633 49.303 92.2909 49.603 92.2909 49.9514V57.0976C92.2909 57.446 92.1633 57.7461 91.9115 57.9978C91.6597 58.2496 91.3597 58.3772 91.0113 58.3772H67.1548C66.8065 58.3703 66.5064 58.2462 66.2546 57.9944Z" fill="#003D59"/>
<path d="M95.8847 57.9944C95.633 57.7426 95.5054 57.4425 95.5054 57.0942V26.5191C95.5054 26.1707 95.6295 25.8741 95.8847 25.6189C96.1365 25.3671 96.4366 25.2395 96.7849 25.2395H106.442C106.79 25.2395 107.087 25.3671 107.342 25.6189C107.594 25.8707 107.722 26.1707 107.722 26.5191V57.0942C107.722 57.4425 107.594 57.7426 107.342 57.9944C107.09 58.2462 106.79 58.3738 106.442 58.3738H96.7849C96.4366 58.3703 96.1365 58.2462 95.8847 57.9944Z" fill="#003D59"/>
<path d="M113.302 57.9944C113.05 57.7426 112.923 57.4425 112.923 57.0942V26.5191C112.923 26.1707 113.047 25.8741 113.302 25.6189C113.554 25.3671 113.854 25.2395 114.202 25.2395H138.059C138.407 25.2395 138.704 25.3671 138.959 25.6189C139.211 25.8707 139.338 26.1707 139.338 26.5191V33.7136C139.338 34.062 139.211 34.362 138.959 34.6138C138.707 34.8656 138.407 34.9932 138.059 34.9932H124.521V38.4973H137.11C137.459 38.4973 137.755 38.625 138.01 38.8767C138.262 39.1285 138.39 39.4286 138.39 39.7769V46.9232C138.39 47.2715 138.262 47.5716 138.01 47.8234C137.759 48.0751 137.459 48.2027 137.11 48.2027H124.521V57.1011C124.521 57.4494 124.394 57.7495 124.142 58.0013C123.89 58.2531 123.59 58.3807 123.242 58.3807H114.202C113.854 58.3703 113.554 58.2462 113.302 57.9944Z" fill="#003D59"/>
<path d="M143.877 57.9944C143.625 57.7426 143.498 57.4425 143.498 57.0942V26.5191C143.498 26.1707 143.622 25.8741 143.877 25.6189C144.129 25.3671 144.429 25.2395 144.777 25.2395H169.058C169.406 25.2395 169.703 25.3671 169.958 25.6189C170.21 25.8707 170.338 26.1707 170.338 26.5191V33.1928C170.338 33.5412 170.21 33.8412 169.958 34.093C169.707 34.3448 169.406 34.4724 169.058 34.4724H154.859V37.4558H168.017C168.365 37.4558 168.661 37.5834 168.917 37.8351C169.168 38.0869 169.296 38.387 169.296 38.7353V44.8883C169.296 45.2366 169.168 45.5367 168.917 45.7885C168.665 46.0402 168.365 46.1679 168.017 46.1679H154.859V49.1512H169.438C169.786 49.1512 170.082 49.2788 170.338 49.5306C170.589 49.7824 170.717 50.0824 170.717 50.4308V57.1045C170.717 57.4529 170.589 57.753 170.338 58.0047C170.086 58.2565 169.786 58.3841 169.438 58.3841H144.777C144.429 58.3703 144.129 58.2462 143.877 57.9944Z" fill="#003D59"/>
<path d="M40.9668 60.1984H6.93933C3.10752 60.1984 0 57.0909 0 53.2591V17.9589C0 14.1271 3.10752 11.0195 6.93933 11.0195H40.9668C44.7987 11.0195 47.9062 14.1271 47.9062 17.9589V53.2591C47.9096 57.0909 44.8021 60.1984 40.9668 60.1984Z" fill="#FFCE00"/>
<path d="M40.891 13.1096C43.6053 13.1096 45.8161 15.3169 45.8161 18.0347V53.1832C45.8161 55.8975 43.6053 58.1083 40.891 58.1083H7.0152C4.30086 58.1083 2.09005 55.901 2.09005 53.1832V18.0347C2.09005 15.3204 4.30086 13.1096 7.0152 13.1096H40.891ZM40.891 11.0195H7.0152C3.13855 11.0195 0 14.1615 0 18.0347V53.1832C0 57.0598 3.142 60.1984 7.0152 60.1984H40.891C44.7642 60.1984 47.9062 57.0564 47.9062 53.1832V18.0347C47.9096 14.1581 44.7676 11.0195 40.891 11.0195Z" fill="#FF7300"/>
<path d="M23.9532 53.4832C33.8258 53.4832 41.8292 45.4799 41.8292 35.6072C41.8292 25.7346 33.8258 17.7312 23.9532 17.7312C14.0805 17.7312 6.07715 25.7346 6.07715 35.6072C6.07715 45.4799 14.0805 53.4832 23.9532 53.4832Z" fill="#FFA300"/>
<path d="M23.9531 50.9551C32.4296 50.9551 39.3011 44.0836 39.3011 35.6072C39.3011 27.1308 32.4296 20.2593 23.9531 20.2593C15.4767 20.2593 8.60522 27.1308 8.60522 35.6072C8.60522 44.0836 15.4767 50.9551 23.9531 50.9551Z" fill="#FFCE00"/>
<path d="M20.2177 47.2269C20.1039 47.0683 20.059 46.8958 20.0901 46.7096L20.3694 44.9437C18.4518 44.3608 17.0446 43.4951 16.1513 42.3501C15.258 41.205 14.8959 39.9806 15.0683 38.6769C15.0925 38.5252 15.1684 38.401 15.296 38.3079C15.4236 38.2148 15.565 38.1803 15.7202 38.2044L20.5798 38.9735C20.8178 39.0115 21.004 39.0701 21.142 39.1529C21.2765 39.2357 21.4351 39.3805 21.611 39.5805C22.0422 40.0496 22.6423 40.3462 23.4114 40.4669C23.9909 40.5601 24.4668 40.567 24.8359 40.4945C25.2049 40.4221 25.4083 40.2738 25.4428 40.0531C25.4911 39.7461 25.298 39.4736 24.8634 39.2391C24.4289 39.0046 23.5839 38.7011 22.3319 38.3286C18.0241 37.0525 16.1203 34.8279 16.6238 31.6583C16.8515 30.2097 17.5654 29.0543 18.7587 28.1955C19.9521 27.3367 21.4421 26.8883 23.2321 26.8573L23.5149 25.0673C23.5459 24.881 23.6391 24.7293 23.7977 24.6155C23.9564 24.5016 24.1288 24.4568 24.3151 24.4879L27.4088 24.9776C27.595 25.0086 27.7468 25.1018 27.8606 25.2604C27.9744 25.4191 28.0192 25.5915 27.9882 25.7778L27.6916 27.6437C28.7952 28.0644 29.7265 28.6163 30.4818 29.3061C31.2371 29.9924 31.7889 30.7201 32.1304 31.4824C32.4718 32.2446 32.6098 32.9447 32.5478 33.5793C32.5236 33.7311 32.4477 33.8553 32.3167 33.9484C32.189 34.0415 32.0545 34.076 31.92 34.0553L26.8052 33.2448C26.5672 33.2069 26.3844 33.1482 26.2568 33.0654C26.1292 32.9827 25.9912 32.8551 25.8464 32.6723C25.536 32.3101 25.1083 32.0825 24.5634 31.9963C23.746 31.8652 23.2976 32.0411 23.2217 32.5171C23.1803 32.7723 23.3493 33.0172 23.7218 33.2517C24.0943 33.4862 24.8186 33.7587 25.8878 34.0656C27.5571 34.5554 28.8746 35.1072 29.8369 35.7108C30.7991 36.3178 31.4544 37.0283 31.8062 37.8457C32.158 38.6631 32.2442 39.6323 32.0683 40.7567C31.8269 42.2914 31.0474 43.4848 29.7334 44.3332C28.4193 45.1817 26.7914 45.6128 24.8496 45.6197L24.5668 47.4097C24.5358 47.596 24.4426 47.7477 24.284 47.865C24.1253 47.9788 23.9529 48.0236 23.7666 47.9926L20.6729 47.5028C20.4832 47.4787 20.3315 47.3856 20.2177 47.2269Z" fill="#FFA300"/>
<path d="M19.5831 45.9576C19.4693 45.799 19.4245 45.6265 19.4555 45.4403L19.7349 43.6744C17.8173 43.0915 16.4101 42.2258 15.5168 41.0808C14.6235 39.9357 14.2614 38.7113 14.4338 37.4076C14.458 37.2559 14.5339 37.1317 14.6615 37.0386C14.7891 36.9455 14.9305 36.911 15.0822 36.9351L19.9418 37.7042C20.1798 37.7422 20.366 37.8008 20.504 37.8836C20.6385 37.9664 20.7972 38.1112 20.9731 38.3113C21.4042 38.7838 22.0043 39.0769 22.7734 39.1976C23.3528 39.2908 23.8288 39.2977 24.1978 39.2252C24.5669 39.1528 24.7704 39.0045 24.8049 38.7838C24.8531 38.4768 24.66 38.2043 24.2255 37.9698C23.7909 37.7353 22.9459 37.4318 21.6939 37.0593C17.3861 35.7832 15.4823 33.5586 15.9859 30.389C16.2135 28.9404 16.9274 27.785 18.1208 26.9262C19.3141 26.0674 20.8041 25.6191 22.5907 25.588L22.8734 23.798C22.9045 23.6118 22.9976 23.46 23.1562 23.3462C23.3149 23.2324 23.4873 23.1875 23.6736 23.2186L26.7674 23.7083C26.9536 23.7394 27.1053 23.8325 27.2226 23.9911C27.3364 24.1498 27.3812 24.3222 27.3502 24.5085L27.0536 26.3744C28.1573 26.7951 29.0885 27.347 29.8438 28.0368C30.5991 28.7231 31.151 29.4509 31.4924 30.2131C31.8339 30.9753 31.9719 31.6754 31.9063 32.3101C31.8822 32.4618 31.8063 32.586 31.6787 32.6791C31.5511 32.7722 31.4166 32.8102 31.282 32.786L26.1672 31.9755C25.9293 31.9376 25.7464 31.8789 25.6188 31.7962C25.4912 31.7168 25.3533 31.5858 25.2084 31.403C24.898 31.0408 24.4703 30.8132 23.9254 30.727C23.108 30.5994 22.6596 30.7718 22.5837 31.2478C22.5424 31.503 22.7079 31.7479 23.0838 31.9824C23.4563 32.2169 24.1806 32.4894 25.2498 32.7964C26.9191 33.2896 28.2366 33.8379 29.1989 34.4415C30.1611 35.0485 30.8164 35.759 31.1682 36.5764C31.52 37.3938 31.6063 38.363 31.4304 39.4874C31.1889 41.0222 30.4095 42.2155 29.0954 43.0639C27.7813 43.9124 26.1534 44.3435 24.2117 44.3504L23.9289 46.1404C23.8978 46.3267 23.8047 46.4784 23.646 46.5922C23.4874 46.7061 23.3149 46.7509 23.1287 46.7199L20.035 46.2301C19.8487 46.2094 19.6969 46.1163 19.5831 45.9576Z" fill="#FFE161"/>
<path d="M41.1117 8.42934H6.79787C5.97011 8.42934 5.30103 7.76024 5.30103 6.93249V1.76248C5.30103 0.934725 5.97011 0.265625 6.79787 0.265625H41.1117C41.9394 0.265625 42.6085 0.934725 42.6085 1.76248V6.93249C42.6085 7.76024 41.9394 8.42934 41.1117 8.42934Z" fill="#003D59"/>
</svg>
