<svg width="65" height="65" viewBox="0 0 65 65" fill="none" xmlns="http://www.w3.org/2000/svg">
<g clip-path="url(#clip0)">
<path d="M19.1998 45.155L36.2532 54.6297V14.4184L19.1998 4.94434V45.155Z" fill="#C7C7C7"/>
<path d="M46.2572 47.3028C46.4278 44.7118 47.5305 42.27 49.3617 40.4292C50.9942 38.7817 53.1463 37.7496 55.4529 37.5084V6.90527L38.3988 14.4847V54.8025L46.7391 51.0957C46.338 49.8739 46.1745 48.5862 46.2572 47.3028Z" fill="#C7C7C7"/>
<path d="M0 52.6686L17.0541 45.0892V4.77197L0 12.3514V52.6686Z" fill="#C7C7C7"/>
<path d="M60.2157 47.2511C60.2157 45.1516 58.5688 43.4497 56.5377 43.4497C54.5059 43.4497 52.8596 45.1516 52.8596 47.2511C52.8596 49.3505 54.5059 51.053 56.5377 51.053C58.5688 51.053 60.2157 49.3505 60.2157 47.2511Z" fill="#C7C7C7"/>
<path d="M64.9833 47.4253C64.8426 45.2774 63.9291 43.2534 62.4116 41.7268C60.8557 40.1662 58.7419 39.2886 56.5377 39.2886C54.3341 39.2886 52.2203 40.1662 50.6644 41.7268C49.1469 43.2534 48.2333 45.2774 48.0921 47.4253C48.0184 48.5909 48.1908 49.7594 48.5979 50.8543C49.0325 52.0049 49.6964 53.0549 50.5495 53.9409L56.5383 60.32L62.5271 53.9409C63.3802 53.0549 64.0441 52.0049 64.4787 50.8543C64.8851 49.7594 65.0576 48.5909 64.9833 47.4253ZM56.5383 52.8921C53.496 52.8921 51.0212 50.3616 51.0212 47.2511C51.0212 44.1412 53.496 41.6107 56.5383 41.6107C59.58 41.6107 62.0554 44.1412 62.0554 47.2511C62.0554 50.3616 59.5806 52.8921 56.5383 52.8921Z" fill="#C7C7C7"/>
</g>
<defs>
<clipPath id="clip0">
<rect width="65" height="65" fill="white"/>
</clipPath>
</defs>
</svg>
