<svg width="405" height="173" viewBox="0 0 405 173" fill="none" xmlns="http://www.w3.org/2000/svg">
<g filter="url(#filter0_d)">
<path d="M405 0H0V172H405V0Z" fill="#FAFAFA"/>
</g>
<path opacity="0.07" d="M332.905 98.8596H359.972C366.796 98.8596 372.329 93.3269 372.329 86.5024C372.329 79.6779 366.796 74.1453 359.972 74.1453H332.907C326.082 74.1453 320.55 79.6779 320.55 86.5024C320.55 93.3292 326.082 98.8596 332.905 98.8596Z" fill="#269DBD"/>
<path opacity="0.07" d="M72.4271 74.1475H45.3625C38.538 74.1475 33.0054 79.6801 33.0054 86.5046C33.0054 93.3291 38.538 98.8617 45.3625 98.8617H72.4271C79.2516 98.8617 84.7843 93.3291 84.7843 86.5046C84.7843 79.6801 79.2516 74.1475 72.4271 74.1475Z" fill="#269DBD"/>
<path opacity="0.07" d="M309.723 61.7927C309.723 54.9682 304.19 49.4355 297.366 49.4355H291.953C285.129 49.4355 279.596 54.9682 279.596 61.7927C279.596 68.6172 285.129 74.1498 291.953 74.1498H297.366C304.193 74.1475 309.723 68.6149 309.723 61.7927Z" fill="#269DBD"/>
<path opacity="0.07" d="M46.5389 24.7234H20.3571C13.5326 24.7234 8 30.256 8 37.0805C8 43.905 13.5326 49.4377 20.3571 49.4377H46.5413C53.3658 49.4377 58.8984 43.905 58.8984 37.0805C58.8961 30.256 53.3634 24.7234 46.5389 24.7234Z" fill="#269DBD"/>
<path opacity="0.07" d="M367.15 12.3686C367.15 19.1931 372.683 24.7258 379.507 24.7258H384.919C391.744 24.7258 397.277 19.1931 397.277 12.3686C397.277 5.54411 391.744 0.0114746 384.919 0.0114746H379.507C372.683 0.0114746 367.15 5.54411 367.15 12.3686Z" fill="#269DBD"/>
<path opacity="0.07" d="M282.591 123.571H283.717C290.541 123.571 296.074 118.039 296.074 111.214C296.074 104.39 290.541 98.8571 283.717 98.8571H241.589C234.764 98.8571 229.232 93.3245 229.232 86.5C229.232 79.6755 234.764 74.1429 241.589 74.1429H246.532C253.357 74.1429 258.889 68.6102 258.889 61.7857C258.889 54.9612 253.357 49.4286 246.532 49.4286H226.232C219.407 49.4286 213.875 43.8959 213.875 37.0714C213.875 30.2469 219.407 24.7143 226.232 24.7143H347.264C354.088 24.7143 359.621 19.1817 359.621 12.3571C359.621 5.53263 354.088 0 347.264 0H146.085C139.261 0 133.728 5.53263 133.728 12.3571C133.728 19.1817 128.195 24.7143 121.371 24.7143H81.1355C74.311 24.7143 68.7784 30.2469 68.7784 37.0714C68.7784 43.8959 74.311 49.4286 81.1355 49.4286H93.5504C100.375 49.4286 105.908 54.9612 105.908 61.7857C105.908 68.6102 111.44 74.1429 118.265 74.1429H121.375C128.2 74.1429 133.733 79.6755 133.733 86.5C133.733 93.3245 128.2 98.8571 121.375 98.8571H103.673C96.8483 98.8571 91.3157 104.39 91.3157 111.214C91.3157 118.039 85.783 123.571 78.9585 123.571H71.2512C64.4267 123.571 58.894 129.104 58.894 135.929C58.894 142.753 64.4267 148.286 71.2512 148.286H80.842C87.6665 148.286 93.1992 153.818 93.1992 160.643C93.1992 167.467 98.7318 173 105.556 173H300.37C307.195 173 312.727 167.467 312.727 160.643C312.727 153.818 307.195 148.286 300.37 148.286H282.594C275.769 148.286 270.237 142.753 270.237 135.929C270.234 129.104 275.767 123.571 282.591 123.571ZM133.73 135.929C133.73 129.104 139.263 123.571 146.087 123.571H225.351C232.176 123.571 237.709 129.104 237.709 135.929C237.709 142.753 232.176 148.286 225.351 148.286H146.085C139.263 148.283 133.73 142.753 133.73 135.929Z" fill="#269DBD"/>
<path opacity="0.07" d="M339.445 148.283H347.263C354.088 148.283 359.62 142.751 359.62 135.926C359.62 129.102 354.088 123.569 347.263 123.569H339.445C332.621 123.569 327.088 129.102 327.088 135.926C327.088 142.753 332.621 148.283 339.445 148.283Z" fill="#269DBD"/>
<defs>
<filter id="filter0_d" x="-4" y="0" width="413" height="180" filterUnits="userSpaceOnUse" color-interpolation-filters="sRGB">
<feFlood flood-opacity="0" result="BackgroundImageFix"/>
<feColorMatrix in="SourceAlpha" type="matrix" values="0 0 0 0 0 0 0 0 0 0 0 0 0 0 0 0 0 0 127 0"/>
<feOffset dy="4"/>
<feGaussianBlur stdDeviation="2"/>
<feColorMatrix type="matrix" values="0 0 0 0 0 0 0 0 0 0 0 0 0 0 0 0 0 0 0.25 0"/>
<feBlend mode="normal" in2="BackgroundImageFix" result="effect1_dropShadow"/>
<feBlend mode="normal" in="SourceGraphic" in2="effect1_dropShadow" result="shape"/>
</filter>
</defs>
</svg>
