<svg width="405" height="248" viewBox="0 0 405 248" fill="none" xmlns="http://www.w3.org/2000/svg">
<mask id="mask0" mask-type="alpha" maskUnits="userSpaceOnUse" x="0" y="0" width="405" height="248">
<path d="M405 0H0V248H405V0Z" fill="#59C398"/>
</mask>
<g mask="url(#mask0)">
<path d="M221.426 455.107C346.873 444.368 439.862 333.967 429.123 208.519C418.384 83.0722 307.982 -9.91698 182.535 0.822331C57.0879 11.5616 -35.9012 121.963 -25.1619 247.41C-14.4226 372.857 95.9784 465.846 221.426 455.107Z" fill="#E0821B"/>
<path d="M406.782 299.116C446.056 185.998 386.194 62.4587 273.076 23.184C159.957 -16.0908 36.418 43.7714 -2.85673 156.89C-42.1315 270.008 17.7307 393.547 130.849 432.822C243.968 472.097 367.507 412.235 406.782 299.116Z" fill="#FCCA4C"/>
<path d="M211.133 399.853C306.058 394.786 378.902 313.727 373.836 218.803C368.769 123.878 287.71 51.0335 192.786 56.1001C97.8611 61.1667 25.0167 142.226 30.0833 237.15C35.1499 332.075 116.209 404.919 211.133 399.853Z" fill="#FFE066"/>
<path opacity="0.23" d="M422.022 287.428L332.492 41.0716C313.876 28.0705 292.971 17.581 270.071 10.4894C267.929 9.8246 265.713 9.30751 263.571 8.71655L390.036 356.792C402.52 338.62 412.567 318.306 419.511 296.145C420.397 293.19 421.21 290.309 422.022 287.428Z" fill="#FFE066"/>
<path opacity="0.23" d="M41.9604 65.6705L183.422 455.114C223.164 458.438 262.315 451.051 297.255 434.947L142.202 8.12573C104.528 18.3937 69.8833 38.1909 41.9604 65.6705Z" fill="#FFE066"/>
</g>
</svg>
