<svg width="1000" height="522" viewBox="0 0 1000 522" fill="none" xmlns="http://www.w3.org/2000/svg">
<path d="M500.055 514.922C832.78 514.922 1102.51 245.195 1102.51 -87.5305C1102.51 -420.256 832.78 -689.983 500.055 -689.983C167.33 -689.983 -102.397 -420.256 -102.397 -87.5305C-102.397 245.195 167.33 514.922 500.055 514.922Z" fill="#E0821B"/>
<path d="M530.884 491.117C850.445 474.06 1095.67 201.178 1078.62 -118.383C1061.56 -437.944 788.678 -683.173 469.117 -666.116C149.555 -649.06 -95.673 -376.177 -78.6165 -56.6164C-61.56 262.945 211.322 508.173 530.884 491.117Z" fill="#FDCF52"/>
<path d="M524.243 366.708C775.095 353.319 967.597 139.109 954.208 -111.743C940.819 -362.595 726.609 -555.097 475.757 -541.708C224.905 -528.319 32.4027 -314.109 45.7918 -63.2567C59.181 187.596 273.391 380.097 524.243 366.708Z" fill="#FFE066"/>
<path opacity="0.23" d="M1081.55 69.6105L844.949 -581.423C795.756 -615.78 740.511 -643.5 679.995 -662.241C674.334 -663.998 668.477 -665.364 662.816 -666.926L997.02 252.915C1030.01 204.893 1056.56 151.209 1074.91 92.6456C1077.25 84.8371 1079.4 77.2238 1081.55 69.6105Z" fill="#FFE066"/>
<path opacity="0.23" d="M77.1787 -516.416L451.011 512.744C556.035 521.528 659.497 502.007 751.833 459.451L342.082 -668.487C242.524 -641.352 150.969 -589.035 77.1787 -516.416Z" fill="#FFE066"/>
</svg>
