<svg width="693" height="308" viewBox="0 0 693 308" fill="none" xmlns="http://www.w3.org/2000/svg">
<path opacity="0.07" d="M578.404 175.992H626.589C638.738 175.992 648.587 166.143 648.587 153.994C648.587 141.844 638.738 131.995 626.589 131.995H578.408C566.259 131.995 556.409 141.844 556.409 153.994C556.409 166.147 566.259 175.992 578.404 175.992Z" fill="#269DBD"/>
<path opacity="0.07" d="M114.695 131.999H66.5139C54.3647 131.999 44.5154 141.849 44.5154 153.998C44.5154 166.147 54.3647 175.996 66.5139 175.996H114.695C126.844 175.996 136.693 166.147 136.693 153.998C136.693 141.849 126.844 131.999 114.695 131.999Z" fill="#269DBD"/>
<path opacity="0.07" d="M537.134 110.005C537.134 97.8557 527.285 88.0063 515.136 88.0063H505.5C493.351 88.0063 483.502 97.8557 483.502 110.005C483.502 122.154 493.351 132.003 505.5 132.003H515.136C527.289 131.999 537.134 122.15 537.134 110.005Z" fill="#269DBD"/>
<path opacity="0.07" d="M68.608 44.0135H21.9985C9.84934 44.0135 0 53.8628 0 66.012C0 78.1611 9.84934 88.0104 21.9985 88.0104H68.6121C80.7613 88.0104 90.6106 78.1611 90.6106 66.012C90.6065 53.8628 80.7571 44.0135 68.608 44.0135Z" fill="#269DBD"/>
<path opacity="0.07" d="M639.368 22.0191C639.368 34.1682 649.217 44.0176 661.366 44.0176H671.001C683.151 44.0176 693 34.1682 693 22.0191C693 9.86991 683.151 0.0205688 671.001 0.0205688H661.366C649.217 0.0205688 639.368 9.86991 639.368 22.0191Z" fill="#269DBD"/>
<path opacity="0.07" d="M488.834 219.985H490.838C502.987 219.985 512.836 210.136 512.836 197.986C512.836 185.837 502.987 175.988 490.838 175.988H415.84C403.691 175.988 393.842 166.139 393.842 153.989C393.842 141.84 403.691 131.991 415.84 131.991H424.64C436.79 131.991 446.639 122.142 446.639 109.992C446.639 97.8433 436.79 87.994 424.64 87.994H388.502C376.352 87.994 366.503 78.1447 366.503 65.9955C366.503 53.8463 376.352 43.997 388.502 43.997H603.965C616.114 43.997 625.964 34.1477 625.964 21.9985C625.964 9.84933 616.114 0 603.965 0H245.822C233.673 0 223.823 9.84933 223.823 21.9985C223.823 34.1477 213.974 43.997 201.825 43.997H130.197C118.048 43.997 108.199 53.8463 108.199 65.9955C108.199 78.1447 118.048 87.994 130.197 87.994H152.299C164.448 87.994 174.297 97.8433 174.297 109.992C174.297 122.142 184.146 131.991 196.296 131.991H201.833C213.982 131.991 223.832 141.84 223.832 153.989C223.832 166.139 213.982 175.988 201.833 175.988H170.319C158.169 175.988 148.32 185.837 148.32 197.986C148.32 210.136 138.471 219.985 126.322 219.985H112.601C100.452 219.985 90.6024 229.834 90.6024 241.983C90.6024 254.133 100.452 263.982 112.601 263.982H129.675C141.824 263.982 151.673 273.831 151.673 285.98C151.673 298.13 161.523 307.979 173.672 307.979H520.484C532.633 307.979 542.483 298.13 542.483 285.98C542.483 273.831 532.633 263.982 520.484 263.982H488.838C476.689 263.982 466.84 254.133 466.84 241.983C466.835 229.834 476.685 219.985 488.834 219.985ZM223.828 241.983C223.828 229.834 233.677 219.985 245.826 219.985H386.934C399.083 219.985 408.933 229.834 408.933 241.983C408.933 254.133 399.083 263.982 386.934 263.982H245.822C233.677 263.978 223.828 254.133 223.828 241.983Z" fill="#269DBD"/>
<path opacity="0.07" d="M590.047 263.978H603.965C616.114 263.978 625.964 254.128 625.964 241.979C625.964 229.83 616.114 219.981 603.965 219.981H590.047C577.898 219.981 568.048 229.83 568.048 241.979C568.048 254.133 577.898 263.978 590.047 263.978Z" fill="#269DBD"/>
</svg>
