<svg width="422" height="633" viewBox="0 0 422 633" fill="none" xmlns="http://www.w3.org/2000/svg">
<rect x="66.6663" width="287.604" height="63.2539" rx="31.627" fill="#FFE066"/>
<rect x="61.6641" y="567.366" width="298.424" height="65.6336" rx="32.8168" fill="#FFE066"/>
<path fill-rule="evenodd" clip-rule="evenodd" d="M55.4429 40.0608C55.4403 40.2307 55.439 40.401 55.439 40.5716C55.439 58.9083 70.3039 73.7732 88.6407 73.7732H333.808C352.145 73.7732 367.01 58.9083 367.01 40.5716C367.01 40.401 367.008 40.2307 367.006 40.0608H379.637C402.933 40.0608 421.819 58.9463 421.819 82.2427V558.73C421.819 582.027 402.933 600.912 379.637 600.912H42.182C18.8856 600.912 0.00012207 582.027 0.00012207 558.73V82.2427C0.00012207 58.9463 18.8856 40.0608 42.182 40.0608H55.4429Z" fill="#59C398"/>
</svg>
