<svg width="1410" height="192" viewBox="0 0 1410 192" fill="none" xmlns="http://www.w3.org/2000/svg">
<path d="M-135 66.4761C-76.5 93.1427 116.7 139.5 381.5 75.5C646.3 11.5 853.5 70.1666 924 107.5" stroke="#11CEA2" stroke-width="4"/>
<path d="M983 133.476C1041.5 160.143 1224.7 197.476 1489.5 133.476C1754.3 69.476 1961.5 128.143 2032 165.476" stroke="#11CEA2" stroke-width="4"/>
<g clip-path="url(#clip0)">
<path d="M956.811 87.1051C974.968 88.6594 988.427 104.639 986.873 122.795C985.318 140.952 969.339 154.411 951.183 152.857C933.026 151.302 919.567 135.323 921.121 117.166C922.675 99.0096 938.655 85.5507 956.811 87.1051Z" fill="#E0821B"/>
<path d="M983.639 109.683C989.324 126.055 980.659 143.936 964.287 149.62C947.915 155.305 930.034 146.64 924.349 130.268C918.665 113.896 927.329 96.015 943.702 90.3305C960.074 84.646 977.955 93.3102 983.639 109.683Z" fill="#FCCA4C"/>
<path d="M955.321 95.1023C969.061 95.8356 979.604 107.568 978.871 121.307C978.137 135.046 966.405 145.589 952.666 144.856C938.927 144.123 928.384 132.39 929.117 118.651C929.85 104.912 941.582 94.369 955.321 95.1023Z" fill="#FFE066"/>
<path opacity="0.23" d="M985.845 111.374L972.887 147.031C970.192 148.913 967.166 150.431 963.852 151.458C963.542 151.554 963.221 151.629 962.911 151.714L981.215 101.335C983.022 103.965 984.476 106.905 985.481 110.113C985.61 110.54 985.727 110.957 985.845 111.374Z" fill="#FFE066"/>
<path opacity="0.23" d="M930.836 143.471L951.311 87.1042C957.063 86.6231 962.729 87.6922 967.787 90.023L945.345 151.8C939.892 150.314 934.877 147.448 930.836 143.471Z" fill="#FFE066"/>
</g>
<g clip-path="url(#clip1)">
<path d="M214.256 132.395C221.16 141.563 238.601 140.909 257.773 132.155L226.835 90.9791C212.959 106.768 207.37 123.228 214.256 132.395Z" fill="#FFA340"/>
<path d="M238.135 79.9198L271.65 124.501C273.778 123.142 275.889 121.715 278 120.167L244.122 75.1039C242.045 76.6691 240.055 78.2858 238.135 79.9198Z" fill="#FFA340"/>
<path d="M302.121 52.8118L207.338 123.201L215.643 134.252L310.426 63.8622L302.121 52.8118Z" fill="#FFA340"/>
<path d="M309.041 61.998C303.435 54.5506 290.874 53.5874 276.062 58.1797L303.366 94.505C312 81.7086 314.648 69.4453 309.041 61.998Z" fill="#FFA340"/>
<path d="M226.836 90.9791L257.773 132.155C262.341 130.073 266.996 127.494 271.65 124.518L238.135 79.9198C233.947 83.4973 230.141 87.2124 226.836 90.9791Z" fill="#FFB96E"/>
<path d="M244.709 74.6568C244.502 74.8116 244.329 74.9664 244.121 75.104L278 120.184C278.207 120.029 278.398 119.909 278.605 119.754C289.108 111.945 297.586 103.122 303.383 94.5222L276.062 58.1797C266.13 61.2756 255.212 66.8482 244.709 74.6568Z" fill="#FFB96E"/>
<path d="M273.568 113.052C299.742 93.6141 313.37 67.7584 304.008 55.3014C294.645 42.8444 265.838 48.5033 239.664 67.9408C213.49 87.3784 199.862 113.234 209.225 125.691C218.587 138.148 247.395 132.489 273.568 113.052Z" fill="#E0821B"/>
<path d="M272.304 111.365C298.477 91.9279 312.105 66.0722 302.743 53.6152C293.381 41.1582 264.573 46.8171 238.399 66.2546C212.226 85.6922 198.598 111.548 207.96 124.005C217.323 136.462 246.13 130.803 272.304 111.365Z" fill="#FCCA4C"/>
<path d="M268.399 106.171C289.214 90.713 300.246 70.4092 293.04 60.821C285.833 51.2328 263.118 55.9912 242.303 71.4492C221.488 86.9071 210.456 107.211 217.662 116.799C224.869 126.387 247.584 121.629 268.399 106.171Z" fill="#FFE066"/>
</g>
<g clip-path="url(#clip2)">
<path d="M1261.63 146.711C1258.48 156.485 1267.91 168.853 1284.12 178.288L1298.26 134.388C1279.64 132.474 1264.79 136.936 1261.63 146.711Z" fill="#FFA340"/>
<path d="M1312.11 136.89L1296.8 184.418C1298.88 185.252 1301.01 186.055 1303.2 186.796L1318.68 138.743C1316.47 138.048 1314.29 137.43 1312.11 136.89Z" fill="#FFA340"/>
<path d="M1364.67 169.423L1264.79 136.892L1261 148.674L1360.88 181.206L1364.67 169.423Z" fill="#FFA340"/>
<path d="M1361.51 179.245C1364.08 171.293 1358.32 161.642 1347.39 153.242L1334.92 191.985C1348.66 191.629 1358.95 187.182 1361.51 179.245Z" fill="#FFA340"/>
<path d="M1298.26 134.388L1284.12 178.288C1287.97 180.527 1292.26 182.596 1296.8 184.434L1312.11 136.89C1307.35 135.701 1302.7 134.852 1298.26 134.388Z" fill="#FFB96E"/>
<path d="M1319.31 138.928C1319.1 138.866 1318.9 138.805 1318.68 138.743L1303.21 186.796C1303.42 186.873 1303.62 186.951 1303.82 187.012C1314.89 190.626 1325.68 192.216 1334.89 191.969L1347.36 153.227C1340.05 147.606 1330.38 142.541 1319.31 138.928Z" fill="#FFB96E"/>
<path d="M1363.82 172.089C1368.09 158.807 1349.2 140.757 1321.62 131.774C1294.04 122.791 1268.21 126.275 1263.93 139.557C1259.66 152.839 1278.55 170.889 1306.13 179.872C1333.71 188.855 1359.54 185.371 1363.82 172.089Z" fill="#E0821B"/>
<path d="M1364.4 170.29C1368.67 157.008 1349.78 138.959 1322.2 129.975C1294.62 120.992 1268.79 124.477 1264.52 137.758C1260.24 151.04 1279.13 169.09 1306.71 178.073C1334.29 187.057 1360.12 183.572 1364.4 170.29Z" fill="#FCCA4C"/>
<path d="M1354.17 166.96C1357.47 156.737 1342.35 142.658 1320.42 135.514C1298.48 128.37 1278.03 130.866 1274.74 141.089C1271.45 151.312 1286.56 165.391 1308.5 172.535C1330.43 179.679 1350.88 177.183 1354.17 166.96Z" fill="#FFE066"/>
</g>
<g clip-path="url(#clip3)">
<path d="M596.504 9.89395C588.039 17.0037 589.652 33.6427 599.165 51.4916L637.182 19.6056C621.167 7.22574 604.986 2.78424 596.504 9.89395Z" fill="#FFA340"/>
<path d="M648.492 29.8144L607.314 64.3354C608.745 66.291 610.241 68.23 611.855 70.1691L653.481 35.2668C651.851 33.361 650.171 31.5545 648.492 29.8144Z" fill="#FFA340"/>
<path d="M678.232 89.4834L605.02 2.76746L594.814 11.3244L668.026 98.0403L678.232 89.4834Z" fill="#FFA340"/>
<path d="M669.728 96.6192C676.613 90.8519 676.846 78.7703 671.574 64.8658L638.014 93.0063C650.869 100.547 662.843 102.386 669.728 96.6192Z" fill="#FFA340"/>
<path d="M637.182 19.6222L599.165 51.4916C601.427 55.7508 604.187 60.0597 607.314 64.3355L648.491 29.8144C644.799 26.0027 641.007 22.5721 637.182 19.6222Z" fill="#FFB96E"/>
<path d="M653.946 35.7972C653.797 35.6149 653.63 35.4491 653.481 35.2668L611.838 70.1525C611.988 70.3348 612.137 70.5171 612.287 70.6994C620.403 80.3116 629.4 87.9351 638.014 92.9897L671.575 64.8492C668.049 55.5353 662.062 45.4094 653.946 35.7972Z" fill="#FFB96E"/>
<path d="M675.92 91.4201C687.426 81.7739 680.363 54.542 660.146 30.5961C639.929 6.65017 614.213 -4.94203 602.708 4.70419C591.203 14.3504 598.265 41.5822 618.482 65.5282C638.699 89.4741 664.415 101.066 675.92 91.4201Z" fill="#E0821B"/>
<path d="M677.478 90.1064C688.983 80.4602 681.921 53.2284 661.704 29.2824C641.487 5.33651 615.771 -6.25569 604.266 3.39053C592.76 13.0368 599.823 40.2686 620.04 64.2145C640.257 88.1605 665.973 99.7527 677.478 90.1064Z" fill="#FCCA4C"/>
<path d="M669.983 81.2294C678.839 73.8047 672.984 52.3481 656.906 33.3049C640.828 14.2616 620.615 4.84286 611.76 12.2676C602.904 19.6923 608.759 41.1488 624.837 60.1921C640.915 79.2354 661.128 88.6541 669.983 81.2294Z" fill="#FFE066"/>
</g>
<defs>
<clipPath id="clip0">
<rect width="66" height="66" fill="white" transform="matrix(1 0 0 -1 921 152.976)"/>
</clipPath>
<clipPath id="clip1">
<rect width="107" height="92" fill="white" transform="translate(205 47)"/>
</clipPath>
<clipPath id="clip2">
<rect width="104" height="67" fill="white" transform="translate(1261 125)"/>
</clipPath>
<clipPath id="clip3">
<rect width="92" height="100" fill="white" transform="translate(591)"/>
</clipPath>
</defs>
</svg>
