<svg width="535" height="369" viewBox="0 0 535 369" fill="none" xmlns="http://www.w3.org/2000/svg">
<path opacity="0.07" d="M250.398 184.186H270.162C275.145 184.186 279.185 180.146 279.185 175.163C279.185 170.179 275.145 166.14 270.162 166.14H250.4C245.417 166.14 241.377 170.179 241.377 175.163C241.377 180.147 245.417 184.186 250.398 184.186Z" fill="#269DBD"/>
<path opacity="0.07" d="M47.0437 166.141H27.2815C22.2984 166.141 18.2585 170.181 18.2585 175.164C18.2585 180.147 22.2984 184.187 27.2815 184.187H47.0437C52.0268 184.187 56.0666 180.147 56.0666 175.164C56.0666 170.181 52.0268 166.141 47.0437 166.141Z" fill="#269DBD"/>
<path opacity="0.07" d="M220.313 157.12C220.313 152.137 216.273 148.097 211.29 148.097H207.338C202.355 148.097 198.315 152.137 198.315 157.12C198.315 162.103 202.355 166.143 207.338 166.143H211.29C216.275 166.141 220.313 162.101 220.313 157.12Z" fill="#269DBD"/>
<path opacity="0.07" d="M28.1404 130.053H9.02286C4.03972 130.053 -0.00012207 134.093 -0.00012207 139.076C-0.00012207 144.059 4.03972 148.099 9.02286 148.099H28.1421C33.1252 148.099 37.165 144.059 37.165 139.076C37.1633 134.093 33.1235 130.053 28.1404 130.053Z" fill="#269DBD"/>
<path opacity="0.07" d="M262.245 121.031C262.245 126.015 266.285 130.054 271.268 130.054H275.22C280.203 130.054 284.243 126.015 284.243 121.031C284.243 116.048 280.203 112.008 275.22 112.008H271.268C266.285 112.008 262.245 116.048 262.245 121.031Z" fill="#269DBD"/>
<path opacity="0.07" d="M200.502 202.23H201.324C206.307 202.23 210.347 198.19 210.347 193.207C210.347 188.224 206.307 184.184 201.324 184.184H170.562C165.579 184.184 161.539 180.144 161.539 175.161C161.539 170.178 165.579 166.138 170.562 166.138H174.172C179.155 166.138 183.195 162.098 183.195 157.115C183.195 152.132 179.155 148.092 174.172 148.092H159.349C154.366 148.092 150.326 144.052 150.326 139.069C150.326 134.086 154.366 130.046 159.349 130.046H247.724C252.708 130.046 256.747 126.006 256.747 121.023C256.747 116.04 252.708 112 247.724 112H100.827C95.844 112 91.8042 116.04 91.8042 121.023C91.8042 126.006 87.7643 130.046 82.7812 130.046H53.4021C48.419 130.046 44.3791 134.086 44.3791 139.069C44.3791 144.052 48.419 148.092 53.4021 148.092H62.4673C67.4504 148.092 71.4902 152.132 71.4902 157.115C71.4902 162.098 75.5301 166.138 80.5132 166.138H82.7846C87.7677 166.138 91.8075 170.178 91.8075 175.161C91.8075 180.144 87.7677 184.184 82.7846 184.184H69.8584C64.8753 184.184 60.8355 188.224 60.8355 193.207C60.8355 198.19 56.7956 202.23 51.8125 202.23H46.1847C41.2016 202.23 37.1617 206.27 37.1617 211.253C37.1617 216.236 41.2016 220.276 46.1847 220.276H53.1878C58.1709 220.276 62.2108 224.316 62.2108 229.299C62.2108 234.282 66.2506 238.322 71.2337 238.322H213.484C218.467 238.322 222.507 234.282 222.507 229.299C222.507 224.316 218.467 220.276 213.484 220.276H200.503C195.52 220.276 191.48 216.236 191.48 211.253C191.479 206.27 195.519 202.23 200.502 202.23ZM91.8059 211.253C91.8059 206.27 95.8457 202.23 100.829 202.23H158.706C163.689 202.23 167.729 206.27 167.729 211.253C167.729 216.236 163.689 220.276 158.706 220.276H100.827C95.8457 220.274 91.8059 216.236 91.8059 211.253Z" fill="#269DBD"/>
<path opacity="0.07" d="M242.016 220.274H247.724C252.707 220.274 256.747 216.234 256.747 211.251C256.747 206.268 252.707 202.228 247.724 202.228H242.016C237.032 202.228 232.993 206.268 232.993 211.251C232.993 216.236 237.032 220.274 242.016 220.274Z" fill="#269DBD"/>
<path opacity="0.07" d="M284.289 165.814L264.525 165.814C259.542 165.814 255.502 169.854 255.502 174.837C255.502 179.821 259.542 183.86 264.525 183.86L284.287 183.86C289.271 183.86 293.31 179.821 293.31 174.837C293.31 169.853 289.271 165.814 284.289 165.814Z" fill="#269DBD"/>
<path opacity="0.07" d="M487.643 183.859L507.406 183.859C512.389 183.859 516.429 179.819 516.429 174.836C516.429 169.853 512.389 165.813 507.406 165.813L487.643 165.813C482.66 165.813 478.62 169.853 478.62 174.836C478.62 179.819 482.66 183.859 487.643 183.859Z" fill="#269DBD"/>
<path opacity="0.07" d="M314.374 192.88C314.374 197.863 318.414 201.903 323.397 201.903L327.349 201.903C332.332 201.903 336.372 197.863 336.372 192.88C336.372 187.897 332.332 183.857 327.349 183.857L323.397 183.857C318.412 183.859 314.374 187.899 314.374 192.88Z" fill="#269DBD"/>
<path opacity="0.07" d="M506.547 219.947L525.664 219.947C530.647 219.947 534.687 215.907 534.687 210.924C534.687 205.941 530.647 201.901 525.664 201.901L506.545 201.901C501.562 201.901 497.522 205.941 497.522 210.924C497.524 215.907 501.564 219.947 506.547 219.947Z" fill="#269DBD"/>
<path opacity="0.07" d="M272.442 228.969C272.442 223.985 268.402 219.946 263.419 219.946L259.467 219.946C254.484 219.946 250.444 223.985 250.444 228.969C250.444 233.952 254.484 237.992 259.467 237.992L263.419 237.992C268.402 237.992 272.442 233.952 272.442 228.969Z" fill="#269DBD"/>
<path opacity="0.07" d="M334.185 147.77L333.364 147.77C328.381 147.77 324.341 151.81 324.341 156.793C324.341 161.776 328.381 165.816 333.364 165.816L364.125 165.816C369.108 165.816 373.148 169.856 373.148 174.839C373.148 179.822 369.108 183.862 364.125 183.862L360.515 183.862C355.532 183.862 351.492 187.902 351.492 192.885C351.492 197.868 355.532 201.908 360.515 201.908L375.338 201.908C380.321 201.908 384.361 205.948 384.361 210.931C384.361 215.914 380.321 219.954 375.338 219.954L286.963 219.954C281.98 219.954 277.94 223.994 277.94 228.977C277.94 233.96 281.98 238 286.963 238L433.86 238C438.843 238 442.883 233.96 442.883 228.977C442.883 223.994 446.923 219.954 451.906 219.954L481.285 219.954C486.268 219.954 490.308 215.914 490.308 210.931C490.308 205.948 486.268 201.908 481.285 201.908L472.22 201.908C467.237 201.908 463.197 197.868 463.197 192.885C463.197 187.902 459.157 183.862 454.174 183.862L451.903 183.862C446.92 183.862 442.88 179.822 442.88 174.839C442.88 169.856 446.92 165.816 451.903 165.816L464.829 165.816C469.812 165.816 473.852 161.776 473.852 156.793C473.852 151.81 477.892 147.77 482.875 147.77L488.503 147.77C493.486 147.77 497.526 143.73 497.526 138.747C497.526 133.764 493.486 129.724 488.503 129.724L481.499 129.724C476.516 129.724 472.477 125.684 472.477 120.701C472.477 115.718 468.437 111.678 463.454 111.678L321.204 111.678C316.221 111.678 312.181 115.718 312.181 120.701C312.181 125.684 316.221 129.724 321.204 129.724L334.184 129.724C339.167 129.724 343.207 133.764 343.207 138.747C343.208 143.73 339.169 147.77 334.185 147.77ZM442.881 138.747C442.881 143.73 438.842 147.77 433.858 147.77L375.981 147.77C370.998 147.77 366.958 143.73 366.958 138.747C366.958 133.764 370.998 129.724 375.981 129.724L433.86 129.724C438.842 129.726 442.881 133.764 442.881 138.747Z" fill="#269DBD"/>
<path opacity="0.07" d="M292.672 129.726L286.963 129.726C281.98 129.726 277.94 133.766 277.94 138.749C277.94 143.732 281.98 147.772 286.963 147.772L292.672 147.772C297.655 147.772 301.695 143.732 301.695 138.749C301.695 133.764 297.655 129.726 292.672 129.726Z" fill="#269DBD"/>
<path d="M391.5 349.326C435.803 313.257 464.109 258.293 464.109 196.71C464.109 88.0708 376.038 0 267.399 0C158.76 0 70.6873 88.0708 70.6873 196.71C70.6873 258.293 98.9935 313.258 143.296 349.326C179.139 348.475 221.719 347.982 267.397 347.982C313.076 347.982 355.656 348.475 391.5 349.326Z" fill="#85BEF2"/>
<g opacity="0.2">
<path opacity="0.2" d="M431.558 170.734C431.558 164.74 426.682 159.863 420.687 159.863H371.892C372.989 153.477 373.568 146.917 373.568 140.225C373.568 122.028 369.336 104.804 361.816 89.4744C367.385 86.7444 372.355 83.3715 376.003 79.7234C384.119 71.6074 387.273 60.3877 385.482 49.8502C373.352 39.0344 359.875 29.6993 345.331 22.1277C338.719 23.4073 332.637 26.6198 327.768 31.4885C324.828 34.4288 322.066 38.2297 319.675 42.5085C301.805 31.1815 280.635 24.6143 257.958 24.6143C235.281 24.6143 214.111 31.183 196.241 42.5085C193.849 38.2297 191.087 34.4288 188.147 31.4885C181.754 25.0967 173.434 21.7859 165.039 21.5394C153.508 27.4487 142.641 34.4697 132.568 42.4496C127.409 54.8338 129.851 69.6638 139.911 79.7234C143.559 83.3715 148.529 86.7444 154.098 89.4744C146.576 104.804 142.344 122.029 142.344 140.225C142.344 154.657 145.011 168.475 149.863 181.224C146.098 179.826 142.031 179.059 137.787 179.059C118.606 179.059 103 194.665 103 213.847C103 232.01 116.995 246.958 134.768 248.495V261.522C120.143 279.746 109.797 301.214 105.173 324.575C112.869 333.56 121.348 341.855 130.526 349.326C166.369 348.475 208.948 347.982 254.627 347.982C300.306 347.982 342.886 348.475 378.729 349.326C391.939 338.571 403.712 326.125 413.752 312.335C412.244 307.167 410.461 302.108 408.401 297.179H420.685C421.878 297.179 423.025 296.978 424.1 296.621C426.764 292.113 429.252 287.493 431.557 282.765V170.734H431.558Z" fill="#6D4C41"/>
</g>
<g opacity="0.3">
<path opacity="0.3" d="M498.862 356.573C498.862 351.828 395.471 347.982 267.93 347.982C140.389 347.982 37 351.828 37 356.573C37 359.315 71.5498 361.758 125.342 363.331C136.948 366.405 181.953 368.698 235.7 368.698C280.711 368.698 319.586 367.091 337.856 364.761C431.211 363.662 498.862 360.411 498.862 356.573Z" fill="#6D4C41"/>
</g>
<path d="M477.56 352.292H58.4502C57.0966 352.292 56 351.196 56 349.842C56 348.488 57.0966 347.392 58.4502 347.392H477.558C478.912 347.392 480.009 348.488 480.009 349.842C480.009 351.196 478.912 352.292 477.56 352.292Z" fill="#6D4C41"/>
<path d="M261.858 200.171C175.78 200.171 106 266.274 106 347.819H417.717C417.715 266.274 347.935 200.171 261.858 200.171Z" fill="#606060"/>
<g opacity="0.5">
<path opacity="0.5" d="M264.883 205.464C304.157 205.464 340.026 219.525 367.169 242.604C339.693 217.959 302.612 202.818 261.858 202.818C178.309 202.818 110.167 266.433 108.671 345.172H111.781C114.735 267.66 182.273 205.464 264.883 205.464Z" fill="white"/>
</g>
<path d="M158.465 299.302C158.223 299.916 130.206 290.351 120.346 302.92C118.449 305.339 117.675 308.185 117.876 311.014C116.698 314.383 114.105 324.375 114.105 324.375H164.731L158.465 299.302Z" fill="white"/>
<path d="M363.128 299.302C363.37 299.916 391.387 290.351 401.247 302.92C403.144 305.339 403.918 308.185 403.717 311.014C404.896 314.383 407.488 324.375 407.488 324.375H356.862L363.128 299.302Z" fill="white"/>
<path d="M187.172 28.822C199.458 41.108 209.438 71.0069 197.152 83.2929C184.866 95.5789 154.967 85.5995 142.681 73.3135C130.395 61.0275 130.395 41.108 142.681 28.822C154.965 16.5361 174.886 16.5361 187.172 28.822Z" fill="#606060"/>
<g opacity="0.5">
<path opacity="0.5" d="M185.3 30.6945C179.858 25.2526 172.622 22.2548 164.927 22.2548C164.127 22.2548 163.334 22.2957 162.544 22.3592C155.747 22.9128 149.428 25.8183 144.552 30.6945C142.207 33.0374 140.361 35.6903 138.995 38.5186C134.492 47.8462 135.303 59.1142 141.433 67.743C136.761 58.3882 137.495 47.0083 143.625 38.2887C146.29 37.7594 149.325 36.6114 152.344 34.869C156.57 32.4293 159.814 29.3787 161.448 26.6078C163.319 26.2312 165.241 26.036 167.194 26.036C174.889 26.036 182.127 29.0338 187.567 34.4757C189.346 36.2544 191.072 38.4385 192.681 40.8887C190.482 36.8867 187.95 33.3429 185.3 30.6945Z" fill="white"/>
</g>
<path d="M330.535 28.8221C318.249 41.108 308.27 71.007 320.556 83.2929C332.842 95.5789 362.741 85.5995 375.027 73.3135C387.313 61.0276 387.313 41.108 375.027 28.8221C362.741 16.5361 342.821 16.5361 330.535 28.8221Z" fill="#606060"/>
<g opacity="0.5">
<path opacity="0.5" d="M320.418 60.4483C322.766 50.5233 328.065 40.3276 333.919 34.4758C339.536 28.8584 346.914 26.0497 354.294 26.0497C361.673 26.0497 369.051 28.8584 374.668 34.4758C376.976 36.7838 378.838 39.4171 380.225 42.2681C378.846 37.95 376.453 33.9918 373.156 30.6946C367.538 25.0772 360.16 22.2685 352.781 22.2685C345.402 22.2685 338.024 25.0772 332.406 30.6946C326.553 36.5479 321.253 46.7421 318.906 56.667C316.82 65.4849 317.26 73.0655 320.048 78.1943C318.703 73.4058 318.798 67.2999 320.418 60.4483Z" fill="white"/>
</g>
<path d="M258.854 248.651C321.242 248.651 371.817 198.075 371.817 135.687C371.817 73.2991 321.242 22.7237 258.854 22.7237C196.466 22.7237 145.89 73.2991 145.89 135.687C145.89 198.075 196.466 248.651 258.854 248.651Z" fill="white"/>
<g opacity="0.2">
<g opacity="0.2">
<path opacity="0.2" d="M344.591 62.1407C352.798 77.7965 357.447 95.6106 357.447 114.512C357.447 176.901 306.871 227.476 244.484 227.476C210.186 227.476 179.463 212.187 158.745 188.059C177.626 224.076 215.367 248.651 258.852 248.651C321.241 248.651 371.816 198.074 371.816 135.687C371.817 107.596 361.56 81.9029 344.591 62.1407Z" fill="#6D4C41"/>
</g>
</g>
<path d="M338.599 155.287C350.368 143.519 346.207 120.277 329.306 103.376C312.405 86.4747 289.163 82.3142 277.394 94.083C265.626 105.852 269.786 129.094 286.687 145.995C303.588 162.896 326.83 167.056 338.599 155.287Z" fill="#6D4C41"/>
<g opacity="0.5">
<path opacity="0.5" d="M279.002 98.7097C282.969 94.7425 288.52 92.6764 294.998 92.6764C296.931 92.6764 298.948 92.8609 301.03 93.233C310.383 94.9073 319.856 100.153 327.705 108.001C335.555 115.849 340.801 125.324 342.475 134.677C342.75 136.212 342.914 137.709 342.985 139.166C343.104 136.785 342.944 134.273 342.475 131.652C340.801 122.299 335.555 112.824 327.705 104.976C319.856 97.1262 310.381 91.8824 301.03 90.208C298.948 89.836 296.932 89.6514 294.998 89.6514C288.52 89.6514 282.969 91.716 279.002 95.6848C274.723 99.9636 272.666 106.086 273.015 113.222C273.31 107.384 275.342 102.371 279.002 98.7097Z" fill="#6D4C41"/>
</g>
<path d="M231.014 145.993C247.915 129.092 252.076 105.851 240.307 94.0818C228.538 82.3129 205.296 86.4734 188.395 103.375C171.494 120.276 167.334 143.517 179.103 155.286C190.872 167.055 214.113 162.895 231.014 145.993Z" fill="#6D4C41"/>
<g opacity="0.5">
<path opacity="0.5" d="M191.513 107.248C199.363 99.3979 208.837 94.1541 218.189 92.4798C220.27 92.1062 222.286 91.9232 224.221 91.9232C230.697 91.9232 236.25 93.9893 240.217 97.9565C240.795 98.5343 241.319 99.1484 241.813 99.7851C240.962 98.2969 239.936 96.919 238.704 95.6878C234.737 91.7205 229.185 89.6545 222.708 89.6545C220.774 89.6545 218.759 89.839 216.676 90.2111C207.323 91.8854 197.849 97.1307 190.001 104.979C174.861 120.119 170.328 140.506 179.112 151.854C172.462 140.203 177.335 121.426 191.513 107.248Z" fill="#6D4C41"/>
</g>
<path d="M286.826 200.549C286.172 199.723 285.236 199.203 284.191 199.082C283.147 198.961 282.117 199.254 281.292 199.907C275.898 204.182 268.587 204.567 262.832 200.962V188.571C262.832 186.399 261.065 184.633 258.893 184.633C256.721 184.633 254.955 186.399 254.955 188.571V200.898C249.228 204.524 241.832 204.2 236.415 199.906C235.587 199.253 234.557 198.959 233.509 199.083C232.464 199.206 231.531 199.727 230.883 200.547C230.23 201.372 229.937 202.402 230.056 203.447C230.177 204.492 230.697 205.428 231.523 206.081C235.757 209.436 241.037 211.284 246.391 211.284C250.777 211.284 255.103 210.028 258.854 207.736C262.605 210.028 266.929 211.284 271.315 211.284C276.672 211.284 281.953 209.436 286.185 206.081C287.886 204.732 288.173 202.25 286.826 200.549Z" fill="#6D4C41"/>
<path d="M286.141 171.92C286.141 177.412 273.924 193.599 258.854 193.599C243.783 193.599 231.567 177.411 231.567 171.92C231.567 166.43 243.783 161.977 258.854 161.977C273.924 161.977 286.141 166.43 286.141 171.92Z" fill="#6D4C41"/>
<g opacity="0.4">
<path opacity="0.4" d="M250.814 175.477C256.158 174.807 260.263 172.455 259.984 170.224C259.704 167.993 255.145 166.727 249.801 167.397C244.457 168.067 240.351 170.419 240.631 172.65C240.911 174.882 245.47 176.147 250.814 175.477Z" fill="white"/>
</g>
<path d="M226.487 133.801H207.58C205.074 133.801 203.043 131.77 203.043 129.264C203.043 126.757 205.074 124.726 207.58 124.726H226.487C228.993 124.726 231.024 126.757 231.024 129.264C231.024 131.77 228.993 133.801 226.487 133.801Z" fill="white"/>
<path d="M310.126 133.801H291.22C288.714 133.801 286.682 131.77 286.682 129.264C286.682 126.757 288.714 124.726 291.22 124.726H310.126C312.632 124.726 314.663 126.757 314.663 129.264C314.663 131.77 312.632 133.801 310.126 133.801Z" fill="white"/>
<path d="M399.1 347.819H124.614C114.636 347.819 106.546 339.73 106.546 329.75C106.546 325.9 109.668 322.778 113.518 322.778H410.194C414.044 322.778 417.166 325.9 417.166 329.75C417.168 339.728 409.079 347.819 399.1 347.819Z" fill="#E8EDF3"/>
<g opacity="0.3">
<g opacity="0.3">
<path opacity="0.3" d="M399.1 347.819H124.614C114.636 347.819 106.546 339.73 106.546 329.75C106.546 325.9 109.668 322.778 113.518 322.778H410.194C414.044 322.778 417.166 325.9 417.166 329.75C417.168 339.728 409.079 347.819 399.1 347.819Z" fill="#6D4C41"/>
</g>
</g>
<g opacity="0.8">
<path opacity="0.8" d="M113.73 332.775C113.73 330.39 115.671 328.45 118.056 328.45H414.32C413.766 326.698 412.127 325.425 410.194 325.425H113.52C111.135 325.425 109.194 327.365 109.194 329.75C109.194 336.083 113.033 341.531 118.504 343.903C115.569 341.094 113.73 337.148 113.73 332.775Z" fill="white"/>
</g>
<path d="M385.402 347.819H138.311V206.73C138.311 196.935 146.252 188.995 156.047 188.995H367.665C377.46 188.995 385.401 196.935 385.401 206.73V347.819H385.402Z" fill="#11CEA2"/>
<g opacity="0.8">
<g opacity="0.8">
<path opacity="0.8" d="M270.718 254.362C273.422 254.362 275.966 255.03 278.211 256.196C272.987 258.91 269.411 264.361 269.411 270.654C269.411 276.948 272.987 282.399 278.211 285.112C275.966 286.278 273.422 286.947 270.718 286.947C261.72 286.947 254.425 279.652 254.425 270.654C254.425 261.656 261.72 254.362 270.718 254.362Z" fill="white"/>
</g>
</g>
<g opacity="0.8">
<path opacity="0.8" d="M147.008 211.266C147.008 202.946 153.776 196.176 162.097 196.176H373.715C375.741 196.176 377.669 196.583 379.436 197.309C376.668 193.858 372.424 191.639 367.665 191.639H156.048C147.728 191.639 140.96 198.409 140.96 206.729V345.17H147.01V211.266H147.008Z" fill="white"/>
</g>
<g opacity="0.2">
<path opacity="0.2" d="M367.667 188.993H346.811H329.635V240.767C329.635 283.315 300.892 320.559 259.681 331.145C230.749 338.577 191.562 342.012 138.31 341.058V347.817H385.401V299.448V206.729C385.402 196.934 377.462 188.993 367.667 188.993Z" fill="#6D4C41"/>
</g>
<path d="M266.18 252.849C268.885 252.849 271.429 253.518 273.673 254.684C268.449 257.397 264.874 262.848 264.874 269.142C264.874 275.435 268.449 280.886 273.673 283.6C271.429 284.766 268.885 285.434 266.18 285.434C257.183 285.434 249.888 278.14 249.888 269.142C249.888 260.144 257.183 252.849 266.18 252.849Z" fill="white"/>
<path d="M349.224 290.373C344.481 290.373 340.621 286.513 340.621 281.77V166.196C340.621 161.452 344.481 157.593 349.224 157.593H421.581C426.324 157.593 430.184 161.452 430.184 166.196V281.77C430.184 286.513 426.324 290.373 421.581 290.373H349.224Z" fill="#F2EFEE"/>
<g opacity="0.2">
<g opacity="0.2">
<path opacity="0.2" d="M421.581 159.863H414.335C414.472 172.2 418.184 283.598 342.889 279.874V281.771C342.889 285.269 345.725 288.105 349.224 288.105H421.581C425.08 288.105 427.916 285.269 427.916 281.771V166.197C427.916 162.699 425.08 159.863 421.581 159.863Z" fill="#6D4C41"/>
</g>
</g>
<path d="M138.685 241.45C156.436 241.45 170.825 227.06 170.825 209.309C170.825 191.558 156.436 177.169 138.685 177.169C120.934 177.169 106.544 191.558 106.544 209.309C106.544 227.06 120.934 241.45 138.685 241.45Z" fill="#FF5722"/>
<g opacity="0.5">
<path opacity="0.5" d="M112.973 212.334C112.973 196.072 126.204 182.841 142.466 182.841C148.536 182.841 154.182 184.686 158.877 187.841C153.595 182.871 146.492 179.816 138.685 179.816C122.423 179.816 109.191 193.047 109.191 209.309C109.191 219.502 114.39 228.503 122.274 233.802C116.554 228.419 112.973 220.789 112.973 212.334Z" fill="white"/>
</g>
<path d="M150.668 215.259L144.718 209.308L150.67 203.356C152.332 201.691 152.332 198.983 150.668 197.321C149.005 195.657 146.299 195.657 144.635 197.321L138.683 203.273L132.732 197.32C131.068 195.657 128.362 195.657 126.698 197.32C125.036 198.982 125.035 201.689 126.698 203.356L132.65 209.306L126.701 215.256C125.894 216.062 125.449 217.133 125.449 218.274C125.449 219.414 125.894 220.486 126.697 221.288C127.5 222.096 128.572 222.539 129.714 222.539C130.855 222.539 131.927 222.096 132.733 221.29L138.683 215.338L144.635 221.29C145.44 222.096 146.512 222.539 147.652 222.539C148.794 222.539 149.867 222.094 150.668 221.29C151.475 220.483 151.918 219.413 151.918 218.272C151.919 217.136 151.475 216.065 150.668 215.259Z" fill="white"/>
<g opacity="0.2">
<path opacity="0.2" d="M132.162 297.906C132.162 297.906 132.145 320.993 117.943 320.037L117.13 322.372H137.794V296.554C137.794 296.554 131.824 297.528 132.162 297.906Z" fill="#6D4C41"/>
</g>
<g opacity="0.2">
<path opacity="0.2" d="M391.23 297.64C391.23 297.64 391.247 320.727 405.449 319.771L406.261 322.106H385.598V296.289C385.599 296.288 391.569 297.262 391.23 297.64Z" fill="#6D4C41"/>
</g>
<g opacity="0.2">
<g opacity="0.2">
<path opacity="0.2" d="M410.69 186.229H359.025C358.014 186.229 357.196 185.41 357.196 184.4V184.004C357.196 182.993 358.014 182.175 359.025 182.175H410.69C411.7 182.175 412.518 182.993 412.518 184.004V184.4C412.518 185.409 411.7 186.229 410.69 186.229Z" fill="#6D4C41"/>
</g>
</g>
<g opacity="0.2">
<g opacity="0.2">
<path opacity="0.2" d="M410.69 195.161H359.025C358.014 195.161 357.196 194.343 357.196 193.333V192.936C357.196 191.926 358.014 191.108 359.025 191.108H410.69C411.7 191.108 412.518 191.926 412.518 192.936V193.333C412.518 194.343 411.7 195.161 410.69 195.161Z" fill="#6D4C41"/>
</g>
</g>
<path d="M360.035 227.008C357.636 227.008 355.683 225.056 355.683 222.657V209.108C355.683 206.709 357.636 204.757 360.035 204.757H409.681C412.08 204.757 414.032 206.709 414.032 209.108V222.657C414.032 225.056 412.08 227.008 409.681 227.008H360.035Z" fill="white"/>
<path d="M409.679 206.268C411.248 206.268 412.518 207.538 412.518 209.106V222.657C412.518 224.225 411.248 225.496 409.679 225.496H360.033C358.465 225.496 357.194 224.225 357.194 222.657V209.106C357.194 207.538 358.465 206.268 360.033 206.268H409.679ZM409.679 203.243H360.033C356.8 203.243 354.169 205.873 354.169 209.106V222.657C354.169 225.891 356.8 228.521 360.033 228.521H409.679C412.913 228.521 415.543 225.891 415.543 222.657V209.106C415.543 205.873 412.913 203.243 409.679 203.243Z" fill="#6D4C41"/>
<path d="M370.745 216.78C371.227 214.741 369.965 212.699 367.927 212.218C365.889 211.737 363.846 212.999 363.365 215.037C362.884 217.075 364.146 219.117 366.184 219.598C368.222 220.08 370.264 218.818 370.745 216.78Z" fill="#FF5722"/>
<path d="M381.599 218.564C383.08 217.084 383.08 214.683 381.599 213.202C380.118 211.721 377.717 211.721 376.237 213.202C374.756 214.683 374.756 217.083 376.237 218.564C377.718 220.045 380.118 220.045 381.599 218.564Z" fill="#FF5722"/>
<path d="M392.255 219.384C394.19 218.583 395.109 216.365 394.307 214.43C393.506 212.495 391.288 211.576 389.353 212.378C387.418 213.179 386.499 215.397 387.301 217.332C388.102 219.267 390.32 220.186 392.255 219.384Z" fill="#FF5722"/>
<path d="M406.363 216.783C406.844 214.745 405.582 212.702 403.544 212.221C401.506 211.74 399.464 213.002 398.982 215.04C398.501 217.078 399.763 219.12 401.801 219.601C403.839 220.083 405.881 218.821 406.363 216.783Z" fill="#FF5722"/>
<path d="M405.691 273.409H364.023C360.253 273.409 357.196 270.352 357.196 266.581C357.196 262.811 360.253 259.754 364.023 259.754H405.691C409.462 259.754 412.518 262.811 412.518 266.581C412.518 270.352 409.462 273.409 405.691 273.409Z" fill="#FF5722"/>
<path d="M405.691 275.299H364.023C359.217 275.299 355.305 271.388 355.305 266.581C355.305 261.774 359.217 257.863 364.023 257.863H405.691C410.498 257.863 414.409 261.774 414.409 266.581C414.409 271.388 410.498 275.299 405.691 275.299ZM364.023 261.643C361.301 261.643 359.087 263.857 359.087 266.58C359.087 269.302 361.301 271.516 364.023 271.516H405.691C408.414 271.516 410.628 269.302 410.628 266.58C410.628 263.857 408.414 261.643 405.691 261.643H364.023Z" fill="#6D4C41"/>
<g opacity="0.5">
<g opacity="0.5">
<path opacity="0.5" d="M410.69 176.471H359.025C358.014 176.471 357.196 175.653 357.196 174.643V173.087C357.196 172.076 358.014 171.258 359.025 171.258H410.69C411.7 171.258 412.518 172.076 412.518 173.087V174.643C412.518 175.653 411.7 176.471 410.69 176.471Z" fill="#6D4C41"/>
</g>
</g>
<g opacity="0.2">
<g opacity="0.2">
<path opacity="0.2" d="M410.69 250.335H359.025C358.014 250.335 357.196 249.517 357.196 248.507C357.196 247.496 358.014 246.678 359.025 246.678H410.69C411.7 246.678 412.518 247.496 412.518 248.507C412.518 249.517 411.7 250.335 410.69 250.335Z" fill="#6D4C41"/>
</g>
</g>
<g opacity="0.2">
<g opacity="0.2">
<path opacity="0.2" d="M410.69 241.533H359.025C358.014 241.533 357.196 240.714 357.196 239.704V238.656C357.196 237.646 358.014 236.827 359.025 236.827H410.69C411.7 236.827 412.518 237.646 412.518 238.656V239.704C412.518 240.714 411.7 241.533 410.69 241.533Z" fill="#6D4C41"/>
</g>
</g>
<path d="M413.5 150.883C412.119 150.883 411 149.764 411 148.382V138.5C411 137.119 412.119 136 413.5 136C414.881 136 416.001 137.119 416.001 138.5V148.382C416.001 149.764 414.881 150.883 413.5 150.883Z" fill="white"/>
<path d="M424.442 157.37C423.802 157.37 423.162 157.126 422.674 156.638C421.698 155.662 421.698 154.079 422.674 153.102L429.662 146.114C430.639 145.138 432.221 145.138 433.198 146.114C434.174 147.09 434.174 148.673 433.198 149.651L426.211 156.638C425.722 157.126 425.082 157.37 424.442 157.37Z" fill="white"/>
<path d="M439.258 169.439H429.376C427.995 169.439 426.876 168.32 426.876 166.938C426.876 165.557 427.995 164.438 429.376 164.438H439.258C440.639 164.438 441.758 165.557 441.758 166.938C441.758 168.32 440.639 169.439 439.258 169.439Z" fill="white"/>
<rect x="441.688" y="28.2322" width="4.27233" height="13.9333" rx="2.13617" transform="rotate(104.072 441.688 28.2322)" fill="#269DBD"/>
<rect x="434.745" y="35.7072" width="4.27233" height="13.9333" rx="2.13617" transform="rotate(-165.928 434.745 35.7072)" fill="#269DBD"/>
<rect x="462.688" y="60.2322" width="4.27233" height="13.9333" rx="2.13617" transform="rotate(104.072 462.688 60.2322)" fill="#269DBD"/>
<rect x="455.745" y="67.7072" width="4.27233" height="13.9333" rx="2.13617" transform="rotate(-165.928 455.745 67.7072)" fill="#269DBD"/>
<rect x="78.5294" y="54.9766" width="4.27233" height="13.9333" rx="2.13617" transform="rotate(117.967 78.5294 54.9766)" fill="#269DBD"/>
<rect x="69.9941" y="60.5655" width="4.27233" height="13.9333" rx="2.13617" transform="rotate(-152.033 69.9941 60.5655)" fill="#269DBD"/>
<rect x="54.6885" y="85.2322" width="4.27233" height="13.9333" rx="2.13617" transform="rotate(104.072 54.6885 85.2322)" fill="#269DBD"/>
<rect x="47.7451" y="92.7072" width="4.27233" height="13.9333" rx="2.13617" transform="rotate(-165.928 47.7451 92.7072)" fill="#269DBD"/>
<rect x="50.4358" y="281.543" width="4.27233" height="13.9333" rx="2.13617" transform="rotate(90.5236 50.4358 281.543)" fill="#269DBD"/>
<rect x="45.4368" y="290.436" width="4.27233" height="13.9333" rx="2.13617" transform="rotate(-179.476 45.4368 290.436)" fill="#269DBD"/>
<rect x="64.7777" y="318.356" width="4.27233" height="13.9333" rx="2.13617" transform="rotate(148.446 64.7777 318.356)" fill="#269DBD"/>
<rect x="54.587" y="318.843" width="4.27233" height="13.9333" rx="2.13617" transform="rotate(-121.554 54.587 318.843)" fill="#269DBD"/>
<rect x="455.909" y="321.487" width="4.27233" height="13.9333" rx="2.13617" transform="rotate(148.446 455.909 321.487)" fill="#269DBD"/>
<rect x="445.718" y="321.974" width="4.27233" height="13.9333" rx="2.13617" transform="rotate(-121.554 445.718 321.974)" fill="#269DBD"/>
<path opacity="0.2" d="M152.749 181C157.659 186.572 160.649 193.877 160.649 201.871C160.649 219.299 146.469 233.479 129.04 233.479C123.999 233.479 119.233 232.287 115 230.179C120.797 236.756 129.274 240.917 138.709 240.917C156.138 240.917 170.318 226.737 170.318 209.308C170.318 196.92 163.151 186.181 152.749 181Z" fill="#D93100"/>
</svg>
