<svg width="31" height="30" viewBox="0 0 31 30" fill="none" xmlns="http://www.w3.org/2000/svg">
<path d="M18.7799 10.9311H13.0806C12.6722 10.9311 12.3408 10.5997 12.3408 10.1913V0.73979C12.3408 0.331426 12.6722 0 13.0806 0H18.7799C19.1883 0 19.5197 0.331426 19.5197 0.73979V10.1913C19.5197 10.5997 19.1883 10.9311 18.7799 10.9311ZM13.8204 9.45158H18.0401V1.47958H13.8204V9.45158Z" fill="#003D59"/>
<path d="M30.1898 30H1.66948C1.26111 30 0.929688 29.6686 0.929688 29.2602V0.73979C0.929688 0.331426 1.26111 0 1.66948 0H30.1898C30.5982 0 30.9296 0.331426 30.9296 0.73979V29.2602C30.9296 29.6686 30.5982 30 30.1898 30ZM2.40927 28.5204H29.4501V1.47958H2.40927V28.5204Z" fill="#003D59"/>
<path d="M26.0465 25.8572H18.7789C18.3705 25.8572 18.0391 25.5257 18.0391 25.1174V17.8497C18.0391 17.4413 18.3705 17.1099 18.7789 17.1099H26.0465C26.4549 17.1099 26.7863 17.4413 26.7863 17.8497V25.1174C26.7863 25.5257 26.4549 25.8572 26.0465 25.8572ZM19.5186 24.3776H25.3068V18.5894H19.5186V24.3776Z" fill="#003D59"/>
<path d="M12.8904 20.7437H5.81206C5.40369 20.7437 5.07227 20.4123 5.07227 20.004C5.07227 19.5956 5.40369 19.2642 5.81206 19.2642H12.8904C13.2987 19.2642 13.6302 19.5956 13.6302 20.004C13.6302 20.4123 13.2987 20.7437 12.8904 20.7437Z" fill="#003D59"/>
<path d="M9.3512 23.7029H5.81206C5.40369 23.7029 5.07227 23.3715 5.07227 22.9631C5.07227 22.5548 5.40369 22.2233 5.81206 22.2233H9.3512C9.75956 22.2233 10.091 22.5548 10.091 22.9631C10.091 23.3715 9.75956 23.7029 9.3512 23.7029Z" fill="#003D59"/>
</svg>
