<svg width="1410" height="166" viewBox="0 0 1410 166" fill="none" xmlns="http://www.w3.org/2000/svg">
<rect x="1334.54" y="67.0867" width="3.63315" height="11.8487" rx="1.81657" transform="rotate(-68.7901 1334.54 67.0867)" fill="#269DBD"/>
<rect x="1341.19" y="61.513" width="3.63315" height="11.8487" rx="1.81657" transform="rotate(21.2099 1341.19 61.513)" fill="#269DBD"/>
<rect x="1014.47" y="56.5789" width="3.63315" height="11.8487" rx="1.81657" transform="rotate(35.7757 1014.47 56.5789)" fill="#269DBD"/>
<rect x="1018.19" y="64.4156" width="3.63315" height="11.8487" rx="1.81657" transform="rotate(125.776 1018.19 64.4156)" fill="#269DBD"/>
<rect x="1088.37" y="66.483" width="3.63315" height="11.8487" rx="1.81657" transform="rotate(35.7757 1088.37 66.483)" fill="#269DBD"/>
<rect x="1092.1" y="74.3198" width="3.63315" height="11.8487" rx="1.81657" transform="rotate(125.776 1092.1 74.3198)" fill="#269DBD"/>
<rect x="1219.37" y="86.483" width="3.63315" height="11.8487" rx="1.81657" transform="rotate(35.7757 1219.37 86.483)" fill="#269DBD"/>
<rect x="1223.1" y="94.3198" width="3.63315" height="11.8487" rx="1.81657" transform="rotate(125.776 1223.1 94.3198)" fill="#269DBD"/>
<rect x="802.373" y="117.483" width="3.63315" height="11.8487" rx="1.81657" transform="rotate(35.7757 802.373 117.483)" fill="#269DBD"/>
<rect x="806.095" y="125.32" width="3.63315" height="11.8487" rx="1.81657" transform="rotate(125.776 806.095 125.32)" fill="#269DBD"/>
<rect x="1387.34" y="158.001" width="3.63315" height="11.8487" rx="1.81657" transform="rotate(104.072 1387.34 158.001)" fill="#269DBD"/>
<rect x="1381.44" y="164.357" width="3.63315" height="11.8487" rx="1.81657" transform="rotate(-165.928 1381.44 164.357)" fill="#269DBD"/>
<rect x="1404.34" y="10.9811" width="3.63315" height="11.8487" rx="1.81657" transform="rotate(44.5785 1404.34 10.9811)" fill="#269DBD"/>
<rect x="1406.82" y="19.2952" width="3.63315" height="11.8487" rx="1.81657" transform="rotate(134.578 1406.82 19.2952)" fill="#269DBD"/>
<rect x="873.375" y="142.483" width="3.63315" height="11.8487" rx="1.81657" transform="rotate(35.7757 873.375 142.483)" fill="#269DBD"/>
<rect x="877.098" y="150.32" width="3.63315" height="11.8487" rx="1.81657" transform="rotate(125.776 877.098 150.32)" fill="#269DBD"/>
<rect x="938.985" y="99.463" width="3.63315" height="11.8487" rx="1.81657" transform="rotate(91.0468 938.985 99.463)" fill="#269DBD"/>
<rect x="934.666" y="106.987" width="3.63315" height="11.8487" rx="1.81657" transform="rotate(-178.953 934.666 106.987)" fill="#269DBD"/>
<rect x="857.085" y="37.0659" width="3.63315" height="11.8487" rx="1.81657" transform="rotate(14.5346 857.085 37.0659)" fill="#269DBD"/>
<rect x="863.394" y="43.0217" width="3.63315" height="11.8487" rx="1.81657" transform="rotate(104.535 863.394 43.0217)" fill="#269DBD"/>
<rect x="780.085" y="1.06592" width="3.63315" height="11.8487" rx="1.81657" transform="rotate(14.5346 780.085 1.06592)" fill="#269DBD"/>
<rect x="786.394" y="7.02167" width="3.63315" height="11.8487" rx="1.81657" transform="rotate(104.535 786.394 7.02167)" fill="#269DBD"/>
<rect x="727.2" y="121.228" width="3.63315" height="11.8487" rx="1.81657" transform="rotate(84.5251 727.2 121.228)" fill="#269DBD"/>
<rect x="723.762" y="129.194" width="3.63315" height="11.8487" rx="1.81657" transform="rotate(174.525 723.762 129.194)" fill="#269DBD"/>
<rect x="780.2" y="70.2278" width="3.63315" height="11.8487" rx="1.81657" transform="rotate(84.5251 780.2 70.2278)" fill="#269DBD"/>
<rect x="776.762" y="78.1937" width="3.63315" height="11.8487" rx="1.81657" transform="rotate(174.525 776.762 78.1937)" fill="#269DBD"/>
<rect x="619.537" y="67.0867" width="3.63315" height="11.8487" rx="1.81657" transform="rotate(-68.7901 619.537 67.0867)" fill="#269DBD"/>
<rect x="626.185" y="61.513" width="3.63315" height="11.8487" rx="1.81657" transform="rotate(21.2099 626.185 61.513)" fill="#269DBD"/>
<rect x="299.469" y="56.5789" width="3.63315" height="11.8487" rx="1.81657" transform="rotate(35.7757 299.469 56.5789)" fill="#269DBD"/>
<rect x="303.191" y="64.4156" width="3.63315" height="11.8487" rx="1.81657" transform="rotate(125.776 303.191 64.4156)" fill="#269DBD"/>
<rect x="373.373" y="66.483" width="3.63315" height="11.8487" rx="1.81657" transform="rotate(35.7757 373.373 66.483)" fill="#269DBD"/>
<rect x="377.095" y="74.3198" width="3.63315" height="11.8487" rx="1.81657" transform="rotate(125.776 377.095 74.3198)" fill="#269DBD"/>
<rect x="504.373" y="86.483" width="3.63315" height="11.8487" rx="1.81657" transform="rotate(35.7757 504.373 86.483)" fill="#269DBD"/>
<rect x="508.095" y="94.3198" width="3.63315" height="11.8487" rx="1.81657" transform="rotate(125.776 508.095 94.3198)" fill="#269DBD"/>
<rect x="87.3727" y="117.483" width="3.63315" height="11.8487" rx="1.81657" transform="rotate(35.7757 87.3727 117.483)" fill="#269DBD"/>
<rect x="91.0952" y="125.32" width="3.63315" height="11.8487" rx="1.81657" transform="rotate(125.776 91.0952 125.32)" fill="#269DBD"/>
<rect x="672.341" y="158.001" width="3.63315" height="11.8487" rx="1.81657" transform="rotate(104.072 672.341 158.001)" fill="#269DBD"/>
<rect x="666.437" y="164.357" width="3.63315" height="11.8487" rx="1.81657" transform="rotate(-165.928 666.437 164.357)" fill="#269DBD"/>
<rect x="689.342" y="10.9811" width="3.63315" height="11.8487" rx="1.81657" transform="rotate(44.5785 689.342 10.9811)" fill="#269DBD"/>
<rect x="691.821" y="19.2952" width="3.63315" height="11.8487" rx="1.81657" transform="rotate(134.578 691.821 19.2952)" fill="#269DBD"/>
<rect x="158.375" y="142.483" width="3.63315" height="11.8487" rx="1.81657" transform="rotate(35.7757 158.375 142.483)" fill="#269DBD"/>
<rect x="162.097" y="150.32" width="3.63315" height="11.8487" rx="1.81657" transform="rotate(125.776 162.097 150.32)" fill="#269DBD"/>
<rect x="223.985" y="99.463" width="3.63315" height="11.8487" rx="1.81657" transform="rotate(91.0468 223.985 99.463)" fill="#269DBD"/>
<rect x="219.666" y="106.987" width="3.63315" height="11.8487" rx="1.81657" transform="rotate(-178.953 219.666 106.987)" fill="#269DBD"/>
<rect x="142.085" y="37.0659" width="3.63315" height="11.8487" rx="1.81657" transform="rotate(14.5346 142.085 37.0659)" fill="#269DBD"/>
<rect x="148.394" y="43.0217" width="3.63315" height="11.8487" rx="1.81657" transform="rotate(104.535 148.394 43.0217)" fill="#269DBD"/>
<rect x="65.0849" y="1.06592" width="3.63315" height="11.8487" rx="1.81657" transform="rotate(14.5346 65.0849 1.06592)" fill="#269DBD"/>
<rect x="71.3937" y="7.02167" width="3.63315" height="11.8487" rx="1.81657" transform="rotate(104.535 71.3937 7.02167)" fill="#269DBD"/>
<rect x="12.1999" y="121.228" width="3.63315" height="11.8487" rx="1.81657" transform="rotate(84.5251 12.1999 121.228)" fill="#269DBD"/>
<rect x="8.76233" y="129.194" width="3.63315" height="11.8487" rx="1.81657" transform="rotate(174.525 8.76233 129.194)" fill="#269DBD"/>
<rect x="65.1999" y="70.2278" width="3.63315" height="11.8487" rx="1.81657" transform="rotate(84.5251 65.1999 70.2278)" fill="#269DBD"/>
<rect x="61.7623" y="78.1937" width="3.63315" height="11.8487" rx="1.81657" transform="rotate(174.525 61.7623 78.1937)" fill="#269DBD"/>
</svg>
