<svg width="116" height="116" viewBox="0 0 116 116" fill="none" xmlns="http://www.w3.org/2000/svg">
<rect width="115.318" height="115.318" rx="8.86667" fill="#E5F5F9"/>
<rect x="2.21667" y="2.21667" width="110.885" height="110.885" rx="6.65" stroke="black" stroke-width="4.43333"/>
<rect x="13.7484" y="13.7486" width="87.821" height="87.821" rx="6.65" stroke="black" stroke-width="4.43333"/>
<path d="M23.3837 67.6593H15.3755V96.1368C15.3755 98.5852 17.3604 100.57 19.8088 100.57H95.5086C97.9571 100.57 99.942 98.5852 99.942 96.1368V75.6994H92.2541L73.0344 56.4032L60.2213 69.2674L41.0017 49.9711L23.3837 67.6593Z" fill="#91FF31"/>
<path d="M15.3755 66.9483H23.3837L41.0017 49.3303L60.2213 68.5499L73.0344 55.7368L92.2541 74.9565H101.864" stroke="black" stroke-width="3.69444" stroke-linejoin="round"/>
<path d="M80.7223 55.7369C80.7223 69.5381 69.538 80.7224 55.7368 80.7224C53.9921 80.7224 52.2475 80.5355 50.5964 80.1928C39.2563 77.8251 30.7512 67.7624 30.7512 55.7369C30.7512 43.7114 39.2563 33.6487 50.5964 31.281C52.2475 30.9383 53.9921 30.7513 55.7368 30.7513C69.538 30.7513 80.7223 41.9356 80.7223 55.7369Z" fill="#91FF31"/>
<path d="M80.7224 55.7369C80.7224 69.5381 69.5381 80.7224 55.7369 80.7224C53.9922 80.7224 52.2476 80.5355 50.5964 80.1928C61.9365 77.8251 70.4416 67.7624 70.4416 55.7369C70.4416 43.7114 61.9365 33.6487 50.5964 31.281C52.2476 30.9383 53.9922 30.7513 55.7369 30.7513C69.5381 30.7513 80.7224 41.9356 80.7224 55.7369Z" fill="#00EA80"/>
<path d="M55.7367 70.2546C57.014 70.2546 58.0733 69.1953 58.0733 67.918V49.1944L64.7091 55.8302C65.6126 56.7337 67.108 56.7337 68.0114 55.8302C68.9149 54.9268 68.9149 53.4314 68.0114 52.5279L57.3879 41.9044C56.9517 41.4682 56.3598 41.219 55.7367 41.219C55.1136 41.219 54.5217 41.4682 54.0856 41.9044L43.462 52.5279C42.5586 53.4314 42.5586 54.9268 43.462 55.8302C43.9293 56.2976 44.5213 56.5156 45.1132 56.5156C45.7051 56.5156 46.297 56.2976 46.7644 55.8302L53.4002 49.1944V67.918C53.4002 69.1953 54.4594 70.2546 55.7367 70.2546Z" fill="black"/>
<circle cx="55.7368" cy="55.7369" r="22.7689" stroke="black" stroke-width="4.43333"/>
<circle cx="74.9567" cy="40.3612" r="6.65296" fill="#FFEB31"/>
<path fill-rule="evenodd" clip-rule="evenodd" d="M71.9998 46.3226C74.1904 45.234 75.6959 42.9734 75.6959 40.3612C75.6959 37.7489 74.1904 35.4884 71.9998 34.3997C72.8905 33.9571 73.8944 33.7082 74.9565 33.7082C78.6308 33.7082 81.6095 36.6869 81.6095 40.3612C81.6095 44.0355 78.6308 47.0141 74.9565 47.0141C73.8944 47.0141 72.8905 46.7653 71.9998 46.3226Z" fill="#FFCE00"/>
<circle cx="74.9567" cy="40.3612" r="7.9047" stroke="black" stroke-width="3.41026"/>
</svg>
