<svg width="30" height="31" viewBox="0 0 30 31" fill="none" xmlns="http://www.w3.org/2000/svg">
<path d="M28.9531 30.02H0.833518C0.373416 30.02 0 29.6466 0 29.1865C0 23.4185 4.09424 18.324 9.72882 17.0704C10.1756 16.9771 10.6224 17.2571 10.7224 17.7039C10.8224 18.1507 10.5357 18.5974 10.0889 18.6974C5.48122 19.7177 2.06713 23.7053 1.69371 28.353H28.0796C27.7128 23.7119 24.2987 19.7243 19.691 18.6974C19.2443 18.5974 18.9576 18.1507 19.0576 17.7039C19.1576 17.2571 19.5977 16.9771 20.0511 17.0704C25.6857 18.324 29.7799 23.4185 29.7799 29.1865C29.7866 29.6466 29.4132 30.02 28.9531 30.02Z" fill="#003D59"/>
<path d="M14.8897 20.1778C9.32846 20.1778 4.80078 15.6501 4.80078 10.0889C4.80078 4.52767 9.32846 0 14.8897 0C20.4509 0 24.9786 4.52767 24.9786 10.0889C24.9786 15.6501 20.4576 20.1778 14.8897 20.1778ZM14.8897 1.66704C10.2487 1.66704 6.46782 5.44788 6.46782 10.0889C6.46782 14.7299 10.2487 18.5108 14.8897 18.5108C19.5307 18.5108 23.3115 14.7299 23.3115 10.0889C23.3115 5.44788 19.5374 1.66704 14.8897 1.66704Z" fill="#003D59"/>
</svg>
