<svg width="206" height="273" viewBox="0 0 206 273" fill="none" xmlns="http://www.w3.org/2000/svg">
<g clip-path="url(#clip0)">
<path d="M60.9385 273C27.2798 273 -0.00605011 269.893 -0.00605011 266.06C-0.00605011 262.227 27.2798 259.12 60.9385 259.12C94.5973 259.12 121.883 262.227 121.883 266.06C121.883 269.893 94.5973 273 60.9385 273Z" fill="#F4F4F4"/>
<path d="M64.863 68.6408L61.4215 72.6177C61.4215 72.6177 52.1355 67.5786 49.0502 60.2764C51.9906 60.0048 54.3091 59.866 55.5951 59.341C56.4645 60.9825 59.0004 64.9293 64.863 68.6408Z" fill="#094656"/>
<path d="M55.3898 13.0897C50.4087 14.9846 48.3922 18.8047 47.9876 23.1498C45.9771 22.8601 40.1386 21.1945 42.8375 11.8525C44.4978 6.10731 47.885 -1.42422 60.9989 0.229334C65.6721 0.814718 70.8826 3.75974 75.1573 5.61848C81.1588 8.22555 79.589 17.1511 73.0622 17.5676C72.9475 17.5736 72.8328 17.5796 72.712 17.5857C68.3649 12.5646 62.8585 10.2472 55.3898 13.0897Z" fill="#330000"/>
<path d="M69.6509 72.2436L64.863 68.6408C68.9445 66.2449 70.7377 61.8998 71.3112 60.1557C72.7603 60.542 74.1611 60.9523 75.5135 61.3929C75.5256 61.4351 75.8456 62.5576 76.3044 64.356C73.9135 69.2986 69.6509 72.2436 69.6509 72.2436Z" fill="#094656"/>
<path d="M69.1679 64.5008C69.1679 64.5008 68.0087 67.2286 64.863 68.6408C66.7589 67.5303 68.1536 65.9975 69.1679 64.5008Z" fill="#EFCB7D"/>
<path d="M64.863 68.6408C64.863 68.6408 58.94 66.7036 55.5951 59.341C56.4645 60.9825 59.0004 64.9293 64.863 68.6408Z" fill="#EFCB7D"/>
<path d="M52.0933 34.5195C43.4775 16.6563 55.3899 13.0897 55.3899 13.0897C62.8585 10.2472 68.3649 12.5646 72.706 17.5856C72.3075 17.6037 71.8909 17.6098 71.4562 17.6037C71.8909 17.6098 72.3015 17.6037 72.706 17.5856C76.2441 21.6833 79.0154 27.5734 81.4305 33.9522C86.81 48.1463 73.0381 51.1577 69.8079 53.9579C66.5777 56.752 69.8079 59.7634 69.8079 59.7634C70.3151 59.8902 70.8101 60.0229 71.3052 60.1557C70.9973 61.0851 70.3332 62.7688 69.1619 64.4948C58.3 64.6034 59.2298 49.311 52.0933 34.5195ZM73.4003 26.4267C73.8773 26.4267 74.2577 26.0405 74.2577 25.5698C74.2577 25.093 73.8713 24.7128 73.4003 24.7128C72.9294 24.7128 72.543 25.0991 72.543 25.5698C72.5369 26.0405 72.9233 26.4267 73.4003 26.4267ZM64.2894 25.5638C64.2894 25.087 63.903 24.7068 63.4321 24.7068C62.9551 24.7068 62.5747 25.093 62.5747 25.5638C62.5747 26.0405 62.9611 26.4207 63.4321 26.4207C63.903 26.4267 64.2894 26.0405 64.2894 25.5638Z" fill="#F4D7C6"/>
<path d="M53.2404 43.2037C51.3325 39.6673 47.2873 30.627 47.9876 23.1498C48.3922 23.2102 48.6518 23.2102 48.6518 23.2102C48.6518 23.2102 48.3982 23.2041 47.9876 23.1498C48.3982 18.8047 46.291 16.0347 51.2782 14.1397C51.2782 14.1397 51.0608 16.5597 51.2238 27.4768C51.3265 34.4049 55.6193 40.8079 57.2555 37.3258C64.2955 52.1595 58.3 64.6034 69.1619 64.5008C68.1475 65.9975 66.7528 67.5303 64.857 68.6408C59.0004 64.9293 56.4585 60.9825 55.5891 59.341C55.5951 59.341 55.6012 59.335 55.6012 59.335C60.7695 57.1866 56.2533 48.7981 53.2404 43.2037Z" fill="#F1BA9A"/>
<path d="M53.4518 43.596C53.4518 43.596 42.0586 26.3966 42.1794 15.6967C42.2941 4.99688 73.3762 7.26599 72.712 17.5856C72.712 17.5856 68.9807 17.5796 63.9755 15.5881C59.5076 13.8138 50.4088 14.0009 51.8397 22.2385C52.1416 23.9645 52.854 25.5879 53.8382 27.0423L56.1687 30.4882C56.6216 31.3271 54.1763 28.7381 52.6186 30.271C51.894 30.9831 51.0427 32.7935 53.7476 36.7223C60.9627 47.2109 55.3174 46.6014 53.4518 43.596Z" fill="#330000"/>
<path d="M43.725 154.94C43.713 152.514 43.6586 150.154 43.5681 147.849C43.7069 150.124 43.7613 152.489 43.725 154.94Z" fill="#876464"/>
<path d="M61.4154 72.6177L64.8569 68.6407L69.6448 72.2436C69.6448 72.2436 73.9074 69.2985 76.2984 64.362C78.0735 71.3263 81.9195 88.5015 78.0916 93.432C73.2493 99.6721 56.6759 98.1634 55.4925 93.432C54.3091 88.7007 52.8419 68.1519 46.2608 60.5721C46.2608 60.5721 46.122 60.5902 45.8986 60.6144C47.0095 60.4756 48.0601 60.3669 49.0442 60.2764C52.1355 67.5786 61.4154 72.6177 61.4154 72.6177Z" fill="#269DBD"/>
<path d="M116.401 97.3487C121.623 105.882 126.049 112.707 134.158 113.969C154.819 117.197 160.844 100.632 162.136 95.0373C163.428 89.443 151.377 87.5058 155.682 86.9928C159.987 86.4738 162.354 88.3688 164.503 88.3688C166.653 88.3688 170.746 88.3688 178.275 87.2946C185.81 86.2204 187.096 88.3688 187.096 88.3688C187.096 88.3688 188.026 90.0887 180.28 92.0984C172.533 94.108 168.802 91.2354 165.071 104.434C161.575 116.805 136.609 142.852 105.732 118.127C114.505 110.137 116.117 100.903 116.401 97.3487Z" fill="#F4D7C6"/>
<path d="M96.9896 102.913C95.5889 98.0065 94.007 93.0639 92.1896 88.0912C94.007 93.0639 95.5949 98.0065 96.9896 102.913C96.6938 102.702 88.7964 96.9202 86.5987 91.3923C81.7565 79.238 79.8425 62.9378 79.8425 62.9378C79.8425 62.9378 79.8123 62.9257 79.7761 62.9137C100.818 71.1452 109.343 85.81 116.407 97.3547C116.117 100.909 114.505 110.137 105.738 118.139C104.283 116.974 102.816 115.689 101.331 114.295C100.069 110.07 98.6379 106.214 97.0077 102.931C97.0017 102.919 96.9956 102.913 96.9896 102.913Z" fill="#269DBD"/>
<path d="M37.6753 267.345H32.2232C32.2232 267.345 32.7063 264.31 33.5274 258.522H42.3907C39.5228 264.068 37.6753 267.345 37.6753 267.345Z" fill="#330000"/>
<path d="M85.5905 261.322C91.2116 261.926 90.1791 267.345 90.1791 267.345H78.4116C79.2026 264.521 79.8486 261.57 80.3679 258.522H86.8584C86.0614 260.351 85.5905 261.322 85.5905 261.322Z" fill="#330000"/>
<path d="M86.7135 198.868C92.7512 197.721 100.027 194.734 103.746 193.098C99.8395 226.242 90.2938 250.568 86.8584 258.522H82.7708C89.8893 213.731 78.309 200.461 86.7135 198.868Z" fill="#85BEF2"/>
<path d="M78.9671 195.162C86.8765 194.353 95.3957 192.694 104.126 189.719C104.005 190.853 103.879 191.982 103.752 193.098C100.033 194.734 92.7572 197.721 86.7195 198.867C78.315 200.461 89.8954 213.731 82.7709 258.522H80.3799C83.8577 238.167 81.7022 213.562 78.9671 195.162Z" fill="#3886C1"/>
<path d="M42.2639 61.1937C42.2337 61.1998 42.1975 61.2058 42.1673 61.2118C42.1673 61.2118 51.411 76.0033 48.8269 94.9348C47.1303 107.385 42.5417 113.51 39.6013 116.238C38.0194 109.05 36.196 103.1 34.5115 98.435C34.8798 97.9582 35.2662 97.4634 35.3749 97.3487C35.2662 97.4694 34.8798 97.9643 34.5115 98.435C31.5712 90.2939 29.0595 86.0755 29.0595 86.0755C29.0595 86.0755 31.5651 90.2939 34.5115 98.435C34.1855 98.8574 33.8715 99.2618 33.7749 99.3644C30.2972 103.269 28.2987 107.433 27.3508 111.603C16.8573 108.531 11.0852 103.782 8.67016 101.362C10.0709 95.4296 12.6611 88.8878 16.4346 81.2718C23.3901 67.2467 33.781 62.8473 42.2639 61.1937Z" fill="#269DBD"/>
<path d="M78.9006 62.5817C78.5142 62.4369 78.0493 62.2679 77.5542 62.0869C78.0071 62.2498 78.4599 62.4128 78.9006 62.5817Z" fill="#876464"/>
<path d="M63.426 26.4267C62.949 26.4267 62.5687 26.0405 62.5687 25.5698C62.5687 25.093 62.9551 24.7128 63.426 24.7128C63.903 24.7128 64.2834 25.0991 64.2834 25.5698C64.2894 26.0405 63.903 26.4267 63.426 26.4267Z" fill="#330000"/>
<path d="M73.4003 26.4267C72.9234 26.4267 72.543 26.0405 72.543 25.5698C72.543 25.093 72.9294 24.7128 73.4003 24.7128C73.8713 24.7128 74.2577 25.0991 74.2577 25.5698C74.2577 26.0405 73.8713 26.4267 73.4003 26.4267Z" fill="#330000"/>
<path d="M43.6952 159.653C43.6952 159.538 43.6952 159.43 43.7009 159.315C43.7009 159.417 43.7009 159.514 43.7009 159.617C43.7009 159.623 43.6952 159.635 43.6952 159.653Z" fill="#876464"/>
<path d="M79.7762 62.9136C79.4924 62.799 79.1966 62.6964 78.9007 62.5817C79.3294 62.7386 79.6434 62.8593 79.7762 62.9136Z" fill="#876464"/>
<path d="M75.5135 61.3929C76.1233 61.586 76.8599 61.8394 77.5543 62.0869C76.8841 61.8515 76.2079 61.6222 75.5135 61.3929Z" fill="#876464"/>
<path d="M45.9046 60.6144C44.7454 60.7592 43.5257 60.9463 42.2639 61.1937C43.5439 60.9282 45.1861 60.7049 45.9046 60.6144Z" fill="#876464"/>
<path d="M43.7009 159.315C43.713 158.416 43.7069 157.565 43.6828 156.75C43.7009 156.141 43.719 155.537 43.7251 154.94C43.7371 156.376 43.7251 157.836 43.7009 159.315Z" fill="#876464"/>
<path d="M43.7009 159.315C43.7009 159.43 43.7009 159.538 43.6948 159.653C43.6828 160.069 43.5982 160.462 43.4594 160.83C43.568 159.448 43.6405 158.09 43.6828 156.756C43.7069 157.559 43.7129 158.416 43.7009 159.315Z" fill="#876464"/>
<path d="M43.4594 160.824C43.6043 160.455 43.6888 160.063 43.6948 159.647C43.6948 159.635 43.6948 159.623 43.6948 159.611C43.6948 159.508 43.6948 159.411 43.6948 159.309C43.719 157.83 43.7311 156.37 43.719 154.94C43.7552 152.489 43.6948 150.124 43.562 147.849C42.5235 130.148 36.9809 118.169 36.9809 118.169C36.9809 118.169 38.0677 117.662 39.5952 116.244C42.5356 113.51 47.1182 107.391 48.8209 94.9408C51.405 76.0094 42.1613 61.2179 42.1613 61.2179C42.1915 61.2118 42.2277 61.2058 42.2579 61.1998C43.5197 60.9523 44.7393 60.7652 45.8986 60.6204C46.122 60.5902 46.2609 60.5782 46.2609 60.5782C52.8419 68.158 54.3091 88.7067 55.4925 93.4381C56.6759 98.1694 73.2494 99.6782 78.0916 93.4381C81.9195 88.5016 78.0735 71.3323 76.2984 64.3681C75.8396 62.5636 75.5196 61.4472 75.5075 61.4049C76.2018 61.6282 76.8841 61.8576 77.5482 62.0989C78.0433 62.274 78.5082 62.449 78.8946 62.5938C79.1844 62.7024 79.4803 62.8111 79.7701 62.9257C79.8124 62.9378 79.8365 62.9499 79.8365 62.9499C79.8365 62.9499 81.7505 79.2501 86.5927 91.4043C88.7965 96.9323 96.6938 102.714 96.9836 102.925C96.9896 102.931 96.9957 102.937 96.9957 102.937C98.6258 106.22 100.057 110.082 101.319 114.301C109.771 142.592 110.472 187.341 110.472 187.341C108.34 188.222 106.221 189.013 104.108 189.731C95.3836 192.706 86.8584 194.365 78.949 195.174C75.2358 195.554 71.6554 195.747 68.2562 195.796C56.5008 195.971 46.8827 194.468 41.165 193.267C37.5002 192.501 35.4353 191.855 35.4353 191.855C40.4164 180.974 42.7167 170.407 43.4594 160.824Z" fill="#FFE08F"/>
<path d="M154.155 73.1066H185.261C186.281 73.1066 187.012 74.0842 186.728 75.0619C185.605 78.888 181.801 87.011 169.744 87.011C157.693 87.011 153.847 78.9001 152.7 75.0679C152.404 74.0903 153.134 73.1066 154.155 73.1066Z" fill="#EBAB0D"/>
<path d="M135.136 86.4738H204.268C204.714 86.4738 205.077 86.8359 205.077 87.2825C205.077 87.7291 204.714 88.0912 204.268 88.0912H135.136C134.689 88.0912 134.327 87.7291 134.327 87.2825C134.327 86.8359 134.689 86.4738 135.136 86.4738Z" fill="#330000"/>
<path d="M56.0178 107.119C58.5053 118.887 58.8917 134.97 58.8917 134.97C73.829 135.737 89.9135 133.341 89.9135 133.341C88.5731 117.547 85.6991 107.113 85.6991 107.113H56.0178V107.119Z" stroke="#F9C146" stroke-width="0.65311" stroke-miterlimit="10" stroke-linecap="round" stroke-linejoin="round"/>
<path d="M56.5732 110.016H86.4055" stroke="#F9C146" stroke-width="0.65311" stroke-miterlimit="10" stroke-linecap="round" stroke-linejoin="round"/>
<path d="M52.1657 31.3029C52.528 29.3235 55.4683 29.1545 56.2532 31.3029C55.4623 29.1485 52.5219 29.3235 52.1657 31.3029ZM52.1657 31.3029C51.4472 35.2437 56.6155 40.3372 57.2615 37.3258C56.6095 40.3372 51.4472 35.2437 52.1657 31.3029Z" stroke="#330000" stroke-width="0.65311" stroke-miterlimit="10" stroke-linecap="round" stroke-linejoin="round"/>
<path d="M72.392 38.6896C77.3429 38.5448 76.9142 34.604 76.9142 34.604C76.9142 34.604 77.3429 38.5448 72.392 38.6896ZM72.392 38.6896C67.4411 38.8345 64.7906 33.9945 64.7906 33.9945C64.7906 33.9945 67.4411 38.8285 72.392 38.6896Z" stroke="#330000" stroke-width="0.65311" stroke-miterlimit="10" stroke-linecap="round" stroke-linejoin="round"/>
<path d="M34.5176 98.441C34.5176 98.441 31.5712 90.0465 29.0655 86.0816L31.7885 101.851L34.5176 98.441Z" fill="#047492"/>
<path d="M97.0017 102.919L92.1897 88.0851L105.732 118.127L101.325 114.283C101.331 114.289 99.7308 108.055 97.0017 102.919Z" fill="#047492"/>
<path d="M69.1679 71.8815L67.4532 72.9195L64.863 70.5538L61.4155 72.6178L64.863 68.6408L69.1679 71.8815Z" fill="#047492"/>
<path d="M60.6608 72.1772L59.1332 72.9195C59.1332 72.9195 51.091 68.4295 49.0502 60.2764C49.0502 60.2764 52.3891 67.6872 60.6608 72.1772Z" fill="#047492"/>
<path d="M53.6812 204.136C59.411 203.327 63.9876 201.523 66.9944 200.026C59.7069 223.508 48.6337 246.428 42.3907 258.522H36.6368C50.8979 204.969 43.3024 205.602 53.6812 204.136Z" fill="#85BEF2"/>
<path d="M41.1771 193.255C46.8948 194.456 56.5128 195.959 68.2682 195.784C67.8577 197.196 67.435 198.614 66.9943 200.026C63.9875 201.523 59.4109 203.327 53.6812 204.136C43.3084 205.602 50.8978 204.969 36.6367 258.522H33.5273C35.1515 246.978 38.1099 224.474 41.1771 193.255Z" fill="#3886C1"/>
<path d="M8.67625 101.368C11.0853 103.788 16.8573 108.531 27.3569 111.609C24.006 126.352 33.8051 141.114 37.9047 144.306C42.4571 147.849 43.5258 151.421 43.6828 156.75C43.6405 158.09 43.5681 159.448 43.4594 160.824C42.2398 163.986 36.6489 165.374 35.1093 163.932C33.3885 162.32 35.1093 159.846 36.7757 158.072C37.0776 157.752 37.2889 157.384 37.4338 157.004C37.4398 156.991 37.4459 156.973 37.4519 156.961C38.0798 155.253 37.3674 153.232 37.3674 153.232C37.3674 153.232 37.2647 155.259 35.1153 155.603C31.6557 153.328 24.7727 147.812 16.4407 135.912C8.19928 124.15 5.65136 114.192 8.67625 101.368Z" fill="#F4D7C6"/>
<path d="M37.3674 153.232C37.3674 153.232 38.0738 155.253 37.4519 156.961C37.2164 156.853 36.4013 156.448 35.1153 155.609C37.2708 155.259 37.3674 153.232 37.3674 153.232Z" fill="#F1BA9A"/>
<path d="M163.157 66.6794C163.157 66.6794 155.042 57.6995 162.342 57.5547C166.23 57.4762 165.952 54.845 163.157 48.7136" stroke="#999999" stroke-width="0.65311" stroke-miterlimit="10" stroke-linecap="round" stroke-linejoin="round"/>
<path d="M172.213 62.455C172.213 62.455 164.099 53.4751 171.398 53.3303C175.287 53.2518 175.009 50.6206 172.213 44.4892" stroke="#999999" stroke-width="0.65311" stroke-miterlimit="10" stroke-linecap="round" stroke-linejoin="round"/>
<path d="M178.251 70.3003C178.251 70.3003 170.136 61.3204 177.436 61.1756C181.324 61.0972 181.047 58.4659 178.251 52.3345" stroke="#999999" stroke-width="0.65311" stroke-miterlimit="10" stroke-linecap="round" stroke-linejoin="round"/>
<path d="M152.386 75.086H187.03C187.76 75.086 188.358 74.4946 188.358 73.7583C188.358 73.0281 187.766 72.4307 187.03 72.4307H152.38C151.649 72.4307 151.051 73.0221 151.051 73.7583C151.057 74.4946 151.649 75.086 152.386 75.086Z" fill="#330000"/>
</g>
<defs>
<clipPath id="clip0">
<rect width="205.077" height="273" fill="white" transform="matrix(-1 0 0 1 205.077 0)"/>
</clipPath>
</defs>
</svg>
